<svg class="plot-d6a7b5" fill="currentColor" font-family="system-ui, sans-serif" font-size="10" text-anchor="middle" width="800" height="180" viewBox="0 0 800 180" xmlns="http://www.w3.org/2000/svg" xmlns:xlink="http://www.w3.org/1999/xlink"><style>.plot-d6a7b5 {
  display: block;
  background: white;
  height: auto;
  height: intrinsic;
  max-width: 100%;
}
.plot-d6a7b5 text,
.plot-d6a7b5 tspan {
  white-space: pre;
}
</style>
<!-- <rect width="100%" height="100%" fill="red" /> -->
<g aria-label="y-axis tick" fill="none" stroke="currentColor" transform="translate(0,9.5)"><path transform="translate(160,23)" d="M0,0L-6,0"/><path transform="translate(160,44)" d="M0,0L-6,0"/><path transform="translate(160,65)" d="M0,0L-6,0"/><path transform="translate(160,86)" d="M0,0L-6,0"/><path transform="translate(160,107)" d="M0,0L-6,0"/><path transform="translate(160,128)" d="M0,0L-6,0"/></g><g aria-label="y-axis tick label" text-anchor="end" transform="translate(-9,9.5)"><text y="0.32em" transform="translate(160,23)">Bugs</text><text y="0.32em" transform="translate(160,44)">Discussion</text><text y="0.32em" transform="translate(160,65)">Programming Questions &amp; Help</text><text y="0.32em" transform="translate(160,86)">Suggestions</text><text y="0.32em" transform="translate(160,107)">Teaching</text><text y="0.32em" transform="translate(160,128)">Topics &amp; Contributions</text></g><g aria-label="x-grid" stroke="currentColor" stroke-opacity="0.1"><line x1="160" x2="160" y1="20" y2="150"/><line x1="228.342151675485" x2="228.342151675485" y1="20" y2="150"/><line x1="296.68430335097" x2="296.68430335097" y1="20" y2="150"/><line x1="365.02645502645504" x2="365.02645502645504" y1="20" y2="150"/><line x1="433.36860670194005" x2="433.36860670194005" y1="20" y2="150"/><line x1="501.7107583774251" x2="501.7107583774251" y1="20" y2="150"/><line x1="570.0529100529101" x2="570.0529100529101" y1="20" y2="150"/><line x1="638.395061728395" x2="638.395061728395" y1="20" y2="150"/><line x1="706.73721340388" x2="706.73721340388" y1="20" y2="150"/><line x1="775.0793650793651" x2="775.0793650793651" y1="20" y2="150"/></g><g aria-label="x-axis tick" fill="none" stroke="currentColor"><path transform="translate(160,150)" d="M0,0L0,6"/><path transform="translate(228.342151675485,150)" d="M0,0L0,6"/><path transform="translate(296.68430335097,150)" d="M0,0L0,6"/><path transform="translate(365.02645502645504,150)" d="M0,0L0,6"/><path transform="translate(433.36860670194005,150)" d="M0,0L0,6"/><path transform="translate(501.7107583774251,150)" d="M0,0L0,6"/><path transform="translate(570.0529100529101,150)" d="M0,0L0,6"/><path transform="translate(638.395061728395,150)" d="M0,0L0,6"/><path transform="translate(706.73721340388,150)" d="M0,0L0,6"/><path transform="translate(775.0793650793651,150)" d="M0,0L0,6"/></g><g aria-label="x-axis tick label" font-variant="tabular-nums" transform="translate(0,9)"><text y="0.71em" transform="translate(160,150)">0</text><text y="0.71em" transform="translate(228.342151675485,150)">500</text><text y="0.71em" transform="translate(296.68430335097,150)">1,000</text><text y="0.71em" transform="translate(365.02645502645504,150)">1,500</text><text y="0.71em" transform="translate(433.36860670194005,150)">2,000</text><text y="0.71em" transform="translate(501.7107583774251,150)">2,500</text><text y="0.71em" transform="translate(570.0529100529101,150)">3,000</text><text y="0.71em" transform="translate(638.395061728395,150)">3,500</text><text y="0.71em" transform="translate(706.73721340388,150)">4,000</text><text y="0.71em" transform="translate(775.0793650793651,150)">4,500</text></g><g aria-label="x-axis label" text-anchor="end" transform="translate(17,27)"><text transform="translate(780,150)">Frequency →</text></g><g aria-label="bar"><rect x="160" width="279.3827160493827" y="23" height="19"/><rect x="160" width="249.31216931216932" y="44" height="19"/><rect x="160" width="324.48853615520284" y="65" height="19"/><rect x="160" width="129.30335097001762" y="86" height="19"/><rect x="160" width="27.61022927689595" y="107" height="19"/><rect x="160" width="620" y="128" height="19"/></g><g aria-label="rule" stroke="currentColor"><line x1="160" x2="160" y1="20" y2="150"/></g></svg>