<?xml version="1.0" encoding="utf-8"?>
<!-- Generator: Adobe Illustrator 27.0.1, SVG Export Plug-In . SVG Version: 6.00 Build 0)  -->
<svg version="1.1" id="Layer_1" xmlns="http://www.w3.org/2000/svg" xmlns:xlink="http://www.w3.org/1999/xlink" x="0px" y="0px"
	 viewBox="0 0 750 750" style="enable-background:new 0 0 750 750;" xml:space="preserve">
<style type="text/css">
	.st0{font-family:'Helvetica';}
	.st1{font-size:10px;}
</style>
<g>
	<g transform="rotate(-88.2) translate(275,0)">
		<text transform="matrix(1 0 0 1 -357.0358 389.6939)" class="st0 st1">100luz</text>
	</g>
	<g transform="rotate(-84.6) translate(275,0)">
		<text transform="matrix(1 0 0 1 -332.0454 411.7263)" class="st0 st1">Alex</text>
	</g>
	<g transform="rotate(-81) translate(275,0)">
		<text transform="matrix(1 0 0 1 -305.7209 432.1462)" class="st0 st1">Alina</text>
	</g>
	<g transform="rotate(-77.4) translate(275,0)">
		<text transform="matrix(1 0 0 1 -278.165 450.8723)" class="st0 st1">Allen</text>
	</g>
	<g transform="rotate(-73.8) translate(275,0)">
		<text transform="matrix(1 0 0 1 -249.4883 467.8315)" class="st0 st1">Ariel Malka</text>
	</g>
	<g transform="rotate(-70.2) translate(275,0)">
		<text transform="matrix(1 0 0 1 -219.8034 482.9569)" class="st0 st1">Bertrand Saint-Guillain</text>
	</g>
	<g transform="rotate(-66.6) translate(275,0)">
		<text transform="matrix(1 0 0 1 -189.2275 496.1883)" class="st0 st1">Brian</text>
	</g>
	<g transform="rotate(-63) translate(275,0)">
		<text transform="matrix(1 0 0 1 -157.8816 507.4738)" class="st0 st1">Dan</text>
	</g>
	<g transform="rotate(-59.39999999999999) translate(275,0)">
		<text transform="matrix(1 0 0 1 -125.8877 516.7687)" class="st0 st1">Dara</text>
	</g>
	<g transform="rotate(-55.800000000000004) translate(275,0)">
		<text transform="matrix(1 0 0 1 -93.3741 524.0364)" class="st0 st1">Dimitre</text>
	</g>
	<g transform="rotate(-52.2) translate(275,0)">
		<text transform="matrix(1 0 0 1 -60.4677 529.248)" class="st0 st1">Elrick</text>
	</g>
	<g transform="rotate(-48.6) translate(275,0)">
		<text transform="matrix(1 0 0 1 -27.3002 532.384)" class="st0 st1">Frederik De Bleser</text>
	</g>
	<g transform="rotate(-45) translate(275,0)">
		<text transform="matrix(1 0 0 1 6.0002 533.4298)" class="st0 st1">Glen Murphy</text>
	</g>
	<g transform="rotate(-41.4) translate(275,0)">
		<text transform="matrix(1 0 0 1 39.2997 532.3837)" class="st0 st1">Jeff Berg</text>
	</g>
	<g transform="rotate(-37.800000000000004) translate(275,0)">
		<text transform="matrix(1 0 0 1 72.4679 529.2484)" class="st0 st1">JimQode</text>
	</g>
	<g transform="rotate(-34.2) translate(275,0)">
		<text transform="matrix(1 0 0 1 105.3743 524.0364)" class="st0 st1">Jordan J</text>
	</g>
	<g transform="rotate(-30.599999999999987) translate(275,0)">
		<text transform="matrix(1 0 0 1 137.8879 516.7689)" class="st0 st1">Josh Nimoy</text>
	</g>
	<g transform="rotate(-27) translate(275,0)">
		<text transform="matrix(1 0 0 1 169.8814 507.4737)" class="st0 st1">Koenie</text>
	</g>
	<g transform="rotate(-23.39999999999999) translate(275,0)">
		<text transform="matrix(1 0 0 1 201.2275 496.1882)" class="st0 st1">Martin</text>
	</g>
	<g transform="rotate(-19.799999999999997) translate(275,0)">
		<text transform="matrix(1 0 0 1 231.8036 482.9569)" class="st0 st1">Mike Davis</text>
	</g>
	<g transform="rotate(-16.200000000000003) translate(275,0)">
		<text transform="matrix(1 0 0 1 261.4885 467.8316)" class="st0 st1">Processing</text>
	</g>
	<g transform="rotate(-12.600000000000009) translate(275,0)">
		<text transform="matrix(1 0 0 1 290.1651 450.8724)" class="st0 st1">REAS</text>
	</g>
	<g transform="rotate(-9) translate(275,0)">
		<text transform="matrix(1 0 0 1 317.7205 432.1461)" class="st0 st1">Takachin</text>
	</g>
	<g transform="rotate(-5.400000000000006) translate(275,0)">
		<text transform="matrix(1 0 0 1 344.0453 411.7262)" class="st0 st1">WillisMorse</text>
	</g>
	<g transform="rotate(-1.7999999999999972) translate(275,0)">
		<text transform="matrix(1 0 0 1 369.0357 389.6939)" class="st0 st1">Wim_Van_der_Vurst</text>
	</g>
	<g transform="rotate(1.7999999999999972) translate(275,0)">
		<text transform="matrix(1 0 0 1 392.5939 366.1357)" class="st0 st1">XemonerdX</text>
	</g>
	<g transform="rotate(5.400000000000006) translate(275,0)">
		<text transform="matrix(1 0 0 1 414.6263 341.1452)" class="st0 st1">Xu1</text>
	</g>
	<g transform="rotate(9.000000000000014) translate(275,0)">
		<text transform="matrix(1 0 0 1 435.0459 314.8205)" class="st0 st1">[rocha]</text>
	</g>
	<g transform="rotate(12.599999999999994) translate(275,0)">
		<text transform="matrix(1 0 0 1 453.7723 287.2652)" class="st0 st1">_cory</text>
	</g>
	<g transform="rotate(16.19999999999999) translate(275,0)">
		<text transform="matrix(1 0 0 1 470.7315 258.5886)" class="st0 st1">_martin</text>
	</g>
	<g transform="rotate(19.799999999999997) translate(275,0)">
		<text transform="matrix(1 0 0 1 485.857 228.9035)" class="st0 st1">_warren</text>
	</g>
	<g transform="rotate(23.400000000000006) translate(275,0)">
		<text transform="matrix(1 0 0 1 499.0881 198.3276)" class="st0 st1">adrien</text>
	</g>
	<g transform="rotate(27) translate(275,0)">
		<text transform="matrix(1 0 0 1 510.3736 166.9813)" class="st0 st1">anurag</text>
	</g>
	<g transform="rotate(30.60000000000001) translate(275,0)">
		<text transform="matrix(1 0 0 1 519.6688 134.9879)" class="st0 st1">arielm</text>
	</g>
	<g transform="rotate(34.19999999999999) translate(275,0)">
		<text transform="matrix(1 0 0 1 526.9362 102.4744)" class="st0 st1">artelse</text>
	</g>
	<g transform="rotate(37.79999999999998) translate(275,0)">
		<text transform="matrix(1 0 0 1 532.1483 69.5679)" class="st0 st1">barikan</text>
	</g>
	<g transform="rotate(41.400000000000006) translate(275,0)">
		<text transform="matrix(1 0 0 1 535.2836 36.3997)" class="st0 st1">benelek</text>
	</g>
	<g transform="rotate(45) translate(275,0)">
		<text transform="matrix(1 0 0 1 536.3302 3.0997)" class="st0 st1">bzor</text>
	</g>
	<g transform="rotate(48.599999999999994) translate(275,0)">
		<text transform="matrix(1 0 0 1 535.2838 -30.1997)" class="st0 st1">damille</text>
	</g>
	<g transform="rotate(52.20000000000002) translate(275,0)">
		<text transform="matrix(1 0 0 1 532.1479 -63.3677)" class="st0 st1">depth</text>
	</g>
	<g transform="rotate(55.80000000000001) translate(275,0)">
		<text transform="matrix(1 0 0 1 526.9365 -96.2743)" class="st0 st1">dnm</text>
	</g>
	<g transform="rotate(59.400000000000006) translate(275,0)">
		<text transform="matrix(1 0 0 1 519.6691 -128.7881)" class="st0 st1">ed</text>
	</g>
	<g transform="rotate(63) translate(275,0)">
		<text transform="matrix(1 0 0 1 510.3737 -160.7813)" class="st0 st1">edwardgeorge</text>
	</g>
	<g transform="rotate(66.6) translate(275,0)">
		<text transform="matrix(1 0 0 1 499.0883 -192.1277)" class="st0 st1">eviltyler</text>
	</g>
	<g transform="rotate(70.20000000000002) translate(275,0)">
		<text transform="matrix(1 0 0 1 485.8569 -222.704)" class="st0 st1">ezdac</text>
	</g>
	<g transform="rotate(73.80000000000004) translate(275,0)">
		<text transform="matrix(1 0 0 1 470.7316 -252.3885)" class="st0 st1">fdb</text>
	</g>
	<g transform="rotate(77.40000000000003) translate(275,0)">
		<text transform="matrix(1 0 0 1 453.7724 -281.0656)" class="st0 st1">fli</text>
	</g>
	<g transform="rotate(81) translate(275,0)">
		<text transform="matrix(1 0 0 1 435.0461 -308.6204)" class="st0 st1">flight404</text>
	</g>
	<g transform="rotate(84.6) translate(275,0)">
		<text transform="matrix(1 0 0 1 414.6263 -334.9457)" class="st0 st1">forkinsocket</text>
	</g>
	<g transform="rotate(88.20000000000002) translate(275,0)">
		<text transform="matrix(1 0 0 1 392.5939 -359.9355)" class="st0 st1">franklin_mint</text>
	</g>
	<g transform="rotate(91.80000000000001) translate(275,0)">
		<text transform="matrix(-1 0 0 -1 380.1438 -389.6939)" class="st0 st1">fry</text>
	</g>
	<g transform="rotate(95.4) translate(275,0)">
		<text transform="matrix(-1 0 0 -1 359.6067 -411.7262)" class="st0 st1">fulk</text>
	</g>
	<g transform="rotate(99) translate(275,0)">
		<text transform="matrix(-1 0 0 -1 339.4051 -432.1461)" class="st0 st1">gaza</text>
	</g>
	<g transform="rotate(102.60000000000002) translate(275,0)">
		<text transform="matrix(-1 0 0 -1 325.7411 -450.8723)" class="st0 st1">gkoshra</text>
	</g>
	<g transform="rotate(106.20000000000002) translate(275,0)">
		<text transform="matrix(-1 0 0 -1 289.833 -467.8315)" class="st0 st1">grumo</text>
	</g>
	<g transform="rotate(109.80000000000001) translate(275,0)">
		<text transform="matrix(-1 0 0 -1 250.695 -482.957)" class="st0 st1">gsm</text>
	</g>
	<g transform="rotate(113.39999999999998) translate(275,0)">
		<text transform="matrix(-1 0 0 -1 222.3551 -496.1881)" class="st0 st1">heidi</text>
	</g>
	<g transform="rotate(116.99999999999997) translate(275,0)">
		<text transform="matrix(-1 0 0 -1 211.0236 -507.4734)" class="st0 st1">heliodrop</text>
	</g>
	<g transform="rotate(120.6) translate(275,0)">
		<text transform="matrix(-1 0 0 -1 168.4642 -516.769)" class="st0 st1">hurlbot</text>
	</g>
	<g transform="rotate(124.19999999999999) translate(275,0)">
		<text transform="matrix(-1 0 0 -1 118.1574 -524.0364)" class="st0 st1">ik0</text>
	</g>
	<g transform="rotate(127.79999999999998) translate(275,0)">
		<text transform="matrix(-1 0 0 -1 91.3743 -529.2483)" class="st0 st1">jand</text>
	</g>
	<g transform="rotate(131.4) translate(275,0)">
		<text transform="matrix(-1 0 0 -1 68.7671 -532.3835)" class="st0 st1">jbk303</text>
	</g>
	<g transform="rotate(135) translate(275,0)">
		<text transform="matrix(-1 0 0 -1 18.783 -533.4298)" class="st0 st1">jes</text>
	</g>
	<g transform="rotate(138.6) translate(275,0)">
		<text transform="matrix(-1 0 0 -1 -11.7331 -532.3837)" class="st0 st1">jlee</text>
	</g>
	<g transform="rotate(142.2) translate(275,0)">
		<text transform="matrix(-1 0 0 -1 -42.1233 -529.2484)" class="st0 st1">joey</text>
	</g>
	<g transform="rotate(145.8) translate(275,0)">
		<text transform="matrix(-1 0 0 -1 -70.0294 -524.0366)" class="st0 st1">kevin</text>
	</g>
	<g transform="rotate(149.4) translate(275,0)">
		<text transform="matrix(-1 0 0 -1 -91.4348 -516.7687)" class="st0 st1">mKoser</text>
	</g>
	<g transform="rotate(153) translate(275,0)">
		<text transform="matrix(-1 0 0 -1 -120.0835 -507.4737)" class="st0 st1">mawend</text>
	</g>
	<g transform="rotate(156.60000000000005) translate(275,0)">
		<text transform="matrix(-1 0 0 -1 -140.8731 -496.1884)" class="st0 st1">mccutchen</text>
	</g>
	<g transform="rotate(160.2) translate(275,0)">
		<text transform="matrix(-1 0 0 -1 -173.6658 -482.9568)" class="st0 st1">meltphace</text>
	</g>
	<g transform="rotate(163.79999999999998) translate(275,0)">
		<text transform="matrix(-1 0 0 -1 -201.1438 -467.8316)" class="st0 st1">michaONE</text>
	</g>
	<g transform="rotate(167.39999999999998) translate(275,0)">
		<text transform="matrix(-1 0 0 -1 -243.7071 -450.8724)" class="st0 st1">michael</text>
	</g>
	<g transform="rotate(171) translate(275,0)">
		<text transform="matrix(-1 0 0 -1 -267.3757 -432.1461)" class="st0 st1">mmuday</text>
	</g>
	<g transform="rotate(174.59999999999997) translate(275,0)">
		<text transform="matrix(-1 0 0 -1 -307.0306 -411.7262)" class="st0 st1">mohn</text>
	</g>
	<g transform="rotate(178.20000000000005) translate(275,0)">
		<text transform="matrix(-1 0 0 -1 -307.021 -389.6939)" class="st0 st1">mr.prufrock</text>
	</g>
	<g transform="rotate(181.8) translate(275,0)">
		<text transform="matrix(-1 0 0 -1 -363.3722 -366.1357)" class="st0 st1">mrb</text>
	</g>
	<g transform="rotate(185.40000000000003) translate(275,0)">
		<text transform="matrix(-1 0 0 -1 -379.843 -341.1452)" class="st0 st1">nurm</text>
	</g>
	<g transform="rotate(189) translate(275,0)">
		<text transform="matrix(-1 0 0 -1 -398.5831 -314.8206)" class="st0 st1">oytun</text>
	</g>
	<g transform="rotate(192.60000000000002) translate(275,0)">
		<text transform="matrix(-1 0 0 -1 -391.1915 -287.2651)" class="st0 st1">pinksalmon</text>
	</g>
	<g transform="rotate(196.2) translate(275,0)">
		<text transform="matrix(-1 0 0 -1 -433.7171 -258.5884)" class="st0 st1">pitaru</text>
	</g>
	<g transform="rotate(199.8) translate(275,0)">
		<text transform="matrix(-1 0 0 -1 -421.5961 -228.9035)" class="st0 st1">pokemon#1</text>
	</g>
	<g transform="rotate(203.39999999999998) translate(275,0)">
		<text transform="matrix(-1 0 0 -1 -460.9603 -198.3276)" class="st0 st1">pollux</text>
	</g>
	<g transform="rotate(207) translate(275,0)">
		<text transform="matrix(-1 0 0 -1 -453.3442 -166.9814)" class="st0 st1">polyscope</text>
	</g>
	<g transform="rotate(210.59999999999997) translate(275,0)">
		<text transform="matrix(-1 0 0 -1 -464.3192 -134.9879)" class="st0 st1">primeclub</text>
	</g>
	<g transform="rotate(214.2) translate(275,0)">
		<text transform="matrix(-1 0 0 -1 -483.8184 -102.4742)" class="st0 st1">rlivings</text>
	</g>
	<g transform="rotate(217.79999999999995) translate(275,0)">
		<text transform="matrix(-1 0 0 -1 -476.7985 -69.5682)" class="st0 st1">scrap-pile</text>
	</g>
	<g transform="rotate(221.40000000000003) translate(275,0)">
		<text transform="matrix(-1 0 0 -1 -492.1605 -36.3996)" class="st0 st1">sdewitt</text>
	</g>
	<g transform="rotate(225) translate(275,0)">
		<text transform="matrix(-1 0 0 -1 -508.207 -3.0999)" class="st0 st1">seb</text>
	</g>
	<g transform="rotate(228.59999999999997) translate(275,0)">
		<text transform="matrix(-1 0 0 -1 -489.3776 30.1999)" class="st0 st1">skloopy</text>
	</g>
	<g transform="rotate(232.20000000000005) translate(275,0)">
		<text transform="matrix(-1 0 0 -1 -484.5818 63.3677)" class="st0 st1">solipsys</text>
	</g>
	<g transform="rotate(235.8) translate(275,0)">
		<text transform="matrix(-1 0 0 -1 -474.9168 96.2742)" class="st0 st1">spacegirl</text>
	</g>
	<g transform="rotate(239.39999999999998) translate(275,0)">
		<text transform="matrix(-1 0 0 -1 -437.6396 128.7882)" class="st0 st1">sparky_monkey</text>
	</g>
	<g transform="rotate(243) translate(275,0)">
		<text transform="matrix(-1 0 0 -1 -452.2358 160.7812)" class="st0 st1">sportebois</text>
	</g>
	<g transform="rotate(246.60000000000002) translate(275,0)">
		<text transform="matrix(-1 0 0 -1 -463.7438 192.1278)" class="st0 st1">svela</text>
	</g>
	<g transform="rotate(250.19999999999993) translate(275,0)">
		<text transform="matrix(-1 0 0 -1 -446.6253 222.7033)" class="st0 st1">tomek</text>
	</g>
	<g transform="rotate(253.8) translate(275,0)">
		<text transform="matrix(-1 0 0 -1 -443.1699 252.3882)" class="st0 st1">toxi</text>
	</g>
	<g transform="rotate(257.4) translate(275,0)">
		<text transform="matrix(-1 0 0 -1 -420.0878 281.0653)" class="st0 st1">v3ga</text>
	</g>
	<g transform="rotate(261) translate(275,0)">
		<text transform="matrix(-1 0 0 -1 -378.0168 308.6207)" class="st0 st1">vanwoods</text>
	</g>
	<g transform="rotate(264.6) translate(275,0)">
		<text transform="matrix(-1 0 0 -1 -383.7249 334.9453)" class="st0 st1">vent</text>
	</g>
	<g transform="rotate(268.2) translate(275,0)">
		<text transform="matrix(-1 0 0 -1 -364.6515 359.9361)" class="st0 st1">xoff</text>
	</g>
</g>
</svg>
