<svg class="plot-d6a7b5" fill="currentColor" font-family="system-ui, sans-serif" font-size="10" text-anchor="middle" width="800" height="460" viewBox="0 0 800 460" xmlns="http://www.w3.org/2000/svg" xmlns:xlink="http://www.w3.org/1999/xlink"><style>.plot-d6a7b5 {
  display: block;
  background: white;
  height: auto;
  height: intrinsic;
  max-width: 100%;
}
.plot-d6a7b5 text,
.plot-d6a7b5 tspan {
  white-space: pre;
}</style><g aria-label="y-axis tick" fill="none" stroke="currentColor" transform="translate(0,9)"><path transform="translate(260,26)" d="M0,0L-6,0"/><path transform="translate(260,46)" d="M0,0L-6,0"/><path transform="translate(260,66)" d="M0,0L-6,0"/><path transform="translate(260,86)" d="M0,0L-6,0"/><path transform="translate(260,106)" d="M0,0L-6,0"/><path transform="translate(260,126)" d="M0,0L-6,0"/><path transform="translate(260,146)" d="M0,0L-6,0"/><path transform="translate(260,166)" d="M0,0L-6,0"/><path transform="translate(260,186)" d="M0,0L-6,0"/><path transform="translate(260,206)" d="M0,0L-6,0"/><path transform="translate(260,226)" d="M0,0L-6,0"/><path transform="translate(260,246)" d="M0,0L-6,0"/><path transform="translate(260,266)" d="M0,0L-6,0"/><path transform="translate(260,286)" d="M0,0L-6,0"/><path transform="translate(260,306)" d="M0,0L-6,0"/><path transform="translate(260,326)" d="M0,0L-6,0"/><path transform="translate(260,346)" d="M0,0L-6,0"/><path transform="translate(260,366)" d="M0,0L-6,0"/><path transform="translate(260,386)" d="M0,0L-6,0"/><path transform="translate(260,406)" d="M0,0L-6,0"/></g><g aria-label="y-axis tick label" text-anchor="end" transform="translate(-9,9)"><text y="0.32em" transform="translate(260,26)">Ben Fry</text><text y="0.32em" transform="translate(260,46)">codeanticode</text><text y="0.32em" transform="translate(260,66)">Manindra Moharana</text><text y="0.32em" transform="translate(260,86)">Jakub Valtar</text><text y="0.32em" transform="translate(260,106)">Casey Reas</text><text y="0.32em" transform="translate(260,126)">jdf</text><text y="0.32em" transform="translate(260,146)">gohai</text><text y="0.32em" transform="translate(260,166)">Akarshit Wal</text><text y="0.32em" transform="translate(260,186)">pesckal</text><text y="0.32em" transform="translate(260,206)">A Pottinger</text><text y="0.32em" transform="translate(260,226)">Daniel Shiffman</text><text y="0.32em" transform="translate(260,246)">lonnen</text><text y="0.32em" transform="translate(260,266)">Scott Murray</text><text y="0.32em" transform="translate(260,286)">fjenett</text><text y="0.32em" transform="translate(260,306)">Federico Bond</text><text y="0.32em" transform="translate(260,326)">joelmoniz</text><text y="0.32em" transform="translate(260,346)">George Bateman</text><text y="0.32em" transform="translate(260,366)">Joel Moniz</text><text y="0.32em" transform="translate(260,386)">Jonathan Feinberg</text><text y="0.32em" transform="translate(260,406)">A Samuel Pottinger</text></g><g aria-label="x-grid" stroke="currentColor" stroke-opacity="0.1"><line x1="260" x2="260" y1="20" y2="430"/><line x1="368.889121557952" x2="368.889121557952" y1="20" y2="430"/><line x1="477.77824311590405" x2="477.77824311590405" y1="20" y2="430"/><line x1="586.6673646738561" x2="586.6673646738561" y1="20" y2="430"/><line x1="695.5564862318082" x2="695.5564862318082" y1="20" y2="430"/></g><g aria-label="x-axis tick" fill="none" stroke="currentColor"><path transform="translate(260,430)" d="M0,0L0,6"/><path transform="translate(368.889121557952,430)" d="M0,0L0,6"/><path transform="translate(477.77824311590405,430)" d="M0,0L0,6"/><path transform="translate(586.6673646738561,430)" d="M0,0L0,6"/><path transform="translate(695.5564862318082,430)" d="M0,0L0,6"/></g><g aria-label="x-axis tick label" font-variant="tabular-nums" transform="translate(0,9)"><text y="0.71em" transform="translate(260,430)">0</text><text y="0.71em" transform="translate(368.889121557952,430)">2,000</text><text y="0.71em" transform="translate(477.77824311590405,430)">4,000</text><text y="0.71em" transform="translate(586.6673646738561,430)">6,000</text><text y="0.71em" transform="translate(695.5564862318082,430)">8,000</text></g><g aria-label="x-axis label" text-anchor="end" transform="translate(17,27)"><text transform="translate(780,430)">Frequency →</text></g><g aria-label="bar"><rect x="260" width="7.350015705161809" y="206" height="18"/><rect x="260" width="2.341116113495957" y="406" height="18"/><rect x="260" width="8.820018846194102" y="166" height="18"/><rect x="260" width="520" y="26" height="18"/><rect x="260" width="22.213380797822253" y="106" height="18"/><rect x="260" width="6.1522353680242645" y="226" height="18"/><rect x="260" width="3.375562768296504" y="306" height="18"/><rect x="260" width="2.722228038948799" y="346" height="18"/><rect x="260" width="27.058946707151108" y="86" height="18"/><rect x="260" width="2.5588943566118587" y="366" height="18"/><rect x="260" width="2.5044497958328975" y="386" height="18"/><rect x="260" width="31.30562244791122" y="66" height="18"/><rect x="260" width="4.028897497644266" y="266" height="18"/><rect x="260" width="115.36802429065023" y="46" height="18"/><rect x="260" width="3.9744529368653048" y="286" height="18"/><rect x="260" width="9.364464453983885" y="146" height="18"/><rect x="260" width="10.398911108784432" y="126" height="18"/><rect x="260" width="3.1577845251806593" y="326" height="18"/><rect x="260" width="4.900010470107816" y="246" height="18"/><rect x="260" width="7.5133493874986925" y="186" height="18"/></g><g aria-label="rule" stroke="currentColor"><line x1="260" x2="260" y1="20" y2="430"/></g></svg>