<svg class="plot-d6a7b5" fill="currentColor" font-family="system-ui, sans-serif" font-size="10" text-anchor="middle" width="800" height="300" viewBox="0 0 800 300" xmlns="http://www.w3.org/2000/svg" xmlns:xlink="http://www.w3.org/1999/xlink"><style>.plot-d6a7b5 {
  display: block;
  background: white;
  height: auto;
  height: intrinsic;
  max-width: 100%;
}
.plot-d6a7b5 text,
.plot-d6a7b5 tspan {
  white-space: pre;
}</style><g aria-label="y-axis tick" fill="none" stroke="currentColor" transform="translate(0,9)"><path transform="translate(100,26)" d="M0,0L-6,0"/><path transform="translate(100,46)" d="M0,0L-6,0"/><path transform="translate(100,66)" d="M0,0L-6,0"/><path transform="translate(100,86)" d="M0,0L-6,0"/><path transform="translate(100,106)" d="M0,0L-6,0"/><path transform="translate(100,126)" d="M0,0L-6,0"/><path transform="translate(100,146)" d="M0,0L-6,0"/><path transform="translate(100,166)" d="M0,0L-6,0"/><path transform="translate(100,186)" d="M0,0L-6,0"/><path transform="translate(100,206)" d="M0,0L-6,0"/><path transform="translate(100,226)" d="M0,0L-6,0"/><path transform="translate(100,246)" d="M0,0L-6,0"/></g><g aria-label="y-axis tick label" text-anchor="end" transform="translate(-9,9)"><text y="0.32em" transform="translate(100,26)">fry</text><text y="0.32em" transform="translate(100,46)">PhiLho </text><text y="0.32em" transform="translate(100,66)">REAS</text><text y="0.32em" transform="translate(100,86)">Cedric</text><text y="0.32em" transform="translate(100,106)">arielm</text><text y="0.32em" transform="translate(100,126)">benelek</text><text y="0.32em" transform="translate(100,146)">fjen</text><text y="0.32em" transform="translate(100,166)">Martin</text><text y="0.32em" transform="translate(100,186)">TomC</text><text y="0.32em" transform="translate(100,206)">mKoser</text><text y="0.32em" transform="translate(100,226)">st33d</text><text y="0.32em" transform="translate(100,246)">flight404</text></g><g aria-label="x-grid" stroke="currentColor" stroke-opacity="0.1"><line x1="100" x2="100" y1="20" y2="270"/><line x1="158.72193436960276" x2="158.72193436960276" y1="20" y2="270"/><line x1="217.44386873920553" x2="217.44386873920553" y1="20" y2="270"/><line x1="276.1658031088083" x2="276.1658031088083" y1="20" y2="270"/><line x1="334.88773747841105" x2="334.88773747841105" y1="20" y2="270"/><line x1="393.6096718480138" x2="393.6096718480138" y1="20" y2="270"/><line x1="452.3316062176165" x2="452.3316062176165" y1="20" y2="270"/><line x1="511.05354058721935" x2="511.05354058721935" y1="20" y2="270"/><line x1="569.7754749568221" x2="569.7754749568221" y1="20" y2="270"/><line x1="628.4974093264249" x2="628.4974093264249" y1="20" y2="270"/><line x1="687.2193436960276" x2="687.2193436960276" y1="20" y2="270"/><line x1="745.9412780656304" x2="745.9412780656304" y1="20" y2="270"/></g><g aria-label="x-axis tick" fill="none" stroke="currentColor"><path transform="translate(100,270)" d="M0,0L0,6"/><path transform="translate(158.72193436960276,270)" d="M0,0L0,6"/><path transform="translate(217.44386873920553,270)" d="M0,0L0,6"/><path transform="translate(276.1658031088083,270)" d="M0,0L0,6"/><path transform="translate(334.88773747841105,270)" d="M0,0L0,6"/><path transform="translate(393.6096718480138,270)" d="M0,0L0,6"/><path transform="translate(452.3316062176165,270)" d="M0,0L0,6"/><path transform="translate(511.05354058721935,270)" d="M0,0L0,6"/><path transform="translate(569.7754749568221,270)" d="M0,0L0,6"/><path transform="translate(628.4974093264249,270)" d="M0,0L0,6"/><path transform="translate(687.2193436960276,270)" d="M0,0L0,6"/><path transform="translate(745.9412780656304,270)" d="M0,0L0,6"/></g><g aria-label="x-axis tick label" font-variant="tabular-nums" transform="translate(0,9)"><text y="0.71em" transform="translate(100,270)">0</text><text y="0.71em" transform="translate(158.72193436960276,270)">200</text><text y="0.71em" transform="translate(217.44386873920553,270)">400</text><text y="0.71em" transform="translate(276.1658031088083,270)">600</text><text y="0.71em" transform="translate(334.88773747841105,270)">800</text><text y="0.71em" transform="translate(393.6096718480138,270)">1,000</text><text y="0.71em" transform="translate(452.3316062176165,270)">1,200</text><text y="0.71em" transform="translate(511.05354058721935,270)">1,400</text><text y="0.71em" transform="translate(569.7754749568221,270)">1,600</text><text y="0.71em" transform="translate(628.4974093264249,270)">1,800</text><text y="0.71em" transform="translate(687.2193436960276,270)">2,000</text><text y="0.71em" transform="translate(745.9412780656304,270)">2,200</text></g><g aria-label="x-axis label" text-anchor="end" transform="translate(17,27)"><text transform="translate(780,270)">Frequency →</text></g><g aria-label="bar"><rect x="100" width="165.30224525043178" y="86" height="18"/><rect x="100" width="122.43523316062178" y="166" height="18"/><rect x="100" width="283.9205526770294" y="46" height="18"/><rect x="100" width="257.4956822107081" y="66" height="18"/><rect x="100" width="101.5889464594128" y="186" height="18"/><rect x="100" width="165.00863557858372" y="106" height="18"/><rect x="100" width="164.42141623488777" y="126" height="18"/><rect x="100" width="141.8134715025907" y="146" height="18"/><rect x="100" width="83.38514680483593" y="246" height="18"/><rect x="100" width="680" y="26" height="18"/><rect x="100" width="89.55094991364422" y="206" height="18"/><rect x="100" width="88.67012089810018" y="226" height="18"/></g><g aria-label="rule" stroke="currentColor"><line x1="100" x2="100" y1="20" y2="270"/></g><g aria-label="tip" fill="white" stroke="currentColor" pointer-events="none" text-anchor="start" transform="translate(0,9)"/></svg>