<svg class="plot-d6a7b5" fill="currentColor" font-family="system-ui, sans-serif" font-size="10" text-anchor="middle" width="1000" height="400" viewBox="0 0 1000 400" xmlns="http://www.w3.org/2000/svg" xmlns:xlink="http://www.w3.org/1999/xlink"><style>.plot-d6a7b5 {
  display: block;
  background: white;
  height: auto;
  height: intrinsic;
  max-width: 100%;
}
.plot-d6a7b5 text,
.plot-d6a7b5 tspan {
  white-space: pre;
}</style><g aria-label="y-axis tick" fill="none" stroke="currentColor"><path transform="translate(40,370)" d="M0,0L-6,0"/><path transform="translate(40,323.2335649385355)" d="M0,0L-6,0"/><path transform="translate(40,276.4671298770711)" d="M0,0L-6,0"/><path transform="translate(40,229.70069481560662)" d="M0,0L-6,0"/><path transform="translate(40,182.93425975414218)" d="M0,0L-6,0"/><path transform="translate(40,136.16782469267773)" d="M0,0L-6,0"/><path transform="translate(40,89.40138963121325)" d="M0,0L-6,0"/><path transform="translate(40,42.63495456974881)" d="M0,0L-6,0"/></g><g aria-label="y-axis tick label" text-anchor="end" font-variant="tabular-nums" transform="translate(-9,0)"><text y="0.32em" transform="translate(40,370)">0</text><text y="0.32em" transform="translate(40,323.2335649385355)">500</text><text y="0.32em" transform="translate(40,276.4671298770711)">1,000</text><text y="0.32em" transform="translate(40,229.70069481560662)">1,500</text><text y="0.32em" transform="translate(40,182.93425975414218)">2,000</text><text y="0.32em" transform="translate(40,136.16782469267773)">2,500</text><text y="0.32em" transform="translate(40,89.40138963121325)">3,000</text><text y="0.32em" transform="translate(40,42.63495456974881)">3,500</text></g><g aria-label="y-axis label" text-anchor="start" transform="translate(-37,-17)"><text y="0.71em" transform="translate(40,20)">↑ Frequency</text></g><g aria-label="x-axis tick" fill="none" stroke="currentColor"><path transform="translate(40,370)" d="M0,0L0,6"/><path transform="translate(135.54441659704815,370)" d="M0,0L0,6"/><path transform="translate(231.08883319409634,370)" d="M0,0L0,6"/><path transform="translate(326.6332497911445,370)" d="M0,0L0,6"/><path transform="translate(422.4394319131161,370)" d="M0,0L0,6"/><path transform="translate(517.9838485101643,370)" d="M0,0L0,6"/><path transform="translate(613.5282651072125,370)" d="M0,0L0,6"/><path transform="translate(709.0726817042606,370)" d="M0,0L0,6"/><path transform="translate(804.8788638262322,370)" d="M0,0L0,6"/><path transform="translate(900.4232804232804,370)" d="M0,0L0,6"/></g><g aria-label="x-axis tick label" font-variant="tabular-nums" transform="translate(0,9)"><text y="0.71em" transform="translate(40,370)">2001</text><text y="0.71em" transform="translate(135.54441659704815,370)">2002</text><text y="0.71em" transform="translate(231.08883319409634,370)">2003</text><text y="0.71em" transform="translate(326.6332497911445,370)">2004</text><text y="0.71em" transform="translate(422.4394319131161,370)">2005</text><text y="0.71em" transform="translate(517.9838485101643,370)">2006</text><text y="0.71em" transform="translate(613.5282651072125,370)">2007</text><text y="0.71em" transform="translate(709.0726817042606,370)">2008</text><text y="0.71em" transform="translate(804.8788638262322,370)">2009</text><text y="0.71em" transform="translate(900.4232804232804,370)">2010</text></g><g aria-label="rule" stroke="currentColor"><line x1="40" x2="980" y1="370" y2="370"/></g><g aria-label="line" fill="none" stroke="#4E7AA8" stroke-width="1.5" stroke-linejoin="round" stroke-linecap="round"><path d="M194.965,348.394L219.048,332.961L242.868,273.568L266.558,276.093L290.51,230.355L314.592,232.694L338.544,252.803L362.364,225.679L386.316,265.243L410.398,275.625L434.219,266.366L457.909,134.297L481.86,307.801L505.943,296.015L529.763,325.385L553.453,345.12L577.405,344.372L601.487,341.192L625.308,344.185L648.997,355.409L672.949,346.149L697.031,338.666L720.983,339.882L744.804,333.99L768.755,345.681L792.838,328.471L816.658,310.232L840.348,312.01L864.3,311.168L888.382,300.973L912.203,135.887L935.893,20L959.844,369.813L1031.437,369.906L1079.471,369.719"/></g><g aria-label="line" fill="none" stroke="#F28F2C" stroke-width="1.5" stroke-linejoin="round" stroke-linecap="round"><path d="M87.772,364.388L183.317,349.423L278.861,334.364L374.536,340.35L470.212,324.262L565.756,328.004L661.3,345.962L756.976,309.858L852.651,346.43L948.195,279.647L1043.74,274.129L1139.415,239.428L1235.091,233.161L1330.635,230.449L1426.179,161.796L1521.855,304.621L1617.53,327.723L1713.074,347.272L1808.619,346.617L1904.294,342.782L1999.969,314.254L2095.514,271.323L2191.058,353.351"/></g><g aria-label="rule" stroke="currentColor" stroke-opacity="0.1"><line x1="126.69892323401095" x2="126.69892323401095" y1="20" y2="370"/><line x1="126.96068875893437" x2="126.96068875893437" y1="20" y2="370"/><line x1="129.840109533092" x2="129.840109533092" y1="20" y2="370"/><line x1="130.10187505801542" x2="130.10187505801542" y1="20" y2="370"/><line x1="140.57249605495218" x2="140.57249605495218" y1="20" y2="370"/><line x1="141.35779262972244" x2="141.35779262972244" y1="20" y2="370"/><line x1="146.33133760326743" x2="146.33133760326743" y1="20" y2="370"/><line x1="149.9960549521953" x2="149.9960549521953" y1="20" y2="370"/><line x1="176.42346607258887" x2="176.42346607258887" y1="20" y2="370"/><line x1="176.68523159751228" x2="176.68523159751228" y1="20" y2="370"/><line x1="176.68523159751228" x2="176.68523159751228" y1="20" y2="370"/><line x1="182.96760419567437" x2="182.96760419567437" y1="20" y2="370"/><line x1="182.96760419567437" x2="182.96760419567437" y1="20" y2="370"/><line x1="183.2293697205978" x2="183.2293697205978" y1="20" y2="370"/><line x1="184.01466629536804" x2="184.01466629536804" y1="20" y2="370"/><line x1="184.53819734521488" x2="184.53819734521488" y1="20" y2="370"/><line x1="184.7999628701383" x2="184.7999628701383" y1="20" y2="370"/><line x1="188.4646802190662" x2="188.4646802190662" y1="20" y2="370"/><line x1="188.7264457439896" x2="188.7264457439896" y1="20" y2="370"/><line x1="189.77350784368326" x2="189.77350784368326" y1="20" y2="370"/><line x1="189.77350784368326" x2="189.77350784368326" y1="20" y2="370"/><line x1="190.55880441845352" x2="190.55880441845352" y1="20" y2="370"/><line x1="190.82056994337694" x2="190.82056994337694" y1="20" y2="370"/><line x1="191.08233546830039" x2="191.08233546830039" y1="20" y2="370"/><line x1="191.08233546830039" x2="191.08233546830039" y1="20" y2="370"/><line x1="191.3441009932238" x2="191.3441009932238" y1="20" y2="370"/><line x1="199.4588322658498" x2="199.4588322658498" y1="20" y2="370"/><line x1="212.02357746217393" x2="212.02357746217393" y1="20" y2="370"/><line x1="220.14921563167178" x2="220.14921563167178" y1="20" y2="370"/><line x1="232.19042977814905" x2="232.19042977814905" y1="20" y2="370"/><line x1="232.71396082799592" x2="232.71396082799592" y1="20" y2="370"/><line x1="237.6875058015409" x2="237.6875058015409" y1="20" y2="370"/><line x1="237.9492713264643" x2="237.9492713264643" y1="20" y2="370"/><line x1="238.99633342615797" x2="238.99633342615797" y1="20" y2="370"/><line x1="247.63459574863083" x2="247.63459574863083" y1="20" y2="370"/><line x1="255.48756149633343" x2="255.48756149633343" y1="20" y2="370"/><line x1="257.30901327392553" x2="257.30901327392553" y1="20" y2="370"/><line x1="269.35022742040286" x2="269.35022742040286" y1="20" y2="370"/><line x1="279.0355518425694" x2="279.0355518425694" y1="20" y2="370"/><line x1="287.67381416504224" x2="287.67381416504224" y1="20" y2="370"/><line x1="294.47971781305114" x2="294.47971781305114" y1="20" y2="370"/><line x1="300.2385593613664" x2="300.2385593613664" y1="20" y2="370"/><line x1="300.50032488628983" x2="300.50032488628983" y1="20" y2="370"/><line x1="300.76209041121325" x2="300.76209041121325" y1="20" y2="370"/><line x1="301.5473869859835" x2="301.5473869859835" y1="20" y2="370"/><line x1="302.07091803583035" x2="302.07091803583035" y1="20" y2="370"/><line x1="302.33268356075376" x2="302.33268356075376" y1="20" y2="370"/><line x1="307.3062285342987" x2="307.3062285342987" y1="20" y2="370"/><line x1="309.6730251554813" x2="309.6730251554813" y1="20" y2="370"/><line x1="335.064281073053" x2="335.064281073053" y1="20" y2="370"/><line x1="335.064281073053" x2="335.064281073053" y1="20" y2="370"/><line x1="349.46138494384104" x2="349.46138494384104" y1="20" y2="370"/><line x1="349.46138494384104" x2="349.46138494384104" y1="20" y2="370"/><line x1="437.9381323679569" x2="437.9381323679569" y1="20" y2="370"/><line x1="445.5293325907361" x2="445.5293325907361" y1="20" y2="370"/><line x1="445.7910981156595" x2="445.7910981156595" y1="20" y2="370"/><line x1="446.31462916550635" x2="446.31462916550635" y1="20" y2="370"/><line x1="446.8272533184814" x2="446.8272533184814" y1="20" y2="370"/><line x1="447.3507843683282" x2="447.3507843683282" y1="20" y2="370"/><line x1="450.2302051424859" x2="450.2302051424859" y1="20" y2="370"/><line x1="450.75373619233267" x2="450.75373619233267" y1="20" y2="370"/><line x1="453.89492249141375" x2="453.89492249141375" y1="20" y2="370"/><line x1="454.1566880163371" x2="454.1566880163371" y1="20" y2="370"/><line x1="455.46551564095427" x2="455.46551564095427" y1="20" y2="370"/><line x1="455.7272811658777" x2="455.7272811658777" y1="20" y2="370"/><line x1="455.9890466908011" x2="455.9890466908011" y1="20" y2="370"/><line x1="463.31848138865683" x2="463.31848138865683" y1="20" y2="370"/><line x1="469.6008539868189" x2="469.6008539868189" y1="20" y2="370"/><line x1="497.34799962870136" x2="497.34799962870136" y1="20" y2="370"/><line x1="501.80892044927134" x2="501.80892044927134" y1="20" y2="370"/><line x1="502.3324514991182" x2="502.3324514991182" y1="20" y2="370"/><line x1="508.6148240972802" x2="508.6148240972802" y1="20" y2="370"/><line x1="509.4001206720505" x2="509.4001206720505" y1="20" y2="370"/><line x1="509.92365172189733" x2="509.92365172189733" y1="20" y2="370"/><line x1="514.3736656455955" x2="514.3736656455955" y1="20" y2="370"/><line x1="521.1795692936043" x2="521.1795692936043" y1="20" y2="370"/><line x1="521.4413348185278" x2="521.4413348185278" y1="20" y2="370"/><line x1="521.7031003434512" x2="521.7031003434512" y1="20" y2="370"/><line x1="522.4883969182215" x2="522.4883969182215" y1="20" y2="370"/><line x1="532.9590179151584" x2="532.9590179151584" y1="20" y2="370"/><line x1="532.9590179151584" x2="532.9590179151584" y1="20" y2="370"/><line x1="533.4825489650052" x2="533.4825489650052" y1="20" y2="370"/><line x1="533.7443144899285" x2="533.7443144899285" y1="20" y2="370"/><line x1="537.1472663139331" x2="537.1472663139331" y1="20" y2="370"/><line x1="538.7178594634735" x2="538.7178594634735" y1="20" y2="370"/><line x1="538.979624988397" x2="538.979624988397" y1="20" y2="370"/><line x1="540.5502181379373" x2="540.5502181379373" y1="20" y2="370"/><line x1="544.7275596398404" x2="544.7275596398404" y1="20" y2="370"/><line x1="544.9893251647638" x2="544.9893251647638" y1="20" y2="370"/><line x1="546.2981527893809" x2="546.2981527893809" y1="20" y2="370"/><line x1="552.0569943376961" x2="552.0569943376961" y1="20" y2="370"/><line x1="588.7041678269749" x2="588.7041678269749" y1="20" y2="370"/><line x1="589.4894644017451" x2="589.4894644017451" y1="20" y2="370"/><line x1="589.4894644017451" x2="589.4894644017451" y1="20" y2="370"/><line x1="591.8453541260559" x2="591.8453541260559" y1="20" y2="370"/><line x1="598.6621646709366" x2="598.6621646709366" y1="20" y2="370"/><line x1="598.9239301958601" x2="598.9239301958601" y1="20" y2="370"/><line x1="604.6827717441753" x2="604.6827717441753" y1="20" y2="370"/><line x1="605.2063027940221" x2="605.2063027940221" y1="20" y2="370"/><line x1="622.4828274389678" x2="622.4828274389678" y1="20" y2="370"/><line x1="664.6161700547665" x2="664.6161700547665" y1="20" y2="370"/><line x1="687.1280051981806" x2="687.1280051981806" y1="20" y2="370"/><line x1="688.4368328227978" x2="688.4368328227978" y1="20" y2="370"/><line x1="688.9603638726446" x2="688.9603638726446" y1="20" y2="370"/><line x1="689.4838949224915" x2="689.4838949224915" y1="20" y2="370"/><line x1="690.0074259723383" x2="690.0074259723383" y1="20" y2="370"/><line x1="690.5309570221851" x2="690.5309570221851" y1="20" y2="370"/><line x1="690.5309570221851" x2="690.5309570221851" y1="20" y2="370"/><line x1="691.5780191218788" x2="691.5780191218788" y1="20" y2="370"/><line x1="697.3477675670658" x2="697.3477675670658" y1="20" y2="370"/><line x1="698.3948296667595" x2="698.3948296667595" y1="20" y2="370"/><line x1="748.1193725053374" x2="748.1193725053374" y1="20" y2="370"/><line x1="748.6429035551843" x2="748.6429035551843" y1="20" y2="370"/><line x1="749.689965654878" x2="749.689965654878" y1="20" y2="370"/><line x1="751.2605588044185" x2="751.2605588044185" y1="20" y2="370"/><line x1="751.5223243293419" x2="751.5223243293419" y1="20" y2="370"/><line x1="752.8311519539591" x2="752.8311519539591" y1="20" y2="370"/><line x1="763.8253040007427" x2="763.8253040007427" y1="20" y2="370"/><line x1="766.9664902998237" x2="766.9664902998237" y1="20" y2="370"/><line x1="768.5370834493642" x2="768.5370834493642" y1="20" y2="370"/><line x1="768.7988489742876" x2="768.7988489742876" y1="20" y2="370"/><line x1="769.3223800241344" x2="769.3223800241344" y1="20" y2="370"/><line x1="769.5841455490578" x2="769.5841455490578" y1="20" y2="370"/><line x1="784.5047804696927" x2="784.5047804696927" y1="20" y2="370"/><line x1="784.5047804696927" x2="784.5047804696927" y1="20" y2="370"/><line x1="785.0283115195396" x2="785.0283115195396" y1="20" y2="370"/><line x1="785.5518425693864" x2="785.5518425693864" y1="20" y2="370"/><line x1="786.0753736192333" x2="786.0753736192333" y1="20" y2="370"/><line x1="786.0753736192333" x2="786.0753736192333" y1="20" y2="370"/><line x1="789.7509978650329" x2="789.7509978650329" y1="20" y2="370"/><line x1="791.3215910145734" x2="791.3215910145734" y1="20" y2="370"/><line x1="793.4157152139608" x2="793.4157152139608" y1="20" y2="370"/><line x1="794.4627773136544" x2="794.4627773136544" y1="20" y2="370"/><line x1="794.7245428385779" x2="794.7245428385779" y1="20" y2="370"/><line x1="794.9863083635013" x2="794.9863083635013" y1="20" y2="370"/><line x1="794.9863083635013" x2="794.9863083635013" y1="20" y2="370"/><line x1="794.9863083635013" x2="794.9863083635013" y1="20" y2="370"/><line x1="794.9863083635013" x2="794.9863083635013" y1="20" y2="370"/><line x1="796.2951359881184" x2="796.2951359881184" y1="20" y2="370"/><line x1="818.2834400816857" x2="818.2834400816857" y1="20" y2="370"/><line x1="819.0687366564559" x2="819.0687366564559" y1="20" y2="370"/><line x1="844.1873201522324" x2="844.1873201522324" y1="20" y2="370"/><line x1="846.0196788266963" x2="846.0196788266963" y1="20" y2="370"/><line x1="863.2962034716421" x2="863.2962034716421" y1="20" y2="370"/><line x1="869.3168105448807" x2="869.3168105448807" y1="20" y2="370"/><line x1="880.8344936415111" x2="880.8344936415111" y1="20" y2="370"/><line x1="881.3580246913581" x2="881.3580246913581" y1="20" y2="370"/><line x1="913.5660911538105" x2="913.5660911538105" y1="20" y2="370"/><line x1="913.5660911538105" x2="913.5660911538105" y1="20" y2="370"/><line x1="913.8278566787338" x2="913.8278566787338" y1="20" y2="370"/><line x1="913.8278566787338" x2="913.8278566787338" y1="20" y2="370"/><line x1="916.7072774528915" x2="916.7072774528915" y1="20" y2="370"/><line x1="916.7072774528915" x2="916.7072774528915" y1="20" y2="370"/><line x1="918.5396361273554" x2="918.5396361273554" y1="20" y2="370"/><line x1="919.5757913301773" x2="919.5757913301773" y1="20" y2="370"/><line x1="919.5757913301773" x2="919.5757913301773" y1="20" y2="370"/><line x1="920.6228534298709" x2="920.6228534298709" y1="20" y2="370"/><line x1="920.6228534298709" x2="920.6228534298709" y1="20" y2="370"/><line x1="923.2405086791052" x2="923.2405086791052" y1="20" y2="370"/><line x1="923.2405086791052" x2="923.2405086791052" y1="20" y2="370"/><line x1="923.7640397289521" x2="923.7640397289521" y1="20" y2="370"/><line x1="923.7640397289521" x2="923.7640397289521" y1="20" y2="370"/><line x1="927.4287570778799" x2="927.4287570778799" y1="20" y2="370"/><line x1="927.4287570778799" x2="927.4287570778799" y1="20" y2="370"/><line x1="944.9670472477491" x2="944.9670472477491" y1="20" y2="370"/><line x1="944.9670472477491" x2="944.9670472477491" y1="20" y2="370"/><line x1="946.5376403972896" x2="946.5376403972896" y1="20" y2="370"/><line x1="946.5376403972896" x2="946.5376403972896" y1="20" y2="370"/><line x1="950.7258887960643" x2="950.7258887960643" y1="20" y2="370"/><line x1="950.7258887960643" x2="950.7258887960643" y1="20" y2="370"/><line x1="950.9876543209876" x2="950.9876543209876" y1="20" y2="370"/><line x1="951.2494198459111" x2="951.2494198459111" y1="20" y2="370"/><line x1="960.4112132182307" x2="960.4112132182307" y1="20" y2="370"/><line x1="960.4112132182307" x2="960.4112132182307" y1="20" y2="370"/><line x1="971.6671307899379" x2="971.6671307899379" y1="20" y2="370"/><line x1="971.6671307899379" x2="971.6671307899379" y1="20" y2="370"/><line x1="992.3575141557596" x2="992.3575141557596" y1="20" y2="370"/><line x1="992.3575141557596" x2="992.3575141557596" y1="20" y2="370"/><line x1="1013.2987561496333" x2="1013.2987561496333" y1="20" y2="370"/><line x1="1013.2987561496333" x2="1013.2987561496333" y1="20" y2="370"/><line x1="1013.5605216745566" x2="1013.5605216745566" y1="20" y2="370"/><line x1="1013.5605216745566" x2="1013.5605216745566" y1="20" y2="370"/><line x1="1021.9261115752344" x2="1021.9261115752344" y1="20" y2="370"/><line x1="1021.9261115752344" x2="1021.9261115752344" y1="20" y2="370"/><line x1="1023.7584702496982" x2="1023.7584702496982" y1="20" y2="370"/><line x1="1031.087904947554" x2="1031.087904947554" y1="20" y2="370"/><line x1="1041.2967604195676" x2="1041.2967604195676" y1="20" y2="370"/><line x1="1041.2967604195676" x2="1041.2967604195676" y1="20" y2="370"/><line x1="1042.3438225192613" x2="1042.3438225192613" y1="20" y2="370"/><line x1="1042.3438225192613" x2="1042.3438225192613" y1="20" y2="370"/><line x1="1227.4120486401189" x2="1227.4120486401189" y1="20" y2="370"/><line x1="1232.1238280887403" x2="1232.1238280887403" y1="20" y2="370"/><line x1="1246.2591664346053" x2="1246.2591664346053" y1="20" y2="370"/><line x1="1252.0180079829202" x2="1252.0180079829202" y1="20" y2="370"/><line x1="1265.6298152789382" x2="1265.6298152789382" y1="20" y2="370"/><line x1="1288.1525573192241" x2="1288.1525573192241" y1="20" y2="370"/><line x1="1310.1299545159195" x2="1310.1299545159195" y1="20" y2="370"/><line x1="1343.7616103659354" x2="1343.7616103659354" y1="20" y2="370"/><line x1="1317.1976236888515" x2="1317.1976236888515" y1="20" y2="370"/><line x1="1319.0299823633156" x2="1319.0299823633156" y1="20" y2="370"/><line x1="1338.2976246557753" x2="1338.2976246557753" y1="20" y2="370"/><line x1="1337.6710597868127" x2="1337.6710597868127" y1="20" y2="370"/><line x1="1338.2650403013706" x2="1338.2650403013706" y1="20" y2="370"/><line x1="1345.1575265323802" x2="1345.1575265323802" y1="20" y2="370"/><line x1="1349.5962972632199" x2="1349.5962972632199" y1="20" y2="370"/><line x1="1366.5745758428995" x2="1366.5745758428995" y1="20" y2="370"/><line x1="1408.4639857101602" x2="1408.4639857101602" y1="20" y2="370"/><line x1="1408.7951221288818" x2="1408.7951221288818" y1="20" y2="370"/><line x1="1414.211711312747" x2="1414.211711312747" y1="20" y2="370"/><line x1="1414.9088377450828" x2="1414.9088377450828" y1="20" y2="370"/><line x1="1420.2993927720536" x2="1420.2993927720536" y1="20" y2="370"/><line x1="1429.935336218633" x2="1429.935336218633" y1="20" y2="370"/><line x1="1435.4460943382119" x2="1435.4460943382119" y1="20" y2="370"/><line x1="1436.2195902565054" x2="1436.2195902565054" y1="20" y2="370"/><line x1="1436.7411277679796" x2="1436.7411277679796" y1="20" y2="370"/><line x1="1438.2530024263333" x2="1438.2530024263333" y1="20" y2="370"/><line x1="1440.1027666903885" x2="1440.1027666903885" y1="20" y2="370"/><line x1="1444.8753066436666" x2="1444.8753066436666" y1="20" y2="370"/><line x1="1447.7871057530656" x2="1447.7871057530656" y1="20" y2="370"/><line x1="1449.8140131707871" x2="1449.8140131707871" y1="20" y2="370"/><line x1="1455.6715863733407" x2="1455.6715863733407" y1="20" y2="370"/><line x1="1455.8593364842145" x2="1455.8593364842145" y1="20" y2="370"/><line x1="1485.261997586559" x2="1485.261997586559" y1="20" y2="370"/><line x1="1485.5030066807965" x2="1485.5030066807965" y1="20" y2="370"/><line x1="1507.5011603081778" x2="1507.5011603081778" y1="20" y2="370"/><line x1="1507.8677138447972" x2="1507.8677138447972" y1="20" y2="370"/><line x1="1509.595284507565" x2="1509.595284507565" y1="20" y2="370"/><line x1="1509.7950746207082" x2="1509.7950746207082" y1="20" y2="370"/><line x1="1528.9659333518985" x2="1528.9659333518985" y1="20" y2="370"/><line x1="1529.088245111235" x2="1529.088245111235" y1="20" y2="370"/><line x1="1533.6777128005199" x2="1533.6777128005199" y1="20" y2="370"/><line x1="1533.8781330899262" x2="1533.8781330899262" y1="20" y2="370"/><line x1="1534.46300937529" x2="1534.46300937529" y1="20" y2="370"/><line x1="1534.663614476005" x2="1534.663614476005" y1="20" y2="370"/><line x1="1553.3101271697763" x2="1553.3101271697763" y1="20" y2="370"/><line x1="1553.5012644780677" x2="1553.5012644780677" y1="20" y2="370"/><line x1="1555.4151582660354" x2="1555.4151582660354" y1="20" y2="370"/><line x1="1555.489173680085" x2="1555.489173680085" y1="20" y2="370"/><line x1="1577.1416968346794" x2="1577.1416968346794" y1="20" y2="370"/><line x1="1577.3048428040265" x2="1577.3048428040265" y1="20" y2="370"/><line x1="1580.806414183607" x2="1580.806414183607" y1="20" y2="370"/><line x1="1580.9468859262352" x2="1580.9468859262352" y1="20" y2="370"/><line x1="1599.119094031375" x2="1599.119094031375" y1="20" y2="370"/><line x1="1599.2775560944542" x2="1599.2775560944542" y1="20" y2="370"/><line x1="1599.6426250812215" x2="1599.6426250812215" y1="20" y2="370"/><line x1="1599.8868880663595" x2="1599.8868880663595" y1="20" y2="370"/><line x1="1601.4749837556856" x2="1601.4749837556856" y1="20" y2="370"/><line x1="1601.6689477680827" x2="1601.6689477680827" y1="20" y2="370"/><line x1="1609.8514805532348" x2="1609.8514805532348" y1="20" y2="370"/><line x1="1609.972425920769" x2="1609.972425920769" y1="20" y2="370"/><line x1="1615.0867910517034" x2="1615.0867910517034" y1="20" y2="370"/><line x1="1615.2756530601196" x2="1615.2756530601196" y1="20" y2="370"/><line x1="1634.195674371113" x2="1634.195674371113" y1="20" y2="370"/><line x1="1634.4074923677506" x2="1634.4074923677506" y1="20" y2="370"/><line x1="1683.931124106563" x2="1683.931124106563" y1="20" y2="370"/><line x1="1684.1684733309612" x2="1684.1684733309612" y1="20" y2="370"/><line x1="1712.8835515357323" x2="1712.8835515357323" y1="20" y2="370"/><line x1="1718.3653669925843" x2="1718.3653669925843" y1="20" y2="370"/><line x1="1719.2694699712245" x2="1719.2694699712245" y1="20" y2="370"/><line x1="1719.4709264158337" x2="1719.4709264158337" y1="20" y2="370"/><line x1="1765.8746403044647" x2="1765.8746403044647" y1="20" y2="370"/><line x1="1766.0560856230084" x2="1766.0560856230084" y1="20" y2="370"/><line x1="1766.1364058293882" x2="1766.1364058293882" y1="20" y2="370"/><line x1="1766.2405636648207" x2="1766.2405636648207" y1="20" y2="370"/><line x1="1766.398171354312" x2="1766.398171354312" y1="20" y2="370"/><line x1="1766.6126645703766" x2="1766.6126645703766" y1="20" y2="370"/><line x1="1769.5393576533927" x2="1769.5393576533927" y1="20" y2="370"/><line x1="1769.7219966712048" x2="1769.7219966712048" y1="20" y2="370"/><line x1="1860.6337603267427" x2="1860.6337603267427" y1="20" y2="370"/><line x1="1860.7704722196438" x2="1860.7704722196438" y1="20" y2="370"/><line x1="1861.1329902044204" x2="1861.1329902044204" y1="20" y2="370"/><line x1="1924.2032362928928" x2="1924.2032362928928" y1="20" y2="370"/><line x1="1956.6812999577132" x2="1956.6812999577132" y1="20" y2="370"/><line x1="1995.635700233093" x2="1995.635700233093" y1="20" y2="370"/><line x1="1997.957424102953" x2="1997.957424102953" y1="20" y2="370"/><line x1="2002.172276241014" x2="2002.172276241014" y1="20" y2="370"/><line x1="2009.9104832554638" x2="2009.9104832554638" y1="20" y2="370"/><line x1="2024.7410423564052" x2="2024.7410423564052" y1="20" y2="370"/><line x1="2051.5763714198047" x2="2051.5763714198047" y1="20" y2="370"/><line x1="2053.912001583176" x2="2053.912001583176" y1="20" y2="370"/><line x1="2056.65054766546" x2="2056.65054766546" y1="20" y2="370"/><line x1="2059.1994712862406" x2="2059.1994712862406" y1="20" y2="370"/><line x1="2063.9827818001795" x2="2063.9827818001795" y1="20" y2="370"/><line x1="2077.2749261270465" x2="2077.2749261270465" y1="20" y2="370"/><line x1="2104.305697693307" x2="2104.305697693307" y1="20" y2="370"/><line x1="2105.465243226379" x2="2105.465243226379" y1="20" y2="370"/><line x1="2105.546429925121" x2="2105.546429925121" y1="20" y2="370"/><line x1="2133.6207037011254" x2="2133.6207037011254" y1="20" y2="370"/><line x1="2134.5158509055564" x2="2134.5158509055564" y1="20" y2="370"/><line x1="2134.5549824277773" x2="2134.5549824277773" y1="20" y2="370"/><line x1="2147.4462952649114" x2="2147.4462952649114" y1="20" y2="370"/><line x1="2153.7872681962103" x2="2153.7872681962103" y1="20" y2="370"/><line x1="2156.4916120677203" x2="2156.4916120677203" y1="20" y2="370"/><line x1="2197.332181405159" x2="2197.332181405159" y1="20" y2="370"/></g><g aria-label="tip" fill="white" stroke="currentColor" pointer-events="none" text-anchor="start"/></svg>