<svg class="plot-d6a7b5" fill="currentColor" font-family="system-ui, sans-serif" font-size="10" text-anchor="middle" width="1000" height="420" viewBox="0 0 1000 420" xmlns="http://www.w3.org/2000/svg" xmlns:xlink="http://www.w3.org/1999/xlink"><style>.plot-d6a7b5 {
  display: block;
  background: white;
  height: auto;
  height: intrinsic;
  max-width: 100%;
}
.plot-d6a7b5 text,
.plot-d6a7b5 tspan {
  white-space: pre;
}</style><g aria-label="y-grid" stroke="currentColor" stroke-opacity="0.1"><line x1="100" x2="980" y1="35" y2="35"/><line x1="100" x2="980" y1="55" y2="55"/><line x1="100" x2="980" y1="75" y2="75"/><line x1="100" x2="980" y1="95" y2="95"/><line x1="100" x2="980" y1="115" y2="115"/><line x1="100" x2="980" y1="135" y2="135"/><line x1="100" x2="980" y1="155" y2="155"/><line x1="100" x2="980" y1="175" y2="175"/><line x1="100" x2="980" y1="195" y2="195"/><line x1="100" x2="980" y1="215" y2="215"/><line x1="100" x2="980" y1="235" y2="235"/><line x1="100" x2="980" y1="255" y2="255"/><line x1="100" x2="980" y1="275" y2="275"/><line x1="100" x2="980" y1="295" y2="295"/><line x1="100" x2="980" y1="315" y2="315"/><line x1="100" x2="980" y1="335" y2="335"/><line x1="100" x2="980" y1="355" y2="355"/><line x1="100" x2="980" y1="375" y2="375"/></g><g aria-label="y-axis tick label" text-anchor="end" transform="translate(-9,0)"><text y="0.32em" transform="translate(100,35)"/><text y="0.32em" transform="translate(100,55)">3D</text><text y="0.32em" transform="translate(100,75)">Animation</text><text y="0.32em" transform="translate(100,95)">Compilation</text><text y="0.32em" transform="translate(100,115)">Data</text><text y="0.32em" transform="translate(100,135)">Fabrication</text><text y="0.32em" transform="translate(100,155)">GUI</text><text y="0.32em" transform="translate(100,175)">Geometry</text><text y="0.32em" transform="translate(100,195)">Hardware</text><text y="0.32em" transform="translate(100,215)">I/O</text><text y="0.32em" transform="translate(100,235)">Language</text><text y="0.32em" transform="translate(100,255)">Math</text><text y="0.32em" transform="translate(100,275)">Other</text><text y="0.32em" transform="translate(100,295)">Simulation</text><text y="0.32em" transform="translate(100,315)">Sound</text><text y="0.32em" transform="translate(100,335)">Typography</text><text y="0.32em" transform="translate(100,355)">Utilities</text><text y="0.32em" transform="translate(100,375)">Video &amp; Vision</text></g><g aria-label="x-axis tick" fill="none" stroke="currentColor"><path transform="translate(161.44132154172075,390)" d="M0,0L0,6"/><path transform="translate(245.16978852127536,390)" d="M0,0L0,6"/><path transform="translate(328.89825550083,390)" d="M0,0L0,6"/><path transform="translate(413.5468155241159,390)" d="M0,0L0,6"/><path transform="translate(498.1953755474019,390)" d="M0,0L0,6"/><path transform="translate(581.0037494832252,390)" d="M0,0L0,6"/><path transform="translate(664.7322164627798,390)" d="M0,0L0,6"/><path transform="translate(749.3807764860658,390)" d="M0,0L0,6"/><path transform="translate(834.0293365093517,390)" d="M0,0L0,6"/><path transform="translate(916.837710445175,390)" d="M0,0L0,6"/></g><g aria-label="x-axis tick label" font-variant="tabular-nums" transform="translate(0,9)"><text transform="translate(161.44132154172075,390)"><tspan x="0" y="0.71em">Jan</tspan><tspan x="0" dy="1em">2012</tspan></text><text y="0.71em" transform="translate(245.16978852127536,390)">Apr</text><text y="0.71em" transform="translate(328.89825550083,390)">Jul</text><text y="0.71em" transform="translate(413.5468155241159,390)">Oct</text><text transform="translate(498.1953755474019,390)"><tspan x="0" y="0.71em">Jan</tspan><tspan x="0" dy="1em">2013</tspan></text><text y="0.71em" transform="translate(581.0037494832252,390)">Apr</text><text y="0.71em" transform="translate(664.7322164627798,390)">Jul</text><text y="0.71em" transform="translate(749.3807764860658,390)">Oct</text><text transform="translate(834.0293365093517,390)"><tspan x="0" y="0.71em">Jan</tspan><tspan x="0" dy="1em">2014</tspan></text><text y="0.71em" transform="translate(916.837710445175,390)">Apr</text></g><g aria-label="dot" fill="none" stroke-width="1.5"><circle cx="100" cy="55" r="3" stroke="#edc949"/><circle cx="100" cy="295" r="3" stroke="#ff9da7"/><circle cx="100" cy="75" r="3" stroke="#59a14f"/><circle cx="100" cy="95" r="3" stroke="#4e79a7"/><circle cx="100" cy="355" r="3" stroke="#edc949"/><circle cx="100" cy="215" r="3" stroke="#bab0ab"/><circle cx="100" cy="95" r="3" stroke="#4e79a7"/><circle cx="100" cy="115" r="3" stroke="#edc949"/><circle cx="100" cy="55" r="3" stroke="#edc949"/><circle cx="100" cy="195" r="3" stroke="#4e79a7"/><circle cx="100" cy="115" r="3" stroke="#76b7b2"/><circle cx="100" cy="115" r="3" stroke="#9c755f"/><circle cx="100" cy="375" r="3" stroke="#4e79a7"/><circle cx="100" cy="295" r="3" stroke="#edc949"/><circle cx="100" cy="195" r="3" stroke="#ff9da7"/><circle cx="100" cy="215" r="3" stroke="#9c755f"/><circle cx="100" cy="55" r="3" stroke="#4e79a7"/><circle cx="100" cy="295" r="3" stroke="#ff9da7"/><circle cx="100" cy="315" r="3" stroke="#59a14f"/><circle cx="100" cy="35" r="3" stroke="#4e79a7"/><circle cx="120.76297510352771" cy="55" r="3" stroke="#4e79a7"/><circle cx="120.76297510352771" cy="255" r="3" stroke="#76b7b2"/><circle cx="120.76297510352771" cy="55" r="3" stroke="#9c755f"/><circle cx="120.76297510352771" cy="375" r="3" stroke="#f28e2c"/><circle cx="120.76297510352771" cy="195" r="3" stroke="#ff9da7"/><circle cx="120.76297510352771" cy="215" r="3" stroke="#59a14f"/><circle cx="120.76297510352771" cy="215" r="3" stroke="#bab0ab"/><circle cx="120.76297510352771" cy="355" r="3" stroke="#bab0ab"/><circle cx="120.76297510352771" cy="195" r="3" stroke="#edc949"/><circle cx="120.76297510352771" cy="355" r="3" stroke="#9c755f"/><circle cx="120.76297510352771" cy="75" r="3" stroke="#e15759"/><circle cx="120.76297510352771" cy="355" r="3" stroke="#59a14f"/><circle cx="120.76297510352771" cy="55" r="3" stroke="#76b7b2"/><circle cx="130.85377608390021" cy="55" r="3" stroke="#4e79a7"/><circle cx="130.85377608390021" cy="315" r="3" stroke="#59a14f"/><circle cx="130.85377608390021" cy="55" r="3" stroke="#bab0ab"/><circle cx="130.85377608390021" cy="75" r="3" stroke="#edc949"/><circle cx="130.85377608390021" cy="355" r="3" stroke="#76b7b2"/><circle cx="130.85377608390021" cy="315" r="3" stroke="#9c755f"/><circle cx="137.3601863546615" cy="55" r="3" stroke="#bab0ab"/><circle cx="137.3601863546615" cy="55" r="3" stroke="#9c755f"/><circle cx="137.3601863546615" cy="335" r="3" stroke="#f28e2c"/><circle cx="137.3601863546615" cy="175" r="3" stroke="#f28e2c"/><circle cx="153.7201754687332" cy="115" r="3" stroke="#af7aa1"/><circle cx="153.7201754687332" cy="295" r="3" stroke="#af7aa1"/><circle cx="153.7201754687332" cy="115" r="3" stroke="#edc949"/><circle cx="166.70208130995536" cy="75" r="3" stroke="#59a14f"/><circle cx="166.70208130995536" cy="55" r="3" stroke="#9c755f"/><circle cx="198.9016212610132" cy="115" r="3" stroke="#edc949"/><circle cx="198.9016212610132" cy="115" r="3" stroke="#9c755f"/><circle cx="202.63999976474895" cy="255" r="3" stroke="#bab0ab"/><circle cx="202.63999976474895" cy="355" r="3" stroke="#bab0ab"/><circle cx="202.63999976474895" cy="355" r="3" stroke="#edc949"/><circle cx="204.44590599679765" cy="355" r="3" stroke="#edc949"/><circle cx="204.44590599679765" cy="255" r="3" stroke="#59a14f"/><circle cx="205.29862139368078" cy="35" r="3" stroke="#4e79a7"/><circle cx="241.1130407856485" cy="55" r="3" stroke="#af7aa1"/><circle cx="241.1130407856485" cy="295" r="3" stroke="#edc949"/><circle cx="241.1130407856485" cy="55" r="3" stroke="#af7aa1"/><circle cx="241.1130407856485" cy="155" r="3" stroke="#e15759"/><circle cx="241.1130407856485" cy="35" r="3" stroke="#59a14f"/><circle cx="242.97013784247983" cy="115" r="3" stroke="#76b7b2"/><circle cx="253.30469958409088" cy="155" r="3" stroke="#59a14f"/><circle cx="253.30469958409088" cy="295" r="3" stroke="#f28e2c"/><circle cx="253.30469958409088" cy="255" r="3" stroke="#f28e2c"/><circle cx="253.30469958409088" cy="35" r="3" stroke="#e15759"/><circle cx="253.30469958409088" cy="155" r="3" stroke="#76b7b2"/><circle cx="256.3139043506695" cy="55" r="3" stroke="#edc949"/><circle cx="293.6494164509059" cy="55" r="3" stroke="#edc949"/><circle cx="293.6494164509059" cy="75" r="3" stroke="#59a14f"/><circle cx="293.6494164509059" cy="115" r="3" stroke="#9c755f"/><circle cx="293.6494164509059" cy="155" r="3" stroke="#76b7b2"/><circle cx="293.6494164509059" cy="375" r="3" stroke="#edc949"/><circle cx="293.8920590435149" cy="215" r="3" stroke="#bab0ab"/><circle cx="293.8920590435149" cy="155" r="3" stroke="#e15759"/><circle cx="343.32947827352973" cy="115" r="3" stroke="#edc949"/><circle cx="343.32947827352973" cy="355" r="3" stroke="#edc949"/><circle cx="343.32947827352973" cy="255" r="3" stroke="#59a14f"/><circle cx="343.32947827352973" cy="55" r="3" stroke="#af7aa1"/><circle cx="343.32947827352973" cy="155" r="3" stroke="#e15759"/><circle cx="343.32947827352973" cy="35" r="3" stroke="#59a14f"/><circle cx="343.32947827352973" cy="155" r="3" stroke="#76b7b2"/><circle cx="343.32947827352973" cy="75" r="3" stroke="#ff9da7"/><circle cx="361.8368836175601" cy="255" r="3" stroke="#59a14f"/><circle cx="361.8368836175601" cy="235" r="3" stroke="#e15759"/><circle cx="407.001759215673" cy="55" r="3" stroke="#edc949"/><circle cx="407.001759215673" cy="75" r="3" stroke="#edc949"/><circle cx="407.001759215673" cy="255" r="3" stroke="#59a14f"/><circle cx="407.001759215673" cy="55" r="3" stroke="#af7aa1"/><circle cx="407.001759215673" cy="155" r="3" stroke="#e15759"/><circle cx="407.001759215673" cy="155" r="3" stroke="#76b7b2"/><circle cx="407.001759215673" cy="355" r="3" stroke="#ff9da7"/><circle cx="407.001759215673" cy="195" r="3" stroke="#e15759"/><circle cx="417.84134980573214" cy="55" r="3" stroke="#edc949"/><circle cx="417.84134980573214" cy="75" r="3" stroke="#edc949"/><circle cx="417.84134980573214" cy="255" r="3" stroke="#59a14f"/><circle cx="417.84134980573214" cy="155" r="3" stroke="#e15759"/><circle cx="417.84134980573214" cy="115" r="3" stroke="#af7aa1"/><circle cx="417.84134980573214" cy="195" r="3" stroke="#e15759"/><circle cx="450.0732953485964" cy="75" r="3" stroke="#59a14f"/><circle cx="450.0732953485964" cy="95" r="3" stroke="#4e79a7"/><circle cx="450.0732953485964" cy="75" r="3" stroke="#edc949"/><circle cx="450.0732953485964" cy="355" r="3" stroke="#af7aa1"/><circle cx="450.0732953485964" cy="335" r="3" stroke="#f28e2c"/><circle cx="450.0732953485964" cy="175" r="3" stroke="#f28e2c"/><circle cx="450.0732953485964" cy="55" r="3" stroke="#af7aa1"/><circle cx="450.0732953485964" cy="155" r="3" stroke="#76b7b2"/><circle cx="450.0732953485964" cy="195" r="3" stroke="#e15759"/><circle cx="450.0732953485964" cy="195" r="3" stroke="#e15759"/><circle cx="450.1995419114834" cy="215" r="3" stroke="#e15759"/><circle cx="466.6888871621547" cy="55" r="3" stroke="#edc949"/><circle cx="466.6888871621547" cy="295" r="3" stroke="#ff9da7"/><circle cx="466.6888871621547" cy="195" r="3" stroke="#e15759"/><circle cx="466.6888871621547" cy="115" r="3" stroke="#af7aa1"/><circle cx="466.6888871621547" cy="355" r="3" stroke="#59a14f"/><circle cx="466.6888871621547" cy="355" r="3" stroke="#4e79a7"/><circle cx="471.6417778343908" cy="255" r="3" stroke="#59a14f"/><circle cx="471.6417778343908" cy="155" r="3" stroke="#76b7b2"/><circle cx="479.41820403457746" cy="55" r="3" stroke="#edc949"/><circle cx="479.41820403457746" cy="75" r="3" stroke="#edc949"/><circle cx="479.41820403457746" cy="35" r="3" stroke="#9c755f"/><circle cx="487.091513788671" cy="55" r="3" stroke="#edc949"/><circle cx="487.091513788671" cy="155" r="3" stroke="#76b7b2"/><circle cx="487.091513788671" cy="35" r="3" stroke="#59a14f"/><circle cx="487.091513788671" cy="35" r="3" stroke="#e15759"/><circle cx="487.091513788671" cy="355" r="3" stroke="#4e79a7"/><circle cx="487.091513788671" cy="195" r="3" stroke="#af7aa1"/><circle cx="499.80694407163753" cy="355" r="3" stroke="#edc949"/><circle cx="499.80694407163753" cy="35" r="3" stroke="#59a14f"/><circle cx="499.80694407163753" cy="155" r="3" stroke="#76b7b2"/><circle cx="499.80694407163753" cy="355" r="3" stroke="#4e79a7"/><circle cx="499.80694407163753" cy="115" r="3" stroke="#9c755f"/><circle cx="501.69257040235954" cy="155" r="3" stroke="#76b7b2"/><circle cx="501.69257040235954" cy="75" r="3" stroke="#ff9da7"/><circle cx="501.69257040235954" cy="115" r="3" stroke="#ff9da7"/><circle cx="507.07420952405937" cy="235" r="3" stroke="#e15759"/><circle cx="507.1056460363869" cy="235" r="3" stroke="#e15759"/><circle cx="507.1056460363869" cy="295" r="3" stroke="#59a14f"/><circle cx="507.1056460363869" cy="295" r="3" stroke="#ff9da7"/><circle cx="507.1056460363869" cy="295" r="3" stroke="#76b7b2"/><circle cx="507.1056460363869" cy="375" r="3" stroke="#bab0ab"/><circle cx="507.1056460363869" cy="55" r="3" stroke="#ff9da7"/><circle cx="507.1056460363869" cy="295" r="3" stroke="#ff9da7"/><circle cx="507.1056460363869" cy="135" r="3" stroke="#ff9da7"/><circle cx="507.9688189722624" cy="375" r="3" stroke="#e15759"/><circle cx="530.2473704854864" cy="55" r="3" stroke="#edc949"/><circle cx="530.2473704854864" cy="355" r="3" stroke="#edc949"/><circle cx="530.2473704854864" cy="35" r="3" stroke="#59a14f"/><circle cx="530.2473704854864" cy="235" r="3" stroke="#e15759"/><circle cx="530.2473704854864" cy="355" r="3" stroke="#edc949"/><circle cx="531.0528885169782" cy="375" r="3" stroke="#e15759"/><circle cx="531.0528885169782" cy="75" r="3" stroke="#9c755f"/><circle cx="531.0528885169782" cy="95" r="3" stroke="#9c755f"/><circle cx="531.0528885169782" cy="175" r="3" stroke="#9c755f"/><circle cx="531.0528885169782" cy="295" r="3" stroke="#9c755f"/><circle cx="550.4114225233603" cy="295" r="3" stroke="#ff9da7"/><circle cx="550.4114225233603" cy="155" r="3" stroke="#76b7b2"/><circle cx="550.4114225233603" cy="35" r="3" stroke="#59a14f"/><circle cx="550.4114225233603" cy="355" r="3" stroke="#4e79a7"/><circle cx="550.4114225233603" cy="35" r="3" stroke="#9c755f"/><circle cx="550.4114225233603" cy="35" r="3" stroke="#f28e2c"/><circle cx="565.2631618945654" cy="75" r="3" stroke="#59a14f"/><circle cx="565.2631618945654" cy="295" r="3" stroke="#ff9da7"/><circle cx="565.2631618945654" cy="335" r="3" stroke="#f28e2c"/><circle cx="565.2631618945654" cy="175" r="3" stroke="#f28e2c"/><circle cx="565.2631618945654" cy="195" r="3" stroke="#e15759"/><circle cx="565.2631618945654" cy="215" r="3" stroke="#e15759"/><circle cx="565.3672580693626" cy="335" r="3" stroke="#4e79a7"/><circle cx="565.3672580693626" cy="115" r="3" stroke="#76b7b2"/><circle cx="565.3672580693626" cy="195" r="3" stroke="#ff9da7"/><circle cx="565.918738837449" cy="35" r="3" stroke="#59a14f"/><circle cx="565.918738837449" cy="215" r="3" stroke="#ff9da7"/><circle cx="565.918738837449" cy="315" r="3" stroke="#bab0ab"/><circle cx="566.1978763242811" cy="115" r="3" stroke="#9c755f"/><circle cx="566.1978763242811" cy="155" r="3" stroke="#76b7b2"/><circle cx="566.1978763242811" cy="215" r="3" stroke="#9c755f"/><circle cx="566.1978763242811" cy="155" r="3" stroke="#f28e2c"/><circle cx="566.1978763242811" cy="75" r="3" stroke="#edc949"/><circle cx="566.1978763242811" cy="275" r="3" stroke="#bab0ab"/><circle cx="566.1978763242811" cy="355" r="3" stroke="#af7aa1"/><circle cx="566.1978763242811" cy="75" r="3" stroke="#f28e2c"/><circle cx="566.8722065524657" cy="55" r="3" stroke="#edc949"/><circle cx="566.8722065524657" cy="35" r="3" stroke="#af7aa1"/><circle cx="572.588817047899" cy="115" r="3" stroke="#f28e2c"/><circle cx="572.588817047899" cy="35" r="3" stroke="#9c755f"/><circle cx="572.588817047899" cy="115" r="3" stroke="#76b7b2"/><circle cx="572.588817047899" cy="215" r="3" stroke="#ff9da7"/><circle cx="576.1738467110129" cy="55" r="3" stroke="#af7aa1"/><circle cx="576.1738467110129" cy="195" r="3" stroke="#ff9da7"/><circle cx="576.1738467110129" cy="215" r="3" stroke="#59a14f"/><circle cx="576.1803533875142" cy="355" r="3" stroke="#af7aa1"/><circle cx="593.5755110711341" cy="95" r="3" stroke="#4e79a7"/><circle cx="593.5755110711341" cy="115" r="3" stroke="#edc949"/><circle cx="593.5755110711341" cy="195" r="3" stroke="#ff9da7"/><circle cx="593.5755110711341" cy="215" r="3" stroke="#4e79a7"/><circle cx="594.4550092690008" cy="115" r="3" stroke="#9c755f"/><circle cx="594.4550092690008" cy="355" r="3" stroke="#4e79a7"/><circle cx="595.3201203638342" cy="155" r="3" stroke="#59a14f"/><circle cx="595.3201203638342" cy="295" r="3" stroke="#f28e2c"/><circle cx="595.3201203638342" cy="35" r="3" stroke="#76b7b2"/><circle cx="595.3201203638342" cy="35" r="3" stroke="#76b7b2"/><circle cx="599.2797578162922" cy="215" r="3" stroke="#bab0ab"/><circle cx="599.2797578162922" cy="35" r="3" stroke="#76b7b2"/><circle cx="641.3760698674357" cy="55" r="3" stroke="#edc949"/><circle cx="641.3760698674357" cy="215" r="3" stroke="#bab0ab"/><circle cx="641.3760698674357" cy="75" r="3" stroke="#edc949"/><circle cx="641.3760698674357" cy="335" r="3" stroke="#f28e2c"/><circle cx="641.3760698674357" cy="175" r="3" stroke="#f28e2c"/><circle cx="641.3760698674357" cy="255" r="3" stroke="#59a14f"/><circle cx="641.3760698674357" cy="155" r="3" stroke="#76b7b2"/><circle cx="641.3760698674357" cy="35" r="3" stroke="#59a14f"/><circle cx="641.3760698674357" cy="355" r="3" stroke="#4e79a7"/><circle cx="641.3760698674357" cy="35" r="3" stroke="#9c755f"/><circle cx="641.3760698674357" cy="355" r="3" stroke="#edc949"/><circle cx="641.3760698674357" cy="35" r="3" stroke="#f28e2c"/><circle cx="641.3760698674357" cy="115" r="3" stroke="#76b7b2"/><circle cx="641.3760698674357" cy="195" r="3" stroke="#ff9da7"/><circle cx="641.3760698674357" cy="215" r="3" stroke="#ff9da7"/><circle cx="641.3760698674357" cy="215" r="3" stroke="#bab0ab"/><circle cx="648.9344744833132" cy="315" r="3" stroke="#59a14f"/><circle cx="648.9344744833132" cy="255" r="3" stroke="#f28e2c"/><circle cx="648.9344744833132" cy="235" r="3" stroke="#e15759"/><circle cx="648.9344744833132" cy="195" r="3" stroke="#ff9da7"/><circle cx="648.9344744833132" cy="215" r="3" stroke="#bab0ab"/><circle cx="648.9344744833132" cy="195" r="3" stroke="#76b7b2"/><circle cx="649.7922802097669" cy="115" r="3" stroke="#ff9da7"/><circle cx="655.3294512632226" cy="55" r="3" stroke="#4e79a7"/><circle cx="655.3294512632226" cy="355" r="3" stroke="#edc949"/><circle cx="655.3294512632226" cy="335" r="3" stroke="#4e79a7"/><circle cx="655.3294512632226" cy="215" r="3" stroke="#bab0ab"/><circle cx="655.3294512632226" cy="195" r="3" stroke="#4e79a7"/><circle cx="665.6637148265324" cy="95" r="3" stroke="#4e79a7"/><circle cx="665.6637148265324" cy="115" r="3" stroke="#af7aa1"/><circle cx="665.6637148265324" cy="295" r="3" stroke="#af7aa1"/><circle cx="665.6637148265324" cy="235" r="3" stroke="#e15759"/><circle cx="665.6637148265324" cy="215" r="3" stroke="#bab0ab"/><circle cx="665.6637148265324" cy="215" r="3" stroke="#4e79a7"/><circle cx="665.6637148265324" cy="175" r="3" stroke="#e15759"/><circle cx="671.9704201800588" cy="155" r="3" stroke="#76b7b2"/><circle cx="671.9704201800588" cy="35" r="3" stroke="#59a14f"/><circle cx="671.9704201800588" cy="295" r="3" stroke="#59a14f"/><circle cx="671.9704201800588" cy="295" r="3" stroke="#e15759"/><circle cx="672.0258280979585" cy="215" r="3" stroke="#bab0ab"/><circle cx="672.1040360066756" cy="195" r="3" stroke="#af7aa1"/><circle cx="681.0291408661458" cy="235" r="3" stroke="#e15759"/><circle cx="681.0291408661458" cy="195" r="3" stroke="#ff9da7"/><circle cx="681.0291408661458" cy="115" r="3" stroke="#4e79a7"/><circle cx="681.0291408661458" cy="115" r="3" stroke="#bab0ab"/><circle cx="681.0291408661458" cy="35" r="3" stroke="#59a14f"/><circle cx="681.9021536859611" cy="55" r="3" stroke="#9c755f"/><circle cx="681.9021536859611" cy="235" r="3" stroke="#e15759"/><circle cx="685.6025464039678" cy="55" r="3" stroke="#edc949"/><circle cx="685.6025464039678" cy="155" r="3" stroke="#76b7b2"/><circle cx="685.6025464039678" cy="35" r="3" stroke="#59a14f"/><circle cx="685.6025464039678" cy="195" r="3" stroke="#af7aa1"/><circle cx="685.6025464039678" cy="175" r="3" stroke="#f28e2c"/><circle cx="692.0915345425585" cy="195" r="3" stroke="#ff9da7"/><circle cx="692.0915345425585" cy="215" r="3" stroke="#bab0ab"/><circle cx="692.0915345425585" cy="175" r="3" stroke="#e15759"/><circle cx="692.0915345425585" cy="195" r="3" stroke="#af7aa1"/><circle cx="692.0915345425585" cy="35" r="3" stroke="#edc949"/><circle cx="692.9370617125375" cy="115" r="3" stroke="#9c755f"/><circle cx="714.2677789507926" cy="55" r="3" stroke="#af7aa1"/><circle cx="714.2677789507926" cy="115" r="3" stroke="#9c755f"/><circle cx="714.2677789507926" cy="235" r="3" stroke="#e15759"/><circle cx="714.2677789507926" cy="115" r="3" stroke="#76b7b2"/><circle cx="714.2677789507926" cy="195" r="3" stroke="#ff9da7"/><circle cx="717.8819555428496" cy="335" r="3" stroke="#af7aa1"/><circle cx="717.925446977926" cy="55" r="3" stroke="#76b7b2"/><circle cx="717.925446977926" cy="335" r="3" stroke="#af7aa1"/><circle cx="717.925446977926" cy="55" r="3" stroke="#af7aa1"/><circle cx="717.925446977926" cy="315" r="3" stroke="#9c755f"/><circle cx="720.6682613800493" cy="55" r="3" stroke="#76b7b2"/><circle cx="720.6682613800493" cy="235" r="3" stroke="#edc949"/><circle cx="720.6682613800493" cy="55" r="3" stroke="#f28e2c"/><circle cx="720.8057109276817" cy="215" r="3" stroke="#f28e2c"/><circle cx="726.2608403514047" cy="255" r="3" stroke="#76b7b2"/><circle cx="730.6664992963464" cy="35" r="3" stroke="#af7aa1"/><circle cx="730.6664992963464" cy="55" r="3" stroke="#59a14f"/><circle cx="741.5968425822235" cy="315" r="3" stroke="#59a14f"/><circle cx="741.5968425822235" cy="355" r="3" stroke="#af7aa1"/><circle cx="741.5968425822235" cy="35" r="3" stroke="#af7aa1"/><circle cx="748.3642973064685" cy="295" r="3" stroke="#af7aa1"/><circle cx="748.3642973064685" cy="35" r="3" stroke="#af7aa1"/><circle cx="748.3642973064685" cy="375" r="3" stroke="#f28e2c"/><circle cx="748.4903841309799" cy="255" r="3" stroke="#f28e2c"/><circle cx="748.4903841309799" cy="295" r="3" stroke="#e15759"/><circle cx="748.5056231720166" cy="115" r="3" stroke="#af7aa1"/><circle cx="760.1038965018276" cy="115" r="3" stroke="#af7aa1"/><circle cx="760.1038965018276" cy="295" r="3" stroke="#af7aa1"/><circle cx="760.1038965018276" cy="155" r="3" stroke="#76b7b2"/><circle cx="760.1038965018276" cy="35" r="3" stroke="#59a14f"/><circle cx="760.1038965018276" cy="235" r="3" stroke="#e15759"/><circle cx="760.1038965018276" cy="295" r="3" stroke="#f28e2c"/><circle cx="761.8785046614744" cy="355" r="3" stroke="#f28e2c"/><circle cx="771.1364936465694" cy="215" r="3" stroke="#bab0ab"/><circle cx="771.1364936465694" cy="35" r="3" stroke="#76b7b2"/><circle cx="771.1364936465694" cy="35" r="3" stroke="#76b7b2"/><circle cx="771.1364936465694" cy="35" r="3" stroke="#af7aa1"/><circle cx="771.1364936465694" cy="55" r="3" stroke="#4e79a7"/><circle cx="782.4785040249411" cy="235" r="3" stroke="#e15759"/><circle cx="782.4785040249411" cy="195" r="3" stroke="#e15759"/><circle cx="782.4785040249411" cy="255" r="3" stroke="#bab0ab"/><circle cx="782.4785040249411" cy="195" r="3" stroke="#ff9da7"/><circle cx="782.4811237343018" cy="195" r="3" stroke="#ff9da7"/><circle cx="785.0940921354735" cy="195" r="3" stroke="#ff9da7"/><circle cx="785.0940921354735" cy="195" r="3" stroke="#ff9da7"/><circle cx="785.0940921354735" cy="375" r="3" stroke="#76b7b2"/><circle cx="789.528972553934" cy="215" r="3" stroke="#bab0ab"/><circle cx="800.161201433952" cy="195" r="3" stroke="#4e79a7"/><circle cx="800.161201433952" cy="335" r="3" stroke="#f28e2c"/><circle cx="800.161201433952" cy="175" r="3" stroke="#f28e2c"/><circle cx="800.161201433952" cy="235" r="3" stroke="#e15759"/><circle cx="840.5660651238111" cy="155" r="3" stroke="#76b7b2"/><circle cx="840.5660651238111" cy="35" r="3" stroke="#59a14f"/><circle cx="840.5660651238111" cy="115" r="3" stroke="#76b7b2"/><circle cx="840.5660651238111" cy="35" r="3" stroke="#af7aa1"/><circle cx="840.5660651238111" cy="195" r="3" stroke="#af7aa1"/><circle cx="840.5660651238111" cy="255" r="3" stroke="#f28e2c"/><circle cx="840.5660651238111" cy="115" r="3" stroke="#4e79a7"/><circle cx="870.605825094635" cy="235" r="3" stroke="#e15759"/><circle cx="870.605825094635" cy="195" r="3" stroke="#af7aa1"/><circle cx="870.605825094635" cy="215" r="3" stroke="#f28e2c"/><circle cx="870.605825094635" cy="35" r="3" stroke="#af7aa1"/><circle cx="870.605825094635" cy="295" r="3" stroke="#f28e2c"/><circle cx="870.605825094635" cy="375" r="3" stroke="#76b7b2"/><circle cx="870.605825094635" cy="375" r="3" stroke="#e15759"/><circle cx="881.9366218390362" cy="235" r="3" stroke="#e15759"/><circle cx="881.9366218390362" cy="115" r="3" stroke="#4e79a7"/><circle cx="881.9366218390362" cy="115" r="3" stroke="#e15759"/><circle cx="886.103088540283" cy="235" r="3" stroke="#e15759"/><circle cx="886.103088540283" cy="215" r="3" stroke="#e15759"/><circle cx="890.7348092344416" cy="295" r="3" stroke="#59a14f"/><circle cx="890.7348092344416" cy="355" r="3" stroke="#f28e2c"/><circle cx="901.1300183126735" cy="295" r="3" stroke="#59a14f"/><circle cx="901.1300183126735" cy="235" r="3" stroke="#e15759"/><circle cx="901.1300183126735" cy="55" r="3" stroke="#4e79a7"/><circle cx="901.1300183126735" cy="115" r="3" stroke="#ff9da7"/><circle cx="907.4576387441847" cy="375" r="3" stroke="#f28e2c"/><circle cx="907.4576387441847" cy="115" r="3" stroke="#4e79a7"/><circle cx="907.4576387441847" cy="315" r="3" stroke="#9c755f"/><circle cx="919.2902908679713" cy="55" r="3" stroke="#af7aa1"/><circle cx="919.2902908679713" cy="235" r="3" stroke="#e15759"/><circle cx="919.2902908679713" cy="215" r="3" stroke="#bab0ab"/><circle cx="919.2902908679713" cy="55" r="3" stroke="#4e79a7"/><circle cx="919.2902908679713" cy="215" r="3" stroke="#bab0ab"/><circle cx="919.2902908679713" cy="355" r="3" stroke="#59a14f"/><circle cx="919.2902908679713" cy="35" r="3" stroke="#bab0ab"/><circle cx="933.0291329760381" cy="55" r="3" stroke="#4e79a7"/><circle cx="933.0291329760381" cy="235" r="3" stroke="#e15759"/><circle cx="933.0291329760381" cy="215" r="3" stroke="#bab0ab"/><circle cx="933.0291329760381" cy="35" r="3" stroke="#af7aa1"/><circle cx="933.0291329760381" cy="255" r="3" stroke="#f28e2c"/><circle cx="933.0291329760381" cy="375" r="3" stroke="#76b7b2"/><circle cx="933.0291329760381" cy="35" r="3" stroke="#ff9da7"/><circle cx="962.1030295338952" cy="295" r="3" stroke="#ff9da7"/><circle cx="962.1030295338952" cy="35" r="3" stroke="#59a14f"/><circle cx="962.1030295338952" cy="75" r="3" stroke="#edc949"/><circle cx="962.1030295338952" cy="235" r="3" stroke="#e15759"/><circle cx="962.1030295338952" cy="75" r="3" stroke="#9c755f"/><circle cx="962.1030295338952" cy="95" r="3" stroke="#9c755f"/><circle cx="962.1030295338952" cy="175" r="3" stroke="#9c755f"/><circle cx="962.1030295338952" cy="295" r="3" stroke="#9c755f"/><circle cx="962.1030295338952" cy="35" r="3" stroke="#af7aa1"/><circle cx="962.1030295338952" cy="35" r="3" stroke="#ff9da7"/><circle cx="962.1030295338952" cy="215" r="3" stroke="#ff9da7"/><circle cx="963.8442949699318" cy="35" r="3" stroke="#ff9da7"/><circle cx="963.8442949699318" cy="215" r="3" stroke="#ff9da7"/><circle cx="980" cy="55" r="3" stroke="#76b7b2"/><circle cx="980" cy="235" r="3" stroke="#e15759"/><circle cx="980" cy="195" r="3" stroke="#ff9da7"/><circle cx="980" cy="35" r="3" stroke="#ff9da7"/></g><g aria-label="tip" fill="white" stroke="currentColor" pointer-events="none" text-anchor="start"/></svg>