<?xml version="1.0" encoding="utf-8"?>
<!-- Generator: Adobe Illustrator 27.0.1, SVG Export Plug-In . SVG Version: 6.00 Build 0)  -->
<svg version="1.1" id="Layer_1" xmlns="http://www.w3.org/2000/svg" xmlns:xlink="http://www.w3.org/1999/xlink" x="0px" y="0px"
	 viewBox="0 0 750 750" style="enable-background:new 0 0 750 750;" xml:space="preserve">
<style type="text/css">
	.st0{fill:none;}
	.st1{font-family:'Helvetica';}
	.st2{font-size:10px;}
	.st3{fill:none;stroke:#000000;}
</style>
<g>
	<g transform="rotate(-88.2) translate(275,0)">
		<text transform="matrix(1 0 0 1 -357.0358 389.6939)" class="st0 st1 st2">100luz</text>
	</g>
	<g transform="rotate(-84.6) translate(275,0)">
		<text transform="matrix(1 0 0 1 -332.0454 411.7263)" class="st0 st1 st2">Alex</text>
	</g>
	<g transform="rotate(-81) translate(275,0)">
		<text transform="matrix(1 0 0 1 -305.7209 432.1462)" class="st0 st1 st2">Alina</text>
	</g>
	<g transform="rotate(-77.4) translate(275,0)">
		<text transform="matrix(1 0 0 1 -278.165 450.8723)" class="st0 st1 st2">Allen</text>
	</g>
	<g transform="rotate(-73.8) translate(275,0)">
		<text transform="matrix(1 0 0 1 -249.4883 467.8315)" class="st0 st1 st2">Ariel Malka</text>
	</g>
	<g transform="rotate(-70.2) translate(275,0)">
		<text transform="matrix(1 0 0 1 -219.8034 482.9569)" class="st0 st1 st2">Bertrand Saint-Guillain</text>
	</g>
	<g transform="rotate(-66.6) translate(275,0)">
		<text transform="matrix(1 0 0 1 -189.2275 496.1883)" class="st0 st1 st2">Brian</text>
	</g>
	<g transform="rotate(-63) translate(275,0)">
		<text transform="matrix(1 0 0 1 -157.8816 507.4738)" class="st0 st1 st2">Dan</text>
	</g>
	<g transform="rotate(-59.39999999999999) translate(275,0)">
		<text transform="matrix(1 0 0 1 -125.8877 516.7687)" class="st0 st1 st2">Dara</text>
	</g>
	<g transform="rotate(-55.800000000000004) translate(275,0)">
		<text transform="matrix(1 0 0 1 -93.3741 524.0364)" class="st0 st1 st2">Dimitre</text>
	</g>
	<g transform="rotate(-52.2) translate(275,0)">
		<text transform="matrix(1 0 0 1 -60.4677 529.248)" class="st0 st1 st2">Elrick</text>
	</g>
	<g transform="rotate(-48.6) translate(275,0)">
		<text transform="matrix(1 0 0 1 -27.3002 532.384)" class="st0 st1 st2">Frederik De Bleser</text>
	</g>
	<g transform="rotate(-45) translate(275,0)">
		<text transform="matrix(1 0 0 1 6.0002 533.4298)" class="st0 st1 st2">Glen Murphy</text>
	</g>
	<g transform="rotate(-41.4) translate(275,0)">
		<text transform="matrix(1 0 0 1 39.2997 532.3837)" class="st0 st1 st2">Jeff Berg</text>
	</g>
	<g transform="rotate(-37.800000000000004) translate(275,0)">
		<text transform="matrix(1 0 0 1 72.4679 529.2484)" class="st0 st1 st2">JimQode</text>
	</g>
	<g transform="rotate(-34.2) translate(275,0)">
		<text transform="matrix(1 0 0 1 105.3743 524.0364)" class="st0 st1 st2">Jordan J</text>
	</g>
	<g transform="rotate(-30.599999999999987) translate(275,0)">
		<text transform="matrix(1 0 0 1 137.8879 516.7689)" class="st0 st1 st2">Josh Nimoy</text>
	</g>
	<g transform="rotate(-27) translate(275,0)">
		<text transform="matrix(1 0 0 1 169.8814 507.4737)" class="st0 st1 st2">Koenie</text>
	</g>
	<g transform="rotate(-23.39999999999999) translate(275,0)">
		<text transform="matrix(1 0 0 1 201.2275 496.1882)" class="st0 st1 st2">Martin</text>
	</g>
	<g transform="rotate(-19.799999999999997) translate(275,0)">
		<text transform="matrix(1 0 0 1 231.8036 482.9569)" class="st0 st1 st2">Mike Davis</text>
	</g>
	<g transform="rotate(-16.200000000000003) translate(275,0)">
		<text transform="matrix(1 0 0 1 261.4885 467.8316)" class="st0 st1 st2">Processing</text>
	</g>
	<g transform="rotate(-12.600000000000009) translate(275,0)">
		<text transform="matrix(1 0 0 1 290.1651 450.8724)" class="st0 st1 st2">REAS</text>
	</g>
	<g transform="rotate(-9) translate(275,0)">
		<text transform="matrix(1 0 0 1 317.7205 432.1461)" class="st0 st1 st2">Takachin</text>
	</g>
	<g transform="rotate(-5.400000000000006) translate(275,0)">
		<text transform="matrix(1 0 0 1 344.0453 411.7262)" class="st0 st1 st2">WillisMorse</text>
	</g>
	<g transform="rotate(-1.7999999999999972) translate(275,0)">
		<text transform="matrix(1 0 0 1 369.0357 389.6939)" class="st0 st1 st2">Wim_Van_der_Vurst</text>
	</g>
	<g transform="rotate(1.7999999999999972) translate(275,0)">
		<text transform="matrix(1 0 0 1 392.5939 366.1357)" class="st0 st1 st2">XemonerdX</text>
	</g>
	<g transform="rotate(5.400000000000006) translate(275,0)">
		<text transform="matrix(1 0 0 1 414.6263 341.1452)" class="st0 st1 st2">Xu1</text>
	</g>
	<g transform="rotate(9.000000000000014) translate(275,0)">
		<text transform="matrix(1 0 0 1 435.0459 314.8205)" class="st0 st1 st2">[rocha]</text>
	</g>
	<g transform="rotate(12.599999999999994) translate(275,0)">
		<text transform="matrix(1 0 0 1 453.7723 287.2652)" class="st0 st1 st2">_cory</text>
	</g>
	<g transform="rotate(16.19999999999999) translate(275,0)">
		<text transform="matrix(1 0 0 1 470.7315 258.5886)" class="st0 st1 st2">_martin</text>
	</g>
	<g transform="rotate(19.799999999999997) translate(275,0)">
		<text transform="matrix(1 0 0 1 485.857 228.9035)" class="st0 st1 st2">_warren</text>
	</g>
	<g transform="rotate(23.400000000000006) translate(275,0)">
		<text transform="matrix(1 0 0 1 499.0881 198.3276)" class="st0 st1 st2">adrien</text>
	</g>
	<g transform="rotate(27) translate(275,0)">
		<text transform="matrix(1 0 0 1 510.3736 166.9813)" class="st0 st1 st2">anurag</text>
	</g>
	<g transform="rotate(30.60000000000001) translate(275,0)">
		<text transform="matrix(1 0 0 1 519.6688 134.9879)" class="st0 st1 st2">arielm</text>
	</g>
	<g transform="rotate(34.19999999999999) translate(275,0)">
		<text transform="matrix(1 0 0 1 526.9362 102.4744)" class="st0 st1 st2">artelse</text>
	</g>
	<g transform="rotate(37.79999999999998) translate(275,0)">
		<text transform="matrix(1 0 0 1 532.1483 69.5679)" class="st0 st1 st2">barikan</text>
	</g>
	<g transform="rotate(41.400000000000006) translate(275,0)">
		<text transform="matrix(1 0 0 1 535.2836 36.3997)" class="st0 st1 st2">benelek</text>
	</g>
	<g transform="rotate(45) translate(275,0)">
		<text transform="matrix(1 0 0 1 536.3302 3.0997)" class="st0 st1 st2">bzor</text>
	</g>
	<g transform="rotate(48.599999999999994) translate(275,0)">
		<text transform="matrix(1 0 0 1 535.2838 -30.1997)" class="st0 st1 st2">damille</text>
	</g>
	<g transform="rotate(52.20000000000002) translate(275,0)">
		<text transform="matrix(1 0 0 1 532.1479 -63.3677)" class="st0 st1 st2">depth</text>
	</g>
	<g transform="rotate(55.80000000000001) translate(275,0)">
		<text transform="matrix(1 0 0 1 526.9365 -96.2743)" class="st0 st1 st2">dnm</text>
	</g>
	<g transform="rotate(59.400000000000006) translate(275,0)">
		<text transform="matrix(1 0 0 1 519.6691 -128.7881)" class="st0 st1 st2">ed</text>
	</g>
	<g transform="rotate(63) translate(275,0)">
		<text transform="matrix(1 0 0 1 510.3737 -160.7813)" class="st0 st1 st2">edwardgeorge</text>
	</g>
	<g transform="rotate(66.6) translate(275,0)">
		<text transform="matrix(1 0 0 1 499.0883 -192.1277)" class="st0 st1 st2">eviltyler</text>
	</g>
	<g transform="rotate(70.20000000000002) translate(275,0)">
		<text transform="matrix(1 0 0 1 485.8569 -222.704)" class="st0 st1 st2">ezdac</text>
	</g>
	<g transform="rotate(73.80000000000004) translate(275,0)">
		<text transform="matrix(1 0 0 1 470.7316 -252.3885)" class="st0 st1 st2">fdb</text>
	</g>
	<g transform="rotate(77.40000000000003) translate(275,0)">
		<text transform="matrix(1 0 0 1 453.7724 -281.0656)" class="st0 st1 st2">fli</text>
	</g>
	<g transform="rotate(81) translate(275,0)">
		<text transform="matrix(1 0 0 1 435.0461 -308.6204)" class="st0 st1 st2">flight404</text>
	</g>
	<g transform="rotate(84.6) translate(275,0)">
		<text transform="matrix(1 0 0 1 414.6263 -334.9457)" class="st0 st1 st2">forkinsocket</text>
	</g>
	<g transform="rotate(88.20000000000002) translate(275,0)">
		<text transform="matrix(1 0 0 1 392.5939 -359.9355)" class="st0 st1 st2">franklin_mint</text>
	</g>
	<g transform="rotate(91.80000000000001) translate(275,0)">
		<text transform="matrix(-1 0 0 -1 380.1438 -389.6939)" class="st0 st1 st2">fry</text>
	</g>
	<g transform="rotate(95.4) translate(275,0)">
		<text transform="matrix(-1 0 0 -1 359.6067 -411.7262)" class="st0 st1 st2">fulk</text>
	</g>
	<g transform="rotate(99) translate(275,0)">
		<text transform="matrix(-1 0 0 -1 339.4051 -432.1461)" class="st0 st1 st2">gaza</text>
	</g>
	<g transform="rotate(102.60000000000002) translate(275,0)">
		<text transform="matrix(-1 0 0 -1 325.7411 -450.8723)" class="st0 st1 st2">gkoshra</text>
	</g>
	<g transform="rotate(106.20000000000002) translate(275,0)">
		<text transform="matrix(-1 0 0 -1 289.833 -467.8315)" class="st0 st1 st2">grumo</text>
	</g>
	<g transform="rotate(109.80000000000001) translate(275,0)">
		<text transform="matrix(-1 0 0 -1 250.695 -482.957)" class="st0 st1 st2">gsm</text>
	</g>
	<g transform="rotate(113.39999999999998) translate(275,0)">
		<text transform="matrix(-1 0 0 -1 222.3551 -496.1881)" class="st0 st1 st2">heidi</text>
	</g>
	<g transform="rotate(116.99999999999997) translate(275,0)">
		<text transform="matrix(-1 0 0 -1 211.0236 -507.4734)" class="st0 st1 st2">heliodrop</text>
	</g>
	<g transform="rotate(120.6) translate(275,0)">
		<text transform="matrix(-1 0 0 -1 168.4642 -516.769)" class="st0 st1 st2">hurlbot</text>
	</g>
	<g transform="rotate(124.19999999999999) translate(275,0)">
		<text transform="matrix(-1 0 0 -1 118.1574 -524.0364)" class="st0 st1 st2">ik0</text>
	</g>
	<g transform="rotate(127.79999999999998) translate(275,0)">
		<text transform="matrix(-1 0 0 -1 91.3743 -529.2483)" class="st0 st1 st2">jand</text>
	</g>
	<g transform="rotate(131.4) translate(275,0)">
		<text transform="matrix(-1 0 0 -1 68.7671 -532.3835)" class="st0 st1 st2">jbk303</text>
	</g>
	<g transform="rotate(135) translate(275,0)">
		<text transform="matrix(-1 0 0 -1 18.783 -533.4298)" class="st0 st1 st2">jes</text>
	</g>
	<g transform="rotate(138.6) translate(275,0)">
		<text transform="matrix(-1 0 0 -1 -11.7331 -532.3837)" class="st0 st1 st2">jlee</text>
	</g>
	<g transform="rotate(142.2) translate(275,0)">
		<text transform="matrix(-1 0 0 -1 -42.1233 -529.2484)" class="st0 st1 st2">joey</text>
	</g>
	<g transform="rotate(145.8) translate(275,0)">
		<text transform="matrix(-1 0 0 -1 -70.0294 -524.0366)" class="st0 st1 st2">kevin</text>
	</g>
	<g transform="rotate(149.4) translate(275,0)">
		<text transform="matrix(-1 0 0 -1 -91.4348 -516.7687)" class="st0 st1 st2">mKoser</text>
	</g>
	<g transform="rotate(153) translate(275,0)">
		<text transform="matrix(-1 0 0 -1 -120.0835 -507.4737)" class="st0 st1 st2">mawend</text>
	</g>
	<g transform="rotate(156.60000000000005) translate(275,0)">
		<text transform="matrix(-1 0 0 -1 -140.8731 -496.1884)" class="st0 st1 st2">mccutchen</text>
	</g>
	<g transform="rotate(160.2) translate(275,0)">
		<text transform="matrix(-1 0 0 -1 -173.6658 -482.9568)" class="st0 st1 st2">meltphace</text>
	</g>
	<g transform="rotate(163.79999999999998) translate(275,0)">
		<text transform="matrix(-1 0 0 -1 -201.1438 -467.8316)" class="st0 st1 st2">michaONE</text>
	</g>
	<g transform="rotate(167.39999999999998) translate(275,0)">
		<text transform="matrix(-1 0 0 -1 -243.7071 -450.8724)" class="st0 st1 st2">michael</text>
	</g>
	<g transform="rotate(171) translate(275,0)">
		<text transform="matrix(-1 0 0 -1 -267.3757 -432.1461)" class="st0 st1 st2">mmuday</text>
	</g>
	<g transform="rotate(174.59999999999997) translate(275,0)">
		<text transform="matrix(-1 0 0 -1 -307.0306 -411.7262)" class="st0 st1 st2">mohn</text>
	</g>
	<g transform="rotate(178.20000000000005) translate(275,0)">
		<text transform="matrix(-1 0 0 -1 -307.021 -389.6939)" class="st0 st1 st2">mr.prufrock</text>
	</g>
	<g transform="rotate(181.8) translate(275,0)">
		<text transform="matrix(-1 0 0 -1 -363.3722 -366.1357)" class="st0 st1 st2">mrb</text>
	</g>
	<g transform="rotate(185.40000000000003) translate(275,0)">
		<text transform="matrix(-1 0 0 -1 -379.843 -341.1452)" class="st0 st1 st2">nurm</text>
	</g>
	<g transform="rotate(189) translate(275,0)">
		<text transform="matrix(-1 0 0 -1 -398.5831 -314.8206)" class="st0 st1 st2">oytun</text>
	</g>
	<g transform="rotate(192.60000000000002) translate(275,0)">
		<text transform="matrix(-1 0 0 -1 -391.1915 -287.2651)" class="st0 st1 st2">pinksalmon</text>
	</g>
	<g transform="rotate(196.2) translate(275,0)">
		<text transform="matrix(-1 0 0 -1 -433.7171 -258.5884)" class="st0 st1 st2">pitaru</text>
	</g>
	<g transform="rotate(199.8) translate(275,0)">
		<text transform="matrix(-1 0 0 -1 -421.5961 -228.9035)" class="st0 st1 st2">pokemon#1</text>
	</g>
	<g transform="rotate(203.39999999999998) translate(275,0)">
		<text transform="matrix(-1 0 0 -1 -460.9603 -198.3276)" class="st0 st1 st2">pollux</text>
	</g>
	<g transform="rotate(207) translate(275,0)">
		<text transform="matrix(-1 0 0 -1 -453.3442 -166.9814)" class="st0 st1 st2">polyscope</text>
	</g>
	<g transform="rotate(210.59999999999997) translate(275,0)">
		<text transform="matrix(-1 0 0 -1 -464.3192 -134.9879)" class="st0 st1 st2">primeclub</text>
	</g>
	<g transform="rotate(214.2) translate(275,0)">
		<text transform="matrix(-1 0 0 -1 -483.8184 -102.4742)" class="st0 st1 st2">rlivings</text>
	</g>
	<g transform="rotate(217.79999999999995) translate(275,0)">
		<text transform="matrix(-1 0 0 -1 -476.7985 -69.5682)" class="st0 st1 st2">scrap-pile</text>
	</g>
	<g transform="rotate(221.40000000000003) translate(275,0)">
		<text transform="matrix(-1 0 0 -1 -492.1605 -36.3996)" class="st0 st1 st2">sdewitt</text>
	</g>
	<g transform="rotate(225) translate(275,0)">
		<text transform="matrix(-1 0 0 -1 -508.207 -3.0999)" class="st0 st1 st2">seb</text>
	</g>
	<g transform="rotate(228.59999999999997) translate(275,0)">
		<text transform="matrix(-1 0 0 -1 -489.3776 30.1999)" class="st0 st1 st2">skloopy</text>
	</g>
	<g transform="rotate(232.20000000000005) translate(275,0)">
		<text transform="matrix(-1 0 0 -1 -484.5818 63.3677)" class="st0 st1 st2">solipsys</text>
	</g>
	<g transform="rotate(235.8) translate(275,0)">
		<text transform="matrix(-1 0 0 -1 -474.9168 96.2742)" class="st0 st1 st2">spacegirl</text>
	</g>
	<g transform="rotate(239.39999999999998) translate(275,0)">
		<text transform="matrix(-1 0 0 -1 -437.6396 128.7882)" class="st0 st1 st2">sparky_monkey</text>
	</g>
	<g transform="rotate(243) translate(275,0)">
		<text transform="matrix(-1 0 0 -1 -452.2358 160.7812)" class="st0 st1 st2">sportebois</text>
	</g>
	<g transform="rotate(246.60000000000002) translate(275,0)">
		<text transform="matrix(-1 0 0 -1 -463.7438 192.1278)" class="st0 st1 st2">svela</text>
	</g>
	<g transform="rotate(250.19999999999993) translate(275,0)">
		<text transform="matrix(-1 0 0 -1 -446.6253 222.7033)" class="st0 st1 st2">tomek</text>
	</g>
	<g transform="rotate(253.8) translate(275,0)">
		<text transform="matrix(-1 0 0 -1 -443.1699 252.3882)" class="st0 st1 st2">toxi</text>
	</g>
	<g transform="rotate(257.4) translate(275,0)">
		<text transform="matrix(-1 0 0 -1 -420.0878 281.0653)" class="st0 st1 st2">v3ga</text>
	</g>
	<g transform="rotate(261) translate(275,0)">
		<text transform="matrix(-1 0 0 -1 -378.0168 308.6207)" class="st0 st1 st2">vanwoods</text>
	</g>
	<g transform="rotate(264.6) translate(275,0)">
		<text transform="matrix(-1 0 0 -1 -383.7249 334.9453)" class="st0 st1 st2">vent</text>
	</g>
	<g transform="rotate(268.2) translate(275,0)">
		<text transform="matrix(-1 0 0 -1 -364.6515 359.9361)" class="st0 st1 st2">xoff</text>
	</g>
</g>
<g>
	<path class="st3" d="M400.9,101.2l-4.1,45.6c-4.1,45.6-12.3,136.9-18,228.4s-9.1,183-10.7,228.8l-1.7,45.8"/>
	<path class="st3" d="M499.8,130L483,165.3c-16.8,35.3-50.4,106-38.8,114.5s68.4-45.4,96.9-72.3l28.4-26.9"/>
	<path class="st3" d="M499.8,130l-21.7,35.3c-21.7,35.3-65,106-118.3,114.5s-116.3-45.4-147.8-72.3l-31.5-26.9"/>
	<path class="st3" d="M499.8,130l-16.1,36.4c-16.1,36.4-48.3,109.2-27,131.9s96-4.9,133.3-18.7l37.3-13.8"/>
	<path class="st3" d="M499.8,130l-19.4,41.2c-19.4,41.2-58.1,123.6-80.3,210.3s-28,177.5-30.9,223l-2.9,45.4"/>
	<path class="st3" d="M529.6,147.6l-21.4,32.6c-21.4,32.6-64.2,97.9-57.6,103.4c6.6,5.5,62.7-48.8,90.8-75.9l28-27.1"/>
	<path class="st3" d="M529.6,147.6l-20.5,34.3c-20.5,34.3-61.4,102.9-42.5,130.9c19,27.9,97.9,15.1,137.3,8.7l39.4-6.4"/>
	<path class="st3" d="M529.6,147.6l-23.9,38.5c-23.9,38.5-71.8,115.5-99,199.2s-33.7,174.2-37,219.4l-3.3,45.2"/>
	<path class="st3" d="M529.6,147.6l-23.7,38.5c-23.7,38.5-71.2,115.5-95.5,199.2C386,469,384.8,559.4,384.2,604.6l-0.6,45.2"/>
	<path class="st3" d="M529.6,147.6l-20.7,33.7c-20.7,33.7-62,101.1-45.7,120.8c16.3,19.7,90.3-8.3,127.2-22.3l37-14"/>
	<path class="st3" d="M529.6,147.6L508.9,184c-20.7,36.4-62,109.3-45.7,165.4s90.3,95.5,127.2,115.2l37,19.7"/>
	<path class="st3" d="M569.5,180.5l-26.6,29.2c-26.6,29.2-79.9,87.7-67.6,110.1s90.2,8.8,129.2,2l38.9-6.8"/>
	<path class="st3" d="M569.5,180.5L539.4,214c-30.1,33.4-90.3,100.2-124.1,178.5s-41.4,167.8-45.1,212.6l-3.8,44.8"/>
	<path class="st3" d="M569.5,180.5l-28,27.1c-28,27.1-84.1,81.4-90.8,75.9c-6.6-5.5,36.2-70.8,57.6-103.4l21.4-32.6"/>
	<path class="st3" d="M569.5,180.5l-33.3,29c-33.3,29-99.8,87.1-176.3,106.7c-76.4,19.6-162.7,0.8-205.9-8.6l-43.1-9.4"/>
	<path class="st3" d="M569.5,180.5l-26.8,28.6c-26.8,28.6-80.5,85.8-70.8,100s82.6-14.6,119.1-29l36.5-14.4"/>
	<path class="st3" d="M569.5,180.5L541,207.5c-28.4,26.9-85.3,80.7-96.9,72.3s22-79.1,38.8-114.5l16.8-35.3"/>
	<path class="st3" d="M569.5,180.5L537,208.1c-32.4,27.5-97.2,82.6-162,82.6s-129.6-55.1-162-82.6l-32.4-27.5"/>
	<path class="st3" d="M569.5,180.5l-33.3,30.7c-33.3,30.7-100,92.2-177.1,134.6s-164.7,65.8-208.6,77.4L106.6,435"/>
	<path class="st3" d="M569.5,180.5l-33.1,31.3c-33.1,31.3-99.4,94-173.9,144.6S205.3,445.7,164,464.9l-41.3,19.3"/>
	<path class="st3" d="M569.5,180.5l-27.4,32.3c-27.4,32.3-82.2,96.8-80.2,159.5s60.7,123.7,90.1,154.1l29.4,30.5"/>
	<path class="st3" d="M569.5,180.5l-33.4,29.7c-33.4,29.7-100.2,89-178.2,117.1s-167.3,25-212,23.4l-44.6-1.6"/>
	<path class="st3" d="M569.5,180.5l-26.6,30.3c-26.6,30.3-79.7,90.9-66.4,127.6s92.8,49.6,132.6,56l39.8,6.4"/>
	<path class="st3" d="M569.5,180.5l-32.8,28c-32.8,28-98.5,84.1-168.8,90.8c-70.3,6.6-145.3-36.2-182.8-57.6l-37.5-21.4"/>
	<path class="st3" d="M569.5,180.5l-27.4,27.7c-27.4,27.7-82.2,83.1-80.2,85.2s60.7-49.1,90.1-74.7l29.4-25.6"/>
	<path class="st3" d="M569.5,180.5l-26.7,28.8c-26.7,28.8-80.2,86.4-69.5,103.3s85.6-7,123.1-18.9l37.5-11.9"/>
	<path class="st3" d="M581.3,193.1l-31.9,31.5c-31.9,31.5-95.7,94.4-131.5,170.5s-43.6,165.4-47.6,210.1l-3.9,44.6"/>
	<path class="st3" d="M581.3,193.1l-34.6,26.1c-34.6,26.1-103.9,78.3-176.2,82.9S222.8,263.5,185.2,242l-37.6-21.6"/>
	<path class="st3" d="M581.3,193.1l-29.4,25.6c-29.4,25.6-88.1,76.8-90.1,74.7s52.8-57.5,80.2-85.2l27.4-27.7"/>
	<path class="st3" d="M611.7,235l-36.6,25c-36.6,25-109.8,75.1-150.7,144.2s-49.5,157.4-53.8,201.5l-4.3,44.1"/>
	<path class="st3" d="M611.7,235l-33.1,20.8c-33.1,20.8-99.4,62.5-94.1,75.8c5.3,13.3,82.1-1.7,120.5-9.2l38.4-7.5"/>
	<path class="st3" d="M611.7,235l-39.8,22.3c-39.8,22.3-119.5,67-203.7,100.3S195.3,413,151,424l-44.3,11"/>
	<path class="st3" d="M627.4,265.8l-35.6,16.1c-35.6,16.1-106.7,48.3-104,56.5c2.7,8.2,79.1-7.6,117.3-15.4l38.2-7.9"/>
	<path class="st3" d="M627.4,265.8l-35.6,15.9c-35.6,15.9-106.8,47.6-104.9,53.1c1.9,5.4,77.1-15.5,114.6-26l37.6-10.5"/>
	<path class="st3" d="M627.4,265.8l-41.9,18.6c-41.9,18.6-125.6,55.8-207.1,97.3S217.6,469.1,177.9,492L138.3,515"/>
	<path class="st3" d="M627.4,265.8l-36.5,14.4c-36.5,14.4-109.4,43.2-119.1,29s44-71.4,70.8-100l26.8-28.6"/>
	<path class="st3" d="M627.4,265.8L590,279.6c-37.3,13.8-112,41.3-133.3,18.7s10.9-95.5,27-131.9l16.1-36.4"/>
	<path class="st3" d="M627.4,265.8L586,280.2c-41.3,14.4-124,43.2-198.5,29s-140.7-71.4-173.9-100l-33.1-28.6"/>
	<path class="st3" d="M627.4,265.8l-39,20.3c-39,20.3-117.1,60.8-160.6,124.8s-52.5,151.5-57,195.2l-4.5,43.7"/>
	<path class="st3" d="M627.4,265.8l-37,14c-37,14-110.9,42-127.2,22.3c-16.3-19.7,25-87.1,45.7-120.8l20.7-33.7"/>
	<path class="st3" d="M627.4,265.8L591.6,284c-35.8,18.2-107.3,54.6-107.3,91s71.5,72.8,107.3,91l35.8,18.2"/>
	<path class="st3" d="M627.4,265.8l-36.3,19.1c-36.3,19.1-109,57.3-116.7,105.8c-7.7,48.5,49.6,107.3,78.3,136.7l28.6,29.4"/>
	<path class="st3" d="M627.4,265.8l-42.3,17.6c-42.3,17.6-126.8,52.8-213.6,81c-86.8,28.2-175.9,49.4-220.4,60L106.6,435"/>
	<path class="st3" d="M627.4,265.8l-35.7,15.7c-35.7,15.7-107,47-106,49.7c1.1,2.7,74.5-23.3,111.3-36.3l36.7-13"/>
	<path class="st3" d="M633.7,281.8l-40,17.8c-40,17.8-120,53.4-164.6,114.7s-53.7,148.4-58.3,192l-4.6,43.5"/>
	<path class="st3" d="M633.7,281.8l-36.5,13.6c-36.5,13.6-109.6,40.8-108,46.4c1.6,5.5,77.9-10.6,116-18.7l38.1-8.1"/>
	<path class="st3" d="M633.7,281.8l-36.7,13c-36.7,13-110.2,39-111.3,36.3c-1.1-2.7,70.3-34,106-49.7l35.7-15.7"/>
	<path class="st3" d="M633.7,281.8l-37.5,11.9c-37.5,11.9-112.4,35.8-123.1,18.9s42.8-74.5,69.5-103.3l26.7-28.8"/>
	<path class="st3" d="M639.1,298.3L601.8,310c-37.3,11.7-111.8,35.2-110,46.5c1.8,11.3,79.9,10.6,119,10.2l39.1-0.4"/>
	<path class="st3" d="M639.1,298.3l-37.6,10.5c-37.6,10.5-112.7,31.4-114.6,26c-1.9-5.4,69.3-37.2,104.9-53.1l35.6-15.9"/>
	<path class="st3" d="M639.1,298.3l-37.4,11.1c-37.4,11.1-112.1,33.2-111.4,36c0.7,2.8,76.9-13.8,114.9-22.1l38.1-8.3"/>
	<path class="st3" d="M643.4,315l-44.7,10c-44.7,10-134.2,30-223.6,50s-178.9,40-223.6,50l-44.7,10"/>
	<path class="st3" d="M643.4,315l-44.2,7.3c-44.2,7.3-132.7,21.9-215.3,6.2s-159.5-61.9-197.9-85l-38.4-23.1"/>
	<path class="st3" d="M643.4,315l-38.2,7.9c-38.2,7.9-114.7,23.6-117.3,15.4c-2.7-8.2,68.4-40.4,104-56.5l35.6-16.1"/>
	<path class="st3" d="M643.4,315l-38.9,6.8c-38.9,6.8-116.8,20.5-129.2-2s40.9-80.9,67.6-110.1l26.6-29.2"/>
	<path class="st3" d="M643.4,315L599,326c-44.3,11-133,33-217.2,66.3s-163.9,78-203.7,100.3L138.3,515"/>
	<path class="st3" d="M643.4,315l-41.5,12.7c-41.5,12.7-124.4,38.1-170.6,93.9S375.7,563.6,371,606.7l-4.7,43.1"/>
	<path class="st3" d="M643.4,315l-39.4,6.4c-39.4,6.4-118.3,19.2-137.3-8.7c-19-27.9,22-96.5,42.5-130.9l20.5-34.3"/>
	<path class="st3" d="M643.4,315l-44.7,8.3c-44.7,8.3-134,24.9-222.8,22.1c-88.7-2.8-176.9-24.9-220.9-36l-44.1-11.1"/>
	<path class="st3" d="M643.4,315l-37.9,9.1c-37.9,9.1-113.8,27.4-112.7,36s79.1,7.4,118.1,6.8l39-0.6"/>
	<path class="st3" d="M643.4,315l-38.1,8.3c-38.1,8.3-114.2,24.9-114.9,22.1c-0.7-2.8,74-24.9,111.4-36l37.4-11.1"/>
	<path class="st3" d="M643.4,315l-38.1,8.1c-38.1,8.1-114.4,24.3-116,18.7c-1.6-5.5,71.5-32.7,108-46.4l36.5-13.6"/>
	<path class="st3" d="M643.4,315l-44.8,9.4c-44.8,9.4-134.4,28.1-225,39.5c-90.5,11.4-182,15.6-227.7,17.7l-45.7,2.1"/>
	<path class="st3" d="M643.4,315l-38.2,10.6c-38.2,10.6-114.7,31.8-117.3,60c-2.7,28.2,68.4,63.4,104,81l35.6,17.6"/>
	<path class="st3" d="M643.4,315l-38.8,11.5c-38.8,11.5-116.4,34.6-126.7,74.9s46.5,97.9,75,126.7l28.4,28.8"/>
	<path class="st3" d="M643.4,315l-38.4,7.5c-38.4,7.5-115.2,22.5-120.5,9.2c-5.3-13.3,61-55,94.1-75.8l33.1-20.8"/>
	<path class="st3" d="M643.4,315l-39.8,12.3c-39.8,12.3-119.4,36.9-143.4,87.8S468.1,543,484,581.5l15.9,38.5"/>
	<path class="st3" d="M643.4,315l-38,9.6c-38,9.6-113.9,28.7-113,43c0.9,14.3,78.6,23.8,117.5,28.5l38.9,4.7"/>
	<path class="st3" d="M649.9,366.4l-39.1,0.4c-39.1,0.4-117.2,1.1-119-10.2c-1.8-11.3,72.8-34.8,110-46.5l37.3-11.7"/>
	<path class="st3" d="M649.9,366.4l-39,0.6c-39,0.6-117.1,1.7-118.1-6.8s74.8-26.8,112.7-36l37.9-9.1"/>
	<path class="st3" d="M649.9,366.4l-42.5,4.8c-42.5,4.8-127.4,14.3-174.7,61.6s-56.8,132.2-61.6,174.7l-4.8,42.5"/>
	<path class="st3" d="M648.8,400.9l-39.8-6.4c-39.8-6.4-119.3-19.3-132.6-56s39.9-97.3,66.4-127.6l26.6-30.3"/>
	<path class="st3" d="M648.8,400.9l-38.9-4.7c-38.9-4.7-116.6-14.2-117.5-28.5c-0.9-14.3,75-33.5,113-43l38-9.6"/>
	<path class="st3" d="M627.4,484.2L591.6,466c-35.8-18.2-107.3-54.6-107.3-91s71.5-72.8,107.3-91l35.8-18.2"/>
	<path class="st3" d="M627.4,484.2l-39-13.4c-39-13.4-117.1-40.2-160.6-12.6c-43.5,27.6-52.5,109.6-57,150.6l-4.5,41"/>
	<path class="st3" d="M627.4,484.2l-35.6-17.6c-35.6-17.6-106.7-52.8-104-81c2.7-28.2,79.1-49.4,117.3-60l38.2-10.6"/>
	<path class="st3" d="M627.4,484.2l-37-19.7c-37-19.7-110.9-59-127.2-115.2s25-129,45.7-165.4l20.7-36.4"/>
	<path class="st3" d="M581.3,556.9l-31.9-24.6c-31.9-24.6-95.7-73.8-131.5-58.3c-35.8,15.5-43.6,95.7-47.6,135.8l-3.9,40.1"/>
	<path class="st3" d="M581.3,556.9l-35.2-27.3c-35.2-27.3-105.5-81.9-184.6-102.2c-79.1-20.3-167-6.4-211,0.6l-44,7"/>
	<path class="st3" d="M581.3,556.9l-28.4-28.8c-28.4-28.8-85.3-86.4-75-126.7s87.9-63.4,126.7-74.9l38.8-11.5"/>
	<path class="st3" d="M581.3,556.9l-28.6-29.4c-28.6-29.4-85.9-88.2-78.3-136.7c7.7-48.5,80.3-86.7,116.7-105.8l36.3-19.1"/>
	<path class="st3" d="M581.3,556.9l-29.4-30.5c-29.4-30.5-88.1-91.4-90.1-154.1s52.8-127.2,80.2-159.5l27.4-32.3"/>
	<path class="st3" d="M581.3,556.9l-35-26.7c-35-26.7-104.9-80-181.3-92.1s-159.4,17-200.9,31.6l-41.5,14.6"/>
	<path class="st3" d="M499.8,620L484,581.5c-15.9-38.5-47.7-115.6-23.8-166.4s103.6-75.5,143.4-87.8l39.8-12.3"/>
	<path class="st3" d="M451.7,639.1l-11.9-37.3c-11.9-37.3-35.8-111.8-50-110c-14.2,1.8-18.8,79.9-21.1,119l-2.3,39.1"/>
	<path class="st3" d="M383.6,649.9l0.6-45.2c0.6-45.2,1.8-135.7,26.1-219.4c24.3-83.7,71.8-160.7,95.5-199.2l23.7-38.5"/>
	<path class="st3" d="M383.6,649.9l-1.4-38.9c-1.4-38.9-4.3-116.8-7.2-116.8s-5.8,77.9-7.2,116.8l-1.4,38.9"/>
	<path class="st3" d="M366.4,649.9l1.7-45.8c1.7-45.8,5-137.4,10.7-228.8s13.9-182.7,18-228.4l4.1-45.6"/>
	<path class="st3" d="M366.4,649.9l2.3-39.1c2.3-39.1,6.9-117.2,21.1-119c14.2-1.8,38.1,72.8,50,110l11.9,37.3"/>
	<path class="st3" d="M366.4,649.9l-2.1-42.7c-2.1-42.7-6.3-128.1-50.5-178.2s-128.4-65-170.5-72.4l-42.1-7.4"/>
	<path class="st3" d="M366.4,649.9l-1.1-39.9C364.2,570,362,490.1,331,476.7c-31-13.4-90.7,39.7-120.6,66.2l-29.9,26.5"/>
	<path class="st3" d="M366.4,649.9l-1.6-40.6c-1.6-40.6-4.9-121.9-42.9-144.4c-38-22.5-110.8,13.8-147.2,32L138.3,515"/>
	<path class="st3" d="M366.4,649.9l3.9-40.1c3.9-40.1,11.7-120.3,47.6-135.8c35.8-15.5,99.6,33.7,131.5,58.3l31.9,24.6"/>
	<path class="st3" d="M366.4,649.9l3.8-44.8c3.8-44.8,11.3-134.4,45.1-212.6s94-145,124.1-178.5l30.1-33.4"/>
	<path class="st3" d="M366.4,649.9l4.6-43.5c4.6-43.5,13.7-130.6,58.3-192s124.6-96.9,164.6-114.7l40-17.8"/>
	<path class="st3" d="M366.4,649.9l4.7-43.1c4.7-43.1,14.1-129.4,60.2-185.2s129.1-81.2,170.6-93.9l41.5-12.7"/>
	<path class="st3" d="M366.4,649.9l4.8-42.5c4.8-42.5,14.3-127.4,61.6-174.7s132.2-56.8,174.7-61.6l42.5-4.8"/>
	<path class="st3" d="M366.4,649.9l3.3-45.2c3.3-45.2,9.8-135.7,37-219.4s75.1-160.7,99-199.2l23.9-38.5"/>
	<path class="st3" d="M366.4,649.9l1.4-38.9c1.4-38.9,4.3-116.8,7.2-116.8s5.8,77.9,7.2,116.8l1.4,38.9"/>
	<path class="st3" d="M366.4,649.9l4.5-43.7c4.5-43.7,13.5-131.2,57-195.2s121.5-104.6,160.6-124.8l39-20.3"/>
	<path class="st3" d="M366.4,649.9l4.5-41c4.5-41,13.5-123,57-150.6c43.5-27.6,121.5-0.8,160.6,12.6l39,13.4"/>
	<path class="st3" d="M366.4,649.9l-2-43.3c-2-43.3-5.9-130-48.5-188.6s-123.8-89.1-164.4-104.4l-40.6-15.3"/>
	<path class="st3" d="M366.4,649.9l4.3-44.1c4.3-44.1,12.9-132.4,53.8-201.5S538.5,285,575.1,260l36.6-25"/>
	<path class="st3" d="M366.4,649.9l-2.1-42.5c-2.1-42.5-6.3-127.4-50.7-174.7s-128.9-56.8-171.2-61.6l-42.3-4.8"/>
	<path class="st3" d="M366.4,649.9l2.9-45.4c2.9-45.4,8.7-136.3,30.9-223s61-169.1,80.3-210.3l19.4-41.2"/>
	<path class="st3" d="M366.4,649.9l-2-41.6c-2-41.6-6.1-124.9-49.4-160.7s-125.8-24.2-167.1-18.4l-41.3,5.8"/>
	<path class="st3" d="M366.4,649.9l-1.8-41c-1.8-41-5.5-123-46.1-150.6c-40.6-27.6-118.2-0.8-157,12.6l-38.8,13.4"/>
	<path class="st3" d="M366.4,649.9l3.9-44.6c3.9-44.6,11.7-133.9,47.6-210.1s99.6-139.1,131.5-170.5l31.9-31.5"/>
	<path class="st3" d="M180.5,569.5l29.9-26.5c29.9-26.5,89.6-79.6,120.6-66.2c31,13.4,33.2,93.3,34.3,133.2l1.1,39.9"/>
	<path class="st3" d="M138.3,515l36.4-18.1c36.4-18.1,109.2-54.4,147.2-32c38,22.5,41.3,103.7,42.9,144.4l1.6,40.6"/>
	<path class="st3" d="M138.3,515l39.8-22.3c39.8-22.3,119.5-67,203.7-100.3S554.7,337,599,326l44.3-11"/>
	<path class="st3" d="M138.3,515l39.6-22.9c39.6-22.9,118.9-68.8,200.5-110.4s165.2-78.7,207.1-97.3l41.9-18.6"/>
	<path class="st3" d="M122.6,484.2l41.3-19.3c41.3-19.3,124-57.8,198.5-108.4s140.7-113.3,173.9-144.6l33.1-31.3"/>
	<path class="st3" d="M122.6,484.2l41.5-14.6c41.5-14.6,124.5-43.7,200.9-31.6s146.4,65.5,181.3,92.1l35,26.7"/>
	<path class="st3" d="M122.6,484.2l38.8-13.4c38.8-13.4,116.4-40.2,157-12.6c40.6,27.6,44.3,109.6,46.1,150.6l1.8,41"/>
	<path class="st3" d="M106.6,435l44.7-10c44.7-10,134.2-30,223.6-50s178.9-40,223.6-50l44.7-10"/>
	<path class="st3" d="M106.6,435l37.9-9.1c37.9-9.1,113.8-27.4,112.7-36s-79.1-7.4-118.1-6.8l-39,0.6"/>
	<path class="st3" d="M106.6,435l38.5-11.2c38.5-11.2,115.6-33.5,122.4-69.3S211,269.6,179.3,245l-31.7-24.6"/>
	<path class="st3" d="M106.6,435l43.8-11.7c43.8-11.7,131.4-35,208.6-77.4S502.8,242,536.1,211.3l33.3-30.7"/>
	<path class="st3" d="M106.6,435l44-7c44-7,131.9-20.9,211-0.6c79.1,20.3,149.4,74.9,184.6,102.2l35.2,27.3"/>
	<path class="st3" d="M106.6,435l41.3-5.8c41.3-5.8,123.8-17.4,167.1,18.4s47.3,119.1,49.4,160.7l2,41.6"/>
	<path class="st3" d="M106.6,435l44.5-10.6c44.5-10.6,133.6-31.8,220.4-60c86.8-28.2,171.3-63.4,213.6-81l42.3-17.6"/>
	<path class="st3" d="M106.6,435l44.3-11c44.3-11,133-33,217.2-66.3s163.9-78,203.7-100.3l39.8-22.3"/>
	<path class="st3" d="M100.1,383.6l39.5-3.3c39.5-3.3,118.6-9.8,126.5-37c7.9-27.2-55.4-75.1-87-99l-31.6-23.9"/>
	<path class="st3" d="M100.1,383.6l45.7-2.1c45.7-2.1,137.2-6.2,227.7-17.7c90.5-11.4,180.2-30.2,225-39.5l44.8-9.4"/>
	<path class="st3" d="M100.1,383.6l39-0.6c39-0.6,117.1-1.7,118.1,6.8s-74.8,26.8-112.7,36l-37.9,9.1"/>
	<path class="st3" d="M100.1,366.4l42.3,4.8c42.3,4.8,126.8,14.3,171.2,61.6s48.6,132.2,50.7,174.7l2.1,42.5"/>
	<path class="st3" d="M101.2,349.1l42.1,7.4c42.1,7.4,126.3,22.3,170.5,72.4s48.4,135.5,50.5,178.2l2.1,42.7"/>
	<path class="st3" d="M101.2,349.1l44.6,1.6c44.6,1.6,133.9,4.7,212-23.4s144.8-87.4,178.2-117.1l33.4-29.7"/>
	<path class="st3" d="M110.9,298.3l43.1,9.4c43.1,9.4,129.4,28.2,205.9,8.6c76.4-19.6,143-77.7,176.3-106.7l33.3-29"/>
	<path class="st3" d="M110.9,298.3l44.1,11.1c44.1,11.1,132.2,33.2,220.9,36c88.7,2.8,178.1-13.8,222.8-22.1l44.7-8.3"/>
	<path class="st3" d="M110.9,298.3l40.6,15.3c40.6,15.3,121.8,45.8,164.4,104.4s46.5,145.3,48.5,188.6l2,43.3"/>
	<path class="st3" d="M147.6,220.4l38.4,23.1c38.4,23.1,115.3,69.2,197.9,85s171.1,1.1,215.3-6.2l44.2-7.3"/>
	<path class="st3" d="M147.6,220.4l31.6,23.9c31.6,23.9,94.9,71.8,87,99c-7.9,27.2-87,33.7-126.5,37l-39.5,3.3"/>
	<path class="st3" d="M147.6,220.4l31.7,24.6c31.7,24.6,95.1,73.7,88.3,109.5s-83.9,58.1-122.4,69.3L106.6,435"/>
	<path class="st3" d="M147.6,220.4l37.5,21.4c37.5,21.4,112.5,64.2,182.8,57.6c70.3-6.6,136-62.7,168.8-90.8l32.8-28"/>
	<path class="st3" d="M147.6,220.4l37.6,21.6c37.6,21.6,112.9,64.7,185.2,60.1s141.6-56.8,176.2-82.9l34.6-26.1"/>
	<path class="st3" d="M180.5,180.5l31.5,26.9c31.5,26.9,94.6,80.7,147.8,72.3s96.6-79.1,118.3-114.5l21.7-35.3"/>
	<path class="st3" d="M180.5,180.5l32.4,27.5c32.4,27.5,97.2,82.6,162,82.6s129.6-55.1,162-82.6l32.4-27.5"/>
	<path class="st3" d="M180.5,180.5l33.1,28.6c33.1,28.6,99.4,85.8,173.9,100s157.2-14.6,198.5-29l41.3-14.4"/>
	<path class="st3" d="M366.4,649.9l-1.2-44.6c-1.2-44.6-3.7-133.9-36.7-210.1s-96.3-139.1-128-170.5l-31.7-31.5"/>
	<path class="st3" d="M180.5,569.5l27.4-32.3c27.4-32.3,82.2-96.8,80.2-159.5s-60.7-123.7-90.1-154.1l-29.4-30.5"/>
	<path class="st3" d="M168.7,193.1l31.7,31.5c31.7,31.5,95.1,94.4,128,170.5s35.4,165.4,36.7,210.1l1.2,44.6"/>
	<path class="st3" d="M168.7,193.1l29.4,30.5c29.4,30.5,88.1,91.4,90.1,154.1S235.3,505,207.9,537.2l-27.4,32.3"/>
	<path class="st3" d="M569.5,180.5l-30.5,33.4c-30.5,33.4-91.5,100.1-131.1,177.8S350.1,558,341,602.3l-9.1,44.3"/>
	<path class="st3" d="M627.4,265.8L587.9,286c-39.4,20.2-118.3,60.7-167.6,124.2s-68.8,149.9-78.6,193.2l-9.8,43.2"/>
	<path class="st3" d="M633.7,281.8l-40.4,17.8c-40.4,17.8-121.3,53.3-171.6,114.1s-70,146.9-79.9,189.9l-9.9,43"/>
	<path class="st3" d="M643.4,315l-41.9,12.6c-41.9,12.6-125.7,37.9-177.6,93.2S352,561.4,342,604l-10,42.6"/>
	<path class="st3" d="M581.3,556.9l-32.3-24.6c-32.3-24.6-97-73.9-138.6-59s-60,94.2-69.2,133.8l-9.2,39.6"/>
	<path class="st3" d="M366.4,649.9l0.8-39c0.8-39,2.4-116.9-3.3-117.5c-5.7-0.5-18.8,76.3-25.3,114.8l-6.5,38.4"/>
	<path class="st3" d="M106.6,435l40.8-5.9c40.8-5.9,122.5-17.6,160.1,17.7s31,117.5,27.7,158.6l-3.3,41.1"/>
	<path class="st3" d="M100.1,383.6l41.8,2.1c41.8,2.1,125.5,6.2,164.2,50s32.2,127.4,29.1,169.1l-3.2,41.8"/>
	<path class="st3" d="M147.6,220.4l34.5,27.2c34.5,27.2,103.6,81.7,134.3,152.7s23.2,158.6,19.4,202.4l-3.8,43.8"/>
	<path class="st3" d="M332,646.6l10-42.6c10-42.6,30-127.9,81.9-183.1s135.7-80.6,177.6-93.2l41.9-12.6"/>
	<path class="st3" d="M332,646.6l3.2-41.8c3.2-41.8,9.6-125.3-29.1-169.1s-122.3-48-164.2-50l-41.8-2.1"/>
	<path class="st3" d="M332,646.6l3.8-43.8c3.8-43.8,11.4-131.4-19.4-202.4s-99.8-125.5-134.3-152.7l-34.5-27.2"/>
	<path class="st3" d="M332,646.6l3.3-41.1c3.3-41.1,9.8-123.4-27.7-158.6s-119.2-23.6-160.1-17.7l-40.8,5.9"/>
	<path class="st3" d="M332,646.6l6.5-38.4c6.5-38.4,19.6-115.3,25.3-114.8c5.7,0.5,4.1,78.5,3.3,117.5l-0.8,39"/>
	<path class="st3" d="M332,646.6l9.2-39.6c9.2-39.6,27.6-118.8,69.2-133.8s106.2,34.3,138.6,59l32.3,24.6"/>
	<path class="st3" d="M332,646.6l9.8-43.2c9.8-43.2,29.4-129.7,78.6-193.2S548.5,306.2,587.9,286l39.4-20.2"/>
	<path class="st3" d="M332,646.6l9.9-43c9.9-43,29.6-129.1,79.9-189.9s131.1-96.3,171.6-114.1l40.4-17.8"/>
	<path class="st3" d="M332,646.6l9.1-44.3c9.1-44.3,27.2-132.9,66.8-210.6s100.6-144.4,131.1-177.8l30.5-33.4"/>
	<path class="st3" d="M627.4,265.8L588.8,286c-38.6,20.3-115.8,60.8-153.5,124.6s-36.1,151-35.2,194.6l0.8,43.6"/>
	<path class="st3" d="M643.4,315l-41.1,12.7c-41.1,12.7-123.2,38-163.6,93.6s-39.1,141.5-38.5,184.5l0.6,43"/>
	<path class="st3" d="M138.3,515l36.8-18.2c36.8-18.2,110.4-54.5,154.2-32.2s57.7,103.2,64.6,143.7l6.9,40.5"/>
	<path class="st3" d="M400.9,648.8l-0.6-43c-0.6-43-1.9-128.9,38.5-184.5s122.5-81,163.6-93.6l41.1-12.7"/>
	<path class="st3" d="M400.9,648.8l-0.8-43.6c-0.8-43.6-2.5-130.7,35.2-194.6S550.2,306.3,588.8,286l38.6-20.3"/>
	<path class="st3" d="M400.9,648.8l-6.9-40.5c-6.9-40.5-20.8-121.4-64.6-143.7s-117.4,14-154.2,32.2L138.3,515"/>
	<path class="st3" d="M366.4,649.9l3.3-39.5c3.3-39.5,9.8-118.6,37-126.5c27.2-7.9,75.1,55.4,99,87l23.9,31.6"/>
	<path class="st3" d="M529.6,602.4l-23.9-31.6c-23.9-31.6-71.8-94.9-99-87c-27.2,7.9-33.7,87-37,126.5l-3.3,39.5"/>
	<path class="st3" d="M569.5,180.5l-31.9,27.1c-31.9,27.1-95.7,81.4-153.9,75.9c-58.2-5.5-110.7-70.8-137-103.4l-26.3-32.6"/>
	<path class="st3" d="M643.4,315l-43.3,6.4c-43.3,6.4-129.9,19.2-200.4-8.7c-70.5-27.9-124.9-96.5-152-130.9l-27.2-34.3"/>
	<path class="st3" d="M366.4,649.9l-0.6-45.2c-0.6-45.2-1.8-135.7-26.1-219.4c-24.3-83.7-71.8-160.7-95.5-199.2l-23.7-38.5"/>
	<path class="st3" d="M110.9,298.3l38.8,9c38.8,9,116.3,27,134.6,1.8c18.3-25.1-22.8-93.3-43.3-127.4l-20.5-34.1"/>
	<path class="st3" d="M220.4,147.6l26.3,32.6c26.3,32.6,78.8,97.9,137,103.4c58.2,5.5,122-48.8,153.9-75.9l31.9-27.1"/>
	<path class="st3" d="M220.4,147.6l27.2,34.3c27.2,34.3,81.6,102.9,152,130.9c70.5,27.9,157.1,15.1,200.4,8.7l43.3-6.4"/>
	<path class="st3" d="M220.4,147.6l20.5,34.1c20.5,34.1,61.6,102.3,43.3,127.4c-18.3,25.1-95.8,7.2-134.6-1.8l-38.8-9"/>
	<path class="st3" d="M220.4,147.6l23.7,38.5c23.7,38.5,71.2,115.5,95.5,199.2c24.3,83.7,25.5,174.2,26.1,219.4l0.6,45.2"/>
	<path class="st3" d="M569.5,180.5l-31.7,27c-31.7,27-95.2,81.1-150.9,74c-55.7-7-103.8-75.2-127.8-109.2l-24-34.1"/>
	<path class="st3" d="M235,138.3l24,34.1c24,34.1,72,102.2,127.8,109.2c55.7,7,119.2-47,150.9-74l31.7-27"/>
	<path class="st3" d="M529.6,147.6l-25.4,32c-25.4,32-76.2,96-122.7,93.1s-88.9-72.8-110.1-107.7L250.2,130"/>
	<path class="st3" d="M569.5,180.5l-31.5,26.9c-31.5,26.9-94.6,80.7-147.8,72.3s-96.6-79.1-118.3-114.5L250.2,130"/>
	<path class="st3" d="M611.7,235l-38.1,18.5c-38.1,18.5-114.2,55.6-174.4,38C339,274.1,294.6,202,272.4,166l-22.2-36"/>
	<path class="st3" d="M627.4,265.8l-40.5,13.8c-40.5,13.8-121.4,41.3-184.3,18.7S295,202.8,272.6,166.4L250.2,130"/>
	<path class="st3" d="M633.7,281.8l-41.5,11.3c-41.5,11.3-124.4,33.9-188.3,8.6s-108.9-98.5-131.4-135.1L250.2,130"/>
	<path class="st3" d="M383.6,649.9l-2.9-45.4c-2.9-45.4-8.7-136.3-30.9-223s-61-169.1-80.3-210.3L250.2,130"/>
	<path class="st3" d="M366.4,649.9l-0.2-45.4c-0.2-45.4-0.7-136.3-20.1-223c-19.4-86.6-57.6-169.1-76.8-210.3L250.2,130"/>
	<path class="st3" d="M332,646.6l5.1-44.9c5.1-44.9,15.2-134.8,1.6-220.9s-51.1-168.4-69.8-209.6L250.2,130"/>
	<path class="st3" d="M138.3,515l34.9-24.6c34.9-24.6,104.8-73.9,123.4-138.1S282.7,209,266.4,169.5L250.2,130"/>
	<path class="st3" d="M106.6,435l39.8-12.3c39.8-12.3,119.4-36.9,143.4-87.8S281.9,207,266,168.5L250.2,130"/>
	<path class="st3" d="M250.2,130l16.3,39.5c16.3,39.5,48.9,118.6,30.2,182.7s-88.5,113.5-123.4,138.1L138.3,515"/>
	<path class="st3" d="M250.2,130l19.1,41.2c19.1,41.2,57.4,123.6,76.8,210.3c19.4,86.6,19.8,177.5,20.1,223l0.2,45.4"/>
	<path class="st3" d="M250.2,130l21.2,34.9c21.2,34.9,63.5,104.8,110.1,107.7s97.4-61.1,122.7-93.1l25.4-32"/>
	<path class="st3" d="M250.2,130l19.4,41.2c19.4,41.2,58.1,123.6,80.3,210.3s28,177.5,30.9,223l2.9,45.4"/>
	<path class="st3" d="M250.2,130l22.2,36c22.2,36,66.6,108.1,126.9,125.6c60.3,17.5,136.4-19.5,174.4-38l38.1-18.5"/>
	<path class="st3" d="M250.2,130l15.9,38.5c15.9,38.5,47.7,115.6,23.8,166.4s-103.6,75.5-143.4,87.8L106.6,435"/>
	<path class="st3" d="M250.2,130l22.4,36.4c22.4,36.4,67.2,109.2,130.1,131.9s143.8-4.9,184.3-18.7l40.5-13.8"/>
	<path class="st3" d="M250.2,130l22.5,36.6c22.5,36.6,67.4,109.8,131.4,135.1s146.8,2.7,188.3-8.6l41.5-11.3"/>
	<path class="st3" d="M250.2,130l18.7,41.2c18.7,41.2,56.1,123.5,69.8,209.6s3.5,176-1.6,220.9l-5.1,44.9"/>
	<path class="st3" d="M250.2,130l21.7,35.3c21.7,35.3,65,106,118.3,114.5s116.3-45.4,147.8-72.3l31.5-26.9"/>
	<path class="st3" d="M569.5,180.5l-31.3,26.8c-31.3,26.8-94,80.5-144.6,70.8s-89.1-82.6-108.4-119.1l-19.3-36.5"/>
	<path class="st3" d="M643.4,315l-42.7,6.1c-42.7,6.1-128.2,18.3-191.2-13.8S306.2,198.9,286,160.8l-20.2-38.2"/>
	<path class="st3" d="M366.4,649.9l0-45.5c0-45.5-0.1-136.6-16.9-224.5c-16.8-87.9-50.2-172.6-67-214.9l-16.7-42.3"/>
	<path class="st3" d="M332,646.6l5.3-45c5.3-45,15.8-135.1,4.8-222.4s-43.6-171.9-59.9-214.2l-16.3-42.3"/>
	<path class="st3" d="M250.2,130l17.9,34.6c17.9,34.6,53.6,103.9,56.3,102.6s-27.9-72.9-43.2-108.8l-15.3-35.8"/>
	<path class="st3" d="M265.8,122.6l15.3,35.8c15.3,35.8,45.8,107.5,43.2,108.8s-38.4-68-56.3-102.6L250.2,130"/>
	<path class="st3" d="M265.8,122.6l20.2,38.2c20.2,38.2,60.6,114.5,123.5,146.5s148.4,19.9,191.2,13.8l42.7-6.1"/>
	<path class="st3" d="M265.8,122.6l16.3,42.3c16.3,42.3,48.9,126.9,59.9,214.2s0.5,177.4-4.8,222.4l-5.3,45"/>
	<path class="st3" d="M265.8,122.6l19.3,36.5c19.3,36.5,57.8,109.4,108.4,119.1s113.3-44,144.6-70.8l31.3-26.8"/>
	<path class="st3" d="M265.8,122.6l16.7,42.3c16.7,42.3,50.2,127,67,214.9c16.8,87.9,16.8,178.9,16.9,224.5l0,45.5"/>
</g>
</svg>
