<svg viewBox="-375,-375,750,750" xmlns="http://www.w3.org/2000/svg" xmlns:xlink="http://www.w3.org/1999/xlink"><g font-family="sans-serif" font-size="10"><g transform="rotate(-88.2) translate(275,0)"><text dy="0.31em" x="6" text-anchor="start">100luz<title>flare.100luz
0 outgoing
0 incoming</title></text></g><g transform="rotate(-84.6) translate(275,0)"><text dy="0.31em" x="6" text-anchor="start">Alex<title>flare.Alex
0 outgoing
0 incoming</title></text></g><g transform="rotate(-81) translate(275,0)"><text dy="0.31em" x="6" text-anchor="start">Alina<title>flare.Alina
0 outgoing
0 incoming</title></text></g><g transform="rotate(-77.4) translate(275,0)"><text dy="0.31em" x="6" text-anchor="start">Allen<title>flare.Allen
0 outgoing
0 incoming</title></text></g><g transform="rotate(-73.8) translate(275,0)"><text dy="0.31em" x="6" text-anchor="start">Ariel Malka<title>flare.Ariel Malka
0 outgoing
0 incoming</title></text></g><g transform="rotate(-70.2) translate(275,0)"><text dy="0.31em" x="6" text-anchor="start">Bertrand Saint-Guillain<title>flare.Bertrand Saint-Guillain
9 outgoing
9 incoming</title></text></g><g transform="rotate(-66.6) translate(275,0)"><text dy="0.31em" x="6" text-anchor="start">Brian<title>flare.Brian
0 outgoing
0 incoming</title></text></g><g transform="rotate(-63) translate(275,0)"><text dy="0.31em" x="6" text-anchor="start">Dan<title>flare.Dan
0 outgoing
0 incoming</title></text></g><g transform="rotate(-59.39999999999999) translate(275,0)"><text dy="0.31em" x="6" text-anchor="start">Dara<title>flare.Dara
0 outgoing
0 incoming</title></text></g><g transform="rotate(-55.800000000000004) translate(275,0)"><text dy="0.31em" x="6" text-anchor="start">Dimitre<title>flare.Dimitre
0 outgoing
0 incoming</title></text></g><g transform="rotate(-52.2) translate(275,0)"><text dy="0.31em" x="6" text-anchor="start">Elrick<title>flare.Elrick
0 outgoing
0 incoming</title></text></g><g transform="rotate(-48.6) translate(275,0)"><text dy="0.31em" x="6" text-anchor="start">Frederik De Bleser<title>flare.Frederik De Bleser
0 outgoing
0 incoming</title></text></g><g transform="rotate(-45) translate(275,0)"><text dy="0.31em" x="6" text-anchor="start">Glen Murphy<title>flare.Glen Murphy
0 outgoing
0 incoming</title></text></g><g transform="rotate(-41.4) translate(275,0)"><text dy="0.31em" x="6" text-anchor="start">Jeff Berg<title>flare.Jeff Berg
0 outgoing
0 incoming</title></text></g><g transform="rotate(-37.800000000000004) translate(275,0)"><text dy="0.31em" x="6" text-anchor="start">JimQode<title>flare.JimQode
0 outgoing
0 incoming</title></text></g><g transform="rotate(-34.2) translate(275,0)"><text dy="0.31em" x="6" text-anchor="start">Jordan J<title>flare.Jordan J
0 outgoing
0 incoming</title></text></g><g transform="rotate(-30.599999999999987) translate(275,0)"><text dy="0.31em" x="6" text-anchor="start">Josh Nimoy<title>flare.Josh Nimoy
0 outgoing
0 incoming</title></text></g><g transform="rotate(-27) translate(275,0)"><text dy="0.31em" x="6" text-anchor="start">Koenie<title>flare.Koenie
0 outgoing
0 incoming</title></text></g><g transform="rotate(-23.39999999999999) translate(275,0)"><text dy="0.31em" x="6" text-anchor="start">Martin<title>flare.Martin
6 outgoing
6 incoming</title></text></g><g transform="rotate(-19.799999999999997) translate(275,0)"><text dy="0.31em" x="6" text-anchor="start">Mike Davis<title>flare.Mike Davis
10 outgoing
10 incoming</title></text></g><g transform="rotate(-16.200000000000003) translate(275,0)"><text dy="0.31em" x="6" text-anchor="start">Processing<title>flare.Processing
12 outgoing
12 incoming</title></text></g><g transform="rotate(-12.600000000000009) translate(275,0)"><text dy="0.31em" x="6" text-anchor="start">REAS<title>flare.REAS
9 outgoing
9 incoming</title></text></g><g transform="rotate(-9) translate(275,0)"><text dy="0.31em" x="6" text-anchor="start">Takachin<title>flare.Takachin
13 outgoing
13 incoming</title></text></g><g transform="rotate(-5.400000000000006) translate(275,0)"><text dy="0.31em" x="6" text-anchor="start">WillisMorse<title>flare.WillisMorse
0 outgoing
0 incoming</title></text></g><g transform="rotate(-1.7999999999999972) translate(275,0)"><text dy="0.31em" x="6" text-anchor="start">Wim_Van_der_Vurst<title>flare.Wim_Van_der_Vurst
0 outgoing
0 incoming</title></text></g><g transform="rotate(1.7999999999999972) translate(275,0)"><text dy="0.31em" x="6" text-anchor="start">XemonerdX<title>flare.XemonerdX
0 outgoing
0 incoming</title></text></g><g transform="rotate(5.400000000000006) translate(275,0)"><text dy="0.31em" x="6" text-anchor="start">Xu1<title>flare.Xu1
0 outgoing
0 incoming</title></text></g><g transform="rotate(9.000000000000014) translate(275,0)"><text dy="0.31em" x="6" text-anchor="start">[rocha]<title>flare.[rocha]
0 outgoing
0 incoming</title></text></g><g transform="rotate(12.599999999999994) translate(275,0)"><text dy="0.31em" x="6" text-anchor="start">_cory<title>flare._cory
0 outgoing
0 incoming</title></text></g><g transform="rotate(16.19999999999999) translate(275,0)"><text dy="0.31em" x="6" text-anchor="start">_martin<title>flare._martin
0 outgoing
0 incoming</title></text></g><g transform="rotate(19.799999999999997) translate(275,0)"><text dy="0.31em" x="6" text-anchor="start">_warren<title>flare._warren
0 outgoing
0 incoming</title></text></g><g transform="rotate(23.400000000000006) translate(275,0)"><text dy="0.31em" x="6" text-anchor="start">adrien<title>flare.adrien
16 outgoing
16 incoming</title></text></g><g transform="rotate(27) translate(275,0)"><text dy="0.31em" x="6" text-anchor="start">anurag<title>flare.anurag
0 outgoing
0 incoming</title></text></g><g transform="rotate(30.60000000000001) translate(275,0)"><text dy="0.31em" x="6" text-anchor="start">arielm<title>flare.arielm
0 outgoing
0 incoming</title></text></g><g transform="rotate(34.19999999999999) translate(275,0)"><text dy="0.31em" x="6" text-anchor="start">artelse<title>flare.artelse
0 outgoing
0 incoming</title></text></g><g transform="rotate(37.79999999999998) translate(275,0)"><text dy="0.31em" x="6" text-anchor="start">barikan<title>flare.barikan
4 outgoing
4 incoming</title></text></g><g transform="rotate(41.400000000000006) translate(275,0)"><text dy="0.31em" x="6" text-anchor="start">benelek<title>flare.benelek
0 outgoing
0 incoming</title></text></g><g transform="rotate(45) translate(275,0)"><text dy="0.31em" x="6" text-anchor="start">bzor<title>flare.bzor
0 outgoing
0 incoming</title></text></g><g transform="rotate(48.599999999999994) translate(275,0)"><text dy="0.31em" x="6" text-anchor="start">damille<title>flare.damille
0 outgoing
0 incoming</title></text></g><g transform="rotate(52.20000000000002) translate(275,0)"><text dy="0.31em" x="6" text-anchor="start">depth<title>flare.depth
0 outgoing
0 incoming</title></text></g><g transform="rotate(55.80000000000001) translate(275,0)"><text dy="0.31em" x="6" text-anchor="start">dnm<title>flare.dnm
0 outgoing
0 incoming</title></text></g><g transform="rotate(59.400000000000006) translate(275,0)"><text dy="0.31em" x="6" text-anchor="start">ed<title>flare.ed
0 outgoing
0 incoming</title></text></g><g transform="rotate(63) translate(275,0)"><text dy="0.31em" x="6" text-anchor="start">edwardgeorge<title>flare.edwardgeorge
0 outgoing
0 incoming</title></text></g><g transform="rotate(66.6) translate(275,0)"><text dy="0.31em" x="6" text-anchor="start">eviltyler<title>flare.eviltyler
12 outgoing
12 incoming</title></text></g><g transform="rotate(70.20000000000002) translate(275,0)"><text dy="0.31em" x="6" text-anchor="start">ezdac<title>flare.ezdac
10 outgoing
10 incoming</title></text></g><g transform="rotate(73.80000000000004) translate(275,0)"><text dy="0.31em" x="6" text-anchor="start">fdb<title>flare.fdb
9 outgoing
9 incoming</title></text></g><g transform="rotate(77.40000000000003) translate(275,0)"><text dy="0.31em" x="6" text-anchor="start">fli<title>flare.fli
0 outgoing
0 incoming</title></text></g><g transform="rotate(81) translate(275,0)"><text dy="0.31em" x="6" text-anchor="start">flight404<title>flare.flight404
0 outgoing
0 incoming</title></text></g><g transform="rotate(84.6) translate(275,0)"><text dy="0.31em" x="6" text-anchor="start">forkinsocket<title>flare.forkinsocket
4 outgoing
4 incoming</title></text></g><g transform="rotate(88.20000000000002) translate(275,0)"><text dy="0.31em" x="6" text-anchor="start">franklin_mint<title>flare.franklin_mint
0 outgoing
0 incoming</title></text></g><g transform="rotate(91.80000000000001) translate(275,0)"><text dy="0.31em" x="-6" text-anchor="end" transform="rotate(180)">fry<title>flare.fry
16 outgoing
16 incoming</title></text></g><g transform="rotate(95.4) translate(275,0)"><text dy="0.31em" x="-6" text-anchor="end" transform="rotate(180)">fulk<title>flare.fulk
0 outgoing
0 incoming</title></text></g><g transform="rotate(99) translate(275,0)"><text dy="0.31em" x="-6" text-anchor="end" transform="rotate(180)">gaza<title>flare.gaza
0 outgoing
0 incoming</title></text></g><g transform="rotate(102.60000000000002) translate(275,0)"><text dy="0.31em" x="-6" text-anchor="end" transform="rotate(180)">gkoshra<title>flare.gkoshra
0 outgoing
0 incoming</title></text></g><g transform="rotate(106.20000000000002) translate(275,0)"><text dy="0.31em" x="-6" text-anchor="end" transform="rotate(180)">grumo<title>flare.grumo
0 outgoing
0 incoming</title></text></g><g transform="rotate(109.80000000000001) translate(275,0)"><text dy="0.31em" x="-6" text-anchor="end" transform="rotate(180)">gsm<title>flare.gsm
0 outgoing
0 incoming</title></text></g><g transform="rotate(113.39999999999998) translate(275,0)"><text dy="0.31em" x="-6" text-anchor="end" transform="rotate(180)">heidi<title>flare.heidi
0 outgoing
0 incoming</title></text></g><g transform="rotate(116.99999999999997) translate(275,0)"><text dy="0.31em" x="-6" text-anchor="end" transform="rotate(180)">heliodrop<title>flare.heliodrop
0 outgoing
0 incoming</title></text></g><g transform="rotate(120.6) translate(275,0)"><text dy="0.31em" x="-6" text-anchor="end" transform="rotate(180)">hurlbot<title>flare.hurlbot
0 outgoing
0 incoming</title></text></g><g transform="rotate(124.19999999999999) translate(275,0)"><text dy="0.31em" x="-6" text-anchor="end" transform="rotate(180)">ik0<title>flare.ik0
13 outgoing
13 incoming</title></text></g><g transform="rotate(127.79999999999998) translate(275,0)"><text dy="0.31em" x="-6" text-anchor="end" transform="rotate(180)">jand<title>flare.jand
0 outgoing
0 incoming</title></text></g><g transform="rotate(131.4) translate(275,0)"><text dy="0.31em" x="-6" text-anchor="end" transform="rotate(180)">jbk303<title>flare.jbk303
0 outgoing
0 incoming</title></text></g><g transform="rotate(135) translate(275,0)"><text dy="0.31em" x="-6" text-anchor="end" transform="rotate(180)">jes<title>flare.jes
9 outgoing
9 incoming</title></text></g><g transform="rotate(138.6) translate(275,0)"><text dy="0.31em" x="-6" text-anchor="end" transform="rotate(180)">jlee<title>flare.jlee
12 outgoing
12 incoming</title></text></g><g transform="rotate(142.2) translate(275,0)"><text dy="0.31em" x="-6" text-anchor="end" transform="rotate(180)">joey<title>flare.joey
0 outgoing
0 incoming</title></text></g><g transform="rotate(145.8) translate(275,0)"><text dy="0.31em" x="-6" text-anchor="end" transform="rotate(180)">kevin<title>flare.kevin
0 outgoing
0 incoming</title></text></g><g transform="rotate(149.4) translate(275,0)"><text dy="0.31em" x="-6" text-anchor="end" transform="rotate(180)">mKoser<title>flare.mKoser
1 outgoing
1 incoming</title></text></g><g transform="rotate(153) translate(275,0)"><text dy="0.31em" x="-6" text-anchor="end" transform="rotate(180)">mawend<title>flare.mawend
0 outgoing
0 incoming</title></text></g><g transform="rotate(156.60000000000005) translate(275,0)"><text dy="0.31em" x="-6" text-anchor="end" transform="rotate(180)">mccutchen<title>flare.mccutchen
0 outgoing
0 incoming</title></text></g><g transform="rotate(160.2) translate(275,0)"><text dy="0.31em" x="-6" text-anchor="end" transform="rotate(180)">meltphace<title>flare.meltphace
0 outgoing
0 incoming</title></text></g><g transform="rotate(163.79999999999998) translate(275,0)"><text dy="0.31em" x="-6" text-anchor="end" transform="rotate(180)">michaONE<title>flare.michaONE
1 outgoing
1 incoming</title></text></g><g transform="rotate(167.39999999999998) translate(275,0)"><text dy="0.31em" x="-6" text-anchor="end" transform="rotate(180)">michael<title>flare.michael
0 outgoing
0 incoming</title></text></g><g transform="rotate(171) translate(275,0)"><text dy="0.31em" x="-6" text-anchor="end" transform="rotate(180)">mmuday<title>flare.mmuday
0 outgoing
0 incoming</title></text></g><g transform="rotate(174.59999999999997) translate(275,0)"><text dy="0.31em" x="-6" text-anchor="end" transform="rotate(180)">mohn<title>flare.mohn
0 outgoing
0 incoming</title></text></g><g transform="rotate(178.20000000000005) translate(275,0)"><text dy="0.31em" x="-6" text-anchor="end" transform="rotate(180)">mr.prufrock<title>flare.mr.prufrock
0 outgoing
0 incoming</title></text></g><g transform="rotate(181.8) translate(275,0)"><text dy="0.31em" x="-6" text-anchor="end" transform="rotate(180)">mrb<title>flare.mrb
0 outgoing
0 incoming</title></text></g><g transform="rotate(185.40000000000003) translate(275,0)"><text dy="0.31em" x="-6" text-anchor="end" transform="rotate(180)">nurm<title>flare.nurm
0 outgoing
0 incoming</title></text></g><g transform="rotate(189) translate(275,0)"><text dy="0.31em" x="-6" text-anchor="end" transform="rotate(180)">oytun<title>flare.oytun
0 outgoing
0 incoming</title></text></g><g transform="rotate(192.60000000000002) translate(275,0)"><text dy="0.31em" x="-6" text-anchor="end" transform="rotate(180)">pinksalmon<title>flare.pinksalmon
0 outgoing
0 incoming</title></text></g><g transform="rotate(196.2) translate(275,0)"><text dy="0.31em" x="-6" text-anchor="end" transform="rotate(180)">pitaru<title>flare.pitaru
0 outgoing
0 incoming</title></text></g><g transform="rotate(199.8) translate(275,0)"><text dy="0.31em" x="-6" text-anchor="end" transform="rotate(180)">pokemon#1<title>flare.pokemon#1
0 outgoing
0 incoming</title></text></g><g transform="rotate(203.39999999999998) translate(275,0)"><text dy="0.31em" x="-6" text-anchor="end" transform="rotate(180)">pollux<title>flare.pollux
0 outgoing
0 incoming</title></text></g><g transform="rotate(207) translate(275,0)"><text dy="0.31em" x="-6" text-anchor="end" transform="rotate(180)">polyscope<title>flare.polyscope
0 outgoing
0 incoming</title></text></g><g transform="rotate(210.59999999999997) translate(275,0)"><text dy="0.31em" x="-6" text-anchor="end" transform="rotate(180)">primeclub<title>flare.primeclub
0 outgoing
0 incoming</title></text></g><g transform="rotate(214.2) translate(275,0)"><text dy="0.31em" x="-6" text-anchor="end" transform="rotate(180)">rlivings<title>flare.rlivings
0 outgoing
0 incoming</title></text></g><g transform="rotate(217.79999999999995) translate(275,0)"><text dy="0.31em" x="-6" text-anchor="end" transform="rotate(180)">scrap-pile<title>flare.scrap-pile
0 outgoing
0 incoming</title></text></g><g transform="rotate(221.40000000000003) translate(275,0)"><text dy="0.31em" x="-6" text-anchor="end" transform="rotate(180)">sdewitt<title>flare.sdewitt
0 outgoing
0 incoming</title></text></g><g transform="rotate(225) translate(275,0)"><text dy="0.31em" x="-6" text-anchor="end" transform="rotate(180)">seb<title>flare.seb
0 outgoing
0 incoming</title></text></g><g transform="rotate(228.59999999999997) translate(275,0)"><text dy="0.31em" x="-6" text-anchor="end" transform="rotate(180)">skloopy<title>flare.skloopy
0 outgoing
0 incoming</title></text></g><g transform="rotate(232.20000000000005) translate(275,0)"><text dy="0.31em" x="-6" text-anchor="end" transform="rotate(180)">solipsys<title>flare.solipsys
0 outgoing
0 incoming</title></text></g><g transform="rotate(235.8) translate(275,0)"><text dy="0.31em" x="-6" text-anchor="end" transform="rotate(180)">spacegirl<title>flare.spacegirl
0 outgoing
0 incoming</title></text></g><g transform="rotate(239.39999999999998) translate(275,0)"><text dy="0.31em" x="-6" text-anchor="end" transform="rotate(180)">sparky_monkey<title>flare.sparky_monkey
0 outgoing
0 incoming</title></text></g><g transform="rotate(243) translate(275,0)"><text dy="0.31em" x="-6" text-anchor="end" transform="rotate(180)">sportebois<title>flare.sportebois
0 outgoing
0 incoming</title></text></g><g transform="rotate(246.60000000000002) translate(275,0)"><text dy="0.31em" x="-6" text-anchor="end" transform="rotate(180)">svela<title>flare.svela
0 outgoing
0 incoming</title></text></g><g transform="rotate(250.19999999999993) translate(275,0)"><text dy="0.31em" x="-6" text-anchor="end" transform="rotate(180)">tomek<title>flare.tomek
14 outgoing
14 incoming</title></text></g><g transform="rotate(253.8) translate(275,0)"><text dy="0.31em" x="-6" text-anchor="end" transform="rotate(180)">toxi<title>flare.toxi
0 outgoing
0 incoming</title></text></g><g transform="rotate(257.4) translate(275,0)"><text dy="0.31em" x="-6" text-anchor="end" transform="rotate(180)">v3ga<title>flare.v3ga
0 outgoing
0 incoming</title></text></g><g transform="rotate(261) translate(275,0)"><text dy="0.31em" x="-6" text-anchor="end" transform="rotate(180)">vanwoods<title>flare.vanwoods
0 outgoing
0 incoming</title></text></g><g transform="rotate(264.6) translate(275,0)"><text dy="0.31em" x="-6" text-anchor="end" transform="rotate(180)">vent<title>flare.vent
0 outgoing
0 incoming</title></text></g><g transform="rotate(268.2) translate(275,0)"><text dy="0.31em" x="-6" text-anchor="end" transform="rotate(180)">xoff<title>flare.xoff
0 outgoing
0 incoming</title></text></g></g><g stroke="grey" fill="none"><path d="M93.15292806745512,-258.742211462412L81.94663318284448,-217.48759132123305C70.74033829823382,-176.2329711800542,48.327748529012545,-93.72373089769637,74.86601419495248,-32.39741733320026C101.40427986089246,28.928896231295838,176.89340096199365,69.07228307793024,214.63796151254428,89.14397650124742L252.38252206309485,109.21566992456462" style="mix-blend-mode: multiply;"/><path d="M93.15292806745512,-258.742211462412L80.15704753111285,-215.69800566950144C67.16116699477057,-172.65379987659094,41.169405922086035,-86.56538829076986,43.84652956493761,-1.3779327031853843C46.52365320778921,83.80952288439909,77.86966156617693,168.09602247374696,93.5426657453708,210.23927226842088L109.21566992456465,252.38252206309483" style="mix-blend-mode: multiply;"/><path d="M93.15292806745512,-258.742211462412L76.8596900456891,-216.00969772122133C60.56645202392306,-173.27718398003069,27.979975980391004,-87.81215649764937,-13.30766684907415,-6.780594932996602C-54.59530967853931,74.25096663165617,-104.58411929393755,150.84906227858036,-129.5785241016367,189.14811010204252L-154.57292890933581,227.4471579255046" style="mix-blend-mode: multiply;"/><path d="M93.15292806745512,-258.742211462412L82.09286120157029,-219.8118191223C71.03279433568544,-180.881426782188,48.91266060391576,-103.02064210196401,77.4006331861998,-72.68403255169336C105.88860576848383,-42.347423001422705,184.98468466482157,-59.53498858110541,224.53272411299042,-68.12877137094675L264.0807635611593,-76.7225541607881" style="mix-blend-mode: multiply;"/><path d="M93.15292806745512,-258.742211462412L82.02612930033594,-220.01719879613333C70.89933053321677,-181.29218612985468,48.645732998978396,-103.84216079729737,76.24394689813788,-76.24394689813788C103.84216079729737,-48.64573299897841,181.29218612985468,-70.89933053321678,220.01719879613333,-82.02612930033597L258.742211462412,-93.15292806745515" style="mix-blend-mode: multiply;"/><path d="M93.15292806745512,-258.742211462412L77.6274400562126,-222.08706483857029C62.10195204497007,-185.4319182147286,31.050976022485028,-112.1216249670452,-5.4474943074941016e-14,-112.12162496704518C-31.05097602248514,-112.12162496704515,-62.10195204497026,-185.4319182147285,-77.62744005621282,-222.0870648385702L-93.15292806745538,-258.7422114624119" style="mix-blend-mode: multiply;"/><path d="M93.15292806745512,-258.742211462412L82.18703032785159,-219.39053066886592C71.22113258824804,-180.0388498753199,49.289337109040936,-101.33548828822778,79.03289804174223,-65.38169935883636C108.77645897444353,-29.427910429444946,190.19537631905317,-36.223694157754224,230.90483499135803,-39.62158602190886L271.61429366366286,-43.019477886063505" style="mix-blend-mode: multiply;"/><path d="M93.15292806745512,-258.742211462412L76.2133448552011,-216.57952765824007C59.27376164294705,-174.41684385406822,25.39459521843898,-90.09147624572438,-24.5109834841996,-16.657647174655008C-74.41656218683818,56.77618189641438,-140.34855316760726,119.31847243020934,-173.31454865799182,150.5896176971068L-206.28054414837635,181.8607629640043" style="mix-blend-mode: multiply;"/><path d="M93.15292806745512,-258.742211462412L79.95626325789898,-215.61850955200998C66.75959844834284,-172.494807641608,40.366268829230556,-86.247403820804,40.366268829230556,0C40.36626882923055,86.247403820804,66.75959844834283,172.494807641608,79.95626325789897,215.61850955200998L93.15292806745511,258.742211462412" style="mix-blend-mode: multiply;"/><path d="M252.38252206309483,-109.21566992456465L216.6283314374897,-91.01305827047054C180.87414081188464,-72.81044661637644,109.36575956067442,-36.40522330818822,109.36575956067442,-7.105427357601002e-15C109.36575956067445,36.405223308188205,180.87414081188464,72.81044661637641,216.62833143748978,91.01305827047052L252.38252206309485,109.21566992456462" style="mix-blend-mode: multiply;"/><path d="M252.38252206309483,-109.21566992456465L216.82826378086546,-93.1281215368282C181.27400549863614,-77.04057314909178,110.16548893417746,-44.86547637361891,112.8312535125209,-36.661096616866345C115.49701809086436,-28.456716860113776,191.93706381200994,-44.223054122081514,230.15708667258275,-52.106222753065374L268.37710953315553,-59.98939138404924" style="mix-blend-mode: multiply;"/><path d="M252.38252206309483,-109.21566992456465L212.30913831085783,-95.61253178780775C172.23575455862087,-82.00939365105084,92.08898705414691,-54.80311737753704,34.49974536572188,-79.72420763384491C-23.08949632270315,-104.64529789015279,-58.121212195079266,-181.69375467628234,-75.63707013126732,-220.21798306934713L-93.15292806745538,-258.7422114624119" style="mix-blend-mode: multiply;"/><path d="M252.38252206309483,-109.21566992456465L213.7970472387334,-88.95600989120452C175.21157241437206,-68.69634985784437,98.04062276564925,-28.1770297911241,60.290166782232035,35.65550524061118C22.5397107988148,99.48804027234645,24.209748480703123,186.63379026909672,25.044767321647285,230.20666526747186L25.879786162591447,273.779540265847" style="mix-blend-mode: multiply;"/><path d="M252.38252206309483,-109.21566992456465L213.36557542736998,-88.94245034327038C174.3486287916451,-68.66923076197615,96.31473552019543,-28.12279159938764,52.81132205193209,35.8905374048025C9.30790858366875,99.90386640899264,0.33497491859177586,187.38408525478442,-4.151491913946711,231.1241946776803L-8.637958746485198,274.8643041005762" style="mix-blend-mode: multiply;"/><path d="M252.38252206309483,-109.21566992456465L216.18970776674246,-90.27138614759549C179.99689347039012,-71.32710237062633,107.61126487768543,-33.438534816688026,101.7629492677221,12.855650129834165C95.91463365775878,59.14983507635636,156.60363103053683,113.84963741546242,186.94812971692588,141.19953858501546L217.2926284033149,168.54943975456848" style="mix-blend-mode: multiply;"/><path d="M258.742211462412,-93.15292806745515L220.21798306934718,-75.63707013126712C181.69375467628242,-58.1212121950791,104.64529789015285,-23.089496322703067,79.72420763384496,34.49974536572193C54.803117377537056,92.08898705414693,82.00939365105086,172.23575455862087,95.61253178780777,212.30913831085786L109.21566992456466,252.38252206309483" style="mix-blend-mode: multiply;"/><path d="M258.742211462412,-93.15292806745515L222.0075687210788,-77.42665578299876C185.27292597974568,-61.70038349854236,111.80364049707934,-30.247838929629577,110.74369226385983,3.4802607357070534C109.6837440306403,37.208360401043684,181.03313304686756,73.21201516280415,216.70782755498124,91.21384254368438L252.38252206309485,109.21566992456462" style="mix-blend-mode: multiply;"/><path d="M258.742211462412,-93.15292806745515L216.92062558392342,-75.94876218298701C175.09903970543493,-58.744596298518864,91.45586794845781,-24.336264529582575,22.570011219833173,29.09708313591072C-46.31584550879146,82.53043080140401,-100.44438720906363,154.9887943634543,-127.50865805919972,191.21797614447942L-154.57292890933581,227.4471579255046" style="mix-blend-mode: multiply;"/><path d="M258.742211462412,-93.15292806745515L222.15379673980462,-79.75088358406566C185.5653820171973,-66.34883910067619,112.38855257198257,-39.54475013389722,113.27831125510711,-36.80635448278604C114.16806993823167,-34.06795883167487,189.12441674969548,-55.3952564962315,226.60259015542738,-66.05890532850981L264.0807635611593,-76.72255416078812" style="mix-blend-mode: multiply;"/><path d="M258.742211462412,-93.15292806745515L217.68837559444694,-82.02612930033597C176.6345397264819,-70.89933053321677,94.52686799055182,-48.64573299897841,35.87767806890727,-76.24394689813786C-22.77151185273729,-103.84216079729731,-57.96221996009634,-181.2921861298546,-75.55757401377586,-220.01719879613324L-93.15292806745538,-258.7422114624119" style="mix-blend-mode: multiply;"/><path d="M258.742211462412,-93.15292806745515L222.2479658660859,-79.3295951306316C185.7537202697599,-65.50626219380807,112.76522907710773,-37.85959632016098,114.91057611064956,-29.504021289929042C117.05592314419137,-21.1484462596971,194.33510840392714,-32.083962072880304,232.974701033795,-37.551719979471905L271.61429366366286,-43.019477886063505" style="mix-blend-mode: multiply;"/><path d="M258.742211462412,-93.15292806745515L216.27428039343542,-76.51859212000576C173.8063493244589,-59.88425617255637,88.87048718650578,-26.615584277657593,11.366694584707725,19.220030894252314C-66.13709801709034,65.05564606616223,-136.20882108273335,123.45820451508325,-171.24468261555486,152.6594837395438L-206.28054414837635,181.8607629640043" style="mix-blend-mode: multiply;"/><path d="M258.742211462412,-93.15292806745515L220.01719879613333,-82.02612930033597C181.29218612985468,-70.89933053321678,103.84216079729737,-48.64573299897841,76.24394689813788,-76.24394689813788C48.645732998978396,-103.84216079729737,70.89933053321677,-181.29218612985468,82.02612930033594,-220.01719879613333L93.15292806745512,-258.742211462412" style="mix-blend-mode: multiply;"/><path d="M258.742211462412,-93.15292806745515L220.01719879613333,-75.55757401377566C181.29218612985468,-57.96221996009618,103.84216079729735,-22.771511852737206,76.24394689813788,35.87767806890732C48.645732998978396,94.52686799055185,70.89933053321676,176.6345397264819,82.02612930033592,217.68837559444697L93.15292806745511,258.742211462412" style="mix-blend-mode: multiply;"/><path d="M258.742211462412,-93.15292806745515L218.74481271095908,-75.35604785579861C178.74741395950616,-57.55916764414207,98.75261645660034,-21.965407220828997,54.189254755117474,39.37079814050956C9.625893053634611,100.70700350184812,0.4939671535747057,187.78565380121213,-4.071995796455247,231.32497895089418L-8.637958746485198,274.8643041005762" style="mix-blend-mode: multiply;"/><path d="M264.0807635611593,-76.72255416078812L224.7335083862043,-61.73971220187794C185.38625321124928,-46.75687024296775,106.6917428613393,-16.79118632514737,80.88089392190686,38.05965971216646C55.07004498247443,92.91050574948027,82.14285745351954,172.64651390628754,95.6792636890421,212.5145179846912L109.21566992456466,252.38252206309483" style="mix-blend-mode: multiply;"/><path d="M264.0807635611593,-76.72255416078812L226.52309403793592,-63.52929785360956C188.96542451471257,-50.336041546431005,113.85008546826582,-23.94952893207388,111.90037855192173,7.040175082151575C109.95067163557765,38.02987909637704,181.1665968493363,73.62277451047082,216.77455945621557,91.41922221751774L252.38252206309485,109.21566992456462" style="mix-blend-mode: multiply;"/><path d="M264.0807635611593,-76.72255416078812L224.3273444391571,-61.59348418315213C184.5739253171549,-46.464414205516135,105.06708707315046,-16.206274250244146,73.84071883975525,40.59427870341377C42.61435060636004,97.39483165707168,59.66845238357402,180.73779760911552,68.19550327218103,222.40928058513745L76.72255416078801,264.08076356115936" style="mix-blend-mode: multiply;"/><path d="M264.0807635611593,-76.72255416078812L223.26033802781618,-61.45868992640942C182.43991249447308,-46.19482569203071,100.79906142778681,-15.667097223273302,55.34594104317939,42.930712486954086C9.892820658571976,101.52852219718147,0.6274309560433883,188.19641314887883,-4.005263895220906,231.53035862472748L-8.637958746485198,274.8643041005762" style="mix-blend-mode: multiply;"/><path d="M264.0807635611593,-76.72255416078812L220.9376329518185,-62.463814167337866C177.79450234247767,-48.2050741738876,91.50824112379604,-19.68759418698708,15.085719725886065,25.508558977527702C-61.33680167202391,70.7047121420425,-127.89558324916224,132.57953848417154,-161.1749740377314,163.51695165523608L-194.45436482630055,194.4543648263006" style="mix-blend-mode: multiply;"/><path d="M264.0807635611593,-76.72255416078812L220.78980571029254,-62.62123419061657C177.49884785942575,-48.51991422044501,90.91693215769224,-20.317274280101895,12.523380872769641,22.779945240696843C-65.87017041215297,65.87716476149558,-136.07535728026465,123.86896386274994,-171.17795071432053,152.8648634133771L-206.28054414837635,181.8607629640043" style="mix-blend-mode: multiply;"/><path d="M264.0807635611593,-76.72255416078812L226.76349118294306,-65.43223720124242C189.44621880472675,-54.14192024169671,114.81167404829421,-31.561286322605287,116.06726239871148,-25.944106943484517C117.32285074912875,-20.32692756436375,194.4685722063958,-31.673202725213628,233.04143293502935,-37.34634030563856L271.61429366366286,-43.019477886063505" style="mix-blend-mode: multiply;"/><path d="M264.0807635611593,-76.72255416078812L221.43615090078052,-62.051404253597816C178.7915382404018,-47.3802543464075,93.50231291964428,-18.037954532026884,23.726697507895086,32.65699748235524C-46.0489179038541,83.35194949673736,-100.31092340659495,155.39955371112097,-127.44192615796538,191.42335581831279L-154.57292890933581,227.4471579255046" style="mix-blend-mode: multiply;"/><path d="M264.0807635611593,-76.72255416078812L226.60259015542738,-66.05890532850981C189.12441674969548,-55.3952564962315,114.16806993823167,-34.06795883167487,113.27831125510711,-36.80635448278604C112.38855257198257,-39.54475013389722,185.5653820171973,-66.34883910067619,222.15379673980465,-79.75088358406566L258.742211462412,-93.15292806745515" style="mix-blend-mode: multiply;"/><path d="M264.0807635611593,-76.72255416078812L222.20390091130403,-68.12877137094678C180.3270382614488,-59.53498858110542,96.5733129617383,-42.34742300142271,37.034364356969185,-72.68403255169333C-22.504584247799926,-103.02064210196397,-57.82875615762765,-180.8814267821879,-75.49084211254151,-219.8118191222999L-93.15292806745538,-258.7422114624119" style="mix-blend-mode: multiply;"/><path d="M264.0807635611593,-76.72255416078812L224.53272411299042,-68.12877137094678C184.98468466482157,-59.53498858110542,105.88860576848383,-42.34742300142272,77.4006331861998,-72.68403255169336C48.91266060391576,-103.02064210196401,71.03279433568544,-180.88142678218802,82.09286120157027,-219.8118191223L93.15292806745512,-258.742211462412" style="mix-blend-mode: multiply;"/><path d="M264.0807635611593,-76.72255416078812L224.53272411299042,-61.66021608438647C184.98468466482154,-46.59787800798481,105.88860576848383,-16.47320185518151,77.40063318619978,39.437592415351844C48.912660603915754,95.3483866858852,71.03279433568544,177.0452990741486,82.09286120157027,217.8937552682803L93.15292806745511,258.742211462412" style="mix-blend-mode: multiply;"/><path d="M268.37710953315553,-59.98939138404924L225.07014353542738,-47.897937404939505C181.7631775376992,-35.806483425829775,95.14924554224284,-11.623575467610314,24.657572468494276,36.28251608398199C-45.834100605254285,84.18860763557429,-100.20351475729505,155.81788278053943,-127.38822183331543,191.632520353022L-154.57292890933581,227.44715792550457" style="mix-blend-mode: multiply;"/><path d="M268.37710953315553,-59.98939138404924L227.9613370738039,-47.440017334493824C187.54556461445227,-34.890643284938406,106.71401969574902,-9.791895185827572,74.77159380035444,44.21979730504052C42.82916790495985,98.23148979590862,59.77586103287393,181.15612667853398,68.24920759683097,222.61844511984668L76.72255416078801,264.08076356115936" style="mix-blend-mode: multiply;"/><path d="M268.37710953315553,-59.98939138404924L226.89433066246298,-47.305223077751116C185.41155179177045,-34.62105477145298,102.44599405038537,-9.252718158856732,56.27681600377858,46.55623108858084C10.107637957171788,102.36518033601841,0.7348396053432941,188.61474221829732,-3.9515595705709523,231.73952315943674L-8.637958746485198,274.8643041005762" style="mix-blend-mode: multiply;"/><path d="M268.37710953315553,-59.98939138404924L224.5716255864653,-48.310347318679554C180.76614163977504,-36.63130325330987,93.1551737463946,-13.27321512257051,16.016594686485245,29.134077579154464C-61.121984373424105,71.54137028087943,-127.78817459986232,132.99786755359003,-161.12126971308143,163.72611618994532L-194.45436482630055,194.4543648263006" style="mix-blend-mode: multiply;"/><path d="M268.37710953315553,-59.98939138404924L230.15708667258275,-49.37583100495126C191.93706381200994,-38.762270625853276,115.49701809086436,-17.53514986765731,112.83125351252092,10.665693683778333C110.16548893417747,38.866537235213976,181.27400549863617,74.0411035798893,216.82826378086554,91.62838675222696L252.38252206309485,109.21566992456462" style="mix-blend-mode: multiply;"/><path d="M268.37710953315553,-59.98939138404924L230.15708667258275,-52.10622275306537C191.93706381200994,-44.223054122081514,115.49701809086436,-28.456716860113776,112.8312535125209,-36.661096616866345C110.16548893417746,-44.86547637361891,181.27400549863614,-77.04057314909178,216.8282637808655,-93.1281215368282L252.38252206309483,-109.21566992456465" style="mix-blend-mode: multiply;"/><path d="M268.37710953315553,-59.98939138404924L225.8378935459509,-53.97530452228846C183.29867755874622,-47.96121766052769,98.22024558433685,-35.93304393700614,37.96523931756837,-69.05851395006658C-22.289766949200118,-102.183983963127,-57.721347508327746,-180.46309771276947,-75.43713778789156,-219.60265458759068L-93.15292806745538,-258.7422114624119" style="mix-blend-mode: multiply;"/><path d="M268.37710953315553,-59.98939138404924L227.32580247382646,-47.31878262568522C186.27449541449735,-34.64817386732122,104.17188129583919,-9.306956350593191,63.755660734078525,46.32119892438951C23.339440172317833,101.94935419937222,24.60961316745464,187.8644472326096,25.244699665023045,230.82199374922834L25.879786162591447,273.779540265847" style="mix-blend-mode: multiply;"/><path d="M268.37710953315553,-59.98939138404924L230.39748381758986,-51.278770352584104C192.41785810202416,-42.56814932111898,116.45860667089278,-25.14690725818872,116.99813735931066,-22.31858834185776C117.53766804772856,-19.490269425526808,194.5759808556957,-31.254873655795155,233.0951372596793,-37.137175770929325L271.61429366366286,-43.019477886063505" style="mix-blend-mode: multiply;"/><path d="M271.61429366366286,-43.019477886063505L231.1056192645719,-33.23252685284003C190.59694486548094,-23.44557581961655,109.57959606729901,-3.8716737531696004,82.5131587774493,45.36199290502345C55.4467214875996,94.5956595632165,82.33119570608214,173.48909081315568,95.7734328153234,212.93580643812524L109.21566992456466,252.38252206309483" style="mix-blend-mode: multiply;"/><path d="M271.61429366366286,-43.019477886063505L232.89520491630353,-35.02211250457166C194.1761161689442,-27.02474712307981,116.73793867422552,-11.030016360096113,113.53264340746416,14.342508275008575C110.32734814070284,39.71503291011326,181.35493510189883,74.46535141733894,216.86872858249686,91.84051067095179L252.38252206309485,109.21566992456462" style="mix-blend-mode: multiply;"/><path d="M271.61429366366286,-43.019477886063505L230.6994553175247,-33.086298834114224C189.78461697138653,-23.15311978216494,107.95494027911018,-3.286761678266373,75.47298369529769,47.89661189627077C42.99102711148521,99.07998547080791,59.856790636136616,181.58037451598364,68.2896723984623,222.8305690385715L76.72255416078801,264.08076356115936" style="mix-blend-mode: multiply;"/><path d="M271.61429366366286,-43.019477886063505L227.3097438301861,-33.956628818299954C183.0051939967093,-24.89377975053641,94.39609432975574,-6.7680816150093115,16.7179845814285,32.810892170384705C-60.960125166898735,72.38986595577872,-127.70724499659964,133.42211539103968,-161.0808049114501,163.93824010867013L-194.45436482630055,194.4543648263006" style="mix-blend-mode: multiply;"/><path d="M271.61429366366286,-43.019477886063505L229.63244890618378,-32.95150457737151C187.6506041487047,-22.88353126867952,103.6869146337465,-2.747584651295533,56.97820589872183,50.233045679811084C10.269497163697153,103.2136760109177,0.815769208605977,189.03899005574695,-3.9110947689396105,231.95164707816159L-8.637958746485198,274.8643041005762" style="mix-blend-mode: multiply;"/><path d="M271.61429366366286,-43.019477886063505L233.04143293502935,-37.34634030563856C194.4685722063958,-31.673202725213628,117.32285074912875,-20.32692756436375,116.06726239871148,-25.944106943484517C114.81167404829421,-31.561286322605287,189.44621880472675,-54.14192024169671,226.76349118294306,-65.43223720124242L264.0807635611593,-76.72255416078812" style="mix-blend-mode: multiply;"/><path d="M271.61429366366286,-43.019477886063505L227.80826177914813,-33.544218904559905C184.00222989463342,-24.06895992305631,96.39016612560397,-5.118441960049112,25.35896236343753,39.959330675212236C-45.672241398728914,85.0371033104736,-100.12258515403236,156.2421306179891,-127.34775703168408,191.84464427174683L-154.57292890933581,227.4471579255046" style="mix-blend-mode: multiply;"/><path d="M271.61429366366286,-43.019477886063505L232.974701033795,-37.551719979471905C194.33510840392714,-32.083962072880304,117.05592314419137,-21.1484462596971,114.91057611064956,-29.504021289929042C112.76522907710773,-37.85959632016098,185.7537202697599,-65.50626219380807,222.2479658660859,-79.3295951306316L258.742211462412,-93.15292806745515" style="mix-blend-mode: multiply;"/><path d="M271.61429366366286,-43.019477886063505L228.57601178967164,-39.62158602190886C185.53772991568042,-36.223694157754224,99.46116616769798,-29.42791042944494,38.66662921251162,-65.38169935883634C-22.12790774267475,-101.33548828822774,-57.64041790506506,-180.0388498753198,-75.39667298626021,-219.39053066886584L-93.15292806745538,-258.7422114624119" style="mix-blend-mode: multiply;"/><path d="M271.61429366366286,-43.019477886063505L227.16191658866015,-34.11404884157866C182.7095395136574,-25.208619797093817,93.80478536365194,-7.397761708124129,14.155645728312075,30.08227843355384C-65.4934939070278,67.5623185752318,-135.88701902770205,124.71154076961805,-171.08378158803922,153.28615186681117L-206.28054414837635,181.8607629640043" style="mix-blend-mode: multiply;"/><path d="M271.61429366366286,-43.019477886063505L230.90483499135803,-39.62158602190886C190.19537631905317,-36.223694157754224,108.77645897444353,-29.427910429444946,79.03289804174223,-65.38169935883637C49.289337109040936,-101.33548828822778,71.22113258824804,-180.0388498753199,82.18703032785157,-219.39053066886595L93.15292806745512,-258.742211462412" style="mix-blend-mode: multiply;"/><path d="M271.61429366366286,-43.019477886063505L230.90483499135803,-33.153030735348565C190.19537631905317,-23.28658358463362,108.77645897444353,-3.553689283203743,79.03289804174223,46.73992560820884C49.289337109040936,97.03354049962142,71.22113258824803,177.88787598101672,82.18703032785156,218.31504372171435L93.15292806745511,258.742211462412" style="mix-blend-mode: multiply;"/><path d="M271.61429366366286,-43.019477886063505L233.0951372596793,-37.137175770929325C194.5759808556957,-31.254873655795155,117.53766804772856,-19.490269425526808,116.99813735931066,-22.31858834185776C116.45860667089278,-25.14690725818872,192.41785810202416,-42.56814932111898,230.39748381758986,-51.278770352584104L268.37710953315553,-59.98939138404924" style="mix-blend-mode: multiply;"/><path d="M252.38252206309485,109.21566992456462L214.8387457857581,95.53303567031627C177.29496950842142,81.8504014160679,102.20741695374794,54.48513290757118,78.34627493065956,78.34627493065955C54.4851329075712,102.20741695374791,81.85040141606792,177.29496950842136,95.53303567031628,214.8387457857581L109.21566992456465,252.38252206309483" style="mix-blend-mode: multiply;"/><path d="M252.38252206309485,109.21566992456462L214.43258183871092,95.67926368904206C176.48264161432698,82.14285745351951,100.58276116555909,55.07004498247441,71.30609984850797,80.88089392190686C42.02943853145681,106.69174286133932,59.375996346122406,185.38625321124934,68.0492752534552,224.73350838620433L76.72255416078801,264.08076356115936" style="mix-blend-mode: multiply;"/><path d="M252.38252206309485,109.21566992456462L211.04287035137233,94.80893370485633C169.70321863964975,80.40219748514805,87.02391521620467,51.58872504573147,12.551100734638766,65.7951741960208C-61.92171374692713,80.00162334631013,-128.18803928661384,137.22799408630536,-161.3212020564572,165.84117945630297L-194.45436482630055,194.4543648263006" style="mix-blend-mode: multiply;"/><path d="M252.38252206309485,109.21566992456462L216.86872858249683,91.84051067095179C181.35493510189883,74.46535141733894,110.32734814070284,39.715032910113266,113.53264340746416,14.342508275008578C116.73793867422552,-11.030016360096113,194.1761161689442,-27.02474712307981,232.89520491630353,-35.02211250457166L271.61429366366286,-43.019477886063505" style="mix-blend-mode: multiply;"/><path d="M252.38252206309485,109.21566992456462L213.36557542737,95.81405794578478C174.34862879164515,82.41244596700494,96.31473552019543,55.609222009445254,52.81132205193209,83.21732770544718C9.307908583668748,110.82543340144912,0.3349749185917735,192.84486875101265,-4.151491913946714,233.85458642579442L-8.637958746485202,274.8643041005762" style="mix-blend-mode: multiply;"/><path d="M252.38252206309485,109.21566992456462L216.77455945621554,91.41922221751771C181.1665968493363,73.62277451047082,109.95067163557765,38.02987909637704,111.90037855192173,7.04017508215158C113.85008546826582,-23.949528932073875,188.96542451471257,-50.336041546431,226.52309403793595,-63.52929785360954L264.0807635611593,-76.7225541607881" style="mix-blend-mode: multiply;"/><path d="M252.38252206309485,109.21566992456462L210.89504310984637,94.65151368157763C169.40756415659786,80.08735743859064,86.43260625010087,50.95904495261666,9.988761881522342,63.06656045918993C-66.45508248705619,75.17407596576321,-136.36781331771627,128.51741946488374,-171.32417873304632,155.189091214444L-206.28054414837635,181.8607629640043" style="mix-blend-mode: multiply;"/><path d="M252.38252206309485,109.21566992456462L211.54138830033435,95.22134361859639C170.70025453757387,81.22701731262815,89.01798701205291,53.23836470069167,21.192078516647797,72.94361270084833C-46.63382997875732,92.64886070100499,-100.60337944404655,160.04800931325477,-127.58815417669119,193.7475836193797L-154.57292890933581,227.44715792550457" style="mix-blend-mode: multiply;"/><path d="M252.38252206309485,109.21566992456462L216.7078275549812,91.2138425436844C181.03313304686756,73.21201516280415,109.6837440306403,37.208360401043684,110.74369226385983,3.4802607357070534C111.80364049707934,-30.247838929629577,185.27292597974568,-61.70038349854236,222.00756872107885,-77.42665578299876L258.742211462412,-93.15292806745515" style="mix-blend-mode: multiply;"/><path d="M252.38252206309485,109.21566992456462L212.30913831085786,89.14397650124744C172.2357545586209,69.07228307793024,92.08898705414693,28.92889623129584,34.499745365721886,-32.397417333200245C-23.08949632270315,-93.72373089769633,-58.121212195079266,-176.23297118005408,-75.63707013126732,-217.487591321233L-93.15292806745538,-258.7422114624119" style="mix-blend-mode: multiply;"/><path d="M252.38252206309485,109.21566992456462L214.63796151254425,89.14397650124742C176.89340096199365,69.07228307793024,101.40427986089246,28.928896231295838,74.86601419495248,-32.397417333200266C48.327748529012545,-93.72373089769637,70.74033829823382,-176.2329711800542,81.94663318284448,-217.48759132123305L93.15292806745512,-258.742211462412" style="mix-blend-mode: multiply;"/><path d="M252.38252206309485,109.21566992456462L214.63796151254425,95.61253178780773C176.89340096199365,82.00939365105083,101.40427986089246,54.80311737753704,74.86601419495248,79.72420763384494C48.32774852901253,104.64529789015283,70.74033829823382,181.69375467628242,81.94663318284447,220.21798306934724L93.15292806745511,258.742211462412" style="mix-blend-mode: multiply;"/><path d="M252.38252206309485,109.21566992456462L216.62833143748972,91.01305827047052C180.87414081188464,72.81044661637641,109.36575956067445,36.405223308188205,109.36575956067445,-7.105427357601002e-15C109.36575956067442,-36.40522330818822,180.87414081188464,-72.81044661637644,216.62833143748972,-91.01305827047054L252.38252206309483,-109.21566992456465" style="mix-blend-mode: multiply;"/><path d="M252.38252206309485,109.21566992456462L216.8282637808655,91.62838675222696C181.27400549863617,74.0411035798893,110.16548893417747,38.866537235213976,112.83125351252092,10.665693683778334C115.49701809086436,-17.53514986765731,191.93706381200994,-38.762270625853276,230.15708667258275,-49.37583100495126L268.37710953315553,-59.98939138404924" style="mix-blend-mode: multiply;"/><path d="M252.38252206309485,109.21566992456462L213.79704723873343,95.80049839785067C175.21157241437206,82.38532687113671,98.04062276564927,55.554983817708795,60.290166782232035,82.98229554125585C22.5397107988148,110.40960726480291,24.209748480703123,192.09457376532495,25.044767321647285,232.93705701558596L25.879786162591447,273.779540265847" style="mix-blend-mode: multiply;"/><path d="M252.38252206309485,109.21566992456462L216.1897077667425,94.48512214145968C179.99689347039012,79.75457435835474,107.61126487768543,50.29347879214487,101.7629492677221,60.18244043047884C95.91463365775878,70.07140206881282,156.60363103053683,119.31042091169064,186.94812971692588,143.9299303331296L217.2926284033149,168.54943975456848" style="mix-blend-mode: multiply;"/><path d="M217.2926284033149,168.54943975456848L182.628936590294,139.33045681579236C147.96524477727309,110.11147387701624,78.63786115123128,51.67350799946399,26.896935072769566,-19.541767203366074C-24.843991005692146,-90.75704240619613,-58.99845953657376,-174.74962693430402,-76.07569380201457,-216.74591919835794L-93.15292806745538,-258.7422114624119" style="mix-blend-mode: multiply;"/><path d="M217.2926284033149,168.54943975456848L183.6853737068061,146.0005382603297C150.07811901029734,123.45163676609094,82.86360961727978,78.35383377761339,45.20851175897977,96.07297783528135C7.553413900679753,113.7921218929493,-0.5422724229027226,194.32821299676274,-4.590115584693961,234.59625854866945L-8.637958746485198,274.8643041005762" style="mix-blend-mode: multiply;"/><path d="M217.2926284033149,168.54943975456848L186.94812971692588,141.19953858501546C156.60363103053683,113.84963741546242,95.91463365775878,59.14983507635635,101.7629492677221,12.855650129834158C107.61126487768543,-33.438534816688026,179.99689347039012,-71.32710237062635,216.18970776674246,-90.27138614759549L252.38252206309483,-109.21566992456466" style="mix-blend-mode: multiply;"/><path d="M217.2926284033149,168.54943975456848L186.94812971692588,143.9299303331296C156.60363103053683,119.31042091169064,95.91463365775878,70.07140206881282,101.7629492677221,60.18244043047884C107.61126487768543,50.29347879214487,179.99689347039012,79.75457435835474,216.1897077667425,94.48512214145967L252.38252206309485,109.21566992456462" style="mix-blend-mode: multiply;"/><path d="M109.21566992456465,252.38252206309483L95.53303567031628,214.83874578575808C81.85040141606792,177.29496950842136,54.4851329075712,102.20741695374791,78.34627493065956,78.34627493065955C102.20741695374795,54.48513290757118,177.29496950842142,81.8504014160679,214.83874578575816,95.53303567031627L252.38252206309488,109.21566992456462" style="mix-blend-mode: multiply;"/><path d="M109.21566992456465,252.38252206309483L93.33728607153745,216.77455945621554C77.45890221851026,181.16659684933623,45.70213451245585,109.95067163557765,40.286615218493075,111.90037855192175C34.8710959245303,113.85008546826583,55.79682504265916,188.9654245147126,66.2596896017236,226.52309403793598L76.72255416078801,264.08076356115936" style="mix-blend-mode: multiply;"/><path d="M109.21566992456465,252.38252206309483L89.94757458419883,215.90422947202978C70.67947924383303,179.42593688096477,32.14328856310142,106.46935169883471,-18.46838389537611,96.81465882603568C-69.08005635385365,87.15996595323664,-131.7672105900771,140.80716538976864,-163.11078770818884,167.63076510803464L-194.45436482630055,194.4543648263006" style="mix-blend-mode: multiply;"/><path d="M109.21566992456465,252.38252206309483L95.77343281532337,212.93580643812524C82.33119570608213,173.48909081315568,55.446721487599596,94.5956595632165,82.5131587774493,45.36199290502345C109.57959606729901,-3.8716737531696004,190.59694486548094,-23.44557581961655,231.1056192645719,-33.23252685284003L271.61429366366286,-43.019477886063505" style="mix-blend-mode: multiply;"/><path d="M109.21566992456465,252.38252206309483L92.27027966019654,216.90935371295822C75.32488939582842,181.43618536282167,41.43410886709219,110.48984866254848,21.79183742191722,114.23681233546206C2.1495659767422413,117.98377600837561,-3.2441963848714788,196.4240400544759,-5.941077565678338,235.64417207752604L-8.637958746485198,274.8643041005762" style="mix-blend-mode: multiply;"/><path d="M109.21566992456465,252.38252206309483L95.67926368904209,212.5145179846912C82.14285745351954,172.64651390628754,55.07004498247442,92.91050574948027,80.88089392190686,38.05965971216646C106.6917428613393,-16.791186325147365,185.38625321124928,-46.75687024296773,224.7335083862043,-61.73971220187792L264.0807635611593,-76.7225541607881" style="mix-blend-mode: multiply;"/><path d="M109.21566992456465,252.38252206309483L89.79974734267289,215.74680944875107C70.38382476078114,179.11109683440736,31.55197959699763,105.8396716057199,-21.030722748492536,94.0860450892048C-73.6134250939827,82.33241857268972,-139.94698462117952,132.096590768347,-173.11376438477794,156.97867686617565L-206.28054414837635,181.8607629640043" style="mix-blend-mode: multiply;"/><path d="M109.21566992456465,252.38252206309483L95.61253178780775,212.30913831085783C82.00939365105084,172.23575455862087,54.803117377537056,92.08898705414693,79.72420763384494,34.499745365721935C104.64529789015283,-23.089496322703067,181.69375467628242,-58.1212121950791,220.21798306934724,-75.63707013126712L258.742211462412,-93.15292806745515" style="mix-blend-mode: multiply;"/><path d="M109.21566992456465,252.38252206309483L90.4460925331609,216.31663938576983C71.67651514175715,180.25075670844487,34.13736035894966,108.11899135379491,-9.827406113367084,103.9630973308632C-53.79217258568383,99.8072033079315,-104.18255074750982,163.62718061671805,-129.37773982842282,195.5371692711113L-154.57292890933581,227.44715792550457" style="mix-blend-mode: multiply;"/><path d="M109.21566992456465,252.38252206309483L91.21384254368441,210.23927226842088C73.21201516280416,168.09602247374696,37.208360401043684,83.80952288439909,3.480260735707008,-1.3779327031853654C-30.247838929629662,-86.56538829076982,-61.70038349854252,-172.65379987659085,-77.42665578299895,-215.69800566950138L-93.15292806745538,-258.7422114624119" style="mix-blend-mode: multiply;"/><path d="M109.21566992456465,252.38252206309483L93.5426657453708,210.23927226842088C77.86966156617693,168.09602247374696,46.52365320778921,83.80952288439909,43.84652956493761,-1.3779327031853892C41.169405922086035,-86.56538829076986,67.16116699477057,-172.65379987659094,80.15704753111284,-215.69800566950144L93.15292806745512,-258.742211462412" style="mix-blend-mode: multiply;"/><path d="M109.21566992456465,252.38252206309483L93.5426657453708,216.70782755498115C77.86966156617693,181.03313304686756,46.52365320778921,109.68374403064028,43.84652956493761,110.74369226385981C41.16940592208602,111.80364049707934,67.16116699477057,185.27292597974568,80.15704753111284,222.00756872107885L93.15292806745511,258.742211462412" style="mix-blend-mode: multiply;"/><path d="M93.15292806745511,258.742211462412L81.94663318284447,220.21798306934718C70.74033829823382,181.69375467628242,48.32774852901253,104.64529789015283,74.86601419495248,79.72420763384494C101.40427986089246,54.80311737753704,176.89340096199365,82.00939365105083,214.63796151254428,95.61253178780773L252.38252206309485,109.21566992456462" style="mix-blend-mode: multiply;"/><path d="M93.15292806745511,258.742211462412L80.15704753111284,222.0075687210788C67.16116699477057,185.27292597974568,41.16940592208602,111.80364049707934,43.84652956493761,110.74369226385981C46.52365320778921,109.68374403064028,77.86966156617693,181.03313304686756,93.5426657453708,216.7078275549812L109.21566992456465,252.38252206309483" style="mix-blend-mode: multiply;"/><path d="M93.15292806745511,258.742211462412L76.85969004568908,221.69587666935897C60.566452023923055,184.6495418763059,27.979975980391,110.55687229019982,-13.307666849074153,105.34103003404859C-54.59530967853931,100.12518777789735,-104.58411929393755,163.78617285170097,-129.5785241016367,195.61666538860277L-154.57292890933581,227.44715792550457" style="mix-blend-mode: multiply;"/><path d="M93.15292806745511,258.742211462412L82.09286120157027,217.89375526828027C71.03279433568544,177.0452990741486,48.91266060391576,95.3483866858852,77.4006331861998,39.43759241535185C105.88860576848383,-16.473201855181504,184.98468466482157,-46.597878007984804,224.53272411299042,-61.660216084386455L264.0807635611593,-76.7225541607881" style="mix-blend-mode: multiply;"/><path d="M93.15292806745511,258.742211462412L82.02612930033592,217.68837559444694C70.89933053321676,176.6345397264819,48.645732998978396,94.52686799055185,76.24394689813788,35.87767806890732C103.84216079729737,-22.771511852737206,181.29218612985468,-57.96221996009618,220.01719879613333,-75.55757401377566L258.742211462412,-93.15292806745515" style="mix-blend-mode: multiply;"/><path d="M93.15292806745511,258.742211462412L77.62744005621259,215.61850955200998C62.10195204497006,172.494807641608,31.05097602248502,86.247403820804,-5.684341886080802e-14,2.842170943040401e-14C-31.05097602248514,-86.24740382080397,-62.10195204497026,-172.49480764160793,-77.62744005621282,-215.6185095520099L-93.15292806745538,-258.7422114624119" style="mix-blend-mode: multiply;"/><path d="M93.15292806745511,258.742211462412L82.18703032785156,218.31504372171435C71.22113258824803,177.88787598101672,49.289337109040936,97.03354049962142,79.03289804174223,46.73992560820884C108.77645897444353,-3.553689283203743,190.19537631905317,-23.28658358463362,230.90483499135803,-33.153030735348565L271.61429366366286,-43.019477886063505" style="mix-blend-mode: multiply;"/><path d="M93.15292806745511,258.742211462412L76.21334485520107,221.1260467323402C59.27376164294704,183.50988200226843,25.394595218438976,108.27755254212481,-24.510983484199603,95.4639777923902C-74.41656218683818,82.65040304265558,-140.34855316760726,132.25558300332995,-173.31454865799182,157.0581729836671L-206.28054414837635,181.8607629640043" style="mix-blend-mode: multiply;"/><path d="M93.15292806745511,258.742211462412L79.95626325789897,215.61850955200998C66.75959844834283,172.494807641608,40.36626882923055,86.247403820804,40.36626882923055,0C40.366268829230556,-86.247403820804,66.75959844834284,-172.494807641608,79.95626325789898,-215.61850955200998L93.15292806745512,-258.742211462412" style="mix-blend-mode: multiply;"/><path d="M93.15292806745511,258.742211462412L78.6838771727247,222.28859099654733C64.21482627799432,185.83497053068268,35.27672448853353,112.92772959895342,18.31157668621015,115.61474503864746C1.3464288838867635,118.30176047834148,-3.6457649312992175,196.58303228945883,-6.141861838892208,235.7236681950175L-8.637958746485198,274.8643041005762" style="mix-blend-mode: multiply;"/><path d="M76.72255416078801,264.08076356115936L62.96233211629983,226.2114019862161C49.20211007181164,188.34204041127282,21.68166598283528,112.60331726138632,-16.867581195518692,106.49771632211052C-55.41682837387267,100.39211538283473,-104.99487864160425,163.91963665416964,-129.78390377547,195.6833972898371L-154.57292890933581,227.44715792550457" style="mix-blend-mode: multiply;"/><path d="M76.72255416078801,264.08076356115936L68.24920759683097,222.61844511984668C59.77586103287393,181.15612667853398,42.82916790495985,98.23148979590862,74.77159380035444,44.21979730504054C106.71401969574902,-9.791895185827576,187.54556461445227,-34.89064328493841,227.9613370738039,-47.440017334493824L268.37710953315553,-59.98939138404924" style="mix-blend-mode: multiply;"/><path d="M76.72255416078801,264.08076356115936L64.78651924333546,226.80411631340448C52.85048432588291,189.52746906564963,28.978414490977812,114.9741745701399,14.751662339765609,116.77143132670938C0.5249101885534083,118.56868808327884,-4.056524278965895,196.71649609192752,-6.347241512725547,235.79040009625183L-8.637958746485198,274.8643041005762" style="mix-blend-mode: multiply;"/><path d="M76.72255416078801,264.08076356115936L62.46381416733777,225.79899207247604C48.20507417388752,187.51722058379275,19.687594186987038,110.95367760642613,-25.508558977527723,99.349277817283C-70.70471214204248,87.74487802813987,-132.5795384841715,141.09962142722023,-163.51695165523603,167.77699312676043L-194.45436482630055,194.4543648263006" style="mix-blend-mode: multiply;"/><path d="M76.72255416078801,264.08076356115936L66.2596896017236,226.52309403793598C55.79682504265916,188.9654245147126,34.8710959245303,113.85008546826583,40.286615218493075,111.90037855192175C45.70213451245585,109.95067163557765,77.45890221851026,181.16659684933623,93.33728607153745,216.77455945621554L109.21566992456465,252.38252206309483" style="mix-blend-mode: multiply;"/><path d="M76.72255416078801,264.08076356115936L68.0492752534552,224.73350838620433C59.375996346122406,185.38625321124934,42.02943853145681,106.69174286133932,71.30609984850796,80.88089392190686C100.58276116555909,55.07004498247441,176.48264161432698,82.14285745351951,214.43258183871092,95.67926368904206L252.38252206309485,109.21566992456462" style="mix-blend-mode: multiply;"/><path d="M76.72255416078801,264.08076356115936L68.28967239846232,222.8305690385715C59.856790636136616,181.58037451598364,42.99102711148521,99.07998547080791,75.47298369529769,47.89661189627077C107.95494027911018,-3.286761678266373,189.78461697138653,-23.15311978216494,230.6994553175247,-33.086298834114224L271.61429366366286,-43.019477886063505" style="mix-blend-mode: multiply;"/><path d="M76.72255416078801,264.08076356115936L68.19550327218103,222.40928058513745C59.66845238357402,180.73779760911552,42.61435060636004,97.39483165707168,73.84071883975525,40.59427870341378C105.06708707315046,-16.20627425024414,184.5739253171549,-46.46441420551613,224.3273444391571,-61.59348418315211L264.0807635611593,-76.7225541607881" style="mix-blend-mode: multiply;"/><path d="M76.72255416078801,264.08076356115936L62.31598692581182,225.64157204919732C47.90941969083563,187.2023805372353,19.096285220883253,110.32399751331131,-28.07089783064414,96.62066408045213C-75.23808088217153,82.91733064759295,-140.75931251527393,132.38904680579864,-173.51992833182513,157.12490488490144L-206.28054414837635,181.8607629640043" style="mix-blend-mode: multiply;"/><path d="M25.879786162591447,273.779540265847L25.044767321647285,232.937057015586C24.209748480703123,192.09457376532495,22.5397107988148,110.40960726480291,60.290166782232035,82.98229554125585C98.04062276564927,55.554983817708795,175.21157241437206,82.38532687113671,213.79704723873348,95.80049839785067L252.38252206309485,109.21566992456462" style="mix-blend-mode: multiply;"/><path d="M25.879786162591447,273.779540265847L25.044767321647285,230.2066652674719C24.209748480703123,186.63379026909672,22.5397107988148,99.48804027234645,60.29016678223203,35.655505240611184C98.04062276564925,-28.177029791124095,175.21157241437206,-68.69634985784437,213.79704723873343,-88.95600989120452L252.38252206309483,-109.21566992456465" style="mix-blend-mode: multiply;"/><path d="M25.879786162591447,273.779540265847L25.244699665023045,230.82199374922834C24.60961316745464,187.8644472326096,23.339440172317836,101.94935419937222,63.75566073407851,46.32119892438953C104.17188129583919,-9.306956350593188,186.27449541449735,-34.64817386732121,227.32580247382646,-47.31878262568522L268.37710953315553,-59.989391384049235" style="mix-blend-mode: multiply;"/><path d="M25.879786162591447,273.779540265847L20.725574195015408,228.3375834982488C15.571362227439366,182.89562673065055,5.262938292287285,92.01171319545409,-14.575847412720519,3.258087907410944C-34.41463311772832,-85.4955373806322,-63.78378059259185,-172.11887442152204,-78.46835433002362,-215.430542941967L-93.15292806745538,-258.7422114624119" style="mix-blend-mode: multiply;"/><path d="M-8.637958746485198,274.8643041005762L-9.238435051102094,235.33248002580618C-9.838911355718992,195.80065595103613,-11.039863964952785,116.73700780149609,-35.362358992094556,108.83415010565083C-59.684854019236326,100.93129240980556,-107.12889146428607,164.18922516765505,-130.85091018681095,195.8181915465798L-154.57292890933581,227.44715792550457" style="mix-blend-mode: multiply;"/><path d="M-8.637958746485198,274.8643041005762L-6.347241512725546,235.79040009625183C-4.056524278965895,196.71649609192752,0.5249101885534083,118.56868808327884,14.751662339765609,116.77143132670938C28.978414490977812,114.9741745701399,52.85048432588291,189.52746906564963,64.78651924333546,226.80411631340448L76.72255416078801,264.08076356115936" style="mix-blend-mode: multiply;"/><path d="M-8.637958746485198,274.8643041005762L-3.951559570570952,231.73952315943674C0.7348396053432941,188.61474221829732,10.107637957171788,102.36518033601841,56.27681600377858,46.55623108858085C102.44599405038537,-9.252718158856728,185.41155179177045,-34.62105477145298,226.89433066246298,-47.3052230777511L268.37710953315553,-59.989391384049235" style="mix-blend-mode: multiply;"/><path d="M-8.637958746485198,274.8643041005762L-9.736953000064153,234.92007011206613C-10.835947253643111,194.97583612355606,-13.033935760801022,115.0873681465359,-44.00333677410358,101.68571160082331C-74.97273778740613,88.28405505511073,-134.71355130685336,141.36920994070564,-164.58395806657694,167.91178738350314L-194.45436482630055,194.4543648263006" style="mix-blend-mode: multiply;"/><path d="M-8.637958746485198,274.8643041005762L-5.941077565678338,235.64417207752604C-3.2441963848714788,196.4240400544759,2.1495659767422413,117.98377600837561,21.79183742191722,114.23681233546206C41.43410886709219,110.48984866254848,75.32488939582842,181.43618536282167,92.27027966019654,216.90935371295822L109.21566992456465,252.38252206309483" style="mix-blend-mode: multiply;"/><path d="M-8.637958746485198,274.8643041005762L-4.15149191394671,233.85458642579442C0.334974918591777,192.84486875101265,9.307908583668754,110.82543340144912,52.8113220519321,83.21732770544718C96.31473552019544,55.609222009445254,174.34862879164515,82.41244596700494,213.36557542737003,95.81405794578478L252.38252206309488,109.21566992456462" style="mix-blend-mode: multiply;"/><path d="M-8.637958746485198,274.8643041005762L-3.9110947689396105,231.95164707816159C0.815769208605977,189.03899005574695,10.269497163697153,103.2136760109177,56.97820589872183,50.233045679811084C103.6869146337465,-2.747584651295533,187.6506041487047,-22.88353126867952,229.63244890618378,-32.95150457737151L271.61429366366286,-43.019477886063505" style="mix-blend-mode: multiply;"/><path d="M-8.637958746485198,274.8643041005762L-4.005263895220905,231.53035862472748C0.6274309560433883,188.19641314887883,9.892820658571976,101.52852219718147,55.34594104317939,42.93071248695409C100.79906142778681,-15.667097223273297,182.43991249447308,-46.1948256920307,223.26033802781618,-61.4586899264094L264.0807635611593,-76.7225541607881" style="mix-blend-mode: multiply;"/><path d="M-8.637958746485198,274.8643041005762L-9.884780241590102,234.7626500887874C-11.131601736695004,194.66099607699866,-13.62524472690481,114.45768805342108,-46.56567562722,98.95709786399243C-79.5061065275352,83.4565076745638,-142.89332533795576,132.65863531928406,-174.58693474316604,157.25969914164418L-206.28054414837635,181.8607629640043" style="mix-blend-mode: multiply;"/><path d="M-8.637958746485198,274.8643041005762L-10.607282984249888,233.44842247874723C-12.576607222014578,192.03254085691825,-16.51525569754396,109.20077761326029,-59.089056499989645,76.17715262329561C-101.66285730243533,43.15352763333093,-182.87181043179734,59.93804089705953,-223.4762869964783,68.33029752892384L-264.0807635611593,76.72255416078814" style="mix-blend-mode: multiply;"/><path d="M-8.637958746485198,274.8643041005762L-10.265074157561454,234.2392204183793C-11.89218956863771,193.61413673618233,-15.14642039079022,112.36396937178847,-53.157436837390115,89.88431691025113C-91.16845328399,67.40466444871377,-163.93625535503728,103.69552689003291,-200.3201563905609,121.84095811069248L-236.70405742608455,139.98638933135206" style="mix-blend-mode: multiply;"/><path d="M-8.637958746485198,274.8643041005762L-4.151491913946711,231.1241946776803C0.33497491859177586,187.38408525478442,9.30790858366875,99.90386640899264,52.81132205193209,35.89053740480251C96.31473552019543,-28.122791599387636,174.3486287916451,-68.66923076197615,213.36557542737,-88.94245034327041L252.38252206309483,-109.21566992456465" style="mix-blend-mode: multiply;"/><path d="M-8.637958746485198,274.8643041005762L-8.470685040578589,229.25511290845722C-8.30341133467198,183.64592171633822,-7.968863922858762,92.42753933210027,-22.054692143020457,3.493120071602268C-36.140520363182155,-85.44129918889575,-64.64672421531877,-172.09175532565382,-78.89982614138707,-215.41698339403285L-93.15292806745538,-258.7422114624119" style="mix-blend-mode: multiply;"/><path d="M-8.637958746485198,274.8643041005762L-4.590115584693961,234.59625854866945C-0.5422724229027226,194.32821299676274,7.553413900679753,113.7921218929493,45.20851175897977,96.07297783528134C82.86360961727978,78.35383377761339,150.07811901029734,123.45163676609094,183.6853737068061,146.0005382603297L217.2926284033149,168.54943975456848" style="mix-blend-mode: multiply;"/><path d="M-8.637958746485198,274.8643041005762L-4.071995796455246,231.32497895089418C0.4939671535747057,187.78565380121213,9.625893053634611,100.70700350184812,54.189254755117474,39.37079814050956C98.75261645660034,-21.965407220828997,178.74741395950616,-57.55916764414207,218.7448127109591,-75.35604785579861L258.742211462412,-93.15292806745515" style="mix-blend-mode: multiply;"/><path d="M-8.637958746485198,274.8643041005762L-6.141861838892208,235.7236681950175C-3.6457649312992175,196.58303228945883,1.3464288838867635,118.30176047834148,18.31157668621015,115.61474503864746C35.27672448853353,112.92772959895342,64.21482627799432,185.83497053068268,78.6838771727247,222.28859099654733L93.15292806745511,258.742211462412" style="mix-blend-mode: multiply;"/><path d="M-154.57292890933581,227.44715792550457L-129.78390377547,195.6833972898371C-104.99487864160425,163.91963665416964,-55.41682837387267,100.39211538283473,-16.867581195518692,106.49771632211052C21.68166598283528,112.60331726138632,49.20211007181164,188.34204041127282,62.96233211629982,226.2114019862161L76.72255416078801,264.08076356115936" style="mix-blend-mode: multiply;"/><path d="M-154.57292890933581,227.44715792550457L-127.38822183331543,191.632520353022C-100.20351475729505,155.81788278053943,-45.834100605254285,84.18860763557429,24.657572468494276,36.28251608398198C95.14924554224284,-11.623575467610314,181.7631775376992,-35.806483425829775,225.07014353542738,-47.89793740493951L268.37710953315553,-59.98939138404924" style="mix-blend-mode: multiply;"/><path d="M-154.57292890933581,227.44715792550457L-130.85091018681095,195.8181915465798C-107.12889146428607,164.18922516765505,-59.684854019236326,100.93129240980556,-35.362358992094556,108.83415010565083C-11.039863964952785,116.73700780149609,-9.838911355718992,195.80065595103613,-9.238435051102094,235.33248002580618L-8.637958746485198,274.8643041005762" style="mix-blend-mode: multiply;"/><path d="M-154.57292890933581,227.44715792550457L-133.17361526280862,194.81306730565134C-111.77430161628145,162.17897668579818,-68.9756743232271,96.9107954460918,-75.62258030938789,91.41199659622445C-82.26948629554867,85.91319774635713,-138.36192556092462,140.18378128632887,-166.40814519361257,167.31907305631475L-194.45436482630055,194.4543648263006" style="mix-blend-mode: multiply;"/><path d="M-154.57292890933581,227.44715792550457L-127.58815417669119,193.74758361937964C-100.60337944404658,160.04800931325477,-46.63382997875732,92.64886070100499,21.192078516647793,72.94361270084833C89.0179870120529,53.23836470069167,170.70025453757387,81.22701731262815,211.54138830033438,95.22134361859639L252.38252206309485,109.21566992456462" style="mix-blend-mode: multiply;"/><path d="M-154.57292890933581,227.44715792550457L-129.37773982842282,195.5371692711113C-104.18255074750982,163.62718061671805,-53.79217258568383,99.8072033079315,-9.827406113367083,103.9630973308632C34.137360358949664,108.11899135379491,71.67651514175716,180.25075670844487,90.44609253316092,216.3166393857699L109.21566992456466,252.38252206309483" style="mix-blend-mode: multiply;"/><path d="M-154.57292890933581,227.44715792550457L-127.44192615796538,191.42335581831276C-100.31092340659495,155.39955371112094,-46.0489179038541,83.35194949673735,23.726697507895086,32.65699748235523C93.50231291964428,-18.037954532026884,178.7915382404018,-47.380254346407504,221.43615090078052,-62.05140425359781L264.0807635611593,-76.72255416078812" style="mix-blend-mode: multiply;"/><path d="M-154.57292890933581,227.44715792550457L-127.50865805919972,191.2179761444794C-100.44438720906363,154.98879436345428,-46.31584550879146,82.530430801404,22.570011219833173,29.097083135910708C91.45586794845781,-24.336264529582582,175.09903970543493,-58.74459629851887,216.92062558392345,-75.94876218298701L258.742211462412,-93.15292806745516" style="mix-blend-mode: multiply;"/><path d="M-154.57292890933581,227.44715792550457L-131.90734730332306,189.14811010204244C-109.24176569731033,150.84906227858036,-63.910602485284834,74.25096663165615,-53.67393567830476,-6.780594932996588C-43.43726887132468,-87.81215649764933,-68.29509846939003,-173.2771839800306,-80.72401326842271,-216.00969772122127L-93.15292806745538,-258.7422114624119" style="mix-blend-mode: multiply;"/><path d="M-154.57292890933581,227.44715792550457L-127.34775703168408,191.8446442717468C-100.12258515403236,156.2421306179891,-45.672241398728914,85.03710331047357,25.358962363437527,39.959330675212236C96.39016612560397,-5.118441960049117,184.00222989463342,-24.068959923056315,227.80826177914813,-33.54421890455992L271.61429366366286,-43.01947788606351" style="mix-blend-mode: multiply;"/><path d="M-154.57292890933581,227.44715792550457L-133.32144250433458,194.65564728237266C-112.06995609933335,161.86413663924077,-69.56698328933088,96.28111535297698,-78.1849191625043,88.68338285939359C-86.80285503567772,81.08565036581021,-146.54169959202704,131.47320666490725,-176.4111218702017,156.6669848144558L-206.28054414837635,181.8607629640043" style="mix-blend-mode: multiply;"/><path d="M-154.57292890933581,227.44715792550457L-129.5785241016367,189.14811010204244C-104.58411929393755,150.84906227858036,-54.59530967853931,74.25096663165614,-13.307666849074153,-6.780594932996611C27.979975980391004,-87.81215649764937,60.56645202392306,-173.27718398003069,76.85969004568909,-216.0096977212214L93.15292806745512,-258.742211462412" style="mix-blend-mode: multiply;"/><path d="M-154.57292890933581,227.44715792550457L-129.5785241016367,195.61666538860277C-104.58411929393755,163.78617285170097,-54.59530967853931,100.12518777789735,-13.307666849074154,105.34103003404859C27.979975980391,110.55687229019982,60.566452023923055,184.6495418763059,76.85969004568908,221.695876669359L93.15292806745511,258.742211462412" style="mix-blend-mode: multiply;"/><path d="M-194.45436482630055,194.4543648263006L-166.40814519361257,167.31907305631475C-138.36192556092462,140.18378128632887,-82.26948629554867,85.91319774635713,-75.62258030938789,91.41199659622445C-68.9756743232271,96.9107954460918,-111.77430161628145,162.17897668579818,-133.17361526280862,194.81306730565134L-154.57292890933581,227.44715792550457" style="mix-blend-mode: multiply;"/><path d="M-194.45436482630055,194.4543648263006L-163.51695165523603,167.77699312676043C-132.5795384841715,141.09962142722023,-70.70471214204248,87.74487802813987,-25.508558977527713,99.349277817283C19.687594186987045,110.95367760642613,48.20507417388754,187.51722058379275,62.46381416733778,225.79899207247604L76.72255416078802,264.08076356115936" style="mix-blend-mode: multiply;"/><path d="M-194.45436482630055,194.4543648263006L-161.12126971308143,163.72611618994532C-127.78817459986232,132.99786755359003,-61.121984373424105,71.54137028087943,16.01659468648525,29.134077579154464C93.1551737463946,-13.27321512257051,180.76614163977504,-36.63130325330987,224.5716255864653,-48.31034731867956L268.37710953315553,-59.98939138404924" style="mix-blend-mode: multiply;"/><path d="M-194.45436482630055,194.4543648263006L-164.58395806657694,167.91178738350314C-134.71355130685336,141.36920994070564,-74.97273778740613,88.28405505511073,-44.00333677410358,101.68571160082331C-13.033935760801022,115.0873681465359,-10.835947253643111,194.97583612355606,-9.736953000064153,234.92007011206613L-8.637958746485198,274.8643041005762" style="mix-blend-mode: multiply;"/><path d="M-194.45436482630055,194.4543648263006L-163.11078770818884,167.63076510803464C-131.7672105900771,140.80716538976864,-69.08005635385364,87.15996595323664,-18.46838389537611,96.81465882603568C32.14328856310143,106.46935169883471,70.67947924383304,179.42593688096477,89.94757458419885,215.90422947202978L109.21566992456466,252.38252206309483" style="mix-blend-mode: multiply;"/><path d="M-194.45436482630055,194.4543648263006L-161.3212020564572,165.841179456303C-128.18803928661384,137.22799408630536,-61.92171374692714,80.00162334631013,12.551100734638766,65.7951741960208C87.02391521620467,51.58872504573147,169.70321863964975,80.40219748514805,211.04287035137233,94.80893370485633L252.38252206309485,109.21566992456462" style="mix-blend-mode: multiply;"/><path d="M-194.45436482630055,194.4543648263006L-161.0808049114501,163.93824010867016C-127.70724499659964,133.42211539103968,-60.960125166898735,72.38986595577872,16.7179845814285,32.81089217038471C94.39609432975574,-6.7680816150093115,183.0051939967093,-24.89377975053641,227.3097438301861,-33.956628818299954L271.61429366366286,-43.019477886063505" style="mix-blend-mode: multiply;"/><path d="M-194.45436482630055,194.4543648263006L-161.1749740377314,163.51695165523608C-127.89558324916224,132.57953848417154,-61.33680167202391,70.7047121420425,15.085719725886065,25.508558977527713C91.50824112379604,-19.687594186987074,177.79450234247767,-48.205074173887596,220.9376329518185,-62.46381416733785L264.0807635611593,-76.7225541607881" style="mix-blend-mode: multiply;"/><path d="M-194.45436482630055,194.4543648263006L-167.0544903841006,166.74924311929598C-139.65461594190063,139.04412141229136,-84.8548670575007,83.63387799828212,-86.82589694451333,81.53494435456606C-88.79692683152597,79.43601071085001,-147.53873548995116,130.64838683742715,-176.90963981916377,156.2545749007157L-206.28054414837635,181.8607629640043" style="mix-blend-mode: multiply;"/><path d="M-206.28054414837635,181.8607629640043L-171.17795071432047,152.8648634133771C-136.07535728026465,123.86896386274994,-65.87017041215297,65.87716476149558,12.523380872769641,22.779945240696836C90.91693215769224,-20.3172742801019,177.49884785942575,-48.51991422044501,220.78980571029254,-62.621234190616555L264.0807635611593,-76.72255416078812" style="mix-blend-mode: multiply;"/><path d="M-206.28054414837635,181.8607629640043L-173.11376438477794,156.97867686617565C-139.94698462117952,132.096590768347,-73.6134250939827,82.33241857268972,-21.03072274849253,94.0860450892048C31.551979596997636,105.8396716057199,70.38382476078115,179.11109683440736,89.7997473426729,215.74680944875112L109.21566992456466,252.38252206309483" style="mix-blend-mode: multiply;"/><path d="M-206.28054414837635,181.8607629640043L-171.3241787330463,155.189091214444C-136.36781331771627,128.51741946488374,-66.45508248705619,75.17407596576321,9.98876188152235,63.06656045918993C86.43260625010089,50.95904495261666,169.40756415659789,80.08735743859064,210.89504310984637,94.65151368157763L252.38252206309488,109.21566992456462" style="mix-blend-mode: multiply;"/><path d="M-206.28054414837635,181.8607629640043L-173.51992833182513,157.12490488490144C-140.75931251527393,132.38904680579864,-75.23808088217153,82.91733064759295,-28.070897830644142,96.62066408045212C19.09628522088325,110.32399751331131,47.90941969083563,187.2023805372353,62.31598692581182,225.64157204919732L76.72255416078801,264.08076356115936" style="mix-blend-mode: multiply;"/><path d="M-206.28054414837635,181.8607629640043L-174.58693474316604,157.25969914164418C-142.89332533795576,132.65863531928406,-79.5061065275352,83.4565076745638,-46.56567562722,98.95709786399243C-13.62524472690481,114.45768805342108,-11.131601736695004,194.66099607699866,-9.884780241590102,234.7626500887874L-8.637958746485198,274.8643041005762" style="mix-blend-mode: multiply;"/><path d="M-206.28054414837635,181.8607629640043L-176.90963981916374,156.2545749007157C-147.53873548995116,130.64838683742715,-88.79692683152597,79.43601071085001,-86.82589694451333,81.53494435456606C-84.8548670575007,83.63387799828212,-139.65461594190063,139.04412141229136,-167.0544903841006,166.74924311929598L-194.45436482630055,194.4543648263006" style="mix-blend-mode: multiply;"/><path d="M-206.28054414837635,181.8607629640043L-176.41112187020167,156.66698481445576C-146.54169959202704,131.47320666490725,-86.80285503567772,81.08565036581021,-78.1849191625043,88.68338285939359C-69.56698328933088,96.28111535297698,-112.06995609933335,161.86413663924077,-133.32144250433458,194.65564728237268L-154.57292890933581,227.44715792550457" style="mix-blend-mode: multiply;"/><path d="M-206.28054414837635,181.8607629640043L-171.24468261555486,152.6594837395438C-136.20882108273335,123.45820451508325,-66.13709801709034,65.05564606616223,11.366694584707725,19.220030894252318C88.87048718650578,-26.61558427765759,173.8063493244589,-59.88425617255637,216.27428039343545,-76.51859212000576L258.742211462412,-93.15292806745515" style="mix-blend-mode: multiply;"/><path d="M-206.28054414837635,181.8607629640043L-175.64337185967818,150.58961769710683C-145.00619957098004,119.31847243020934,-83.7318549935837,56.776181896414386,-64.87725231343022,-16.65764717465498C-46.02264963327671,-90.09147624572434,-69.58778885036604,-174.4168438540681,-81.37035845891072,-216.57952765823998L-93.15292806745538,-258.7422114624119" style="mix-blend-mode: multiply;"/><path d="M-206.28054414837635,181.8607629640043L-171.0837815880392,153.28615186681117C-135.88701902770205,124.71154076961805,-65.4934939070278,67.5623185752318,14.155645728312075,30.08227843355384C93.80478536365194,-7.397761708124128,182.7095395136574,-25.208619797093817,227.16191658866015,-34.11404884157866L271.61429366366286,-43.019477886063505" style="mix-blend-mode: multiply;"/><path d="M-206.28054414837635,181.8607629640043L-173.31454865799182,150.5896176971068C-140.34855316760726,119.31847243020934,-74.41656218683818,56.77618189641438,-24.5109834841996,-16.657647174655C25.39459521843898,-90.09147624572438,59.27376164294705,-174.41684385406822,76.21334485520107,-216.57952765824007L93.15292806745512,-258.742211462412" style="mix-blend-mode: multiply;"/><path d="M-206.28054414837635,181.8607629640043L-173.31454865799182,157.0581729836671C-140.34855316760726,132.25558300332995,-74.41656218683818,82.65040304265558,-24.510983484199603,95.46397779239021C25.39459521843897,108.27755254212481,59.27376164294704,183.50988200226843,76.21334485520107,221.12604673234023L93.15292806745511,258.742211462412" style="mix-blend-mode: multiply;"/><path d="M-236.70405742608455,139.98638933135206L-200.3201563905609,121.84095811069248C-163.93625535503728,103.69552689003291,-91.16845328399,67.40466444871377,-53.157436837390115,89.88431691025112C-15.14642039079022,112.36396937178847,-11.89218956863771,193.61413673618233,-10.265074157561454,234.2392204183793L-8.637958746485198,274.8643041005762" style="mix-blend-mode: multiply;"/><path d="M-264.0807635611593,76.72255416078814L-223.4762869964783,68.33029752892384C-182.87181043179734,59.93804089705953,-101.66285730243533,43.15352763333093,-59.089056499989645,76.17715262329561C-16.51525569754396,109.20077761326029,-12.576607222014578,192.03254085691825,-10.607282984249888,233.44842247874723L-8.637958746485198,274.8643041005762" style="mix-blend-mode: multiply;"/><path d="M-93.15292806745538,-258.7422114624119L-75.63707013126732,-217.487591321233C-58.121212195079266,-176.23297118005408,-23.08949632270315,-93.72373089769633,34.499745365721886,-32.397417333200245C92.08898705414693,28.92889623129584,172.2357545586209,69.07228307793024,212.30913831085786,89.14397650124742L252.38252206309485,109.21566992456462" style="mix-blend-mode: multiply;"/><path d="M-93.15292806745538,-258.7422114624119L-77.42665578299895,-215.69800566950138C-61.70038349854252,-172.65379987659085,-30.247838929629662,-86.56538829076982,3.480260735707013,-1.3779327031853654C37.208360401043684,83.80952288439909,73.21201516280418,168.09602247374696,91.21384254368441,210.23927226842088L109.21566992456466,252.38252206309483" style="mix-blend-mode: multiply;"/><path d="M-93.15292806745538,-258.7422114624119L-80.72401326842271,-216.00969772122127C-68.29509846939003,-173.2771839800306,-43.43726887132468,-87.81215649764933,-53.67393567830476,-6.780594932996583C-63.910602485284834,74.25096663165617,-109.24176569731033,150.8490622785804,-131.90734730332306,189.14811010204252L-154.57292890933581,227.4471579255046" style="mix-blend-mode: multiply;"/><path d="M-93.15292806745538,-258.7422114624119L-75.49084211254151,-219.8118191222999C-57.82875615762765,-180.8814267821879,-22.504584247799926,-103.02064210196397,37.034364356969185,-72.68403255169333C96.5733129617383,-42.347423001422705,180.3270382614488,-59.53498858110541,222.20390091130403,-68.12877137094675L264.0807635611593,-76.7225541607881" style="mix-blend-mode: multiply;"/><path d="M-93.15292806745538,-258.7422114624119L-75.55757401377586,-220.01719879613324C-57.96221996009634,-181.2921861298546,-22.77151185273729,-103.84216079729731,35.87767806890727,-76.24394689813786C94.52686799055182,-48.64573299897841,176.6345397264819,-70.89933053321677,217.68837559444697,-82.02612930033597L258.742211462412,-93.15292806745515" style="mix-blend-mode: multiply;"/><path d="M-93.15292806745538,-258.7422114624119L-75.39667298626021,-219.39053066886584C-57.64041790506506,-180.0388498753198,-22.12790774267475,-101.33548828822774,38.66662921251162,-65.38169935883634C99.46116616769798,-29.42791042944494,185.53772991568042,-36.223694157754224,228.57601178967164,-39.62158602190886L271.61429366366286,-43.019477886063505" style="mix-blend-mode: multiply;"/><path d="M-93.15292806745538,-258.7422114624119L-81.37035845891072,-216.57952765823998C-69.58778885036604,-174.41684385406813,-46.02264963327671,-90.09147624572434,-64.87725231343022,-16.65764717465498C-83.7318549935837,56.776181896414386,-145.00619957098004,119.31847243020934,-175.64337185967818,150.5896176971068L-206.28054414837635,181.8607629640043" style="mix-blend-mode: multiply;"/><path d="M-93.15292806745538,-258.7422114624119L-77.62744005621282,-222.0870648385702C-62.10195204497026,-185.4319182147285,-31.05097602248514,-112.12162496704515,-5.4474943074941016e-14,-112.12162496704518C31.050976022485028,-112.1216249670452,62.10195204497007,-185.4319182147286,77.6274400562126,-222.0870648385703L93.15292806745512,-258.742211462412" style="mix-blend-mode: multiply;"/><path d="M-93.15292806745538,-258.7422114624119L-77.62744005621282,-215.6185095520099C-62.10195204497026,-172.49480764160793,-31.05097602248514,-86.24740382080397,-5.921189464667502e-14,2.842170943040401e-14C31.05097602248502,86.247403820804,62.10195204497006,172.494807641608,77.62744005621259,215.61850955200998L93.15292806745511,258.742211462412" style="mix-blend-mode: multiply;"/><path d="M-93.15292806745538,-258.7422114624119L-75.63707013126732,-220.21798306934713C-58.121212195079266,-181.69375467628234,-23.08949632270315,-104.64529789015279,34.499745365721886,-79.72420763384491C92.08898705414691,-54.80311737753704,172.23575455862087,-82.00939365105084,212.30913831085786,-95.61253178780775L252.38252206309483,-109.21566992456465" style="mix-blend-mode: multiply;"/><path d="M-93.15292806745538,-258.7422114624119L-75.43713778789156,-219.60265458759068C-57.721347508327746,-180.46309771276947,-22.289766949200118,-102.183983963127,37.96523931756837,-69.05851395006658C98.22024558433685,-35.93304393700614,183.29867755874622,-47.96121766052769,225.8378935459509,-53.97530452228847L268.37710953315553,-59.98939138404924" style="mix-blend-mode: multiply;"/><path d="M-93.15292806745538,-258.7422114624119L-78.46835433002362,-215.430542941967C-63.78378059259185,-172.11887442152204,-34.41463311772832,-85.4955373806322,-14.57584741272052,3.258087907410944C5.262938292287285,92.01171319545409,15.571362227439366,182.89562673065055,20.725574195015408,228.3375834982488L25.879786162591447,273.779540265847" style="mix-blend-mode: multiply;"/><path d="M-93.15292806745538,-258.7422114624119L-78.89982614138707,-215.41698339403285C-64.64672421531877,-172.09175532565382,-36.140520363182155,-85.44129918889575,-22.05469214302046,3.493120071602268C-7.968863922858762,92.42753933210027,-8.30341133467198,183.64592171633822,-8.470685040578589,229.25511290845722L-8.637958746485198,274.8643041005762" style="mix-blend-mode: multiply;"/><path d="M-93.15292806745538,-258.7422114624119L-76.07569380201457,-216.74591919835794C-58.99845953657376,-174.74962693430402,-24.843991005692146,-90.75704240619613,26.896935072769566,-19.541767203366067C78.63786115123128,51.67350799946399,147.96524477727309,110.11147387701624,182.62893659029396,139.33045681579236L217.2926284033149,168.54943975456848" style="mix-blend-mode: multiply;"/></g></svg>