<svg viewBox="-375,-375,750,750" xmlns="http://www.w3.org/2000/svg" xmlns:xlink="http://www.w3.org/1999/xlink"><g font-family="sans-serif" font-size="10"><g transform="rotate(-88.2) translate(275,0)"><text dy="0.31em" x="6" text-anchor="start">100luz<title>flare.100luz
0 outgoing
0 incoming</title></text></g><g transform="rotate(-84.6) translate(275,0)"><text dy="0.31em" x="6" text-anchor="start">Alex<title>flare.Alex
0 outgoing
0 incoming</title></text></g><g transform="rotate(-81) translate(275,0)"><text dy="0.31em" x="6" text-anchor="start">Alina<title>flare.Alina
0 outgoing
0 incoming</title></text></g><g transform="rotate(-77.4) translate(275,0)"><text dy="0.31em" x="6" text-anchor="start">Allen<title>flare.Allen
9 outgoing
9 incoming</title></text></g><g transform="rotate(-73.8) translate(275,0)"><text dy="0.31em" x="6" text-anchor="start">Ariel Malka<title>flare.Ariel Malka
0 outgoing
0 incoming</title></text></g><g transform="rotate(-70.2) translate(275,0)"><text dy="0.31em" x="6" text-anchor="start">Bertrand Saint-Guillain<title>flare.Bertrand Saint-Guillain
0 outgoing
0 incoming</title></text></g><g transform="rotate(-66.6) translate(275,0)"><text dy="0.31em" x="6" text-anchor="start">Brian<title>flare.Brian
2 outgoing
2 incoming</title></text></g><g transform="rotate(-63) translate(275,0)"><text dy="0.31em" x="6" text-anchor="start">Dan<title>flare.Dan
1 outgoing
1 incoming</title></text></g><g transform="rotate(-59.39999999999999) translate(275,0)"><text dy="0.31em" x="6" text-anchor="start">Dara<title>flare.Dara
3 outgoing
3 incoming</title></text></g><g transform="rotate(-55.800000000000004) translate(275,0)"><text dy="0.31em" x="6" text-anchor="start">Dimitre<title>flare.Dimitre
0 outgoing
0 incoming</title></text></g><g transform="rotate(-52.2) translate(275,0)"><text dy="0.31em" x="6" text-anchor="start">Elrick<title>flare.Elrick
1 outgoing
1 incoming</title></text></g><g transform="rotate(-48.6) translate(275,0)"><text dy="0.31em" x="6" text-anchor="start">Frederik De Bleser<title>flare.Frederik De Bleser
2 outgoing
2 incoming</title></text></g><g transform="rotate(-45) translate(275,0)"><text dy="0.31em" x="6" text-anchor="start">Glen Murphy<title>flare.Glen Murphy
9 outgoing
9 incoming</title></text></g><g transform="rotate(-41.4) translate(275,0)"><text dy="0.31em" x="6" text-anchor="start">Jeff Berg<title>flare.Jeff Berg
0 outgoing
0 incoming</title></text></g><g transform="rotate(-37.800000000000004) translate(275,0)"><text dy="0.31em" x="6" text-anchor="start">JimQode<title>flare.JimQode
0 outgoing
0 incoming</title></text></g><g transform="rotate(-34.2) translate(275,0)"><text dy="0.31em" x="6" text-anchor="start">Jordan J<title>flare.Jordan J
0 outgoing
0 incoming</title></text></g><g transform="rotate(-30.599999999999987) translate(275,0)"><text dy="0.31em" x="6" text-anchor="start">Josh Nimoy<title>flare.Josh Nimoy
4 outgoing
4 incoming</title></text></g><g transform="rotate(-27) translate(275,0)"><text dy="0.31em" x="6" text-anchor="start">Koenie<title>flare.Koenie
6 outgoing
6 incoming</title></text></g><g transform="rotate(-23.39999999999999) translate(275,0)"><text dy="0.31em" x="6" text-anchor="start">Martin<title>flare.Martin
16 outgoing
16 incoming</title></text></g><g transform="rotate(-19.799999999999997) translate(275,0)"><text dy="0.31em" x="6" text-anchor="start">Mike Davis<title>flare.Mike Davis
0 outgoing
0 incoming</title></text></g><g transform="rotate(-16.200000000000003) translate(275,0)"><text dy="0.31em" x="6" text-anchor="start">Processing<title>flare.Processing
2 outgoing
2 incoming</title></text></g><g transform="rotate(-12.600000000000009) translate(275,0)"><text dy="0.31em" x="6" text-anchor="start">REAS<title>flare.REAS
12 outgoing
12 incoming</title></text></g><g transform="rotate(-9) translate(275,0)"><text dy="0.31em" x="6" text-anchor="start">Takachin<title>flare.Takachin
0 outgoing
0 incoming</title></text></g><g transform="rotate(-5.400000000000006) translate(275,0)"><text dy="0.31em" x="6" text-anchor="start">WillisMorse<title>flare.WillisMorse
0 outgoing
0 incoming</title></text></g><g transform="rotate(-1.7999999999999972) translate(275,0)"><text dy="0.31em" x="6" text-anchor="start">Wim_Van_der_Vurst<title>flare.Wim_Van_der_Vurst
0 outgoing
0 incoming</title></text></g><g transform="rotate(1.7999999999999972) translate(275,0)"><text dy="0.31em" x="6" text-anchor="start">XemonerdX<title>flare.XemonerdX
0 outgoing
0 incoming</title></text></g><g transform="rotate(5.400000000000006) translate(275,0)"><text dy="0.31em" x="6" text-anchor="start">Xu1<title>flare.Xu1
0 outgoing
0 incoming</title></text></g><g transform="rotate(9.000000000000014) translate(275,0)"><text dy="0.31em" x="6" text-anchor="start">[rocha]<title>flare.[rocha]
0 outgoing
0 incoming</title></text></g><g transform="rotate(12.599999999999994) translate(275,0)"><text dy="0.31em" x="6" text-anchor="start">_cory<title>flare._cory
0 outgoing
0 incoming</title></text></g><g transform="rotate(16.19999999999999) translate(275,0)"><text dy="0.31em" x="6" text-anchor="start">_martin<title>flare._martin
6 outgoing
6 incoming</title></text></g><g transform="rotate(19.799999999999997) translate(275,0)"><text dy="0.31em" x="6" text-anchor="start">_warren<title>flare._warren
0 outgoing
0 incoming</title></text></g><g transform="rotate(23.400000000000006) translate(275,0)"><text dy="0.31em" x="6" text-anchor="start">adrien<title>flare.adrien
1 outgoing
1 incoming</title></text></g><g transform="rotate(27) translate(275,0)"><text dy="0.31em" x="6" text-anchor="start">anurag<title>flare.anurag
0 outgoing
0 incoming</title></text></g><g transform="rotate(30.60000000000001) translate(275,0)"><text dy="0.31em" x="6" text-anchor="start">arielm<title>flare.arielm
10 outgoing
10 incoming</title></text></g><g transform="rotate(34.19999999999999) translate(275,0)"><text dy="0.31em" x="6" text-anchor="start">artelse<title>flare.artelse
0 outgoing
0 incoming</title></text></g><g transform="rotate(37.79999999999998) translate(275,0)"><text dy="0.31em" x="6" text-anchor="start">barikan<title>flare.barikan
0 outgoing
0 incoming</title></text></g><g transform="rotate(41.400000000000006) translate(275,0)"><text dy="0.31em" x="6" text-anchor="start">benelek<title>flare.benelek
18 outgoing
18 incoming</title></text></g><g transform="rotate(45) translate(275,0)"><text dy="0.31em" x="6" text-anchor="start">bzor<title>flare.bzor
0 outgoing
0 incoming</title></text></g><g transform="rotate(48.599999999999994) translate(275,0)"><text dy="0.31em" x="6" text-anchor="start">damille<title>flare.damille
0 outgoing
0 incoming</title></text></g><g transform="rotate(52.20000000000002) translate(275,0)"><text dy="0.31em" x="6" text-anchor="start">depth<title>flare.depth
0 outgoing
0 incoming</title></text></g><g transform="rotate(55.80000000000001) translate(275,0)"><text dy="0.31em" x="6" text-anchor="start">dnm<title>flare.dnm
0 outgoing
0 incoming</title></text></g><g transform="rotate(59.400000000000006) translate(275,0)"><text dy="0.31em" x="6" text-anchor="start">ed<title>flare.ed
0 outgoing
0 incoming</title></text></g><g transform="rotate(63) translate(275,0)"><text dy="0.31em" x="6" text-anchor="start">edwardgeorge<title>flare.edwardgeorge
0 outgoing
0 incoming</title></text></g><g transform="rotate(66.6) translate(275,0)"><text dy="0.31em" x="6" text-anchor="start">eviltyler<title>flare.eviltyler
0 outgoing
0 incoming</title></text></g><g transform="rotate(70.20000000000002) translate(275,0)"><text dy="0.31em" x="6" text-anchor="start">ezdac<title>flare.ezdac
0 outgoing
0 incoming</title></text></g><g transform="rotate(73.80000000000004) translate(275,0)"><text dy="0.31em" x="6" text-anchor="start">fdb<title>flare.fdb
2 outgoing
2 incoming</title></text></g><g transform="rotate(77.40000000000003) translate(275,0)"><text dy="0.31em" x="6" text-anchor="start">fli<title>flare.fli
0 outgoing
0 incoming</title></text></g><g transform="rotate(81) translate(275,0)"><text dy="0.31em" x="6" text-anchor="start">flight404<title>flare.flight404
0 outgoing
0 incoming</title></text></g><g transform="rotate(84.6) translate(275,0)"><text dy="0.31em" x="6" text-anchor="start">forkinsocket<title>flare.forkinsocket
5 outgoing
5 incoming</title></text></g><g transform="rotate(88.20000000000002) translate(275,0)"><text dy="0.31em" x="6" text-anchor="start">franklin_mint<title>flare.franklin_mint
0 outgoing
0 incoming</title></text></g><g transform="rotate(91.80000000000001) translate(275,0)"><text dy="0.31em" x="-6" text-anchor="end" transform="rotate(180)">fry<title>flare.fry
17 outgoing
17 incoming</title></text></g><g transform="rotate(95.4) translate(275,0)"><text dy="0.31em" x="-6" text-anchor="end" transform="rotate(180)">fulk<title>flare.fulk
0 outgoing
0 incoming</title></text></g><g transform="rotate(99) translate(275,0)"><text dy="0.31em" x="-6" text-anchor="end" transform="rotate(180)">gaza<title>flare.gaza
0 outgoing
0 incoming</title></text></g><g transform="rotate(102.60000000000002) translate(275,0)"><text dy="0.31em" x="-6" text-anchor="end" transform="rotate(180)">gkoshra<title>flare.gkoshra
0 outgoing
0 incoming</title></text></g><g transform="rotate(106.20000000000002) translate(275,0)"><text dy="0.31em" x="-6" text-anchor="end" transform="rotate(180)">grumo<title>flare.grumo
0 outgoing
0 incoming</title></text></g><g transform="rotate(109.80000000000001) translate(275,0)"><text dy="0.31em" x="-6" text-anchor="end" transform="rotate(180)">gsm<title>flare.gsm
3 outgoing
3 incoming</title></text></g><g transform="rotate(113.39999999999998) translate(275,0)"><text dy="0.31em" x="-6" text-anchor="end" transform="rotate(180)">heidi<title>flare.heidi
0 outgoing
0 incoming</title></text></g><g transform="rotate(116.99999999999997) translate(275,0)"><text dy="0.31em" x="-6" text-anchor="end" transform="rotate(180)">heliodrop<title>flare.heliodrop
0 outgoing
0 incoming</title></text></g><g transform="rotate(120.6) translate(275,0)"><text dy="0.31em" x="-6" text-anchor="end" transform="rotate(180)">hurlbot<title>flare.hurlbot
0 outgoing
0 incoming</title></text></g><g transform="rotate(124.19999999999999) translate(275,0)"><text dy="0.31em" x="-6" text-anchor="end" transform="rotate(180)">ik0<title>flare.ik0
0 outgoing
0 incoming</title></text></g><g transform="rotate(127.79999999999998) translate(275,0)"><text dy="0.31em" x="-6" text-anchor="end" transform="rotate(180)">jand<title>flare.jand
0 outgoing
0 incoming</title></text></g><g transform="rotate(131.4) translate(275,0)"><text dy="0.31em" x="-6" text-anchor="end" transform="rotate(180)">jbk303<title>flare.jbk303
1 outgoing
1 incoming</title></text></g><g transform="rotate(135) translate(275,0)"><text dy="0.31em" x="-6" text-anchor="end" transform="rotate(180)">jes<title>flare.jes
0 outgoing
0 incoming</title></text></g><g transform="rotate(138.6) translate(275,0)"><text dy="0.31em" x="-6" text-anchor="end" transform="rotate(180)">jlee<title>flare.jlee
0 outgoing
0 incoming</title></text></g><g transform="rotate(142.2) translate(275,0)"><text dy="0.31em" x="-6" text-anchor="end" transform="rotate(180)">joey<title>flare.joey
2 outgoing
2 incoming</title></text></g><g transform="rotate(145.8) translate(275,0)"><text dy="0.31em" x="-6" text-anchor="end" transform="rotate(180)">kevin<title>flare.kevin
0 outgoing
0 incoming</title></text></g><g transform="rotate(149.4) translate(275,0)"><text dy="0.31em" x="-6" text-anchor="end" transform="rotate(180)">mKoser<title>flare.mKoser
6 outgoing
6 incoming</title></text></g><g transform="rotate(153) translate(275,0)"><text dy="0.31em" x="-6" text-anchor="end" transform="rotate(180)">mawend<title>flare.mawend
0 outgoing
0 incoming</title></text></g><g transform="rotate(156.60000000000005) translate(275,0)"><text dy="0.31em" x="-6" text-anchor="end" transform="rotate(180)">mccutchen<title>flare.mccutchen
0 outgoing
0 incoming</title></text></g><g transform="rotate(160.2) translate(275,0)"><text dy="0.31em" x="-6" text-anchor="end" transform="rotate(180)">meltphace<title>flare.meltphace
0 outgoing
0 incoming</title></text></g><g transform="rotate(163.79999999999998) translate(275,0)"><text dy="0.31em" x="-6" text-anchor="end" transform="rotate(180)">michaONE<title>flare.michaONE
0 outgoing
0 incoming</title></text></g><g transform="rotate(167.39999999999998) translate(275,0)"><text dy="0.31em" x="-6" text-anchor="end" transform="rotate(180)">michael<title>flare.michael
0 outgoing
0 incoming</title></text></g><g transform="rotate(171) translate(275,0)"><text dy="0.31em" x="-6" text-anchor="end" transform="rotate(180)">mmuday<title>flare.mmuday
5 outgoing
5 incoming</title></text></g><g transform="rotate(174.59999999999997) translate(275,0)"><text dy="0.31em" x="-6" text-anchor="end" transform="rotate(180)">mohn<title>flare.mohn
0 outgoing
0 incoming</title></text></g><g transform="rotate(178.20000000000005) translate(275,0)"><text dy="0.31em" x="-6" text-anchor="end" transform="rotate(180)">mr.prufrock<title>flare.mr.prufrock
4 outgoing
4 incoming</title></text></g><g transform="rotate(181.8) translate(275,0)"><text dy="0.31em" x="-6" text-anchor="end" transform="rotate(180)">mrb<title>flare.mrb
0 outgoing
0 incoming</title></text></g><g transform="rotate(185.40000000000003) translate(275,0)"><text dy="0.31em" x="-6" text-anchor="end" transform="rotate(180)">nurm<title>flare.nurm
0 outgoing
0 incoming</title></text></g><g transform="rotate(189) translate(275,0)"><text dy="0.31em" x="-6" text-anchor="end" transform="rotate(180)">oytun<title>flare.oytun
0 outgoing
0 incoming</title></text></g><g transform="rotate(192.60000000000002) translate(275,0)"><text dy="0.31em" x="-6" text-anchor="end" transform="rotate(180)">pinksalmon<title>flare.pinksalmon
0 outgoing
0 incoming</title></text></g><g transform="rotate(196.2) translate(275,0)"><text dy="0.31em" x="-6" text-anchor="end" transform="rotate(180)">pitaru<title>flare.pitaru
0 outgoing
0 incoming</title></text></g><g transform="rotate(199.8) translate(275,0)"><text dy="0.31em" x="-6" text-anchor="end" transform="rotate(180)">pokemon#1<title>flare.pokemon#1
0 outgoing
0 incoming</title></text></g><g transform="rotate(203.39999999999998) translate(275,0)"><text dy="0.31em" x="-6" text-anchor="end" transform="rotate(180)">pollux<title>flare.pollux
21 outgoing
21 incoming</title></text></g><g transform="rotate(207) translate(275,0)"><text dy="0.31em" x="-6" text-anchor="end" transform="rotate(180)">polyscope<title>flare.polyscope
7 outgoing
7 incoming</title></text></g><g transform="rotate(210.59999999999997) translate(275,0)"><text dy="0.31em" x="-6" text-anchor="end" transform="rotate(180)">primeclub<title>flare.primeclub
0 outgoing
0 incoming</title></text></g><g transform="rotate(214.2) translate(275,0)"><text dy="0.31em" x="-6" text-anchor="end" transform="rotate(180)">rlivings<title>flare.rlivings
0 outgoing
0 incoming</title></text></g><g transform="rotate(217.79999999999995) translate(275,0)"><text dy="0.31em" x="-6" text-anchor="end" transform="rotate(180)">scrap-pile<title>flare.scrap-pile
0 outgoing
0 incoming</title></text></g><g transform="rotate(221.40000000000003) translate(275,0)"><text dy="0.31em" x="-6" text-anchor="end" transform="rotate(180)">sdewitt<title>flare.sdewitt
0 outgoing
0 incoming</title></text></g><g transform="rotate(225) translate(275,0)"><text dy="0.31em" x="-6" text-anchor="end" transform="rotate(180)">seb<title>flare.seb
0 outgoing
0 incoming</title></text></g><g transform="rotate(228.59999999999997) translate(275,0)"><text dy="0.31em" x="-6" text-anchor="end" transform="rotate(180)">skloopy<title>flare.skloopy
6 outgoing
6 incoming</title></text></g><g transform="rotate(232.20000000000005) translate(275,0)"><text dy="0.31em" x="-6" text-anchor="end" transform="rotate(180)">solipsys<title>flare.solipsys
0 outgoing
0 incoming</title></text></g><g transform="rotate(235.8) translate(275,0)"><text dy="0.31em" x="-6" text-anchor="end" transform="rotate(180)">spacegirl<title>flare.spacegirl
0 outgoing
0 incoming</title></text></g><g transform="rotate(239.39999999999998) translate(275,0)"><text dy="0.31em" x="-6" text-anchor="end" transform="rotate(180)">sparky_monkey<title>flare.sparky_monkey
0 outgoing
0 incoming</title></text></g><g transform="rotate(243) translate(275,0)"><text dy="0.31em" x="-6" text-anchor="end" transform="rotate(180)">sportebois<title>flare.sportebois
0 outgoing
0 incoming</title></text></g><g transform="rotate(246.60000000000002) translate(275,0)"><text dy="0.31em" x="-6" text-anchor="end" transform="rotate(180)">svela<title>flare.svela
0 outgoing
0 incoming</title></text></g><g transform="rotate(250.19999999999993) translate(275,0)"><text dy="0.31em" x="-6" text-anchor="end" transform="rotate(180)">tomek<title>flare.tomek
0 outgoing
0 incoming</title></text></g><g transform="rotate(253.8) translate(275,0)"><text dy="0.31em" x="-6" text-anchor="end" transform="rotate(180)">toxi<title>flare.toxi
6 outgoing
6 incoming</title></text></g><g transform="rotate(257.4) translate(275,0)"><text dy="0.31em" x="-6" text-anchor="end" transform="rotate(180)">v3ga<title>flare.v3ga
0 outgoing
0 incoming</title></text></g><g transform="rotate(261) translate(275,0)"><text dy="0.31em" x="-6" text-anchor="end" transform="rotate(180)">vanwoods<title>flare.vanwoods
0 outgoing
0 incoming</title></text></g><g transform="rotate(264.6) translate(275,0)"><text dy="0.31em" x="-6" text-anchor="end" transform="rotate(180)">vent<title>flare.vent
3 outgoing
3 incoming</title></text></g><g transform="rotate(268.2) translate(275,0)"><text dy="0.31em" x="-6" text-anchor="end" transform="rotate(180)">xoff<title>flare.xoff
0 outgoing
0 incoming</title></text></g></g><g stroke="grey" fill="none"><path d="M59.989391384049206,-268.37710953315553L53.89580840479697,-228.36750102085114C47.80222542554474,-188.35789250854668,35.615059467040275,-108.33867548393785,67.6805812468812,-81.81176888250604C99.74610302672215,-55.28486228107423,176.0643125449085,-82.25026610281944,214.22341730400163,-95.73296801369206L252.38252206309483,-109.21566992456465" style="mix-blend-mode: multiply;"/><path d="M59.989391384049206,-268.37710953315553L54.09574074817272,-227.7521725390947C48.202090112296254,-187.1272355450338,36.41478884054331,-105.87736155691209,71.1460751987277,-71.1460751987277C105.87736155691209,-36.41478884054332,187.1272355450338,-48.20209011229628,227.7521725390947,-54.09574074817275L268.37710953315553,-59.98939138404924" style="mix-blend-mode: multiply;"/><path d="M59.989391384049206,-268.37710953315553L53.31953368086298,-224.72904560974402C46.64967597767677,-181.08098168633248,33.30996057130435,-93.78485383950941,57.69181936535889,-18.745208423316125C82.07367815941342,56.294436992877166,144.1771111538949,119.07759997844069,175.22882765113567,150.46918147122244L206.2805441483764,181.8607629640042" style="mix-blend-mode: multiply;"/><path d="M59.989391384049206,-268.37710953315553L50.633052394677215,-223.56650134553686C41.27671340530524,-178.75589315791817,22.564035426561272,-89.1346767826808,11.12614373813887,1.4055588229411455C-0.3117479502835329,91.9457944285631,-4.474853348384367,183.40504926456967,-6.556406047434784,229.13467668257292L-8.6379587464852,274.8643041005762" style="mix-blend-mode: multiply;"/><path d="M59.989391384049206,-268.37710953315553L53.699827596834346,-228.75213501343595C47.41026380961949,-189.1271604937164,34.83113623518975,-109.87721145427723,64.28358057552897,-88.47875808730998C93.73602491586819,-67.08030472034274,165.22004117097634,-103.53334702584742,200.9620492985304,-121.75986817859977L236.7040574260845,-139.9863893313521" style="mix-blend-mode: multiply;"/><path d="M59.989391384049206,-268.37710953315553L47.586245353219596,-228.36750102085114C35.18309932239,-188.35789250854668,10.376807260730784,-108.33867548393785,-41.68517831379323,-81.811768882506C-93.74716388831725,-55.28486228107417,-173.06484297570606,-82.25026610281934,-212.72368251940046,-95.7329680136919L-252.38252206309488,-109.2156699245645" style="mix-blend-mode: multiply;"/><path d="M59.989391384049206,-268.37710953315553L51.06452420604068,-223.58006089347097C42.139657028032154,-178.7830122537864,24.2899226720151,-89.18891497441727,18.60498846843881,1.170526658749812C12.920054264862515,91.52996829191692,19.399920213726983,182.65475427888194,22.63985318815921,228.21714727236449L25.879786162591447,273.779540265847" style="mix-blend-mode: multiply;"/><path d="M59.989391384049206,-268.37710953315553L53.8038618059058,-228.56289748964878C47.6183322277624,-188.74868544614196,35.24727307147559,-109.12026135912839,66.08684019943423,-85.1986410083317C96.9264073273929,-61.27702065753501,170.97660073959705,-93.0622040429552,208.00169744569908,-108.95479573566526L245.02679415180114,-124.84738742837537" style="mix-blend-mode: multiply;"/><path d="M59.989391384049206,-268.37710953315553L47.67819195211077,-228.56289748964875C35.36699252017234,-188.74868544614196,10.744593656295471,-109.12026135912839,-40.091437266346254,-85.19864100833169C-90.92746818898797,-61.27702065753499,-167.97713117039456,-93.06220404295516,-206.50196266109788,-108.95479573566524L-245.02679415180114,-124.84738742837533" style="mix-blend-mode: multiply;"/><path d="M109.21566992456465,-252.38252206309483L89.66209628948616,-211.36668191476892C70.10852265440768,-170.35084176644304,31.001375384250707,-88.31916146979125,-23.416674337062545,-18.163834500180695C-77.8347240583758,51.991492469429865,-147.56367623084535,110.2704661119992,-182.42815231708008,139.40995293328388L-217.29262840331486,168.54943975456854" style="mix-blend-mode: multiply;"/><path d="M109.21566992456465,-252.38252206309483L89.22347261873891,-214.83874578575808C69.23127531291318,-177.29496950842136,29.246880701261706,-102.20741695374791,-31.019484630014887,-78.34627493065953C-91.28584996129148,-54.485132907571135,-171.8341860121932,-81.85040141606781,-212.10835403764403,-95.53303567031615L-252.38252206309488,-109.2156699245645" style="mix-blend-mode: multiply;"/><path d="M124.84738742837536,-245.02679415180117L108.95479573566526,-208.00169744569914C93.06220404295517,-170.97660073959705,61.277020657535,-96.92640732739291,85.1986410083317,-66.08684019943426C109.12026135912839,-35.247273071475604,188.74868544614196,-47.618332227762416,228.56289748964875,-53.80386180590583L268.37710953315553,-59.98939138404924" style="mix-blend-mode: multiply;"/><path d="M139.98638933135211,-236.7040574260845L121.75986817859979,-200.96204929853045C103.53334702584743,-165.22004117097634,67.08030472034275,-93.73602491586819,88.47875808730998,-64.28358057552897C109.87721145427723,-34.831136235189774,189.1271604937164,-47.4102638096195,228.75213501343595,-53.69982759683438L268.37710953315553,-59.98939138404924" style="mix-blend-mode: multiply;"/><path d="M139.98638933135211,-236.7040574260845L115.25037278364664,-201.57737778028687C90.51435623594118,-166.45069813448922,41.042323140530236,-96.19733884289394,-24.352495425210936,-74.94927425930729C-89.74731399095212,-53.70120967572061,-171.0649180270235,-81.45843980014256,-211.7237200450592,-95.33705486235353L-252.3825220630949,-109.2156699245645" style="mix-blend-mode: multiply;"/><path d="M139.98638933135211,-236.7040574260845L117.44612238242549,-203.5131914507443C94.90585543349884,-170.32232547540409,49.82532153564557,-103.94059352472368,13.70716428695552,-108.50337788056949C-22.410992961734525,-113.06616223641531,-49.56677356126135,-188.57346289878728,-63.14466386102475,-226.3271132299733L-76.72255416078816,-264.0807635611593" style="mix-blend-mode: multiply;"/><path d="M168.5494397545685,-217.2926284033149L142.45675997474146,-180.35754438988C116.36408019491442,-143.42246037644506,64.17872063526033,-69.55229234957523,34.64748755175139,12.47386306773995C5.116254468242434,94.50001848505514,-1.760852139121382,184.68216129281566,-5.19940544280329,229.7732326966959L-8.637958746485198,274.8643041005762" style="mix-blend-mode: multiply;"/><path d="M181.86076296400427,-206.28054414837638L153.71592085605587,-171.0431564575778C125.57107874810748,-135.80576876677927,69.28139453221071,-65.33099338518214,37.53160758046247,14.85981465630996C5.781820628714222,95.05062269780205,-1.428069058885488,184.95746339918912,-5.033013902685343,229.9108837498827L-8.637958746485198,274.8643041005762" style="mix-blend-mode: multiply;"/><path d="M181.86076296400427,-206.28054414837638L154.7829272673968,-171.17795071432053C127.70509157078932,-136.07535728026468,73.54942017757436,-65.87017041215297,56.02638537703833,12.523380872769645C38.503350576502285,90.91693215769226,57.612952368645146,177.4988478594258,67.16775326471658,220.7898057102926L76.72255416078801,264.08076356115936" style="mix-blend-mode: multiply;"/><path d="M194.45436482630055,-194.45436482630058L162.20272404519582,-167.0544903841006C129.9510832640911,-139.65461594190063,65.44780170188166,-84.8548670575007,2.7286137368308374,-86.82589694451332C-59.99057422821999,-88.79692683152594,-120.92566859611219,-147.5387354899511,-151.39321578005828,-176.9096398191637L-181.86076296400438,-206.28054414837626" style="mix-blend-mode: multiply;"/><path d="M194.45436482630055,-194.45436482630058L164.3680090979148,-161.0401797809887C134.2816533695291,-127.62599473567683,74.10894191275762,-60.79762464505308,40.26022131729333,17.42215350942638C6.411500721829036,95.64193166390584,-1.113229012328081,185.253117882241,-4.875593879406639,230.0587109914086L-8.637958746485198,274.8643041005762" style="mix-blend-mode: multiply;"/><path d="M194.45436482630055,-194.45436482630058L161.3212020564572,-165.84117945630297C128.18803928661384,-137.22799408630536,61.92171374692713,-80.00162334631011,-12.55110073463878,-65.79517419602077C-87.02391521620468,-51.58872504573142,-169.7032186396498,-80.40219748514797,-211.04287035137236,-94.80893370485622L-252.3825220630949,-109.2156699245645" style="mix-blend-mode: multiply;"/><path d="M194.45436482630055,-194.45436482630058L167.43478430007193,-162.726153715604C140.41520377384333,-130.99794260490742,86.3760427213861,-67.54152038351428,93.41765815468342,-11.801394690572167C100.45927358798076,43.93873100236994,168.58166550703262,91.96256016686102,202.64286146655854,115.97447474910659L236.7040574260845,139.98638933135211" style="mix-blend-mode: multiply;"/><path d="M194.45436482630055,-194.45436482630058L167.63076510803458,-165.84117945630297C140.80716538976858,-137.22799408630536,87.15996595323662,-80.00162334631013,96.81465882603567,-65.79517419602081C106.46935169883471,-51.58872504573148,179.42593688096477,-80.40219748514806,215.90422947202978,-94.80893370485636L252.38252206309483,-109.21566992456465" style="mix-blend-mode: multiply;"/><path d="M194.45436482630055,-194.45436482630058L164.7994809092783,-161.05373932892283C135.144596992256,-127.65311383154506,75.83482915821145,-60.851862836789536,47.73906604759327,17.187121345235056C19.643302936975086,95.22610552725966,22.761544549783267,184.5028228965533,24.32066535618736,229.1411815812002L25.879786162591447,273.779540265847" style="mix-blend-mode: multiply;"/><path d="M194.45436482630055,-194.45436482630058L161.04017978098867,-164.36800909791484C127.6259947356768,-134.2816533695291,60.79762464505307,-74.10894191275763,-17.42215350942639,-40.260221317293315C-95.64193166390585,-6.411500721829005,-185.253117882241,1.1132290123281383,-230.0587109914086,4.87559387940671L-274.8643041005762,8.637958746485282" style="mix-blend-mode: multiply;"/><path d="M194.45436482630055,-194.45436482630058L167.0544903841006,-162.20272404519585C139.65461594190063,-129.95108326409112,84.8548670575007,-65.44780170188167,86.82589694451333,-2.728613736830875C88.79692683152598,59.990574228219934,147.5387354899512,120.92566859611208,176.9096398191638,151.39321578005817L206.2805441483764,181.86076296400424" style="mix-blend-mode: multiply;"/><path d="M194.45436482630055,-194.45436482630058L161.41314865534835,-166.0365759251006C128.37193248439618,-137.6187870239006,62.28950014249182,-80.78320922150066,-10.957359687191797,-69.18204632184644C-84.20421951687541,-57.580883422192244,-164.61550683433828,-91.21413542528377,-204.82115049306972,-108.03076142682956L-245.02679415180114,-124.84738742837533" style="mix-blend-mode: multiply;"/><path d="M236.7040574260845,-139.9863893313521L200.96204929853045,-121.75986817859975C165.22004117097634,-103.53334702584742,93.73602491586819,-67.08030472034274,64.28358057552897,-88.47875808730998C34.83113623518975,-109.87721145427723,47.41026380961949,-189.1271604937164,53.699827596834346,-228.75213501343595L59.989391384049206,-268.37710953315553" style="mix-blend-mode: multiply;"/><path d="M236.7040574260845,-139.9863893313521L200.10420742189874,-114.9693505081781C163.50435741771298,-89.95231168500412,90.30465740934146,-39.91823403865616,49.41432138057985,29.223548199998557C8.523985351818235,98.36533043865326,-0.05698669733348183,186.61481726961472,-4.34747272190934,230.73956068509548L-8.637958746485198,274.8643041005762" style="mix-blend-mode: multiply;"/><path d="M236.7040574260845,-139.9863893313521L197.05740038044112,-119.77035018349234C157.41074333479773,-99.55431103563264,78.11742924351098,-59.122232739913194,-3.39700067135225,-53.9937795054486C-84.91143058621547,-48.86532627098399,-168.64697632465518,-79.04049809777425,-210.51474919387502,-94.12808401116938L-252.38252206309488,-109.2156699245645" style="mix-blend-mode: multiply;"/><path d="M236.7040574260845,-139.9863893313521L203.56689577539427,-119.1550217017359C170.429734124704,-98.32365407211977,104.1554108233235,-56.660918812887424,109.43425284116866,-43.32808582167029C114.71309485901385,-29.99525283045315,191.54510219608468,-44.9923221072512,229.96110586462012,-52.49085674565023L268.37710953315553,-59.98939138404924" style="mix-blend-mode: multiply;"/><path d="M245.02679415180114,-124.84738742837537L209.8303368552532,-103.32682232945079C174.6338795587052,-81.80625723052619,104.24096496560925,-38.765127032677015,97.78325663170513,12.352898032719585C91.325548297801,63.47092309811618,148.80304622308873,122.66584303106019,177.54179518573255,152.26330299753218L206.2805441483764,181.8607629640042" style="mix-blend-mode: multiply;"/><path d="M245.02679415180114,-124.84738742837537L204.2930293355724,-103.85025199985893C163.55926451934369,-82.8531165713425,82.09173488688621,-40.85884571430962,1.8032596239052623,3.280117078978281C-78.48521563907569,47.41907987226619,-157.5946365325801,93.70273460180913,-197.14934697933234,116.8445619665806L-236.70405742608455,139.98638933135206" style="mix-blend-mode: multiply;"/><path d="M245.02679415180114,-124.84738742837537L210.40661157918714,-106.9652777405579C175.78642900657314,-89.08316805274042,106.54606386134519,-53.31894867710546,107.77201851322747,-50.71366242647034C108.99797316510974,-48.10837617583522,180.69024761410228,-78.66202305019993,216.53638483859854,-93.93884648738229L252.38252206309483,-109.21566992456465" style="mix-blend-mode: multiply;"/><path d="M245.02679415180114,-124.84738742837537L208.00169744569908,-108.95479573566529C170.97660073959705,-93.0622040429552,96.9264073273929,-61.27702065753501,66.08684019943425,-85.1986410083317C35.24727307147559,-109.12026135912839,47.6183322277624,-188.74868544614196,53.803861805905804,-228.56289748964875L59.989391384049206,-268.37710953315553" style="mix-blend-mode: multiply;"/><path d="M245.02679415180114,-124.84738742837537L204.0970485276098,-106.9652777405579C163.1673029034184,-89.0831680527404,81.30781165503569,-53.31894867710545,-1.5937410474469829,-50.71366242647031C-84.49529374992966,-48.10837617583516,-168.4389079065123,-78.66202305019983,-210.41071498480358,-93.93884648738215L-252.3825220630949,-109.2156699245645" style="mix-blend-mode: multiply;"/><path d="M245.02679415180114,-124.84738742837537L204.18899512650094,-107.16067420935553C163.35119610120077,-89.47396099033568,81.67559805060039,-54.10053455229599,0,-54.10053455229598C-81.67559805060039,-54.10053455229598,-163.35119610120077,-89.47396099033564,-204.18899512650094,-107.16067420935549L-245.02679415180114,-124.84738742837533" style="mix-blend-mode: multiply;"/><path d="M252.38252206309483,-109.21566992456465L213.36557542736998,-88.94245034327038C174.3486287916451,-68.66923076197615,96.31473552019543,-28.12279159938764,52.81132205193209,35.8905374048025C9.30790858366875,99.90386640899264,0.33497491859177586,187.38408525478442,-4.151491913946711,231.1241946776803L-8.637958746485198,274.8643041005762" style="mix-blend-mode: multiply;"/><path d="M252.38252206309483,-109.21566992456465L216.82826378086546,-93.1281215368282C181.27400549863614,-77.04057314909178,110.16548893417746,-44.86547637361891,112.8312535125209,-36.661096616866345C115.49701809086436,-28.456716860113776,191.93706381200994,-44.223054122081514,230.15708667258275,-52.106222753065374L268.37710953315553,-59.98939138404924" style="mix-blend-mode: multiply;"/><path d="M252.38252206309483,-109.21566992456465L213.15005258466863,-95.80049839785067C173.91758310624246,-82.38532687113673,95.45264414939011,-55.5549838177088,49.07559277844237,-82.98229554125585C2.6985414074946306,-110.40960726480291,-11.590622377548485,-192.09457376532495,-18.735204270070042,-232.93705701558596L-25.8797861625916,-273.779540265847" style="mix-blend-mode: multiply;"/><path d="M252.38252206309483,-109.21566992456465L210.31876838591234,-93.74345001858465C168.25501470872987,-78.27123011260467,84.12750735436494,-47.32679030064467,-1.8947806286936004e-14,-47.32679030064465C-84.12750735436498,-47.326790300644625,-168.25501470872993,-78.27123011260456,-210.31876838591242,-93.74345001858451L-252.3825220630949,-109.2156699245645" style="mix-blend-mode: multiply;"/><path d="M252.38252206309483,-109.21566992456465L216.05205671355574,-90.10499460747754C179.7215913640167,-70.99431929039044,107.0606606649385,-32.772968656216236,99.3769976791521,15.739770158545246C91.69333469336568,64.25250897330672,148.98693942087104,123.05663596865548,177.63374178462377,152.45869946632988L206.2805441483764,181.86076296400424" style="mix-blend-mode: multiply;"/><path d="M252.38252206309483,-109.21566992456465L210.51474919387496,-90.6284242778857C168.64697632465513,-72.04117863120675,84.91143058621546,-34.866687337848845,3.397000671352231,6.666989204803937C-78.117429243511,48.200665747456725,-157.4107433347978,94.09352753940438,-197.05740038044118,117.03995843537821L-236.70405742608455,139.98638933135206" style="mix-blend-mode: multiply;"/><path d="M252.38252206309483,-109.21566992456465L216.53638483859854,-93.93884648738229C180.69024761410228,-78.66202305019993,108.99797316510974,-48.10837617583522,107.77201851322747,-50.713662426470336C106.54606386134519,-53.31894867710546,175.78642900657314,-89.08316805274042,210.40661157918714,-106.96527774055788L245.02679415180114,-124.84738742837537" style="mix-blend-mode: multiply;"/><path d="M252.38252206309483,-109.21566992456465L214.22341730400163,-95.73296801369203C176.0643125449085,-82.25026610281944,99.74610302672215,-55.28486228107423,67.6805812468812,-81.81176888250604C35.615059467040275,-108.33867548393785,47.80222542554474,-188.35789250854668,53.89580840479697,-228.36750102085114L59.989391384049206,-268.37710953315553" style="mix-blend-mode: multiply;"/><path d="M252.38252206309483,-109.21566992456465L216.43235062952706,-90.6284242778857C180.48217919595936,-72.04117863120675,108.58183632882391,-34.866687337848845,105.9687588893222,6.66698920480395C103.35568144982047,48.200665747456746,170.02986943795247,94.09352753940443,203.36696343201848,117.03995843537827L236.7040574260845,139.98638933135211" style="mix-blend-mode: multiply;"/><path d="M252.38252206309483,-109.21566992456465L210.07837124090523,-91.8405106709518C167.7742204187157,-74.46535141733897,83.16591877433655,-39.71503291011327,-4.16688384678974,-14.342508275008578C-91.49968646791602,11.030016360096118,-181.55699006578945,27.024747123079823,-226.58564186472617,35.02211250457167L-271.61429366366286,43.01947788606353" style="mix-blend-mode: multiply;"/><path d="M252.38252206309483,-109.21566992456465L216.77455945621554,-91.41922221751774C181.16659684933623,-73.62277451047085,109.95067163557765,-38.02987909637705,111.90037855192175,-7.040175082151606C113.85008546826583,23.949528932073836,188.9654245147126,50.33604154643092,226.52309403793598,63.52929785360946L264.08076356115936,76.72255416078801" style="mix-blend-mode: multiply;"/><path d="M252.38252206309483,-109.21566992456465L211.20029037465096,-94.9567609463823C170.01805868620713,-80.69785196819996,87.65359530931947,-52.18003401183527,15.279714471469598,-68.3575130491372C-57.09416636638027,-84.53499208643915,-119.47746466519233,-145.4077681174077,-150.66911381459835,-175.84415613289198L-181.86076296400438,-206.28054414837626" style="mix-blend-mode: multiply;"/><path d="M252.38252206309483,-109.21566992456465L215.90422947202978,-94.80893370485636C179.42593688096477,-80.40219748514806,106.46935169883471,-51.58872504573148,96.81465882603567,-65.79517419602081C87.15996595323662,-80.00162334631013,140.80716538976858,-137.22799408630536,167.63076510803458,-165.84117945630297L194.45436482630055,-194.45436482630058" style="mix-blend-mode: multiply;"/><path d="M252.38252206309483,-109.21566992456465L213.7970472387334,-88.95600989120452C175.21157241437206,-68.69634985784437,98.04062276564925,-28.1770297911241,60.290166782232035,35.65550524061118C22.5397107988148,99.48804027234645,24.209748480703123,186.63379026909672,25.044767321647285,230.20666526747186L25.879786162591447,273.779540265847" style="mix-blend-mode: multiply;"/><path d="M252.38252206309483,-109.21566992456465L210.0377461104438,-92.27027966019654C167.69297015779284,-75.32488939582842,83.00341825249087,-41.434108867092185,-4.871052774787628,-21.791837421917197C-92.74552380206613,-2.1495659767422084,-183.80491395132117,3.2441963848715365,-229.33460902594868,5.941077565678409L-274.8643041005762,8.637958746485282" style="mix-blend-mode: multiply;"/><path d="M252.38252206309483,-109.21566992456465L210.4107149848035,-93.93884648738229C168.43890790651224,-78.66202305019993,84.49529374992963,-48.10837617583522,1.593741047446964,-50.71366242647033C-81.30781165503569,-53.318948677105446,-163.1673029034184,-89.08316805274039,-204.0970485276098,-106.96527774055785L-245.02679415180114,-124.84738742837533" style="mix-blend-mode: multiply;"/><path d="M264.0807635611593,-76.72255416078812L220.21353098635856,-66.25968960172368C176.3462984115578,-55.79682504265923,88.6118332619563,-34.87109592453034,2.534618991247285,-40.28661521849307C-83.54259527946175,-45.70213451245579,-167.96255867127834,-77.45890221851015,-210.1725403671866,-93.33728607153732L-252.3825220630949,-109.2156699245645" style="mix-blend-mode: multiply;"/><path d="M264.0807635611593,-76.72255416078812L223.26033802781618,-61.45868992640942C182.43991249447308,-46.19482569203071,100.79906142778681,-15.667097223273302,55.34594104317939,42.930712486954086C9.892820658571976,101.52852219718147,0.6274309560433883,188.19641314887883,-4.005263895220906,231.53035862472748L-8.637958746485198,274.8643041005762" style="mix-blend-mode: multiply;"/><path d="M268.37710953315553,-59.98939138404924L230.15708667258275,-52.10622275306537C191.93706381200994,-44.223054122081514,115.49701809086436,-28.456716860113776,112.8312535125209,-36.661096616866345C110.16548893417746,-44.86547637361891,181.27400549863614,-77.04057314909178,216.8282637808655,-93.1281215368282L252.38252206309483,-109.21566992456465" style="mix-blend-mode: multiply;"/><path d="M268.37710953315553,-59.98939138404924L226.6788078197617,-54.1632711323314C184.98050610636778,-48.337150880613564,101.58390267958005,-36.68491037717789,52.54108673028886,-72.31660185747752C3.4982707809976668,-107.94829333777714,-11.190757690796966,-190.86391680181205,-18.535271926694282,-232.32172853382954L-25.8797861625916,-273.779540265847" style="mix-blend-mode: multiply;"/><path d="M268.37710953315553,-59.98939138404924L223.8475236210054,-52.10622275306537C179.3179377088552,-44.2230541220815,90.25876588455488,-28.45671686011377,3.465493951846478,-36.66109661686631C-83.32777798086192,-44.865476373618854,-167.8551500219784,-77.04057314909167,-210.11883604253663,-93.12812153682808L-252.38252206309488,-109.2156699245645" style="mix-blend-mode: multiply;"/><path d="M268.37710953315553,-59.98939138404924L228.56289748964878,-53.803861805905825C188.74868544614196,-47.618332227762416,109.12026135912839,-35.247273071475604,85.1986410083317,-66.08684019943426C61.277020657535,-96.92640732739291,93.06220404295517,-170.97660073959705,108.95479573566526,-208.00169744569914L124.84738742837536,-245.02679415180117" style="mix-blend-mode: multiply;"/><path d="M268.37710953315553,-59.98939138404924L228.75213501343595,-53.699827596834375C189.1271604937164,-47.4102638096195,109.87721145427723,-34.831136235189774,88.47875808730998,-64.28358057552897C67.08030472034275,-93.73602491586819,103.53334702584743,-165.22004117097634,121.75986817859979,-200.9620492985304L139.98638933135211,-236.7040574260845" style="mix-blend-mode: multiply;"/><path d="M268.37710953315553,-59.98939138404924L227.7521725390947,-54.09574074817275C187.1272355450338,-48.20209011229628,105.87736155691209,-36.41478884054332,71.1460751987277,-71.1460751987277C36.41478884054331,-105.87736155691209,48.202090112296254,-187.1272355450338,54.09574074817274,-227.7521725390947L59.989391384049206,-268.37710953315553" style="mix-blend-mode: multiply;"/><path d="M268.37710953315553,-59.98939138404924L229.58081194864874,-48.46776734195826C190.78451436414198,-36.94614329986729,113.19191919512843,-13.902895215685332,102.8424916309986,26.40546384232358C92.49306406686874,66.71382290033249,149.38680410762257,124.28729293216834,177.8336741279995,153.07402794808627L206.2805441483764,181.8607629640042" style="mix-blend-mode: multiply;"/><path d="M268.37710953315553,-59.98939138404924L230.15708667258275,-49.37583100495126C191.93706381200994,-38.762270625853276,115.49701809086436,-17.53514986765731,112.83125351252092,10.665693683778333C110.16548893417747,38.866537235213976,181.27400549863617,74.0411035798893,216.82826378086554,91.62838675222696L252.38252206309485,109.21566992456462" style="mix-blend-mode: multiply;"/><path d="M268.37710953315553,-59.98939138404924L226.0432732197842,-54.0420364235228C183.70943690641286,-48.09468146299637,99.0417642796702,-36.19997154194351,41.52515366401294,-70.21520023812852C-15.991456951644352,-104.23042893431352,-46.35700555621626,-184.1555962477364,-61.53977985850221,-224.11817990444786L-76.72255416078816,-264.0807635611593" style="mix-blend-mode: multiply;"/><path d="M268.37710953315553,-59.98939138404924L226.89433066246298,-47.305223077751116C185.41155179177045,-34.62105477145298,102.44599405038537,-9.252718158856732,56.27681600377858,46.55623108858084C10.107637957171788,102.36518033601841,0.7348396053432941,188.61474221829732,-3.9515595705709523,231.73952315943674L-8.637958746485198,274.8643041005762" style="mix-blend-mode: multiply;"/><path d="M268.37710953315553,-59.98939138404924L229.96110586462012,-48.991197012366406C191.54510219608468,-37.99300264068359,114.71309485901385,-15.996613897317935,109.43425284116866,17.33268288858229C104.1554108233235,50.66197967448252,170.429734124704,95.32418450291732,203.56689577539422,117.65528691713472L236.7040574260845,139.98638933135211" style="mix-blend-mode: multiply;"/><path d="M268.37710953315553,-59.98939138404924L229.96110586462012,-52.49085674565021C191.54510219608468,-44.9923221072512,114.71309485901385,-29.99525283045315,109.43425284116866,-43.32808582167029C104.1554108233235,-56.660918812887424,170.429734124704,-98.32365407211977,203.56689577539422,-119.1550217017359L236.7040574260845,-139.9863893313521" style="mix-blend-mode: multiply;"/><path d="M264.08076356115936,76.72255416078802L226.32711322997332,66.64432359430843C188.5734628987873,56.566093027828856,113.06616223641531,36.40963189486968,108.50337788056952,46.95360442329703C103.94059352472368,57.497576951724376,170.32232547540409,98.74198314153824,203.5131914507443,119.36418623644518L236.7040574260845,139.98638933135211" style="mix-blend-mode: multiply;"/><path d="M264.08076356115936,76.72255416078802L226.52309403793598,63.52929785360948C188.9654245147126,50.33604154643093,113.85008546826583,23.949528932073843,111.90037855192175,-7.040175082151602C109.95067163557765,-38.02987909637705,181.16659684933623,-73.62277451047085,216.77455945621554,-91.41922221751776L252.38252206309483,-109.21566992456465" style="mix-blend-mode: multiply;"/><path d="M264.08076356115936,76.72255416078802L225.946819314002,67.1677532647166C187.81287506684464,57.61295236864515,111.54498657252991,38.50335057650229,101.91161667039943,56.02638537703832C92.27824676826894,73.54942017757435,149.27939545832268,127.70509157078929,177.77996980334956,154.78292726739676L206.2805441483764,181.8607629640042" style="mix-blend-mode: multiply;"/><path d="M264.08076356115936,76.72255416078802L219.97313384135148,65.43223720124233C175.86550412154364,54.14192024169663,87.65024468192793,31.561286322605252,-1.6322648555424262,25.944106943484503C-90.9147743930128,20.326927564363757,-181.26453402833783,31.673202725213645,-226.43941384600035,37.346340305638584L-271.61429366366286,43.019477886063534" style="mix-blend-mode: multiply;"/><path d="M264.08076356115936,76.72255416078802L220.2135309863586,63.52929785360948C176.34629841155785,50.33604154643094,88.61183326195635,23.94952893207385,2.5346189912472994,-7.0401750821515705C-83.54259527946174,-38.02987909637699,-167.96255867127832,-73.62277451047073,-210.1725403671866,-91.41922221751763L-252.38252206309488,-109.2156699245645" style="mix-blend-mode: multiply;"/><path d="M264.08076356115936,76.72255416078802L223.26033802781623,68.33029752892374C182.4399124944731,59.93804089705946,100.79906142778684,43.15352763333089,55.3459410431794,76.17715262329558C9.892820658571978,109.20077761326029,0.6274309560433894,192.03254085691822,-4.005263895220904,233.44842247874723L-8.637958746485198,274.8643041005762" style="mix-blend-mode: multiply;"/><path d="M252.38252206309485,109.21566992456462L216.8282637808655,91.62838675222696C181.27400549863617,74.0411035798893,110.16548893417747,38.866537235213976,112.83125351252092,10.665693683778334C115.49701809086436,-17.53514986765731,191.93706381200994,-38.762270625853276,230.15708667258275,-49.37583100495126L268.37710953315553,-59.98939138404924" style="mix-blend-mode: multiply;"/><path d="M236.7040574260845,139.98638933135211L197.93892236917975,115.82664750758063C159.17378731227498,91.66690568380915,81.6435171984655,43.34742203626616,11.882713800117358,-14.363733543688568C-57.87808959823079,-72.0748891236433,-119.86942628111758,-139.17771663600976,-150.86509462256097,-172.729130392193L-181.86076296400438,-206.28054414837626" style="mix-blend-mode: multiply;"/><path d="M236.7040574260845,139.98638933135211L200.10420742189874,121.84095811069254C163.50435741771298,103.69552689003295,90.30465740934146,67.40466444871379,49.41432138057985,89.88431691025114C8.523985351818235,112.36396937178849,-0.05698669733348183,193.61413673618233,-4.34747272190934,234.2392204183793L-8.637958746485198,274.8643041005762" style="mix-blend-mode: multiply;"/><path d="M236.7040574260845,139.98638933135211L203.36696343201848,117.03995843537827C170.02986943795247,94.09352753940443,103.35568144982047,48.200665747456746,105.96875888932219,6.66698920480395C108.58183632882391,-34.866687337848845,180.48217919595936,-72.04117863120675,216.43235062952712,-90.6284242778857L252.38252206309483,-109.21566992456465" style="mix-blend-mode: multiply;"/><path d="M236.7040574260845,139.98638933135211L202.7906887080845,120.67841384648538C168.87731999008452,101.37043836161865,101.05058255408454,62.75448739188519,95.97999700779985,69.73354966399387C90.90941146151518,76.71261193610256,148.59497780494578,129.2866874500534,177.4377609766611,155.5737252070288L206.2805441483764,181.8607629640042" style="mix-blend-mode: multiply;"/><path d="M236.7040574260845,139.98638933135211L196.81700323543404,118.94289778301113C156.92994904478354,97.89940623467014,77.15584066348258,55.812423137988155,-7.56388451814198,39.65127123044006C-92.28360969976654,23.490119322891957,-181.9489516817147,33.25479860447774,-226.78162267268877,38.137138245270634L-271.61429366366286,43.01947788606353" style="mix-blend-mode: multiply;"/><path d="M236.7040574260845,139.98638933135211L197.05740038044112,117.03995843537827C157.41074333479773,94.09352753940443,78.11742924351098,48.20066574745675,-3.39700067135225,6.666989204803985C-84.91143058621547,-34.86668733784878,-168.64697632465518,-72.04117863120663,-210.51474919387502,-90.62842427788557L-252.38252206309488,-109.2156699245645" style="mix-blend-mode: multiply;"/><path d="M236.7040574260845,139.98638933135211L203.5131914507443,119.36418623644518C170.32232547540409,98.74198314153824,103.94059352472368,57.497576951724376,108.50337788056952,46.95360442329703C113.06616223641531,36.40963189486968,188.5734628987873,56.566093027828856,226.32711322997332,66.64432359430843L264.08076356115936,76.72255416078802" style="mix-blend-mode: multiply;"/><path d="M236.7040574260845,139.98638933135211L202.64286146655857,115.97447474910659C168.58166550703262,91.96256016686102,100.45927358798076,43.93873100236994,93.41765815468342,-11.801394690572167C86.3760427213861,-67.54152038351428,140.41520377384333,-130.99794260490742,167.43478430007193,-162.726153715604L194.45436482630055,-194.45436482630058" style="mix-blend-mode: multiply;"/><path d="M236.7040574260845,139.98638933135211L199.25314997921996,115.10414476492083C161.8022425323554,90.22190019848956,86.90042763862631,40.45741106562701,34.66265904081421,-26.88711441645823C-17.5751095569979,-94.23163989854346,-47.14883185889303,-179.1562017298514,-61.9356930098406,-221.61848264550534L-76.72255416078816,-264.0807635611593" style="mix-blend-mode: multiply;"/><path d="M236.7040574260845,139.98638933135211L203.56689577539427,117.65528691713472C170.429734124704,95.32418450291732,104.1554108233235,50.66197967448252,109.43425284116866,17.332682888582287C114.71309485901385,-15.996613897317935,191.54510219608468,-37.99300264068359,229.96110586462012,-48.99119701236642L268.37710953315553,-59.98939138404924" style="mix-blend-mode: multiply;"/><path d="M206.2805441483764,181.8607629640042L174.370985774504,157.2596991416441C142.46142740063155,132.658635319284,78.64231065288669,83.45650767456375,42.82256017040976,98.95709786399243C7.002809687932829,114.45768805342108,-0.8175745292761848,194.66099607699866,-4.727766637880691,234.7626500887874L-8.637958746485198,274.8643041005762" style="mix-blend-mode: multiply;"/><path d="M206.2805441483764,181.8607629640042L171.520159541009,155.5737252070288C136.75977493364158,129.2866874500534,67.23900571890672,76.71261193610256,-6.5917612101700955,69.73354966399387C-80.42252813924692,62.75448739188517,-158.56329278266574,101.37043836161861,-197.63367510437516,120.67841384648533L-236.70405742608455,139.98638933135206" style="mix-blend-mode: multiply;"/><path d="M206.2805441483764,181.8607629640042L172.205700721785,151.24538853853218C138.13085729519358,120.63001411306017,69.98117044201074,59.39926526211613,5.290952589947271,-5.290952589947277C-59.39926526211619,-69.9811704420107,-120.63001411306028,-138.13085729519347,-151.24538853853232,-172.20570072178486L-181.86076296400438,-206.28054414837626" style="mix-blend-mode: multiply;"/><path d="M206.2805441483764,181.8607629640042L174.80245758586747,157.24613959370996C143.32437102335845,132.63151622341576,80.36819789834054,83.40226948282731,50.30140490070971,98.72206569980109C20.234611903078875,114.0418619167749,23.05719903283516,193.91070109131093,24.468492597713304,233.84512067857895L25.879786162591447,273.779540265847" style="mix-blend-mode: multiply;"/><path d="M206.2805441483764,181.8607629640042L173.5199283318252,150.52288579587238C140.759312515274,119.1850086277406,75.23808088217156,56.509254291476985,28.070897830644117,-17.814333462716935C-19.096285220883306,-92.13792121691085,-47.90941969083573,-178.10934238903508,-62.31598692581195,-221.09505297509722L-76.72255416078816,-264.0807635611593" style="mix-blend-mode: multiply;"/><path d="M206.2805441483764,181.8607629640042L177.63374178462377,152.45869946632982C148.98693942087104,123.05663596865547,91.69333469336568,64.25250897330672,99.3769976791521,15.739770158545234C107.0606606649385,-32.77296865621624,179.7215913640167,-70.99431929039045,216.05205671355574,-90.10499460747756L252.38252206309483,-109.21566992456466" style="mix-blend-mode: multiply;"/><path d="M206.2805441483764,181.8607629640042L177.54179518573258,152.26330299753218C148.80304622308873,122.66584303106019,91.325548297801,63.470923098116174,97.78325663170513,12.352898032719581C104.24096496560925,-38.765127032677015,174.6338795587052,-81.80625723052619,209.8303368552532,-103.32682232945079L245.02679415180114,-124.84738742837537" style="mix-blend-mode: multiply;"/><path d="M206.2805441483764,181.8607629640042L171.04315645757788,153.93186982471795C135.80576876677927,126.0029766854317,65.33099338518214,70.14519040685921,-14.859814656309956,41.27472303727272C-95.05062269780205,12.404255667686236,-184.95746339918912,10.521107207085759,-229.91088374988263,9.57953297678552L-274.8643041005762,8.637958746485282" style="mix-blend-mode: multiply;"/><path d="M206.2805441483764,181.8607629640042L177.8336741279995,153.07402794808627C149.38680410762257,124.28729293216834,92.49306406686874,66.71382290033249,102.8424916309986,26.405463842323574C113.19191919512843,-13.902895215685332,190.78451436414198,-36.94614329986729,229.58081194864874,-48.46776734195826L268.37710953315553,-59.98939138404924" style="mix-blend-mode: multiply;"/><path d="M206.2805441483764,181.8607629640042L175.22882765113567,150.46918147122244C144.1771111538949,119.07759997844069,82.07367815941342,56.294436992877166,57.69181936535889,-18.745208423316118C33.30996057130435,-93.78485383950941,46.64967597767677,-181.08098168633248,53.319533680862996,-224.72904560974402L59.989391384049206,-268.37710953315553" style="mix-blend-mode: multiply;"/><path d="M206.2805441483764,181.8607629640042L177.43776097666114,155.5737252070288C148.59497780494578,129.2866874500534,90.90941146151518,76.71261193610256,95.97999700779985,69.73354966399387C101.05058255408454,62.75448739188519,168.87731999008452,101.37043836161865,202.7906887080845,120.67841384648538L236.7040574260845,139.98638933135211" style="mix-blend-mode: multiply;"/><path d="M206.2805441483764,181.8607629640042L171.08378158803927,154.36163881396268C135.8870190277021,126.86251466392116,65.49349390702781,71.86426636383813,-14.155645728312066,48.724052184181346C-93.80478536365194,25.583838004524562,-182.7095395136574,34.301657945294046,-227.16191658866015,38.66056791567879L-271.61429366366286,43.01947788606353" style="mix-blend-mode: multiply;"/><path d="M206.2805441483764,181.8607629640042L171.32417873304635,152.45869946632982C136.36781331771633,123.05663596865547,66.4550824870562,64.25250897330672,-9.988761881522345,15.739770158545271C-86.43260625010089,-32.77296865621618,-169.40756415659789,-70.99431929039034,-210.8950431098464,-90.10499460747741L-252.3825220630949,-109.2156699245645" style="mix-blend-mode: multiply;"/><path d="M206.2805441483764,181.8607629640042L177.77996980334956,154.78292726739673C149.27939545832268,127.70509157078929,92.27824676826894,73.54942017757435,101.91161667039943,56.02638537703832C111.54498657252991,38.50335057650229,187.81287506684464,57.61295236864515,225.946819314002,67.1677532647166L264.08076356115936,76.72255416078802" style="mix-blend-mode: multiply;"/><path d="M206.2805441483764,181.8607629640042L173.31454865799188,157.05817298366705C140.34855316760732,132.2555830033299,74.41656218683819,82.65040304265555,24.510983484199603,95.46397779239017C-25.39459521843899,108.27755254212481,-59.27376164294707,183.50988200226843,-76.2133448552011,221.12604673234023L-93.15292806745515,258.742211462412" style="mix-blend-mode: multiply;"/><path d="M206.2805441483764,181.8607629640042L172.205700721785,156.40240214224158C138.13085729519358,130.944041320479,69.98117044201075,80.02731967695377,5.2909525899473095,84.09728320768248C-59.399265262116124,88.16724673841117,-120.63001411306017,147.2238954433938,-151.24538853853218,176.7522197958851L-181.8607629640042,206.2805441483764" style="mix-blend-mode: multiply;"/><path d="M206.2805441483764,181.8607629640042L176.9096398191638,151.3932157800581C147.5387354899512,120.92566859611206,88.79692683152598,59.99057422821991,86.82589694451333,-2.72861373683088C84.8548670575007,-65.44780170188169,139.65461594190063,-129.95108326409112,167.0544903841006,-162.20272404519585L194.45436482630055,-194.45436482630058" style="mix-blend-mode: multiply;"/><path d="M206.2805441483764,181.8607629640042L171.41612533193756,152.26330299753218C136.55170651549864,122.66584303106019,66.8228688826209,63.47092309811618,-8.395020834075359,12.352898032719594C-83.61291055077162,-38.76512703267699,-164.31985235128639,-81.80625723052616,-204.6733232515438,-103.32682232945075L-245.02679415180114,-124.84738742837533" style="mix-blend-mode: multiply;"/><path d="M76.72255416078801,264.08076356115936L67.16775326471658,220.7898057102926C57.612952368645146,177.4988478594258,38.503350576502285,90.91693215769227,56.02638537703833,12.523380872769645C73.54942017757436,-65.87017041215297,127.70509157078932,-136.07535728026468,154.7829272673968,-171.17795071432053L181.86076296400427,-206.28054414837638" style="mix-blend-mode: multiply;"/><path d="M76.72255416078801,264.08076356115936L64.78651924333546,226.80411631340448C52.85048432588291,189.52746906564963,28.978414490977812,114.9741745701399,14.751662339765609,116.77143132670938C0.5249101885534083,118.56868808327884,-4.056524278965895,196.71649609192752,-6.347241512725547,235.79040009625183L-8.637958746485198,274.8643041005762" style="mix-blend-mode: multiply;"/><path d="M25.879786162591447,273.779540265847L24.468492597713308,233.84512067857898C23.05719903283516,193.91070109131093,20.234611903078875,114.0418619167749,50.301404900709706,98.72206569980112C80.36819789834054,83.40226948282731,143.32437102335845,132.63151622341576,174.80245758586747,157.24613959370996L206.2805441483764,181.8607629640042" style="mix-blend-mode: multiply;"/><path d="M25.879786162591447,273.779540265847L22.63985318815922,228.2171472723645C19.399920213726983,182.65475427888194,12.920054264862515,91.52996829191692,18.60498846843881,1.1705266587498215C24.2899226720151,-89.18891497441727,42.139657028032154,-178.7830122537864,51.06452420604068,-223.58006089347097L59.989391384049206,-268.37710953315553" style="mix-blend-mode: multiply;"/><path d="M25.879786162591447,273.779540265847L25.044767321647285,230.2066652674719C24.209748480703123,186.63379026909672,22.5397107988148,99.48804027234645,60.29016678223203,35.655505240611184C98.04062276564925,-28.177029791124095,175.21157241437206,-68.69634985784437,213.79704723873343,-88.95600989120452L252.38252206309483,-109.21566992456465" style="mix-blend-mode: multiply;"/><path d="M25.879786162591447,273.779540265847L18.735204270069914,230.2066652674719C11.590622377548376,186.63379026909672,-2.698541407494693,99.48804027234645,-49.07559277844242,35.655505240611205C-95.45264414939015,-28.17702979112404,-173.91758310624255,-68.69634985784427,-213.15005258466874,-88.95600989120437L-252.3825220630949,-109.2156699245645" style="mix-blend-mode: multiply;"/><path d="M25.879786162591447,273.779540265847L24.32066535618736,229.1411815812002C22.761544549783267,184.50282289655334,19.643302936975086,95.22610552725966,47.73906604759327,17.18712134523506C75.83482915821145,-60.851862836789536,135.144596992256,-127.65311383154506,164.7994809092783,-161.0537393289228L194.45436482630055,-194.45436482630058" style="mix-blend-mode: multiply;"/><path d="M-8.637958746485198,274.8643041005762L-4.151491913946711,231.1241946776803C0.33497491859177586,187.38408525478442,9.30790858366875,99.90386640899264,52.81132205193209,35.89053740480251C96.31473552019543,-28.122791599387636,174.3486287916451,-68.66923076197615,213.36557542737,-88.94245034327041L252.38252206309483,-109.21566992456465" style="mix-blend-mode: multiply;"/><path d="M-8.637958746485198,274.8643041005762L-4.875593879406639,230.0587109914086C-1.113229012328081,185.253117882241,6.411500721829036,95.64193166390585,40.26022131729333,17.422153509426384C74.10894191275762,-60.79762464505308,134.2816533695291,-127.62599473567683,164.3680090979148,-161.0401797809887L194.45436482630055,-194.45436482630058" style="mix-blend-mode: multiply;"/><path d="M-8.637958746485198,274.8643041005762L-9.579532976785451,229.9108837498827C-10.521107207085706,184.95746339918912,-12.404255667686213,95.05062269780205,-41.27472303727274,14.859814656309979C-70.14519040685927,-65.3309933851821,-126.00297668543182,-135.80576876677918,-153.93186982471812,-171.04315645757774L-181.86076296400438,-206.28054414837626" style="mix-blend-mode: multiply;"/><path d="M-8.637958746485198,274.8643041005762L-8.470685040578585,235.7236681950175C-8.303411334671974,196.58303228945883,-7.968863922858751,118.30176047834148,-22.054692143020407,115.61474503864746C-36.14052036318207,112.92772959895342,-64.64672421531861,185.83497053068268,-78.89982614138688,222.28859099654733L-93.15292806745515,258.742211462412" style="mix-blend-mode: multiply;"/><path d="M-8.637958746485198,274.8643041005762L-4.34747272190934,234.2392204183793C-0.05698669733348183,193.61413673618233,8.523985351818235,112.36396937178849,49.41432138057985,89.88431691025113C90.30465740934146,67.40466444871379,163.50435741771298,103.69552689003295,200.10420742189874,121.84095811069254L236.7040574260845,139.98638933135211" style="mix-blend-mode: multiply;"/><path d="M-8.637958746485198,274.8643041005762L-10.461054965524085,231.1241946776803C-12.28415118456297,187.38408525478442,-15.930343622640741,99.90386640899266,-56.55443750874236,35.89053740480253C-97.17853139484397,-28.12279159938758,-174.78052672896945,-68.66923076197604,-213.58152439603217,-88.94245034327027L-252.3825220630949,-109.2156699245645" style="mix-blend-mode: multiply;"/><path d="M-8.637958746485198,274.8643041005762L-4.727766637880691,234.7626500887874C-0.8175745292761848,194.66099607699866,7.002809687932829,114.45768805342108,42.82256017040976,98.95709786399243C78.64231065288669,83.45650767456375,142.46142740063155,132.658635319284,174.37098577450396,157.2596991416441L206.2805441483764,181.8607629640042" style="mix-blend-mode: multiply;"/><path d="M-8.637958746485198,274.8643041005762L-10.265074157561454,234.2392204183793C-11.89218956863771,193.61413673618233,-15.14642039079022,112.36396937178847,-53.157436837390115,89.88431691025113C-91.16845328399,67.40466444871377,-163.93625535503728,103.69552689003291,-200.3201563905609,121.84095811069248L-236.70405742608455,139.98638933135206" style="mix-blend-mode: multiply;"/><path d="M-8.637958746485198,274.8643041005762L-6.556406047434781,229.13467668257292C-4.474853348384365,183.40504926456967,-0.3117479502835317,91.94579442856309,11.12614373813887,1.405558822941136C22.564035426561272,-89.13467678268081,41.27671340530524,-178.75589315791817,50.633052394677215,-223.56650134553686L59.989391384049206,-268.37710953315553" style="mix-blend-mode: multiply;"/><path d="M-8.637958746485198,274.8643041005762L-8.265305366745249,229.1883810072229C-7.8926519870053005,183.51245791386955,-7.147345227525402,92.16061172716292,-18.494777796575896,2.336433783540324C-29.84221036562639,-87.48774416008224,-53.282382263207275,-175.78425386062077,-65.00246821199771,-219.93250871089003L-76.72255416078816,-264.0807635611593" style="mix-blend-mode: multiply;"/><path d="M-8.637958746485198,274.8643041005762L-4.005263895220904,233.44842247874723C0.6274309560433894,192.03254085691822,9.892820658571978,109.20077761326029,55.3459410431794,76.17715262329558C100.79906142778684,43.15352763333089,182.4399124944731,59.93804089705946,223.26033802781623,68.33029752892374L264.08076356115936,76.72255416078802" style="mix-blend-mode: multiply;"/><path d="M-8.637958746485198,274.8643041005762L-5.033013902685343,229.91088374988263C-1.428069058885488,184.95746339918912,5.781820628714222,95.05062269780205,37.53160758046247,14.85981465630996C69.28139453221071,-65.33099338518214,125.57107874810748,-135.80576876677927,153.71592085605587,-171.0431564575778L181.86076296400427,-206.28054414837638" style="mix-blend-mode: multiply;"/><path d="M-8.637958746485198,274.8643041005762L-6.347241512725546,235.79040009625183C-4.056524278965895,196.71649609192752,0.5249101885534083,118.56868808327884,14.751662339765609,116.77143132670938C28.978414490977812,114.9741745701399,52.85048432588291,189.52746906564963,64.78651924333546,226.80411631340448L76.72255416078801,264.08076356115936" style="mix-blend-mode: multiply;"/><path d="M-8.637958746485198,274.8643041005762L-3.951559570570952,231.73952315943674C0.7348396053432941,188.61474221829732,10.107637957171788,102.36518033601841,56.27681600377858,46.55623108858085C102.44599405038537,-9.252718158856728,185.41155179177045,-34.62105477145298,226.89433066246298,-47.3052230777511L268.37710953315553,-59.989391384049235" style="mix-blend-mode: multiply;"/><path d="M-8.637958746485198,274.8643041005762L-4.005263895220905,231.53035862472748C0.6274309560433883,188.19641314887883,9.892820658571976,101.52852219718147,55.34594104317939,42.93071248695409C100.79906142778681,-15.667097223273297,182.43991249447308,-46.1948256920307,223.26033802781618,-61.4586899264094L264.0807635611593,-76.7225541607881" style="mix-blend-mode: multiply;"/><path d="M-8.637958746485198,274.8643041005762L-5.19940544280329,229.7732326966959C-1.760852139121382,184.68216129281566,5.116254468242434,94.50001848505514,34.64748755175139,12.473863067739947C64.17872063526033,-69.55229234957524,116.36408019491442,-143.42246037644506,142.45675997474146,-180.35754438987996L168.5494397545685,-217.2926284033149" style="mix-blend-mode: multiply;"/><path d="M-8.637958746485198,274.8643041005762L-4.34747272190934,230.73956068509548C-0.05698669733348183,186.61481726961472,8.523985351818235,98.36533043865326,49.41432138057985,29.22354819999856C90.30465740934146,-39.91823403865616,163.50435741771298,-89.95231168500412,200.10420742189874,-114.96935050817812L236.7040574260845,-139.9863893313521" style="mix-blend-mode: multiply;"/><path d="M-93.15292806745515,258.742211462412L-78.89982614138688,222.28859099654733C-64.64672421531861,185.83497053068268,-36.14052036318207,112.92772959895342,-22.054692143020407,115.61474503864746C-7.968863922858751,118.30176047834148,-8.303411334671974,196.58303228945883,-8.470685040578585,235.7236681950175L-8.637958746485198,274.8643041005762" style="mix-blend-mode: multiply;"/><path d="M-93.15292806745515,258.742211462412L-76.2133448552011,221.1260467323402C-59.27376164294707,183.50988200226843,-25.39459521843899,108.27755254212481,24.510983484199603,95.46397779239017C74.41656218683819,82.65040304265555,140.34855316760732,132.2555830033299,173.31454865799185,157.05817298366705L206.2805441483764,181.8607629640042" style="mix-blend-mode: multiply;"/><path d="M-93.15292806745515,258.742211462412L-81.94663318284451,217.48759132123305C-70.74033829823385,176.2329711800542,-48.32774852901256,93.72373089769638,-74.86601419495251,32.39741733320029C-101.40427986089247,-28.92889623129579,-176.8934009619937,-69.07228307793014,-214.6379615125443,-89.14397650124732L-252.3825220630949,-109.2156699245645" style="mix-blend-mode: multiply;"/><path d="M-181.8607629640042,206.2805441483764L-151.24538853853218,176.7522197958851C-120.63001411306017,147.2238954433938,-59.399265262116124,88.16724673841117,5.2909525899473095,84.09728320768247C69.98117044201075,80.02731967695377,138.13085729519358,130.944041320479,172.20570072178498,156.4024021422416L206.2805441483764,181.8607629640042" style="mix-blend-mode: multiply;"/><path d="M-217.2926284033149,168.54943975456854L-182.42815231708013,139.40995293328388C-147.56367623084535,110.2704661119992,-77.83472405837581,51.991492469429865,-23.41667433706255,-18.163834500180695C31.001375384250707,-88.31916146979125,70.10852265440768,-170.35084176644304,89.66209628948616,-211.36668191476892L109.21566992456465,-252.38252206309483" style="mix-blend-mode: multiply;"/><path d="M-217.2926284033149,168.54943975456854L-186.94812971692588,141.19953858501552C-156.60363103053683,113.84963741546245,-95.91463365775878,59.149835076356375,-101.76294926772214,12.85565012983421C-107.61126487768547,-33.43853481668796,-179.9968934703902,-71.32710237062624,-216.18970776674257,-90.27138614759536L-252.3825220630949,-109.2156699245645" style="mix-blend-mode: multiply;"/><path d="M-236.70405742608455,139.98638933135206L-197.63367510437513,120.67841384648533C-158.56329278266574,101.37043836161861,-80.42252813924692,62.75448739188517,-6.5917612101700955,69.73354966399386C67.23900571890672,76.71261193610256,136.75977493364158,129.2866874500534,171.52015954100898,155.5737252070288L206.2805441483764,181.8607629640042" style="mix-blend-mode: multiply;"/><path d="M-236.70405742608455,139.98638933135206L-202.4854414432799,115.82664750758057C-168.26682546047525,91.66690568380909,-99.82959349486596,43.347422036266146,-90.6890444178526,-14.363733543688577C-81.54849534083924,-72.0748891236433,-131.7046291524218,-139.1777166360098,-156.7826960582131,-172.729130392193L-181.86076296400438,-206.28054414837626" style="mix-blend-mode: multiply;"/><path d="M-236.70405742608455,139.98638933135206L-200.3201563905609,121.84095811069248C-163.93625535503728,103.69552689003291,-91.16845328399,67.40466444871377,-53.157436837390115,89.88431691025112C-15.14642039079022,112.36396937178847,-11.89218956863771,193.61413673618233,-10.265074157561454,234.2392204183793L-8.637958746485198,274.8643041005762" style="mix-blend-mode: multiply;"/><path d="M-236.70405742608455,139.98638933135206L-197.05740038044118,117.03995843537821C-157.4107433347978,94.09352753940438,-78.117429243511,48.200665747456725,3.397000671352226,6.66698920480394C84.91143058621546,-34.866687337848845,168.64697632465513,-72.04117863120675,210.514749193875,-90.6284242778857L252.38252206309483,-109.21566992456465" style="mix-blend-mode: multiply;"/><path d="M-236.70405742608455,139.98638933135206L-197.14934697933234,116.8445619665806C-157.5946365325801,93.70273460180913,-78.48521563907569,47.41907987226619,1.8032596239052623,3.280117078978281C82.09173488688621,-40.85884571430962,163.55926451934369,-82.8531165713425,204.2930293355724,-103.85025199985893L245.02679415180114,-124.84738742837537" style="mix-blend-mode: multiply;"/><path d="M-236.70405742608455,139.98638933135206L-203.36696343201854,117.03995843537821C-170.02986943795253,94.0935275394044,-103.3556814498205,48.20066574745673,-105.96875888932222,6.666989204803971C-108.58183632882395,-34.86668733784879,-180.48217919595945,-72.04117863120665,-216.43235062952718,-90.62842427788557L-252.3825220630949,-109.2156699245645" style="mix-blend-mode: multiply;"/><path d="M-271.61429366366286,43.019477886063534L-226.78162267268877,38.13713824527064C-181.9489516817147,33.25479860447775,-92.28360969976654,23.49011932289196,-7.563884518141985,39.65127123044006C77.15584066348258,55.812423137988155,156.92994904478354,97.89940623467014,196.817003235434,118.94289778301113L236.7040574260845,139.98638933135211" style="mix-blend-mode: multiply;"/><path d="M-271.61429366366286,43.019477886063534L-226.58564186472617,35.02211250457168C-181.55699006578945,27.02474712307983,-91.49968646791604,11.030016360096122,-4.166883846789744,-14.342508275008575C83.16591877433653,-39.71503291011327,167.7742204187157,-74.46535141733897,210.07837124090528,-91.8405106709518L252.38252206309483,-109.21566992456465" style="mix-blend-mode: multiply;"/><path d="M-271.61429366366286,43.019477886063534L-227.16191658866015,38.66056791567879C-182.7095395136574,34.301657945294046,-93.80478536365194,25.58383800452457,-14.155645728312066,48.724052184181346C65.49349390702781,71.86426636383813,135.8870190277021,126.86251466392116,171.08378158803927,154.36163881396268L206.2805441483764,181.8607629640042" style="mix-blend-mode: multiply;"/><path d="M-271.61429366366286,43.019477886063534L-232.89520491630353,35.02211250457168C-194.1761161689442,27.024747123079834,-116.73793867422552,11.030016360096129,-113.53264340746419,-14.34250827500854C-110.32734814070285,-39.715032910113216,-181.35493510189886,-74.46535141733885,-216.8687285824969,-91.84051067095167L-252.3825220630949,-109.2156699245645" style="mix-blend-mode: multiply;"/><path d="M-271.61429366366286,43.019477886063534L-226.43941384600035,37.346340305638584C-181.26453402833783,31.673202725213645,-90.9147743930128,20.326927564363757,-1.6322648555424262,25.944106943484503C87.65024468192793,31.561286322605252,175.86550412154364,54.14192024169663,219.97313384135148,65.43223720124233L264.08076356115936,76.72255416078802" style="mix-blend-mode: multiply;"/><path d="M-274.8643041005762,8.637958746485282L-229.91088374988263,9.57953297678552C-184.95746339918912,10.521107207085759,-95.05062269780205,12.404255667686236,-14.859814656309956,41.27472303727273C65.33099338518214,70.14519040685921,135.80576876677927,126.0029766854317,171.04315645757785,153.93186982471798L206.2805441483764,181.8607629640042" style="mix-blend-mode: multiply;"/><path d="M-274.8643041005762,8.637958746485282L-230.0587109914086,4.87559387940671C-185.253117882241,1.1132290123281383,-95.64193166390585,-6.411500721829005,-17.42215350942639,-40.260221317293315C60.79762464505307,-74.10894191275763,127.6259947356768,-134.2816533695291,161.04017978098867,-164.36800909791484L194.45436482630055,-194.45436482630058" style="mix-blend-mode: multiply;"/><path d="M-274.8643041005762,8.637958746485282L-229.33460902594868,5.941077565678409C-183.80491395132117,3.2441963848715365,-92.74552380206613,-2.1495659767422084,-4.871052774787633,-21.791837421917197C83.00341825249087,-41.434108867092185,167.69297015779284,-75.32488939582842,210.03774611044386,-92.27027966019654L252.38252206309483,-109.21566992456465" style="mix-blend-mode: multiply;"/><path d="M-274.8643041005762,8.637958746485282L-235.55222547863488,5.745681096880776C-196.24014685669354,2.8534034472762695,-117.61598961281094,-2.931151851932743,-112.6430712880151,-25.178709547742844C-107.67015296321927,-47.42626724355295,-176.34847355751023,-86.13682733596414,-210.6876338546557,-105.49210738216975L-245.02679415180117,-124.84738742837533" style="mix-blend-mode: multiply;"/><path d="M-252.3825220630949,-109.2156699245645L-210.1725403671866,-93.33728607153732C-167.96255867127834,-77.45890221851015,-83.54259527946175,-45.70213451245579,2.534618991247285,-40.28661521849307C88.61183326195633,-34.87109592453034,176.3462984115578,-55.79682504265923,220.21353098635856,-66.25968960172368L264.0807635611593,-76.72255416078812" style="mix-blend-mode: multiply;"/><path d="M-252.3825220630949,-109.2156699245645L-213.58152439603217,-88.94245034327025C-174.78052672896945,-68.66923076197604,-97.17853139484397,-28.12279159938758,-56.55443750874236,35.89053740480254C-15.930343622640741,99.90386640899266,-12.28415118456297,187.38408525478442,-10.461054965524085,231.1241946776803L-8.637958746485198,274.8643041005762" style="mix-blend-mode: multiply;"/><path d="M-252.3825220630949,-109.2156699245645L-216.18970776674254,-90.27138614759535C-179.9968934703902,-71.32710237062624,-107.61126487768547,-33.43853481668796,-101.76294926772214,12.855650129834212C-95.91463365775878,59.14983507635639,-156.60363103053683,113.84963741546245,-186.94812971692588,141.19953858501552L-217.2926284033149,168.54943975456854" style="mix-blend-mode: multiply;"/><path d="M-252.3825220630949,-109.2156699245645L-212.10835403764403,-95.53303567031615C-171.8341860121932,-81.85040141606781,-91.28584996129149,-54.485132907571135,-31.01948463001489,-78.34627493065953C29.246880701261702,-102.20741695374791,69.23127531291318,-177.29496950842136,89.22347261873891,-214.8387457857581L109.21566992456465,-252.38252206309483" style="mix-blend-mode: multiply;"/><path d="M-252.3825220630949,-109.2156699245645L-213.7970472387335,-95.80049839785055C-175.21157241437209,-82.38532687113663,-98.0406227656493,-55.554983817708745,-60.290166782232085,-82.98229554125582C-22.539710798814863,-110.40960726480291,-24.20974848070323,-192.09457376532495,-25.044767321647416,-232.93705701558596L-25.879786162591603,-273.779540265847" style="mix-blend-mode: multiply;"/><path d="M-252.3825220630949,-109.2156699245645L-210.31876838591242,-93.74345001858451C-168.25501470872993,-78.27123011260456,-84.12750735436497,-47.326790300644625,-1.8947806286936004e-14,-47.32679030064465C84.12750735436494,-47.32679030064467,168.25501470872987,-78.27123011260467,210.31876838591234,-93.74345001858465L252.38252206309483,-109.21566992456465" style="mix-blend-mode: multiply;"/><path d="M-252.3825220630949,-109.2156699245645L-210.11883604253663,-93.12812153682808C-167.85515002197843,-77.04057314909167,-83.32777798086194,-44.865476373618854,3.4654939518464687,-36.66109661686631C90.25876588455488,-28.45671686011377,179.3179377088552,-44.2230541220815,223.8475236210054,-52.10622275306537L268.37710953315553,-59.98939138404924" style="mix-blend-mode: multiply;"/><path d="M-252.3825220630949,-109.2156699245645L-211.04287035137236,-94.80893370485622C-169.7032186396498,-80.40219748514797,-87.02391521620468,-51.58872504573142,-12.551100734638775,-65.79517419602077C61.92171374692713,-80.00162334631011,128.18803928661384,-137.22799408630536,161.3212020564572,-165.84117945630297L194.45436482630055,-194.45436482630058" style="mix-blend-mode: multiply;"/><path d="M-252.3825220630949,-109.2156699245645L-211.7237200450592,-95.33705486235351C-171.0649180270235,-81.45843980014256,-89.74731399095212,-53.70120967572061,-24.352495425210943,-74.94927425930729C41.042323140530236,-96.19733884289394,90.51435623594118,-166.45069813448922,115.25037278364664,-201.57737778028684L139.98638933135211,-236.7040574260845" style="mix-blend-mode: multiply;"/><path d="M-252.3825220630949,-109.2156699245645L-210.51474919387502,-90.62842427788557C-168.64697632465518,-72.04117863120665,-84.9114305862155,-34.86668733784878,-3.3970006713522594,6.666989204803983C78.11742924351097,48.20066574745675,157.41074333479773,94.09352753940443,197.0574003804411,117.03995843537827L236.7040574260845,139.98638933135211" style="mix-blend-mode: multiply;"/><path d="M-252.3825220630949,-109.2156699245645L-210.8950431098464,-90.10499460747741C-169.40756415659789,-70.99431929039034,-86.43260625010089,-32.77296865621618,-9.988761881522342,15.739770158545275C66.4550824870562,64.25250897330672,136.36781331771633,123.05663596865547,171.32417873304635,152.45869946632982L206.2805441483764,181.8607629640042" style="mix-blend-mode: multiply;"/><path d="M-252.3825220630949,-109.2156699245645L-216.86872858249686,-91.84051067095167C-181.35493510189886,-74.46535141733885,-110.32734814070285,-39.715032910113216,-113.53264340746419,-14.34250827500854C-116.73793867422552,11.030016360096129,-194.1761161689442,27.024747123079834,-232.89520491630353,35.02211250457168L-271.61429366366286,43.019477886063534" style="mix-blend-mode: multiply;"/><path d="M-252.3825220630949,-109.2156699245645L-210.1725403671866,-91.4192222175176C-167.96255867127834,-73.62277451047073,-83.54259527946175,-38.02987909637699,2.5346189912472945,-7.0401750821515705C88.61183326195635,23.94952893207385,176.34629841155785,50.33604154643094,220.2135309863586,63.52929785360948L264.08076356115936,76.72255416078802" style="mix-blend-mode: multiply;"/><path d="M-252.3825220630949,-109.2156699245645L-214.63796151254428,-89.14397650124731C-176.8934009619937,-69.07228307793014,-101.40427986089247,-28.928896231295784,-74.86601419495251,32.397417333200295C-48.32774852901256,93.72373089769638,-70.74033829823385,176.2329711800542,-81.94663318284451,217.48759132123305L-93.15292806745515,258.742211462412" style="mix-blend-mode: multiply;"/><path d="M-252.3825220630949,-109.2156699245645L-214.43258183871095,-95.67926368904195C-176.482641614327,-82.14285745351943,-100.58276116555913,-55.07004498247435,-71.306099848508,-80.88089392190683C-42.02943853145688,-106.69174286133928,-59.37599634612252,-185.38625321124928,-68.04927525345535,-224.7335083862043L-76.72255416078816,-264.0807635611593" style="mix-blend-mode: multiply;"/><path d="M-252.3825220630949,-109.2156699245645L-216.43235062952715,-90.62842427788557C-180.48217919595945,-72.04117863120665,-108.58183632882395,-34.86668733784879,-105.96875888932222,6.666989204803971C-103.3556814498205,48.20066574745673,-170.02986943795253,94.0935275394044,-203.36696343201854,117.03995843537821L-236.70405742608455,139.98638933135206" style="mix-blend-mode: multiply;"/><path d="M-252.3825220630949,-109.2156699245645L-210.51474919387502,-94.12808401116935C-168.64697632465518,-79.04049809777425,-84.9114305862155,-48.86532627098399,-3.3970006713522594,-53.99377950544859C78.11742924351097,-59.122232739913194,157.41074333479773,-99.55431103563264,197.0574003804411,-119.77035018349234L236.7040574260845,-139.9863893313521" style="mix-blend-mode: multiply;"/><path d="M-252.3825220630949,-109.2156699245645L-212.72368251940046,-95.7329680136919C-173.06484297570606,-82.25026610281934,-93.74716388831725,-55.28486228107417,-41.68517831379324,-81.811768882506C10.376807260730779,-108.33867548393785,35.183099322389985,-188.35789250854668,47.586245353219596,-228.36750102085114L59.9893913840492,-268.37710953315553" style="mix-blend-mode: multiply;"/><path d="M-252.3825220630949,-109.2156699245645L-213.1500525846687,-88.95600989120437C-173.91758310624255,-68.69634985784427,-95.45264414939015,-28.17702979112404,-49.07559277844242,35.65550524061121C-2.698541407494693,99.48804027234645,11.590622377548376,186.63379026909672,18.73520427006991,230.20666526747186L25.879786162591447,273.779540265847" style="mix-blend-mode: multiply;"/><path d="M-252.3825220630949,-109.2156699245645L-210.41071498480358,-93.93884648738215C-168.4389079065123,-78.66202305019983,-84.49529374992966,-48.10837617583516,-1.5937410474469829,-50.71366242647031C81.30781165503569,-53.31894867710545,163.1673029034184,-89.0831680527404,204.0970485276098,-106.96527774055788L245.02679415180114,-124.84738742837537" style="mix-blend-mode: multiply;"/><path d="M-252.3825220630949,-109.2156699245645L-216.5363848385986,-93.93884648738215C-180.69024761410233,-78.66202305019983,-108.99797316510978,-48.10837617583516,-107.77201851322748,-50.7136624264703C-106.5460638613452,-53.31894867710543,-175.78642900657317,-89.08316805274039,-210.40661157918717,-106.96527774055785L-245.02679415180117,-124.84738742837533" style="mix-blend-mode: multiply;"/><path d="M-245.02679415180117,-124.84738742837533L-204.82115049306972,-108.03076142682956C-164.6155068343383,-91.21413542528377,-84.20421951687543,-57.580883422192244,-10.957359687191806,-69.18204632184644C62.28950014249182,-80.78320922150066,128.37193248439618,-137.6187870239006,161.41314865534835,-166.0365759251006L194.45436482630055,-194.45436482630058" style="mix-blend-mode: multiply;"/><path d="M-245.02679415180117,-124.84738742837533L-210.6876338546557,-105.49210738216972C-176.34847355751023,-86.13682733596414,-107.67015296321927,-47.42626724355295,-112.64307128801511,-25.178709547742844C-117.61598961281094,-2.931151851932743,-196.24014685669354,2.8534034472762695,-235.55222547863488,5.745681096880776L-274.8643041005762,8.637958746485282" style="mix-blend-mode: multiply;"/><path d="M-245.02679415180117,-124.84738742837533L-204.09704852760981,-106.96527774055785C-163.16730290341843,-89.08316805274039,-81.3078116550357,-53.318948677105446,1.593741047446959,-50.71366242647033C84.49529374992962,-48.10837617583522,168.43890790651224,-78.66202305019993,210.41071498480355,-93.93884648738229L252.38252206309483,-109.21566992456465" style="mix-blend-mode: multiply;"/><path d="M-245.02679415180117,-124.84738742837533L-204.6733232515438,-103.32682232945075C-164.3198523512864,-81.80625723052616,-83.61291055077163,-38.76512703267699,-8.395020834075362,12.352898032719592C66.8228688826209,63.47092309811618,136.55170651549864,122.66584303106019,171.41612533193754,152.26330299753218L206.2805441483764,181.8607629640042" style="mix-blend-mode: multiply;"/><path d="M-245.02679415180117,-124.84738742837533L-206.50196266109788,-108.95479573566524C-167.97713117039459,-93.06220404295516,-90.92746818898799,-61.27702065753499,-40.091437266346254,-85.19864100833169C10.744593656295464,-109.12026135912839,35.36699252017233,-188.74868544614196,47.67819195211077,-228.56289748964875L59.9893913840492,-268.37710953315553" style="mix-blend-mode: multiply;"/><path d="M-245.02679415180117,-124.84738742837533L-204.188995126501,-107.16067420935549C-163.35119610120077,-89.47396099033564,-81.67559805060039,-54.10053455229598,-9.473903143468002e-15,-54.10053455229599C81.67559805060039,-54.10053455229599,163.35119610120077,-89.47396099033568,204.18899512650094,-107.16067420935552L245.02679415180114,-124.84738742837537" style="mix-blend-mode: multiply;"/><path d="M-245.02679415180117,-124.84738742837533L-210.40661157918717,-106.96527774055785C-175.78642900657317,-89.08316805274039,-106.5460638613452,-53.31894867710543,-107.77201851322748,-50.7136624264703C-108.99797316510978,-48.10837617583516,-180.69024761410233,-78.66202305019983,-216.53638483859865,-93.93884648738215L-252.3825220630949,-109.2156699245645" style="mix-blend-mode: multiply;"/><path d="M-181.86076296400438,-206.28054414837626L-151.39321578005828,-176.90963981916366C-120.92566859611219,-147.5387354899511,-59.99057422821999,-88.79692683152594,2.7286137368308374,-86.82589694451332C65.44780170188166,-84.8548670575007,129.9510832640911,-139.65461594190063,162.20272404519582,-167.0544903841006L194.45436482630055,-194.45436482630058" style="mix-blend-mode: multiply;"/><path d="M-181.86076296400438,-206.28054414837626L-153.93186982471812,-171.04315645757768C-126.00297668543182,-135.80576876677918,-70.14519040685927,-65.33099338518208,-41.27472303727274,14.859814656309984C-12.404255667686213,95.05062269780205,-10.521107207085706,184.95746339918912,-9.579532976785451,229.9108837498827L-8.637958746485198,274.8643041005762" style="mix-blend-mode: multiply;"/><path d="M-181.86076296400438,-206.28054414837626L-150.86509462256097,-172.729130392193C-119.86942628111758,-139.17771663600976,-57.87808959823079,-72.0748891236433,11.882713800117358,-14.363733543688568C81.6435171984655,43.34742203626616,159.17378731227498,91.66690568380915,197.93892236917975,115.82664750758063L236.7040574260845,139.98638933135211" style="mix-blend-mode: multiply;"/><path d="M-181.86076296400438,-206.28054414837626L-156.7826960582131,-172.729130392193C-131.7046291524218,-139.1777166360098,-81.54849534083924,-72.0748891236433,-90.6890444178526,-14.363733543688577C-99.82959349486596,43.347422036266146,-168.26682546047525,91.66690568380909,-202.4854414432799,115.82664750758057L-236.70405742608455,139.98638933135206" style="mix-blend-mode: multiply;"/><path d="M-181.86076296400438,-206.28054414837626L-151.24538853853232,-172.20570072178486C-120.63001411306028,-138.13085729519347,-59.39926526211619,-69.9811704420107,5.290952589947271,-5.290952589947281C69.98117044201074,59.39926526211613,138.13085729519358,120.63001411306017,172.20570072178498,151.24538853853218L206.2805441483764,181.8607629640042" style="mix-blend-mode: multiply;"/><path d="M-181.86076296400438,-206.28054414837626L-150.66911381459835,-175.84415613289195C-119.47746466519233,-145.4077681174077,-57.09416636638027,-84.53499208643915,15.279714471469598,-68.3575130491372C87.65359530931947,-52.18003401183527,170.01805868620713,-80.69785196819996,211.200290374651,-94.9567609463823L252.38252206309483,-109.21566992456465" style="mix-blend-mode: multiply;"/><path d="M-76.72255416078816,-264.0807635611593L-62.31598692581195,-221.09505297509722C-47.90941969083573,-178.10934238903508,-19.096285220883306,-92.13792121691085,28.070897830644117,-17.814333462716935C75.23808088217154,56.509254291476985,140.759312515274,119.1850086277406,173.5199283318252,150.5228857958724L206.2805441483764,181.8607629640042" style="mix-blend-mode: multiply;"/><path d="M-76.72255416078816,-264.0807635611593L-65.00246821199771,-219.93250871089003C-53.282382263207275,-175.78425386062077,-29.84221036562639,-87.48774416008224,-18.494777796575896,2.336433783540324C-7.147345227525402,92.16061172716292,-7.8926519870053005,183.51245791386955,-8.265305366745249,229.1883810072229L-8.637958746485198,274.8643041005762" style="mix-blend-mode: multiply;"/><path d="M-76.72255416078816,-264.0807635611593L-68.04927525345535,-224.7335083862043C-59.37599634612252,-185.38625321124928,-42.02943853145688,-106.69174286133928,-71.306099848508,-80.88089392190683C-100.58276116555912,-55.07004498247435,-176.482641614327,-82.14285745351943,-214.43258183871095,-95.67926368904195L-252.38252206309488,-109.2156699245645" style="mix-blend-mode: multiply;"/><path d="M-76.72255416078816,-264.0807635611593L-61.53977985850221,-224.11817990444786C-46.35700555621626,-184.1555962477364,-15.991456951644352,-104.23042893431352,41.525153664012926,-70.21520023812853C99.0417642796702,-36.19997154194351,183.70943690641286,-48.09468146299637,226.0432732197842,-54.0420364235228L268.37710953315553,-59.98939138404924" style="mix-blend-mode: multiply;"/><path d="M-76.72255416078816,-264.0807635611593L-63.14466386102475,-226.3271132299733C-49.56677356126135,-188.57346289878728,-22.41099296173452,-113.06616223641531,13.707164286955523,-108.50337788056949C49.82532153564557,-103.94059352472368,94.90585543349884,-170.32232547540409,117.44612238242549,-203.5131914507443L139.98638933135211,-236.7040574260845" style="mix-blend-mode: multiply;"/><path d="M-76.72255416078816,-264.0807635611593L-61.9356930098406,-221.61848264550534C-47.14883185889303,-179.1562017298514,-17.575109556997905,-94.23163989854346,34.662659040814205,-26.88711441645822C86.90042763862631,40.457411065627014,161.8022425323554,90.22190019848956,199.25314997921996,115.10414476492083L236.7040574260845,139.98638933135211" style="mix-blend-mode: multiply;"/><path d="M-25.8797861625916,-273.779540265847L-25.044767321647413,-232.937057015586C-24.20974848070323,-192.09457376532495,-22.539710798814863,-110.40960726480291,-60.29016678223207,-82.98229554125582C-98.04062276564929,-55.554983817708745,-175.21157241437209,-82.38532687113663,-213.79704723873348,-95.80049839785056L-252.38252206309488,-109.2156699245645" style="mix-blend-mode: multiply;"/><path d="M-25.8797861625916,-273.779540265847L-18.73520427007004,-232.937057015586C-11.590622377548485,-192.09457376532495,2.6985414074946283,-110.40960726480291,49.07559277844236,-82.98229554125585C95.4526441493901,-55.5549838177088,173.91758310624246,-82.38532687113673,213.15005258466863,-95.80049839785069L252.38252206309483,-109.21566992456465" style="mix-blend-mode: multiply;"/><path d="M-25.8797861625916,-273.779540265847L-18.535271926694282,-232.32172853382954C-11.190757690796966,-190.86391680181205,3.4982707809976645,-107.94829333777714,52.54108673028886,-72.31660185747752C101.58390267958004,-36.68491037717789,184.98050610636778,-48.337150880613564,226.6788078197617,-54.16327113233141L268.37710953315553,-59.98939138404924" style="mix-blend-mode: multiply;"/></g></svg>