<svg viewBox="-375,-375,750,750" xmlns="http://www.w3.org/2000/svg" xmlns:xlink="http://www.w3.org/1999/xlink"><g font-family="sans-serif" font-size="10"><g transform="rotate(-88.2) translate(275,0)"><text dy="0.31em" x="6" text-anchor="start">100luz<title>flare.100luz
0 outgoing
0 incoming</title></text></g><g transform="rotate(-84.6) translate(275,0)"><text dy="0.31em" x="6" text-anchor="start">Alex<title>flare.Alex
0 outgoing
0 incoming</title></text></g><g transform="rotate(-81) translate(275,0)"><text dy="0.31em" x="6" text-anchor="start">Alina<title>flare.Alina
0 outgoing
0 incoming</title></text></g><g transform="rotate(-77.4) translate(275,0)"><text dy="0.31em" x="6" text-anchor="start">Allen<title>flare.Allen
0 outgoing
0 incoming</title></text></g><g transform="rotate(-73.8) translate(275,0)"><text dy="0.31em" x="6" text-anchor="start">Ariel Malka<title>flare.Ariel Malka
3 outgoing
3 incoming</title></text></g><g transform="rotate(-70.2) translate(275,0)"><text dy="0.31em" x="6" text-anchor="start">Bertrand Saint-Guillain<title>flare.Bertrand Saint-Guillain
0 outgoing
0 incoming</title></text></g><g transform="rotate(-66.6) translate(275,0)"><text dy="0.31em" x="6" text-anchor="start">Brian<title>flare.Brian
0 outgoing
0 incoming</title></text></g><g transform="rotate(-63) translate(275,0)"><text dy="0.31em" x="6" text-anchor="start">Dan<title>flare.Dan
1 outgoing
1 incoming</title></text></g><g transform="rotate(-59.39999999999999) translate(275,0)"><text dy="0.31em" x="6" text-anchor="start">Dara<title>flare.Dara
3 outgoing
3 incoming</title></text></g><g transform="rotate(-55.800000000000004) translate(275,0)"><text dy="0.31em" x="6" text-anchor="start">Dimitre<title>flare.Dimitre
3 outgoing
3 incoming</title></text></g><g transform="rotate(-52.2) translate(275,0)"><text dy="0.31em" x="6" text-anchor="start">Elrick<title>flare.Elrick
0 outgoing
0 incoming</title></text></g><g transform="rotate(-48.6) translate(275,0)"><text dy="0.31em" x="6" text-anchor="start">Frederik De Bleser<title>flare.Frederik De Bleser
0 outgoing
0 incoming</title></text></g><g transform="rotate(-45) translate(275,0)"><text dy="0.31em" x="6" text-anchor="start">Glen Murphy<title>flare.Glen Murphy
0 outgoing
0 incoming</title></text></g><g transform="rotate(-41.4) translate(275,0)"><text dy="0.31em" x="6" text-anchor="start">Jeff Berg<title>flare.Jeff Berg
0 outgoing
0 incoming</title></text></g><g transform="rotate(-37.800000000000004) translate(275,0)"><text dy="0.31em" x="6" text-anchor="start">JimQode<title>flare.JimQode
0 outgoing
0 incoming</title></text></g><g transform="rotate(-34.2) translate(275,0)"><text dy="0.31em" x="6" text-anchor="start">Jordan J<title>flare.Jordan J
4 outgoing
4 incoming</title></text></g><g transform="rotate(-30.599999999999987) translate(275,0)"><text dy="0.31em" x="6" text-anchor="start">Josh Nimoy<title>flare.Josh Nimoy
3 outgoing
3 incoming</title></text></g><g transform="rotate(-27) translate(275,0)"><text dy="0.31em" x="6" text-anchor="start">Koenie<title>flare.Koenie
5 outgoing
5 incoming</title></text></g><g transform="rotate(-23.39999999999999) translate(275,0)"><text dy="0.31em" x="6" text-anchor="start">Martin<title>flare.Martin
19 outgoing
19 incoming</title></text></g><g transform="rotate(-19.799999999999997) translate(275,0)"><text dy="0.31em" x="6" text-anchor="start">Mike Davis<title>flare.Mike Davis
6 outgoing
6 incoming</title></text></g><g transform="rotate(-16.200000000000003) translate(275,0)"><text dy="0.31em" x="6" text-anchor="start">Processing<title>flare.Processing
0 outgoing
0 incoming</title></text></g><g transform="rotate(-12.600000000000009) translate(275,0)"><text dy="0.31em" x="6" text-anchor="start">REAS<title>flare.REAS
18 outgoing
18 incoming</title></text></g><g transform="rotate(-9) translate(275,0)"><text dy="0.31em" x="6" text-anchor="start">Takachin<title>flare.Takachin
0 outgoing
0 incoming</title></text></g><g transform="rotate(-5.400000000000006) translate(275,0)"><text dy="0.31em" x="6" text-anchor="start">WillisMorse<title>flare.WillisMorse
0 outgoing
0 incoming</title></text></g><g transform="rotate(-1.7999999999999972) translate(275,0)"><text dy="0.31em" x="6" text-anchor="start">Wim_Van_der_Vurst<title>flare.Wim_Van_der_Vurst
0 outgoing
0 incoming</title></text></g><g transform="rotate(1.7999999999999972) translate(275,0)"><text dy="0.31em" x="6" text-anchor="start">XemonerdX<title>flare.XemonerdX
6 outgoing
6 incoming</title></text></g><g transform="rotate(5.400000000000006) translate(275,0)"><text dy="0.31em" x="6" text-anchor="start">Xu1<title>flare.Xu1
0 outgoing
0 incoming</title></text></g><g transform="rotate(9.000000000000014) translate(275,0)"><text dy="0.31em" x="6" text-anchor="start">[rocha]<title>flare.[rocha]
0 outgoing
0 incoming</title></text></g><g transform="rotate(12.599999999999994) translate(275,0)"><text dy="0.31em" x="6" text-anchor="start">_cory<title>flare._cory
4 outgoing
4 incoming</title></text></g><g transform="rotate(16.19999999999999) translate(275,0)"><text dy="0.31em" x="6" text-anchor="start">_martin<title>flare._martin
12 outgoing
12 incoming</title></text></g><g transform="rotate(19.799999999999997) translate(275,0)"><text dy="0.31em" x="6" text-anchor="start">_warren<title>flare._warren
3 outgoing
3 incoming</title></text></g><g transform="rotate(23.400000000000006) translate(275,0)"><text dy="0.31em" x="6" text-anchor="start">adrien<title>flare.adrien
6 outgoing
6 incoming</title></text></g><g transform="rotate(27) translate(275,0)"><text dy="0.31em" x="6" text-anchor="start">anurag<title>flare.anurag
0 outgoing
0 incoming</title></text></g><g transform="rotate(30.60000000000001) translate(275,0)"><text dy="0.31em" x="6" text-anchor="start">arielm<title>flare.arielm
3 outgoing
3 incoming</title></text></g><g transform="rotate(34.19999999999999) translate(275,0)"><text dy="0.31em" x="6" text-anchor="start">artelse<title>flare.artelse
0 outgoing
0 incoming</title></text></g><g transform="rotate(37.79999999999998) translate(275,0)"><text dy="0.31em" x="6" text-anchor="start">barikan<title>flare.barikan
0 outgoing
0 incoming</title></text></g><g transform="rotate(41.400000000000006) translate(275,0)"><text dy="0.31em" x="6" text-anchor="start">benelek<title>flare.benelek
18 outgoing
18 incoming</title></text></g><g transform="rotate(45) translate(275,0)"><text dy="0.31em" x="6" text-anchor="start">bzor<title>flare.bzor
0 outgoing
0 incoming</title></text></g><g transform="rotate(48.599999999999994) translate(275,0)"><text dy="0.31em" x="6" text-anchor="start">damille<title>flare.damille
0 outgoing
0 incoming</title></text></g><g transform="rotate(52.20000000000002) translate(275,0)"><text dy="0.31em" x="6" text-anchor="start">depth<title>flare.depth
0 outgoing
0 incoming</title></text></g><g transform="rotate(55.80000000000001) translate(275,0)"><text dy="0.31em" x="6" text-anchor="start">dnm<title>flare.dnm
0 outgoing
0 incoming</title></text></g><g transform="rotate(59.400000000000006) translate(275,0)"><text dy="0.31em" x="6" text-anchor="start">ed<title>flare.ed
0 outgoing
0 incoming</title></text></g><g transform="rotate(63) translate(275,0)"><text dy="0.31em" x="6" text-anchor="start">edwardgeorge<title>flare.edwardgeorge
6 outgoing
6 incoming</title></text></g><g transform="rotate(66.6) translate(275,0)"><text dy="0.31em" x="6" text-anchor="start">eviltyler<title>flare.eviltyler
0 outgoing
0 incoming</title></text></g><g transform="rotate(70.20000000000002) translate(275,0)"><text dy="0.31em" x="6" text-anchor="start">ezdac<title>flare.ezdac
0 outgoing
0 incoming</title></text></g><g transform="rotate(73.80000000000004) translate(275,0)"><text dy="0.31em" x="6" text-anchor="start">fdb<title>flare.fdb
0 outgoing
0 incoming</title></text></g><g transform="rotate(77.40000000000003) translate(275,0)"><text dy="0.31em" x="6" text-anchor="start">fli<title>flare.fli
0 outgoing
0 incoming</title></text></g><g transform="rotate(81) translate(275,0)"><text dy="0.31em" x="6" text-anchor="start">flight404<title>flare.flight404
0 outgoing
0 incoming</title></text></g><g transform="rotate(84.6) translate(275,0)"><text dy="0.31em" x="6" text-anchor="start">forkinsocket<title>flare.forkinsocket
0 outgoing
0 incoming</title></text></g><g transform="rotate(88.20000000000002) translate(275,0)"><text dy="0.31em" x="6" text-anchor="start">franklin_mint<title>flare.franklin_mint
0 outgoing
0 incoming</title></text></g><g transform="rotate(91.80000000000001) translate(275,0)"><text dy="0.31em" x="-6" text-anchor="end" transform="rotate(180)">fry<title>flare.fry
18 outgoing
18 incoming</title></text></g><g transform="rotate(95.4) translate(275,0)"><text dy="0.31em" x="-6" text-anchor="end" transform="rotate(180)">fulk<title>flare.fulk
1 outgoing
1 incoming</title></text></g><g transform="rotate(99) translate(275,0)"><text dy="0.31em" x="-6" text-anchor="end" transform="rotate(180)">gaza<title>flare.gaza
0 outgoing
0 incoming</title></text></g><g transform="rotate(102.60000000000002) translate(275,0)"><text dy="0.31em" x="-6" text-anchor="end" transform="rotate(180)">gkoshra<title>flare.gkoshra
3 outgoing
3 incoming</title></text></g><g transform="rotate(106.20000000000002) translate(275,0)"><text dy="0.31em" x="-6" text-anchor="end" transform="rotate(180)">grumo<title>flare.grumo
2 outgoing
2 incoming</title></text></g><g transform="rotate(109.80000000000001) translate(275,0)"><text dy="0.31em" x="-6" text-anchor="end" transform="rotate(180)">gsm<title>flare.gsm
0 outgoing
0 incoming</title></text></g><g transform="rotate(113.39999999999998) translate(275,0)"><text dy="0.31em" x="-6" text-anchor="end" transform="rotate(180)">heidi<title>flare.heidi
0 outgoing
0 incoming</title></text></g><g transform="rotate(116.99999999999997) translate(275,0)"><text dy="0.31em" x="-6" text-anchor="end" transform="rotate(180)">heliodrop<title>flare.heliodrop
0 outgoing
0 incoming</title></text></g><g transform="rotate(120.6) translate(275,0)"><text dy="0.31em" x="-6" text-anchor="end" transform="rotate(180)">hurlbot<title>flare.hurlbot
0 outgoing
0 incoming</title></text></g><g transform="rotate(124.19999999999999) translate(275,0)"><text dy="0.31em" x="-6" text-anchor="end" transform="rotate(180)">ik0<title>flare.ik0
0 outgoing
0 incoming</title></text></g><g transform="rotate(127.79999999999998) translate(275,0)"><text dy="0.31em" x="-6" text-anchor="end" transform="rotate(180)">jand<title>flare.jand
4 outgoing
4 incoming</title></text></g><g transform="rotate(131.4) translate(275,0)"><text dy="0.31em" x="-6" text-anchor="end" transform="rotate(180)">jbk303<title>flare.jbk303
1 outgoing
1 incoming</title></text></g><g transform="rotate(135) translate(275,0)"><text dy="0.31em" x="-6" text-anchor="end" transform="rotate(180)">jes<title>flare.jes
0 outgoing
0 incoming</title></text></g><g transform="rotate(138.6) translate(275,0)"><text dy="0.31em" x="-6" text-anchor="end" transform="rotate(180)">jlee<title>flare.jlee
0 outgoing
0 incoming</title></text></g><g transform="rotate(142.2) translate(275,0)"><text dy="0.31em" x="-6" text-anchor="end" transform="rotate(180)">joey<title>flare.joey
0 outgoing
0 incoming</title></text></g><g transform="rotate(145.8) translate(275,0)"><text dy="0.31em" x="-6" text-anchor="end" transform="rotate(180)">kevin<title>flare.kevin
0 outgoing
0 incoming</title></text></g><g transform="rotate(149.4) translate(275,0)"><text dy="0.31em" x="-6" text-anchor="end" transform="rotate(180)">mKoser<title>flare.mKoser
0 outgoing
0 incoming</title></text></g><g transform="rotate(153) translate(275,0)"><text dy="0.31em" x="-6" text-anchor="end" transform="rotate(180)">mawend<title>flare.mawend
0 outgoing
0 incoming</title></text></g><g transform="rotate(156.60000000000005) translate(275,0)"><text dy="0.31em" x="-6" text-anchor="end" transform="rotate(180)">mccutchen<title>flare.mccutchen
0 outgoing
0 incoming</title></text></g><g transform="rotate(160.2) translate(275,0)"><text dy="0.31em" x="-6" text-anchor="end" transform="rotate(180)">meltphace<title>flare.meltphace
0 outgoing
0 incoming</title></text></g><g transform="rotate(163.79999999999998) translate(275,0)"><text dy="0.31em" x="-6" text-anchor="end" transform="rotate(180)">michaONE<title>flare.michaONE
0 outgoing
0 incoming</title></text></g><g transform="rotate(167.39999999999998) translate(275,0)"><text dy="0.31em" x="-6" text-anchor="end" transform="rotate(180)">michael<title>flare.michael
0 outgoing
0 incoming</title></text></g><g transform="rotate(171) translate(275,0)"><text dy="0.31em" x="-6" text-anchor="end" transform="rotate(180)">mmuday<title>flare.mmuday
9 outgoing
9 incoming</title></text></g><g transform="rotate(174.59999999999997) translate(275,0)"><text dy="0.31em" x="-6" text-anchor="end" transform="rotate(180)">mohn<title>flare.mohn
3 outgoing
3 incoming</title></text></g><g transform="rotate(178.20000000000005) translate(275,0)"><text dy="0.31em" x="-6" text-anchor="end" transform="rotate(180)">mr.prufrock<title>flare.mr.prufrock
3 outgoing
3 incoming</title></text></g><g transform="rotate(181.8) translate(275,0)"><text dy="0.31em" x="-6" text-anchor="end" transform="rotate(180)">mrb<title>flare.mrb
2 outgoing
2 incoming</title></text></g><g transform="rotate(185.40000000000003) translate(275,0)"><text dy="0.31em" x="-6" text-anchor="end" transform="rotate(180)">nurm<title>flare.nurm
0 outgoing
0 incoming</title></text></g><g transform="rotate(189) translate(275,0)"><text dy="0.31em" x="-6" text-anchor="end" transform="rotate(180)">oytun<title>flare.oytun
0 outgoing
0 incoming</title></text></g><g transform="rotate(192.60000000000002) translate(275,0)"><text dy="0.31em" x="-6" text-anchor="end" transform="rotate(180)">pinksalmon<title>flare.pinksalmon
0 outgoing
0 incoming</title></text></g><g transform="rotate(196.2) translate(275,0)"><text dy="0.31em" x="-6" text-anchor="end" transform="rotate(180)">pitaru<title>flare.pitaru
0 outgoing
0 incoming</title></text></g><g transform="rotate(199.8) translate(275,0)"><text dy="0.31em" x="-6" text-anchor="end" transform="rotate(180)">pokemon#1<title>flare.pokemon#1
0 outgoing
0 incoming</title></text></g><g transform="rotate(203.39999999999998) translate(275,0)"><text dy="0.31em" x="-6" text-anchor="end" transform="rotate(180)">pollux<title>flare.pollux
11 outgoing
11 incoming</title></text></g><g transform="rotate(207) translate(275,0)"><text dy="0.31em" x="-6" text-anchor="end" transform="rotate(180)">polyscope<title>flare.polyscope
0 outgoing
0 incoming</title></text></g><g transform="rotate(210.59999999999997) translate(275,0)"><text dy="0.31em" x="-6" text-anchor="end" transform="rotate(180)">primeclub<title>flare.primeclub
0 outgoing
0 incoming</title></text></g><g transform="rotate(214.2) translate(275,0)"><text dy="0.31em" x="-6" text-anchor="end" transform="rotate(180)">rlivings<title>flare.rlivings
0 outgoing
0 incoming</title></text></g><g transform="rotate(217.79999999999995) translate(275,0)"><text dy="0.31em" x="-6" text-anchor="end" transform="rotate(180)">scrap-pile<title>flare.scrap-pile
0 outgoing
0 incoming</title></text></g><g transform="rotate(221.40000000000003) translate(275,0)"><text dy="0.31em" x="-6" text-anchor="end" transform="rotate(180)">sdewitt<title>flare.sdewitt
0 outgoing
0 incoming</title></text></g><g transform="rotate(225) translate(275,0)"><text dy="0.31em" x="-6" text-anchor="end" transform="rotate(180)">seb<title>flare.seb
0 outgoing
0 incoming</title></text></g><g transform="rotate(228.59999999999997) translate(275,0)"><text dy="0.31em" x="-6" text-anchor="end" transform="rotate(180)">skloopy<title>flare.skloopy
8 outgoing
8 incoming</title></text></g><g transform="rotate(232.20000000000005) translate(275,0)"><text dy="0.31em" x="-6" text-anchor="end" transform="rotate(180)">solipsys<title>flare.solipsys
0 outgoing
0 incoming</title></text></g><g transform="rotate(235.8) translate(275,0)"><text dy="0.31em" x="-6" text-anchor="end" transform="rotate(180)">spacegirl<title>flare.spacegirl
0 outgoing
0 incoming</title></text></g><g transform="rotate(239.39999999999998) translate(275,0)"><text dy="0.31em" x="-6" text-anchor="end" transform="rotate(180)">sparky_monkey<title>flare.sparky_monkey
3 outgoing
3 incoming</title></text></g><g transform="rotate(243) translate(275,0)"><text dy="0.31em" x="-6" text-anchor="end" transform="rotate(180)">sportebois<title>flare.sportebois
0 outgoing
0 incoming</title></text></g><g transform="rotate(246.60000000000002) translate(275,0)"><text dy="0.31em" x="-6" text-anchor="end" transform="rotate(180)">svela<title>flare.svela
0 outgoing
0 incoming</title></text></g><g transform="rotate(250.19999999999993) translate(275,0)"><text dy="0.31em" x="-6" text-anchor="end" transform="rotate(180)">tomek<title>flare.tomek
10 outgoing
10 incoming</title></text></g><g transform="rotate(253.8) translate(275,0)"><text dy="0.31em" x="-6" text-anchor="end" transform="rotate(180)">toxi<title>flare.toxi
1 outgoing
1 incoming</title></text></g><g transform="rotate(257.4) translate(275,0)"><text dy="0.31em" x="-6" text-anchor="end" transform="rotate(180)">v3ga<title>flare.v3ga
6 outgoing
6 incoming</title></text></g><g transform="rotate(261) translate(275,0)"><text dy="0.31em" x="-6" text-anchor="end" transform="rotate(180)">vanwoods<title>flare.vanwoods
0 outgoing
0 incoming</title></text></g><g transform="rotate(264.6) translate(275,0)"><text dy="0.31em" x="-6" text-anchor="end" transform="rotate(180)">vent<title>flare.vent
0 outgoing
0 incoming</title></text></g><g transform="rotate(268.2) translate(275,0)"><text dy="0.31em" x="-6" text-anchor="end" transform="rotate(180)">xoff<title>flare.xoff
0 outgoing
0 incoming</title></text></g></g><g stroke="grey" fill="none"><path d="M76.72255416078805,-264.08076356115936L67.85329444549261,-221.6184826455054C58.98403473019718,-179.15620172985143,41.24551529960632,-94.23163989854349,67.90909917715572,-26.887114416458243C94.57268305470512,40.45741106562701,165.6383702403948,90.22190019848956,201.17121383323965,115.10414476492083L236.7040574260845,139.98638933135211" style="mix-blend-mode: multiply;"/><path d="M76.72255416078805,-264.08076356115936L64.78651924333549,-219.93250871089006C52.85048432588294,-175.7842538606208,28.978414490977826,-87.48774416008229,14.751662339765618,2.336433783540315C0.5249101885534101,92.1606117271629,-4.056524278965894,183.51245791386955,-6.347241512725546,229.1883810072229L-8.637958746485198,274.8643041005762" style="mix-blend-mode: multiply;"/><path d="M76.72255416078805,-264.08076356115936L64.14462633536594,-226.7230263813117C51.566698509943826,-189.3652892014641,26.410842859099617,-114.64981484176887,3.625518601626703,-115.36587250376822C-19.15980565584621,-116.08193016576757,-39.57459851994781,-192.22951984946152,-49.78199495199862,-230.30331469130851L-59.98939138404942,-268.3771095331555" style="mix-blend-mode: multiply;"/><path d="M124.84738742837536,-245.02679415180117L104.64104993949097,-203.95082050888402C84.43471245060658,-162.87484686596682,44.022037472837816,-80.72289958013248,10.427047207977251,4.128360038694278C-23.167943056883317,88.97961965752103,-49.94524860883569,176.53019160934022,-63.33390138481187,220.30547758524975L-76.72255416078805,264.08076356115936" style="mix-blend-mode: multiply;"/><path d="M139.98638933135211,-236.7040574260845L117.24074270859215,-203.44645954950997C94.49509608583217,-170.18886167293542,49.00380284031221,-103.67366591978633,10.14724994051096,-107.34669159250755C-28.709302959290287,-111.01971726522879,-60.93111551337284,-184.88096436382034,-77.0420217904141,-221.8115879131161L-93.15292806745538,-258.7422114624119" style="mix-blend-mode: multiply;"/><path d="M139.98638933135211,-236.7040574260845L121.75986817859979,-200.96204929853045C103.53334702584743,-165.22004117097634,67.08030472034275,-93.73602491586819,88.47875808730998,-64.28358057552897C109.87721145427723,-34.831136235189774,189.1271604937164,-47.4102638096195,228.75213501343595,-53.69982759683438L268.37710953315553,-59.98939138404924" style="mix-blend-mode: multiply;"/><path d="M139.98638933135211,-236.7040574260845L114.98291005611225,-199.88868457919742C89.97943078087236,-163.07331173231032,39.972472230392626,-89.44256603853614,-28.988516035807226,-45.67859210709013C-97.94950430200709,-1.9146181756441187,-185.86452228392704,11.982583993473733,-229.82203127488705,18.93118507803266L-273.779540265847,25.879786162591586" style="mix-blend-mode: multiply;"/><path d="M154.5729289093359,-227.4471579255045L130.6349612181489,-188.94658394406534C106.69699352696188,-150.44600996262622,58.82105814458783,-73.44486199974791,31.619243535284323,10.273715004598861C4.417428925980803,93.99229200894564,-2.1102649102521975,184.42829805476092,-5.374111828368697,229.64630107766857L-8.637958746485198,274.8643041005762" style="mix-blend-mode: multiply;"/><path d="M154.5729289093359,-227.4471579255045L133.32144250433467,-190.10912820827252C112.06995609933341,-152.77109849104053,69.56698328933092,-78.09503905657651,78.18491916250434,-9.877052241658395C86.80285503567775,58.34093457325974,146.54169959202707,120.10084876863198,176.41112187020175,150.98080586631812L206.2805441483764,181.86076296400424" style="mix-blend-mode: multiply;"/><path d="M154.5729289093359,-227.4471579255045L127.34775703168417,-191.84464427174677C100.12258515403244,-156.24213061798903,45.67224139872895,-85.03710331047355,-25.35896236343751,-39.95933067521221C-96.39016612560397,5.118441960049125,-184.00222989463342,24.068959923056326,-227.80826177914813,33.544218904559926L-271.61429366366286,43.01947788606353" style="mix-blend-mode: multiply;"/><path d="M227.4471579255045,-154.5729289093359L195.737101614487,-129.99306831017932C164.02704530346952,-105.41320771102278,100.6069326814345,-56.253486512709635,107.42859128270966,-20.493099797145465C114.25024988398485,15.267286918418707,191.31367970857022,37.628339151233924,229.84539462086286,48.80886526764153L268.37710953315553,59.98939138404914" style="mix-blend-mode: multiply;"/><path d="M227.4471579255045,-154.5729289093359L195.737101614487,-131.49280309478056C164.02704530346952,-108.41267728022524,100.6069326814345,-62.25242565111456,107.42859128270966,-46.48850273023345C114.25024988398485,-30.72457980935234,191.31367970857022,-45.35698559670079,229.84539462086286,-52.673188490375004L268.37710953315553,-59.98939138404924" style="mix-blend-mode: multiply;"/><path d="M227.4471579255045,-154.5729289093359L192.2744132609915,-127.30713190122275C157.1016685964785,-100.04133489310959,86.75617926745247,-45.509740876883285,47.40865982212085,26.0631312914354C8.061140376789234,97.63600345975408,-0.28840918484798195,186.25015378016516,-4.46318396566659,230.55722894037066L-8.637958746485198,274.8643041005762" style="mix-blend-mode: multiply;"/><path d="M227.4471579255045,-154.5729289093359L194.96089454717728,-128.4696761654299C162.47463116885004,-102.36642342152389,97.50210441219555,-50.15991793371188,93.97433544934086,5.9123640451781325C90.44656648648618,61.984646024068155,148.3635553174313,121.92270449403618,177.32204973290382,151.8917337290202L206.2805441483764,181.8607629640042" style="mix-blend-mode: multiply;"/><path d="M236.7040574260845,-139.9863893313521L203.44645954950997,-117.24074270859211C170.18886167293542,-94.49509608583215,103.67366591978633,-49.00380284031221,107.34669159250757,-10.147249940511008C111.01971726522883,28.709302959290195,184.88096436382042,60.93111551337265,221.81158791311623,77.0420217904139L258.742211462412,93.15292806745512" style="mix-blend-mode: multiply;"/><path d="M236.7040574260845,-139.9863893313521L203.5131914507443,-117.44612238242546C170.32232547540409,-94.90585543349881,103.94059352472368,-49.825321535645564,108.50337788056952,-13.707164286955548C113.06616223641531,22.41099296173447,188.5734628987873,49.56677356126124,226.32711322997332,63.14466386102464L264.08076356115936,76.72255416078802" style="mix-blend-mode: multiply;"/><path d="M236.7040574260845,-139.9863893313521L202.7906887080845,-116.13189477238524C168.87731999008452,-92.27740021341843,101.05058255408454,-44.568411095484755,95.97999700779985,9.072780953741294C90.90941146151518,62.71397300296734,148.59497780494578,122.28736798348577,177.4377609766611,152.074065473745L206.2805441483764,181.8607629640042" style="mix-blend-mode: multiply;"/><path d="M245.02679415180114,-124.84738742837537L210.40661157918714,-106.9652777405579C175.78642900657314,-89.08316805274042,106.54606386134519,-53.31894867710546,107.77201851322747,-50.71366242647034C108.99797316510974,-48.10837617583522,180.69024761410228,-78.66202305019993,216.53638483859854,-93.93884648738229L252.38252206309483,-109.21566992456465" style="mix-blend-mode: multiply;"/><path d="M245.02679415180114,-124.84738742837537L208.81242239625317,-102.53724693960332C172.59805064070517,-80.22710645083127,100.16930712960921,-35.60682547328717,80.13940600903825,26.038871456742253C60.10950488846729,87.68456838677167,92.47844615842133,166.3556812692864,108.66291679339834,205.6912377105438L124.84738742837538,245.02679415180114" style="mix-blend-mode: multiply;"/><path d="M245.02679415180114,-124.84738742837537L204.0970485276098,-106.9652777405579C163.1673029034184,-89.0831680527404,81.30781165503569,-53.31894867710545,-1.5937410474469829,-50.71366242647031C-84.49529374992966,-48.10837617583516,-168.4389079065123,-78.66202305019983,-210.41071498480358,-93.93884648738215L-252.3825220630949,-109.2156699245645" style="mix-blend-mode: multiply;"/><path d="M245.02679415180114,-124.84738742837537L207.14385556906743,-102.16427806524364C169.26091698633365,-79.4811687021119,93.49503982086618,-34.11494997584841,51.21758100448512,32.50366527897685C8.940122188104068,99.12228053380211,0.15108172080943424,186.99329231718914,-4.243438512837883,230.92879820888265L-8.637958746485198,274.8643041005762" style="mix-blend-mode: multiply;"/><path d="M245.02679415180114,-124.84738742837537L203.81602625214126,-105.49210738216976C162.6052583524814,-86.13682733596416,80.18372255316163,-47.426267243552964,-6.464793822234593,-25.178709547742855C-93.11331019763082,-2.931151851932746,-183.9888071491035,2.8534034472762673,-229.42655562483984,5.745681096880774L-274.8643041005762,8.63795874648528" style="mix-blend-mode: multiply;"/><path d="M252.38252206309483,-109.21566992456465L211.20029037465096,-89.79974734267289C170.01805868620716,-70.38382476078114,87.65359530931947,-31.55197959699763,15.279714471469637,21.030722748492547C-57.0941663663802,73.61342509398273,-119.4774646651922,139.94698462117955,-150.6691138145982,173.11376438477797L-181.8607629640042,206.2805441483764" style="mix-blend-mode: multiply;"/><path d="M252.38252206309483,-109.21566992456465L213.36557542736998,-88.94245034327038C174.3486287916451,-68.66923076197615,96.31473552019543,-28.12279159938764,52.81132205193209,35.8905374048025C9.30790858366875,99.90386640899264,0.33497491859177586,187.38408525478442,-4.151491913946711,231.1241946776803L-8.637958746485198,274.8643041005762" style="mix-blend-mode: multiply;"/><path d="M252.38252206309483,-109.21566992456465L216.05205671355574,-90.10499460747754C179.7215913640167,-70.99431929039044,107.0606606649385,-32.772968656216236,99.3769976791521,15.739770158545246C91.69333469336568,64.25250897330672,148.98693942087104,123.05663596865548,177.63374178462377,152.45869946632988L206.2805441483764,181.86076296400424" style="mix-blend-mode: multiply;"/><path d="M252.38252206309483,-109.21566992456465L215.03414225455572,-89.3154192176301C177.68576244601664,-69.41516851069552,102.98900282893845,-29.614667096826395,81.73314705648521,29.425743582567907C60.47729128403197,88.46615426196222,92.66233935620369,166.7464742068817,108.75486339228955,205.8866341793414L124.84738742837538,245.02679415180114" style="mix-blend-mode: multiply;"/><path d="M252.38252206309483,-109.21566992456465L210.07837124090523,-91.8405106709518C167.7742204187157,-74.46535141733897,83.16591877433655,-39.71503291011327,-4.16688384678974,-14.342508275008578C-91.49968646791602,11.030016360096118,-181.55699006578945,27.024747123079823,-226.58564186472617,35.02211250457167L-271.61429366366286,43.01947788606353" style="mix-blend-mode: multiply;"/><path d="M252.38252206309483,-109.21566992456465L212.30913831085783,-95.61253178780775C172.23575455862087,-82.00939365105084,92.08898705414691,-54.80311737753704,34.49974536572188,-79.72420763384491C-23.08949632270315,-104.64529789015279,-58.121212195079266,-181.69375467628234,-75.63707013126732,-220.21798306934713L-93.15292806745538,-258.7422114624119" style="mix-blend-mode: multiply;"/><path d="M252.38252206309483,-109.21566992456465L216.77455945621554,-91.41922221751774C181.16659684933623,-73.62277451047085,109.95067163557765,-38.02987909637705,111.90037855192175,-7.040175082151606C113.85008546826583,23.949528932073836,188.9654245147126,50.33604154643092,226.52309403793598,63.52929785360946L264.08076356115936,76.72255416078801" style="mix-blend-mode: multiply;"/><path d="M252.38252206309483,-109.21566992456465L216.82826378086546,-91.62838675222697C181.27400549863614,-74.04110357988932,110.16548893417746,-38.86653723521399,112.8312535125209,-10.66569368377836C115.49701809086436,17.53514986765727,191.93706381200994,38.762270625853205,230.15708667258275,49.37583100495117L268.37710953315553,59.98939138404914" style="mix-blend-mode: multiply;"/><path d="M252.38252206309483,-109.21566992456465L210.31876838591234,-93.74345001858465C168.25501470872987,-78.27123011260467,84.12750735436494,-47.32679030064467,-1.8947806286936004e-14,-47.32679030064465C-84.12750735436498,-47.326790300644625,-168.25501470872993,-78.27123011260456,-210.31876838591242,-93.74345001858451L-252.3825220630949,-109.2156699245645" style="mix-blend-mode: multiply;"/><path d="M252.38252206309483,-109.21566992456465L216.53638483859854,-93.93884648738229C180.69024761410228,-78.66202305019993,108.99797316510974,-48.10837617583522,107.77201851322747,-50.713662426470336C106.54606386134519,-53.31894867710546,175.78642900657314,-89.08316805274042,210.40661157918714,-106.96527774055788L245.02679415180114,-124.84738742837537" style="mix-blend-mode: multiply;"/><path d="M252.38252206309483,-109.21566992456465L216.90935371295822,-92.27027966019654C181.43618536282167,-75.32488939582842,110.48984866254848,-41.434108867092185,114.23681233546206,-21.791837421917197C117.98377600837561,-2.14956597674221,196.4240400544759,3.244196384871533,235.64417207752604,5.9410775656784045L274.8643041005762,8.637958746485277" style="mix-blend-mode: multiply;"/><path d="M252.38252206309483,-109.21566992456465L210.0377461104438,-92.48622862885867C167.69297015779284,-75.75678733315267,83.00341825249087,-42.29790474174071,-4.871052774787628,-25.534952878727463C-92.74552380206613,-8.772001015714219,-183.80491395132117,-8.704979881099701,-229.33460902594868,-8.671469313792441L-274.8643041005762,-8.63795874648518" style="mix-blend-mode: multiply;"/><path d="M252.38252206309483,-109.21566992456465L216.6283314374897,-91.01305827047054C180.87414081188464,-72.81044661637644,109.36575956067442,-36.40522330818822,109.36575956067442,-7.105427357601002e-15C109.36575956067445,36.405223308188205,180.87414081188464,72.81044661637641,216.62833143748978,91.01305827047052L252.38252206309485,109.21566992456462" style="mix-blend-mode: multiply;"/><path d="M252.38252206309483,-109.21566992456465L216.70782755498115,-93.5426657453708C181.03313304686756,-77.86966156617693,109.68374403064028,-46.52365320778921,110.74369226385981,-43.84652956493763C111.80364049707934,-41.16940592208604,185.27292597974568,-67.1611669947706,222.00756872107885,-80.15704753111287L258.742211462412,-93.15292806745515" style="mix-blend-mode: multiply;"/><path d="M252.38252206309483,-109.21566992456465L216.82826378086546,-93.1281215368282C181.27400549863614,-77.04057314909178,110.16548893417746,-44.86547637361891,112.8312535125209,-36.661096616866345C115.49701809086436,-28.456716860113776,191.93706381200994,-44.223054122081514,230.15708667258275,-52.106222753065374L268.37710953315553,-59.98939138404924" style="mix-blend-mode: multiply;"/><path d="M252.38252206309483,-109.21566992456465L212.7236825194004,-95.73296801369203C173.06484297570603,-82.25026610281944,93.74716388831722,-55.284862281074226,41.68517831379317,-81.81176888250603C-10.37680726073087,-108.33867548393783,-35.18309932239014,-188.35789250854666,-47.58624535321979,-228.3675010208511L-59.98939138404942,-268.3771095331555" style="mix-blend-mode: multiply;"/><path d="M252.38252206309483,-109.21566992456465L211.20029037465096,-94.9567609463823C170.01805868620713,-80.69785196819996,87.65359530931947,-52.18003401183527,15.279714471469598,-68.3575130491372C-57.09416636638027,-84.53499208643915,-119.47746466519233,-145.4077681174077,-150.66911381459835,-175.84415613289198L-181.86076296400438,-206.28054414837626" style="mix-blend-mode: multiply;"/><path d="M252.38252206309483,-109.21566992456465L212.7236825194004,-89.02354027536315C173.06484297570603,-68.83141062616166,93.74716388831723,-28.44715132775867,41.68517831379322,34.48497858186136C-10.376807260730782,97.41710849148139,-35.183099322389985,182.89710901231845,-47.58624535321959,225.637109272737L-59.98939138404919,268.37710953315553" style="mix-blend-mode: multiply;"/><path d="M252.38252206309483,-109.21566992456465L211.36668191476892,-89.66209628948616C170.35084176644304,-70.10852265440768,88.31916146979125,-31.001375384250707,18.163834500180712,23.41667433706255C-51.991492469429836,77.83472405837581,-110.27046611199916,147.56367623084535,-139.40995293328385,182.42815231708013L-168.54943975456848,217.2926284033149" style="mix-blend-mode: multiply;"/><path d="M258.742211462412,-93.15292806745515L222.0075687210788,-77.42665578299876C185.27292597974568,-61.70038349854236,111.80364049707934,-30.247838929629577,110.74369226385983,3.4802607357070534C109.6837440306403,37.208360401043684,181.03313304686756,73.21201516280415,216.70782755498124,91.21384254368438L252.38252206309485,109.21566992456462" style="mix-blend-mode: multiply;"/><path d="M258.742211462412,-93.15292806745515L222.0075687210788,-80.15704753111287C185.27292597974568,-67.1611669947706,111.80364049707934,-41.16940592208604,110.74369226385981,-43.84652956493763C109.68374403064028,-46.52365320778921,181.03313304686756,-77.86966156617693,216.7078275549812,-93.5426657453708L252.38252206309483,-109.21566992456465" style="mix-blend-mode: multiply;"/><path d="M258.742211462412,-93.15292806745515L221.43129399714485,-76.51859212000576C184.1203765318777,-59.88425617255638,109.49854160134343,-26.615584277657593,100.75493038233749,19.220030894252297C92.01131916333156,65.0556460661622,149.14593165585399,123.4582045150832,177.7132379021152,152.6594837395437L206.2805441483764,181.8607629640042" style="mix-blend-mode: multiply;"/><path d="M258.742211462412,-93.15292806745515L218.74481271095908,-75.35604785579861C178.74741395950616,-57.55916764414207,98.75261645660034,-21.965407220828997,54.189254755117474,39.37079814050956C9.625893053634611,100.70700350184812,0.4939671535747057,187.78565380121213,-4.071995796455247,231.32497895089418L-8.637958746485198,274.8643041005762" style="mix-blend-mode: multiply;"/><path d="M258.742211462412,-93.15292806745515L222.15379673980462,-77.83281973004595C185.5653820171973,-62.51271139263678,112.38855257198259,-31.87249471781841,113.27831125510714,-3.5599143464445433C114.16806993823168,24.752666024929315,189.12441674969554,50.73761009285867,226.6025901554274,63.730082126823355L264.08076356115936,76.72255416078802" style="mix-blend-mode: multiply;"/><path d="M258.742211462412,-93.15292806745515L222.2075010644546,-79.54171904935643C185.6727906664972,-65.93051003125771,112.60336987058237,-38.70809199506027,114.20918621570631,-33.18083588115929C115.81500256083022,-27.653579767258304,192.09605604699289,-43.821485575653774,230.2365827900742,-51.90543847985151L268.37710953315553,-59.98939138404924" style="mix-blend-mode: multiply;"/><path d="M268.37710953315553,-59.98939138404924L223.56650134553686,-50.63305239467724C178.75589315791817,-41.27671340530526,89.1346767826808,-22.56403542656128,-1.4055588229411455,-11.126143738138857C-91.9457944285631,0.3117479502835622,-183.40504926456967,4.474853348384422,-229.13467668257292,6.5564060474348524L-274.8643041005762,8.637958746485282" style="mix-blend-mode: multiply;"/><path d="M268.37710953315553,-59.98939138404924L226.25243775449346,-54.09574074817275C184.12776597583135,-48.202090112296275,99.87842241850716,-36.414788840543316,45.15067226563966,-71.14607519872769C-9.577077887227828,-105.87736155691205,-34.78323463563862,-187.12723554503376,-47.386313009844024,-227.75217253909463L-59.98939138404941,-268.3771095331555" style="mix-blend-mode: multiply;"/><path d="M268.37710953315553,-59.98939138404924L224.72904560974402,-53.31953368086301C181.08098168633248,-46.6496759776768,93.78485383950941,-33.30996057130436,18.745208423316086,-57.69181936535887C-56.29443699287723,-82.07367815941336,-119.0775999784408,-144.1771111538948,-150.46918147122258,-175.22882765113556L-181.86076296400438,-206.28054414837626" style="mix-blend-mode: multiply;"/><path d="M268.37710953315553,-59.98939138404924L226.25243775449346,-47.38631300984387C184.12776597583135,-34.7832346356385,99.87842241850717,-9.577077887227762,45.150672265639706,45.150672265639706C-9.577077887227746,99.87842241850717,-34.78323463563847,184.12776597583135,-47.38631300984383,226.25243775449346L-59.98939138404919,268.37710953315553" style="mix-blend-mode: multiply;"/><path d="M268.37710953315553,-59.98939138404924L230.3570190159585,-49.991159486707694C192.33692849876147,-39.99292758936617,116.2967474643674,-19.996463794683084,116.2967474643674,-2.1316282072803006e-14C116.2967474643674,19.99646379468304,192.33692849876147,39.99292758936609,230.3570190159585,49.99115948670762L268.37710953315553,59.98939138404914" style="mix-blend-mode: multiply;"/><path d="M268.37710953315553,-59.98939138404924L229.84539462086286,-52.673188490375004C191.31367970857022,-45.35698559670079,114.25024988398485,-30.72457980935234,107.42859128270969,-46.48850273023345C100.6069326814345,-62.25242565111456,164.02704530346952,-108.41267728022524,195.73710161448705,-131.49280309478056L227.4471579255045,-154.5729289093359" style="mix-blend-mode: multiply;"/><path d="M268.37710953315553,-59.98939138404924L226.89433066246298,-47.305223077751116C185.41155179177045,-34.62105477145298,102.44599405038537,-9.252718158856732,56.27681600377858,46.55623108858084C10.107637957171788,102.36518033601841,0.7348396053432941,188.61474221829732,-3.9515595705709523,231.73952315943674L-8.637958746485198,274.8643041005762" style="mix-blend-mode: multiply;"/><path d="M268.37710953315553,-59.98939138404924L230.15708667258275,-49.37583100495126C191.93706381200994,-38.762270625853276,115.49701809086436,-17.53514986765731,112.83125351252092,10.665693683778333C110.16548893417747,38.866537235213976,181.27400549863617,74.0411035798893,216.82826378086554,91.62838675222696L252.38252206309485,109.21566992456462" style="mix-blend-mode: multiply;"/><path d="M268.37710953315553,-59.98939138404924L230.15708667258275,-52.10622275306537C191.93706381200994,-44.223054122081514,115.49701809086436,-28.456716860113776,112.8312535125209,-36.661096616866345C110.16548893417746,-44.86547637361891,181.27400549863614,-77.04057314909178,216.8282637808655,-93.1281215368282L252.38252206309483,-109.21566992456465" style="mix-blend-mode: multiply;"/><path d="M268.37710953315553,-59.98939138404924L230.2365827900742,-51.905438479851504C192.09605604699289,-43.821485575653774,115.81500256083022,-27.653579767258304,114.20918621570631,-33.18083588115929C112.60336987058237,-38.70809199506027,185.6727906664972,-65.93051003125771,222.20750106445462,-79.54171904935643L258.742211462412,-93.15292806745515" style="mix-blend-mode: multiply;"/><path d="M268.37710953315553,-59.98939138404924L229.58081194864874,-48.46776734195826C190.78451436414198,-36.94614329986729,113.19191919512843,-13.902895215685332,102.8424916309986,26.40546384232358C92.49306406686874,66.71382290033249,149.38680410762257,124.28729293216834,177.8336741279995,153.07402794808627L206.2805441483764,181.8607629640042" style="mix-blend-mode: multiply;"/><path d="M268.37710953315553,-59.98939138404924L230.30331469130854,-49.78199495199846C192.22951984946155,-39.57459851994769,116.08193016576759,-19.159805655846142,115.36587250376823,3.6255186016267325C114.64981484176887,26.410842859099606,189.3652892014641,51.56669850994381,226.7230263813117,64.1446263353659L264.08076356115936,76.72255416078801" style="mix-blend-mode: multiply;"/><path d="M268.37710953315553,-59.98939138404924L226.6788078197617,-47.31878262568522C184.98050610636778,-34.64817386732122,101.58390267958005,-9.306956350593191,52.5410867302889,46.32119892438951C3.498270780997751,101.94935419937222,-11.190757690796813,187.8644472326096,-18.535271926694094,230.82199374922834L-25.879786162591376,273.779540265847" style="mix-blend-mode: multiply;"/><path d="M268.37710953315553,-59.98939138404924L225.8378935459509,-53.97530452228846C183.29867755874622,-47.96121766052769,98.22024558433685,-35.93304393700614,37.96523931756837,-69.05851395006658C-22.289766949200118,-102.183983963127,-57.721347508327746,-180.46309771276947,-75.43713778789156,-219.60265458759068L-93.15292806745538,-258.7422114624119" style="mix-blend-mode: multiply;"/><path d="M268.37710953315553,-59.98939138404924L228.75213501343595,-53.699827596834375C189.1271604937164,-47.4102638096195,109.87721145427723,-34.831136235189774,88.47875808730998,-64.28358057552897C67.08030472034275,-93.73602491586819,103.53334702584743,-165.22004117097634,121.75986817859979,-200.9620492985304L139.98638933135211,-236.7040574260845" style="mix-blend-mode: multiply;"/><path d="M268.37710953315553,-59.98939138404924L223.58006089347097,-50.41752955197592C178.7830122537864,-40.8456677199026,89.18891497441727,-21.701944055755963,-1.170526658749812,-7.390414464649159C-91.52996829191692,6.921115126457646,-182.65475427888194,16.400450644524614,-228.21714727236449,21.140118403558102L-273.779540265847,25.879786162591586" style="mix-blend-mode: multiply;"/><path d="M268.37710953315553,-59.98939138404924L228.56289748964878,-47.6781919521108C188.74868544614196,-35.36699252017237,109.12026135912839,-10.744593656295486,85.1986410083317,40.09143726634625C61.27702065753501,90.92746818898797,93.0622040429552,167.97713117039456,108.95479573566529,206.50196266109788L124.84738742837538,245.02679415180114" style="mix-blend-mode: multiply;"/><path d="M268.37710953315553,-59.98939138404924L224.89543714986198,-48.02486902396688C181.4137647665684,-36.06034666388452,94.4504199999812,-12.131301943719798,21.6293284520272,34.082368020840896C-51.19176309592681,80.29603798540158,-109.87060142524764,148.79433319435825,-139.21002058990805,183.04348079883655L-168.54943975456848,217.2926284033149" style="mix-blend-mode: multiply;"/><path d="M274.8643041005762,8.637958746485277L235.64417207752604,5.9410775656784045C196.4240400544759,3.2441963848715325,117.98377600837561,-2.149565976742211,114.23681233546206,-21.791837421917197C110.48984866254848,-41.434108867092185,181.43618536282167,-75.32488939582842,216.90935371295822,-92.27027966019654L252.38252206309483,-109.21566992456465" style="mix-blend-mode: multiply;"/><path d="M274.8643041005762,8.637958746485277L235.0678973535921,9.579532976785515C195.27149060660795,10.521107207085755,115.6786771126397,12.404255667686234,104.24805045393974,41.27472303727273C92.81742379523978,70.14519040685921,149.5489839718081,126.0029766854317,177.91476406009224,153.93186982471798L206.2805441483764,181.8607629640042" style="mix-blend-mode: multiply;"/><path d="M274.8643041005762,8.637958746485277L235.79040009625183,8.265305366745313C196.71649609192752,7.89265198700535,118.56868808327884,7.147345227525424,116.77143132670938,18.49477779657588C114.9741745701399,29.84221036562634,189.52746906564963,53.28238226320718,226.80411631340448,65.0024682119976L264.08076356115936,76.72255416078802" style="mix-blend-mode: multiply;"/><path d="M274.8643041005762,8.637958746485277L232.38141606740632,10.742077240992666C189.8985280342364,12.846195735500055,104.9327519678966,17.054432724514836,57.682374826719716,61.42549028352999C10.43199768554282,105.79654784254514,0.8970194695288107,190.33042597156066,-3.8704696384781934,232.59736503606845L-8.637958746485198,274.8643041005762" style="mix-blend-mode: multiply;"/><path d="M274.8643041005762,8.637958746485277L231.32497895089418,4.071995796455314C187.78565380121213,-0.4939671535746477,100.70700350184809,-9.625893053634572,39.370798140509514,-54.18925475511744C-21.965407220829082,-98.75261645660028,-57.559167644142235,-178.74741395950608,-75.3560478557988,-218.744812710959L-93.15292806745538,-258.7422114624119" style="mix-blend-mode: multiply;"/><path d="M274.8643041005762,8.637958746485277L229.33460902594868,5.941077565678406C183.80491395132117,3.2441963848715365,92.74552380206613,-2.149565976742203,4.87105277478761,-21.791837421917165C-83.0034182524909,-41.43410886709213,-167.6929701577929,-75.32488939582831,-210.0377461104439,-92.27027966019641L-252.3825220630949,-109.2156699245645" style="mix-blend-mode: multiply;"/><path d="M268.37710953315553,59.98939138404914L230.15708667258275,49.37583100495118C191.93706381200994,38.762270625853205,115.49701809086436,17.53514986765727,112.8312535125209,-10.66569368377836C110.16548893417746,-38.86653723521399,181.27400549863614,-74.04110357988932,216.8282637808655,-91.62838675222697L252.38252206309483,-109.21566992456465" style="mix-blend-mode: multiply;"/><path d="M268.37710953315553,59.98939138404914L230.3570190159585,49.99115948670762C192.33692849876147,39.99292758936609,116.2967474643674,19.99646379468304,116.2967474643674,-2.1316282072803006e-14C116.2967474643674,-19.996463794683084,192.33692849876147,-39.99292758936617,230.3570190159585,-49.991159486707694L268.37710953315553,-59.98939138404924" style="mix-blend-mode: multiply;"/><path d="M268.37710953315553,59.98939138404914L229.84539462086286,48.80886526764154C191.31367970857022,37.628339151233924,114.25024988398485,15.26728691841871,107.42859128270969,-20.493099797145465C100.6069326814345,-56.253486512709635,164.02704530346952,-105.41320771102278,195.73710161448705,-129.99306831017932L227.4471579255045,-154.5729289093359" style="mix-blend-mode: multiply;"/><path d="M268.37710953315553,59.98939138404914L226.89433066246298,54.17683068026543C185.41155179177045,48.36426997648173,102.44599405038537,36.73914856891432,56.27681600377858,72.55163402166882C10.107637957171788,108.36411947442333,0.7348396053432941,191.61421178749978,-3.9515595705709523,233.23925794403797L-8.637958746485198,274.8643041005762" style="mix-blend-mode: multiply;"/><path d="M264.08076356115936,76.72255416078802L219.97313384135148,65.43223720124233C175.86550412154364,54.14192024169663,87.65024468192793,31.561286322605252,-1.6322648555424262,25.944106943484503C-90.9147743930128,20.326927564363757,-181.26453402833783,31.673202725213645,-226.43941384600035,37.346340305638584L-271.61429366366286,43.019477886063534" style="mix-blend-mode: multiply;"/><path d="M264.08076356115936,76.72255416078802L225.946819314002,67.1677532647166C187.81287506684464,57.61295236864515,111.54498657252991,38.50335057650229,101.91161667039943,56.02638537703832C92.27824676826894,73.54942017757435,149.27939545832268,127.70509157078929,177.77996980334956,154.78292726739676L206.2805441483764,181.8607629640042" style="mix-blend-mode: multiply;"/><path d="M264.08076356115936,76.72255416078802L226.52309403793598,63.52929785360948C188.9654245147126,50.33604154643093,113.85008546826583,23.949528932073843,111.90037855192175,-7.040175082151602C109.95067163557765,-38.02987909637705,181.16659684933623,-73.62277451047085,216.77455945621554,-91.41922221751776L252.38252206309483,-109.21566992456465" style="mix-blend-mode: multiply;"/><path d="M264.08076356115936,76.72255416078802L222.2039009113041,61.660216084386384C180.32703826144885,46.59787800798475,96.57331296173832,16.47320185518148,37.0343643569692,-39.43759241535184C-22.504584247799926,-95.34838668588516,-57.82875615762765,-177.04529907414852,-75.49084211254151,-217.8937552682802L-93.15292806745538,-258.7422114624119" style="mix-blend-mode: multiply;"/><path d="M264.08076356115936,76.72255416078802L223.26033802781623,68.33029752892374C182.4399124944731,59.93804089705946,100.79906142778684,43.15352763333089,55.3459410431794,76.17715262329558C9.892820658571978,109.20077761326029,0.6274309560433894,192.03254085691822,-4.005263895220904,233.44842247874723L-8.637958746485198,274.8643041005762" style="mix-blend-mode: multiply;"/><path d="M264.08076356115936,76.72255416078802L226.80411631340448,65.0024682119976C189.52746906564963,53.28238226320718,114.9741745701399,29.84221036562634,116.77143132670938,18.494777796575885C118.56868808327884,7.147345227525425,196.71649609192752,7.892651987005351,235.79040009625183,8.265305366745313L274.8643041005762,8.637958746485277" style="mix-blend-mode: multiply;"/><path d="M264.08076356115936,76.72255416078802L226.52309403793598,66.2596896017236C188.9654245147126,55.79682504265916,113.85008546826583,34.87109592453031,111.90037855192175,40.286615218493075C109.95067163557768,45.70213451245584,181.1665968493363,77.45890221851023,216.77455945621557,93.33728607153743L252.38252206309485,109.21566992456462" style="mix-blend-mode: multiply;"/><path d="M264.08076356115936,76.72255416078802L226.6025901554274,63.730082126823355C189.12441674969554,50.73761009285867,114.16806993823168,24.752666024929315,113.27831125510714,-3.5599143464445455C112.38855257198259,-31.87249471781841,185.5653820171973,-62.51271139263678,222.15379673980465,-77.83281973004595L258.742211462412,-93.15292806745515" style="mix-blend-mode: multiply;"/><path d="M264.08076356115936,76.72255416078802L226.7230263813117,64.14462633536591C189.3652892014641,51.56669850994382,114.64981484176887,26.410842859099613,115.36587250376823,3.6255186016267373C116.08193016576759,-19.15980565584614,192.22951984946155,-39.57459851994769,230.30331469130854,-49.78199495199846L268.37710953315553,-59.98939138404924" style="mix-blend-mode: multiply;"/><path d="M264.08076356115936,76.72255416078802L224.92890485500197,67.95732865456405C185.77704614884462,59.192103148340074,107.47332873652987,41.66165213589213,84.26776604773254,69.71235880106099C61.0622033589352,97.76306546622983,92.95479539365529,171.39492980901548,108.90109141101534,208.21086198040834L124.84738742837538,245.02679415180114" style="mix-blend-mode: multiply;"/><path d="M264.08076356115936,76.72255416078802L226.32711322997332,63.14466386102464C188.5734628987873,49.56677356126124,113.06616223641531,22.41099296173447,108.50337788056952,-13.707164286955548C103.94059352472368,-49.82532153564557,170.32232547540409,-94.90585543349881,203.5131914507443,-117.44612238242546L236.7040574260845,-139.9863893313521" style="mix-blend-mode: multiply;"/><path d="M264.08076356115936,76.72255416078802L226.6025901554274,66.05890532850972C189.12441674969554,55.39525649623143,114.16806993823168,34.06795883167484,113.27831125510714,36.80635448278601C112.38855257198259,39.544750133897196,185.5653820171973,66.34883910067616,222.15379673980465,79.75088358406565L258.742211462412,93.15292806745512" style="mix-blend-mode: multiply;"/><path d="M258.742211462412,93.15292806745512L221.8115879131162,77.0420217904139C184.88096436382042,60.93111551337265,111.01971726522883,28.709302959290195,107.34669159250757,-10.14724994051101C103.67366591978633,-49.00380284031221,170.18886167293542,-94.49509608583215,203.44645954950997,-117.24074270859212L236.7040574260845,-139.9863893313521" style="mix-blend-mode: multiply;"/><path d="M258.742211462412,93.15292806745512L222.15379673980462,79.75088358406565C185.5653820171973,66.34883910067616,112.38855257198259,39.544750133897196,113.27831125510714,36.80635448278602C114.16806993823168,34.06795883167484,189.12441674969554,55.39525649623143,226.6025901554274,66.05890532850972L264.08076356115936,76.72255416078802" style="mix-blend-mode: multiply;"/><path d="M258.742211462412,93.15292806745512L221.43129399714485,81.06511119410585C184.1203765318777,68.97729432075657,109.49854160134343,44.80166057405801,100.75493038233749,59.58629972348285C92.01131916333156,74.3709388729077,149.14593165585399,128.11585091845595,177.7132379021152,154.9883069412301L206.2805441483764,181.8607629640042" style="mix-blend-mode: multiply;"/><path d="M252.38252206309485,109.21566992456462L213.36557542737,95.81405794578478C174.34862879164515,82.41244596700494,96.31473552019543,55.609222009445254,52.81132205193209,83.21732770544718C9.307908583668748,110.82543340144912,0.3349749185917735,192.84486875101265,-4.151491913946714,233.85458642579442L-8.637958746485202,274.8643041005762" style="mix-blend-mode: multiply;"/><path d="M252.38252206309485,109.21566992456462L216.62833143748972,91.01305827047052C180.87414081188464,72.81044661637641,109.36575956067445,36.405223308188205,109.36575956067445,-7.105427357601002e-15C109.36575956067442,-36.40522330818822,180.87414081188464,-72.81044661637644,216.62833143748972,-91.01305827047054L252.38252206309483,-109.21566992456465" style="mix-blend-mode: multiply;"/><path d="M252.38252206309485,109.21566992456462L216.7078275549812,91.2138425436844C181.03313304686756,73.21201516280415,109.6837440306403,37.208360401043684,110.74369226385983,3.4802607357070534C111.80364049707934,-30.247838929629577,185.27292597974568,-61.70038349854236,222.00756872107885,-77.42665578299876L258.742211462412,-93.15292806745515" style="mix-blend-mode: multiply;"/><path d="M252.38252206309485,109.21566992456462L216.05205671355577,94.65151368157763C179.7215913640167,80.08735743859064,107.06066066493851,50.95904495261666,99.37699767915211,63.06656045918991C91.69333469336568,75.17407596576318,148.98693942087104,128.5174194648837,177.63374178462377,155.18909121444395L206.2805441483764,181.8607629640042" style="mix-blend-mode: multiply;"/><path d="M252.38252206309485,109.21566992456462L216.77455945621557,93.33728607153743C181.1665968493363,77.45890221851023,109.95067163557768,45.70213451245584,111.90037855192175,40.286615218493075C113.85008546826583,34.87109592453031,188.9654245147126,55.79682504265916,226.52309403793598,66.2596896017236L264.08076356115936,76.72255416078802" style="mix-blend-mode: multiply;"/><path d="M252.38252206309485,109.21566992456462L216.8282637808655,91.62838675222696C181.27400549863617,74.0411035798893,110.16548893417747,38.866537235213976,112.83125351252092,10.665693683778334C115.49701809086436,-17.53514986765731,191.93706381200994,-38.762270625853276,230.15708667258275,-49.37583100495126L268.37710953315553,-59.98939138404924" style="mix-blend-mode: multiply;"/><path d="M236.7040574260845,139.98638933135211L201.17121383323968,115.10414476492083C165.6383702403948,90.22190019848956,94.57268305470512,40.45741106562701,67.90909917715571,-26.887114416458235C41.24551529960632,-94.23163989854349,58.98403473019718,-179.15620172985143,67.85329444549261,-221.6184826455054L76.72255416078805,-264.08076356115936" style="mix-blend-mode: multiply;"/><path d="M236.7040574260845,139.98638933135211L200.10420742189874,121.84095811069254C163.50435741771298,103.69552689003295,90.30465740934146,67.40466444871379,49.41432138057985,89.88431691025114C8.523985351818235,112.36396937178849,-0.05698669733348183,193.61413673618233,-4.34747272190934,234.2392204183793L-8.637958746485198,274.8643041005762" style="mix-blend-mode: multiply;"/><path d="M236.7040574260845,139.98638933135211L199.4623145139292,115.05044044027089C162.22057160177386,90.11449154918967,87.73708577746326,40.2425937670272,38.288177642440935,-27.817989377057398C-11.16073049258138,-95.878572521142,-35.575060938315396,-182.12784102714875,-47.7822261611824,-225.2524752801521L-59.98939138404941,-268.3771095331555" style="mix-blend-mode: multiply;"/><path d="M206.2805441483764,181.8607629640042L177.63374178462377,152.45869946632982C148.98693942087104,123.05663596865547,91.69333469336568,64.25250897330672,99.3769976791521,15.739770158545234C107.0606606649385,-32.77296865621624,179.7215913640167,-70.99431929039045,216.05205671355574,-90.10499460747756L252.38252206309483,-109.21566992456466" style="mix-blend-mode: multiply;"/><path d="M206.2805441483764,181.8607629640042L174.370985774504,157.2596991416441C142.46142740063155,132.658635319284,78.64231065288669,83.45650767456375,42.82256017040976,98.95709786399243C7.002809687932829,114.45768805342108,-0.8175745292761848,194.66099607699866,-4.727766637880691,234.7626500887874L-8.637958746485198,274.8643041005762" style="mix-blend-mode: multiply;"/><path d="M206.2805441483764,181.8607629640042L171.08378158803927,154.36163881396268C135.8870190277021,126.86251466392116,65.49349390702781,71.86426636383813,-14.155645728312066,48.724052184181346C-93.80478536365194,25.583838004524562,-182.7095395136574,34.301657945294046,-227.16191658866015,38.66056791567879L-271.61429366366286,43.01947788606353" style="mix-blend-mode: multiply;"/><path d="M206.2805441483764,181.8607629640042L173.31454865799188,150.58961769710672C140.3485531676073,119.31847243020928,74.41656218683819,56.77618189641435,24.510983484199556,-16.657647174654997C-25.394595218439076,-90.09147624572434,-59.27376164294722,-174.41684385406813,-76.2133448552013,-216.57952765823998L-93.15292806745538,-258.7422114624119" style="mix-blend-mode: multiply;"/><path d="M206.2805441483764,181.8607629640042L177.77996980334956,154.78292726739673C149.27939545832268,127.70509157078929,92.27824676826894,73.54942017757435,101.91161667039943,56.02638537703832C111.54498657252991,38.50335057650229,187.81287506684464,57.61295236864515,225.946819314002,67.1677532647166L264.08076356115936,76.72255416078802" style="mix-blend-mode: multiply;"/><path d="M206.2805441483764,181.8607629640042L172.72913039219316,150.86509462256083C139.17771663600988,119.86942628111746,72.07488912364336,57.87808959823072,14.363733543688605,-11.882713800117406C-43.347422036266146,-81.64351719846553,-91.6669056838091,-159.17378731227504,-115.8266475075806,-197.93892236917978L-139.9863893313521,-236.70405742608455" style="mix-blend-mode: multiply;"/><path d="M206.2805441483764,181.8607629640042L171.32417873304635,152.45869946632982C136.36781331771633,123.05663596865547,66.4550824870562,64.25250897330672,-9.988761881522345,15.739770158545271C-86.43260625010089,-32.77296865621618,-169.40756415659789,-70.99431929039034,-210.8950431098464,-90.10499460747741L-252.3825220630949,-109.2156699245645" style="mix-blend-mode: multiply;"/><path d="M206.2805441483764,181.8607629640042L173.72909286653444,150.46918147122244C141.17764158469245,119.07759997844069,76.07473902100848,56.29443699287717,31.69641643227085,-18.74520842331611C-12.68190615646679,-93.78485383950938,-36.3356487702581,-181.08098168633242,-48.162520077153765,-224.72904560974393L-59.98939138404942,-268.3771095331555" style="mix-blend-mode: multiply;"/><path d="M206.2805441483764,181.8607629640042L172.205700721785,151.24538853853218C138.13085729519358,120.63001411306017,69.98117044201074,59.39926526211613,5.290952589947271,-5.290952589947277C-59.39926526211619,-69.9811704420107,-120.63001411306028,-138.13085729519347,-151.24538853853232,-172.20570072178486L-181.86076296400438,-206.28054414837626" style="mix-blend-mode: multiply;"/><path d="M206.2805441483764,181.8607629640042L177.91476406009227,153.93186982471795C149.5489839718081,126.0029766854317,92.81742379523978,70.14519040685921,104.24805045393974,41.27472303727272C115.6786771126397,12.404255667686234,195.27149060660795,10.521107207085755,235.0678973535921,9.579532976785517L274.8643041005762,8.637958746485277" style="mix-blend-mode: multiply;"/><path d="M206.2805441483764,181.8607629640042L177.63374178462377,155.18909121444395C148.98693942087104,128.5174194648837,91.69333469336568,75.17407596576318,99.37699767915211,63.06656045918991C107.06066066493851,50.95904495261666,179.7215913640167,80.08735743859064,216.05205671355577,94.65151368157763L252.38252206309485,109.21566992456462" style="mix-blend-mode: multiply;"/><path d="M206.2805441483764,181.8607629640042L177.71323790211522,152.6594837395437C149.14593165585399,123.4582045150832,92.01131916333156,65.0556460661622,100.75493038233749,19.2200308942523C109.49854160134343,-26.615584277657593,184.1203765318777,-59.88425617255638,221.43129399714485,-76.51859212000576L258.742211462412,-93.15292806745515" style="mix-blend-mode: multiply;"/><path d="M206.2805441483764,181.8607629640042L177.8336741279995,153.07402794808627C149.38680410762257,124.28729293216834,92.49306406686874,66.71382290033249,102.8424916309986,26.405463842323574C113.19191919512843,-13.902895215685332,190.78451436414198,-36.94614329986729,229.58081194864874,-48.46776734195826L268.37710953315553,-59.98939138404924" style="mix-blend-mode: multiply;"/><path d="M206.2805441483764,181.8607629640042L176.41112187020175,150.9808058663181C146.54169959202707,120.10084876863196,86.80285503567775,58.340934573259716,78.18491916250434,-9.877052241658399C69.56698328933092,-78.09503905657652,112.06995609933341,-152.77109849104053,133.32144250433467,-190.10912820827252L154.5729289093359,-227.4471579255045" style="mix-blend-mode: multiply;"/><path d="M206.2805441483764,181.8607629640042L177.32204973290388,151.8917337290202C148.3635553174313,121.92270449403618,90.44656648648618,61.984646024068155,93.97433544934086,5.912364045178137C97.50210441219555,-50.15991793371188,162.47463116885004,-102.36642342152389,194.96089454717728,-128.4696761654299L227.4471579255045,-154.5729289093359" style="mix-blend-mode: multiply;"/><path d="M206.2805441483764,181.8607629640042L177.43776097666114,152.07406547374498C148.59497780494578,122.28736798348577,90.90941146151518,62.71397300296734,95.97999700779985,9.072780953741292C101.05058255408454,-44.568411095484755,168.87731999008452,-92.27740021341843,202.7906887080845,-116.13189477238525L236.7040574260845,-139.9863893313521" style="mix-blend-mode: multiply;"/><path d="M206.2805441483764,181.8607629640042L177.71323790211522,154.98830694123006C149.14593165585399,128.11585091845595,92.01131916333156,74.3709388729077,100.75493038233749,59.58629972348285C109.49854160134343,44.80166057405801,184.1203765318777,68.97729432075657,221.43129399714485,81.06511119410584L258.742211462412,93.15292806745512" style="mix-blend-mode: multiply;"/><path d="M206.2805441483764,181.8607629640042L172.37209226190296,156.54005319542833C138.46364037542946,131.21934342685245,70.64673660248253,80.5779238897007,8.175072618658385,86.48323479625248C-54.29659136516577,92.38854570280425,-111.42301555986712,154.84058705305958,-139.9862276572178,186.06660772818722L-168.54943975456848,217.2926284033149" style="mix-blend-mode: multiply;"/><path d="M124.84738742837538,245.02679415180114L105.49210738216978,210.68763385465567C86.13682733596418,176.34847355751018,47.42626724355298,107.67015296321925,25.178709547742873,112.6430712880151C2.931151851932778,117.61598961281094,-2.8534034472762104,196.24014685669354,-5.745681096880705,235.55222547863488L-8.637958746485198,274.8643041005762" style="mix-blend-mode: multiply;"/><path d="M124.84738742837538,245.02679415180114L108.75486339228955,205.8866341793414C92.66233935620369,166.7464742068817,60.47729128403197,88.46615426196222,81.73314705648521,29.425743582567915C102.98900282893845,-29.61466709682639,177.68576244601664,-69.41516851069552,215.03414225455572,-89.3154192176301L252.38252206309483,-109.21566992456465" style="mix-blend-mode: multiply;"/><path d="M124.84738742837538,245.02679415180114L108.66291679339837,205.69123771054376C92.47844615842133,166.3556812692864,60.10950488846729,87.68456838677167,80.13940600903824,26.038871456742253C100.16930712960921,-35.60682547328717,172.59805064070517,-80.22710645083127,208.81242239625317,-102.53724693960332L245.02679415180114,-124.84738742837537" style="mix-blend-mode: multiply;"/><path d="M124.84738742837538,245.02679415180114L108.90109141101534,208.21086198040834C92.95479539365529,171.39492980901548,61.0622033589352,97.76306546622983,84.26776604773254,69.71235880106099C107.47332873652987,41.66165213589213,185.77704614884462,59.192103148340074,224.92890485500197,67.95732865456405L264.08076356115936,76.72255416078802" style="mix-blend-mode: multiply;"/><path d="M124.84738742837538,245.02679415180114L108.9547957356653,206.50196266109785C93.0622040429552,167.97713117039456,61.27702065753501,90.92746818898797,85.1986410083317,40.09143726634624C109.12026135912839,-10.74459365629548,188.74868544614196,-35.36699252017235,228.56289748964875,-47.6781919521108L268.37710953315553,-59.989391384049235" style="mix-blend-mode: multiply;"/><path d="M124.84738742837538,245.02679415180114L103.49321386956875,209.9679879084399C82.1390403107621,174.90918166507868,39.430693193148805,104.79156917835617,-9.468778004008504,100.16920822027514C-58.36824920116582,95.54684726219409,-113.45884447786715,156.4197378327545,-141.00414211621782,186.8561831180347L-168.54943975456848,217.2926284033149" style="mix-blend-mode: multiply;"/><path d="M-8.637958746485198,274.8643041005762L-6.347241512725546,229.1883810072229C-4.056524278965894,183.51245791386955,0.5249101885534101,92.16061172716292,14.751662339765618,2.336433783540315C28.978414490977826,-87.48774416008227,52.85048432588294,-175.7842538606208,64.78651924333549,-219.93250871089006L76.72255416078805,-264.08076356115936" style="mix-blend-mode: multiply;"/><path d="M-8.637958746485198,274.8643041005762L-4.34747272190934,234.2392204183793C-0.05698669733348183,193.61413673618233,8.523985351818235,112.36396937178849,49.41432138057985,89.88431691025113C90.30465740934146,67.40466444871379,163.50435741771298,103.69552689003295,200.10420742189874,121.84095811069254L236.7040574260845,139.98638933135211" style="mix-blend-mode: multiply;"/><path d="M-8.637958746485198,274.8643041005762L-4.151491913946711,231.1241946776803C0.33497491859177586,187.38408525478442,9.30790858366875,99.90386640899264,52.81132205193209,35.89053740480251C96.31473552019543,-28.122791599387636,174.3486287916451,-68.66923076197615,213.36557542737,-88.94245034327041L252.38252206309483,-109.21566992456465" style="mix-blend-mode: multiply;"/><path d="M-8.637958746485198,274.8643041005762L-9.579532976785451,229.9108837498827C-10.521107207085706,184.95746339918912,-12.404255667686213,95.05062269780205,-41.27472303727274,14.859814656309979C-70.14519040685927,-65.3309933851821,-126.00297668543182,-135.80576876677918,-153.93186982471812,-171.04315645757774L-181.86076296400438,-206.28054414837626" style="mix-blend-mode: multiply;"/><path d="M-8.637958746485198,274.8643041005762L-4.727766637880691,234.7626500887874C-0.8175745292761848,194.66099607699866,7.002809687932829,114.45768805342108,42.82256017040976,98.95709786399243C78.64231065288669,83.45650767456375,142.46142740063155,132.658635319284,174.37098577450396,157.2596991416441L206.2805441483764,181.8607629640042" style="mix-blend-mode: multiply;"/><path d="M-8.637958746485198,274.8643041005762L-4.15149191394671,233.85458642579442C0.334974918591777,192.84486875101265,9.307908583668754,110.82543340144912,52.8113220519321,83.21732770544718C96.31473552019544,55.609222009445254,174.34862879164515,82.41244596700494,213.36557542737003,95.81405794578478L252.38252206309488,109.21566992456462" style="mix-blend-mode: multiply;"/><path d="M-8.637958746485198,274.8643041005762L-5.745681096880705,235.55222547863488C-2.8534034472762104,196.24014685669354,2.931151851932778,117.61598961281094,25.178709547742873,112.6430712880151C47.42626724355298,107.67015296321925,86.13682733596418,176.34847355751018,105.49210738216978,210.68763385465567L124.84738742837538,245.02679415180114" style="mix-blend-mode: multiply;"/><path d="M-8.637958746485198,274.8643041005762L-10.701452110531184,233.02713402531313C-12.764945474577168,191.18996395005013,-16.891932202669135,107.51562379952405,-60.721321355532076,68.8748194304386C-104.55071050839503,30.234015061353166,-188.08250208602894,36.626746473708344,-229.84839787484592,39.82311217988593L-271.61429366366286,43.01947788606353" style="mix-blend-mode: multiply;"/><path d="M-8.637958746485198,274.8643041005762L-8.470685040578589,229.25511290845722C-8.30341133467198,183.64592171633822,-7.968863922858762,92.42753933210027,-22.054692143020457,3.493120071602268C-36.140520363182155,-85.44129918889575,-64.64672421531877,-172.09175532565382,-78.89982614138707,-215.41698339403285L-93.15292806745538,-258.7422114624119" style="mix-blend-mode: multiply;"/><path d="M-8.637958746485198,274.8643041005762L-4.005263895220904,233.44842247874723C0.6274309560433894,192.03254085691822,9.892820658571978,109.20077761326029,55.3459410431794,76.17715262329558C100.79906142778684,43.15352763333089,182.4399124944731,59.93804089705946,223.26033802781623,68.33029752892374L264.08076356115936,76.72255416078802" style="mix-blend-mode: multiply;"/><path d="M-8.637958746485198,274.8643041005762L-3.8704696384781934,232.59736503606845C0.8970194695288107,190.33042597156066,10.43199768554282,105.79654784254514,57.682374826719716,61.42549028352999C104.9327519678966,17.054432724514832,189.8985280342364,12.846195735500052,232.38141606740632,10.742077240992662L274.8643041005762,8.637958746485273" style="mix-blend-mode: multiply;"/><path d="M-8.637958746485198,274.8643041005762L-5.374111828368697,229.64630107766857C-2.1102649102521975,184.42829805476092,4.417428925980803,93.99229200894565,31.619243535284323,10.273715004598865C58.82105814458783,-73.44486199974791,106.69699352696188,-150.44600996262622,130.6349612181489,-188.9465839440654L154.5729289093359,-227.4471579255045" style="mix-blend-mode: multiply;"/><path d="M-8.637958746485198,274.8643041005762L-3.951559570570952,233.23925794403797C0.7348396053432941,191.61421178749978,10.107637957171788,108.36411947442333,56.27681600377858,72.55163402166883C102.44599405038537,36.73914856891432,185.41155179177045,48.36426997648173,226.89433066246298,54.17683068026543L268.37710953315553,59.98939138404914" style="mix-blend-mode: multiply;"/><path d="M-8.637958746485198,274.8643041005762L-3.951559570570952,231.73952315943674C0.7348396053432941,188.61474221829732,10.107637957171788,102.36518033601841,56.27681600377858,46.55623108858085C102.44599405038537,-9.252718158856728,185.41155179177045,-34.62105477145298,226.89433066246298,-47.3052230777511L268.37710953315553,-59.989391384049235" style="mix-blend-mode: multiply;"/><path d="M-8.637958746485198,274.8643041005762L-4.46318396566659,230.55722894037066C-0.28840918484798195,186.2501537801651,8.061140376789234,97.63600345975408,47.40865982212085,26.063131291435397C86.75617926745247,-45.509740876883285,157.1016685964785,-100.04133489310959,192.2744132609915,-127.30713190122276L227.4471579255045,-154.5729289093359" style="mix-blend-mode: multiply;"/><path d="M-8.637958746485198,274.8643041005762L-4.071995796455246,231.32497895089418C0.4939671535747057,187.78565380121213,9.625893053634611,100.70700350184812,54.189254755117474,39.37079814050956C98.75261645660034,-21.965407220828997,178.74741395950616,-57.55916764414207,218.7448127109591,-75.35604785579861L258.742211462412,-93.15292806745515" style="mix-blend-mode: multiply;"/><path d="M-8.637958746485198,274.8643041005762L-4.243438512837882,230.92879820888265C0.15108172080943424,186.99329231718914,8.940122188104068,99.1222805338021,51.21758100448512,32.50366527897685C93.49503982086618,-34.11494997584841,169.26091698633365,-79.4811687021119,207.14385556906737,-102.16427806524364L245.02679415180114,-124.84738742837537" style="mix-blend-mode: multiply;"/><path d="M-8.637958746485198,274.8643041005762L-10.7420772409926,232.59736503606845C-12.846195735500002,190.33042597156066,-17.054432724514804,105.79654784254514,-61.42549028352997,61.425490283529996C-105.79654784254514,17.05443272451484,-190.33042597156066,12.846195735500062,-232.59736503606845,10.742077240992673L-274.8643041005762,8.637958746485287" style="mix-blend-mode: multiply;"/><path d="M-25.87978616259138,273.779540265847L-18.535271926694097,230.82199374922834C-11.190757690796815,187.8644472326096,3.4982707809977476,101.94935419937222,52.541086730288896,46.32119892438953C101.58390267958005,-9.306956350593188,184.98050610636778,-34.64817386732121,226.6788078197617,-47.31878262568522L268.37710953315553,-59.989391384049235" style="mix-blend-mode: multiply;"/><path d="M-59.98939138404919,268.37710953315553L-47.38631300984383,226.25243775449346C-34.78323463563847,184.12776597583135,-9.577077887227743,99.87842241850716,45.15067226563971,45.150672265639706C99.87842241850717,-9.577077887227766,184.12776597583135,-34.7832346356385,226.25243775449346,-47.38631300984387L268.37710953315553,-59.98939138404924" style="mix-blend-mode: multiply;"/><path d="M-59.98939138404919,268.37710953315553L-47.58624535321959,225.637109272737C-35.183099322389985,182.89710901231845,-10.376807260730779,97.41710849148139,41.68517831379322,34.484978581861355C93.74716388831723,-28.44715132775868,173.06484297570603,-68.83141062616167,212.72368251940043,-89.02354027536317L252.38252206309483,-109.21566992456466" style="mix-blend-mode: multiply;"/><path d="M-59.98939138404919,268.37710953315553L-53.014286416058326,224.42379834493934C-46.03918144806747,180.47048715672318,-32.08897151208575,92.56386478029081,-52.40086677541161,13.454255833368842C-72.71276203873748,-65.65535311355312,-127.28676250137092,-135.96794863096468,-154.57376273268764,-171.12424638967047L-181.86076296400438,-206.28054414837626" style="mix-blend-mode: multiply;"/><path d="M-76.72255416078805,264.08076356115936L-68.04927525345524,222.00311663809023C-59.37599634612244,179.9254697150211,-42.02943853145683,95.77017586888286,-71.30609984850797,33.554103621262215C-100.58276116555912,-28.66196862635842,-176.482641614327,-68.93881927546146,-214.43258183871095,-89.07724460001297L-252.38252206309488,-109.2156699245645" style="mix-blend-mode: multiply;"/><path d="M-76.72255416078805,264.08076356115936L-63.33390138481187,220.30547758524975C-49.945248608835676,176.53019160934022,-23.167943056883317,88.97961965752103,10.427047207977251,4.1283600386942725C44.022037472837816,-80.72289958013248,84.43471245060658,-162.87484686596682,104.64104993949097,-203.950820508884L124.84738742837536,-245.02679415180117" style="mix-blend-mode: multiply;"/><path d="M-168.54943975456848,217.2926284033149L-141.00414211621782,186.8561831180347C-113.45884447786715,156.4197378327545,-58.36824920116582,95.54684726219409,-9.468778004008504,100.16920822027514C39.430693193148805,104.79156917835617,82.1390403107621,174.90918166507868,103.49321386956875,209.9679879084399L124.84738742837538,245.02679415180114" style="mix-blend-mode: multiply;"/><path d="M-168.54943975456848,217.2926284033149L-139.21002058990805,183.04348079883655C-109.87060142524764,148.79433319435825,-51.19176309592681,80.29603798540158,21.629328452027195,34.08236802084089C94.4504199999812,-12.131301943719793,181.4137647665684,-36.06034666388451,224.89543714986198,-48.02486902396688L268.37710953315553,-59.989391384049235" style="mix-blend-mode: multiply;"/><path d="M-168.54943975456848,217.2926284033149L-139.40995293328385,182.42815231708013C-110.27046611199916,147.56367623084535,-51.991492469429836,77.83472405837581,18.16383450018071,23.416674337062556C88.31916146979125,-31.001375384250704,170.35084176644304,-70.10852265440768,211.36668191476892,-89.66209628948616L252.38252206309483,-109.21566992456465" style="mix-blend-mode: multiply;"/><path d="M-168.54943975456848,217.2926284033149L-139.98622765721782,186.06660772818725C-111.42301555986712,154.84058705305958,-54.29659136516577,92.38854570280425,8.175072618658385,86.48323479625248C70.64673660248253,80.5779238897007,138.46364037542946,131.21934342685245,172.37209226190294,156.54005319542833L206.2805441483764,181.8607629640042" style="mix-blend-mode: multiply;"/><path d="M-181.8607629640042,206.2805441483764L-150.6691138145982,173.11376438477802C-119.4774646651922,139.94698462117955,-57.0941663663802,73.61342509398273,15.279714471469637,21.03072274849255C87.65359530931947,-31.551979596997626,170.01805868620716,-70.38382476078114,211.200290374651,-89.7997473426729L252.38252206309483,-109.21566992456465" style="mix-blend-mode: multiply;"/><path d="M-271.61429366366286,43.019477886063534L-227.16191658866015,38.66056791567879C-182.7095395136574,34.301657945294046,-93.80478536365194,25.58383800452457,-14.155645728312066,48.724052184181346C65.49349390702781,71.86426636383813,135.8870190277021,126.86251466392116,171.08378158803927,154.36163881396268L206.2805441483764,181.8607629640042" style="mix-blend-mode: multiply;"/><path d="M-271.61429366366286,43.019477886063534L-226.58564186472617,35.02211250457168C-181.55699006578945,27.02474712307983,-91.49968646791604,11.030016360096122,-4.166883846789744,-14.342508275008575C83.16591877433653,-39.71503291011327,167.7742204187157,-74.46535141733897,210.07837124090528,-91.8405106709518L252.38252206309483,-109.21566992456465" style="mix-blend-mode: multiply;"/><path d="M-271.61429366366286,43.019477886063534L-230.90483499135803,33.15303073534859C-190.19537631905322,23.286583584633647,-108.77645897444353,3.553689283203757,-79.03289804174229,-46.739925608208814C-49.28933710904104,-97.03354049962138,-71.22113258824821,-177.88787598101666,-82.18703032785179,-218.31504372171426L-93.15292806745538,-258.7422114624119" style="mix-blend-mode: multiply;"/><path d="M-271.61429366366286,43.019477886063534L-229.84839787484592,39.82311217988594C-188.08250208602894,36.62674647370835,-104.55071050839503,30.234015061353166,-60.721321355532076,68.8748194304386C-16.891932202669135,107.51562379952405,-12.764945474577168,191.18996395005013,-10.701452110531184,233.02713402531313L-8.637958746485198,274.8643041005762" style="mix-blend-mode: multiply;"/><path d="M-271.61429366366286,43.019477886063534L-226.43941384600035,37.346340305638584C-181.26453402833783,31.673202725213645,-90.9147743930128,20.326927564363757,-1.6322648555424262,25.944106943484503C87.65024468192793,31.561286322605252,175.86550412154364,54.14192024169663,219.97313384135148,65.43223720124233L264.08076356115936,76.72255416078802" style="mix-blend-mode: multiply;"/><path d="M-271.61429366366286,43.019477886063534L-231.49025325715675,33.42850766080268C-191.3662128506506,23.83753743554183,-111.11813203763836,4.655596985020124,-89.18014798225325,-41.96499223367122C-67.24216392686812,-88.58558145236258,-103.61427662911011,-162.64481943922354,-121.80033298023109,-199.67443843265406L-139.9863893313521,-236.70405742608455" style="mix-blend-mode: multiply;"/><path d="M-271.61429366366286,43.019477886063534L-232.89520491630353,35.02211250457168C-194.1761161689442,27.024747123079834,-116.73793867422552,11.030016360096129,-113.53264340746419,-14.34250827500854C-110.32734814070285,-39.715032910113216,-181.35493510189886,-74.46535141733885,-216.8687285824969,-91.84051067095167L-252.3825220630949,-109.2156699245645" style="mix-blend-mode: multiply;"/><path d="M-271.61429366366286,43.019477886063534L-232.0136829275649,33.80880157677404C-192.4130721914669,24.598125267484537,-113.211850719271,6.17677264890554,-98.25292893599457,-35.37323102350109C-83.29400715271817,-76.92323469590772,-132.57738505836127,-141.601889422142,-157.2190740111828,-173.94121678525914L-181.86076296400438,-206.28054414837626" style="mix-blend-mode: multiply;"/><path d="M-271.61429366366286,43.019477886063534L-227.80826177914813,33.54421890455993C-184.00222989463342,24.06895992305633,-96.39016612560397,5.118441960049128,-25.35896236343751,-39.959330675212215C45.67224139872895,-85.03710331047355,100.12258515403242,-156.24213061798903,127.34775703168417,-191.84464427174677L154.5729289093359,-227.4471579255045" style="mix-blend-mode: multiply;"/><path d="M-273.779540265847,25.879786162591586L-229.82203127488705,18.93118507803266C-185.86452228392704,11.982583993473733,-97.94950430200709,-1.9146181756441187,-28.988516035807223,-45.67859210709013C39.97247223039263,-89.44256603853614,89.97943078087236,-163.07331173231032,114.98291005611225,-199.8886845791974L139.98638933135211,-236.7040574260845" style="mix-blend-mode: multiply;"/><path d="M-273.779540265847,25.879786162591586L-232.7362727423721,18.655708152578566C-191.69300521889724,11.431630142565547,-109.60647017194746,-3.016525877460488,-79.50203480554886,-50.453525481627736C-49.39759943915025,-97.89052508579498,-71.27526375330281,-178.31636827410344,-82.2140959103791,-218.52928986825768L-93.15292806745538,-258.7422114624119" style="mix-blend-mode: multiply;"/><path d="M-273.779540265847,25.879786162591586L-228.2171472723645,21.140118403558102C-182.65475427888194,16.400450644524614,-91.52996829191692,6.921115126457646,-1.1705266587498215,-7.390414464649159C89.18891497441727,-21.701944055755963,178.7830122537864,-40.8456677199026,223.58006089347097,-50.41752955197592L268.37710953315553,-59.98939138404924" style="mix-blend-mode: multiply;"/><path d="M-274.8643041005762,8.637958746485282L-229.13467668257292,6.556406047434852C-183.40504926456967,4.474853348384422,-91.94579442856309,0.3117479502835622,-1.405558822941136,-11.126143738138857C89.13467678268081,-22.56403542656128,178.75589315791817,-41.27671340530526,223.56650134553686,-50.63305239467726L268.37710953315553,-59.98939138404924" style="mix-blend-mode: multiply;"/><path d="M-274.8643041005762,8.637958746485282L-229.42655562483984,5.745681096880776C-183.9888071491035,2.853403447276269,-93.11331019763082,-2.931151851932744,-6.464793822234593,-25.17870954774285C80.18372255316163,-47.42626724355296,162.6052583524814,-86.13682733596416,203.81602625214126,-105.49210738216976L245.02679415180114,-124.84738742837537" style="mix-blend-mode: multiply;"/><path d="M-274.8643041005762,8.637958746485282L-232.59736503606845,10.742077240992671C-190.33042597156066,12.846195735500059,-105.79654784254514,17.054432724514836,-61.42549028352997,61.42549028352999C-17.054432724514804,105.79654784254514,-12.846195735500002,190.33042597156066,-10.7420772409926,232.59736503606845L-8.637958746485198,274.8643041005762" style="mix-blend-mode: multiply;"/><path d="M-274.8643041005762,-8.63795874648518L-229.33460902594868,-8.671469313792441C-183.80491395132117,-8.704979881099701,-92.74552380206613,-8.772001015714219,-4.871052774787633,-25.534952878727466C83.00341825249087,-42.29790474174071,167.69297015779284,-75.75678733315267,210.03774611044386,-92.48622862885867L252.38252206309483,-109.21566992456465" style="mix-blend-mode: multiply;"/><path d="M-274.8643041005762,-8.63795874648518L-235.64417207752604,-8.671469313792437C-196.4240400544759,-8.704979881099696,-117.98377600837563,-8.772001015714212,-114.23681233546209,-25.534952878727427C-110.48984866254852,-42.297904741740645,-181.4361853628217,-75.75678733315257,-216.90935371295834,-92.48622862885854L-252.3825220630949,-109.2156699245645" style="mix-blend-mode: multiply;"/><path d="M-252.3825220630949,-109.2156699245645L-215.223379778343,-95.33705486235351C-178.06423749359112,-81.45843980014256,-103.74595292408732,-53.70120967572061,-85.01326413546352,-74.9492742593073C-66.28057534683971,-96.19733884289398,-103.1334823390959,-166.45069813448927,-121.559935835224,-201.57737778028687L-139.9863893313521,-236.70405742608455" style="mix-blend-mode: multiply;"/><path d="M-252.3825220630949,-109.2156699245645L-216.86872858249686,-91.84051067095167C-181.35493510189886,-74.46535141733885,-110.32734814070285,-39.715032910113216,-113.53264340746419,-14.34250827500854C-116.73793867422552,11.030016360096129,-194.1761161689442,27.024747123079834,-232.89520491630353,35.02211250457168L-271.61429366366286,43.019477886063534" style="mix-blend-mode: multiply;"/><path d="M-252.3825220630949,-109.2156699245645L-210.8950431098464,-90.10499460747741C-169.40756415659789,-70.99431929039034,-86.43260625010089,-32.77296865621618,-9.988761881522342,15.739770158545275C66.4550824870562,64.25250897330672,136.36781331771633,123.05663596865547,171.32417873304635,152.45869946632982L206.2805441483764,181.8607629640042" style="mix-blend-mode: multiply;"/><path d="M-252.3825220630949,-109.2156699245645L-210.31876838591242,-93.74345001858451C-168.25501470872993,-78.27123011260456,-84.12750735436497,-47.326790300644625,-1.8947806286936004e-14,-47.32679030064465C84.12750735436494,-47.32679030064467,168.25501470872987,-78.27123011260467,210.31876838591234,-93.74345001858465L252.38252206309483,-109.21566992456465" style="mix-blend-mode: multiply;"/><path d="M-252.3825220630949,-109.2156699245645L-214.43258183871095,-89.07724460001297C-176.482641614327,-68.93881927546146,-100.58276116555912,-28.66196862635842,-71.30609984850797,33.55410362126222C-42.02943853145683,95.77017586888286,-59.37599634612244,179.9254697150211,-68.04927525345524,222.00311663809023L-76.72255416078805,264.08076356115936" style="mix-blend-mode: multiply;"/><path d="M-252.3825220630949,-109.2156699245645L-216.90935371295828,-92.48622862885851C-181.4361853628217,-75.75678733315257,-110.48984866254852,-42.297904741740645,-114.23681233546206,-25.534952878727427C-117.98377600837563,-8.772001015714212,-196.4240400544759,-8.704979881099696,-235.64417207752604,-8.671469313792437L-274.8643041005762,-8.63795874648518" style="mix-blend-mode: multiply;"/><path d="M-252.3825220630949,-109.2156699245645L-215.74680944875115,-94.95676094638218C-179.11109683440745,-80.69785196819986,-105.83967160571994,-52.180034011835204,-94.08604508920484,-68.35751304913715C-82.33241857268976,-84.53499208643912,-132.09659076834706,-145.4077681174077,-156.97867686617573,-175.84415613289198L-181.86076296400438,-206.28054414837626" style="mix-blend-mode: multiply;"/><path d="M-252.3825220630949,-109.2156699245645L-214.43258183871095,-95.67926368904195C-176.482641614327,-82.14285745351943,-100.58276116555913,-55.07004498247435,-71.306099848508,-80.88089392190683C-42.02943853145688,-106.69174286133928,-59.37599634612252,-185.38625321124928,-68.04927525345535,-224.7335083862043L-76.72255416078816,-264.0807635611593" style="mix-blend-mode: multiply;"/><path d="M-252.3825220630949,-109.2156699245645L-210.41071498480358,-93.93884648738215C-168.4389079065123,-78.66202305019983,-84.49529374992966,-48.10837617583516,-1.5937410474469829,-50.71366242647031C81.30781165503569,-53.31894867710545,163.1673029034184,-89.0831680527404,204.0970485276098,-106.96527774055788L245.02679415180114,-124.84738742837537" style="mix-blend-mode: multiply;"/><path d="M-252.3825220630949,-109.2156699245645L-214.63796151254428,-95.61253178780761C-176.8934009619937,-82.00939365105074,-101.40427986089249,-54.803117377536985,-74.86601419495257,-79.72420763384488C-48.327748529012645,-104.64529789015279,-70.74033829823401,-181.69375467628234,-81.94663318284469,-220.21798306934713L-93.15292806745538,-258.7422114624119" style="mix-blend-mode: multiply;"/><path d="M-252.3825220630949,-109.2156699245645L-210.0377461104439,-92.27027966019641C-167.6929701577929,-75.32488939582831,-83.0034182524909,-41.43410886709213,4.871052774787614,-21.791837421917165C92.74552380206613,-2.1495659767422026,183.80491395132117,3.2441963848715374,229.33460902594868,5.941077565678406L274.8643041005762,8.637958746485277" style="mix-blend-mode: multiply;"/><path d="M-181.86076296400438,-206.28054414837626L-153.93186982471812,-171.04315645757768C-126.00297668543182,-135.80576876677918,-70.14519040685927,-65.33099338518208,-41.27472303727274,14.859814656309984C-12.404255667686213,95.05062269780205,-10.521107207085706,184.95746339918912,-9.579532976785451,229.9108837498827L-8.637958746485198,274.8643041005762" style="mix-blend-mode: multiply;"/><path d="M-181.86076296400438,-206.28054414837626L-151.24538853853232,-172.20570072178486C-120.63001411306028,-138.13085729519347,-59.39926526211619,-69.9811704420107,5.290952589947271,-5.290952589947281C69.98117044201074,59.39926526211613,138.13085729519358,120.63001411306017,172.20570072178498,151.24538853853218L206.2805441483764,181.8607629640042" style="mix-blend-mode: multiply;"/><path d="M-181.86076296400438,-206.28054414837626L-157.2190740111828,-173.94121678525912C-132.57738505836127,-141.601889422142,-83.29400715271817,-76.92323469590772,-98.25292893599457,-35.3732310235011C-113.211850719271,6.176772648905537,-192.4130721914669,24.598125267484534,-232.0136829275649,33.80880157677403L-271.61429366366286,43.01947788606353" style="mix-blend-mode: multiply;"/><path d="M-181.86076296400438,-206.28054414837626L-154.57376273268764,-177.83367412799933C-127.28676250137094,-149.38680410762245,-72.71276203873748,-92.49306406686867,-52.40086677541166,-102.84249163099855C-32.08897151208583,-113.19191919512842,-46.039181448067616,-190.78451436414196,-53.01428641605852,-229.58081194864872L-59.98939138404941,-268.3771095331555" style="mix-blend-mode: multiply;"/><path d="M-181.86076296400438,-206.28054414837626L-150.46918147122258,-175.2288276511355C-119.0775999784408,-144.1771111538948,-56.29443699287723,-82.07367815941336,18.745208423316086,-57.69181936535887C93.78485383950941,-33.30996057130436,181.08098168633248,-46.6496759776768,224.72904560974402,-53.319533680863024L268.37710953315553,-59.98939138404924" style="mix-blend-mode: multiply;"/><path d="M-181.86076296400438,-206.28054414837626L-156.97867686617573,-175.84415613289195C-132.09659076834706,-145.4077681174077,-82.33241857268976,-84.53499208643912,-94.08604508920484,-68.35751304913717C-105.83967160571994,-52.180034011835204,-179.11109683440745,-80.69785196819986,-215.74680944875118,-94.95676094638218L-252.3825220630949,-109.2156699245645" style="mix-blend-mode: multiply;"/><path d="M-181.86076296400438,-206.28054414837626L-150.66911381459835,-175.84415613289195C-119.47746466519233,-145.4077681174077,-57.09416636638027,-84.53499208643915,15.279714471469598,-68.3575130491372C87.65359530931947,-52.18003401183527,170.01805868620713,-80.69785196819996,211.200290374651,-94.9567609463823L252.38252206309483,-109.21566992456465" style="mix-blend-mode: multiply;"/><path d="M-181.86076296400438,-206.28054414837626L-154.57376273268764,-171.12424638967047C-127.28676250137092,-135.96794863096468,-72.71276203873747,-65.65535311355312,-52.4008667754116,13.454255833368839C-32.08897151208574,92.56386478029081,-46.03918144806747,180.47048715672315,-53.014286416058326,224.42379834493934L-59.989391384049185,268.37710953315553" style="mix-blend-mode: multiply;"/><path d="M-139.9863893313521,-236.70405742608455L-121.55993583522398,-201.57737778028692C-103.1334823390959,-166.45069813448927,-66.28057534683971,-96.19733884289398,-85.01326413546353,-74.9492742593073C-103.74595292408732,-53.70120967572061,-178.06423749359112,-81.45843980014256,-215.223379778343,-95.33705486235353L-252.3825220630949,-109.2156699245645" style="mix-blend-mode: multiply;"/><path d="M-139.9863893313521,-236.70405742608455L-121.80033298023108,-199.67443843265406C-103.61427662911011,-162.64481943922354,-67.24216392686812,-88.58558145236258,-89.18014798225325,-41.964992233671225C-111.11813203763836,4.655596985020128,-191.3662128506506,23.837537435541833,-231.49025325715675,33.42850766080268L-271.61429366366286,43.019477886063534" style="mix-blend-mode: multiply;"/><path d="M-139.9863893313521,-236.70405742608455L-115.8266475075806,-197.93892236917978C-91.6669056838091,-159.17378731227504,-43.347422036266146,-81.64351719846553,14.363733543688603,-11.882713800117406C72.07488912364336,57.87808959823072,139.17771663600988,119.86942628111746,172.72913039219316,150.86509462256083L206.2805441483764,181.8607629640042" style="mix-blend-mode: multiply;"/><path d="M-93.15292806745538,-258.7422114624119L-82.18703032785179,-218.31504372171426C-71.22113258824821,-177.88787598101666,-49.28933710904104,-97.03354049962138,-79.03289804174229,-46.73992560820881C-108.77645897444353,3.5536892832037594,-190.19537631905322,23.286583584633647,-230.90483499135803,33.15303073534859L-271.61429366366286,43.019477886063534" style="mix-blend-mode: multiply;"/><path d="M-93.15292806745538,-258.7422114624119L-76.2133448552013,-216.57952765823998C-59.27376164294722,-174.41684385406813,-25.394595218439076,-90.09147624572434,24.510983484199556,-16.657647174655C74.41656218683819,56.77618189641435,140.3485531676073,119.31847243020928,173.31454865799185,150.58961769710675L206.2805441483764,181.8607629640042" style="mix-blend-mode: multiply;"/><path d="M-93.15292806745538,-258.7422114624119L-75.63707013126732,-220.21798306934713C-58.121212195079266,-181.69375467628234,-23.08949632270315,-104.64529789015279,34.499745365721886,-79.72420763384491C92.08898705414691,-54.80311737753704,172.23575455862087,-82.00939365105084,212.30913831085786,-95.61253178780775L252.38252206309483,-109.21566992456465" style="mix-blend-mode: multiply;"/><path d="M-93.15292806745538,-258.7422114624119L-78.89982614138707,-215.41698339403285C-64.64672421531877,-172.09175532565382,-36.140520363182155,-85.44129918889575,-22.05469214302046,3.493120071602268C-7.968863922858762,92.42753933210027,-8.30341133467198,183.64592171633822,-8.470685040578589,229.25511290845722L-8.637958746485198,274.8643041005762" style="mix-blend-mode: multiply;"/><path d="M-93.15292806745538,-258.7422114624119L-75.49084211254151,-217.8937552682802C-57.82875615762765,-177.04529907414852,-22.504584247799926,-95.34838668588516,37.0343643569692,-39.43759241535184C96.57331296173832,16.473201855181483,180.32703826144885,46.59787800798475,222.2039009113041,61.660216084386384L264.08076356115936,76.72255416078802" style="mix-blend-mode: multiply;"/><path d="M-93.15292806745538,-258.7422114624119L-75.3560478557988,-218.744812710959C-57.559167644142235,-178.74741395950608,-21.965407220829082,-98.75261645660031,39.370798140509514,-54.18925475511744C100.70700350184809,-9.625893053634575,187.78565380121213,-0.49396715357465126,231.32497895089418,4.071995796455311L274.8643041005762,8.637958746485273" style="mix-blend-mode: multiply;"/><path d="M-93.15292806745538,-258.7422114624119L-81.94663318284469,-220.21798306934713C-70.74033829823401,-181.69375467628234,-48.327748529012645,-104.64529789015279,-74.86601419495257,-79.7242076338449C-101.40427986089249,-54.803117377536985,-176.8934009619937,-82.00939365105074,-214.6379615125443,-95.61253178780761L-252.3825220630949,-109.2156699245645" style="mix-blend-mode: multiply;"/><path d="M-93.15292806745538,-258.7422114624119L-75.43713778789156,-219.60265458759068C-57.721347508327746,-180.46309771276947,-22.289766949200118,-102.183983963127,37.96523931756837,-69.05851395006658C98.22024558433685,-35.93304393700614,183.29867755874622,-47.96121766052769,225.8378935459509,-53.97530452228847L268.37710953315553,-59.98939138404924" style="mix-blend-mode: multiply;"/><path d="M-93.15292806745538,-258.7422114624119L-77.0420217904141,-221.8115879131161C-60.93111551337284,-184.88096436382034,-28.709302959290287,-111.01971726522879,10.14724994051096,-107.34669159250757C49.00380284031221,-103.67366591978633,94.49509608583217,-170.18886167293542,117.24074270859215,-203.44645954950997L139.98638933135211,-236.7040574260845" style="mix-blend-mode: multiply;"/><path d="M-93.15292806745538,-258.7422114624119L-82.2140959103791,-218.52928986825768C-71.27526375330281,-178.31636827410344,-49.39759943915025,-97.89052508579498,-79.50203480554886,-50.453525481627736C-109.60647017194746,-3.016525877460488,-191.69300521889724,11.431630142565547,-232.7362727423721,18.655708152578566L-273.779540265847,25.879786162591586" style="mix-blend-mode: multiply;"/><path d="M-76.72255416078816,-264.0807635611593L-68.04927525345535,-224.7335083862043C-59.37599634612252,-185.38625321124928,-42.02943853145688,-106.69174286133928,-71.306099848508,-80.88089392190683C-100.58276116555912,-55.07004498247435,-176.482641614327,-82.14285745351943,-214.43258183871095,-95.67926368904195L-252.38252206309488,-109.2156699245645" style="mix-blend-mode: multiply;"/><path d="M-59.98939138404941,-268.3771095331555L-49.78199495199862,-230.3033146913085C-39.574598519947806,-192.22951984946152,-19.159805655846203,-116.08193016576757,3.6255186016267054,-115.36587250376822C26.410842859099617,-114.64981484176887,51.566698509943826,-189.3652892014641,64.14462633536594,-226.7230263813117L76.72255416078805,-264.08076356115936" style="mix-blend-mode: multiply;"/><path d="M-59.98939138404941,-268.3771095331555L-47.782226161182415,-225.25247528015208C-35.575060938315396,-182.12784102714875,-11.160730492581385,-95.878572521142,38.288177642440935,-27.81798937705739C87.73708577746326,40.24259376702721,162.22057160177386,90.11449154918967,199.4623145139292,115.05044044027089L236.7040574260845,139.98638933135211" style="mix-blend-mode: multiply;"/><path d="M-59.98939138404941,-268.3771095331555L-48.162520077153765,-224.72904560974393C-36.335648770258096,-181.08098168633242,-12.681906156466786,-93.78485383950938,31.69641643227085,-18.745208423316104C76.07473902100848,56.29443699287717,141.17764158469245,119.07759997844069,173.72909286653444,150.46918147122244L206.2805441483764,181.8607629640042" style="mix-blend-mode: multiply;"/><path d="M-59.98939138404941,-268.3771095331555L-53.014286416058525,-229.5808119486487C-46.039181448067616,-190.78451436414196,-32.08897151208583,-113.19191919512842,-52.40086677541166,-102.84249163099855C-72.71276203873748,-92.49306406686867,-127.28676250137094,-149.38680410762245,-154.57376273268764,-177.8336741279994L-181.86076296400438,-206.28054414837626" style="mix-blend-mode: multiply;"/><path d="M-59.98939138404941,-268.3771095331555L-47.386313009844024,-227.75217253909463C-34.78323463563862,-187.12723554503376,-9.577077887227832,-105.87736155691205,45.150672265639656,-71.1460751987277C99.87842241850716,-36.414788840543316,184.12776597583135,-48.202090112296275,226.25243775449346,-54.09574074817275L268.37710953315553,-59.98939138404924" style="mix-blend-mode: multiply;"/><path d="M-59.98939138404941,-268.3771095331555L-47.58624535321977,-228.36750102085105C-35.18309932239014,-188.35789250854666,-10.376807260730864,-108.33867548393783,41.68517831379318,-81.81176888250603C93.74716388831722,-55.284862281074226,173.06484297570603,-82.25026610281944,212.72368251940043,-95.73296801369203L252.38252206309483,-109.21566992456465" style="mix-blend-mode: multiply;"/></g></svg>