<svg viewBox="-375,-375,750,750" xmlns="http://www.w3.org/2000/svg" xmlns:xlink="http://www.w3.org/1999/xlink"><g font-family="sans-serif" font-size="10"><g transform="rotate(-88.2) translate(275,0)"><text dy="0.31em" x="6" text-anchor="start">100luz<title>flare.100luz
3 outgoing
3 incoming</title></text></g><g transform="rotate(-84.6) translate(275,0)"><text dy="0.31em" x="6" text-anchor="start">Alex<title>flare.Alex
0 outgoing
0 incoming</title></text></g><g transform="rotate(-81) translate(275,0)"><text dy="0.31em" x="6" text-anchor="start">Alina<title>flare.Alina
2 outgoing
2 incoming</title></text></g><g transform="rotate(-77.4) translate(275,0)"><text dy="0.31em" x="6" text-anchor="start">Allen<title>flare.Allen
0 outgoing
0 incoming</title></text></g><g transform="rotate(-73.8) translate(275,0)"><text dy="0.31em" x="6" text-anchor="start">Ariel Malka<title>flare.Ariel Malka
0 outgoing
0 incoming</title></text></g><g transform="rotate(-70.2) translate(275,0)"><text dy="0.31em" x="6" text-anchor="start">Bertrand Saint-Guillain<title>flare.Bertrand Saint-Guillain
0 outgoing
0 incoming</title></text></g><g transform="rotate(-66.6) translate(275,0)"><text dy="0.31em" x="6" text-anchor="start">Brian<title>flare.Brian
0 outgoing
0 incoming</title></text></g><g transform="rotate(-63) translate(275,0)"><text dy="0.31em" x="6" text-anchor="start">Dan<title>flare.Dan
8 outgoing
8 incoming</title></text></g><g transform="rotate(-59.39999999999999) translate(275,0)"><text dy="0.31em" x="6" text-anchor="start">Dara<title>flare.Dara
2 outgoing
2 incoming</title></text></g><g transform="rotate(-55.800000000000004) translate(275,0)"><text dy="0.31em" x="6" text-anchor="start">Dimitre<title>flare.Dimitre
1 outgoing
1 incoming</title></text></g><g transform="rotate(-52.2) translate(275,0)"><text dy="0.31em" x="6" text-anchor="start">Elrick<title>flare.Elrick
0 outgoing
0 incoming</title></text></g><g transform="rotate(-48.6) translate(275,0)"><text dy="0.31em" x="6" text-anchor="start">Frederik De Bleser<title>flare.Frederik De Bleser
0 outgoing
0 incoming</title></text></g><g transform="rotate(-45) translate(275,0)"><text dy="0.31em" x="6" text-anchor="start">Glen Murphy<title>flare.Glen Murphy
15 outgoing
15 incoming</title></text></g><g transform="rotate(-41.4) translate(275,0)"><text dy="0.31em" x="6" text-anchor="start">Jeff Berg<title>flare.Jeff Berg
0 outgoing
0 incoming</title></text></g><g transform="rotate(-37.800000000000004) translate(275,0)"><text dy="0.31em" x="6" text-anchor="start">JimQode<title>flare.JimQode
6 outgoing
6 incoming</title></text></g><g transform="rotate(-34.2) translate(275,0)"><text dy="0.31em" x="6" text-anchor="start">Jordan J<title>flare.Jordan J
1 outgoing
1 incoming</title></text></g><g transform="rotate(-30.599999999999987) translate(275,0)"><text dy="0.31em" x="6" text-anchor="start">Josh Nimoy<title>flare.Josh Nimoy
1 outgoing
1 incoming</title></text></g><g transform="rotate(-27) translate(275,0)"><text dy="0.31em" x="6" text-anchor="start">Koenie<title>flare.Koenie
0 outgoing
0 incoming</title></text></g><g transform="rotate(-23.39999999999999) translate(275,0)"><text dy="0.31em" x="6" text-anchor="start">Martin<title>flare.Martin
15 outgoing
15 incoming</title></text></g><g transform="rotate(-19.799999999999997) translate(275,0)"><text dy="0.31em" x="6" text-anchor="start">Mike Davis<title>flare.Mike Davis
4 outgoing
4 incoming</title></text></g><g transform="rotate(-16.200000000000003) translate(275,0)"><text dy="0.31em" x="6" text-anchor="start">Processing<title>flare.Processing
0 outgoing
0 incoming</title></text></g><g transform="rotate(-12.600000000000009) translate(275,0)"><text dy="0.31em" x="6" text-anchor="start">REAS<title>flare.REAS
15 outgoing
15 incoming</title></text></g><g transform="rotate(-9) translate(275,0)"><text dy="0.31em" x="6" text-anchor="start">Takachin<title>flare.Takachin
0 outgoing
0 incoming</title></text></g><g transform="rotate(-5.400000000000006) translate(275,0)"><text dy="0.31em" x="6" text-anchor="start">WillisMorse<title>flare.WillisMorse
0 outgoing
0 incoming</title></text></g><g transform="rotate(-1.7999999999999972) translate(275,0)"><text dy="0.31em" x="6" text-anchor="start">Wim_Van_der_Vurst<title>flare.Wim_Van_der_Vurst
0 outgoing
0 incoming</title></text></g><g transform="rotate(1.7999999999999972) translate(275,0)"><text dy="0.31em" x="6" text-anchor="start">XemonerdX<title>flare.XemonerdX
2 outgoing
2 incoming</title></text></g><g transform="rotate(5.400000000000006) translate(275,0)"><text dy="0.31em" x="6" text-anchor="start">Xu1<title>flare.Xu1
0 outgoing
0 incoming</title></text></g><g transform="rotate(9.000000000000014) translate(275,0)"><text dy="0.31em" x="6" text-anchor="start">[rocha]<title>flare.[rocha]
0 outgoing
0 incoming</title></text></g><g transform="rotate(12.599999999999994) translate(275,0)"><text dy="0.31em" x="6" text-anchor="start">_cory<title>flare._cory
0 outgoing
0 incoming</title></text></g><g transform="rotate(16.19999999999999) translate(275,0)"><text dy="0.31em" x="6" text-anchor="start">_martin<title>flare._martin
4 outgoing
4 incoming</title></text></g><g transform="rotate(19.799999999999997) translate(275,0)"><text dy="0.31em" x="6" text-anchor="start">_warren<title>flare._warren
0 outgoing
0 incoming</title></text></g><g transform="rotate(23.400000000000006) translate(275,0)"><text dy="0.31em" x="6" text-anchor="start">adrien<title>flare.adrien
0 outgoing
0 incoming</title></text></g><g transform="rotate(27) translate(275,0)"><text dy="0.31em" x="6" text-anchor="start">anurag<title>flare.anurag
0 outgoing
0 incoming</title></text></g><g transform="rotate(30.60000000000001) translate(275,0)"><text dy="0.31em" x="6" text-anchor="start">arielm<title>flare.arielm
0 outgoing
0 incoming</title></text></g><g transform="rotate(34.19999999999999) translate(275,0)"><text dy="0.31em" x="6" text-anchor="start">artelse<title>flare.artelse
0 outgoing
0 incoming</title></text></g><g transform="rotate(37.79999999999998) translate(275,0)"><text dy="0.31em" x="6" text-anchor="start">barikan<title>flare.barikan
0 outgoing
0 incoming</title></text></g><g transform="rotate(41.400000000000006) translate(275,0)"><text dy="0.31em" x="6" text-anchor="start">benelek<title>flare.benelek
9 outgoing
9 incoming</title></text></g><g transform="rotate(45) translate(275,0)"><text dy="0.31em" x="6" text-anchor="start">bzor<title>flare.bzor
0 outgoing
0 incoming</title></text></g><g transform="rotate(48.599999999999994) translate(275,0)"><text dy="0.31em" x="6" text-anchor="start">damille<title>flare.damille
0 outgoing
0 incoming</title></text></g><g transform="rotate(52.20000000000002) translate(275,0)"><text dy="0.31em" x="6" text-anchor="start">depth<title>flare.depth
0 outgoing
0 incoming</title></text></g><g transform="rotate(55.80000000000001) translate(275,0)"><text dy="0.31em" x="6" text-anchor="start">dnm<title>flare.dnm
0 outgoing
0 incoming</title></text></g><g transform="rotate(59.400000000000006) translate(275,0)"><text dy="0.31em" x="6" text-anchor="start">ed<title>flare.ed
0 outgoing
0 incoming</title></text></g><g transform="rotate(63) translate(275,0)"><text dy="0.31em" x="6" text-anchor="start">edwardgeorge<title>flare.edwardgeorge
0 outgoing
0 incoming</title></text></g><g transform="rotate(66.6) translate(275,0)"><text dy="0.31em" x="6" text-anchor="start">eviltyler<title>flare.eviltyler
0 outgoing
0 incoming</title></text></g><g transform="rotate(70.20000000000002) translate(275,0)"><text dy="0.31em" x="6" text-anchor="start">ezdac<title>flare.ezdac
0 outgoing
0 incoming</title></text></g><g transform="rotate(73.80000000000004) translate(275,0)"><text dy="0.31em" x="6" text-anchor="start">fdb<title>flare.fdb
0 outgoing
0 incoming</title></text></g><g transform="rotate(77.40000000000003) translate(275,0)"><text dy="0.31em" x="6" text-anchor="start">fli<title>flare.fli
0 outgoing
0 incoming</title></text></g><g transform="rotate(81) translate(275,0)"><text dy="0.31em" x="6" text-anchor="start">flight404<title>flare.flight404
0 outgoing
0 incoming</title></text></g><g transform="rotate(84.6) translate(275,0)"><text dy="0.31em" x="6" text-anchor="start">forkinsocket<title>flare.forkinsocket
0 outgoing
0 incoming</title></text></g><g transform="rotate(88.20000000000002) translate(275,0)"><text dy="0.31em" x="6" text-anchor="start">franklin_mint<title>flare.franklin_mint
6 outgoing
6 incoming</title></text></g><g transform="rotate(91.80000000000001) translate(275,0)"><text dy="0.31em" x="-6" text-anchor="end" transform="rotate(180)">fry<title>flare.fry
18 outgoing
18 incoming</title></text></g><g transform="rotate(95.4) translate(275,0)"><text dy="0.31em" x="-6" text-anchor="end" transform="rotate(180)">fulk<title>flare.fulk
0 outgoing
0 incoming</title></text></g><g transform="rotate(99) translate(275,0)"><text dy="0.31em" x="-6" text-anchor="end" transform="rotate(180)">gaza<title>flare.gaza
2 outgoing
2 incoming</title></text></g><g transform="rotate(102.60000000000002) translate(275,0)"><text dy="0.31em" x="-6" text-anchor="end" transform="rotate(180)">gkoshra<title>flare.gkoshra
4 outgoing
4 incoming</title></text></g><g transform="rotate(106.20000000000002) translate(275,0)"><text dy="0.31em" x="-6" text-anchor="end" transform="rotate(180)">grumo<title>flare.grumo
0 outgoing
0 incoming</title></text></g><g transform="rotate(109.80000000000001) translate(275,0)"><text dy="0.31em" x="-6" text-anchor="end" transform="rotate(180)">gsm<title>flare.gsm
0 outgoing
0 incoming</title></text></g><g transform="rotate(113.39999999999998) translate(275,0)"><text dy="0.31em" x="-6" text-anchor="end" transform="rotate(180)">heidi<title>flare.heidi
0 outgoing
0 incoming</title></text></g><g transform="rotate(116.99999999999997) translate(275,0)"><text dy="0.31em" x="-6" text-anchor="end" transform="rotate(180)">heliodrop<title>flare.heliodrop
0 outgoing
0 incoming</title></text></g><g transform="rotate(120.6) translate(275,0)"><text dy="0.31em" x="-6" text-anchor="end" transform="rotate(180)">hurlbot<title>flare.hurlbot
0 outgoing
0 incoming</title></text></g><g transform="rotate(124.19999999999999) translate(275,0)"><text dy="0.31em" x="-6" text-anchor="end" transform="rotate(180)">ik0<title>flare.ik0
0 outgoing
0 incoming</title></text></g><g transform="rotate(127.79999999999998) translate(275,0)"><text dy="0.31em" x="-6" text-anchor="end" transform="rotate(180)">jand<title>flare.jand
0 outgoing
0 incoming</title></text></g><g transform="rotate(131.4) translate(275,0)"><text dy="0.31em" x="-6" text-anchor="end" transform="rotate(180)">jbk303<title>flare.jbk303
0 outgoing
0 incoming</title></text></g><g transform="rotate(135) translate(275,0)"><text dy="0.31em" x="-6" text-anchor="end" transform="rotate(180)">jes<title>flare.jes
0 outgoing
0 incoming</title></text></g><g transform="rotate(138.6) translate(275,0)"><text dy="0.31em" x="-6" text-anchor="end" transform="rotate(180)">jlee<title>flare.jlee
0 outgoing
0 incoming</title></text></g><g transform="rotate(142.2) translate(275,0)"><text dy="0.31em" x="-6" text-anchor="end" transform="rotate(180)">joey<title>flare.joey
0 outgoing
0 incoming</title></text></g><g transform="rotate(145.8) translate(275,0)"><text dy="0.31em" x="-6" text-anchor="end" transform="rotate(180)">kevin<title>flare.kevin
0 outgoing
0 incoming</title></text></g><g transform="rotate(149.4) translate(275,0)"><text dy="0.31em" x="-6" text-anchor="end" transform="rotate(180)">mKoser<title>flare.mKoser
0 outgoing
0 incoming</title></text></g><g transform="rotate(153) translate(275,0)"><text dy="0.31em" x="-6" text-anchor="end" transform="rotate(180)">mawend<title>flare.mawend
6 outgoing
6 incoming</title></text></g><g transform="rotate(156.60000000000005) translate(275,0)"><text dy="0.31em" x="-6" text-anchor="end" transform="rotate(180)">mccutchen<title>flare.mccutchen
1 outgoing
1 incoming</title></text></g><g transform="rotate(160.2) translate(275,0)"><text dy="0.31em" x="-6" text-anchor="end" transform="rotate(180)">meltphace<title>flare.meltphace
0 outgoing
0 incoming</title></text></g><g transform="rotate(163.79999999999998) translate(275,0)"><text dy="0.31em" x="-6" text-anchor="end" transform="rotate(180)">michaONE<title>flare.michaONE
0 outgoing
0 incoming</title></text></g><g transform="rotate(167.39999999999998) translate(275,0)"><text dy="0.31em" x="-6" text-anchor="end" transform="rotate(180)">michael<title>flare.michael
0 outgoing
0 incoming</title></text></g><g transform="rotate(171) translate(275,0)"><text dy="0.31em" x="-6" text-anchor="end" transform="rotate(180)">mmuday<title>flare.mmuday
3 outgoing
3 incoming</title></text></g><g transform="rotate(174.59999999999997) translate(275,0)"><text dy="0.31em" x="-6" text-anchor="end" transform="rotate(180)">mohn<title>flare.mohn
0 outgoing
0 incoming</title></text></g><g transform="rotate(178.20000000000005) translate(275,0)"><text dy="0.31em" x="-6" text-anchor="end" transform="rotate(180)">mr.prufrock<title>flare.mr.prufrock
0 outgoing
0 incoming</title></text></g><g transform="rotate(181.8) translate(275,0)"><text dy="0.31em" x="-6" text-anchor="end" transform="rotate(180)">mrb<title>flare.mrb
3 outgoing
3 incoming</title></text></g><g transform="rotate(185.40000000000003) translate(275,0)"><text dy="0.31em" x="-6" text-anchor="end" transform="rotate(180)">nurm<title>flare.nurm
0 outgoing
0 incoming</title></text></g><g transform="rotate(189) translate(275,0)"><text dy="0.31em" x="-6" text-anchor="end" transform="rotate(180)">oytun<title>flare.oytun
0 outgoing
0 incoming</title></text></g><g transform="rotate(192.60000000000002) translate(275,0)"><text dy="0.31em" x="-6" text-anchor="end" transform="rotate(180)">pinksalmon<title>flare.pinksalmon
1 outgoing
1 incoming</title></text></g><g transform="rotate(196.2) translate(275,0)"><text dy="0.31em" x="-6" text-anchor="end" transform="rotate(180)">pitaru<title>flare.pitaru
3 outgoing
3 incoming</title></text></g><g transform="rotate(199.8) translate(275,0)"><text dy="0.31em" x="-6" text-anchor="end" transform="rotate(180)">pokemon#1<title>flare.pokemon#1
0 outgoing
0 incoming</title></text></g><g transform="rotate(203.39999999999998) translate(275,0)"><text dy="0.31em" x="-6" text-anchor="end" transform="rotate(180)">pollux<title>flare.pollux
0 outgoing
0 incoming</title></text></g><g transform="rotate(207) translate(275,0)"><text dy="0.31em" x="-6" text-anchor="end" transform="rotate(180)">polyscope<title>flare.polyscope
0 outgoing
0 incoming</title></text></g><g transform="rotate(210.59999999999997) translate(275,0)"><text dy="0.31em" x="-6" text-anchor="end" transform="rotate(180)">primeclub<title>flare.primeclub
0 outgoing
0 incoming</title></text></g><g transform="rotate(214.2) translate(275,0)"><text dy="0.31em" x="-6" text-anchor="end" transform="rotate(180)">rlivings<title>flare.rlivings
0 outgoing
0 incoming</title></text></g><g transform="rotate(217.79999999999995) translate(275,0)"><text dy="0.31em" x="-6" text-anchor="end" transform="rotate(180)">scrap-pile<title>flare.scrap-pile
0 outgoing
0 incoming</title></text></g><g transform="rotate(221.40000000000003) translate(275,0)"><text dy="0.31em" x="-6" text-anchor="end" transform="rotate(180)">sdewitt<title>flare.sdewitt
0 outgoing
0 incoming</title></text></g><g transform="rotate(225) translate(275,0)"><text dy="0.31em" x="-6" text-anchor="end" transform="rotate(180)">seb<title>flare.seb
0 outgoing
0 incoming</title></text></g><g transform="rotate(228.59999999999997) translate(275,0)"><text dy="0.31em" x="-6" text-anchor="end" transform="rotate(180)">skloopy<title>flare.skloopy
8 outgoing
8 incoming</title></text></g><g transform="rotate(232.20000000000005) translate(275,0)"><text dy="0.31em" x="-6" text-anchor="end" transform="rotate(180)">solipsys<title>flare.solipsys
0 outgoing
0 incoming</title></text></g><g transform="rotate(235.8) translate(275,0)"><text dy="0.31em" x="-6" text-anchor="end" transform="rotate(180)">spacegirl<title>flare.spacegirl
0 outgoing
0 incoming</title></text></g><g transform="rotate(239.39999999999998) translate(275,0)"><text dy="0.31em" x="-6" text-anchor="end" transform="rotate(180)">sparky_monkey<title>flare.sparky_monkey
0 outgoing
0 incoming</title></text></g><g transform="rotate(243) translate(275,0)"><text dy="0.31em" x="-6" text-anchor="end" transform="rotate(180)">sportebois<title>flare.sportebois
0 outgoing
0 incoming</title></text></g><g transform="rotate(246.60000000000002) translate(275,0)"><text dy="0.31em" x="-6" text-anchor="end" transform="rotate(180)">svela<title>flare.svela
0 outgoing
0 incoming</title></text></g><g transform="rotate(250.19999999999993) translate(275,0)"><text dy="0.31em" x="-6" text-anchor="end" transform="rotate(180)">tomek<title>flare.tomek
3 outgoing
3 incoming</title></text></g><g transform="rotate(253.8) translate(275,0)"><text dy="0.31em" x="-6" text-anchor="end" transform="rotate(180)">toxi<title>flare.toxi
0 outgoing
0 incoming</title></text></g><g transform="rotate(257.4) translate(275,0)"><text dy="0.31em" x="-6" text-anchor="end" transform="rotate(180)">v3ga<title>flare.v3ga
2 outgoing
2 incoming</title></text></g><g transform="rotate(261) translate(275,0)"><text dy="0.31em" x="-6" text-anchor="end" transform="rotate(180)">vanwoods<title>flare.vanwoods
0 outgoing
0 incoming</title></text></g><g transform="rotate(264.6) translate(275,0)"><text dy="0.31em" x="-6" text-anchor="end" transform="rotate(180)">vent<title>flare.vent
0 outgoing
0 incoming</title></text></g><g transform="rotate(268.2) translate(275,0)"><text dy="0.31em" x="-6" text-anchor="end" transform="rotate(180)">xoff<title>flare.xoff
0 outgoing
0 incoming</title></text></g></g><g stroke="grey" fill="none"><path d="M8.63795874648528,-274.8643041005762L6.141861838892274,-235.7236681950175C3.6457649312992673,-196.58303228945883,-1.3464288838867453,-118.30176047834148,-18.311576686210188,-115.61474503864743C-35.27672448853363,-112.92772959895338,-64.2148262779945,-185.83497053068263,-78.68387717272493,-222.28859099654724L-93.15292806745538,-258.7422114624119" style="mix-blend-mode: multiply;"/><path d="M8.63795874648528,-274.8643041005762L7.198298955404401,-229.05358675048015C5.758639164323522,-183.24286940038414,2.8793195821617643,-91.62143470019207,1.7763568394002505e-14,0C-2.879319582161729,91.62143470019207,-5.758639164323463,183.24286940038414,-7.19829895540433,229.05358675048015L-8.637958746485198,274.8643041005762" style="mix-blend-mode: multiply;"/><path d="M8.63795874648528,-274.8643041005762L10.66098730889991,-233.23925794403797C12.684015871314543,-191.61421178749978,16.730072996143804,-108.36411947442333,60.01993146058885,-72.55163402166885C103.3097899250339,-36.73914856891435,185.84344972909471,-48.3642699764818,227.1102796311251,-54.17683068026552L268.37710953315553,-59.98939138404924" style="mix-blend-mode: multiply;"/><path d="M43.01947788606349,-271.61429366366286L36.27933389429764,-226.30461958925764C29.539189902531785,-180.9949455148524,16.05890191900008,-90.37559736604196,7.449329146908631,0.7041689279978888C-1.1602436251828179,91.78393522203773,-4.8991011858340086,183.32411966130698,-6.768529966159604,229.09421188094157L-8.637958746485198,274.8643041005762" style="mix-blend-mode: multiply;"/><path d="M43.01947788606349,-271.61429366366286L39.74202224779315,-230.49029078281546C36.464566609522805,-189.36628790196804,29.909655332982116,-107.11828214027322,67.46926060749746,-71.84746509367096C105.0288658820128,-36.57664804706869,186.70298770758416,-48.283019715558964,227.54004862036984,-54.136205549804096L268.37710953315553,-59.98939138404924" style="mix-blend-mode: multiply;"/><path d="M124.84738742837536,-245.02679415180117L108.03076142682959,-209.68250961372726C91.2141354252838,-174.33822507565333,57.580883422192244,-103.64965599950547,69.18204632184644,-95.22091777858871C80.78320922150066,-86.79217955767194,137.61878702390058,-140.62327219198627,166.03657592510058,-167.5388185091434L194.45436482630055,-194.45436482630058" style="mix-blend-mode: multiply;"/><path d="M124.84738742837536,-245.02679415180117L108.31623972154226,-209.35869805033062C91.78509201470916,-173.69060194886004,58.722796601042965,-102.35440974591887,74.13033676353288,-89.60818401304677C89.5378769260228,-76.86195828017468,153.41525266466883,-122.70569901737161,185.35394053399182,-145.62756938597008L217.29262840331484,-168.54943975456857" style="mix-blend-mode: multiply;"/><path d="M124.84738742837536,-245.02679415180117L108.75486339228951,-208.61702592745556C92.66233935620365,-172.20725770310992,60.47729128403196,-99.3877212544187,81.73314705648521,-76.75253388321259C102.98900282893845,-54.11734651200651,177.68576244601664,-81.66650821828559,215.03414225455572,-95.44108907142511L252.38252206309483,-109.21566992456465" style="mix-blend-mode: multiply;"/><path d="M124.84738742837536,-245.02679415180117L108.95479573566526,-208.00169744569914C93.06220404295517,-170.97660073959705,61.277020657535,-96.92640732739291,85.1986410083317,-66.08684019943426C109.12026135912839,-35.247273071475604,188.74868544614196,-47.618332227762416,228.56289748964875,-53.80386180590583L268.37710953315553,-59.98939138404924" style="mix-blend-mode: multiply;"/><path d="M124.84738742837536,-245.02679415180117L103.32682232945076,-209.83033685525322C81.80625723052619,-174.63387955870522,38.765127032677,-104.24096496560928,-12.352898032719622,-97.78325663170511C-63.47092309811624,-91.32554829780095,-122.66584303106032,-148.80304622308861,-152.26330299753235,-177.54179518573244L-181.86076296400438,-206.28054414837626" style="mix-blend-mode: multiply;"/><path d="M124.84738742837536,-245.02679415180117L105.70805635083188,-203.8160262521413C86.56872527328842,-162.6052583524814,48.29006311820149,-80.18372255316164,28.92182500455313,6.464793822234587C9.55358689090479,93.11331019763081,9.095772818695027,183.9888071491035,8.866865782590146,229.42655562483984L8.637958746485266,274.8643041005762" style="mix-blend-mode: multiply;"/><path d="M124.84738742837536,-245.02679415180117L102.53724693960329,-205.6912377105438C80.22710645083126,-166.3556812692864,35.60682547328717,-87.68456838677167,-26.038871456742253,-26.038871456742253C-87.68456838677167,35.60682547328718,-166.3556812692864,80.22710645083129,-205.6912377105438,102.53724693960335L-245.02679415180114,124.8473874283754" style="mix-blend-mode: multiply;"/><path d="M124.84738742837536,-245.02679415180117L105.49210738216975,-203.8160262521413C86.13682733596416,-162.6052583524814,47.42626724355296,-80.18372255316164,25.17870954774287,6.464793822234587C2.9311518519327766,93.11331019763081,-2.853403447276211,183.9888071491035,-5.745681096880705,229.42655562483984L-8.637958746485198,274.8643041005762" style="mix-blend-mode: multiply;"/><path d="M139.98638933135211,-236.7040574260845L117.86741083585953,-196.81700323543404C95.74843234036696,-156.92994904478354,51.51047534938181,-77.15584066348258,21.00949747981255,7.56388451814198C-9.491480389756715,92.28360969976654,-26.255479137910083,181.9489516817147,-34.637478511986764,226.78162267268877L-43.01947788606345,271.61429366366286" style="mix-blend-mode: multiply;"/><path d="M139.98638933135211,-236.7040574260845L121.55993583522401,-201.57737778028687C103.13348233909592,-166.45069813448922,66.28057534683973,-96.19733884289396,85.0132641354635,-74.94927425930733C103.74595292408729,-53.70120967572068,178.06423749359104,-81.45843980014267,215.22337977834295,-95.33705486235367L252.38252206309483,-109.21566992456465" style="mix-blend-mode: multiply;"/><path d="M154.5729289093359,-227.4471579255045L133.1736152628087,-194.81306730565132C111.7743016162815,-162.17897668579812,68.97567432322712,-96.91079544609175,75.6225803093879,-91.41199659622443C82.26948629554867,-85.91319774635711,138.36192556092462,-140.18378128632884,166.40814519361257,-167.3190730563147L194.45436482630055,-194.45436482630058" style="mix-blend-mode: multiply;"/><path d="M194.45436482630055,-194.45436482630058L162.20272404519582,-167.0544903841006C129.9510832640911,-139.65461594190063,65.44780170188166,-84.8548670575007,2.7286137368308374,-86.82589694451332C-59.99057422821999,-88.79692683152594,-120.92566859611219,-147.5387354899511,-151.39321578005828,-176.9096398191637L-181.86076296400438,-206.28054414837626" style="mix-blend-mode: multiply;"/><path d="M194.45436482630055,-194.45436482630058L164.3680090979148,-161.0401797809887C134.2816533695291,-127.62599473567683,74.10894191275762,-60.79762464505308,40.26022131729333,17.42215350942638C6.411500721829036,95.64193166390584,-1.113229012328081,185.253117882241,-4.875593879406639,230.0587109914086L-8.637958746485198,274.8643041005762" style="mix-blend-mode: multiply;"/><path d="M194.45436482630055,-194.45436482630058L167.19214143728732,-166.58285157917803C139.9299180482741,-138.71133833205545,85.40547127024763,-82.96831183781032,89.21184853308334,-78.65082432585497C93.01822579591904,-74.33333681389965,155.15542709961696,-121.44138828423411,186.22402775146588,-144.99541401940132L217.29262840331484,-168.54943975456857" style="mix-blend-mode: multiply;"/><path d="M194.45436482630055,-194.45436482630058L167.83069745141032,-165.22585097454652C141.2070300765201,-135.99733712279246,87.95969532673966,-77.54030941928436,100.28015277788215,-55.12948051224246C112.60061022902465,-32.71865160520057,190.4888598810901,-46.35402149462491,229.4329847071228,-53.17170643933707L268.37710953315553,-59.98939138404924" style="mix-blend-mode: multiply;"/><path d="M194.45436482630055,-194.45436482630058L166.03657592510058,-167.5388185091434C137.61878702390058,-140.62327219198627,80.78320922150066,-86.79217955767194,69.18204632184644,-95.22091777858871C57.580883422192244,-103.64965599950547,91.2141354252838,-174.33822507565333,108.03076142682959,-209.68250961372723L124.84738742837536,-245.02679415180117" style="mix-blend-mode: multiply;"/><path d="M194.45436482630055,-194.45436482630058L167.63076510803458,-165.84117945630297C140.80716538976858,-137.22799408630536,87.15996595323662,-80.00162334631013,96.81465882603567,-65.79517419602081C106.46935169883471,-51.58872504573148,179.42593688096477,-80.40219748514806,215.90422947202978,-94.80893370485636L252.38252206309483,-109.21566992456465" style="mix-blend-mode: multiply;"/><path d="M194.45436482630055,-194.45436482630058L161.0808049114501,-163.9382401086701C127.70724499659964,-133.42211539103963,60.960125166898735,-72.38986595577872,-16.7179845814285,-32.8108921703847C-94.39609432975574,6.768081615009322,-183.0051939967093,24.893779750536424,-227.3097438301861,33.956628818299976L-271.61429366366286,43.01947788606353" style="mix-blend-mode: multiply;"/><path d="M194.45436482630055,-194.45436482630058L167.0544903841006,-162.20272404519585C139.65461594190063,-129.95108326409112,84.8548670575007,-65.44780170188167,86.82589694451333,-2.728613736830875C88.79692683152598,59.990574228219934,147.5387354899512,120.92566859611208,176.9096398191638,151.39321578005817L206.2805441483764,181.86076296400424" style="mix-blend-mode: multiply;"/><path d="M194.45436482630055,-194.45436482630058L164.58395806657694,-161.0401797809887C134.71355130685336,-127.62599473567683,74.97273778740613,-60.79762464505308,44.003336774103595,17.42215350942638C13.033935760801048,95.64193166390584,10.835947253643155,185.253117882241,9.73695300006421,230.0587109914086L8.637958746485264,274.8643041005762" style="mix-blend-mode: multiply;"/><path d="M194.45436482630055,-194.45436482630058L161.41314865534835,-162.9153912393912C128.37193248439618,-131.37641765248185,62.28950014249182,-68.29847047866312,-10.957359687191797,-15.081511769550453C-84.20421951687541,38.13544693956221,-164.61550683433828,81.4914171839688,-204.82115049306972,103.1694023061721L-245.02679415180114,124.8473874283754" style="mix-blend-mode: multiply;"/><path d="M194.45436482630055,-194.45436482630058L163.72611618994526,-161.12126971308146C132.99786755359,-127.78817459986233,71.54137028087942,-61.12198437342411,29.134077579154464,16.016594686485245C-13.273215122570491,93.1551737463946,-36.63130325330984,180.76614163977504,-48.31034731867951,224.5716255864653L-59.989391384049185,268.37710953315553" style="mix-blend-mode: multiply;"/><path d="M194.45436482630055,-194.45436482630058L166.40814519361257,-167.3190730563147C138.36192556092462,-140.18378128632884,82.26948629554867,-85.91319774635711,75.6225803093879,-91.41199659622443C68.97567432322712,-96.91079544609175,111.7743016162815,-162.17897668579812,133.1736152628087,-194.81306730565132L154.5729289093359,-227.4471579255045" style="mix-blend-mode: multiply;"/><path d="M194.45436482630055,-194.45436482630058L161.1749740377314,-165.43501550925575C127.89558324916221,-136.41566619221092,61.33680167202391,-78.3769675581213,-15.085719725886074,-58.7549991138692C-91.50824112379605,-39.133030669617106,-177.7945023424777,-57.92779241520257,-220.93763295181853,-67.3251732879953L-264.08076356115936,-76.72255416078804" style="mix-blend-mode: multiply;"/><path d="M194.45436482630055,-194.45436482630058L167.3190730563147,-166.4081451936126C140.1837812863288,-138.36192556092462,85.91319774635711,-82.26948629554869,91.41199659622443,-75.6225803093879C96.91079544609175,-68.97567432322712,162.17897668579812,-111.7743016162815,194.81306730565132,-133.1736152628087L227.4471579255045,-154.5729289093359" style="mix-blend-mode: multiply;"/><path d="M194.45436482630055,-194.45436482630058L161.04017978098867,-164.58395806657697C127.6259947356768,-134.71355130685336,60.79762464505307,-74.97273778740615,-17.42215350942639,-44.00333677410358C-95.64193166390585,-13.033935760801015,-185.253117882241,-10.835947253643097,-230.0587109914086,-9.736953000064139L-274.8643041005762,-8.637958746485179" style="mix-blend-mode: multiply;"/><path d="M217.29262840331484,-168.54943975456857L186.22402775146588,-144.99541401940132C155.15542709961696,-121.44138828423411,93.01822579591904,-74.33333681389965,89.21184853308334,-78.65082432585497C85.40547127024763,-82.96831183781032,139.9299180482741,-138.71133833205545,167.19214143728732,-166.582851579178L194.45436482630055,-194.45436482630058" style="mix-blend-mode: multiply;"/><path d="M217.29262840331484,-168.54943975456857L187.1480620603016,-143.3146018513732C157.0034957172883,-118.07976394817781,96.71436303126181,-67.61008814178707,105.22844321956859,-49.51674674670053C113.74252340787537,-31.42340535161397,191.05981647051544,-45.70639836783161,229.71846300183552,-52.847894875940426L268.37710953315553,-59.98939138404924" style="mix-blend-mode: multiply;"/><path d="M217.29262840331484,-168.54943975456857L185.35394053399182,-145.62756938597008C153.41525266466883,-122.70569901737161,89.5378769260228,-76.86195828017468,74.13033676353287,-89.60818401304677C58.722796601042965,-102.35440974591887,91.78509201470916,-173.69060194886004,108.31623972154226,-209.35869805033062L124.84738742837536,-245.02679415180117" style="mix-blend-mode: multiply;"/><path d="M217.29262840331484,-168.54943975456857L186.94812971692582,-143.92993033312965C156.6036310305368,-119.31042091169071,95.91463365775877,-70.07140206881284,101.76294926772209,-60.18244043047887C107.61126487768543,-50.293478792144874,179.99689347039012,-79.75457435835476,216.18970776674246,-94.48512214145971L252.38252206309483,-109.21566992456465" style="mix-blend-mode: multiply;"/><path d="M217.29262840331484,-168.54943975456857L183.68537370680608,-139.12893065781537C150.07811901029729,-109.7084215610622,82.86360961727976,-50.8674033675558,45.20851175897976,23.034887274968316C7.55341390067975,96.93717791749243,-0.5422724229027237,185.9007410090343,-4.590115584693961,230.38252255480526L-8.637958746485198,274.8643041005762" style="mix-blend-mode: multiply;"/><path d="M217.29262840331484,-168.54943975456857L187.22915199239435,-142.45675997474152C157.16567558147383,-116.36408019491445,97.03872275963283,-64.17872063526035,106.63400204250972,-34.64748755175138C116.22928132538662,-5.116254468242407,195.54679271298141,1.760852139121435,235.2055484067788,5.199405442803356L274.8643041005762,8.637958746485277" style="mix-blend-mode: multiply;"/><path d="M227.4471579255045,-154.5729289093359L194.81306730565132,-133.1736152628087C162.17897668579812,-111.7743016162815,96.91079544609175,-68.97567432322712,91.41199659622443,-75.6225803093879C85.91319774635711,-82.26948629554869,140.1837812863288,-138.36192556092462,167.3190730563147,-166.4081451936126L194.45436482630055,-194.45436482630058" style="mix-blend-mode: multiply;"/><path d="M236.7040574260845,-139.9863893313521L200.10420742189874,-114.9693505081781C163.50435741771298,-89.95231168500412,90.30465740934146,-39.91823403865616,49.41432138057985,29.223548199998557C8.523985351818235,98.36533043865326,-0.05698669733348183,186.61481726961472,-4.34747272190934,230.73956068509548L-8.637958746485198,274.8643041005762" style="mix-blend-mode: multiply;"/><path d="M252.38252206309483,-109.21566992456465L216.82826378086546,-93.1281215368282C181.27400549863614,-77.04057314909178,110.16548893417746,-44.86547637361891,112.8312535125209,-36.661096616866345C115.49701809086436,-28.456716860113776,191.93706381200994,-44.223054122081514,230.15708667258275,-52.106222753065374L268.37710953315553,-59.98939138404924" style="mix-blend-mode: multiply;"/><path d="M252.38252206309483,-109.21566992456465L216.77455945621554,-91.41922221751774C181.16659684933623,-73.62277451047085,109.95067163557765,-38.02987909637705,111.90037855192175,-7.040175082151606C113.85008546826583,23.949528932073836,188.9654245147126,50.33604154643092,226.52309403793598,63.52929785360946L264.08076356115936,76.72255416078801" style="mix-blend-mode: multiply;"/><path d="M252.38252206309483,-109.21566992456465L213.36557542736998,-88.94245034327038C174.3486287916451,-68.66923076197615,96.31473552019543,-28.12279159938764,52.81132205193209,35.8905374048025C9.30790858366875,99.90386640899264,0.33497491859177586,187.38408525478442,-4.151491913946711,231.1241946776803L-8.637958746485198,274.8643041005762" style="mix-blend-mode: multiply;"/><path d="M252.38252206309483,-109.21566992456465L210.07837124090523,-91.8405106709518C167.7742204187157,-74.46535141733897,83.16591877433655,-39.71503291011327,-4.16688384678974,-14.342508275008578C-91.49968646791602,11.030016360096118,-181.55699006578945,27.024747123079823,-226.58564186472617,35.02211250457167L-271.61429366366286,43.01947788606353" style="mix-blend-mode: multiply;"/><path d="M252.38252206309483,-109.21566992456465L215.90422947202978,-94.80893370485636C179.42593688096477,-80.40219748514806,106.46935169883471,-51.58872504573148,96.81465882603567,-65.79517419602081C87.15996595323662,-80.00162334631013,140.80716538976858,-137.22799408630536,167.63076510803458,-165.84117945630297L194.45436482630055,-194.45436482630058" style="mix-blend-mode: multiply;"/><path d="M252.38252206309483,-109.21566992456465L215.03414225455572,-95.44108907142511C177.68576244601664,-81.66650821828559,102.98900282893845,-54.11734651200651,81.73314705648521,-76.75253388321259C60.47729128403196,-99.3877212544187,92.66233935620365,-172.20725770310992,108.75486339228951,-208.61702592745556L124.84738742837536,-245.02679415180117" style="mix-blend-mode: multiply;"/><path d="M252.38252206309483,-109.21566992456465L216.18970776674246,-94.48512214145971C179.99689347039012,-79.75457435835476,107.61126487768543,-50.293478792144874,101.76294926772209,-60.18244043047887C95.91463365775877,-70.07140206881284,156.6036310305368,-119.31042091169071,186.94812971692582,-143.92993033312965L217.29262840331484,-168.54943975456857" style="mix-blend-mode: multiply;"/><path d="M252.38252206309483,-109.21566992456465L210.17254036718654,-93.33728607153745C167.96255867127826,-77.45890221851026,83.54259527946171,-45.70213451245585,-2.5346189912473185,-40.28661521849308C-88.61183326195635,-34.871095924530316,-176.34629841155785,-55.79682504265918,-220.2135309863586,-66.25968960172361L-264.08076356115936,-76.72255416078804" style="mix-blend-mode: multiply;"/><path d="M252.38252206309483,-109.21566992456465L212.7236825194004,-95.73296801369203C173.06484297570603,-82.25026610281944,93.74716388831722,-55.284862281074226,41.68517831379317,-81.81176888250603C-10.37680726073087,-108.33867548393783,-35.18309932239014,-188.35789250854666,-47.58624535321979,-228.3675010208511L-59.98939138404942,-268.3771095331555" style="mix-blend-mode: multiply;"/><path d="M252.38252206309483,-109.21566992456465L216.90935371295822,-92.27027966019654C181.43618536282167,-75.32488939582842,110.48984866254848,-41.434108867092185,114.23681233546206,-21.791837421917197C117.98377600837561,-2.14956597674221,196.4240400544759,3.244196384871533,235.64417207752604,5.9410775656784045L274.8643041005762,8.637958746485277" style="mix-blend-mode: multiply;"/><path d="M252.38252206309483,-109.21566992456465L210.11883604253657,-93.1281215368282C167.85515002197837,-77.04057314909178,83.32777798086191,-44.86547637361892,-3.465493951846483,-36.66109661686635C-90.25876588455488,-28.4567168601138,-179.3179377088552,-44.22305412208155,-223.8475236210054,-52.106222753065424L-268.37710953315553,-59.9893913840493" style="mix-blend-mode: multiply;"/><path d="M252.38252206309483,-109.21566992456465L216.05205671355574,-90.10499460747754C179.7215913640167,-70.99431929039044,107.0606606649385,-32.772968656216236,99.3769976791521,15.739770158545246C91.69333469336568,64.25250897330672,148.98693942087104,123.05663596865548,177.63374178462377,152.45869946632988L206.2805441483764,181.86076296400424" style="mix-blend-mode: multiply;"/><path d="M252.38252206309483,-109.21566992456465L212.93580643812524,-88.9830754737318C173.48909081315568,-68.75048102289898,94.5956595632165,-28.2852921212333,45.36199290502347,35.18636847680462C-3.871673753169579,98.65802907484253,-23.44557581961651,185.1361613692527,-33.23252685283998,228.37522751645778L-43.01947788606345,271.61429366366286" style="mix-blend-mode: multiply;"/><path d="M252.38252206309483,-109.21566992456465L215.22337977834295,-95.33705486235364C178.06423749359104,-81.45843980014267,103.74595292408729,-53.70120967572068,85.0132641354635,-74.94927425930732C66.28057534683973,-96.19733884289396,103.13348233909592,-166.45069813448922,121.55993583522401,-201.57737778028684L139.98638933135211,-236.7040574260845" style="mix-blend-mode: multiply;"/><path d="M252.38252206309483,-109.21566992456465L210.0377461104438,-92.48622862885867C167.69297015779284,-75.75678733315267,83.00341825249087,-42.29790474174071,-4.871052774787628,-25.534952878727463C-92.74552380206613,-8.772001015714219,-183.80491395132117,-8.704979881099701,-229.33460902594868,-8.671469313792441L-274.8643041005762,-8.63795874648518" style="mix-blend-mode: multiply;"/><path d="M258.742211462412,-93.15292806745515L216.57952765824007,-81.37035845891052C174.41684385406822,-69.58778885036588,90.09147624572438,-46.02264963327662,16.657647174654983,-64.87725231343013C-56.776181896414414,-83.73185499358367,-119.3184724302094,-145.00619957097996,-150.5896176971069,-175.64337185967813L-181.86076296400438,-206.28054414837626" style="mix-blend-mode: multiply;"/><path d="M258.742211462412,-93.15292806745515L222.2075010644546,-79.54171904935643C185.6727906664972,-65.93051003125771,112.60336987058237,-38.70809199506027,114.20918621570631,-33.18083588115929C115.81500256083022,-27.653579767258304,192.09605604699289,-43.821485575653774,230.2365827900742,-51.90543847985151L268.37710953315553,-59.98939138404924" style="mix-blend-mode: multiply;"/><path d="M258.742211462412,-93.15292806745515L221.43129399714485,-76.51859212000576C184.1203765318777,-59.88425617255638,109.49854160134343,-26.615584277657593,100.75493038233749,19.220030894252297C92.01131916333156,65.0556460661622,149.14593165585399,123.4582045150832,177.7132379021152,152.6594837395437L206.2805441483764,181.8607629640042" style="mix-blend-mode: multiply;"/><path d="M258.742211462412,-93.15292806745515L218.74481271095908,-75.35604785579861C178.74741395950616,-57.55916764414207,98.75261645660034,-21.965407220828997,54.189254755117474,39.37079814050956C9.625893053634611,100.70700350184812,0.4939671535747057,187.78565380121213,-4.071995796455247,231.32497895089418L-8.637958746485198,274.8643041005762" style="mix-blend-mode: multiply;"/><path d="M268.37710953315553,-59.98939138404924L230.15708667258275,-52.10622275306537C191.93706381200994,-44.223054122081514,115.49701809086436,-28.456716860113776,112.8312535125209,-36.661096616866345C110.16548893417746,-44.86547637361891,181.27400549863614,-77.04057314909178,216.8282637808655,-93.1281215368282L252.38252206309483,-109.21566992456465" style="mix-blend-mode: multiply;"/><path d="M268.37710953315553,-59.98939138404924L230.30331469130854,-49.78199495199846C192.22951984946155,-39.57459851994769,116.08193016576759,-19.159805655846142,115.36587250376823,3.6255186016267325C114.64981484176887,26.410842859099606,189.3652892014641,51.56669850994381,226.7230263813117,64.1446263353659L264.08076356115936,76.72255416078801" style="mix-blend-mode: multiply;"/><path d="M268.37710953315553,-59.98939138404924L229.71846300183552,-52.84789487594042C191.05981647051544,-45.70639836783161,113.74252340787537,-31.42340535161397,105.22844321956859,-49.51674674670053C96.71436303126181,-67.61008814178707,157.0034957172883,-118.07976394817781,187.14806206030156,-143.3146018513732L217.29262840331484,-168.54943975456857" style="mix-blend-mode: multiply;"/><path d="M268.37710953315553,-59.98939138404924L229.43298470712284,-53.17170643933707C190.4888598810901,-46.35402149462491,112.60061022902465,-32.71865160520057,100.28015277788215,-55.12948051224246C87.95969532673966,-77.54030941928436,141.2070300765201,-135.99733712279246,167.83069745141032,-165.22585097454652L194.45436482630055,-194.45436482630058" style="mix-blend-mode: multiply;"/><path d="M268.37710953315553,-59.98939138404924L224.72904560974402,-53.31953368086301C181.08098168633248,-46.6496759776768,93.78485383950941,-33.30996057130436,18.745208423316086,-57.69181936535887C-56.29443699287723,-82.07367815941336,-119.0775999784408,-144.1771111538948,-150.46918147122258,-175.22882765113556L-181.86076296400438,-206.28054414837626" style="mix-blend-mode: multiply;"/><path d="M268.37710953315553,-59.98939138404924L228.56289748964878,-53.803861805905825C188.74868544614196,-47.618332227762416,109.12026135912839,-35.247273071475604,85.1986410083317,-66.08684019943426C61.277020657535,-96.92640732739291,93.06220404295517,-170.97660073959705,108.95479573566526,-208.00169744569914L124.84738742837536,-245.02679415180117" style="mix-blend-mode: multiply;"/><path d="M268.37710953315553,-59.98939138404924L227.1102796311251,-47.305223077751116C185.84344972909471,-34.62105477145298,103.30978992503388,-9.252718158856732,60.01993146058884,46.55623108858084C16.730072996143793,102.36518033601841,12.684015871314529,188.61474221829732,10.660987308899898,231.73952315943674L8.637958746485264,274.8643041005762" style="mix-blend-mode: multiply;"/><path d="M268.37710953315553,-59.98939138404924L223.93947021989655,-49.18043453615362C179.50183090663757,-38.371477688258004,90.62655228011955,-16.75356399246677,5.059234999293447,14.052565809604003C-80.50808228153267,44.85869561167477,-162.7674382166669,84.85304152002509,-203.89711618423402,104.85021447420024L-245.02679415180114,124.8473874283754" style="mix-blend-mode: multiply;"/><path d="M268.37710953315553,-59.98939138404924L226.89433066246298,-47.305223077751116C185.41155179177045,-34.62105477145298,102.44599405038537,-9.252718158856732,56.27681600377858,46.55623108858084C10.107637957171788,102.36518033601841,0.7348396053432941,188.61474221829732,-3.9515595705709523,231.73952315943674L-8.637958746485198,274.8643041005762" style="mix-blend-mode: multiply;"/><path d="M268.37710953315553,-59.98939138404924L226.25243775449346,-47.38631300984387C184.12776597583135,-34.7832346356385,99.87842241850717,-9.577077887227762,45.150672265639706,45.150672265639706C-9.577077887227746,99.87842241850717,-34.78323463563847,184.12776597583135,-47.38631300984383,226.25243775449346L-59.98939138404919,268.37710953315553" style="mix-blend-mode: multiply;"/><path d="M268.37710953315553,-59.98939138404924L229.58081194864874,-48.46776734195826C190.78451436414198,-36.94614329986729,113.19191919512843,-13.902895215685332,102.8424916309986,26.40546384232358C92.49306406686874,66.71382290033249,149.38680410762257,124.28729293216834,177.8336741279995,153.07402794808627L206.2805441483764,181.8607629640042" style="mix-blend-mode: multiply;"/><path d="M268.37710953315553,-59.98939138404924L227.1102796311251,-54.17683068026551C185.84344972909471,-48.3642699764818,103.30978992503388,-36.73914856891435,60.01993146058884,-72.55163402166885C16.7300729961438,-108.36411947442333,12.684015871314537,-191.61421178749978,10.660987308899907,-233.23925794403797L8.637958746485277,-274.8643041005762" style="mix-blend-mode: multiply;"/><path d="M268.37710953315553,-59.98939138404924L227.54004862036984,-54.136205549804096C186.70298770758416,-48.283019715558964,105.0288658820128,-36.57664804706869,67.46926060749746,-71.84746509367096C29.909655332982116,-107.11828214027322,36.464566609522805,-189.36628790196804,39.74202224779315,-230.49029078281546L43.01947788606349,-271.61429366366286" style="mix-blend-mode: multiply;"/><path d="M268.37710953315553,-59.98939138404924L230.2365827900742,-51.905438479851504C192.09605604699289,-43.821485575653774,115.81500256083022,-27.653579767258304,114.20918621570631,-33.18083588115929C112.60336987058237,-38.70809199506027,185.6727906664972,-65.93051003125771,222.20750106445462,-79.54171904935643L258.742211462412,-93.15292806745515" style="mix-blend-mode: multiply;"/><path d="M268.37710953315553,-59.98939138404924L223.56650134553686,-50.849001363339376C178.75589315791817,-41.708611342629524,89.1346767826808,-23.427831301209803,-1.4055588229411455,-14.869259194949125C-91.9457944285631,-6.310687088688449,-183.40504926456967,-7.474322917586814,-229.13467668257292,-8.056140832035998L-274.8643041005762,-8.63795874648518" style="mix-blend-mode: multiply;"/><path d="M274.8643041005762,8.637958746485277L235.64417207752604,5.9410775656784045C196.4240400544759,3.2441963848715325,117.98377600837561,-2.149565976742211,114.23681233546206,-21.791837421917197C110.48984866254848,-41.434108867092185,181.43618536282167,-75.32488939582842,216.90935371295822,-92.27027966019654L252.38252206309483,-109.21566992456465" style="mix-blend-mode: multiply;"/><path d="M274.8643041005762,8.637958746485277L235.2055484067788,5.199405442803355C195.54679271298141,1.760852139121435,116.22928132538662,-5.116254468242407,106.63400204250972,-34.64748755175138C97.03872275963283,-64.17872063526035,157.16567558147383,-116.36408019491445,187.22915199239435,-142.45675997474152L217.29262840331484,-168.54943975456857" style="mix-blend-mode: multiply;"/><path d="M264.08076356115936,76.72255416078802L226.52309403793598,63.52929785360948C188.9654245147126,50.33604154643093,113.85008546826583,23.949528932073843,111.90037855192175,-7.040175082151602C109.95067163557765,-38.02987909637705,181.16659684933623,-73.62277451047085,216.77455945621554,-91.41922221751776L252.38252206309483,-109.21566992456465" style="mix-blend-mode: multiply;"/><path d="M264.08076356115936,76.72255416078802L226.7230263813117,64.14462633536591C189.3652892014641,51.56669850994382,114.64981484176887,26.410842859099613,115.36587250376823,3.6255186016267373C116.08193016576759,-19.15980565584614,192.22951984946155,-39.57459851994769,230.30331469130854,-49.78199495199846L268.37710953315553,-59.98939138404924" style="mix-blend-mode: multiply;"/><path d="M264.08076356115936,76.72255416078802L223.26033802781623,68.33029752892374C182.4399124944731,59.93804089705946,100.79906142778684,43.15352763333089,55.3459410431794,76.17715262329558C9.892820658571978,109.20077761326029,0.6274309560433894,192.03254085691822,-4.005263895220904,233.44842247874723L-8.637958746485198,274.8643041005762" style="mix-blend-mode: multiply;"/><path d="M264.08076356115936,76.72255416078802L225.946819314002,67.1677532647166C187.81287506684464,57.61295236864515,111.54498657252991,38.50335057650229,101.91161667039943,56.02638537703832C92.27824676826894,73.54942017757435,149.27939545832268,127.70509157078929,177.77996980334956,154.78292726739676L206.2805441483764,181.8607629640042" style="mix-blend-mode: multiply;"/><path d="M206.2805441483764,181.8607629640042L174.370985774504,157.2596991416441C142.46142740063155,132.658635319284,78.64231065288669,83.45650767456375,42.82256017040976,98.95709786399243C7.002809687932829,114.45768805342108,-0.8175745292761848,194.66099607699866,-4.727766637880691,234.7626500887874L-8.637958746485198,274.8643041005762" style="mix-blend-mode: multiply;"/><path d="M206.2805441483764,181.8607629640042L171.08378158803927,154.36163881396268C135.8870190277021,126.86251466392116,65.49349390702781,71.86426636383813,-14.155645728312066,48.724052184181346C-93.80478536365194,25.583838004524562,-182.7095395136574,34.301657945294046,-227.16191658866015,38.66056791567879L-271.61429366366286,43.01947788606353" style="mix-blend-mode: multiply;"/><path d="M206.2805441483764,181.8607629640042L176.9096398191638,151.3932157800581C147.5387354899512,120.92566859611206,88.79692683152598,59.99057422821991,86.82589694451333,-2.72861373683088C84.8548670575007,-65.44780170188169,139.65461594190063,-129.95108326409112,167.0544903841006,-162.20272404519585L194.45436482630055,-194.45436482630058" style="mix-blend-mode: multiply;"/><path d="M206.2805441483764,181.8607629640042L172.205700721785,151.24538853853218C138.13085729519358,120.63001411306017,69.98117044201074,59.39926526211613,5.290952589947271,-5.290952589947277C-59.39926526211619,-69.9811704420107,-120.63001411306028,-138.13085729519347,-151.24538853853232,-172.20570072178486L-181.86076296400438,-206.28054414837626" style="mix-blend-mode: multiply;"/><path d="M206.2805441483764,181.8607629640042L173.72909286653444,157.17860920955133C141.17764158469245,132.49645545509847,76.0747390210085,83.13214794619273,31.696416432270897,97.55153904105127C-12.681906156466704,111.97093013590984,-36.33564877025795,190.1740198345327,-48.16252007715357,229.27556468384412L-59.98939138404919,268.37710953315553" style="mix-blend-mode: multiply;"/><path d="M206.2805441483764,181.8607629640042L177.8336741279995,153.07402794808627C149.38680410762257,124.28729293216834,92.49306406686874,66.71382290033249,102.8424916309986,26.405463842323574C113.19191919512843,-13.902895215685332,190.78451436414198,-36.94614329986729,229.58081194864874,-48.46776734195826L268.37710953315553,-59.98939138404924" style="mix-blend-mode: multiply;"/><path d="M206.2805441483764,181.8607629640042L177.71323790211522,152.6594837395437C149.14593165585399,123.4582045150832,92.01131916333156,65.0556460661622,100.75493038233749,19.2200308942523C109.49854160134343,-26.615584277657593,184.1203765318777,-59.88425617255638,221.43129399714485,-76.51859212000576L258.742211462412,-93.15292806745515" style="mix-blend-mode: multiply;"/><path d="M206.2805441483764,181.8607629640042L177.63374178462377,152.45869946632982C148.98693942087104,123.05663596865547,91.69333469336568,64.25250897330672,99.3769976791521,15.739770158545234C107.0606606649385,-32.77296865621624,179.7215913640167,-70.99431929039045,216.05205671355574,-90.10499460747756L252.38252206309483,-109.21566992456466" style="mix-blend-mode: multiply;"/><path d="M206.2805441483764,181.8607629640042L177.77996980334956,154.78292726739673C149.27939545832268,127.70509157078929,92.27824676826894,73.54942017757435,101.91161667039943,56.02638537703832C111.54498657252991,38.50335057650229,187.81287506684464,57.61295236864515,225.946819314002,67.1677532647166L264.08076356115936,76.72255416078802" style="mix-blend-mode: multiply;"/><path d="M8.637958746485266,274.8643041005762L10.660987308899898,231.73952315943674C12.68401587131453,188.61474221829732,16.730072996143797,102.36518033601841,60.01993146058884,46.55623108858085C103.30978992503388,-9.252718158856728,185.84344972909471,-34.62105477145298,227.1102796311251,-47.3052230777511L268.37710953315553,-59.989391384049235" style="mix-blend-mode: multiply;"/><path d="M8.637958746485266,274.8643041005762L9.736953000064211,230.0587109914086C10.835947253643157,185.253117882241,13.033935760801048,95.64193166390585,44.003336774103595,17.422153509426384C74.97273778740615,-60.79762464505308,134.71355130685336,-127.62599473567683,164.58395806657694,-161.0401797809887L194.45436482630055,-194.45436482630058" style="mix-blend-mode: multiply;"/><path d="M8.637958746485266,274.8643041005762L5.0330139026854,229.9108837498827C1.4280690588855325,184.95746339918912,-5.7818206287142,95.05062269780205,-37.53160758046247,14.859814656309979C-69.28139453221075,-65.3309933851821,-125.57107874810755,-135.80576876677918,-153.715920856056,-171.04315645757774L-181.86076296400438,-206.28054414837626" style="mix-blend-mode: multiply;"/><path d="M8.637958746485266,274.8643041005762L8.866865782590146,229.42655562483984C9.095772818695027,183.9888071491035,9.553586890904787,93.11331019763082,28.92182500455313,6.464793822234593C48.29006311820149,-80.18372255316163,86.56872527328842,-162.6052583524814,105.7080563508319,-203.81602625214126L124.84738742837536,-245.02679415180114" style="mix-blend-mode: multiply;"/><path d="M8.637958746485266,274.8643041005762L4.2434385128379395,234.04998289459206C-0.15108172080938687,193.23566168860793,-8.94012218810404,111.60701927663963,-51.21758100448511,86.60419983127285C-93.49503982086617,61.60138038590605,-169.26091698633365,93.22438390714073,-207.14385556906737,109.03588566775807L-245.02679415180114,124.8473874283754" style="mix-blend-mode: multiply;"/><path d="M8.637958746485266,274.8643041005762L7.19829895540439,235.92519435299457C5.758639164323512,196.9860846054129,2.879319582161759,119.10786511024969,1.4506914188435378e-14,119.10786511024969C-2.8793195821617292,119.10786511024969,-5.758639164323465,196.9860846054129,-7.19829895540433,235.92519435299457L-8.637958746485198,274.8643041005762" style="mix-blend-mode: multiply;"/><path d="M-8.637958746485198,274.8643041005762L-8.470685040578589,229.25511290845722C-8.30341133467198,183.64592171633822,-7.968863922858762,92.42753933210027,-22.054692143020457,3.493120071602268C-36.140520363182155,-85.44129918889575,-64.64672421531877,-172.09175532565382,-78.89982614138707,-215.41698339403285L-93.15292806745538,-258.7422114624119" style="mix-blend-mode: multiply;"/><path d="M-8.637958746485198,274.8643041005762L-4.151491913946711,231.1241946776803C0.33497491859177586,187.38408525478442,9.30790858366875,99.90386640899264,52.81132205193209,35.89053740480251C96.31473552019543,-28.122791599387636,174.3486287916451,-68.66923076197615,213.36557542737,-88.94245034327041L252.38252206309483,-109.21566992456465" style="mix-blend-mode: multiply;"/><path d="M-8.637958746485198,274.8643041005762L-4.005263895220904,233.44842247874723C0.6274309560433894,192.03254085691822,9.892820658571978,109.20077761326029,55.3459410431794,76.17715262329558C100.79906142778684,43.15352763333089,182.4399124944731,59.93804089705946,223.26033802781623,68.33029752892374L264.08076356115936,76.72255416078802" style="mix-blend-mode: multiply;"/><path d="M-8.637958746485198,274.8643041005762L-4.727766637880691,234.7626500887874C-0.8175745292761848,194.66099607699866,7.002809687932829,114.45768805342108,42.82256017040976,98.95709786399243C78.64231065288669,83.45650767456375,142.46142740063155,132.658635319284,174.37098577450396,157.2596991416441L206.2805441483764,181.8607629640042" style="mix-blend-mode: multiply;"/><path d="M-8.637958746485198,274.8643041005762L-10.369108366632911,234.04998289459206C-12.100257986780624,193.23566168860793,-15.56255722707605,111.60701927663963,-54.96069646129538,86.60419983127285C-94.3588356955147,61.60138038590605,-169.69281492365792,93.22438390714073,-207.3598045377295,109.03588566775807L-245.02679415180114,124.8473874283754" style="mix-blend-mode: multiply;"/><path d="M-8.637958746485198,274.8643041005762L-7.19829895540433,229.05358675048015C-5.758639164323463,183.24286940038414,-2.879319582161729,91.62143470019207,1.7763568394002505e-14,0C2.8793195821617643,-91.62143470019207,5.758639164323522,-183.24286940038414,7.198298955404401,-229.05358675048015L8.63795874648528,-274.8643041005762" style="mix-blend-mode: multiply;"/><path d="M-8.637958746485198,274.8643041005762L-9.579532976785451,229.9108837498827C-10.521107207085706,184.95746339918912,-12.404255667686213,95.05062269780205,-41.27472303727274,14.859814656309979C-70.14519040685927,-65.3309933851821,-126.00297668543182,-135.80576876677918,-153.93186982471812,-171.04315645757774L-181.86076296400438,-206.28054414837626" style="mix-blend-mode: multiply;"/><path d="M-8.637958746485198,274.8643041005762L-4.34747272190934,230.73956068509548C-0.05698669733348183,186.61481726961472,8.523985351818235,98.36533043865326,49.41432138057985,29.22354819999856C90.30465740934146,-39.91823403865616,163.50435741771298,-89.95231168500412,200.10420742189874,-114.96935050817812L236.7040574260845,-139.9863893313521" style="mix-blend-mode: multiply;"/><path d="M-8.637958746485198,274.8643041005762L-4.875593879406639,230.0587109914086C-1.113229012328081,185.253117882241,6.411500721829036,95.64193166390585,40.26022131729333,17.422153509426384C74.10894191275762,-60.79762464505308,134.2816533695291,-127.62599473567683,164.3680090979148,-161.0401797809887L194.45436482630055,-194.45436482630058" style="mix-blend-mode: multiply;"/><path d="M-8.637958746485198,274.8643041005762L-3.951559570570952,231.73952315943674C0.7348396053432941,188.61474221829732,10.107637957171788,102.36518033601841,56.27681600377858,46.55623108858085C102.44599405038537,-9.252718158856728,185.41155179177045,-34.62105477145298,226.89433066246298,-47.3052230777511L268.37710953315553,-59.989391384049235" style="mix-blend-mode: multiply;"/><path d="M-8.637958746485198,274.8643041005762L-5.745681096880705,229.42655562483984C-2.853403447276211,183.9888071491035,2.9311518519327766,93.11331019763082,25.17870954774287,6.464793822234593C47.42626724355296,-80.18372255316163,86.13682733596416,-162.6052583524814,105.49210738216976,-203.81602625214126L124.84738742837536,-245.02679415180114" style="mix-blend-mode: multiply;"/><path d="M-8.637958746485198,274.8643041005762L-7.19829895540433,235.92519435299457C-5.758639164323465,196.9860846054129,-2.8793195821617292,119.10786511024969,1.4506914188435378e-14,119.10786511024969C2.879319582161759,119.10786511024969,5.758639164323512,196.9860846054129,7.19829895540439,235.92519435299457L8.637958746485266,274.8643041005762" style="mix-blend-mode: multiply;"/><path d="M-8.637958746485198,274.8643041005762L-8.056140832036013,235.8441044209018C-7.474322917586825,196.82390474122744,-6.310687088688454,118.78350538187867,-14.869259194949118,117.70230628730855C-23.427831301209782,116.62110719273842,-41.70861134262949,192.499108362947,-50.84900136333934,230.43810894805128L-59.98939138404919,268.37710953315553" style="mix-blend-mode: multiply;"/><path d="M-8.637958746485198,274.8643041005762L-4.590115584693961,230.38252255480526C-0.5422724229027237,185.9007410090343,7.55341390067975,96.93717791749243,45.20851175897976,23.034887274968323C82.86360961727976,-50.8674033675558,150.07811901029729,-109.7084215610622,183.68537370680608,-139.12893065781537L217.29262840331484,-168.54943975456857" style="mix-blend-mode: multiply;"/><path d="M-8.637958746485198,274.8643041005762L-10.60728298424989,231.53035862472748C-12.57660722201458,188.19641314887883,-16.51525569754396,101.52852219718147,-59.08905649998965,42.9307124869541C-101.66285730243534,-15.667097223273268,-182.87181043179737,-46.194825692030655,-223.47628699647836,-61.45868992640934L-264.08076356115936,-76.72255416078804" style="mix-blend-mode: multiply;"/><path d="M-8.637958746485198,274.8643041005762L-6.768529966159602,229.09421188094157C-4.8991011858340086,183.32411966130698,-1.160243625182818,91.78393522203773,7.449329146908631,0.7041689279978888C16.05890191900008,-90.37559736604196,29.539189902531785,-180.9949455148524,36.27933389429764,-226.30461958925764L43.01947788606349,-271.61429366366286" style="mix-blend-mode: multiply;"/><path d="M-8.637958746485198,274.8643041005762L-4.071995796455246,231.32497895089418C0.4939671535747057,187.78565380121213,9.625893053634611,100.70700350184812,54.189254755117474,39.37079814050956C98.75261645660034,-21.965407220828997,178.74741395950616,-57.55916764414207,218.7448127109591,-75.35604785579861L258.742211462412,-93.15292806745515" style="mix-blend-mode: multiply;"/><path d="M-8.637958746485198,274.8643041005762L-10.461054965524083,233.85458642579442C-12.284151184562967,192.84486875101265,-15.93034362264074,110.8254334014491,-56.55443750874235,83.21732770544716C-97.17853139484396,55.609222009445226,-174.78052672896942,82.4124459670049,-213.58152439603214,95.81405794578473L-252.38252206309485,109.21566992456457" style="mix-blend-mode: multiply;"/><path d="M-43.01947788606345,271.61429366366286L-34.637478511986764,226.78162267268877C-26.255479137910083,181.9489516817147,-9.491480389756715,92.28360969976654,21.009497479812545,7.563884518141985C51.51047534938181,-77.15584066348258,95.74843234036696,-156.92994904478354,117.86741083585953,-196.817003235434L139.98638933135211,-236.7040574260845" style="mix-blend-mode: multiply;"/><path d="M-43.01947788606345,271.61429366366286L-33.23252685283998,228.37522751645778C-23.44557581961651,185.1361613692527,-3.871673753169579,98.65802907484253,45.36199290502347,35.18636847680461C94.5956595632165,-28.28529212123331,173.48909081315568,-68.750481022899,212.93580643812524,-88.98307547373183L252.38252206309483,-109.21566992456466" style="mix-blend-mode: multiply;"/><path d="M-59.98939138404919,268.37710953315553L-48.162520077153566,229.27556468384412C-36.33564877025795,190.1740198345327,-12.6819061564667,111.97093013590984,31.696416432270897,97.55153904105127C76.0747390210085,83.13214794619273,141.17764158469245,132.49645545509847,173.72909286653444,157.17860920955135L206.2805441483764,181.8607629640042" style="mix-blend-mode: multiply;"/><path d="M-59.98939138404919,268.37710953315553L-48.31034731867951,224.5716255864653C-36.631303253309845,180.76614163977504,-13.273215122570496,93.1551737463946,29.13407757915446,16.016594686485238C71.54137028087942,-61.12198437342411,132.99786755359,-127.78817459986233,163.72611618994526,-161.12126971308146L194.45436482630055,-194.45436482630058" style="mix-blend-mode: multiply;"/><path d="M-59.98939138404919,268.37710953315553L-50.84900136333934,230.43810894805128C-41.70861134262949,192.499108362947,-23.427831301209782,116.62110719273842,-14.869259194949118,117.70230628730855C-6.310687088688453,118.78350538187867,-7.474322917586825,196.82390474122744,-8.056140832036013,235.8441044209018L-8.637958746485198,274.8643041005762" style="mix-blend-mode: multiply;"/><path d="M-59.98939138404919,268.37710953315553L-47.38631300984383,226.25243775449346C-34.78323463563847,184.12776597583135,-9.577077887227743,99.87842241850716,45.15067226563971,45.150672265639706C99.87842241850717,-9.577077887227766,184.12776597583135,-34.7832346356385,226.25243775449346,-47.38631300984387L268.37710953315553,-59.98939138404924" style="mix-blend-mode: multiply;"/><path d="M-245.02679415180114,124.8473874283754L-207.3598045377295,109.03588566775807C-169.69281492365792,93.22438390714073,-94.3588356955147,61.601380385906054,-54.96069646129538,86.60419983127285C-15.56255722707605,111.60701927663963,-12.100257986780624,193.23566168860793,-10.369108366632911,234.04998289459206L-8.637958746485198,274.8643041005762" style="mix-blend-mode: multiply;"/><path d="M-245.02679415180114,124.8473874283754L-203.89711618423402,104.85021447420024C-162.7674382166669,84.85304152002509,-80.50808228153265,44.85869561167477,5.059234999293456,14.052565809604C90.62655228011955,-16.753563992466773,179.50183090663757,-38.371477688258004,223.93947021989655,-49.180434536153626L268.37710953315553,-59.98939138404924" style="mix-blend-mode: multiply;"/><path d="M-245.02679415180114,124.8473874283754L-204.8211504930697,103.1694023061721C-164.61550683433828,81.4914171839688,-84.20421951687541,38.13544693956221,-10.957359687191797,-15.081511769550454C62.28950014249182,-68.29847047866312,128.37193248439618,-131.37641765248185,161.41314865534835,-162.9153912393912L194.45436482630055,-194.45436482630058" style="mix-blend-mode: multiply;"/><path d="M-245.02679415180114,124.8473874283754L-209.52508959044852,103.02157506464614C-174.02338502909592,81.19576270091692,-103.01997590639066,37.544137973458426,-92.49230404175786,-17.643850622666857C-81.96463217712507,-72.83183921879213,-131.91269757056475,-139.55619168358422,-156.88673026728455,-172.9183679159802L-181.86076296400438,-206.28054414837626" style="mix-blend-mode: multiply;"/><path d="M-245.02679415180114,124.8473874283754L-205.69123771054376,102.53724693960334C-166.3556812692864,80.22710645083129,-87.68456838677167,35.60682547328718,-26.038871456742257,-26.038871456742253C35.60682547328716,-87.68456838677167,80.22710645083126,-166.3556812692864,102.53724693960332,-205.6912377105438L124.84738742837536,-245.02679415180117" style="mix-blend-mode: multiply;"/><path d="M-245.02679415180114,124.8473874283754L-207.14385556906743,109.03588566775807C-169.26091698633365,93.22438390714073,-93.49503982086617,61.601380385906054,-51.21758100448511,86.60419983127285C-8.940122188104043,111.60701927663963,-0.15108172080938922,193.23566168860793,4.243438512837938,234.04998289459206L8.637958746485264,274.8643041005762" style="mix-blend-mode: multiply;"/><path d="M-252.38252206309485,109.21566992456458L-213.58152439603214,95.81405794578474C-174.78052672896942,82.4124459670049,-97.17853139484396,55.60922200944524,-56.554437508742346,83.21732770544718C-15.930343622640734,110.82543340144912,-12.284151184562967,192.84486875101265,-10.461054965524083,233.85458642579442L-8.637958746485198,274.8643041005762" style="mix-blend-mode: multiply;"/><path d="M-271.61429366366286,43.019477886063534L-226.58564186472617,35.02211250457168C-181.55699006578945,27.02474712307983,-91.49968646791604,11.030016360096122,-4.166883846789744,-14.342508275008575C83.16591877433653,-39.71503291011327,167.7742204187157,-74.46535141733897,210.07837124090528,-91.8405106709518L252.38252206309483,-109.21566992456465" style="mix-blend-mode: multiply;"/><path d="M-271.61429366366286,43.019477886063534L-227.16191658866015,38.66056791567879C-182.7095395136574,34.301657945294046,-93.80478536365194,25.58383800452457,-14.155645728312066,48.724052184181346C65.49349390702781,71.86426636383813,135.8870190277021,126.86251466392116,171.08378158803927,154.36163881396268L206.2805441483764,181.8607629640042" style="mix-blend-mode: multiply;"/><path d="M-271.61429366366286,43.019477886063534L-227.3097438301861,33.95662881829998C-183.0051939967093,24.893779750536428,-94.39609432975574,6.768081615009325,-16.7179845814285,-32.8108921703847C60.960125166898735,-72.38986595577872,127.70724499659964,-133.42211539103963,161.0808049114501,-163.9382401086701L194.45436482630055,-194.45436482630058" style="mix-blend-mode: multiply;"/><path d="M-274.8643041005762,-8.63795874648518L-230.0587109914086,-9.73695300006414C-185.253117882241,-10.835947253643099,-95.64193166390585,-13.033935760801016,-17.42215350942639,-44.00333677410358C60.79762464505307,-74.97273778740615,127.6259947356768,-134.71355130685336,161.04017978098867,-164.58395806657697L194.45436482630055,-194.45436482630058" style="mix-blend-mode: multiply;"/><path d="M-274.8643041005762,-8.63795874648518L-229.13467668257292,-8.056140832035998C-183.40504926456967,-7.474322917586814,-91.94579442856309,-6.310687088688449,-1.405558822941136,-14.869259194949125C89.13467678268081,-23.427831301209803,178.75589315791817,-41.708611342629524,223.56650134553686,-50.84900136333939L268.37710953315553,-59.98939138404924" style="mix-blend-mode: multiply;"/><path d="M-274.8643041005762,-8.63795874648518L-229.33460902594868,-8.671469313792441C-183.80491395132117,-8.704979881099701,-92.74552380206613,-8.772001015714219,-4.871052774787633,-25.534952878727466C83.00341825249087,-42.29790474174071,167.69297015779284,-75.75678733315267,210.03774611044386,-92.48622862885867L252.38252206309483,-109.21566992456465" style="mix-blend-mode: multiply;"/><path d="M-268.37710953315553,-59.9893913840493L-223.8475236210054,-52.106222753065424C-179.3179377088552,-44.22305412208155,-90.25876588455488,-28.4567168601138,-3.465493951846488,-36.66109661686636C83.32777798086191,-44.86547637361892,167.85515002197835,-77.04057314909178,210.1188360425366,-93.1281215368282L252.38252206309483,-109.21566992456465" style="mix-blend-mode: multiply;"/><path d="M-264.08076356115936,-76.72255416078804L-220.2135309863586,-66.25968960172361C-176.34629841155785,-55.79682504265918,-88.61183326195635,-34.871095924530316,-2.5346189912473087,-40.28661521849308C83.54259527946172,-45.70213451245585,167.9625586712783,-77.45890221851026,210.17254036718654,-93.33728607153745L252.38252206309483,-109.21566992456465" style="mix-blend-mode: multiply;"/><path d="M-264.08076356115936,-76.72255416078804L-223.47628699647836,-61.45868992640934C-182.87181043179737,-46.194825692030655,-101.66285730243534,-15.667097223273268,-59.08905649998965,42.9307124869541C-16.51525569754396,101.52852219718147,-12.57660722201458,188.19641314887883,-10.60728298424989,231.53035862472748L-8.637958746485198,274.8643041005762" style="mix-blend-mode: multiply;"/><path d="M-264.08076356115936,-76.72255416078804L-220.93763295181853,-67.3251732879953C-177.7945023424777,-57.92779241520257,-91.50824112379605,-39.133030669617106,-15.085719725886074,-58.7549991138692C61.33680167202391,-78.3769675581213,127.89558324916221,-136.41566619221092,161.1749740377314,-165.43501550925575L194.45436482630055,-194.45436482630058" style="mix-blend-mode: multiply;"/><path d="M-181.86076296400438,-206.28054414837626L-153.93186982471812,-171.04315645757768C-126.00297668543182,-135.80576876677918,-70.14519040685927,-65.33099338518208,-41.27472303727274,14.859814656309984C-12.404255667686213,95.05062269780205,-10.521107207085706,184.95746339918912,-9.579532976785451,229.9108837498827L-8.637958746485198,274.8643041005762" style="mix-blend-mode: multiply;"/><path d="M-181.86076296400438,-206.28054414837626L-151.39321578005828,-176.90963981916366C-120.92566859611219,-147.5387354899511,-59.99057422821999,-88.79692683152594,2.7286137368308374,-86.82589694451332C65.44780170188166,-84.8548670575007,129.9510832640911,-139.65461594190063,162.20272404519582,-167.0544903841006L194.45436482630055,-194.45436482630058" style="mix-blend-mode: multiply;"/><path d="M-181.86076296400438,-206.28054414837626L-150.46918147122258,-175.2288276511355C-119.0775999784408,-144.1771111538948,-56.29443699287723,-82.07367815941336,18.745208423316086,-57.69181936535887C93.78485383950941,-33.30996057130436,181.08098168633248,-46.6496759776768,224.72904560974402,-53.319533680863024L268.37710953315553,-59.98939138404924" style="mix-blend-mode: multiply;"/><path d="M-181.86076296400438,-206.28054414837626L-152.26330299753235,-177.54179518573244C-122.66584303106032,-148.80304622308861,-63.47092309811625,-91.32554829780095,-12.352898032719622,-97.78325663170511C38.765127032677,-104.24096496560928,81.80625723052619,-174.63387955870522,103.32682232945076,-209.8303368552532L124.84738742837536,-245.02679415180117" style="mix-blend-mode: multiply;"/><path d="M-181.86076296400438,-206.28054414837626L-153.715920856056,-171.04315645757768C-125.57107874810755,-135.80576876677918,-69.28139453221075,-65.33099338518208,-37.53160758046248,14.859814656309984C-5.781820628714203,95.05062269780205,1.4280690588855307,184.95746339918912,5.033013902685398,229.9108837498827L8.637958746485264,274.8643041005762" style="mix-blend-mode: multiply;"/><path d="M-181.86076296400438,-206.28054414837626L-156.88673026728455,-172.9183679159802C-131.91269757056475,-139.55619168358422,-81.96463217712507,-72.83183921879213,-92.49230404175786,-17.643850622666854C-103.01997590639066,37.544137973458426,-174.02338502909592,81.19576270091692,-209.52508959044852,103.02157506464614L-245.02679415180114,124.8473874283754" style="mix-blend-mode: multiply;"/><path d="M-181.86076296400438,-206.28054414837626L-151.24538853853232,-172.20570072178486C-120.63001411306028,-138.13085729519347,-59.39926526211619,-69.9811704420107,5.290952589947271,-5.290952589947281C69.98117044201074,59.39926526211613,138.13085729519358,120.63001411306017,172.20570072178498,151.24538853853218L206.2805441483764,181.8607629640042" style="mix-blend-mode: multiply;"/><path d="M-181.86076296400438,-206.28054414837626L-150.5896176971069,-175.64337185967813C-119.3184724302094,-145.00619957097996,-56.776181896414414,-83.73185499358367,16.657647174654983,-64.87725231343013C90.09147624572438,-46.02264963327662,174.41684385406822,-69.58778885036588,216.57952765824007,-81.37035845891052L258.742211462412,-93.15292806745515" style="mix-blend-mode: multiply;"/><path d="M-93.15292806745538,-258.7422114624119L-78.89982614138707,-215.41698339403285C-64.64672421531877,-172.09175532565382,-36.140520363182155,-85.44129918889575,-22.05469214302046,3.493120071602268C-7.968863922858762,92.42753933210027,-8.30341133467198,183.64592171633822,-8.470685040578589,229.25511290845722L-8.637958746485198,274.8643041005762" style="mix-blend-mode: multiply;"/><path d="M-93.15292806745538,-258.7422114624119L-78.68387717272493,-222.28859099654724C-64.2148262779945,-185.83497053068263,-35.27672448853363,-112.92772959895338,-18.311576686210188,-115.61474503864743C-1.3464288838867453,-118.30176047834148,3.6457649312992673,-196.58303228945883,6.141861838892274,-235.7236681950175L8.63795874648528,-274.8643041005762" style="mix-blend-mode: multiply;"/><path d="M-93.15292806745538,-258.7422114624119L-79.54171904935663,-222.2075010644545C-65.93051003125787,-185.67279066649712,-38.708091995060364,-112.60336987058234,-33.180835881159375,-114.20918621570627C-27.65357976725838,-115.8150025608302,-43.821485575653895,-192.09605604699286,-51.905438479851654,-230.23658279007418L-59.98939138404941,-268.3771095331555" style="mix-blend-mode: multiply;"/><path d="M-59.98939138404941,-268.3771095331555L-51.90543847985166,-230.23658279007415C-43.821485575653895,-192.09605604699286,-27.65357976725838,-115.8150025608302,-33.180835881159375,-114.20918621570627C-38.708091995060364,-112.60336987058234,-65.93051003125787,-185.67279066649712,-79.54171904935663,-222.2075010644545L-93.15292806745538,-258.7422114624119" style="mix-blend-mode: multiply;"/><path d="M-59.98939138404941,-268.3771095331555L-47.58624535321977,-228.36750102085105C-35.18309932239014,-188.35789250854666,-10.376807260730864,-108.33867548393783,41.68517831379318,-81.81176888250603C93.74716388831722,-55.284862281074226,173.06484297570603,-82.25026610281944,212.72368251940043,-95.73296801369203L252.38252206309483,-109.21566992456465" style="mix-blend-mode: multiply;"/></g></svg>