<svg viewBox="-375,-375,750,750" xmlns="http://www.w3.org/2000/svg" xmlns:xlink="http://www.w3.org/1999/xlink"><g font-family="sans-serif" font-size="10"><g transform="rotate(-88.2) translate(275,0)"><text dy="0.31em" x="6" text-anchor="start">100luz<title>flare.100luz
0 outgoing
0 incoming</title></text></g><g transform="rotate(-84.6) translate(275,0)"><text dy="0.31em" x="6" text-anchor="start">Alex<title>flare.Alex
1 outgoing
1 incoming</title></text></g><g transform="rotate(-81) translate(275,0)"><text dy="0.31em" x="6" text-anchor="start">Alina<title>flare.Alina
0 outgoing
0 incoming</title></text></g><g transform="rotate(-77.4) translate(275,0)"><text dy="0.31em" x="6" text-anchor="start">Allen<title>flare.Allen
0 outgoing
0 incoming</title></text></g><g transform="rotate(-73.8) translate(275,0)"><text dy="0.31em" x="6" text-anchor="start">Ariel Malka<title>flare.Ariel Malka
0 outgoing
0 incoming</title></text></g><g transform="rotate(-70.2) translate(275,0)"><text dy="0.31em" x="6" text-anchor="start">Bertrand Saint-Guillain<title>flare.Bertrand Saint-Guillain
0 outgoing
0 incoming</title></text></g><g transform="rotate(-66.6) translate(275,0)"><text dy="0.31em" x="6" text-anchor="start">Brian<title>flare.Brian
0 outgoing
0 incoming</title></text></g><g transform="rotate(-63) translate(275,0)"><text dy="0.31em" x="6" text-anchor="start">Dan<title>flare.Dan
2 outgoing
2 incoming</title></text></g><g transform="rotate(-59.39999999999999) translate(275,0)"><text dy="0.31em" x="6" text-anchor="start">Dara<title>flare.Dara
0 outgoing
0 incoming</title></text></g><g transform="rotate(-55.800000000000004) translate(275,0)"><text dy="0.31em" x="6" text-anchor="start">Dimitre<title>flare.Dimitre
5 outgoing
5 incoming</title></text></g><g transform="rotate(-52.2) translate(275,0)"><text dy="0.31em" x="6" text-anchor="start">Elrick<title>flare.Elrick
0 outgoing
0 incoming</title></text></g><g transform="rotate(-48.6) translate(275,0)"><text dy="0.31em" x="6" text-anchor="start">Frederik De Bleser<title>flare.Frederik De Bleser
0 outgoing
0 incoming</title></text></g><g transform="rotate(-45) translate(275,0)"><text dy="0.31em" x="6" text-anchor="start">Glen Murphy<title>flare.Glen Murphy
6 outgoing
6 incoming</title></text></g><g transform="rotate(-41.4) translate(275,0)"><text dy="0.31em" x="6" text-anchor="start">Jeff Berg<title>flare.Jeff Berg
0 outgoing
0 incoming</title></text></g><g transform="rotate(-37.800000000000004) translate(275,0)"><text dy="0.31em" x="6" text-anchor="start">JimQode<title>flare.JimQode
0 outgoing
0 incoming</title></text></g><g transform="rotate(-34.2) translate(275,0)"><text dy="0.31em" x="6" text-anchor="start">Jordan J<title>flare.Jordan J
0 outgoing
0 incoming</title></text></g><g transform="rotate(-30.599999999999987) translate(275,0)"><text dy="0.31em" x="6" text-anchor="start">Josh Nimoy<title>flare.Josh Nimoy
0 outgoing
0 incoming</title></text></g><g transform="rotate(-27) translate(275,0)"><text dy="0.31em" x="6" text-anchor="start">Koenie<title>flare.Koenie
0 outgoing
0 incoming</title></text></g><g transform="rotate(-23.39999999999999) translate(275,0)"><text dy="0.31em" x="6" text-anchor="start">Martin<title>flare.Martin
7 outgoing
7 incoming</title></text></g><g transform="rotate(-19.799999999999997) translate(275,0)"><text dy="0.31em" x="6" text-anchor="start">Mike Davis<title>flare.Mike Davis
1 outgoing
1 incoming</title></text></g><g transform="rotate(-16.200000000000003) translate(275,0)"><text dy="0.31em" x="6" text-anchor="start">Processing<title>flare.Processing
0 outgoing
0 incoming</title></text></g><g transform="rotate(-12.600000000000009) translate(275,0)"><text dy="0.31em" x="6" text-anchor="start">REAS<title>flare.REAS
8 outgoing
8 incoming</title></text></g><g transform="rotate(-9) translate(275,0)"><text dy="0.31em" x="6" text-anchor="start">Takachin<title>flare.Takachin
0 outgoing
0 incoming</title></text></g><g transform="rotate(-5.400000000000006) translate(275,0)"><text dy="0.31em" x="6" text-anchor="start">WillisMorse<title>flare.WillisMorse
0 outgoing
0 incoming</title></text></g><g transform="rotate(-1.7999999999999972) translate(275,0)"><text dy="0.31em" x="6" text-anchor="start">Wim_Van_der_Vurst<title>flare.Wim_Van_der_Vurst
0 outgoing
0 incoming</title></text></g><g transform="rotate(1.7999999999999972) translate(275,0)"><text dy="0.31em" x="6" text-anchor="start">XemonerdX<title>flare.XemonerdX
0 outgoing
0 incoming</title></text></g><g transform="rotate(5.400000000000006) translate(275,0)"><text dy="0.31em" x="6" text-anchor="start">Xu1<title>flare.Xu1
0 outgoing
0 incoming</title></text></g><g transform="rotate(9.000000000000014) translate(275,0)"><text dy="0.31em" x="6" text-anchor="start">[rocha]<title>flare.[rocha]
0 outgoing
0 incoming</title></text></g><g transform="rotate(12.599999999999994) translate(275,0)"><text dy="0.31em" x="6" text-anchor="start">_cory<title>flare._cory
0 outgoing
0 incoming</title></text></g><g transform="rotate(16.19999999999999) translate(275,0)"><text dy="0.31em" x="6" text-anchor="start">_martin<title>flare._martin
0 outgoing
0 incoming</title></text></g><g transform="rotate(19.799999999999997) translate(275,0)"><text dy="0.31em" x="6" text-anchor="start">_warren<title>flare._warren
0 outgoing
0 incoming</title></text></g><g transform="rotate(23.400000000000006) translate(275,0)"><text dy="0.31em" x="6" text-anchor="start">adrien<title>flare.adrien
4 outgoing
4 incoming</title></text></g><g transform="rotate(27) translate(275,0)"><text dy="0.31em" x="6" text-anchor="start">anurag<title>flare.anurag
0 outgoing
0 incoming</title></text></g><g transform="rotate(30.60000000000001) translate(275,0)"><text dy="0.31em" x="6" text-anchor="start">arielm<title>flare.arielm
0 outgoing
0 incoming</title></text></g><g transform="rotate(34.19999999999999) translate(275,0)"><text dy="0.31em" x="6" text-anchor="start">artelse<title>flare.artelse
0 outgoing
0 incoming</title></text></g><g transform="rotate(37.79999999999998) translate(275,0)"><text dy="0.31em" x="6" text-anchor="start">barikan<title>flare.barikan
0 outgoing
0 incoming</title></text></g><g transform="rotate(41.400000000000006) translate(275,0)"><text dy="0.31em" x="6" text-anchor="start">benelek<title>flare.benelek
0 outgoing
0 incoming</title></text></g><g transform="rotate(45) translate(275,0)"><text dy="0.31em" x="6" text-anchor="start">bzor<title>flare.bzor
0 outgoing
0 incoming</title></text></g><g transform="rotate(48.599999999999994) translate(275,0)"><text dy="0.31em" x="6" text-anchor="start">damille<title>flare.damille
0 outgoing
0 incoming</title></text></g><g transform="rotate(52.20000000000002) translate(275,0)"><text dy="0.31em" x="6" text-anchor="start">depth<title>flare.depth
0 outgoing
0 incoming</title></text></g><g transform="rotate(55.80000000000001) translate(275,0)"><text dy="0.31em" x="6" text-anchor="start">dnm<title>flare.dnm
1 outgoing
1 incoming</title></text></g><g transform="rotate(59.400000000000006) translate(275,0)"><text dy="0.31em" x="6" text-anchor="start">ed<title>flare.ed
0 outgoing
0 incoming</title></text></g><g transform="rotate(63) translate(275,0)"><text dy="0.31em" x="6" text-anchor="start">edwardgeorge<title>flare.edwardgeorge
0 outgoing
0 incoming</title></text></g><g transform="rotate(66.6) translate(275,0)"><text dy="0.31em" x="6" text-anchor="start">eviltyler<title>flare.eviltyler
0 outgoing
0 incoming</title></text></g><g transform="rotate(70.20000000000002) translate(275,0)"><text dy="0.31em" x="6" text-anchor="start">ezdac<title>flare.ezdac
0 outgoing
0 incoming</title></text></g><g transform="rotate(73.80000000000004) translate(275,0)"><text dy="0.31em" x="6" text-anchor="start">fdb<title>flare.fdb
1 outgoing
1 incoming</title></text></g><g transform="rotate(77.40000000000003) translate(275,0)"><text dy="0.31em" x="6" text-anchor="start">fli<title>flare.fli
0 outgoing
0 incoming</title></text></g><g transform="rotate(81) translate(275,0)"><text dy="0.31em" x="6" text-anchor="start">flight404<title>flare.flight404
0 outgoing
0 incoming</title></text></g><g transform="rotate(84.6) translate(275,0)"><text dy="0.31em" x="6" text-anchor="start">forkinsocket<title>flare.forkinsocket
3 outgoing
3 incoming</title></text></g><g transform="rotate(88.20000000000002) translate(275,0)"><text dy="0.31em" x="6" text-anchor="start">franklin_mint<title>flare.franklin_mint
0 outgoing
0 incoming</title></text></g><g transform="rotate(91.80000000000001) translate(275,0)"><text dy="0.31em" x="-6" text-anchor="end" transform="rotate(180)">fry<title>flare.fry
16 outgoing
16 incoming</title></text></g><g transform="rotate(95.4) translate(275,0)"><text dy="0.31em" x="-6" text-anchor="end" transform="rotate(180)">fulk<title>flare.fulk
0 outgoing
0 incoming</title></text></g><g transform="rotate(99) translate(275,0)"><text dy="0.31em" x="-6" text-anchor="end" transform="rotate(180)">gaza<title>flare.gaza
0 outgoing
0 incoming</title></text></g><g transform="rotate(102.60000000000002) translate(275,0)"><text dy="0.31em" x="-6" text-anchor="end" transform="rotate(180)">gkoshra<title>flare.gkoshra
0 outgoing
0 incoming</title></text></g><g transform="rotate(106.20000000000002) translate(275,0)"><text dy="0.31em" x="-6" text-anchor="end" transform="rotate(180)">grumo<title>flare.grumo
0 outgoing
0 incoming</title></text></g><g transform="rotate(109.80000000000001) translate(275,0)"><text dy="0.31em" x="-6" text-anchor="end" transform="rotate(180)">gsm<title>flare.gsm
0 outgoing
0 incoming</title></text></g><g transform="rotate(113.39999999999998) translate(275,0)"><text dy="0.31em" x="-6" text-anchor="end" transform="rotate(180)">heidi<title>flare.heidi
0 outgoing
0 incoming</title></text></g><g transform="rotate(116.99999999999997) translate(275,0)"><text dy="0.31em" x="-6" text-anchor="end" transform="rotate(180)">heliodrop<title>flare.heliodrop
0 outgoing
0 incoming</title></text></g><g transform="rotate(120.6) translate(275,0)"><text dy="0.31em" x="-6" text-anchor="end" transform="rotate(180)">hurlbot<title>flare.hurlbot
0 outgoing
0 incoming</title></text></g><g transform="rotate(124.19999999999999) translate(275,0)"><text dy="0.31em" x="-6" text-anchor="end" transform="rotate(180)">ik0<title>flare.ik0
0 outgoing
0 incoming</title></text></g><g transform="rotate(127.79999999999998) translate(275,0)"><text dy="0.31em" x="-6" text-anchor="end" transform="rotate(180)">jand<title>flare.jand
0 outgoing
0 incoming</title></text></g><g transform="rotate(131.4) translate(275,0)"><text dy="0.31em" x="-6" text-anchor="end" transform="rotate(180)">jbk303<title>flare.jbk303
0 outgoing
0 incoming</title></text></g><g transform="rotate(135) translate(275,0)"><text dy="0.31em" x="-6" text-anchor="end" transform="rotate(180)">jes<title>flare.jes
1 outgoing
1 incoming</title></text></g><g transform="rotate(138.6) translate(275,0)"><text dy="0.31em" x="-6" text-anchor="end" transform="rotate(180)">jlee<title>flare.jlee
0 outgoing
0 incoming</title></text></g><g transform="rotate(142.2) translate(275,0)"><text dy="0.31em" x="-6" text-anchor="end" transform="rotate(180)">joey<title>flare.joey
0 outgoing
0 incoming</title></text></g><g transform="rotate(145.8) translate(275,0)"><text dy="0.31em" x="-6" text-anchor="end" transform="rotate(180)">kevin<title>flare.kevin
0 outgoing
0 incoming</title></text></g><g transform="rotate(149.4) translate(275,0)"><text dy="0.31em" x="-6" text-anchor="end" transform="rotate(180)">mKoser<title>flare.mKoser
4 outgoing
4 incoming</title></text></g><g transform="rotate(153) translate(275,0)"><text dy="0.31em" x="-6" text-anchor="end" transform="rotate(180)">mawend<title>flare.mawend
0 outgoing
0 incoming</title></text></g><g transform="rotate(156.60000000000005) translate(275,0)"><text dy="0.31em" x="-6" text-anchor="end" transform="rotate(180)">mccutchen<title>flare.mccutchen
0 outgoing
0 incoming</title></text></g><g transform="rotate(160.2) translate(275,0)"><text dy="0.31em" x="-6" text-anchor="end" transform="rotate(180)">meltphace<title>flare.meltphace
0 outgoing
0 incoming</title></text></g><g transform="rotate(163.79999999999998) translate(275,0)"><text dy="0.31em" x="-6" text-anchor="end" transform="rotate(180)">michaONE<title>flare.michaONE
0 outgoing
0 incoming</title></text></g><g transform="rotate(167.39999999999998) translate(275,0)"><text dy="0.31em" x="-6" text-anchor="end" transform="rotate(180)">michael<title>flare.michael
0 outgoing
0 incoming</title></text></g><g transform="rotate(171) translate(275,0)"><text dy="0.31em" x="-6" text-anchor="end" transform="rotate(180)">mmuday<title>flare.mmuday
0 outgoing
0 incoming</title></text></g><g transform="rotate(174.59999999999997) translate(275,0)"><text dy="0.31em" x="-6" text-anchor="end" transform="rotate(180)">mohn<title>flare.mohn
0 outgoing
0 incoming</title></text></g><g transform="rotate(178.20000000000005) translate(275,0)"><text dy="0.31em" x="-6" text-anchor="end" transform="rotate(180)">mr.prufrock<title>flare.mr.prufrock
0 outgoing
0 incoming</title></text></g><g transform="rotate(181.8) translate(275,0)"><text dy="0.31em" x="-6" text-anchor="end" transform="rotate(180)">mrb<title>flare.mrb
1 outgoing
1 incoming</title></text></g><g transform="rotate(185.40000000000003) translate(275,0)"><text dy="0.31em" x="-6" text-anchor="end" transform="rotate(180)">nurm<title>flare.nurm
2 outgoing
2 incoming</title></text></g><g transform="rotate(189) translate(275,0)"><text dy="0.31em" x="-6" text-anchor="end" transform="rotate(180)">oytun<title>flare.oytun
0 outgoing
0 incoming</title></text></g><g transform="rotate(192.60000000000002) translate(275,0)"><text dy="0.31em" x="-6" text-anchor="end" transform="rotate(180)">pinksalmon<title>flare.pinksalmon
0 outgoing
0 incoming</title></text></g><g transform="rotate(196.2) translate(275,0)"><text dy="0.31em" x="-6" text-anchor="end" transform="rotate(180)">pitaru<title>flare.pitaru
1 outgoing
1 incoming</title></text></g><g transform="rotate(199.8) translate(275,0)"><text dy="0.31em" x="-6" text-anchor="end" transform="rotate(180)">pokemon#1<title>flare.pokemon#1
0 outgoing
0 incoming</title></text></g><g transform="rotate(203.39999999999998) translate(275,0)"><text dy="0.31em" x="-6" text-anchor="end" transform="rotate(180)">pollux<title>flare.pollux
0 outgoing
0 incoming</title></text></g><g transform="rotate(207) translate(275,0)"><text dy="0.31em" x="-6" text-anchor="end" transform="rotate(180)">polyscope<title>flare.polyscope
0 outgoing
0 incoming</title></text></g><g transform="rotate(210.59999999999997) translate(275,0)"><text dy="0.31em" x="-6" text-anchor="end" transform="rotate(180)">primeclub<title>flare.primeclub
0 outgoing
0 incoming</title></text></g><g transform="rotate(214.2) translate(275,0)"><text dy="0.31em" x="-6" text-anchor="end" transform="rotate(180)">rlivings<title>flare.rlivings
0 outgoing
0 incoming</title></text></g><g transform="rotate(217.79999999999995) translate(275,0)"><text dy="0.31em" x="-6" text-anchor="end" transform="rotate(180)">scrap-pile<title>flare.scrap-pile
0 outgoing
0 incoming</title></text></g><g transform="rotate(221.40000000000003) translate(275,0)"><text dy="0.31em" x="-6" text-anchor="end" transform="rotate(180)">sdewitt<title>flare.sdewitt
1 outgoing
1 incoming</title></text></g><g transform="rotate(225) translate(275,0)"><text dy="0.31em" x="-6" text-anchor="end" transform="rotate(180)">seb<title>flare.seb
0 outgoing
0 incoming</title></text></g><g transform="rotate(228.59999999999997) translate(275,0)"><text dy="0.31em" x="-6" text-anchor="end" transform="rotate(180)">skloopy<title>flare.skloopy
0 outgoing
0 incoming</title></text></g><g transform="rotate(232.20000000000005) translate(275,0)"><text dy="0.31em" x="-6" text-anchor="end" transform="rotate(180)">solipsys<title>flare.solipsys
0 outgoing
0 incoming</title></text></g><g transform="rotate(235.8) translate(275,0)"><text dy="0.31em" x="-6" text-anchor="end" transform="rotate(180)">spacegirl<title>flare.spacegirl
1 outgoing
1 incoming</title></text></g><g transform="rotate(239.39999999999998) translate(275,0)"><text dy="0.31em" x="-6" text-anchor="end" transform="rotate(180)">sparky_monkey<title>flare.sparky_monkey
0 outgoing
0 incoming</title></text></g><g transform="rotate(243) translate(275,0)"><text dy="0.31em" x="-6" text-anchor="end" transform="rotate(180)">sportebois<title>flare.sportebois
0 outgoing
0 incoming</title></text></g><g transform="rotate(246.60000000000002) translate(275,0)"><text dy="0.31em" x="-6" text-anchor="end" transform="rotate(180)">svela<title>flare.svela
0 outgoing
0 incoming</title></text></g><g transform="rotate(250.19999999999993) translate(275,0)"><text dy="0.31em" x="-6" text-anchor="end" transform="rotate(180)">tomek<title>flare.tomek
0 outgoing
0 incoming</title></text></g><g transform="rotate(253.8) translate(275,0)"><text dy="0.31em" x="-6" text-anchor="end" transform="rotate(180)">toxi<title>flare.toxi
0 outgoing
0 incoming</title></text></g><g transform="rotate(257.4) translate(275,0)"><text dy="0.31em" x="-6" text-anchor="end" transform="rotate(180)">v3ga<title>flare.v3ga
0 outgoing
0 incoming</title></text></g><g transform="rotate(261) translate(275,0)"><text dy="0.31em" x="-6" text-anchor="end" transform="rotate(180)">vanwoods<title>flare.vanwoods
0 outgoing
0 incoming</title></text></g><g transform="rotate(264.6) translate(275,0)"><text dy="0.31em" x="-6" text-anchor="end" transform="rotate(180)">vent<title>flare.vent
0 outgoing
0 incoming</title></text></g><g transform="rotate(268.2) translate(275,0)"><text dy="0.31em" x="-6" text-anchor="end" transform="rotate(180)">xoff<title>flare.xoff
0 outgoing
0 incoming</title></text></g></g><g stroke="grey" fill="none"><path d="M25.879786162591436,-273.779540265847L21.782011311527526,-228.13605734027172C17.684236460463612,-182.49257441469646,9.48868675833579,-91.20560856354587,3.735729273489685,0.235032164191324C-2.0172282113564206,91.67567289192853,-5.32759347892081,183.26998849625235,-6.982776112703004,229.0671462984143L-8.637958746485198,274.8643041005762" style="mix-blend-mode: multiply;"/><path d="M124.84738742837536,-245.02679415180117L108.03076142682959,-209.68250961372726C91.2141354252838,-174.33822507565333,57.580883422192244,-103.64965599950547,69.18204632184644,-95.22091777858871C80.78320922150066,-86.79217955767194,137.61878702390058,-140.62327219198627,166.03657592510058,-167.5388185091434L194.45436482630055,-194.45436482630058" style="mix-blend-mode: multiply;"/><path d="M124.84738742837536,-245.02679415180117L105.49210738216975,-203.8160262521413C86.13682733596416,-162.6052583524814,47.42626724355296,-80.18372255316164,25.17870954774287,6.464793822234587C2.9311518519327766,93.11331019763081,-2.853403447276211,183.9888071491035,-5.745681096880705,229.42655562483984L-8.637958746485198,274.8643041005762" style="mix-blend-mode: multiply;"/><path d="M154.5729289093359,-227.4471579255045L133.1736152628087,-194.81306730565132C111.7743016162815,-162.17897668579812,68.97567432322712,-96.91079544609175,75.6225803093879,-91.41199659622443C82.26948629554867,-85.91319774635711,138.36192556092462,-140.18378128632884,166.40814519361257,-167.3190730563147L194.45436482630055,-194.45436482630058" style="mix-blend-mode: multiply;"/><path d="M154.5729289093359,-227.4471579255045L130.6349612181489,-188.94658394406534C106.69699352696188,-150.44600996262622,58.82105814458783,-73.44486199974791,31.619243535284323,10.273715004598861C4.417428925980803,93.99229200894564,-2.1102649102521975,184.42829805476092,-5.374111828368697,229.64630107766857L-8.637958746485198,274.8643041005762" style="mix-blend-mode: multiply;"/><path d="M154.5729289093359,-227.4471579255045L134.09764957164438,-193.13225513762316C113.62237023395289,-158.81735234974187,72.67181155856987,-90.1875467739792,91.63917499587315,-62.27791901706998C110.60653843317641,-34.36829126016077,189.49182398316597,-47.17884132210501,228.93446675816077,-53.58411635307713L268.37710953315553,-59.98939138404924" style="mix-blend-mode: multiply;"/><path d="M154.5729289093359,-227.4471579255045L133.89771722826865,-193.7475836193796C113.22250554720137,-160.04800931325474,71.87208218506684,-92.64886070100498,88.17368104402665,-72.94361270084833C104.47527990298647,-53.238364700691676,178.42890098304065,-81.22701731262816,215.4057115230677,-95.2213436185964L252.38252206309483,-109.21566992456465" style="mix-blend-mode: multiply;"/><path d="M154.5729289093359,-227.4471579255045L133.89771722826865,-191.0171918712655C113.22250554720137,-154.5872258170265,71.87208218506684,-81.7272937085485,88.17368104402665,-25.61682240020364C104.47527990298649,30.49364890814121,178.42890098304068,69.85465941635292,215.4057115230678,89.53516467045877L252.38252206309485,109.21566992456462" style="mix-blend-mode: multiply;"/><path d="M194.45436482630055,-194.45436482630058L166.40814519361257,-167.3190730563147C138.36192556092462,-140.18378128632884,82.26948629554867,-85.91319774635711,75.6225803093879,-91.41199659622443C68.97567432322712,-96.91079544609175,111.7743016162815,-162.17897668579812,133.1736152628087,-194.81306730565132L154.5729289093359,-227.4471579255045" style="mix-blend-mode: multiply;"/><path d="M194.45436482630055,-194.45436482630058L167.83069745141032,-165.22585097454652C141.2070300765201,-135.99733712279246,87.95969532673966,-77.54030941928436,100.28015277788215,-55.12948051224246C112.60061022902465,-32.71865160520057,190.4888598810901,-46.35402149462491,229.4329847071228,-53.17170643933707L268.37710953315553,-59.98939138404924" style="mix-blend-mode: multiply;"/><path d="M194.45436482630055,-194.45436482630058L167.63076510803458,-165.84117945630297C140.80716538976858,-137.22799408630536,87.15996595323662,-80.00162334631013,96.81465882603567,-65.79517419602081C106.46935169883471,-51.58872504573148,179.42593688096477,-80.40219748514806,215.90422947202978,-94.80893370485636L252.38252206309483,-109.21566992456465" style="mix-blend-mode: multiply;"/><path d="M194.45436482630055,-194.45436482630058L166.03657592510058,-167.5388185091434C137.61878702390058,-140.62327219198627,80.78320922150066,-86.79217955767194,69.18204632184644,-95.22091777858871C57.580883422192244,-103.64965599950547,91.2141354252838,-174.33822507565333,108.03076142682959,-209.68250961372723L124.84738742837536,-245.02679415180117" style="mix-blend-mode: multiply;"/><path d="M194.45436482630055,-194.45436482630058L164.3680090979148,-161.0401797809887C134.2816533695291,-127.62599473567683,74.10894191275762,-60.79762464505308,40.26022131729333,17.42215350942638C6.411500721829036,95.64193166390584,-1.113229012328081,185.253117882241,-4.875593879406639,230.0587109914086L-8.637958746485198,274.8643041005762" style="mix-blend-mode: multiply;"/><path d="M194.45436482630055,-194.45436482630058L161.05373932892277,-164.7994809092783C127.65311383154504,-135.14459699225603,60.85186283678953,-75.83482915821146,-17.187121345235067,-47.739066047593276C-95.22610552725966,-19.6433029369751,-184.50282289655334,-22.761544549783295,-229.1411815812002,-24.32066535618739L-273.779540265847,-25.879786162591486" style="mix-blend-mode: multiply;"/><path d="M252.38252206309483,-109.21566992456465L216.82826378086546,-93.1281215368282C181.27400549863614,-77.04057314909178,110.16548893417746,-44.86547637361891,112.8312535125209,-36.661096616866345C115.49701809086436,-28.456716860113776,191.93706381200994,-44.223054122081514,230.15708667258275,-52.106222753065374L268.37710953315553,-59.98939138404924" style="mix-blend-mode: multiply;"/><path d="M252.38252206309483,-109.21566992456465L210.51474919387496,-90.6284242778857C168.64697632465513,-72.04117863120675,84.91143058621546,-34.866687337848845,3.397000671352231,6.666989204803937C-78.117429243511,48.200665747456725,-157.4107433347978,94.09352753940438,-197.05740038044118,117.03995843537821L-236.70405742608455,139.98638933135206" style="mix-blend-mode: multiply;"/><path d="M252.38252206309483,-109.21566992456465L213.7970472387334,-88.95600989120452C175.21157241437206,-68.69634985784437,98.04062276564925,-28.1770297911241,60.290166782232035,35.65550524061118C22.5397107988148,99.48804027234645,24.209748480703123,186.63379026909672,25.044767321647285,230.20666526747186L25.879786162591447,273.779540265847" style="mix-blend-mode: multiply;"/><path d="M252.38252206309483,-109.21566992456465L215.90422947202978,-94.80893370485636C179.42593688096477,-80.40219748514806,106.46935169883471,-51.58872504573148,96.81465882603567,-65.79517419602081C87.15996595323662,-80.00162334631013,140.80716538976858,-137.22799408630536,167.63076510803458,-165.84117945630297L194.45436482630055,-194.45436482630058" style="mix-blend-mode: multiply;"/><path d="M252.38252206309483,-109.21566992456465L213.36557542736998,-88.94245034327038C174.3486287916451,-68.66923076197615,96.31473552019543,-28.12279159938764,52.81132205193209,35.8905374048025C9.30790858366875,99.90386640899264,0.33497491859177586,187.38408525478442,-4.151491913946711,231.1241946776803L-8.637958746485198,274.8643041005762" style="mix-blend-mode: multiply;"/><path d="M252.38252206309483,-109.21566992456465L215.4057115230677,-95.2213436185964C178.42890098304065,-81.22701731262816,104.47527990298647,-53.238364700691676,88.17368104402665,-72.94361270084833C71.87208218506684,-92.64886070100498,113.22250554720137,-160.04800931325474,133.89771722826865,-193.74758361937964L154.5729289093359,-227.4471579255045" style="mix-blend-mode: multiply;"/><path d="M252.38252206309483,-109.21566992456465L216.6283314374897,-91.01305827047054C180.87414081188464,-72.81044661637644,109.36575956067442,-36.40522330818822,109.36575956067442,-7.105427357601002e-15C109.36575956067445,36.405223308188205,180.87414081188464,72.81044661637641,216.62833143748978,91.01305827047052L252.38252206309485,109.21566992456462" style="mix-blend-mode: multiply;"/><path d="M258.742211462412,-93.15292806745515L222.2075010644546,-79.54171904935643C185.6727906664972,-65.93051003125771,112.60336987058237,-38.70809199506027,114.20918621570631,-33.18083588115929C115.81500256083022,-27.653579767258304,192.09605604699289,-43.821485575653774,230.2365827900742,-51.90543847985151L268.37710953315553,-59.98939138404924" style="mix-blend-mode: multiply;"/><path d="M268.37710953315553,-59.98939138404924L224.04350442896802,-48.991197012366406C179.70989932478048,-37.99300264068359,91.04268911640538,-15.996613897317937,6.862494623198718,17.33268288858228C-77.31769987000796,50.661979674482495,-157.01087864804626,95.32418450291728,-196.8574680370654,117.65528691713466L-236.70405742608455,139.98638933135206" style="mix-blend-mode: multiply;"/><path d="M268.37710953315553,-59.98939138404924L226.89433066246298,-47.305223077751116C185.41155179177045,-34.62105477145298,102.44599405038537,-9.252718158856732,56.27681600377858,46.55623108858084C10.107637957171788,102.36518033601841,0.7348396053432941,188.61474221829732,-3.9515595705709523,231.73952315943674L-8.637958746485198,274.8643041005762" style="mix-blend-mode: multiply;"/><path d="M268.37710953315553,-59.98939138404924L227.32580247382646,-47.31878262568522C186.27449541449735,-34.64817386732122,104.17188129583919,-9.306956350593191,63.755660734078525,46.32119892438951C23.339440172317833,101.94935419937222,24.60961316745464,187.8644472326096,25.244699665023045,230.82199374922834L25.879786162591447,273.779540265847" style="mix-blend-mode: multiply;"/><path d="M268.37710953315553,-59.98939138404924L230.15708667258275,-52.10622275306537C191.93706381200994,-44.223054122081514,115.49701809086436,-28.456716860113776,112.8312535125209,-36.661096616866345C110.16548893417746,-44.86547637361891,181.27400549863614,-77.04057314909178,216.8282637808655,-93.1281215368282L252.38252206309483,-109.21566992456465" style="mix-blend-mode: multiply;"/><path d="M268.37710953315553,-59.98939138404924L230.2365827900742,-51.905438479851504C192.09605604699289,-43.821485575653774,115.81500256083022,-27.653579767258304,114.20918621570631,-33.18083588115929C112.60336987058237,-38.70809199506027,185.6727906664972,-65.93051003125771,222.20750106445462,-79.54171904935643L258.742211462412,-93.15292806745515" style="mix-blend-mode: multiply;"/><path d="M268.37710953315553,-59.98939138404924L229.43298470712284,-53.17170643933707C190.4888598810901,-46.35402149462491,112.60061022902465,-32.71865160520057,100.28015277788215,-55.12948051224246C87.95969532673966,-77.54030941928436,141.2070300765201,-135.99733712279246,167.83069745141032,-165.22585097454652L194.45436482630055,-194.45436482630058" style="mix-blend-mode: multiply;"/><path d="M268.37710953315553,-59.98939138404924L228.93446675816077,-53.58411635307712C189.49182398316597,-47.17884132210501,110.60653843317641,-34.36829126016077,91.63917499587315,-62.27791901706998C72.67181155856987,-90.1875467739792,113.62237023395289,-158.81735234974187,134.09764957164438,-193.13225513762316L154.5729289093359,-227.4471579255045" style="mix-blend-mode: multiply;"/><path d="M268.37710953315553,-59.98939138404924L230.15708667258275,-49.37583100495126C191.93706381200994,-38.762270625853276,115.49701809086436,-17.53514986765731,112.83125351252092,10.665693683778333C110.16548893417747,38.866537235213976,181.27400549863617,74.0411035798893,216.82826378086554,91.62838675222696L252.38252206309485,109.21566992456462" style="mix-blend-mode: multiply;"/><path d="M252.38252206309485,109.21566992456462L216.62833143748972,91.01305827047052C180.87414081188464,72.81044661637641,109.36575956067445,36.405223308188205,109.36575956067445,-7.105427357601002e-15C109.36575956067442,-36.40522330818822,180.87414081188464,-72.81044661637644,216.62833143748972,-91.01305827047054L252.38252206309483,-109.21566992456465" style="mix-blend-mode: multiply;"/><path d="M252.38252206309485,109.21566992456462L213.36557542737,95.81405794578478C174.34862879164515,82.41244596700494,96.31473552019543,55.609222009445254,52.81132205193209,83.21732770544718C9.307908583668748,110.82543340144912,0.3349749185917735,192.84486875101265,-4.151491913946714,233.85458642579442L-8.637958746485202,274.8643041005762" style="mix-blend-mode: multiply;"/><path d="M252.38252206309485,109.21566992456462L216.8282637808655,91.62838675222696C181.27400549863617,74.0411035798893,110.16548893417747,38.866537235213976,112.83125351252092,10.665693683778334C115.49701809086436,-17.53514986765731,191.93706381200994,-38.762270625853276,230.15708667258275,-49.37583100495126L268.37710953315553,-59.98939138404924" style="mix-blend-mode: multiply;"/><path d="M252.38252206309485,109.21566992456462L215.40571152306777,89.53516467045877C178.42890098304068,69.85465941635292,104.47527990298649,30.49364890814121,88.17368104402668,-25.61682240020364C71.87208218506684,-81.7272937085485,113.22250554720137,-154.5872258170265,133.89771722826865,-191.0171918712655L154.5729289093359,-227.4471579255045" style="mix-blend-mode: multiply;"/><path d="M154.57292890933587,227.44715792550454L130.63496121814885,195.8181915465798C106.69699352696186,164.18922516765505,58.82105814458782,100.93129240980556,31.619243535284312,108.83415010565083C4.417428925980802,116.73700780149609,-2.110264910252198,195.80065595103613,-5.374111828368698,235.33248002580618L-8.637958746485198,274.8643041005762" style="mix-blend-mode: multiply;"/><path d="M76.72255416078801,264.08076356115936L64.78651924333546,226.80411631340448C52.85048432588291,189.52746906564963,28.978414490977812,114.9741745701399,14.751662339765609,116.77143132670938C0.5249101885534083,118.56868808327884,-4.056524278965895,196.71649609192752,-6.347241512725547,235.79040009625183L-8.637958746485198,274.8643041005762" style="mix-blend-mode: multiply;"/><path d="M25.879786162591447,273.779540265847L25.244699665023045,230.82199374922834C24.60961316745464,187.8644472326096,23.339440172317836,101.94935419937222,63.75566073407851,46.32119892438953C104.17188129583919,-9.306956350593188,186.27449541449735,-34.64817386732121,227.32580247382646,-47.31878262568522L268.37710953315553,-59.989391384049235" style="mix-blend-mode: multiply;"/><path d="M25.879786162591447,273.779540265847L25.044767321647285,230.2066652674719C24.209748480703123,186.63379026909672,22.5397107988148,99.48804027234645,60.29016678223203,35.655505240611184C98.04062276564925,-28.177029791124095,175.21157241437206,-68.69634985784437,213.79704723873343,-88.95600989120452L252.38252206309483,-109.21566992456465" style="mix-blend-mode: multiply;"/><path d="M25.879786162591447,273.779540265847L18.931185078032545,233.32169100817086C11.982583993473634,192.86384175049466,-1.9146181756441756,111.9481432351423,-45.678592107090175,89.64928474605979C-89.44256603853619,67.35042625697731,-163.07331173231037,103.66840779416468,-199.88868457919747,121.82739856275838L-236.70405742608455,139.98638933135206" style="mix-blend-mode: multiply;"/><path d="M-8.637958746485198,274.8643041005762L-6.347241512725546,235.79040009625183C-4.056524278965895,196.71649609192752,0.5249101885534083,118.56868808327884,14.751662339765609,116.77143132670938C28.978414490977812,114.9741745701399,52.85048432588291,189.52746906564963,64.78651924333546,226.80411631340448L76.72255416078801,264.08076356115936" style="mix-blend-mode: multiply;"/><path d="M-8.637958746485198,274.8643041005762L-10.728517693058485,232.16589322470497C-12.819076639631772,189.46748234883376,-17.000194532778345,104.0706605970913,-61.19045811933864,53.94664555323002C-105.38072170589895,3.8226305093687443,-189.58013098587298,-11.028577826611368,-231.67983562585997,-18.454181994601427L-273.779540265847,-25.879786162591483" style="mix-blend-mode: multiply;"/><path d="M-8.637958746485198,274.8643041005762L-9.736953000064153,234.92007011206613C-10.835947253643111,194.97583612355606,-13.033935760801022,115.0873681465359,-44.00333677410358,101.68571160082331C-74.97273778740613,88.28405505511073,-134.71355130685336,141.36920994070564,-164.58395806657694,167.91178738350314L-194.45436482630055,194.4543648263006" style="mix-blend-mode: multiply;"/><path d="M-8.637958746485198,274.8643041005762L-10.265074157561454,234.2392204183793C-11.89218956863771,193.61413673618233,-15.14642039079022,112.36396937178847,-53.157436837390115,89.88431691025113C-91.16845328399,67.40466444871377,-163.93625535503728,103.69552689003291,-200.3201563905609,121.84095811069248L-236.70405742608455,139.98638933135206" style="mix-blend-mode: multiply;"/><path d="M-8.637958746485198,274.8643041005762L-9.884780241590102,230.2161310146873C-11.131601736695004,185.56795792879845,-13.62524472690481,96.27161175702066,-46.56567562722,20.150767246257246C-79.5061065275352,-55.970077264506166,-142.89332533795576,-118.91542011425524,-174.58693474316604,-150.38809153912976L-206.28054414837635,-181.8607629640043" style="mix-blend-mode: multiply;"/><path d="M-8.637958746485198,274.8643041005762L-6.982776112703004,229.0671462984143C-5.32759347892081,183.26998849625235,-2.017228211356421,91.67567289192853,3.735729273489685,0.235032164191324C9.48868675833579,-91.20560856354587,17.684236460463612,-182.49257441469646,21.782011311527526,-228.1360573402717L25.879786162591436,-273.779540265847" style="mix-blend-mode: multiply;"/><path d="M-8.637958746485198,274.8643041005762L-3.951559570570952,231.73952315943674C0.7348396053432941,188.61474221829732,10.107637957171788,102.36518033601841,56.27681600377858,46.55623108858085C102.44599405038537,-9.252718158856728,185.41155179177045,-34.62105477145298,226.89433066246298,-47.3052230777511L268.37710953315553,-59.989391384049235" style="mix-blend-mode: multiply;"/><path d="M-8.637958746485198,274.8643041005762L-5.374111828368697,235.33248002580618C-2.110264910252198,195.80065595103613,4.417428925980802,116.73700780149609,31.619243535284312,108.83415010565083C58.82105814458782,100.93129240980556,106.69699352696186,164.18922516765505,130.63496121814887,195.81819154657978L154.57292890933587,227.44715792550454" style="mix-blend-mode: multiply;"/><path d="M-8.637958746485198,274.8643041005762L-5.374111828368697,229.64630107766857C-2.1102649102521975,184.42829805476092,4.417428925980803,93.99229200894565,31.619243535284323,10.273715004598865C58.82105814458783,-73.44486199974791,106.69699352696188,-150.44600996262622,130.6349612181489,-188.9465839440654L154.5729289093359,-227.4471579255045" style="mix-blend-mode: multiply;"/><path d="M-8.637958746485198,274.8643041005762L-4.875593879406639,230.0587109914086C-1.113229012328081,185.253117882241,6.411500721829036,95.64193166390585,40.26022131729333,17.422153509426384C74.10894191275762,-60.79762464505308,134.2816533695291,-127.62599473567683,164.3680090979148,-161.0401797809887L194.45436482630055,-194.45436482630058" style="mix-blend-mode: multiply;"/><path d="M-8.637958746485198,274.8643041005762L-9.238435051102096,229.64630107766857C-9.838911355718997,184.42829805476092,-11.039863964952794,93.99229200894565,-35.36235899209459,10.273715004598875C-59.684854019236404,-73.4448619997479,-107.1288914642862,-150.44600996262616,-130.85091018681112,-188.9465839440653L-154.572928909336,-227.44715792550446" style="mix-blend-mode: multiply;"/><path d="M-8.637958746485198,274.8643041005762L-4.151491913946711,231.1241946776803C0.33497491859177586,187.38408525478442,9.30790858366875,99.90386640899264,52.81132205193209,35.89053740480251C96.31473552019543,-28.122791599387636,174.3486287916451,-68.66923076197615,213.36557542737,-88.94245034327041L252.38252206309483,-109.21566992456465" style="mix-blend-mode: multiply;"/><path d="M-8.637958746485198,274.8643041005762L-4.15149191394671,233.85458642579442C0.334974918591777,192.84486875101265,9.307908583668754,110.82543340144912,52.8113220519321,83.21732770544718C96.31473552019544,55.609222009445254,174.34862879164515,82.41244596700494,213.36557542737003,95.81405794578478L252.38252206309488,109.21566992456462" style="mix-blend-mode: multiply;"/><path d="M-8.637958746485198,274.8643041005762L-10.7420772409926,232.38141606740632C-12.846195735500002,189.8985280342364,-17.054432724514804,104.9327519678966,-61.42549028352997,57.682374826719716C-105.79654784254514,10.431997685542825,-190.33042597156066,0.8970194695288214,-232.59736503606845,-3.8704696384781805L-274.8643041005762,-8.637958746485182" style="mix-blend-mode: multiply;"/><path d="M-8.637958746485198,274.8643041005762L-5.745681096880705,229.42655562483984C-2.853403447276211,183.9888071491035,2.9311518519327766,93.11331019763082,25.17870954774287,6.464793822234593C47.42626724355296,-80.18372255316163,86.13682733596416,-162.6052583524814,105.49210738216976,-203.81602625214126L124.84738742837536,-245.02679415180114" style="mix-blend-mode: multiply;"/><path d="M-8.637958746485198,274.8643041005762L-10.60728298424989,231.53035862472748C-12.57660722201458,188.19641314887883,-16.51525569754396,101.52852219718147,-59.08905649998965,42.9307124869541C-101.66285730243534,-15.667097223273268,-182.87181043179737,-46.194825692030655,-223.47628699647836,-61.45868992640934L-264.08076356115936,-76.72255416078804" style="mix-blend-mode: multiply;"/><path d="M-194.45436482630055,194.4543648263006L-164.58395806657694,167.91178738350314C-134.71355130685336,141.36920994070564,-74.97273778740613,88.28405505511073,-44.00333677410358,101.68571160082331C-13.033935760801022,115.0873681465359,-10.835947253643111,194.97583612355606,-9.736953000064153,234.92007011206613L-8.637958746485198,274.8643041005762" style="mix-blend-mode: multiply;"/><path d="M-236.70405742608455,139.98638933135206L-200.3201563905609,121.84095811069248C-163.93625535503728,103.69552689003291,-91.16845328399,67.40466444871377,-53.157436837390115,89.88431691025112C-15.14642039079022,112.36396937178847,-11.89218956863771,193.61413673618233,-10.265074157561454,234.2392204183793L-8.637958746485198,274.8643041005762" style="mix-blend-mode: multiply;"/><path d="M-236.70405742608455,139.98638933135206L-196.8574680370654,117.65528691713466C-157.01087864804626,95.32418450291728,-77.31769987000796,50.661979674482495,6.862494623198714,17.33268288858228C91.04268911640538,-15.996613897317937,179.70989932478048,-37.99300264068359,224.04350442896802,-48.99119701236642L268.37710953315553,-59.98939138404924" style="mix-blend-mode: multiply;"/><path d="M-236.70405742608455,139.98638933135206L-197.05740038044118,117.03995843537821C-157.4107433347978,94.09352753940438,-78.117429243511,48.200665747456725,3.397000671352226,6.66698920480394C84.91143058621546,-34.866687337848845,168.64697632465513,-72.04117863120675,210.514749193875,-90.6284242778857L252.38252206309483,-109.21566992456465" style="mix-blend-mode: multiply;"/><path d="M-236.70405742608455,139.98638933135206L-199.88868457919747,121.82739856275838C-163.07331173231037,103.66840779416468,-89.44256603853619,67.35042625697731,-45.67859210709017,89.64928474605979C-1.914618175644172,111.9481432351423,11.98258399347364,192.86384175049466,18.931185078032545,233.32169100817086L25.87978616259145,273.779540265847" style="mix-blend-mode: multiply;"/><path d="M-274.8643041005762,-8.63795874648518L-232.59736503606845,-3.8704696384781787C-190.33042597156066,0.8970194695288237,-105.79654784254514,10.431997685542827,-61.42549028352997,57.68237482671972C-17.054432724514804,104.9327519678966,-12.846195735500002,189.8985280342364,-10.7420772409926,232.38141606740632L-8.637958746485198,274.8643041005762" style="mix-blend-mode: multiply;"/><path d="M-273.779540265847,-25.879786162591486L-231.67983562586002,-18.454181994601427C-189.58013098587298,-11.028577826611373,-105.38072170589895,3.8226305093687407,-61.19045811933864,53.94664555323002C-17.000194532778345,104.0706605970913,-12.819076639631772,189.46748234883376,-10.728517693058485,232.16589322470497L-8.637958746485198,274.8643041005762" style="mix-blend-mode: multiply;"/><path d="M-273.779540265847,-25.879786162591486L-229.1411815812002,-24.320665356187387C-184.50282289655334,-22.76154454978329,-95.22610552725966,-19.6433029369751,-17.187121345235067,-47.739066047593276C60.85186283678953,-75.83482915821146,127.65311383154504,-135.14459699225603,161.05373932892277,-164.7994809092783L194.45436482630055,-194.45436482630058" style="mix-blend-mode: multiply;"/><path d="M-264.08076356115936,-76.72255416078804L-223.47628699647836,-61.45868992640934C-182.87181043179737,-46.194825692030655,-101.66285730243534,-15.667097223273268,-59.08905649998965,42.9307124869541C-16.51525569754396,101.52852219718147,-12.57660722201458,188.19641314887883,-10.60728298424989,231.53035862472748L-8.637958746485198,274.8643041005762" style="mix-blend-mode: multiply;"/><path d="M-206.28054414837635,-181.8607629640043L-174.58693474316604,-150.38809153912976C-142.89332533795576,-118.91542011425524,-79.5061065275352,-55.970077264506166,-46.56567562722,20.150767246257242C-13.62524472690481,96.27161175702065,-11.131601736695004,185.56795792879845,-9.884780241590102,230.2161310146873L-8.637958746485198,274.8643041005762" style="mix-blend-mode: multiply;"/><path d="M-154.572928909336,-227.44715792550446L-130.85091018681112,-188.9465839440653C-107.1288914642862,-150.44600996262616,-59.684854019236404,-73.4448619997479,-35.36235899209459,10.273715004598879C-11.039863964952794,93.99229200894565,-9.838911355718997,184.42829805476092,-9.238435051102096,229.64630107766857L-8.637958746485198,274.8643041005762" style="mix-blend-mode: multiply;"/></g></svg>