<svg viewBox="-375,-375,750,750" xmlns="http://www.w3.org/2000/svg" xmlns:xlink="http://www.w3.org/1999/xlink"><g font-family="sans-serif" font-size="10"><g transform="rotate(-88.2) translate(275,0)"><text dy="0.31em" x="6" text-anchor="start">100luz<title>flare.100luz
0 outgoing
0 incoming</title></text></g><g transform="rotate(-84.6) translate(275,0)"><text dy="0.31em" x="6" text-anchor="start">Alex<title>flare.Alex
0 outgoing
0 incoming</title></text></g><g transform="rotate(-81) translate(275,0)"><text dy="0.31em" x="6" text-anchor="start">Alina<title>flare.Alina
0 outgoing
0 incoming</title></text></g><g transform="rotate(-77.4) translate(275,0)"><text dy="0.31em" x="6" text-anchor="start">Allen<title>flare.Allen
0 outgoing
0 incoming</title></text></g><g transform="rotate(-73.8) translate(275,0)"><text dy="0.31em" x="6" text-anchor="start">Ariel Malka<title>flare.Ariel Malka
0 outgoing
0 incoming</title></text></g><g transform="rotate(-70.2) translate(275,0)"><text dy="0.31em" x="6" text-anchor="start">Bertrand Saint-Guillain<title>flare.Bertrand Saint-Guillain
0 outgoing
0 incoming</title></text></g><g transform="rotate(-66.6) translate(275,0)"><text dy="0.31em" x="6" text-anchor="start">Brian<title>flare.Brian
0 outgoing
0 incoming</title></text></g><g transform="rotate(-63) translate(275,0)"><text dy="0.31em" x="6" text-anchor="start">Dan<title>flare.Dan
5 outgoing
5 incoming</title></text></g><g transform="rotate(-59.39999999999999) translate(275,0)"><text dy="0.31em" x="6" text-anchor="start">Dara<title>flare.Dara
5 outgoing
5 incoming</title></text></g><g transform="rotate(-55.800000000000004) translate(275,0)"><text dy="0.31em" x="6" text-anchor="start">Dimitre<title>flare.Dimitre
0 outgoing
0 incoming</title></text></g><g transform="rotate(-52.2) translate(275,0)"><text dy="0.31em" x="6" text-anchor="start">Elrick<title>flare.Elrick
2 outgoing
2 incoming</title></text></g><g transform="rotate(-48.6) translate(275,0)"><text dy="0.31em" x="6" text-anchor="start">Frederik De Bleser<title>flare.Frederik De Bleser
0 outgoing
0 incoming</title></text></g><g transform="rotate(-45) translate(275,0)"><text dy="0.31em" x="6" text-anchor="start">Glen Murphy<title>flare.Glen Murphy
3 outgoing
3 incoming</title></text></g><g transform="rotate(-41.4) translate(275,0)"><text dy="0.31em" x="6" text-anchor="start">Jeff Berg<title>flare.Jeff Berg
0 outgoing
0 incoming</title></text></g><g transform="rotate(-37.800000000000004) translate(275,0)"><text dy="0.31em" x="6" text-anchor="start">JimQode<title>flare.JimQode
0 outgoing
0 incoming</title></text></g><g transform="rotate(-34.2) translate(275,0)"><text dy="0.31em" x="6" text-anchor="start">Jordan J<title>flare.Jordan J
0 outgoing
0 incoming</title></text></g><g transform="rotate(-30.599999999999987) translate(275,0)"><text dy="0.31em" x="6" text-anchor="start">Josh Nimoy<title>flare.Josh Nimoy
2 outgoing
2 incoming</title></text></g><g transform="rotate(-27) translate(275,0)"><text dy="0.31em" x="6" text-anchor="start">Koenie<title>flare.Koenie
2 outgoing
2 incoming</title></text></g><g transform="rotate(-23.39999999999999) translate(275,0)"><text dy="0.31em" x="6" text-anchor="start">Martin<title>flare.Martin
7 outgoing
7 incoming</title></text></g><g transform="rotate(-19.799999999999997) translate(275,0)"><text dy="0.31em" x="6" text-anchor="start">Mike Davis<title>flare.Mike Davis
0 outgoing
0 incoming</title></text></g><g transform="rotate(-16.200000000000003) translate(275,0)"><text dy="0.31em" x="6" text-anchor="start">Processing<title>flare.Processing
2 outgoing
2 incoming</title></text></g><g transform="rotate(-12.600000000000009) translate(275,0)"><text dy="0.31em" x="6" text-anchor="start">REAS<title>flare.REAS
16 outgoing
16 incoming</title></text></g><g transform="rotate(-9) translate(275,0)"><text dy="0.31em" x="6" text-anchor="start">Takachin<title>flare.Takachin
0 outgoing
0 incoming</title></text></g><g transform="rotate(-5.400000000000006) translate(275,0)"><text dy="0.31em" x="6" text-anchor="start">WillisMorse<title>flare.WillisMorse
0 outgoing
0 incoming</title></text></g><g transform="rotate(-1.7999999999999972) translate(275,0)"><text dy="0.31em" x="6" text-anchor="start">Wim_Van_der_Vurst<title>flare.Wim_Van_der_Vurst
0 outgoing
0 incoming</title></text></g><g transform="rotate(1.7999999999999972) translate(275,0)"><text dy="0.31em" x="6" text-anchor="start">XemonerdX<title>flare.XemonerdX
0 outgoing
0 incoming</title></text></g><g transform="rotate(5.400000000000006) translate(275,0)"><text dy="0.31em" x="6" text-anchor="start">Xu1<title>flare.Xu1
2 outgoing
2 incoming</title></text></g><g transform="rotate(9.000000000000014) translate(275,0)"><text dy="0.31em" x="6" text-anchor="start">[rocha]<title>flare.[rocha]
0 outgoing
0 incoming</title></text></g><g transform="rotate(12.599999999999994) translate(275,0)"><text dy="0.31em" x="6" text-anchor="start">_cory<title>flare._cory
0 outgoing
0 incoming</title></text></g><g transform="rotate(16.19999999999999) translate(275,0)"><text dy="0.31em" x="6" text-anchor="start">_martin<title>flare._martin
0 outgoing
0 incoming</title></text></g><g transform="rotate(19.799999999999997) translate(275,0)"><text dy="0.31em" x="6" text-anchor="start">_warren<title>flare._warren
0 outgoing
0 incoming</title></text></g><g transform="rotate(23.400000000000006) translate(275,0)"><text dy="0.31em" x="6" text-anchor="start">adrien<title>flare.adrien
0 outgoing
0 incoming</title></text></g><g transform="rotate(27) translate(275,0)"><text dy="0.31em" x="6" text-anchor="start">anurag<title>flare.anurag
0 outgoing
0 incoming</title></text></g><g transform="rotate(30.60000000000001) translate(275,0)"><text dy="0.31em" x="6" text-anchor="start">arielm<title>flare.arielm
15 outgoing
15 incoming</title></text></g><g transform="rotate(34.19999999999999) translate(275,0)"><text dy="0.31em" x="6" text-anchor="start">artelse<title>flare.artelse
1 outgoing
1 incoming</title></text></g><g transform="rotate(37.79999999999998) translate(275,0)"><text dy="0.31em" x="6" text-anchor="start">barikan<title>flare.barikan
5 outgoing
5 incoming</title></text></g><g transform="rotate(41.400000000000006) translate(275,0)"><text dy="0.31em" x="6" text-anchor="start">benelek<title>flare.benelek
20 outgoing
20 incoming</title></text></g><g transform="rotate(45) translate(275,0)"><text dy="0.31em" x="6" text-anchor="start">bzor<title>flare.bzor
0 outgoing
0 incoming</title></text></g><g transform="rotate(48.599999999999994) translate(275,0)"><text dy="0.31em" x="6" text-anchor="start">damille<title>flare.damille
0 outgoing
0 incoming</title></text></g><g transform="rotate(52.20000000000002) translate(275,0)"><text dy="0.31em" x="6" text-anchor="start">depth<title>flare.depth
4 outgoing
4 incoming</title></text></g><g transform="rotate(55.80000000000001) translate(275,0)"><text dy="0.31em" x="6" text-anchor="start">dnm<title>flare.dnm
0 outgoing
0 incoming</title></text></g><g transform="rotate(59.400000000000006) translate(275,0)"><text dy="0.31em" x="6" text-anchor="start">ed<title>flare.ed
3 outgoing
3 incoming</title></text></g><g transform="rotate(63) translate(275,0)"><text dy="0.31em" x="6" text-anchor="start">edwardgeorge<title>flare.edwardgeorge
3 outgoing
3 incoming</title></text></g><g transform="rotate(66.6) translate(275,0)"><text dy="0.31em" x="6" text-anchor="start">eviltyler<title>flare.eviltyler
0 outgoing
0 incoming</title></text></g><g transform="rotate(70.20000000000002) translate(275,0)"><text dy="0.31em" x="6" text-anchor="start">ezdac<title>flare.ezdac
0 outgoing
0 incoming</title></text></g><g transform="rotate(73.80000000000004) translate(275,0)"><text dy="0.31em" x="6" text-anchor="start">fdb<title>flare.fdb
0 outgoing
0 incoming</title></text></g><g transform="rotate(77.40000000000003) translate(275,0)"><text dy="0.31em" x="6" text-anchor="start">fli<title>flare.fli
0 outgoing
0 incoming</title></text></g><g transform="rotate(81) translate(275,0)"><text dy="0.31em" x="6" text-anchor="start">flight404<title>flare.flight404
14 outgoing
14 incoming</title></text></g><g transform="rotate(84.6) translate(275,0)"><text dy="0.31em" x="6" text-anchor="start">forkinsocket<title>flare.forkinsocket
0 outgoing
0 incoming</title></text></g><g transform="rotate(88.20000000000002) translate(275,0)"><text dy="0.31em" x="6" text-anchor="start">franklin_mint<title>flare.franklin_mint
0 outgoing
0 incoming</title></text></g><g transform="rotate(91.80000000000001) translate(275,0)"><text dy="0.31em" x="-6" text-anchor="end" transform="rotate(180)">fry<title>flare.fry
13 outgoing
13 incoming</title></text></g><g transform="rotate(95.4) translate(275,0)"><text dy="0.31em" x="-6" text-anchor="end" transform="rotate(180)">fulk<title>flare.fulk
0 outgoing
0 incoming</title></text></g><g transform="rotate(99) translate(275,0)"><text dy="0.31em" x="-6" text-anchor="end" transform="rotate(180)">gaza<title>flare.gaza
0 outgoing
0 incoming</title></text></g><g transform="rotate(102.60000000000002) translate(275,0)"><text dy="0.31em" x="-6" text-anchor="end" transform="rotate(180)">gkoshra<title>flare.gkoshra
8 outgoing
8 incoming</title></text></g><g transform="rotate(106.20000000000002) translate(275,0)"><text dy="0.31em" x="-6" text-anchor="end" transform="rotate(180)">grumo<title>flare.grumo
0 outgoing
0 incoming</title></text></g><g transform="rotate(109.80000000000001) translate(275,0)"><text dy="0.31em" x="-6" text-anchor="end" transform="rotate(180)">gsm<title>flare.gsm
0 outgoing
0 incoming</title></text></g><g transform="rotate(113.39999999999998) translate(275,0)"><text dy="0.31em" x="-6" text-anchor="end" transform="rotate(180)">heidi<title>flare.heidi
0 outgoing
0 incoming</title></text></g><g transform="rotate(116.99999999999997) translate(275,0)"><text dy="0.31em" x="-6" text-anchor="end" transform="rotate(180)">heliodrop<title>flare.heliodrop
0 outgoing
0 incoming</title></text></g><g transform="rotate(120.6) translate(275,0)"><text dy="0.31em" x="-6" text-anchor="end" transform="rotate(180)">hurlbot<title>flare.hurlbot
0 outgoing
0 incoming</title></text></g><g transform="rotate(124.19999999999999) translate(275,0)"><text dy="0.31em" x="-6" text-anchor="end" transform="rotate(180)">ik0<title>flare.ik0
0 outgoing
0 incoming</title></text></g><g transform="rotate(127.79999999999998) translate(275,0)"><text dy="0.31em" x="-6" text-anchor="end" transform="rotate(180)">jand<title>flare.jand
0 outgoing
0 incoming</title></text></g><g transform="rotate(131.4) translate(275,0)"><text dy="0.31em" x="-6" text-anchor="end" transform="rotate(180)">jbk303<title>flare.jbk303
0 outgoing
0 incoming</title></text></g><g transform="rotate(135) translate(275,0)"><text dy="0.31em" x="-6" text-anchor="end" transform="rotate(180)">jes<title>flare.jes
0 outgoing
0 incoming</title></text></g><g transform="rotate(138.6) translate(275,0)"><text dy="0.31em" x="-6" text-anchor="end" transform="rotate(180)">jlee<title>flare.jlee
0 outgoing
0 incoming</title></text></g><g transform="rotate(142.2) translate(275,0)"><text dy="0.31em" x="-6" text-anchor="end" transform="rotate(180)">joey<title>flare.joey
2 outgoing
2 incoming</title></text></g><g transform="rotate(145.8) translate(275,0)"><text dy="0.31em" x="-6" text-anchor="end" transform="rotate(180)">kevin<title>flare.kevin
0 outgoing
0 incoming</title></text></g><g transform="rotate(149.4) translate(275,0)"><text dy="0.31em" x="-6" text-anchor="end" transform="rotate(180)">mKoser<title>flare.mKoser
1 outgoing
1 incoming</title></text></g><g transform="rotate(153) translate(275,0)"><text dy="0.31em" x="-6" text-anchor="end" transform="rotate(180)">mawend<title>flare.mawend
0 outgoing
0 incoming</title></text></g><g transform="rotate(156.60000000000005) translate(275,0)"><text dy="0.31em" x="-6" text-anchor="end" transform="rotate(180)">mccutchen<title>flare.mccutchen
0 outgoing
0 incoming</title></text></g><g transform="rotate(160.2) translate(275,0)"><text dy="0.31em" x="-6" text-anchor="end" transform="rotate(180)">meltphace<title>flare.meltphace
0 outgoing
0 incoming</title></text></g><g transform="rotate(163.79999999999998) translate(275,0)"><text dy="0.31em" x="-6" text-anchor="end" transform="rotate(180)">michaONE<title>flare.michaONE
0 outgoing
0 incoming</title></text></g><g transform="rotate(167.39999999999998) translate(275,0)"><text dy="0.31em" x="-6" text-anchor="end" transform="rotate(180)">michael<title>flare.michael
0 outgoing
0 incoming</title></text></g><g transform="rotate(171) translate(275,0)"><text dy="0.31em" x="-6" text-anchor="end" transform="rotate(180)">mmuday<title>flare.mmuday
0 outgoing
0 incoming</title></text></g><g transform="rotate(174.59999999999997) translate(275,0)"><text dy="0.31em" x="-6" text-anchor="end" transform="rotate(180)">mohn<title>flare.mohn
0 outgoing
0 incoming</title></text></g><g transform="rotate(178.20000000000005) translate(275,0)"><text dy="0.31em" x="-6" text-anchor="end" transform="rotate(180)">mr.prufrock<title>flare.mr.prufrock
1 outgoing
1 incoming</title></text></g><g transform="rotate(181.8) translate(275,0)"><text dy="0.31em" x="-6" text-anchor="end" transform="rotate(180)">mrb<title>flare.mrb
0 outgoing
0 incoming</title></text></g><g transform="rotate(185.40000000000003) translate(275,0)"><text dy="0.31em" x="-6" text-anchor="end" transform="rotate(180)">nurm<title>flare.nurm
0 outgoing
0 incoming</title></text></g><g transform="rotate(189) translate(275,0)"><text dy="0.31em" x="-6" text-anchor="end" transform="rotate(180)">oytun<title>flare.oytun
0 outgoing
0 incoming</title></text></g><g transform="rotate(192.60000000000002) translate(275,0)"><text dy="0.31em" x="-6" text-anchor="end" transform="rotate(180)">pinksalmon<title>flare.pinksalmon
0 outgoing
0 incoming</title></text></g><g transform="rotate(196.2) translate(275,0)"><text dy="0.31em" x="-6" text-anchor="end" transform="rotate(180)">pitaru<title>flare.pitaru
5 outgoing
5 incoming</title></text></g><g transform="rotate(199.8) translate(275,0)"><text dy="0.31em" x="-6" text-anchor="end" transform="rotate(180)">pokemon#1<title>flare.pokemon#1
2 outgoing
2 incoming</title></text></g><g transform="rotate(203.39999999999998) translate(275,0)"><text dy="0.31em" x="-6" text-anchor="end" transform="rotate(180)">pollux<title>flare.pollux
0 outgoing
0 incoming</title></text></g><g transform="rotate(207) translate(275,0)"><text dy="0.31em" x="-6" text-anchor="end" transform="rotate(180)">polyscope<title>flare.polyscope
5 outgoing
5 incoming</title></text></g><g transform="rotate(210.59999999999997) translate(275,0)"><text dy="0.31em" x="-6" text-anchor="end" transform="rotate(180)">primeclub<title>flare.primeclub
0 outgoing
0 incoming</title></text></g><g transform="rotate(214.2) translate(275,0)"><text dy="0.31em" x="-6" text-anchor="end" transform="rotate(180)">rlivings<title>flare.rlivings
0 outgoing
0 incoming</title></text></g><g transform="rotate(217.79999999999995) translate(275,0)"><text dy="0.31em" x="-6" text-anchor="end" transform="rotate(180)">scrap-pile<title>flare.scrap-pile
0 outgoing
0 incoming</title></text></g><g transform="rotate(221.40000000000003) translate(275,0)"><text dy="0.31em" x="-6" text-anchor="end" transform="rotate(180)">sdewitt<title>flare.sdewitt
0 outgoing
0 incoming</title></text></g><g transform="rotate(225) translate(275,0)"><text dy="0.31em" x="-6" text-anchor="end" transform="rotate(180)">seb<title>flare.seb
0 outgoing
0 incoming</title></text></g><g transform="rotate(228.59999999999997) translate(275,0)"><text dy="0.31em" x="-6" text-anchor="end" transform="rotate(180)">skloopy<title>flare.skloopy
5 outgoing
5 incoming</title></text></g><g transform="rotate(232.20000000000005) translate(275,0)"><text dy="0.31em" x="-6" text-anchor="end" transform="rotate(180)">solipsys<title>flare.solipsys
0 outgoing
0 incoming</title></text></g><g transform="rotate(235.8) translate(275,0)"><text dy="0.31em" x="-6" text-anchor="end" transform="rotate(180)">spacegirl<title>flare.spacegirl
0 outgoing
0 incoming</title></text></g><g transform="rotate(239.39999999999998) translate(275,0)"><text dy="0.31em" x="-6" text-anchor="end" transform="rotate(180)">sparky_monkey<title>flare.sparky_monkey
0 outgoing
0 incoming</title></text></g><g transform="rotate(243) translate(275,0)"><text dy="0.31em" x="-6" text-anchor="end" transform="rotate(180)">sportebois<title>flare.sportebois
0 outgoing
0 incoming</title></text></g><g transform="rotate(246.60000000000002) translate(275,0)"><text dy="0.31em" x="-6" text-anchor="end" transform="rotate(180)">svela<title>flare.svela
0 outgoing
0 incoming</title></text></g><g transform="rotate(250.19999999999993) translate(275,0)"><text dy="0.31em" x="-6" text-anchor="end" transform="rotate(180)">tomek<title>flare.tomek
0 outgoing
0 incoming</title></text></g><g transform="rotate(253.8) translate(275,0)"><text dy="0.31em" x="-6" text-anchor="end" transform="rotate(180)">toxi<title>flare.toxi
2 outgoing
2 incoming</title></text></g><g transform="rotate(257.4) translate(275,0)"><text dy="0.31em" x="-6" text-anchor="end" transform="rotate(180)">v3ga<title>flare.v3ga
5 outgoing
5 incoming</title></text></g><g transform="rotate(261) translate(275,0)"><text dy="0.31em" x="-6" text-anchor="end" transform="rotate(180)">vanwoods<title>flare.vanwoods
6 outgoing
6 incoming</title></text></g><g transform="rotate(264.6) translate(275,0)"><text dy="0.31em" x="-6" text-anchor="end" transform="rotate(180)">vent<title>flare.vent
7 outgoing
7 incoming</title></text></g><g transform="rotate(268.2) translate(275,0)"><text dy="0.31em" x="-6" text-anchor="end" transform="rotate(180)">xoff<title>flare.xoff
1 outgoing
1 incoming</title></text></g></g><g stroke="grey" fill="none"><path d="M124.84738742837536,-245.02679415180117L106.13782534007662,-203.85665138260273C87.42826325177788,-162.68650861340424,50.0091390751804,-80.3462230750073,36.37115415146176,5.760624894236703C22.733169227743122,91.86747286348071,32.87632355690332,181.74088326357176,37.94790072148343,226.67758846361733L43.01947788606353,271.61429366366286" style="mix-blend-mode: multiply;"/><path d="M124.84738742837536,-245.02679415180117L104.8502144742002,-203.89711618423405C84.85304152002506,-162.76743821666693,44.85869561167476,-80.50808228153267,14.052565809604005,5.059234999293447C-16.753563992466752,90.62655228011955,-38.37147768825797,179.50183090663757,-49.18043453615358,223.93947021989655L-59.989391384049185,268.37710953315553" style="mix-blend-mode: multiply;"/><path d="M124.84738742837536,-245.02679415180117L105.27658453946843,-210.67407430672156C85.7057816505615,-176.32135446164196,46.56417587274765,-107.61591477148279,21.442980274253145,-112.40803912382377C-3.6782153242413465,-117.20016347616475,-14.779000743416475,-195.48985187100587,-20.329393453004037,-234.63469606842645L-25.879786162591603,-273.779540265847" style="mix-blend-mode: multiply;"/><path d="M124.84738742837536,-245.02679415180117L102.53724693960329,-208.8124223962532C80.22710645083126,-172.5980506407052,35.60682547328716,-100.16930712960921,-26.03887145674226,-80.13940600903824C-87.68456838677167,-60.109504888467264,-166.3556812692864,-92.4784461584213,-205.6912377105438,-108.66291679339831L-245.02679415180117,-124.84738742837533" style="mix-blend-mode: multiply;"/><path d="M124.84738742837536,-245.02679415180117L108.95479573566526,-208.00169744569914C93.06220404295517,-170.97660073959705,61.277020657535,-96.92640732739291,85.1986410083317,-66.08684019943426C109.12026135912839,-35.247273071475604,188.74868544614196,-47.618332227762416,228.56289748964875,-53.80386180590583L268.37710953315553,-59.98939138404924" style="mix-blend-mode: multiply;"/><path d="M139.98638933135211,-236.7040574260845L121.12131216447676,-198.1053139092977C102.25623499760142,-159.5065703925109,64.52608066385072,-82.3090833589373,77.41045384251119,-14.766833828828473C90.29482702117166,52.77541570128036,153.79372771224328,110.66242772792442,185.54317805777907,139.60593374124645L217.2926284033149,168.54943975456848" style="mix-blend-mode: multiply;"/><path d="M139.98638933135211,-236.7040574260845L120.98366111129003,-197.93892236917975C101.98093289122795,-159.17378731227498,63.975476451103795,-81.64351719846552,75.02450225394118,-11.882713800117395C86.07352805677857,57.87808959823072,146.1770361025775,119.86942628111747,176.22879012547696,150.86509462256083L206.2805441483764,181.8607629640042" style="mix-blend-mode: multiply;"/><path d="M139.98638933135211,-236.7040574260845L121.75986817859979,-200.96204929853045C103.53334702584743,-165.22004117097634,67.08030472034275,-93.73602491586819,88.47875808730998,-64.28358057552897C109.87721145427723,-34.831136235189774,189.1271604937164,-47.4102638096195,228.75213501343595,-53.69982759683438L268.37710953315553,-59.98939138404924" style="mix-blend-mode: multiply;"/><path d="M139.98638933135211,-236.7040574260845L121.3639550272614,-198.4623520395879C102.74152072317065,-160.2206466530913,65.4966521149892,-83.73723588009811,81.61626346411127,-20.955494753858684C97.73587481323334,41.82624637238075,167.2199661196589,90.90631785186643,201.9620117728717,115.44635359160928L236.7040574260845,139.98638933135211" style="mix-blend-mode: multiply;"/><path d="M139.98638933135211,-236.7040574260845L117.65528691713472,-203.56689577539427C95.32418450291732,-170.429734124704,50.6619796744825,-104.15541082332349,17.332682888582255,-109.43425284116866C-15.996613897318001,-114.71309485901384,-37.993002640683706,-191.54510219608463,-48.99119701236656,-229.9611058646201L-59.98939138404941,-268.3771095331555" style="mix-blend-mode: multiply;"/><path d="M168.5494397545685,-217.2926284033149L143.10247793264833,-180.3981695203414C117.65551611072813,-143.5037106373679,66.76159246688778,-69.7147928714209,45.83993215547027,11.769694139742063C24.91827184405278,93.25418115090503,33.968874865058154,182.43423740728394,38.49417637556084,227.0242655354734L43.01947788606353,271.61429366366286" style="mix-blend-mode: multiply;"/><path d="M168.5494397545685,-217.2926284033149L145.14324126092723,-181.52008865408712C121.73704276728597,-145.74754890485937,74.92464578000342,-74.20246940640384,81.2131631789714,-7.676904178517314C87.5016805779394,58.848661049369206,146.8911123631579,120.35471200668671,176.58582825576715,151.10773748534544L206.2805441483764,181.8607629640042" style="mix-blend-mode: multiply;"/><path d="M194.45436482630055,-194.45436482630058L165.01372705582168,-161.08080491145012C135.5730892853428,-127.70724499659967,76.69181374438506,-60.96012516689874,51.452665921012226,16.717984581428496C26.213518097639383,94.39609432975574,34.61649799185145,183.0051939967093,38.817987938957494,227.3097438301861L43.01947788606353,271.61429366366286" style="mix-blend-mode: multiply;"/><path d="M194.45436482630055,-194.45436482630058L167.43478430007193,-162.726153715604C140.41520377384333,-130.99794260490742,86.3760427213861,-67.54152038351428,93.41765815468342,-11.801394690572167C100.45927358798076,43.93873100236994,168.58166550703262,91.96256016686102,202.64286146655854,115.97447474910659L236.7040574260845,139.98638933135211" style="mix-blend-mode: multiply;"/><path d="M194.45436482630055,-194.45436482630058L167.63076510803458,-165.84117945630297C140.80716538976858,-137.22799408630536,87.15996595323662,-80.00162334631013,96.81465882603567,-65.79517419602081C106.46935169883471,-51.58872504573148,179.42593688096477,-80.40219748514806,215.90422947202978,-94.80893370485636L252.38252206309483,-109.21566992456465" style="mix-blend-mode: multiply;"/><path d="M236.7040574260845,-139.9863893313521L203.36696343201848,-119.77035018349237C170.02986943795247,-99.55431103563264,103.35568144982047,-59.122232739913194,105.96875888932219,-53.99377950544863C108.58183632882391,-48.86532627098406,180.48217919595936,-79.04049809777435,216.43235062952712,-94.1280840111695L252.38252206309483,-109.21566992456465" style="mix-blend-mode: multiply;"/><path d="M236.7040574260845,-139.9863893313521L203.5131914507443,-119.36418623644515C170.32232547540409,-98.74198314153823,103.94059352472368,-57.49757695172437,108.50337788056949,-46.953604423297044C113.06616223641531,-36.40963189486971,188.57346289878728,-56.56609302782892,226.3271132299733,-66.64432359430852L264.0807635611593,-76.72255416078812" style="mix-blend-mode: multiply;"/><path d="M245.02679415180114,-124.84738742837537L207.14385556906743,-102.16427806524364C169.26091698633365,-79.4811687021119,93.49503982086618,-34.11494997584841,51.21758100448512,32.50366527897685C8.940122188104068,99.12228053380211,0.15108172080943424,186.99329231718914,-4.243438512837883,230.92879820888265L-8.637958746485198,274.8643041005762" style="mix-blend-mode: multiply;"/><path d="M245.02679415180114,-124.84738742837537L209.8303368552532,-103.32682232945079C174.6338795587052,-81.80625723052619,104.24096496560925,-38.765127032677015,97.78325663170513,12.352898032719585C91.325548297801,63.47092309811618,148.80304622308873,122.66584303106019,177.54179518573255,152.26330299753218L206.2805441483764,181.8607629640042" style="mix-blend-mode: multiply;"/><path d="M252.38252206309483,-109.21566992456465L214.01129338527684,-88.9830754737318C175.64006470745883,-68.75048102289898,98.89760735182286,-28.2852921212333,64.00376665565098,35.18636847680462C29.109925959479096,98.65802907484253,36.06470192277131,185.1361613692527,39.542089904417416,228.37522751645778L43.01947788606353,271.61429366366286" style="mix-blend-mode: multiply;"/><path d="M252.38252206309483,-109.21566992456465L216.43235062952706,-90.6284242778857C180.48217919595936,-72.04117863120675,108.58183632882391,-34.866687337848845,105.9687588893222,6.66698920480395C103.35568144982047,48.200665747456746,170.02986943795247,94.09352753940443,203.36696343201848,117.03995843537827L236.7040574260845,139.98638933135211" style="mix-blend-mode: multiply;"/><path d="M252.38252206309483,-109.21566992456465L215.90422947202978,-94.80893370485636C179.42593688096477,-80.40219748514806,106.46935169883471,-51.58872504573148,96.81465882603567,-65.79517419602081C87.15996595323662,-80.00162334631013,140.80716538976858,-137.22799408630536,167.63076510803458,-165.84117945630297L194.45436482630055,-194.45436482630058" style="mix-blend-mode: multiply;"/><path d="M252.38252206309483,-109.21566992456465L216.77455945621554,-93.33728607153745C181.16659684933623,-77.45890221851026,109.95067163557765,-45.70213451245585,111.90037855192173,-40.286615218493104C113.85008546826582,-34.871095924530344,188.96542451471257,-55.796825042659236,226.52309403793595,-66.25968960172368L264.0807635611593,-76.72255416078812" style="mix-blend-mode: multiply;"/><path d="M252.38252206309483,-109.21566992456465L216.43235062952706,-94.1280840111695C180.48217919595936,-79.04049809777435,108.58183632882391,-48.86532627098406,105.9687588893222,-53.99377950544863C103.35568144982047,-59.122232739913194,170.02986943795247,-99.55431103563264,203.36696343201848,-119.77035018349238L236.7040574260845,-139.9863893313521" style="mix-blend-mode: multiply;"/><path d="M252.38252206309483,-109.21566992456465L213.36557542736998,-88.94245034327038C174.3486287916451,-68.66923076197615,96.31473552019543,-28.12279159938764,52.81132205193209,35.8905374048025C9.30790858366875,99.90386640899264,0.33497491859177586,187.38408525478442,-4.151491913946711,231.1241946776803L-8.637958746485198,274.8643041005762" style="mix-blend-mode: multiply;"/><path d="M252.38252206309483,-109.21566992456465L216.82826378086546,-93.1281215368282C181.27400549863614,-77.04057314909178,110.16548893417746,-44.86547637361891,112.8312535125209,-36.661096616866345C115.49701809086436,-28.456716860113776,191.93706381200994,-44.223054122081514,230.15708667258275,-52.106222753065374L268.37710953315553,-59.98939138404924" style="mix-blend-mode: multiply;"/><path d="M264.0807635611593,-76.72255416078812L226.52309403793592,-66.25968960172368C188.96542451471257,-55.796825042659236,113.85008546826582,-34.871095924530344,111.90037855192173,-40.286615218493104C109.95067163557765,-45.70213451245585,181.16659684933623,-77.45890221851026,216.77455945621554,-93.33728607153745L252.38252206309483,-109.21566992456465" style="mix-blend-mode: multiply;"/><path d="M264.0807635611593,-76.72255416078812L226.3271132299733,-66.64432359430852C188.57346289878728,-56.56609302782892,113.06616223641531,-36.40963189486971,108.50337788056949,-46.953604423297044C103.94059352472368,-57.49757695172437,170.32232547540409,-98.74198314153823,203.5131914507443,-119.36418623644515L236.7040574260845,-139.9863893313521" style="mix-blend-mode: multiply;"/><path d="M268.37710953315553,-59.98939138404924L229.10917314372617,-48.02486902396688C189.8412367542968,-36.06034666388452,111.30536397543806,-12.131301943719798,94.6674190123402,34.082368020840896C78.02947404924237,80.29603798540158,123.28945690190544,148.79433319435825,145.919448328237,183.04348079883655L168.5494397545685,217.2926284033149" style="mix-blend-mode: multiply;"/><path d="M268.37710953315553,-59.98939138404924L226.89433066246298,-47.305223077751116C185.41155179177045,-34.62105477145298,102.44599405038537,-9.252718158856732,56.27681600377858,46.55623108858084C10.107637957171788,102.36518033601841,0.7348396053432941,188.61474221829732,-3.9515595705709523,231.73952315943674L-8.637958746485198,274.8643041005762" style="mix-blend-mode: multiply;"/><path d="M268.37710953315553,-59.98939138404924L226.25243775449346,-47.38631300984387C184.12776597583135,-34.7832346356385,99.87842241850717,-9.577077887227762,45.150672265639706,45.150672265639706C-9.577077887227746,99.87842241850717,-34.78323463563847,184.12776597583135,-47.38631300984383,226.25243775449346L-59.98939138404919,268.37710953315553" style="mix-blend-mode: multiply;"/><path d="M268.37710953315553,-59.98939138404924L227.54004862036984,-47.34584820821252C186.70298770758416,-34.70230503237582,105.0288658820128,-9.415218680702397,67.46926060749746,45.85206216058295C29.90965533298213,101.1193430018683,36.46456660952283,186.36681833276558,39.74202224779318,228.9905559982142L43.01947788606353,271.61429366366286" style="mix-blend-mode: multiply;"/><path d="M268.37710953315553,-59.98939138404924L226.6788078197617,-54.1632711323314C184.98050610636778,-48.337150880613564,101.58390267958005,-36.68491037717789,52.54108673028886,-72.31660185747752C3.4982707809976668,-107.94829333777714,-11.190757690796966,-190.86391680181205,-18.535271926694282,-232.32172853382954L-25.8797861625916,-273.779540265847" style="mix-blend-mode: multiply;"/><path d="M268.37710953315553,-59.98939138404924L223.93947021989655,-52.30161922186301C179.50183090663757,-44.61384705967677,90.62655228011955,-29.238302735304313,5.059234999293442,-40.04796874269199C-80.50808228153268,-50.857634750079676,-162.76743821666693,-87.8525110892275,-203.89711618423405,-106.34994925880142L-245.02679415180117,-124.84738742837533" style="mix-blend-mode: multiply;"/><path d="M268.37710953315553,-59.98939138404924L228.56289748964878,-53.803861805905825C188.74868544614196,-47.618332227762416,109.12026135912839,-35.247273071475604,85.1986410083317,-66.08684019943426C61.277020657535,-96.92640732739291,93.06220404295517,-170.97660073959705,108.95479573566526,-208.00169744569914L124.84738742837536,-245.02679415180117" style="mix-blend-mode: multiply;"/><path d="M268.37710953315553,-59.98939138404924L224.72904560974402,-53.31953368086301C181.08098168633248,-46.6496759776768,93.78485383950941,-33.30996057130436,18.745208423316086,-57.69181936535887C-56.29443699287723,-82.07367815941336,-119.0775999784408,-144.1771111538948,-150.46918147122258,-175.22882765113556L-181.86076296400438,-206.28054414837626" style="mix-blend-mode: multiply;"/><path d="M268.37710953315553,-59.98939138404924L229.96110586462012,-48.991197012366406C191.54510219608468,-37.99300264068359,114.71309485901385,-15.996613897317935,109.43425284116866,17.33268288858229C104.1554108233235,50.66197967448252,170.429734124704,95.32418450291732,203.56689577539422,117.65528691713472L236.7040574260845,139.98638933135211" style="mix-blend-mode: multiply;"/><path d="M268.37710953315553,-59.98939138404924L229.84539462086286,-48.808865267641615C191.31367970857022,-37.628339151233995,114.25024988398485,-15.26728691841875,107.42859128270969,20.493099797145437C100.60693268143454,56.25348651270962,164.02704530346955,105.41320771102274,195.73710161448707,129.9930683101793L227.44715792550457,154.57292890933587" style="mix-blend-mode: multiply;"/><path d="M268.37710953315553,-59.98939138404924L229.58081194864874,-48.46776734195826C190.78451436414198,-36.94614329986729,113.19191919512843,-13.902895215685332,102.8424916309986,26.40546384232358C92.49306406686874,66.71382290033249,149.38680410762257,124.28729293216834,177.8336741279995,153.07402794808627L206.2805441483764,181.8607629640042" style="mix-blend-mode: multiply;"/><path d="M268.37710953315553,-59.98939138404924L228.75213501343595,-47.78222616118226C189.1271604937164,-35.57506093831528,109.87721145427723,-11.160730492581317,88.47875808731,38.288177642440964C67.08030472034277,87.73708577746326,103.53334702584745,162.22057160177386,121.7598681785998,199.46231451392916L139.98638933135214,236.70405742608446" style="mix-blend-mode: multiply;"/><path d="M268.37710953315553,-59.98939138404924L229.71846300183552,-48.63415888207621C191.05981647051544,-37.27892638010318,113.74252340787537,-14.568461376157117,105.22844321956859,23.521343813612503C96.71436303126183,61.61114900338212,157.00349571728836,115.0802943789753,187.1480620603016,141.81486706677188L217.2926284033149,168.54943975456848" style="mix-blend-mode: multiply;"/><path d="M268.37710953315553,-59.98939138404924L228.75213501343595,-53.699827596834375C189.1271604937164,-47.4102638096195,109.87721145427723,-34.831136235189774,88.47875808730998,-64.28358057552897C67.08030472034275,-93.73602491586819,103.53334702584743,-165.22004117097634,121.75986817859979,-200.9620492985304L139.98638933135211,-236.7040574260845" style="mix-blend-mode: multiply;"/><path d="M268.37710953315553,-59.98939138404924L230.15708667258275,-52.10622275306537C191.93706381200994,-44.223054122081514,115.49701809086436,-28.456716860113776,112.8312535125209,-36.661096616866345C110.16548893417746,-44.86547637361891,181.27400549863614,-77.04057314909178,216.8282637808655,-93.1281215368282L252.38252206309483,-109.21566992456465" style="mix-blend-mode: multiply;"/><path d="M268.37710953315553,-59.98939138404924L226.25243775449346,-54.09574074817275C184.12776597583135,-48.202090112296275,99.87842241850716,-36.414788840543316,45.15067226563966,-71.14607519872769C-9.577077887227828,-105.87736155691205,-34.78323463563862,-187.12723554503376,-47.386313009844024,-227.75217253909463L-59.98939138404941,-268.3771095331555" style="mix-blend-mode: multiply;"/><path d="M273.779540265847,25.879786162591454L234.53066185935498,23.639815662500506C195.28178345286298,21.39984516240956,116.7840266398789,16.919904162227663,110.6047794999185,35.93767135702111C104.42553235995808,54.95543855181455,170.5647948930213,97.47091394158333,203.63442615955287,118.72865163646772L236.7040574260845,139.98638933135211" style="mix-blend-mode: multiply;"/><path d="M273.779540265847,25.879786162591454L234.15036794338366,24.16324533290866C194.52119562092025,22.446704503225863,115.2628509759935,19.013622843860272,104.0130182897484,45.010452310762396C92.7631856035033,71.00728177766452,149.52186487593985,126.43402237083437,177.90120451215816,154.14739266741927L206.2805441483764,181.8607629640042" style="mix-blend-mode: multiply;"/><path d="M236.7040574260845,139.98638933135211L200.10420742189874,121.84095811069254C163.50435741771298,103.69552689003295,90.30465740934146,67.40466444871379,49.41432138057985,89.88431691025114C8.523985351818235,112.36396937178849,-0.05698669733348183,193.61413673618233,-4.34747272190934,234.2392204183793L-8.637958746485198,274.8643041005762" style="mix-blend-mode: multiply;"/><path d="M236.7040574260845,139.98638933135211L197.93892236917975,115.82664750758063C159.17378731227498,91.66690568380915,81.6435171984655,43.34742203626616,11.882713800117358,-14.363733543688568C-57.87808959823079,-72.0748891236433,-119.86942628111758,-139.17771663600976,-150.86509462256097,-172.729130392193L-181.86076296400438,-206.28054414837626" style="mix-blend-mode: multiply;"/><path d="M236.7040574260845,139.98638933135211L202.7906887080845,120.67841384648538C168.87731999008452,101.37043836161865,101.05058255408454,62.75448739188519,95.97999700779985,69.73354966399387C90.90941146151518,76.71261193610256,148.59497780494578,129.2866874500534,177.4377609766611,155.5737252070288L206.2805441483764,181.8607629640042" style="mix-blend-mode: multiply;"/><path d="M236.7040574260845,139.98638933135211L200.7499253798056,121.80033298023112C164.7957933335267,103.61427662911012,92.88752924096889,67.24216392686812,60.60676598429874,89.18014798225325C28.326002727628577,111.11813203763836,35.67274030684605,191.3662128506506,39.34610909645479,231.49025325715675L43.01947788606353,271.61429366366286" style="mix-blend-mode: multiply;"/><path d="M236.7040574260845,139.98638933135211L203.36696343201848,117.03995843537827C170.02986943795247,94.09352753940443,103.35568144982047,48.200665747456746,105.96875888932219,6.66698920480395C108.58183632882391,-34.866687337848845,180.48217919595936,-72.04117863120675,216.43235062952712,-90.6284242778857L252.38252206309483,-109.21566992456465" style="mix-blend-mode: multiply;"/><path d="M236.7040574260845,139.98638933135211L202.64286146655857,115.97447474910659C168.58166550703262,91.96256016686102,100.45927358798076,43.93873100236994,93.41765815468342,-11.801394690572167C86.3760427213861,-67.54152038351428,140.41520377384333,-130.99794260490742,167.43478430007193,-162.726153715604L194.45436482630055,-194.45436482630058" style="mix-blend-mode: multiply;"/><path d="M236.7040574260845,139.98638933135211L199.88868457919742,114.98291005611225C163.07331173231032,89.97943078087236,89.44256603853614,39.972472230392626,45.67859210709013,-28.988516035807226C1.914618175644114,-97.94950430200709,-11.982583993473744,-185.86452228392704,-18.931185078032673,-229.82203127488705L-25.8797861625916,-273.779540265847" style="mix-blend-mode: multiply;"/><path d="M236.7040574260845,139.98638933135211L197.49602405118836,120.51202230636744C158.28799067629225,101.03765528138275,79.87192392649997,62.088921231413416,4.205809621600086,66.84942963528282C-71.46030468329981,71.60993803915221,-144.37646654330732,120.07968889686038,-180.8345474733111,144.31456432571446L-217.29262840331486,168.54943975456854" style="mix-blend-mode: multiply;"/><path d="M236.7040574260845,139.98638933135211L203.56689577539427,117.65528691713472C170.429734124704,95.32418450291732,104.1554108233235,50.66197967448252,109.43425284116866,17.332682888582287C114.71309485901385,-15.996613897317935,191.54510219608468,-37.99300264068359,229.96110586462012,-48.99119701236642L268.37710953315553,-59.98939138404924" style="mix-blend-mode: multiply;"/><path d="M236.7040574260845,139.98638933135211L199.67443843265403,115.00997563863955C162.6448194392235,90.03356194592698,88.58558145236255,40.08073456050183,41.964992233671204,-28.519379272000663C-4.655596985020137,-97.11949310450315,-23.837537435541847,-184.36689338408303,-33.4285076608027,-227.99059352387295L-43.019477886063555,-271.61429366366286" style="mix-blend-mode: multiply;"/><path d="M236.7040574260845,139.98638933135211L203.63442615955287,118.72865163646772C170.5647948930213,97.47091394158333,104.42553235995808,54.95543855181455,110.6047794999185,35.93767135702111C116.7840266398789,16.919904162227663,195.28178345286298,21.39984516240956,234.53066185935495,23.639815662500506L273.779540265847,25.879786162591454" style="mix-blend-mode: multiply;"/><path d="M236.7040574260845,139.98638933135211L199.4623145139292,121.75986817859979C162.22057160177388,103.53334702584743,87.73708577746326,67.08030472034275,38.28817764244098,88.47875808730998C-11.1607304925813,109.87721145427723,-35.57506093831525,189.1271604937164,-47.78222616118222,228.75213501343595L-59.98939138404919,268.37710953315553" style="mix-blend-mode: multiply;"/><path d="M236.7040574260845,139.98638933135211L201.7727742490845,121.46798923633285C166.8414910720845,102.94958914131358,96.9789247180845,65.91278895127503,78.33614638513298,83.41952308801655C59.693368052181455,100.92625722475805,92.27037774027842,172.9765256882796,108.5588825843269,209.0016599200404L124.84738742837538,245.02679415180114" style="mix-blend-mode: multiply;"/><path d="M236.7040574260845,139.98638933135211L199.4623145139292,115.05044044027089C162.22057160177386,90.11449154918967,87.73708577746326,40.2425937670272,38.288177642440935,-27.817989377057398C-11.16073049258138,-95.878572521142,-35.575060938315396,-182.12784102714875,-47.7822261611824,-225.2524752801521L-59.98939138404941,-268.3771095331555" style="mix-blend-mode: multiply;"/><path d="M236.7040574260845,139.98638933135211L201.9620117728717,115.44635359160928C167.2199661196589,90.90631785186643,97.73587481323334,41.82624637238075,81.61626346411127,-20.95549475385868C65.4966521149892,-83.73723588009811,102.74152072317065,-160.2206466530913,121.3639550272614,-198.4623520395879L139.98638933135211,-236.7040574260845" style="mix-blend-mode: multiply;"/><path d="M227.44715792550457,154.57292890933587L195.73710161448705,129.9930683101793C164.02704530346955,105.41320771102274,100.60693268143454,56.25348651270962,107.4285912827097,20.493099797145433C114.25024988398485,-15.26728691841875,191.31367970857022,-37.628339151233995,229.84539462086286,-48.808865267641615L268.37710953315553,-59.98939138404924" style="mix-blend-mode: multiply;"/><path d="M217.2926284033149,168.54943975456848L183.6853737068061,146.0005382603297C150.07811901029734,123.45163676609094,82.86360961727978,78.35383377761339,45.20851175897977,96.07297783528135C7.553413900679753,113.7921218929493,-0.5422724229027226,194.32821299676274,-4.590115584693961,234.59625854866945L-8.637958746485198,274.8643041005762" style="mix-blend-mode: multiply;"/><path d="M217.2926284033149,168.54943975456848L186.37185499299187,144.83799399612258C155.45108158266888,121.12654823767663,93.60953476202286,73.70365672078479,91.77418738619978,75.92221058902409C89.9388400103767,78.14076445726337,148.10969207937657,130.00076371063378,177.19511811387648,155.930763337319L206.2805441483764,181.8607629640042" style="mix-blend-mode: multiply;"/><path d="M217.2926284033149,168.54943975456848L185.54317805777907,139.60593374124645C153.79372771224328,110.66242772792442,90.29482702117166,52.77541570128036,77.41045384251119,-14.766833828828467C64.52608066385072,-82.3090833589373,102.25623499760142,-159.5065703925109,121.12131216447678,-198.1053139092977L139.98638933135211,-236.7040574260845" style="mix-blend-mode: multiply;"/><path d="M217.2926284033149,168.54943975456848L187.14806206030164,141.8148670667719C157.00349571728836,115.0802943789753,96.71436303126183,61.61114900338212,105.22844321956859,23.521343813612503C113.74252340787537,-14.568461376157117,191.05981647051544,-37.27892638010318,229.71846300183552,-48.634158882076214L268.37710953315553,-59.98939138404924" style="mix-blend-mode: multiply;"/><path d="M217.2926284033149,168.54943975456848L183.25560471756137,139.16955578827674C149.21858103180787,109.78967182198495,81.14453366030087,51.029903889401446,37.75918261207113,-22.330718346970446C-5.6261684361586175,-95.69134058334235,-24.322823161111085,-183.6528171235026,-33.67115052358732,-227.63355539358272L-43.019477886063555,-271.61429366366286" style="mix-blend-mode: multiply;"/><path d="M206.2805441483764,181.8607629640042L174.370985774504,157.2596991416441C142.46142740063155,132.658635319284,78.64231065288669,83.45650767456375,42.82256017040976,98.95709786399243C7.002809687932829,114.45768805342108,-0.8175745292761848,194.66099607699866,-4.727766637880691,234.7626500887874L-8.637958746485198,274.8643041005762" style="mix-blend-mode: multiply;"/><path d="M206.2805441483764,181.8607629640042L172.205700721785,151.24538853853218C138.13085729519358,120.63001411306017,69.98117044201074,59.39926526211613,5.290952589947271,-5.290952589947277C-59.39926526211619,-69.9811704420107,-120.63001411306028,-138.13085729519347,-151.24538853853232,-172.20570072178486L-181.86076296400438,-206.28054414837626" style="mix-blend-mode: multiply;"/><path d="M206.2805441483764,181.8607629640042L177.43776097666114,155.5737252070288C148.59497780494578,129.2866874500534,90.90941146151518,76.71261193610256,95.97999700779985,69.73354966399387C101.05058255408454,62.75448739188519,168.87731999008452,101.37043836161865,202.7906887080845,120.67841384648538L236.7040574260845,139.98638933135211" style="mix-blend-mode: multiply;"/><path d="M206.2805441483764,181.8607629640042L175.01670373241086,157.21907401118267C143.75286331644529,132.57738505836116,81.22518248451414,83.2940071527181,54.01500477412865,98.25292893599453C26.804827063743176,113.21185071927097,34.91215247490335,192.4130721914669,38.96581518048344,232.0136829275649L43.01947788606353,271.61429366366286" style="mix-blend-mode: multiply;"/><path d="M206.2805441483764,181.8607629640042L171.17795071432056,152.86486341337704C136.07535728026468,123.86896386274988,65.87017041215299,65.87716476149555,-12.523380872769641,22.779945240696836C-90.91693215769226,-20.31727428010187,-177.4988478594258,-48.51991422044495,-220.7898057102926,-62.62123419061649L-264.08076356115936,-76.72255416078804" style="mix-blend-mode: multiply;"/><path d="M206.2805441483764,181.8607629640042L176.58582825576718,151.10773748534544C146.8911123631579,120.35471200668671,87.5016805779394,58.848661049369206,81.2131631789714,-7.676904178517309C74.92464578000342,-74.20246940640382,121.73704276728597,-145.74754890485934,145.14324126092723,-181.5200886540871L168.5494397545685,-217.29262840331486" style="mix-blend-mode: multiply;"/><path d="M206.2805441483764,181.8607629640042L171.76280240379364,155.930763337319C137.2450606592108,130.00076371063378,68.20957717004521,78.14076445726337,-2.3859515885700042,75.92221058902409C-72.98148034718523,73.70365672078482,-145.13705437525007,121.12654823767667,-181.21484138928247,144.8379939961226L-217.2926284033149,168.54943975456854" style="mix-blend-mode: multiply;"/><path d="M206.2805441483764,181.8607629640042L173.5199283318252,150.52288579587238C140.759312515274,119.1850086277406,75.23808088217156,56.509254291476985,28.070897830644117,-17.814333462716935C-19.096285220883306,-92.13792121691085,-47.90941969083573,-178.10934238903508,-62.31598692581195,-221.09505297509722L-76.72255416078816,-264.0807635611593" style="mix-blend-mode: multiply;"/><path d="M206.2805441483764,181.8607629640042L177.8336741279995,153.07402794808627C149.38680410762257,124.28729293216834,92.49306406686874,66.71382290033249,102.8424916309986,26.405463842323574C113.19191919512843,-13.902895215685332,190.78451436414198,-36.94614329986729,229.58081194864874,-48.46776734195826L268.37710953315553,-59.98939138404924" style="mix-blend-mode: multiply;"/><path d="M206.2805441483764,181.8607629640042L177.90120451215816,154.14739266741927C149.52186487593985,126.43402237083437,92.7631856035033,71.00728177766452,104.0130182897484,45.010452310762396C115.2628509759935,19.01362284386027,194.52119562092025,22.44670450322586,234.15036794338366,24.16324533290866L273.779540265847,25.879786162591454" style="mix-blend-mode: multiply;"/><path d="M206.2805441483764,181.8607629640042L173.72909286653444,157.17860920955133C141.17764158469245,132.49645545509847,76.0747390210085,83.13214794619273,31.696416432270897,97.55153904105127C-12.681906156466704,111.97093013590984,-36.33564877025795,190.1740198345327,-48.16252007715357,229.27556468384412L-59.98939138404919,268.37710953315553" style="mix-blend-mode: multiply;"/><path d="M206.2805441483764,181.8607629640042L176.22879012547696,156.78269605821293C146.1770361025775,131.7046291524217,86.07352805677857,81.54849534083918,75.0245022539412,90.68904441785254C63.975476451103816,99.82959349486593,101.98093289122797,168.2668254604752,120.98366111129006,202.48544144327983L139.98638933135214,236.70405742608446" style="mix-blend-mode: multiply;"/><path d="M206.2805441483764,181.8607629640042L173.72909286653444,150.46918147122244C141.17764158469245,119.07759997844069,76.07473902100848,56.29443699287717,31.69641643227085,-18.74520842331611C-12.68190615646679,-93.78485383950938,-36.3356487702581,-181.08098168633242,-48.162520077153765,-224.72904560974393L-59.98939138404942,-268.3771095331555" style="mix-blend-mode: multiply;"/><path d="M206.2805441483764,181.8607629640042L176.03955260168973,156.8867302672844C145.79856105500306,131.9126975705646,85.31657796162973,81.96463217712501,71.74438517496289,92.49230404175783C58.172192388296054,103.01997590639064,91.50978990833572,174.02338502909592,108.17858866835554,209.52508959044852L124.84738742837538,245.02679415180114" style="mix-blend-mode: multiply;"/><path d="M206.2805441483764,181.8607629640042L171.24468261555492,152.6594837395437C136.20882108273338,123.4582045150832,66.13709801709037,65.05564606616218,-11.366694584707702,19.22003089425227C-88.87048718650577,-26.615584277657643,-173.80634932445886,-59.884256172556455,-216.27428039343536,-76.51859212000586L-258.74221146241194,-93.15292806745526" style="mix-blend-mode: multiply;"/><path d="M206.2805441483764,181.8607629640042L177.19511811387648,155.930763337319C148.10969207937657,130.00076371063378,89.9388400103767,78.14076445726337,91.77418738619978,75.92221058902409C93.60953476202286,73.70365672078479,155.45108158266888,121.12654823767663,186.3718549929919,144.83799399612258L217.2926284033149,168.54943975456848" style="mix-blend-mode: multiply;"/><path d="M206.2805441483764,181.8607629640042L176.22879012547696,150.86509462256083C146.1770361025775,119.86942628111747,86.07352805677857,57.87808959823072,75.0245022539412,-11.882713800117395C63.975476451103795,-81.64351719846552,101.98093289122795,-159.17378731227498,120.98366111129003,-197.93892236917975L139.98638933135211,-236.7040574260845" style="mix-blend-mode: multiply;"/><path d="M206.2805441483764,181.8607629640042L173.94121678525926,150.4287166695911C141.60188942214208,118.996670375178,76.92323469590778,56.132577786351796,35.37323102350112,-19.446598318259376C-6.1767726489055415,-95.02577442287055,-24.598125267484548,-183.3200340432667,-33.80880157677405,-227.46716385346477L-43.019477886063555,-271.61429366366286" style="mix-blend-mode: multiply;"/><path d="M206.2805441483764,181.8607629640042L171.04315645757788,153.93186982471795C135.80576876677927,126.0029766854317,65.33099338518214,70.14519040685921,-14.859814656309956,41.27472303727272C-95.05062269780205,12.404255667686236,-184.95746339918912,10.521107207085759,-229.91088374988263,9.57953297678552L-274.8643041005762,8.637958746485282" style="mix-blend-mode: multiply;"/><path d="M206.2805441483764,181.8607629640042L177.54179518573258,152.26330299753218C148.80304622308873,122.66584303106019,91.325548297801,63.470923098116174,97.78325663170513,12.352898032719581C104.24096496560925,-38.765127032677015,174.6338795587052,-81.80625723052619,209.8303368552532,-103.32682232945079L245.02679415180114,-124.84738742837537" style="mix-blend-mode: multiply;"/><path d="M168.5494397545685,217.2926284033149L145.919448328237,183.04348079883655C123.28945690190544,148.79433319435825,78.02947404924237,80.29603798540158,94.6674190123402,34.08236802084089C111.30536397543806,-12.131301943719798,189.8412367542968,-36.06034666388452,229.10917314372617,-48.02486902396688L268.37710953315553,-59.98939138404924" style="mix-blend-mode: multiply;"/><path d="M168.5494397545685,217.2926284033149L142.45675997474146,187.22915199239438C116.36408019491442,157.1656755814739,64.17872063526033,97.03872275963285,34.64748755175139,106.63400204250974C5.116254468242434,116.22928132538662,-1.760852139121382,195.54679271298141,-5.19940544280329,235.2055484067788L-8.637958746485198,274.8643041005762" style="mix-blend-mode: multiply;"/><path d="M168.5494397545685,217.2926284033149L139.26372491455803,182.83431626412732C109.97801007454757,148.37600412493978,51.40658039452663,79.45937984656463,-20.698453491428015,30.456849419214148C-92.80348737738267,-18.545681008136338,-178.44212546927102,-47.63411758446219,-221.26144451521517,-62.178335872625105L-264.08076356115936,-76.72255416078804" style="mix-blend-mode: multiply;"/><path d="M168.5494397545685,217.2926284033149L142.02699098549672,180.3981695203414C115.50454221642497,143.5037106373679,62.45964467828142,69.7147928714209,27.19815840484274,-11.769694139742063C-8.063327868595936,-93.25418115090503,-25.541402877329745,-182.43423740728394,-34.28044038169665,-227.0242655354734L-43.019477886063555,-271.61429366366286" style="mix-blend-mode: multiply;"/><path d="M139.98638933135214,236.70405742608446L121.7598681785998,199.46231451392916C103.53334702584745,162.22057160177386,67.08030472034277,87.73708577746326,88.47875808730998,38.288177642440964C109.87721145427723,-11.160730492581317,189.1271604937164,-35.57506093831528,228.75213501343595,-47.78222616118226L268.37710953315553,-59.98939138404924" style="mix-blend-mode: multiply;"/><path d="M139.98638933135214,236.70405742608446L118.2971798251043,203.64798570748698C96.60797031885643,170.5919139888895,53.229551306360726,104.47977055169451,28.458826626721173,110.8398116641098C3.688101947081616,117.1998527765251,-2.4749283997017915,196.03207843855066,-5.556443573093495,235.4481912695634L-8.637958746485198,274.8643041005762" style="mix-blend-mode: multiply;"/><path d="M139.98638933135214,236.70405742608446L120.98366111129006,202.48544144327983C101.98093289122797,168.2668254604752,63.975476451103816,99.82959349486593,75.0245022539412,90.68904441785254C86.07352805677857,81.54849534083918,146.1770361025775,131.7046291524217,176.22879012547696,156.78269605821296L206.2805441483764,181.8607629640042" style="mix-blend-mode: multiply;"/><path d="M124.84738742837538,245.02679415180114L108.55888258432691,209.0016599200404C92.27037774027842,172.9765256882796,59.693368052181455,100.92625722475805,78.33614638513298,83.41952308801655C96.9789247180845,65.91278895127503,166.8414910720845,102.94958914131358,201.77277424908448,121.46798923633285L236.7040574260845,139.98638933135211" style="mix-blend-mode: multiply;"/><path d="M124.84738742837538,245.02679415180114L108.17858866835557,209.52508959044852C91.50978990833572,174.02338502909592,58.172192388296054,103.01997590639064,71.74438517496289,92.49230404175783C85.31657796162973,81.96463217712501,145.79856105500306,131.9126975705646,176.03955260168973,156.8867302672844L206.2805441483764,181.8607629640042" style="mix-blend-mode: multiply;"/><path d="M124.84738742837538,245.02679415180114L102.3658042232207,206.08741845255528C79.88422101806601,167.1480427533094,34.92105460775664,89.26929135481767,-29.010545207374587,32.90600431827494C-92.94214502250581,-23.45728271826779,-175.84217824245889,-58.30510539286153,-217.2921948524354,-75.72901673015839L-258.74221146241194,-93.15292806745526" style="mix-blend-mode: multiply;"/><path d="M43.01947788606352,271.61429366366286L39.34610909645479,231.49025325715675C35.672740306846045,191.3662128506506,28.326002727628577,111.11813203763836,60.60676598429874,89.18014798225325C92.88752924096889,67.24216392686812,164.7957933335267,103.61427662911012,200.7499253798056,121.80033298023112L236.7040574260845,139.98638933135211" style="mix-blend-mode: multiply;"/><path d="M43.01947788606352,271.61429366366286L39.542089904417416,228.37522751645778C36.064701922771306,185.1361613692527,29.109925959479096,98.65802907484253,64.00376665565098,35.18636847680461C98.89760735182286,-28.28529212123331,175.64006470745883,-68.750481022899,214.01129338527684,-88.98307547373183L252.38252206309483,-109.21566992456466" style="mix-blend-mode: multiply;"/><path d="M43.01947788606352,271.61429366366286L38.81798793895749,227.3097438301861C34.616497991851446,183.0051939967093,26.213518097639376,94.39609432975573,51.45266592101222,16.717984581428496C76.69181374438506,-60.96012516689874,135.5730892853428,-127.70724499659967,165.01372705582168,-161.08080491145012L194.45436482630055,-194.45436482630058" style="mix-blend-mode: multiply;"/><path d="M43.01947788606352,271.61429366366286L35.63744098632811,233.0951372596793C28.255404086592705,194.5759808556957,13.49133028712189,117.53766804772856,-3.6768145912302295,116.99813735931066C-20.844959469582346,116.45860667089278,-40.41717542681577,192.41785810202416,-50.20328340543248,230.39748381758986L-59.98939138404919,268.37710953315553" style="mix-blend-mode: multiply;"/><path d="M43.01947788606352,271.61429366366286L36.06381105159633,226.31817913719178C29.108144217129148,181.02206461072066,15.196810548194769,90.42983555777842,3.7135998734189166,-0.4691367638065647C-7.7696108013569365,-91.36810908539154,-16.82469848197427,-182.57382467561925,-21.352242322282933,-228.1766824707331L-25.8797861625916,-273.779540265847" style="mix-blend-mode: multiply;"/><path d="M43.01947788606352,271.61429366366286L33.324473451731215,228.17983104766017C23.629469017398904,184.74536843165743,4.239460148734289,97.876443199652,-43.768251857576495,31.799496350978966C-91.77596386388727,-34.27745049769407,-168.4013790078442,-79.56241896303469,-206.7140865798227,-102.20490319570501L-245.02679415180117,-124.84738742837533" style="mix-blend-mode: multiply;"/><path d="M43.01947788606352,271.61429366366286L37.94790072148342,226.67758846361733C32.87632355690332,181.74088326357176,22.73316922774312,91.86747286348071,36.37115415146176,5.760624894236699C50.0091390751804,-80.3462230750073,87.42826325177788,-162.68650861340424,106.13782534007662,-203.85665138260273L124.84738742837536,-245.02679415180117" style="mix-blend-mode: multiply;"/><path d="M43.01947788606352,271.61429366366286L39.74202224779317,228.9905559982142C36.46456660952283,186.36681833276558,29.909655332982126,101.1193430018683,67.46926060749746,45.85206216058295C105.0288658820128,-9.415218680702399,186.70298770758416,-34.70230503237582,227.54004862036984,-47.34584820821252L268.37710953315553,-59.98939138404924" style="mix-blend-mode: multiply;"/><path d="M43.01947788606352,271.61429366366286L38.96581518048343,232.0136829275649C34.912152474903344,192.4130721914669,26.804827063743172,113.21185071927097,54.01500477412865,98.25292893599453C81.22518248451414,83.2940071527181,143.75286331644529,132.57738505836116,175.01670373241086,157.21907401118267L206.2805441483764,181.8607629640042" style="mix-blend-mode: multiply;"/><path d="M43.01947788606352,271.61429366366286L33.08629883411424,228.781391463505C23.15311978216495,185.9484892633471,3.2867616782663824,100.28268486303136,-47.89661189627076,42.226543558956216C-99.07998547080791,-15.829597745118937,-181.58037451598364,-46.276075952953484,-222.8305690385715,-61.49931505687076L-264.08076356115936,-76.72255416078804" style="mix-blend-mode: multiply;"/><path d="M43.01947788606352,271.61429366366286L38.49417637556083,227.0242655354734C33.96887486505815,182.43423740728394,24.91827184405278,93.25418115090503,45.83993215547027,11.769694139742072C66.76159246688778,-69.71479287142088,117.65551611072813,-143.50371063736787,143.10247793264833,-180.39816952034138L168.5494397545685,-217.29262840331486" style="mix-blend-mode: multiply;"/><path d="M43.01947788606352,271.61429366366286L34.11404884157867,227.16191658866015C25.20861979709382,182.7095395136574,7.397761708124128,93.80478536365194,-30.082278433553853,14.1556457283121C-67.56231857523184,-65.49349390702776,-124.71154076961811,-135.887019027702,-153.28615186681125,-171.08378158803916L-181.86076296400438,-206.28054414837626" style="mix-blend-mode: multiply;"/><path d="M43.01947788606352,271.61429366366286L35.42827645161888,226.43941384600035C27.83707501717423,181.26453402833783,12.65467214828494,90.9147743930128,-7.302333192857006,1.6322648555424355C-27.259338533998953,-87.65024468192792,-51.99094634739356,-175.8655041215436,-64.35675025409085,-219.97313384135145L-76.72255416078816,-264.0807635611593" style="mix-blend-mode: multiply;"/><path d="M43.01947788606352,271.61429366366286L35.63744098632811,226.38570952135038C28.2554040865927,181.15712537903792,13.491330287121878,90.699957094413,-3.676814591230277,0.7013898949432663C-20.84495946958243,-89.29717730452644,-40.41717542681592,-178.83714341884095,-50.20328340543267,-223.60712647599826L-59.98939138404941,-268.3771095331555" style="mix-blend-mode: multiply;"/><path d="M-8.637958746485198,274.8643041005762L-4.590115584693961,234.59625854866945C-0.5422724229027226,194.32821299676274,7.553413900679753,113.7921218929493,45.20851175897977,96.07297783528134C82.86360961727978,78.35383377761339,150.07811901029734,123.45163676609094,183.6853737068061,146.0005382603297L217.2926284033149,168.54943975456848" style="mix-blend-mode: multiply;"/><path d="M-8.637958746485198,274.8643041005762L-9.579532976785451,229.9108837498827C-10.521107207085706,184.95746339918912,-12.404255667686213,95.05062269780205,-41.27472303727274,14.859814656309979C-70.14519040685927,-65.3309933851821,-126.00297668543182,-135.80576876677918,-153.93186982471812,-171.04315645757774L-181.86076296400438,-206.28054414837626" style="mix-blend-mode: multiply;"/><path d="M-8.637958746485198,274.8643041005762L-4.34747272190934,234.2392204183793C-0.05698669733348183,193.61413673618233,8.523985351818235,112.36396937178849,49.41432138057985,89.88431691025113C90.30465740934146,67.40466444871379,163.50435741771298,103.69552689003295,200.10420742189874,121.84095811069254L236.7040574260845,139.98638933135211" style="mix-blend-mode: multiply;"/><path d="M-8.637958746485198,274.8643041005762L-4.727766637880691,234.7626500887874C-0.8175745292761848,194.66099607699866,7.002809687932829,114.45768805342108,42.82256017040976,98.95709786399243C78.64231065288669,83.45650767456375,142.46142740063155,132.658635319284,174.37098577450396,157.2596991416441L206.2805441483764,181.8607629640042" style="mix-blend-mode: multiply;"/><path d="M-8.637958746485198,274.8643041005762L-3.951559570570952,231.73952315943674C0.7348396053432941,188.61474221829732,10.107637957171788,102.36518033601841,56.27681600377858,46.55623108858085C102.44599405038537,-9.252718158856728,185.41155179177045,-34.62105477145298,226.89433066246298,-47.3052230777511L268.37710953315553,-59.989391384049235" style="mix-blend-mode: multiply;"/><path d="M-8.637958746485198,274.8643041005762L-8.056140832036013,235.8441044209018C-7.474322917586825,196.82390474122744,-6.310687088688454,118.78350538187867,-14.869259194949118,117.70230628730855C-23.427831301209782,116.62110719273842,-41.70861134262949,192.499108362947,-50.84900136333934,230.43810894805128L-59.98939138404919,268.37710953315553" style="mix-blend-mode: multiply;"/><path d="M-8.637958746485198,274.8643041005762L-4.243438512837882,230.92879820888265C0.15108172080943424,186.99329231718914,8.940122188104068,99.1222805338021,51.21758100448512,32.50366527897685C93.49503982086618,-34.11494997584841,169.26091698633365,-79.4811687021119,207.14385556906737,-102.16427806524364L245.02679415180114,-124.84738742837537" style="mix-blend-mode: multiply;"/><path d="M-8.637958746485198,274.8643041005762L-4.151491913946711,231.1241946776803C0.33497491859177586,187.38408525478442,9.30790858366875,99.90386640899264,52.81132205193209,35.89053740480251C96.31473552019543,-28.122791599387636,174.3486287916451,-68.66923076197615,213.36557542737,-88.94245034327041L252.38252206309483,-109.21566992456465" style="mix-blend-mode: multiply;"/><path d="M-8.637958746485198,274.8643041005762L-5.19940544280329,235.2055484067788C-1.760852139121382,195.54679271298141,5.116254468242434,116.22928132538662,34.64748755175139,106.63400204250974C64.17872063526033,97.03872275963285,116.36408019491442,157.1656755814739,142.45675997474146,187.22915199239438L168.5494397545685,217.2926284033149" style="mix-blend-mode: multiply;"/><path d="M-8.637958746485198,274.8643041005762L-10.60728298424989,231.53035862472748C-12.57660722201458,188.19641314887883,-16.51525569754396,101.52852219718147,-59.08905649998965,42.9307124869541C-101.66285730243534,-15.667097223273268,-182.87181043179737,-46.194825692030655,-223.47628699647836,-61.45868992640934L-264.08076356115936,-76.72255416078804" style="mix-blend-mode: multiply;"/><path d="M-8.637958746485198,274.8643041005762L-7.844016913311191,229.09421188094157C-7.0500750801371845,183.32411966130698,-5.462191413789171,91.78393522203773,-11.192444603718897,0.7041689279978888C-16.922697793648624,-90.37559736604196,-29.971087839856086,-180.9949455148524,-36.49528286295982,-226.30461958925764L-43.019477886063555,-271.61429366366286" style="mix-blend-mode: multiply;"/><path d="M-8.637958746485198,274.8643041005762L-5.556443573093495,235.4481912695634C-2.4749283997017915,196.03207843855066,3.688101947081616,117.1998527765251,28.458826626721173,110.8398116641098C53.229551306360726,104.47977055169451,96.60797031885643,170.5919139888895,118.2971798251043,203.64798570748698L139.98638933135214,236.70405742608446" style="mix-blend-mode: multiply;"/><path d="M-8.637958746485198,274.8643041005762L-7.414247924066463,229.05358675048015C-6.1905371016477275,183.24286940038414,-3.743115456810258,91.62143470019207,-3.743115456810275,0C-3.743115456810292,-91.62143470019207,-6.190537101647796,-183.24286940038414,-7.414247924066548,-229.05358675048015L-8.6379587464853,-274.8643041005762" style="mix-blend-mode: multiply;"/><path d="M-59.98939138404919,268.37710953315553L-47.38631300984383,226.25243775449346C-34.78323463563847,184.12776597583135,-9.577077887227743,99.87842241850716,45.15067226563971,45.150672265639706C99.87842241850717,-9.577077887227766,184.12776597583135,-34.7832346356385,226.25243775449346,-47.38631300984387L268.37710953315553,-59.98939138404924" style="mix-blend-mode: multiply;"/><path d="M-59.98939138404919,268.37710953315553L-50.84900136333934,230.43810894805128C-41.70861134262949,192.499108362947,-23.427831301209782,116.62110719273842,-14.869259194949118,117.70230628730855C-6.310687088688453,118.78350538187867,-7.474322917586825,196.82390474122744,-8.056140832036013,235.8441044209018L-8.637958746485198,274.8643041005762" style="mix-blend-mode: multiply;"/><path d="M-59.98939138404919,268.37710953315553L-50.20328340543248,230.39748381758986C-40.41717542681577,192.41785810202416,-20.844959469582346,116.45860667089278,-3.6768145912302295,116.99813735931066C13.49133028712189,117.53766804772856,28.255404086592705,194.5759808556957,35.63744098632811,233.0951372596793L43.01947788606352,271.61429366366286" style="mix-blend-mode: multiply;"/><path d="M-59.98939138404919,268.37710953315553L-51.064524206040666,223.58006089347097C-42.13965702803215,178.7830122537864,-24.289922672015106,89.18891497441727,-18.60498846843884,-1.170526658749812C-12.920054264862573,-91.52996829191692,-19.399920213727086,-182.65475427888194,-22.63985318815934,-228.21714727236449L-25.8797861625916,-273.779540265847" style="mix-blend-mode: multiply;"/><path d="M-59.98939138404919,268.37710953315553L-53.80386180590579,225.44171280393937C-47.61833222776239,182.50631607472317,-35.24727307147558,96.63552261629086,-66.08684019943425,31.09810645603571C-96.92640732739291,-34.43930970421943,-170.97660073959705,-79.64334856629738,-208.00169744569914,-102.24536799733634L-245.02679415180117,-124.84738742837533" style="mix-blend-mode: multiply;"/><path d="M-59.98939138404919,268.37710953315553L-49.18043453615358,223.93947021989655C-38.371477688257976,179.50183090663757,-16.753563992466756,90.62655228011955,14.052565809604003,5.059234999293442C44.85869561167476,-80.50808228153268,84.85304152002506,-162.76743821666693,104.8502144742002,-203.89711618423405L124.84738742837536,-245.02679415180117" style="mix-blend-mode: multiply;"/><path d="M-59.98939138404919,268.37710953315553L-47.782226161182216,228.75213501343595C-35.57506093831524,189.1271604937164,-11.160730492581296,109.87721145427723,38.288177642440985,88.47875808730998C87.73708577746326,67.08030472034275,162.22057160177388,103.53334702584743,199.4623145139292,121.75986817859979L236.7040574260845,139.98638933135211" style="mix-blend-mode: multiply;"/><path d="M-59.98939138404919,268.37710953315553L-48.162520077153566,229.27556468384412C-36.33564877025795,190.1740198345327,-12.6819061564667,111.97093013590984,31.696416432270897,97.55153904105127C76.0747390210085,83.13214794619273,141.17764158469245,132.49645545509847,173.72909286653444,157.17860920955135L206.2805441483764,181.8607629640042" style="mix-blend-mode: multiply;"/><path d="M-217.2926284033149,168.54943975456854L-181.21484138928247,144.8379939961226C-145.13705437525007,121.12654823767667,-72.98148034718521,73.70365672078482,-2.3859515885700042,75.92221058902409C68.20957717004522,78.14076445726337,137.2450606592108,130.00076371063378,171.76280240379364,155.930763337319L206.2805441483764,181.8607629640042" style="mix-blend-mode: multiply;"/><path d="M-217.2926284033149,168.54943975456854L-180.83454747331112,144.31456432571446C-144.37646654330737,120.07968889686038,-71.46030468329981,71.60993803915221,4.2058096216000775,66.84942963528282C79.87192392649997,62.088921231413416,158.28799067629222,101.03765528138275,197.49602405118836,120.51202230636744L236.7040574260845,139.98638933135211" style="mix-blend-mode: multiply;"/><path d="M-236.70405742608455,139.98638933135206L-200.53567923326224,114.98291005611219C-164.36730104043994,89.97943078087233,-92.03054465479532,39.972472230392604,-56.89316611087983,-28.988516035807237C-21.75578756696434,-97.94950430200709,-23.817786864777972,-185.86452228392704,-24.848786513684786,-229.82203127488705L-25.8797861625916,-273.779540265847" style="mix-blend-mode: multiply;"/><path d="M-274.8643041005762,8.637958746485282L-229.91088374988263,9.57953297678552C-184.95746339918912,10.521107207085759,-95.05062269780205,12.404255667686236,-14.859814656309956,41.27472303727273C65.33099338518214,70.14519040685921,135.80576876677927,126.0029766854317,171.04315645757785,153.93186982471798L206.2805441483764,181.8607629640042" style="mix-blend-mode: multiply;"/><path d="M-264.08076356115936,-76.72255416078804L-222.8305690385715,-61.49931505687076C-181.58037451598364,-46.276075952953484,-99.07998547080791,-15.829597745118937,-47.89661189627077,42.226543558956216C3.286761678266378,100.28268486303136,23.15311978216495,185.9484892633471,33.08629883411424,228.781391463505L43.01947788606352,271.61429366366286" style="mix-blend-mode: multiply;"/><path d="M-264.08076356115936,-76.72255416078804L-220.7898057102926,-62.62123419061649C-177.4988478594258,-48.51991422044495,-90.91693215769226,-20.31727428010187,-12.523380872769641,22.779945240696836C65.87017041215299,65.87716476149555,136.07535728026468,123.86896386274988,171.17795071432056,152.86486341337704L206.2805441483764,181.8607629640042" style="mix-blend-mode: multiply;"/><path d="M-264.08076356115936,-76.72255416078804L-221.26144451521517,-62.178335872625105C-178.44212546927102,-47.63411758446219,-92.80348737738267,-18.545681008136334,-20.698453491428015,30.456849419214155C51.40658039452663,79.45937984656464,109.97801007454757,148.37600412493978,139.26372491455803,182.83431626412732L168.5494397545685,217.2926284033149" style="mix-blend-mode: multiply;"/><path d="M-264.08076356115936,-76.72255416078804L-223.47628699647836,-61.45868992640934C-182.87181043179737,-46.194825692030655,-101.66285730243534,-15.667097223273268,-59.08905649998965,42.9307124869541C-16.51525569754396,101.52852219718147,-12.57660722201458,188.19641314887883,-10.60728298424989,231.53035862472748L-8.637958746485198,274.8643041005762" style="mix-blend-mode: multiply;"/><path d="M-264.08076356115936,-76.72255416078804L-223.9060559857231,-68.28967239846233C-183.7313484102868,-59.85679063613663,-103.38193325941427,-42.99102711148523,-66.5383856468983,-75.4729836952977C-29.694838034382332,-107.95494027911018,-36.35715796022294,-189.78461697138653,-39.68831792314325,-230.6994553175247L-43.019477886063555,-271.61429366366286" style="mix-blend-mode: multiply;"/><path d="M-258.74221146241194,-93.15292806745526L-216.27428039343536,-76.51859212000586C-173.80634932445886,-59.884256172556455,-88.87048718650577,-26.615584277657643,-11.366694584707696,19.22003089425227C66.13709801709037,65.05564606616218,136.20882108273338,123.4582045150832,171.2446826155549,152.6594837395437L206.2805441483764,181.8607629640042" style="mix-blend-mode: multiply;"/><path d="M-258.74221146241194,-93.15292806745526L-217.2921948524354,-75.72901673015839C-175.84217824245889,-58.30510539286153,-92.94214502250581,-23.45728271826779,-29.010545207374587,32.906004318274945C34.92105460775664,89.26929135481767,79.88422101806601,167.1480427533094,102.36580422322068,206.08741845255528L124.84738742837538,245.02679415180114" style="mix-blend-mode: multiply;"/><path d="M-245.02679415180117,-124.84738742837533L-206.71408657982272,-102.20490319570501C-168.4013790078442,-79.56241896303469,-91.77596386388727,-34.27745049769407,-43.76825185757648,31.799496350978966C4.239460148734292,97.876443199652,23.629469017398907,184.74536843165743,33.324473451731215,228.17983104766017L43.01947788606353,271.61429366366286" style="mix-blend-mode: multiply;"/><path d="M-245.02679415180117,-124.84738742837533L-208.00169744569914,-102.24536799733636C-170.97660073959705,-79.64334856629738,-96.92640732739291,-34.43930970421943,-66.08684019943423,31.098106456035712C-35.24727307147558,96.63552261629086,-47.61833222776238,182.50631607472317,-53.803861805905775,225.44171280393937L-59.989391384049185,268.37710953315553" style="mix-blend-mode: multiply;"/><path d="M-245.02679415180117,-124.84738742837533L-207.57532738043088,-109.02232611982389C-170.12386060906059,-93.19726481127243,-95.22092706632003,-61.54714219416957,-58.6964257347851,-86.36916766708151C-22.171924403250173,-111.19119313999346,-24.02585528292089,-192.48536670292023,-24.952820722756247,-233.13245348438363L-25.879786162591603,-273.779540265847" style="mix-blend-mode: multiply;"/><path d="M-245.02679415180117,-124.84738742837533L-205.6912377105438,-108.66291679339831C-166.3556812692864,-92.4784461584213,-87.68456838677167,-60.109504888467264,-26.038871456742257,-80.13940600903824C35.60682547328716,-100.16930712960921,80.22710645083126,-172.5980506407052,102.53724693960332,-208.81242239625317L124.84738742837536,-245.02679415180117" style="mix-blend-mode: multiply;"/><path d="M-245.02679415180117,-124.84738742837533L-203.89711618423405,-106.34994925880142C-162.76743821666693,-87.8525110892275,-80.50808228153267,-50.857634750079676,5.059234999293447,-40.04796874269199C90.62655228011955,-29.238302735304313,179.50183090663757,-44.61384705967677,223.93947021989655,-52.30161922186301L268.37710953315553,-59.98939138404924" style="mix-blend-mode: multiply;"/><path d="M-181.86076296400438,-206.28054414837626L-153.93186982471812,-171.04315645757768C-126.00297668543182,-135.80576876677918,-70.14519040685927,-65.33099338518208,-41.27472303727274,14.859814656309984C-12.404255667686213,95.05062269780205,-10.521107207085706,184.95746339918912,-9.579532976785451,229.9108837498827L-8.637958746485198,274.8643041005762" style="mix-blend-mode: multiply;"/><path d="M-181.86076296400438,-206.28054414837626L-150.86509462256097,-172.729130392193C-119.86942628111758,-139.17771663600976,-57.87808959823079,-72.0748891236433,11.882713800117358,-14.363733543688568C81.6435171984655,43.34742203626616,159.17378731227498,91.66690568380915,197.93892236917975,115.82664750758063L236.7040574260845,139.98638933135211" style="mix-blend-mode: multiply;"/><path d="M-181.86076296400438,-206.28054414837626L-151.24538853853232,-172.20570072178486C-120.63001411306028,-138.13085729519347,-59.39926526211619,-69.9811704420107,5.290952589947271,-5.290952589947281C69.98117044201074,59.39926526211613,138.13085729519358,120.63001411306017,172.20570072178498,151.24538853853218L206.2805441483764,181.8607629640042" style="mix-blend-mode: multiply;"/><path d="M-181.86076296400438,-206.28054414837626L-153.28615186681125,-171.0837815880391C-124.71154076961811,-135.887019027702,-67.56231857523183,-65.49349390702776,-30.082278433553853,14.155645728312095C7.397761708124132,93.80478536365194,25.20861979709383,182.7095395136574,34.11404884157868,227.16191658866015L43.01947788606353,271.61429366366286" style="mix-blend-mode: multiply;"/><path d="M-181.86076296400438,-206.28054414837626L-150.46918147122258,-175.2288276511355C-119.0775999784408,-144.1771111538948,-56.29443699287723,-82.07367815941336,18.745208423316086,-57.69181936535887C93.78485383950941,-33.30996057130436,181.08098168633248,-46.6496759776768,224.72904560974402,-53.319533680863024L268.37710953315553,-59.98939138404924" style="mix-blend-mode: multiply;"/><path d="M-76.72255416078816,-264.0807635611593L-64.35675025409085,-219.97313384135145C-51.99094634739356,-175.8655041215436,-27.259338533998953,-87.65024468192792,-7.302333192857007,1.632264855542445C12.65467214828494,90.9147743930128,27.83707501717423,181.26453402833783,35.42827645161888,226.43941384600035L43.01947788606352,271.61429366366286" style="mix-blend-mode: multiply;"/><path d="M-76.72255416078816,-264.0807635611593L-62.31598692581195,-221.09505297509722C-47.90941969083573,-178.10934238903508,-19.096285220883306,-92.13792121691085,28.070897830644117,-17.814333462716935C75.23808088217154,56.509254291476985,140.759312515274,119.1850086277406,173.5199283318252,150.5228857958724L206.2805441483764,181.8607629640042" style="mix-blend-mode: multiply;"/><path d="M-59.98939138404941,-268.3771095331555L-48.162520077153765,-224.72904560974393C-36.335648770258096,-181.08098168633242,-12.681906156466786,-93.78485383950938,31.69641643227085,-18.745208423316104C76.07473902100848,56.29443699287717,141.17764158469245,119.07759997844069,173.72909286653444,150.46918147122244L206.2805441483764,181.8607629640042" style="mix-blend-mode: multiply;"/><path d="M-59.98939138404941,-268.3771095331555L-50.20328340543267,-223.60712647599823C-40.41717542681592,-178.83714341884095,-20.84495946958243,-89.29717730452647,-3.6768145912302757,0.7013898949432663C13.491330287121881,90.69995709441298,28.255404086592705,181.15712537903792,35.637440986328116,226.38570952135038L43.01947788606353,271.61429366366286" style="mix-blend-mode: multiply;"/><path d="M-59.98939138404941,-268.3771095331555L-47.782226161182415,-225.25247528015208C-35.575060938315396,-182.12784102714875,-11.160730492581385,-95.878572521142,38.288177642440935,-27.81798937705739C87.73708577746326,40.24259376702721,162.22057160177386,90.11449154918967,199.4623145139292,115.05044044027089L236.7040574260845,139.98638933135211" style="mix-blend-mode: multiply;"/><path d="M-59.98939138404941,-268.3771095331555L-48.99119701236656,-229.96110586462007C-37.993002640683706,-191.54510219608463,-15.996613897318001,-114.71309485901384,17.33268288858225,-109.43425284116866C50.6619796744825,-104.15541082332349,95.32418450291732,-170.429734124704,117.65528691713472,-203.56689577539422L139.98638933135211,-236.7040574260845" style="mix-blend-mode: multiply;"/><path d="M-59.98939138404941,-268.3771095331555L-47.386313009844024,-227.75217253909463C-34.78323463563862,-187.12723554503376,-9.577077887227832,-105.87736155691205,45.150672265639656,-71.1460751987277C99.87842241850716,-36.414788840543316,184.12776597583135,-48.202090112296275,226.25243775449346,-54.09574074817275L268.37710953315553,-59.98939138404924" style="mix-blend-mode: multiply;"/><path d="M-43.019477886063555,-271.61429366366286L-34.28044038169665,-227.0242655354734C-25.541402877329745,-182.43423740728394,-8.063327868595936,-93.25418115090503,27.19815840484274,-11.769694139742072C62.45964467828142,69.71479287142088,115.50454221642497,143.50371063736787,142.02699098549672,180.39816952034138L168.5494397545685,217.29262840331486" style="mix-blend-mode: multiply;"/><path d="M-43.019477886063555,-271.61429366366286L-36.49528286295982,-226.30461958925764C-29.971087839856086,-180.9949455148524,-16.922697793648624,-90.37559736604196,-11.192444603718897,0.7041689279978888C-5.462191413789171,91.78393522203773,-7.0500750801371845,183.32411966130698,-7.844016913311191,229.09421188094157L-8.637958746485198,274.8643041005762" style="mix-blend-mode: multiply;"/><path d="M-43.019477886063555,-271.61429366366286L-39.68831792314325,-230.6994553175247C-36.35715796022294,-189.78461697138653,-29.694838034382332,-107.95494027911018,-66.5383856468983,-75.4729836952977C-103.38193325941427,-42.99102711148523,-183.7313484102868,-59.85679063613663,-223.9060559857231,-68.28967239846233L-264.08076356115936,-76.72255416078804" style="mix-blend-mode: multiply;"/><path d="M-43.019477886063555,-271.61429366366286L-33.4285076608027,-227.99059352387295C-23.837537435541847,-184.36689338408303,-4.655596985020137,-97.11949310450315,41.964992233671204,-28.519379272000666C88.58558145236255,40.08073456050183,162.6448194392235,90.03356194592698,199.674438432654,115.00997563863955L236.7040574260845,139.98638933135211" style="mix-blend-mode: multiply;"/><path d="M-43.019477886063555,-271.61429366366286L-33.80880157677405,-227.46716385346477C-24.598125267484548,-183.3200340432667,-6.1767726489055415,-95.02577442287055,35.37323102350112,-19.446598318259372C76.92323469590778,56.132577786351796,141.60188942214208,118.996670375178,173.94121678525926,150.42871666959113L206.2805441483764,181.8607629640042" style="mix-blend-mode: multiply;"/><path d="M-43.019477886063555,-271.61429366366286L-33.67115052358732,-227.63355539358272C-24.322823161111085,-183.6528171235026,-5.6261684361586175,-95.69134058334235,37.75918261207112,-22.330718346970446C81.14453366030087,51.029903889401446,149.21858103180787,109.78967182198495,183.2556047175614,139.16955578827674L217.2926284033149,168.54943975456848" style="mix-blend-mode: multiply;"/><path d="M-25.8797861625916,-273.779540265847L-24.848786513684782,-229.82203127488705C-23.817786864777972,-185.86452228392704,-21.75578756696434,-97.94950430200709,-56.89316611087983,-28.98851603580724C-92.03054465479532,39.972472230392604,-164.36730104043994,89.97943078087233,-200.53567923326224,114.98291005611219L-236.70405742608455,139.98638933135206" style="mix-blend-mode: multiply;"/><path d="M-25.8797861625916,-273.779540265847L-21.352242322282933,-228.17668247073314C-16.82469848197427,-182.57382467561925,-7.769610801356937,-91.36810908539155,3.7135998734189157,-0.4691367638065647C15.196810548194769,90.4298355577784,29.108144217129148,181.02206461072066,36.06381105159633,226.31817913719178L43.01947788606352,271.61429366366286" style="mix-blend-mode: multiply;"/><path d="M-25.8797861625916,-273.779540265847L-22.63985318815934,-228.2171472723645C-19.399920213727086,-182.65475427888194,-12.920054264862573,-91.52996829191692,-18.604988468438837,-1.1705266587498215C-24.289922672015106,89.18891497441727,-42.13965702803215,178.7830122537864,-51.064524206040666,223.58006089347097L-59.98939138404919,268.37710953315553" style="mix-blend-mode: multiply;"/><path d="M-25.8797861625916,-273.779540265847L-24.95282072275624,-233.13245348438363C-24.025855282920887,-192.48536670292023,-22.17192440325017,-111.19119313999346,-58.696425734785095,-86.36916766708151C-95.22092706632002,-61.54714219416957,-170.12386060906059,-93.19726481127243,-207.57532738043088,-109.02232611982389L-245.02679415180114,-124.84738742837533" style="mix-blend-mode: multiply;"/><path d="M-25.8797861625916,-273.779540265847L-20.329393453004034,-234.63469606842645C-14.779000743416473,-195.48985187100587,-3.6782153242413442,-117.20016347616475,21.44298027425315,-112.40803912382377C46.56417587274765,-107.61591477148279,85.7057816505615,-176.32135446164196,105.27658453946843,-210.67407430672156L124.84738742837536,-245.02679415180117" style="mix-blend-mode: multiply;"/><path d="M-25.8797861625916,-273.779540265847L-18.535271926694282,-232.32172853382954C-11.190757690796966,-190.86391680181205,3.4982707809976645,-107.94829333777714,52.54108673028886,-72.31660185747752C101.58390267958004,-36.68491037717789,184.98050610636778,-48.337150880613564,226.6788078197617,-54.16327113233141L268.37710953315553,-59.98939138404924" style="mix-blend-mode: multiply;"/><path d="M-25.8797861625916,-273.779540265847L-18.93118507803267,-229.82203127488705C-11.982583993473744,-185.86452228392704,1.9146181756441116,-97.94950430200709,45.67859210709013,-28.988516035807223C89.44256603853614,39.97247223039263,163.07331173231032,89.97943078087236,199.8886845791974,114.98291005611225L236.7040574260845,139.98638933135211" style="mix-blend-mode: multiply;"/><path d="M-8.6379587464853,-274.8643041005762L-7.414247924066547,-229.05358675048015C-6.190537101647796,-183.24286940038414,-3.743115456810292,-91.62143470019207,-3.743115456810275,0C-3.743115456810258,91.62143470019207,-6.1905371016477275,183.24286940038414,-7.414247924066463,229.05358675048015L-8.637958746485198,274.8643041005762" style="mix-blend-mode: multiply;"/></g></svg>