<svg viewBox="-375,-375,750,750" xmlns="http://www.w3.org/2000/svg" xmlns:xlink="http://www.w3.org/1999/xlink"><g font-family="sans-serif" font-size="10"><g transform="rotate(-88.2) translate(275,0)"><text dy="0.31em" x="6" text-anchor="start">100luz<title>flare.100luz
0 outgoing
0 incoming</title></text></g><g transform="rotate(-84.6) translate(275,0)"><text dy="0.31em" x="6" text-anchor="start">Alex<title>flare.Alex
1 outgoing
1 incoming</title></text></g><g transform="rotate(-81) translate(275,0)"><text dy="0.31em" x="6" text-anchor="start">Alina<title>flare.Alina
0 outgoing
0 incoming</title></text></g><g transform="rotate(-77.4) translate(275,0)"><text dy="0.31em" x="6" text-anchor="start">Allen<title>flare.Allen
0 outgoing
0 incoming</title></text></g><g transform="rotate(-73.8) translate(275,0)"><text dy="0.31em" x="6" text-anchor="start">Ariel Malka<title>flare.Ariel Malka
0 outgoing
0 incoming</title></text></g><g transform="rotate(-70.2) translate(275,0)"><text dy="0.31em" x="6" text-anchor="start">Bertrand Saint-Guillain<title>flare.Bertrand Saint-Guillain
0 outgoing
0 incoming</title></text></g><g transform="rotate(-66.6) translate(275,0)"><text dy="0.31em" x="6" text-anchor="start">Brian<title>flare.Brian
0 outgoing
0 incoming</title></text></g><g transform="rotate(-63) translate(275,0)"><text dy="0.31em" x="6" text-anchor="start">Dan<title>flare.Dan
0 outgoing
0 incoming</title></text></g><g transform="rotate(-59.39999999999999) translate(275,0)"><text dy="0.31em" x="6" text-anchor="start">Dara<title>flare.Dara
0 outgoing
0 incoming</title></text></g><g transform="rotate(-55.800000000000004) translate(275,0)"><text dy="0.31em" x="6" text-anchor="start">Dimitre<title>flare.Dimitre
0 outgoing
0 incoming</title></text></g><g transform="rotate(-52.2) translate(275,0)"><text dy="0.31em" x="6" text-anchor="start">Elrick<title>flare.Elrick
0 outgoing
0 incoming</title></text></g><g transform="rotate(-48.6) translate(275,0)"><text dy="0.31em" x="6" text-anchor="start">Frederik De Bleser<title>flare.Frederik De Bleser
4 outgoing
4 incoming</title></text></g><g transform="rotate(-45) translate(275,0)"><text dy="0.31em" x="6" text-anchor="start">Glen Murphy<title>flare.Glen Murphy
0 outgoing
0 incoming</title></text></g><g transform="rotate(-41.4) translate(275,0)"><text dy="0.31em" x="6" text-anchor="start">Jeff Berg<title>flare.Jeff Berg
0 outgoing
0 incoming</title></text></g><g transform="rotate(-37.800000000000004) translate(275,0)"><text dy="0.31em" x="6" text-anchor="start">JimQode<title>flare.JimQode
0 outgoing
0 incoming</title></text></g><g transform="rotate(-34.2) translate(275,0)"><text dy="0.31em" x="6" text-anchor="start">Jordan J<title>flare.Jordan J
0 outgoing
0 incoming</title></text></g><g transform="rotate(-30.599999999999987) translate(275,0)"><text dy="0.31em" x="6" text-anchor="start">Josh Nimoy<title>flare.Josh Nimoy
0 outgoing
0 incoming</title></text></g><g transform="rotate(-27) translate(275,0)"><text dy="0.31em" x="6" text-anchor="start">Koenie<title>flare.Koenie
0 outgoing
0 incoming</title></text></g><g transform="rotate(-23.39999999999999) translate(275,0)"><text dy="0.31em" x="6" text-anchor="start">Martin<title>flare.Martin
1 outgoing
1 incoming</title></text></g><g transform="rotate(-19.799999999999997) translate(275,0)"><text dy="0.31em" x="6" text-anchor="start">Mike Davis<title>flare.Mike Davis
2 outgoing
2 incoming</title></text></g><g transform="rotate(-16.200000000000003) translate(275,0)"><text dy="0.31em" x="6" text-anchor="start">Processing<title>flare.Processing
4 outgoing
4 incoming</title></text></g><g transform="rotate(-12.600000000000009) translate(275,0)"><text dy="0.31em" x="6" text-anchor="start">REAS<title>flare.REAS
0 outgoing
0 incoming</title></text></g><g transform="rotate(-9) translate(275,0)"><text dy="0.31em" x="6" text-anchor="start">Takachin<title>flare.Takachin
0 outgoing
0 incoming</title></text></g><g transform="rotate(-5.400000000000006) translate(275,0)"><text dy="0.31em" x="6" text-anchor="start">WillisMorse<title>flare.WillisMorse
0 outgoing
0 incoming</title></text></g><g transform="rotate(-1.7999999999999972) translate(275,0)"><text dy="0.31em" x="6" text-anchor="start">Wim_Van_der_Vurst<title>flare.Wim_Van_der_Vurst
0 outgoing
0 incoming</title></text></g><g transform="rotate(1.7999999999999972) translate(275,0)"><text dy="0.31em" x="6" text-anchor="start">XemonerdX<title>flare.XemonerdX
0 outgoing
0 incoming</title></text></g><g transform="rotate(5.400000000000006) translate(275,0)"><text dy="0.31em" x="6" text-anchor="start">Xu1<title>flare.Xu1
0 outgoing
0 incoming</title></text></g><g transform="rotate(9.000000000000014) translate(275,0)"><text dy="0.31em" x="6" text-anchor="start">[rocha]<title>flare.[rocha]
0 outgoing
0 incoming</title></text></g><g transform="rotate(12.599999999999994) translate(275,0)"><text dy="0.31em" x="6" text-anchor="start">_cory<title>flare._cory
0 outgoing
0 incoming</title></text></g><g transform="rotate(16.19999999999999) translate(275,0)"><text dy="0.31em" x="6" text-anchor="start">_martin<title>flare._martin
0 outgoing
0 incoming</title></text></g><g transform="rotate(19.799999999999997) translate(275,0)"><text dy="0.31em" x="6" text-anchor="start">_warren<title>flare._warren
0 outgoing
0 incoming</title></text></g><g transform="rotate(23.400000000000006) translate(275,0)"><text dy="0.31em" x="6" text-anchor="start">adrien<title>flare.adrien
0 outgoing
0 incoming</title></text></g><g transform="rotate(27) translate(275,0)"><text dy="0.31em" x="6" text-anchor="start">anurag<title>flare.anurag
0 outgoing
0 incoming</title></text></g><g transform="rotate(30.60000000000001) translate(275,0)"><text dy="0.31em" x="6" text-anchor="start">arielm<title>flare.arielm
0 outgoing
0 incoming</title></text></g><g transform="rotate(34.19999999999999) translate(275,0)"><text dy="0.31em" x="6" text-anchor="start">artelse<title>flare.artelse
2 outgoing
2 incoming</title></text></g><g transform="rotate(37.79999999999998) translate(275,0)"><text dy="0.31em" x="6" text-anchor="start">barikan<title>flare.barikan
0 outgoing
0 incoming</title></text></g><g transform="rotate(41.400000000000006) translate(275,0)"><text dy="0.31em" x="6" text-anchor="start">benelek<title>flare.benelek
0 outgoing
0 incoming</title></text></g><g transform="rotate(45) translate(275,0)"><text dy="0.31em" x="6" text-anchor="start">bzor<title>flare.bzor
0 outgoing
0 incoming</title></text></g><g transform="rotate(48.599999999999994) translate(275,0)"><text dy="0.31em" x="6" text-anchor="start">damille<title>flare.damille
1 outgoing
1 incoming</title></text></g><g transform="rotate(52.20000000000002) translate(275,0)"><text dy="0.31em" x="6" text-anchor="start">depth<title>flare.depth
0 outgoing
0 incoming</title></text></g><g transform="rotate(55.80000000000001) translate(275,0)"><text dy="0.31em" x="6" text-anchor="start">dnm<title>flare.dnm
0 outgoing
0 incoming</title></text></g><g transform="rotate(59.400000000000006) translate(275,0)"><text dy="0.31em" x="6" text-anchor="start">ed<title>flare.ed
0 outgoing
0 incoming</title></text></g><g transform="rotate(63) translate(275,0)"><text dy="0.31em" x="6" text-anchor="start">edwardgeorge<title>flare.edwardgeorge
0 outgoing
0 incoming</title></text></g><g transform="rotate(66.6) translate(275,0)"><text dy="0.31em" x="6" text-anchor="start">eviltyler<title>flare.eviltyler
0 outgoing
0 incoming</title></text></g><g transform="rotate(70.20000000000002) translate(275,0)"><text dy="0.31em" x="6" text-anchor="start">ezdac<title>flare.ezdac
0 outgoing
0 incoming</title></text></g><g transform="rotate(73.80000000000004) translate(275,0)"><text dy="0.31em" x="6" text-anchor="start">fdb<title>flare.fdb
1 outgoing
1 incoming</title></text></g><g transform="rotate(77.40000000000003) translate(275,0)"><text dy="0.31em" x="6" text-anchor="start">fli<title>flare.fli
0 outgoing
0 incoming</title></text></g><g transform="rotate(81) translate(275,0)"><text dy="0.31em" x="6" text-anchor="start">flight404<title>flare.flight404
0 outgoing
0 incoming</title></text></g><g transform="rotate(84.6) translate(275,0)"><text dy="0.31em" x="6" text-anchor="start">forkinsocket<title>flare.forkinsocket
0 outgoing
0 incoming</title></text></g><g transform="rotate(88.20000000000002) translate(275,0)"><text dy="0.31em" x="6" text-anchor="start">franklin_mint<title>flare.franklin_mint
0 outgoing
0 incoming</title></text></g><g transform="rotate(91.80000000000001) translate(275,0)"><text dy="0.31em" x="-6" text-anchor="end" transform="rotate(180)">fry<title>flare.fry
4 outgoing
4 incoming</title></text></g><g transform="rotate(95.4) translate(275,0)"><text dy="0.31em" x="-6" text-anchor="end" transform="rotate(180)">fulk<title>flare.fulk
0 outgoing
0 incoming</title></text></g><g transform="rotate(99) translate(275,0)"><text dy="0.31em" x="-6" text-anchor="end" transform="rotate(180)">gaza<title>flare.gaza
0 outgoing
0 incoming</title></text></g><g transform="rotate(102.60000000000002) translate(275,0)"><text dy="0.31em" x="-6" text-anchor="end" transform="rotate(180)">gkoshra<title>flare.gkoshra
0 outgoing
0 incoming</title></text></g><g transform="rotate(106.20000000000002) translate(275,0)"><text dy="0.31em" x="-6" text-anchor="end" transform="rotate(180)">grumo<title>flare.grumo
0 outgoing
0 incoming</title></text></g><g transform="rotate(109.80000000000001) translate(275,0)"><text dy="0.31em" x="-6" text-anchor="end" transform="rotate(180)">gsm<title>flare.gsm
0 outgoing
0 incoming</title></text></g><g transform="rotate(113.39999999999998) translate(275,0)"><text dy="0.31em" x="-6" text-anchor="end" transform="rotate(180)">heidi<title>flare.heidi
0 outgoing
0 incoming</title></text></g><g transform="rotate(116.99999999999997) translate(275,0)"><text dy="0.31em" x="-6" text-anchor="end" transform="rotate(180)">heliodrop<title>flare.heliodrop
0 outgoing
0 incoming</title></text></g><g transform="rotate(120.6) translate(275,0)"><text dy="0.31em" x="-6" text-anchor="end" transform="rotate(180)">hurlbot<title>flare.hurlbot
0 outgoing
0 incoming</title></text></g><g transform="rotate(124.19999999999999) translate(275,0)"><text dy="0.31em" x="-6" text-anchor="end" transform="rotate(180)">ik0<title>flare.ik0
0 outgoing
0 incoming</title></text></g><g transform="rotate(127.79999999999998) translate(275,0)"><text dy="0.31em" x="-6" text-anchor="end" transform="rotate(180)">jand<title>flare.jand
0 outgoing
0 incoming</title></text></g><g transform="rotate(131.4) translate(275,0)"><text dy="0.31em" x="-6" text-anchor="end" transform="rotate(180)">jbk303<title>flare.jbk303
0 outgoing
0 incoming</title></text></g><g transform="rotate(135) translate(275,0)"><text dy="0.31em" x="-6" text-anchor="end" transform="rotate(180)">jes<title>flare.jes
0 outgoing
0 incoming</title></text></g><g transform="rotate(138.6) translate(275,0)"><text dy="0.31em" x="-6" text-anchor="end" transform="rotate(180)">jlee<title>flare.jlee
0 outgoing
0 incoming</title></text></g><g transform="rotate(142.2) translate(275,0)"><text dy="0.31em" x="-6" text-anchor="end" transform="rotate(180)">joey<title>flare.joey
0 outgoing
0 incoming</title></text></g><g transform="rotate(145.8) translate(275,0)"><text dy="0.31em" x="-6" text-anchor="end" transform="rotate(180)">kevin<title>flare.kevin
0 outgoing
0 incoming</title></text></g><g transform="rotate(149.4) translate(275,0)"><text dy="0.31em" x="-6" text-anchor="end" transform="rotate(180)">mKoser<title>flare.mKoser
2 outgoing
2 incoming</title></text></g><g transform="rotate(153) translate(275,0)"><text dy="0.31em" x="-6" text-anchor="end" transform="rotate(180)">mawend<title>flare.mawend
0 outgoing
0 incoming</title></text></g><g transform="rotate(156.60000000000005) translate(275,0)"><text dy="0.31em" x="-6" text-anchor="end" transform="rotate(180)">mccutchen<title>flare.mccutchen
0 outgoing
0 incoming</title></text></g><g transform="rotate(160.2) translate(275,0)"><text dy="0.31em" x="-6" text-anchor="end" transform="rotate(180)">meltphace<title>flare.meltphace
0 outgoing
0 incoming</title></text></g><g transform="rotate(163.79999999999998) translate(275,0)"><text dy="0.31em" x="-6" text-anchor="end" transform="rotate(180)">michaONE<title>flare.michaONE
2 outgoing
2 incoming</title></text></g><g transform="rotate(167.39999999999998) translate(275,0)"><text dy="0.31em" x="-6" text-anchor="end" transform="rotate(180)">michael<title>flare.michael
0 outgoing
0 incoming</title></text></g><g transform="rotate(171) translate(275,0)"><text dy="0.31em" x="-6" text-anchor="end" transform="rotate(180)">mmuday<title>flare.mmuday
0 outgoing
0 incoming</title></text></g><g transform="rotate(174.59999999999997) translate(275,0)"><text dy="0.31em" x="-6" text-anchor="end" transform="rotate(180)">mohn<title>flare.mohn
2 outgoing
2 incoming</title></text></g><g transform="rotate(178.20000000000005) translate(275,0)"><text dy="0.31em" x="-6" text-anchor="end" transform="rotate(180)">mr.prufrock<title>flare.mr.prufrock
0 outgoing
0 incoming</title></text></g><g transform="rotate(181.8) translate(275,0)"><text dy="0.31em" x="-6" text-anchor="end" transform="rotate(180)">mrb<title>flare.mrb
0 outgoing
0 incoming</title></text></g><g transform="rotate(185.40000000000003) translate(275,0)"><text dy="0.31em" x="-6" text-anchor="end" transform="rotate(180)">nurm<title>flare.nurm
0 outgoing
0 incoming</title></text></g><g transform="rotate(189) translate(275,0)"><text dy="0.31em" x="-6" text-anchor="end" transform="rotate(180)">oytun<title>flare.oytun
0 outgoing
0 incoming</title></text></g><g transform="rotate(192.60000000000002) translate(275,0)"><text dy="0.31em" x="-6" text-anchor="end" transform="rotate(180)">pinksalmon<title>flare.pinksalmon
0 outgoing
0 incoming</title></text></g><g transform="rotate(196.2) translate(275,0)"><text dy="0.31em" x="-6" text-anchor="end" transform="rotate(180)">pitaru<title>flare.pitaru
0 outgoing
0 incoming</title></text></g><g transform="rotate(199.8) translate(275,0)"><text dy="0.31em" x="-6" text-anchor="end" transform="rotate(180)">pokemon#1<title>flare.pokemon#1
0 outgoing
0 incoming</title></text></g><g transform="rotate(203.39999999999998) translate(275,0)"><text dy="0.31em" x="-6" text-anchor="end" transform="rotate(180)">pollux<title>flare.pollux
0 outgoing
0 incoming</title></text></g><g transform="rotate(207) translate(275,0)"><text dy="0.31em" x="-6" text-anchor="end" transform="rotate(180)">polyscope<title>flare.polyscope
0 outgoing
0 incoming</title></text></g><g transform="rotate(210.59999999999997) translate(275,0)"><text dy="0.31em" x="-6" text-anchor="end" transform="rotate(180)">primeclub<title>flare.primeclub
0 outgoing
0 incoming</title></text></g><g transform="rotate(214.2) translate(275,0)"><text dy="0.31em" x="-6" text-anchor="end" transform="rotate(180)">rlivings<title>flare.rlivings
0 outgoing
0 incoming</title></text></g><g transform="rotate(217.79999999999995) translate(275,0)"><text dy="0.31em" x="-6" text-anchor="end" transform="rotate(180)">scrap-pile<title>flare.scrap-pile
0 outgoing
0 incoming</title></text></g><g transform="rotate(221.40000000000003) translate(275,0)"><text dy="0.31em" x="-6" text-anchor="end" transform="rotate(180)">sdewitt<title>flare.sdewitt
0 outgoing
0 incoming</title></text></g><g transform="rotate(225) translate(275,0)"><text dy="0.31em" x="-6" text-anchor="end" transform="rotate(180)">seb<title>flare.seb
0 outgoing
0 incoming</title></text></g><g transform="rotate(228.59999999999997) translate(275,0)"><text dy="0.31em" x="-6" text-anchor="end" transform="rotate(180)">skloopy<title>flare.skloopy
0 outgoing
0 incoming</title></text></g><g transform="rotate(232.20000000000005) translate(275,0)"><text dy="0.31em" x="-6" text-anchor="end" transform="rotate(180)">solipsys<title>flare.solipsys
0 outgoing
0 incoming</title></text></g><g transform="rotate(235.8) translate(275,0)"><text dy="0.31em" x="-6" text-anchor="end" transform="rotate(180)">spacegirl<title>flare.spacegirl
0 outgoing
0 incoming</title></text></g><g transform="rotate(239.39999999999998) translate(275,0)"><text dy="0.31em" x="-6" text-anchor="end" transform="rotate(180)">sparky_monkey<title>flare.sparky_monkey
0 outgoing
0 incoming</title></text></g><g transform="rotate(243) translate(275,0)"><text dy="0.31em" x="-6" text-anchor="end" transform="rotate(180)">sportebois<title>flare.sportebois
0 outgoing
0 incoming</title></text></g><g transform="rotate(246.60000000000002) translate(275,0)"><text dy="0.31em" x="-6" text-anchor="end" transform="rotate(180)">svela<title>flare.svela
0 outgoing
0 incoming</title></text></g><g transform="rotate(250.19999999999993) translate(275,0)"><text dy="0.31em" x="-6" text-anchor="end" transform="rotate(180)">tomek<title>flare.tomek
0 outgoing
0 incoming</title></text></g><g transform="rotate(253.8) translate(275,0)"><text dy="0.31em" x="-6" text-anchor="end" transform="rotate(180)">toxi<title>flare.toxi
0 outgoing
0 incoming</title></text></g><g transform="rotate(257.4) translate(275,0)"><text dy="0.31em" x="-6" text-anchor="end" transform="rotate(180)">v3ga<title>flare.v3ga
0 outgoing
0 incoming</title></text></g><g transform="rotate(261) translate(275,0)"><text dy="0.31em" x="-6" text-anchor="end" transform="rotate(180)">vanwoods<title>flare.vanwoods
0 outgoing
0 incoming</title></text></g><g transform="rotate(264.6) translate(275,0)"><text dy="0.31em" x="-6" text-anchor="end" transform="rotate(180)">vent<title>flare.vent
0 outgoing
0 incoming</title></text></g><g transform="rotate(268.2) translate(275,0)"><text dy="0.31em" x="-6" text-anchor="end" transform="rotate(180)">xoff<title>flare.xoff
0 outgoing
0 incoming</title></text></g></g><g stroke="grey" fill="none"><path d="M25.879786162591436,-273.779540265847L21.782011311527526,-228.13605734027172C17.684236460463612,-182.49257441469646,9.48868675833579,-91.20560856354587,3.735729273489685,0.235032164191324C-2.0172282113564206,91.67567289192853,-5.32759347892081,183.26998849625235,-6.982776112703004,229.0671462984143L-8.637958746485198,274.8643041005762" style="mix-blend-mode: multiply;"/><path d="M181.86076296400427,-206.28054414837638L156.66698481445576,-172.54679864746834C131.47320666490722,-138.81305314656026,81.0856503658102,-71.34556214474415,88.68338285939359,-11.203316635125447C96.28111535297698,48.938928874493264,161.86413663924077,101.75592889191456,194.65564728237268,128.1644289006252L227.44715792550457,154.57292890933587" style="mix-blend-mode: multiply;"/><path d="M181.86076296400427,-206.28054414837638L150.40165108706387,-174.15546293180262C118.94253921012343,-142.03038171522886,56.02431545624262,-77.78021928208138,-19.915735082065925,-39.08683089692004C-95.85578562037448,-0.39344251175871275,-184.81766294311072,12.743171825416438,-229.29860160447888,19.31147899400401L-273.779540265847,25.879786162591586" style="mix-blend-mode: multiply;"/><path d="M181.86076296400427,-206.28054414837638L157.12490488490144,-175.43799218584488C132.38904680579859,-144.59544022331337,82.91733064759295,-82.91033629825036,96.62066408045212,-61.317337966985654C110.32399751331128,-39.72433963572093,187.20238053723529,-58.22344689825453,225.6415720491973,-67.47300052952131L264.0807635611593,-76.72255416078812" style="mix-blend-mode: multiply;"/><path d="M181.86076296400427,-206.28054414837638L157.0581729836671,-175.64337185967824C132.25558300332992,-145.00619957098004,82.65040304265557,-83.73185499358371,95.4639777923902,-64.87725231343016C108.27755254212481,-46.022649633276636,183.50988200226843,-69.5877888503659,221.12604673234023,-81.37035845891052L258.742211462412,-93.15292806745515" style="mix-blend-mode: multiply;"/><path d="M252.38252206309483,-109.21566992456465L213.36557542736998,-88.94245034327038C174.3486287916451,-68.66923076197615,96.31473552019543,-28.12279159938764,52.81132205193209,35.8905374048025C9.30790858366875,99.90386640899264,0.33497491859177586,187.38408525478442,-4.151491913946711,231.1241946776803L-8.637958746485198,274.8643041005762" style="mix-blend-mode: multiply;"/><path d="M258.742211462412,-93.15292806745515L222.15379673980462,-79.75088358406566C185.5653820171973,-66.34883910067619,112.38855257198257,-39.54475013389722,113.27831125510711,-36.80635448278604C114.16806993823167,-34.06795883167487,189.12441674969548,-55.3952564962315,226.60259015542738,-66.05890532850981L264.0807635611593,-76.72255416078812" style="mix-blend-mode: multiply;"/><path d="M258.742211462412,-93.15292806745515L221.1260467323402,-81.37035845891052C183.50988200226843,-69.5877888503659,108.27755254212481,-46.022649633276636,95.4639777923902,-64.87725231343018C82.65040304265557,-83.73185499358371,132.25558300332992,-145.00619957098004,157.0581729836671,-175.64337185967818L181.86076296400427,-206.28054414837638" style="mix-blend-mode: multiply;"/><path d="M264.0807635611593,-76.72255416078812L224.3273444391571,-61.59348418315213C184.5739253171549,-46.464414205516135,105.06708707315046,-16.206274250244146,73.84071883975525,40.59427870341377C42.61435060636004,97.39483165707168,59.66845238357402,180.73779760911552,68.19550327218103,222.40928058513745L76.72255416078801,264.08076356115936" style="mix-blend-mode: multiply;"/><path d="M264.0807635611593,-76.72255416078812L225.6415720491973,-67.47300052952133C187.20238053723529,-58.22344689825453,110.32399751331128,-39.72433963572093,96.62066408045212,-61.31733796698563C82.91733064759295,-82.91033629825036,132.38904680579859,-144.59544022331337,157.12490488490144,-175.43799218584488L181.86076296400427,-206.28054414837638" style="mix-blend-mode: multiply;"/><path d="M264.0807635611593,-76.72255416078812L226.60259015542738,-66.05890532850981C189.12441674969548,-55.3952564962315,114.16806993823167,-34.06795883167487,113.27831125510711,-36.80635448278604C112.38855257198257,-39.54475013389722,185.5653820171973,-66.34883910067619,222.15379673980465,-79.75088358406566L258.742211462412,-93.15292806745515" style="mix-blend-mode: multiply;"/><path d="M264.0807635611593,-76.72255416078812L225.6415720491973,-62.31598692581192C187.20238053723529,-47.909419690835705,110.32399751331128,-19.096285220883292,96.62066408045212,28.070897830644125C82.91733064759295,75.23808088217154,132.38904680579859,140.75931251527396,157.12490488490144,173.51992833182518L181.86076296400427,206.28054414837638" style="mix-blend-mode: multiply;"/><path d="M227.44715792550457,154.57292890933587L194.65564728237266,128.1644289006252C161.86413663924077,101.75592889191456,96.28111535297698,48.938928874493264,88.68338285939359,-11.203316635125447C81.0856503658102,-71.34556214474415,131.47320666490722,-138.81305314656026,156.66698481445573,-172.54679864746834L181.86076296400427,-206.28054414837638" style="mix-blend-mode: multiply;"/><path d="M227.44715792550457,154.57292890933587L188.9601434919995,131.0664330295123C150.4731290584945,107.55993714968876,73.4991001914844,60.546945390041664,-10.038682840407526,39.09808826558429C-93.57646587229947,17.6492311411269,-183.67800306907324,21.764508651859245,-228.7287716674601,23.822147407225415L-273.779540265847,25.879786162591586" style="mix-blend-mode: multiply;"/><path d="M181.86076296400427,206.28054414837638L157.12490488490144,173.51992833182518C132.38904680579859,140.75931251527396,82.91733064759295,75.23808088217153,96.62066408045212,28.070897830644125C110.32399751331128,-19.096285220883292,187.20238053723529,-47.909419690835705,225.6415720491973,-62.31598692581192L264.0807635611593,-76.72255416078812" style="mix-blend-mode: multiply;"/><path d="M76.72255416078801,264.08076356115936L68.19550327218103,222.40928058513745C59.66845238357402,180.73779760911552,42.61435060636004,97.39483165707168,73.84071883975525,40.59427870341378C105.06708707315046,-16.20627425024414,184.5739253171549,-46.46441420551613,224.3273444391571,-61.59348418315211L264.0807635611593,-76.7225541607881" style="mix-blend-mode: multiply;"/><path d="M-8.637958746485198,274.8643041005762L-6.982776112703004,229.0671462984143C-5.32759347892081,183.26998849625235,-2.017228211356421,91.67567289192853,3.735729273489685,0.235032164191324C9.48868675833579,-91.20560856354587,17.684236460463612,-182.49257441469646,21.782011311527526,-228.1360573402717L25.879786162591436,-273.779540265847" style="mix-blend-mode: multiply;"/><path d="M-8.637958746485198,274.8643041005762L-4.151491913946711,231.1241946776803C0.33497491859177586,187.38408525478442,9.30790858366875,99.90386640899264,52.81132205193209,35.89053740480251C96.31473552019543,-28.122791599387636,174.3486287916451,-68.66923076197615,213.36557542737,-88.94245034327041L252.38252206309483,-109.21566992456465" style="mix-blend-mode: multiply;"/><path d="M-8.637958746485198,274.8643041005762L-10.607282984249888,233.44842247874723C-12.576607222014578,192.03254085691825,-16.51525569754396,109.20077761326029,-59.089056499989645,76.17715262329561C-101.66285730243533,43.15352763333093,-182.87181043179734,59.93804089705953,-223.4762869964783,68.33029752892384L-264.0807635611593,76.72255416078814" style="mix-blend-mode: multiply;"/><path d="M-8.637958746485198,274.8643041005762L-10.265074157561454,234.2392204183793C-11.89218956863771,193.61413673618233,-15.14642039079022,112.36396937178847,-53.157436837390115,89.88431691025113C-91.16845328399,67.40466444871377,-163.93625535503728,103.69552689003291,-200.3201563905609,121.84095811069248L-236.70405742608455,139.98638933135206" style="mix-blend-mode: multiply;"/><path d="M-236.70405742608455,139.98638933135206L-203.51319145074433,119.36418623644512C-170.32232547540414,98.7419831415382,-103.94059352472372,57.49757695172436,-108.50337788056952,46.953604423297044C-113.06616223641531,36.409631894869726,-188.57346289878728,56.566093027828934,-226.3271132299733,66.64432359430853L-264.0807635611593,76.72255416078814" style="mix-blend-mode: multiply;"/><path d="M-236.70405742608455,139.98638933135206L-200.3201563905609,121.84095811069248C-163.93625535503728,103.69552689003291,-91.16845328399,67.40466444871377,-53.157436837390115,89.88431691025112C-15.14642039079022,112.36396937178847,-11.89218956863771,193.61413673618233,-10.265074157561454,234.2392204183793L-8.637958746485198,274.8643041005762" style="mix-blend-mode: multiply;"/><path d="M-264.0807635611593,76.72255416078814L-223.4762869964783,68.33029752892384C-182.87181043179734,59.93804089705953,-101.66285730243533,43.15352763333093,-59.089056499989645,76.17715262329561C-16.51525569754396,109.20077761326029,-12.576607222014578,192.03254085691825,-10.607282984249888,233.44842247874723L-8.637958746485198,274.8643041005762" style="mix-blend-mode: multiply;"/><path d="M-264.0807635611593,76.72255416078814L-226.3271132299733,66.64432359430853C-188.57346289878728,56.566093027828934,-113.06616223641531,36.409631894869726,-108.50337788056952,46.953604423297044C-103.94059352472372,57.49757695172436,-170.32232547540414,98.7419831415382,-203.51319145074433,119.36418623644512L-236.70405742608455,139.98638933135206" style="mix-blend-mode: multiply;"/><path d="M-273.779540265847,25.879786162591586L-228.72877166746014,23.822147407225415C-183.67800306907324,21.764508651859245,-93.57646587229947,17.6492311411269,-10.038682840407517,39.09808826558429C73.49910019148442,60.546945390041664,150.4731290584945,107.55993714968876,188.96014349199956,131.0664330295123L227.4471579255046,154.57292890933587" style="mix-blend-mode: multiply;"/><path d="M-273.779540265847,25.879786162591586L-229.2986016044789,19.31147899400401C-184.81766294311072,12.743171825416438,-95.85578562037448,-0.39344251175871275,-19.915735082065925,-39.08683089692004C56.02431545624262,-77.78021928208138,118.94253921012343,-142.03038171522886,150.40165108706387,-174.15546293180262L181.86076296400427,-206.28054414837638" style="mix-blend-mode: multiply;"/></g></svg>