<svg viewBox="-375,-375,750,750" xmlns="http://www.w3.org/2000/svg" xmlns:xlink="http://www.w3.org/1999/xlink"><g font-family="sans-serif" font-size="10"><g transform="rotate(-88.2) translate(275,0)"><text dy="0.31em" x="6" text-anchor="start">100luz<title>flare.100luz
0 outgoing
0 incoming</title></text></g><g transform="rotate(-84.6) translate(275,0)"><text dy="0.31em" x="6" text-anchor="start">Alex<title>flare.Alex
0 outgoing
0 incoming</title></text></g><g transform="rotate(-81) translate(275,0)"><text dy="0.31em" x="6" text-anchor="start">Alina<title>flare.Alina
0 outgoing
0 incoming</title></text></g><g transform="rotate(-77.4) translate(275,0)"><text dy="0.31em" x="6" text-anchor="start">Allen<title>flare.Allen
0 outgoing
0 incoming</title></text></g><g transform="rotate(-73.8) translate(275,0)"><text dy="0.31em" x="6" text-anchor="start">Ariel Malka<title>flare.Ariel Malka
0 outgoing
0 incoming</title></text></g><g transform="rotate(-70.2) translate(275,0)"><text dy="0.31em" x="6" text-anchor="start">Bertrand Saint-Guillain<title>flare.Bertrand Saint-Guillain
0 outgoing
0 incoming</title></text></g><g transform="rotate(-66.6) translate(275,0)"><text dy="0.31em" x="6" text-anchor="start">Brian<title>flare.Brian
0 outgoing
0 incoming</title></text></g><g transform="rotate(-63) translate(275,0)"><text dy="0.31em" x="6" text-anchor="start">Dan<title>flare.Dan
0 outgoing
0 incoming</title></text></g><g transform="rotate(-59.39999999999999) translate(275,0)"><text dy="0.31em" x="6" text-anchor="start">Dara<title>flare.Dara
0 outgoing
0 incoming</title></text></g><g transform="rotate(-55.800000000000004) translate(275,0)"><text dy="0.31em" x="6" text-anchor="start">Dimitre<title>flare.Dimitre
3 outgoing
3 incoming</title></text></g><g transform="rotate(-52.2) translate(275,0)"><text dy="0.31em" x="6" text-anchor="start">Elrick<title>flare.Elrick
0 outgoing
0 incoming</title></text></g><g transform="rotate(-48.6) translate(275,0)"><text dy="0.31em" x="6" text-anchor="start">Frederik De Bleser<title>flare.Frederik De Bleser
0 outgoing
0 incoming</title></text></g><g transform="rotate(-45) translate(275,0)"><text dy="0.31em" x="6" text-anchor="start">Glen Murphy<title>flare.Glen Murphy
15 outgoing
15 incoming</title></text></g><g transform="rotate(-41.4) translate(275,0)"><text dy="0.31em" x="6" text-anchor="start">Jeff Berg<title>flare.Jeff Berg
2 outgoing
2 incoming</title></text></g><g transform="rotate(-37.800000000000004) translate(275,0)"><text dy="0.31em" x="6" text-anchor="start">JimQode<title>flare.JimQode
0 outgoing
0 incoming</title></text></g><g transform="rotate(-34.2) translate(275,0)"><text dy="0.31em" x="6" text-anchor="start">Jordan J<title>flare.Jordan J
0 outgoing
0 incoming</title></text></g><g transform="rotate(-30.599999999999987) translate(275,0)"><text dy="0.31em" x="6" text-anchor="start">Josh Nimoy<title>flare.Josh Nimoy
2 outgoing
2 incoming</title></text></g><g transform="rotate(-27) translate(275,0)"><text dy="0.31em" x="6" text-anchor="start">Koenie<title>flare.Koenie
0 outgoing
0 incoming</title></text></g><g transform="rotate(-23.39999999999999) translate(275,0)"><text dy="0.31em" x="6" text-anchor="start">Martin<title>flare.Martin
5 outgoing
5 incoming</title></text></g><g transform="rotate(-19.799999999999997) translate(275,0)"><text dy="0.31em" x="6" text-anchor="start">Mike Davis<title>flare.Mike Davis
4 outgoing
4 incoming</title></text></g><g transform="rotate(-16.200000000000003) translate(275,0)"><text dy="0.31em" x="6" text-anchor="start">Processing<title>flare.Processing
0 outgoing
0 incoming</title></text></g><g transform="rotate(-12.600000000000009) translate(275,0)"><text dy="0.31em" x="6" text-anchor="start">REAS<title>flare.REAS
13 outgoing
13 incoming</title></text></g><g transform="rotate(-9) translate(275,0)"><text dy="0.31em" x="6" text-anchor="start">Takachin<title>flare.Takachin
0 outgoing
0 incoming</title></text></g><g transform="rotate(-5.400000000000006) translate(275,0)"><text dy="0.31em" x="6" text-anchor="start">WillisMorse<title>flare.WillisMorse
0 outgoing
0 incoming</title></text></g><g transform="rotate(-1.7999999999999972) translate(275,0)"><text dy="0.31em" x="6" text-anchor="start">Wim_Van_der_Vurst<title>flare.Wim_Van_der_Vurst
0 outgoing
0 incoming</title></text></g><g transform="rotate(1.7999999999999972) translate(275,0)"><text dy="0.31em" x="6" text-anchor="start">XemonerdX<title>flare.XemonerdX
0 outgoing
0 incoming</title></text></g><g transform="rotate(5.400000000000006) translate(275,0)"><text dy="0.31em" x="6" text-anchor="start">Xu1<title>flare.Xu1
2 outgoing
2 incoming</title></text></g><g transform="rotate(9.000000000000014) translate(275,0)"><text dy="0.31em" x="6" text-anchor="start">[rocha]<title>flare.[rocha]
0 outgoing
0 incoming</title></text></g><g transform="rotate(12.599999999999994) translate(275,0)"><text dy="0.31em" x="6" text-anchor="start">_cory<title>flare._cory
0 outgoing
0 incoming</title></text></g><g transform="rotate(16.19999999999999) translate(275,0)"><text dy="0.31em" x="6" text-anchor="start">_martin<title>flare._martin
0 outgoing
0 incoming</title></text></g><g transform="rotate(19.799999999999997) translate(275,0)"><text dy="0.31em" x="6" text-anchor="start">_warren<title>flare._warren
0 outgoing
0 incoming</title></text></g><g transform="rotate(23.400000000000006) translate(275,0)"><text dy="0.31em" x="6" text-anchor="start">adrien<title>flare.adrien
0 outgoing
0 incoming</title></text></g><g transform="rotate(27) translate(275,0)"><text dy="0.31em" x="6" text-anchor="start">anurag<title>flare.anurag
0 outgoing
0 incoming</title></text></g><g transform="rotate(30.60000000000001) translate(275,0)"><text dy="0.31em" x="6" text-anchor="start">arielm<title>flare.arielm
0 outgoing
0 incoming</title></text></g><g transform="rotate(34.19999999999999) translate(275,0)"><text dy="0.31em" x="6" text-anchor="start">artelse<title>flare.artelse
0 outgoing
0 incoming</title></text></g><g transform="rotate(37.79999999999998) translate(275,0)"><text dy="0.31em" x="6" text-anchor="start">barikan<title>flare.barikan
0 outgoing
0 incoming</title></text></g><g transform="rotate(41.400000000000006) translate(275,0)"><text dy="0.31em" x="6" text-anchor="start">benelek<title>flare.benelek
0 outgoing
0 incoming</title></text></g><g transform="rotate(45) translate(275,0)"><text dy="0.31em" x="6" text-anchor="start">bzor<title>flare.bzor
0 outgoing
0 incoming</title></text></g><g transform="rotate(48.599999999999994) translate(275,0)"><text dy="0.31em" x="6" text-anchor="start">damille<title>flare.damille
0 outgoing
0 incoming</title></text></g><g transform="rotate(52.20000000000002) translate(275,0)"><text dy="0.31em" x="6" text-anchor="start">depth<title>flare.depth
0 outgoing
0 incoming</title></text></g><g transform="rotate(55.80000000000001) translate(275,0)"><text dy="0.31em" x="6" text-anchor="start">dnm<title>flare.dnm
0 outgoing
0 incoming</title></text></g><g transform="rotate(59.400000000000006) translate(275,0)"><text dy="0.31em" x="6" text-anchor="start">ed<title>flare.ed
0 outgoing
0 incoming</title></text></g><g transform="rotate(63) translate(275,0)"><text dy="0.31em" x="6" text-anchor="start">edwardgeorge<title>flare.edwardgeorge
1 outgoing
1 incoming</title></text></g><g transform="rotate(66.6) translate(275,0)"><text dy="0.31em" x="6" text-anchor="start">eviltyler<title>flare.eviltyler
0 outgoing
0 incoming</title></text></g><g transform="rotate(70.20000000000002) translate(275,0)"><text dy="0.31em" x="6" text-anchor="start">ezdac<title>flare.ezdac
0 outgoing
0 incoming</title></text></g><g transform="rotate(73.80000000000004) translate(275,0)"><text dy="0.31em" x="6" text-anchor="start">fdb<title>flare.fdb
0 outgoing
0 incoming</title></text></g><g transform="rotate(77.40000000000003) translate(275,0)"><text dy="0.31em" x="6" text-anchor="start">fli<title>flare.fli
0 outgoing
0 incoming</title></text></g><g transform="rotate(81) translate(275,0)"><text dy="0.31em" x="6" text-anchor="start">flight404<title>flare.flight404
0 outgoing
0 incoming</title></text></g><g transform="rotate(84.6) translate(275,0)"><text dy="0.31em" x="6" text-anchor="start">forkinsocket<title>flare.forkinsocket
1 outgoing
1 incoming</title></text></g><g transform="rotate(88.20000000000002) translate(275,0)"><text dy="0.31em" x="6" text-anchor="start">franklin_mint<title>flare.franklin_mint
2 outgoing
2 incoming</title></text></g><g transform="rotate(91.80000000000001) translate(275,0)"><text dy="0.31em" x="-6" text-anchor="end" transform="rotate(180)">fry<title>flare.fry
9 outgoing
9 incoming</title></text></g><g transform="rotate(95.4) translate(275,0)"><text dy="0.31em" x="-6" text-anchor="end" transform="rotate(180)">fulk<title>flare.fulk
0 outgoing
0 incoming</title></text></g><g transform="rotate(99) translate(275,0)"><text dy="0.31em" x="-6" text-anchor="end" transform="rotate(180)">gaza<title>flare.gaza
9 outgoing
9 incoming</title></text></g><g transform="rotate(102.60000000000002) translate(275,0)"><text dy="0.31em" x="-6" text-anchor="end" transform="rotate(180)">gkoshra<title>flare.gkoshra
0 outgoing
0 incoming</title></text></g><g transform="rotate(106.20000000000002) translate(275,0)"><text dy="0.31em" x="-6" text-anchor="end" transform="rotate(180)">grumo<title>flare.grumo
0 outgoing
0 incoming</title></text></g><g transform="rotate(109.80000000000001) translate(275,0)"><text dy="0.31em" x="-6" text-anchor="end" transform="rotate(180)">gsm<title>flare.gsm
0 outgoing
0 incoming</title></text></g><g transform="rotate(113.39999999999998) translate(275,0)"><text dy="0.31em" x="-6" text-anchor="end" transform="rotate(180)">heidi<title>flare.heidi
0 outgoing
0 incoming</title></text></g><g transform="rotate(116.99999999999997) translate(275,0)"><text dy="0.31em" x="-6" text-anchor="end" transform="rotate(180)">heliodrop<title>flare.heliodrop
0 outgoing
0 incoming</title></text></g><g transform="rotate(120.6) translate(275,0)"><text dy="0.31em" x="-6" text-anchor="end" transform="rotate(180)">hurlbot<title>flare.hurlbot
0 outgoing
0 incoming</title></text></g><g transform="rotate(124.19999999999999) translate(275,0)"><text dy="0.31em" x="-6" text-anchor="end" transform="rotate(180)">ik0<title>flare.ik0
0 outgoing
0 incoming</title></text></g><g transform="rotate(127.79999999999998) translate(275,0)"><text dy="0.31em" x="-6" text-anchor="end" transform="rotate(180)">jand<title>flare.jand
0 outgoing
0 incoming</title></text></g><g transform="rotate(131.4) translate(275,0)"><text dy="0.31em" x="-6" text-anchor="end" transform="rotate(180)">jbk303<title>flare.jbk303
0 outgoing
0 incoming</title></text></g><g transform="rotate(135) translate(275,0)"><text dy="0.31em" x="-6" text-anchor="end" transform="rotate(180)">jes<title>flare.jes
2 outgoing
2 incoming</title></text></g><g transform="rotate(138.6) translate(275,0)"><text dy="0.31em" x="-6" text-anchor="end" transform="rotate(180)">jlee<title>flare.jlee
0 outgoing
0 incoming</title></text></g><g transform="rotate(142.2) translate(275,0)"><text dy="0.31em" x="-6" text-anchor="end" transform="rotate(180)">joey<title>flare.joey
0 outgoing
0 incoming</title></text></g><g transform="rotate(145.8) translate(275,0)"><text dy="0.31em" x="-6" text-anchor="end" transform="rotate(180)">kevin<title>flare.kevin
0 outgoing
0 incoming</title></text></g><g transform="rotate(149.4) translate(275,0)"><text dy="0.31em" x="-6" text-anchor="end" transform="rotate(180)">mKoser<title>flare.mKoser
0 outgoing
0 incoming</title></text></g><g transform="rotate(153) translate(275,0)"><text dy="0.31em" x="-6" text-anchor="end" transform="rotate(180)">mawend<title>flare.mawend
0 outgoing
0 incoming</title></text></g><g transform="rotate(156.60000000000005) translate(275,0)"><text dy="0.31em" x="-6" text-anchor="end" transform="rotate(180)">mccutchen<title>flare.mccutchen
1 outgoing
1 incoming</title></text></g><g transform="rotate(160.2) translate(275,0)"><text dy="0.31em" x="-6" text-anchor="end" transform="rotate(180)">meltphace<title>flare.meltphace
0 outgoing
0 incoming</title></text></g><g transform="rotate(163.79999999999998) translate(275,0)"><text dy="0.31em" x="-6" text-anchor="end" transform="rotate(180)">michaONE<title>flare.michaONE
0 outgoing
0 incoming</title></text></g><g transform="rotate(167.39999999999998) translate(275,0)"><text dy="0.31em" x="-6" text-anchor="end" transform="rotate(180)">michael<title>flare.michael
7 outgoing
7 incoming</title></text></g><g transform="rotate(171) translate(275,0)"><text dy="0.31em" x="-6" text-anchor="end" transform="rotate(180)">mmuday<title>flare.mmuday
0 outgoing
0 incoming</title></text></g><g transform="rotate(174.59999999999997) translate(275,0)"><text dy="0.31em" x="-6" text-anchor="end" transform="rotate(180)">mohn<title>flare.mohn
0 outgoing
0 incoming</title></text></g><g transform="rotate(178.20000000000005) translate(275,0)"><text dy="0.31em" x="-6" text-anchor="end" transform="rotate(180)">mr.prufrock<title>flare.mr.prufrock
4 outgoing
4 incoming</title></text></g><g transform="rotate(181.8) translate(275,0)"><text dy="0.31em" x="-6" text-anchor="end" transform="rotate(180)">mrb<title>flare.mrb
0 outgoing
0 incoming</title></text></g><g transform="rotate(185.40000000000003) translate(275,0)"><text dy="0.31em" x="-6" text-anchor="end" transform="rotate(180)">nurm<title>flare.nurm
1 outgoing
1 incoming</title></text></g><g transform="rotate(189) translate(275,0)"><text dy="0.31em" x="-6" text-anchor="end" transform="rotate(180)">oytun<title>flare.oytun
0 outgoing
0 incoming</title></text></g><g transform="rotate(192.60000000000002) translate(275,0)"><text dy="0.31em" x="-6" text-anchor="end" transform="rotate(180)">pinksalmon<title>flare.pinksalmon
0 outgoing
0 incoming</title></text></g><g transform="rotate(196.2) translate(275,0)"><text dy="0.31em" x="-6" text-anchor="end" transform="rotate(180)">pitaru<title>flare.pitaru
4 outgoing
4 incoming</title></text></g><g transform="rotate(199.8) translate(275,0)"><text dy="0.31em" x="-6" text-anchor="end" transform="rotate(180)">pokemon#1<title>flare.pokemon#1
0 outgoing
0 incoming</title></text></g><g transform="rotate(203.39999999999998) translate(275,0)"><text dy="0.31em" x="-6" text-anchor="end" transform="rotate(180)">pollux<title>flare.pollux
0 outgoing
0 incoming</title></text></g><g transform="rotate(207) translate(275,0)"><text dy="0.31em" x="-6" text-anchor="end" transform="rotate(180)">polyscope<title>flare.polyscope
0 outgoing
0 incoming</title></text></g><g transform="rotate(210.59999999999997) translate(275,0)"><text dy="0.31em" x="-6" text-anchor="end" transform="rotate(180)">primeclub<title>flare.primeclub
0 outgoing
0 incoming</title></text></g><g transform="rotate(214.2) translate(275,0)"><text dy="0.31em" x="-6" text-anchor="end" transform="rotate(180)">rlivings<title>flare.rlivings
6 outgoing
6 incoming</title></text></g><g transform="rotate(217.79999999999995) translate(275,0)"><text dy="0.31em" x="-6" text-anchor="end" transform="rotate(180)">scrap-pile<title>flare.scrap-pile
0 outgoing
0 incoming</title></text></g><g transform="rotate(221.40000000000003) translate(275,0)"><text dy="0.31em" x="-6" text-anchor="end" transform="rotate(180)">sdewitt<title>flare.sdewitt
2 outgoing
2 incoming</title></text></g><g transform="rotate(225) translate(275,0)"><text dy="0.31em" x="-6" text-anchor="end" transform="rotate(180)">seb<title>flare.seb
1 outgoing
1 incoming</title></text></g><g transform="rotate(228.59999999999997) translate(275,0)"><text dy="0.31em" x="-6" text-anchor="end" transform="rotate(180)">skloopy<title>flare.skloopy
0 outgoing
0 incoming</title></text></g><g transform="rotate(232.20000000000005) translate(275,0)"><text dy="0.31em" x="-6" text-anchor="end" transform="rotate(180)">solipsys<title>flare.solipsys
0 outgoing
0 incoming</title></text></g><g transform="rotate(235.8) translate(275,0)"><text dy="0.31em" x="-6" text-anchor="end" transform="rotate(180)">spacegirl<title>flare.spacegirl
3 outgoing
3 incoming</title></text></g><g transform="rotate(239.39999999999998) translate(275,0)"><text dy="0.31em" x="-6" text-anchor="end" transform="rotate(180)">sparky_monkey<title>flare.sparky_monkey
1 outgoing
1 incoming</title></text></g><g transform="rotate(243) translate(275,0)"><text dy="0.31em" x="-6" text-anchor="end" transform="rotate(180)">sportebois<title>flare.sportebois
9 outgoing
9 incoming</title></text></g><g transform="rotate(246.60000000000002) translate(275,0)"><text dy="0.31em" x="-6" text-anchor="end" transform="rotate(180)">svela<title>flare.svela
3 outgoing
3 incoming</title></text></g><g transform="rotate(250.19999999999993) translate(275,0)"><text dy="0.31em" x="-6" text-anchor="end" transform="rotate(180)">tomek<title>flare.tomek
0 outgoing
0 incoming</title></text></g><g transform="rotate(253.8) translate(275,0)"><text dy="0.31em" x="-6" text-anchor="end" transform="rotate(180)">toxi<title>flare.toxi
0 outgoing
0 incoming</title></text></g><g transform="rotate(257.4) translate(275,0)"><text dy="0.31em" x="-6" text-anchor="end" transform="rotate(180)">v3ga<title>flare.v3ga
0 outgoing
0 incoming</title></text></g><g transform="rotate(261) translate(275,0)"><text dy="0.31em" x="-6" text-anchor="end" transform="rotate(180)">vanwoods<title>flare.vanwoods
0 outgoing
0 incoming</title></text></g><g transform="rotate(264.6) translate(275,0)"><text dy="0.31em" x="-6" text-anchor="end" transform="rotate(180)">vent<title>flare.vent
0 outgoing
0 incoming</title></text></g><g transform="rotate(268.2) translate(275,0)"><text dy="0.31em" x="-6" text-anchor="end" transform="rotate(180)">xoff<title>flare.xoff
0 outgoing
0 incoming</title></text></g></g><g stroke="grey" fill="none"><path d="M154.5729289093359,-227.4471579255045L134.09764957164438,-193.13225513762316C113.62237023395289,-158.81735234974187,72.67181155856987,-90.1875467739792,91.63917499587315,-62.27791901706998C110.60653843317641,-34.36829126016077,189.49182398316597,-47.17884132210501,228.93446675816077,-53.58411635307713L268.37710953315553,-59.98939138404924" style="mix-blend-mode: multiply;"/><path d="M154.5729289093359,-227.4471579255045L133.1736152628087,-194.81306730565132C111.7743016162815,-162.17897668579812,68.97567432322712,-96.91079544609175,75.6225803093879,-91.41199659622443C82.26948629554867,-85.91319774635711,138.36192556092462,-140.18378128632884,166.40814519361257,-167.3190730563147L194.45436482630055,-194.45436482630058" style="mix-blend-mode: multiply;"/><path d="M154.5729289093359,-227.4471579255045L130.6349612181489,-188.94658394406534C106.69699352696188,-150.44600996262622,58.82105814458783,-73.44486199974791,31.619243535284323,10.273715004598861C4.417428925980803,93.99229200894564,-2.1102649102521975,184.42829805476092,-5.374111828368697,229.64630107766857L-8.637958746485198,274.8643041005762" style="mix-blend-mode: multiply;"/><path d="M194.45436482630055,-194.45436482630058L164.3680090979148,-161.0401797809887C134.2816533695291,-127.62599473567683,74.10894191275762,-60.79762464505308,40.26022131729333,17.42215350942638C6.411500721829036,95.64193166390584,-1.113229012328081,185.253117882241,-4.875593879406639,230.0587109914086L-8.637958746485198,274.8643041005762" style="mix-blend-mode: multiply;"/><path d="M194.45436482630055,-194.45436482630058L167.83069745141032,-165.22585097454652C141.2070300765201,-135.99733712279246,87.95969532673966,-77.54030941928436,100.28015277788215,-55.12948051224246C112.60061022902465,-32.71865160520057,190.4888598810901,-46.35402149462491,229.4329847071228,-53.17170643933707L268.37710953315553,-59.98939138404924" style="mix-blend-mode: multiply;"/><path d="M194.45436482630055,-194.45436482630058L162.54382197087918,-167.3190730563147C130.6332791154578,-140.18378128632884,66.81219340461507,-85.91319774635711,8.640977782008974,-91.41199659622443C-49.530237840597124,-96.91079544609174,-102.05158337496658,-162.1789766857981,-128.3122561421513,-194.8130673056513L-154.57292890933604,-227.44715792550446" style="mix-blend-mode: multiply;"/><path d="M194.45436482630055,-194.45436482630058L161.1749740377314,-165.43501550925575C127.89558324916221,-136.41566619221092,61.33680167202391,-78.3769675581213,-15.085719725886074,-58.7549991138692C-91.50824112379605,-39.133030669617106,-177.7945023424777,-57.92779241520257,-220.93763295181853,-67.3251732879953L-264.08076356115936,-76.72255416078804" style="mix-blend-mode: multiply;"/><path d="M194.45436482630055,-194.45436482630058L161.12126971308143,-163.7261161899453C127.78817459986232,-132.99786755359,61.121984373424105,-71.54137028087942,-16.016594686485234,-29.134077579154425C-93.15517374639457,13.27321512257057,-180.76614163977501,36.63130325330998,-224.57162558646527,48.31034731867968L-268.3771095331555,59.98939138404939" style="mix-blend-mode: multiply;"/><path d="M194.45436482630055,-194.45436482630058L166.40814519361257,-167.3190730563147C138.36192556092462,-140.18378128632884,82.26948629554867,-85.91319774635711,75.6225803093879,-91.41199659622443C68.97567432322712,-96.91079544609175,111.7743016162815,-162.17897668579812,133.1736152628087,-194.81306730565132L154.5729289093359,-227.4471579255045" style="mix-blend-mode: multiply;"/><path d="M194.45436482630055,-194.45436482630058L161.3212020564572,-163.11078770818884C128.18803928661384,-131.7672105900771,61.92171374692714,-69.08005635385366,-12.551100734638766,-18.46838389537613C-87.02391521620467,32.14328856310139,-169.70321863964975,70.67947924383299,-211.04287035137233,89.94757458419879L-252.38252206309485,109.21566992456458" style="mix-blend-mode: multiply;"/><path d="M194.45436482630055,-194.45436482630058L162.72615371560397,-167.43478430007195C130.99794260490742,-140.41520377384333,67.54152038351428,-86.37604272138611,11.801394690572167,-93.41765815468345C-43.938731002369934,-100.45927358798077,-91.96256016686101,-168.58166550703265,-115.97447474910655,-202.64286146655863L-139.9863893313521,-236.70405742608455" style="mix-blend-mode: multiply;"/><path d="M194.45436482630055,-194.45436482630058L167.89822783556897,-164.15248625521352C141.34209084483737,-133.85060768412646,88.22981686337424,-73.24685054195231,101.45067943663197,-36.52449204380365C114.67154200988972,0.1978664543450274,194.22554113786836,13.03882630846824,234.0025407018577,19.459306235529848L273.779540265847,25.879786162591454" style="mix-blend-mode: multiply;"/><path d="M194.45436482630055,-194.45436482630058L161.63289410817706,-166.4081451936126C128.8114233900536,-138.36192556092462,63.168481953806655,-82.26948629554869,-7.148438504827524,-75.6225803093879C-77.4653589634617,-68.97567432322712,-152.4562584444831,-111.7743016162815,-189.9517081849938,-133.1736152628087L-227.4471579255045,-154.5729289093359" style="mix-blend-mode: multiply;"/><path d="M194.45436482630055,-194.45436482630058L167.0544903841006,-166.74924311929595C139.65461594190063,-139.04412141229133,84.8548670575007,-83.6338779982821,86.82589694451333,-81.53494435456605C88.79692683152598,-79.43601071085,147.53873548995116,-130.64838683742713,176.90963981916377,-156.2545749007157L206.28054414837638,-181.86076296400427" style="mix-blend-mode: multiply;"/><path d="M194.45436482630055,-194.45436482630058L167.63076510803458,-165.84117945630297C140.80716538976858,-137.22799408630536,87.15996595323662,-80.00162334631013,96.81465882603567,-65.79517419602081C106.46935169883471,-51.58872504573148,179.42593688096477,-80.40219748514806,215.90422947202978,-94.80893370485636L252.38252206309483,-109.21566992456465" style="mix-blend-mode: multiply;"/><path d="M194.45436482630055,-194.45436482630058L162.9153912393912,-167.5388185091434C131.37641765248182,-140.62327219198627,68.2984704786631,-86.79217955767194,15.081511769550445,-95.22091777858871C-38.135446939562215,-103.64965599950547,-81.4914171839688,-174.3382250756533,-103.16940230617212,-209.68250961372723L-124.84738742837541,-245.02679415180114" style="mix-blend-mode: multiply;"/><path d="M194.45436482630055,-194.45436482630058L167.71026122552604,-165.64039518308908C140.9661576247515,-136.82642553987762,87.47795042320247,-79.19848625345465,98.19259152922105,-62.31491346031374C108.90723263523962,-45.43134066717283,183.82472204882583,-69.29213436731399,221.2834667556189,-81.22253121738457L258.742211462412,-93.15292806745515" style="mix-blend-mode: multiply;"/><path d="M194.45436482630055,-194.45436482630058L163.9382401086701,-161.08080491145012C133.42211539103963,-127.70724499659967,72.3898659557787,-60.96012516689874,32.81089217038471,16.717984581428496C-6.768081615009293,94.39609432975574,-24.89377975053637,183.0051939967093,-33.95662881829991,227.3097438301861L-43.01947788606345,271.61429366366286" style="mix-blend-mode: multiply;"/><path d="M206.28054414837638,-181.86076296400427L171.6358707847662,-155.75605695175364C136.99119742115604,-129.65135093950303,67.70185069393573,-77.44193891500177,-4.586099651711095,-72.89396657255703C-76.87404999735791,-68.34599423011231,-152.1606039614312,-111.45946156972411,-189.80388094346787,-133.01619523953L-227.4471579255045,-154.5729289093359" style="mix-blend-mode: multiply;"/><path d="M206.28054414837638,-181.86076296400427L176.90963981916377,-156.2545749007157C147.53873548995116,-130.64838683742713,88.79692683152598,-79.43601071085,86.82589694451333,-81.53494435456605C84.8548670575007,-83.6338779982821,139.65461594190063,-139.04412141229133,167.0544903841006,-166.74924311929595L194.45436482630055,-194.45436482630058" style="mix-blend-mode: multiply;"/><path d="M236.7040574260845,-139.9863893313521L198.6515895633751,-121.46798923633281C160.59912170066573,-102.94958914131355,84.49418597524695,-65.91278895127503,24.235611832836966,-83.41952308801653C-36.02296230957302,-100.92625722475805,-80.43517486897422,-172.9765256882796,-102.6412811486748,-209.0016599200404L-124.84738742837541,-245.02679415180114" style="mix-blend-mode: multiply;"/><path d="M236.7040574260845,-139.9863893313521L196.85746803706536,-117.65528691713467C157.0108786480462,-95.3241845029173,77.31769987000794,-50.661979674482495,-6.862494623198714,-17.33268288858225C-91.04268911640537,15.996613897317994,-179.70989932478042,37.99300264068369,-224.04350442896794,48.99119701236654L-268.3771095331555,59.98939138404939" style="mix-blend-mode: multiply;"/><path d="M252.38252206309483,-109.21566992456465L211.04287035137227,-94.80893370485636C169.70321863964975,-80.40219748514806,87.02391521620466,-51.58872504573148,12.551100734638746,-65.7951741960208C-61.92171374692716,-80.0016233463101,-128.18803928661387,-137.2279940863053,-161.32120205645722,-165.8411794563029L-194.4543648263006,-194.45436482630052" style="mix-blend-mode: multiply;"/><path d="M252.38252206309483,-109.21566992456465L211.9129575688463,-95.44108907142511C171.44339307459788,-81.66650821828559,90.50426408610092,-54.11734651200651,27.632612504189208,-76.75253388321259C-35.2390390777225,-99.38772125441868,-80.04321325304896,-172.20725770310992,-102.4453003407122,-208.61702592745553L-124.84738742837541,-245.02679415180114" style="mix-blend-mode: multiply;"/><path d="M252.38252206309483,-109.21566992456465L216.70782755498115,-93.5426657453708C181.03313304686756,-77.86966156617693,109.68374403064028,-46.52365320778921,110.74369226385981,-43.84652956493763C111.80364049707934,-41.16940592208604,185.27292597974568,-67.1611669947706,222.00756872107885,-80.15704753111287L258.742211462412,-93.15292806745515" style="mix-blend-mode: multiply;"/><path d="M252.38252206309483,-109.21566992456465L212.93580643812524,-88.9830754737318C173.48909081315568,-68.75048102289898,94.5956595632165,-28.2852921212333,45.36199290502347,35.18636847680462C-3.871673753169579,98.65802907484253,-23.44557581961651,185.1361613692527,-33.23252685283998,228.37522751645778L-43.01947788606345,271.61429366366286" style="mix-blend-mode: multiply;"/><path d="M252.38252206309483,-109.21566992456465L215.90422947202978,-94.80893370485636C179.42593688096477,-80.40219748514806,106.46935169883471,-51.58872504573148,96.81465882603567,-65.79517419602081C87.15996595323662,-80.00162334631013,140.80716538976858,-137.22799408630536,167.63076510803458,-165.84117945630297L194.45436482630055,-194.45436482630058" style="mix-blend-mode: multiply;"/><path d="M258.742211462412,-93.15292806745515L222.0075687210788,-80.15704753111287C185.27292597974568,-67.1611669947706,111.80364049707934,-41.16940592208604,110.74369226385981,-43.84652956493763C109.68374403064028,-46.52365320778921,181.03313304686756,-77.86966156617693,216.7078275549812,-93.5426657453708L252.38252206309483,-109.21566992456465" style="mix-blend-mode: multiply;"/><path d="M258.742211462412,-93.15292806745515L217.29219485243541,-81.85468658395332C175.8421782424589,-70.55644510045151,92.94214502250583,-47.95996213344787,29.01054520737459,-73.27227314750553C-34.921054607756645,-98.5845841615632,-79.88422101806603,-171.80568915668218,-102.36580422322072,-208.41624165424165L-124.84738742837541,-245.02679415180114" style="mix-blend-mode: multiply;"/><path d="M258.742211462412,-93.15292806745515L218.31504372171435,-75.39667298626003C177.88787598101672,-57.64041790506491,97.03354049962144,-22.127907742674665,46.73992560820886,38.66662921251167C-3.553689283203719,99.46116616769801,-23.286583584633586,185.53772991568044,-33.153030735348516,228.57601178967164L-43.01947788606345,271.61429366366286" style="mix-blend-mode: multiply;"/><path d="M258.742211462412,-93.15292806745515L221.2834667556189,-81.22253121738457C183.82472204882583,-69.29213436731399,108.90723263523962,-45.43134066717283,98.19259152922105,-62.31491346031374C87.47795042320247,-79.19848625345465,140.9661576247515,-136.82642553987762,167.71026122552604,-165.64039518308908L194.45436482630055,-194.45436482630058" style="mix-blend-mode: multiply;"/><path d="M268.37710953315553,-59.98939138404924L223.64759127762963,-49.991159486707694C178.9180730221037,-39.992927589366154,89.45903651105185,-19.996463794683073,1.8947806286936004e-14,3.197442310920451e-14C-89.45903651105182,19.996463794683137,-178.91807302210364,39.99292758936627,-223.64759127762954,49.99115948670783L-268.3771095331555,59.98939138404939" style="mix-blend-mode: multiply;"/><path d="M268.37710953315553,-59.98939138404924L228.93446675816077,-53.58411635307712C189.49182398316597,-47.17884132210501,110.60653843317641,-34.36829126016077,91.63917499587315,-62.27791901706998C72.67181155856987,-90.1875467739792,113.62237023395289,-158.81735234974187,134.09764957164438,-193.13225513762316L154.5729289093359,-227.4471579255045" style="mix-blend-mode: multiply;"/><path d="M268.37710953315553,-59.98939138404924L229.43298470712284,-53.17170643933707C190.4888598810901,-46.35402149462491,112.60061022902465,-32.71865160520057,100.28015277788215,-55.12948051224246C87.95969532673966,-77.54030941928436,141.2070300765201,-135.99733712279246,167.83069745141032,-165.22585097454652L194.45436482630055,-194.45436482630058" style="mix-blend-mode: multiply;"/><path d="M268.37710953315553,-59.98939138404924L225.07014353542738,-53.58411635307712C181.7631775376992,-47.178841322105,95.14924554224281,-34.36829126016077,24.657572468494234,-62.27791901706996C-45.834100605254356,-90.18754677397918,-100.20351475729518,-158.8173523497418,-127.3882218333156,-193.13225513762313L-154.572928909336,-227.44715792550446" style="mix-blend-mode: multiply;"/><path d="M268.37710953315553,-59.98939138404924L223.7012956022796,-51.70005880601817C179.02548167140358,-43.41072622798709,89.67385380965165,-26.832061071924944,0.9308749605991693,-29.620921534714743C-87.81210388845331,-32.409781997504545,-175.94643372480633,-54.56616807914629,-220.01359864298283,-65.64436111996717L-264.08076356115936,-76.72255416078804" style="mix-blend-mode: multiply;"/><path d="M268.37710953315553,-59.98939138404924L227.32580247382646,-47.31878262568522C186.27449541449735,-34.64817386732122,104.17188129583919,-9.306956350593191,63.755660734078525,46.32119892438951C23.339440172317833,101.94935419937222,24.60961316745464,187.8644472326096,25.244699665023045,230.82199374922834L25.879786162591447,273.779540265847" style="mix-blend-mode: multiply;"/><path d="M268.37710953315553,-59.98939138404924L225.637109272737,-53.895808404797C182.89710901231845,-47.80222542554477,97.41710849148139,-35.61505946704029,34.48497858186137,-67.68058124688122C-28.447151327758647,-99.74610302672215,-68.83141062616163,-176.0643125449085,-89.02354027536312,-214.22341730400169L-109.2156699245646,-252.38252206309485" style="mix-blend-mode: multiply;"/><path d="M268.37710953315553,-59.98939138404924L226.4645616732183,-47.34584820821252C184.55201381328098,-34.70230503237582,100.72691809340644,-9.415218680702397,48.82748685686996,45.85206216058295C-3.0719443796665424,101.1193430018683,-23.045711132864994,186.36681833276558,-33.032594509464225,228.9905559982142L-43.01947788606345,271.61429366366286" style="mix-blend-mode: multiply;"/><path d="M268.37710953315553,-59.98939138404924L223.56650134553686,-50.63305239467724C178.75589315791817,-41.27671340530526,89.1346767826808,-22.56403542656128,-1.4055588229411455,-11.126143738138857C-91.9457944285631,0.3117479502835622,-183.40504926456967,4.474853348384422,-229.13467668257292,6.5564060474348524L-274.8643041005762,8.637958746485282" style="mix-blend-mode: multiply;"/><path d="M268.37710953315553,-59.98939138404924L224.15921567272525,-52.673188490375004C179.94132181229497,-45.35698559670079,91.5055340914344,-30.72457980935234,8.868156181657719,-46.48850273023345C-73.76922172811895,-62.25242565111456,-150.60818982681172,-108.41267728022524,-189.02767387615813,-131.49280309478056L-227.4471579255045,-154.5729289093359" style="mix-blend-mode: multiply;"/><path d="M268.37710953315553,-59.98939138404924L226.89433066246298,-47.305223077751116C185.41155179177045,-34.62105477145298,102.44599405038537,-9.252718158856732,56.27681600377858,46.55623108858084C10.107637957171788,102.36518033601841,0.7348396053432941,188.61474221829732,-3.9515595705709523,231.73952315943674L-8.637958746485198,274.8643041005762" style="mix-blend-mode: multiply;"/><path d="M268.37710953315553,-59.98939138404924L228.56289748964878,-47.6781919521108C188.74868544614196,-35.36699252017237,109.12026135912839,-10.744593656295486,85.1986410083317,40.09143726634625C61.27702065753501,90.92746818898797,93.0622040429552,167.97713117039456,108.95479573566529,206.50196266109788L124.84738742837538,245.02679415180114" style="mix-blend-mode: multiply;"/><path d="M268.37710953315553,-59.98939138404924L230.42454940011714,-50.41752955197592C192.47198926707873,-40.84566771990261,116.56686900100198,-21.70194405575597,117.4672741231172,-7.390414464649187C118.36767924523247,6.921115126457596,196.0736097555397,16.400450644524526,234.92657501069334,21.140118403557988L273.779540265847,25.879786162591454" style="mix-blend-mode: multiply;"/><path d="M273.779540265847,25.879786162591454L234.0025407018577,19.459306235529848C194.22554113786836,13.03882630846824,114.67154200988972,0.1978664543450286,101.45067943663197,-36.52449204380364C88.22981686337424,-73.24685054195231,141.34209084483737,-133.85060768412646,167.89822783556897,-164.15248625521352L194.45436482630055,-194.45436482630058" style="mix-blend-mode: multiply;"/><path d="M273.779540265847,25.879786162591454L234.92657501069337,21.140118403557988C196.0736097555397,16.400450644524526,118.36767924523247,6.921115126457596,117.4672741231172,-7.390414464649187C116.56686900100198,-21.70194405575597,192.47198926707873,-40.84566771990261,230.42454940011714,-50.41752955197592L268.37710953315553,-59.98939138404924" style="mix-blend-mode: multiply;"/><path d="M124.84738742837538,245.02679415180114L108.9547957356653,206.50196266109785C93.0622040429552,167.97713117039456,61.27702065753501,90.92746818898797,85.1986410083317,40.09143726634624C109.12026135912839,-10.74459365629548,188.74868544614196,-35.36699252017235,228.56289748964875,-47.6781919521108L268.37710953315553,-59.989391384049235" style="mix-blend-mode: multiply;"/><path d="M25.879786162591447,273.779540265847L25.244699665023045,230.82199374922834C24.60961316745464,187.8644472326096,23.339440172317836,101.94935419937222,63.75566073407851,46.32119892438953C104.17188129583919,-9.306956350593188,186.27449541449735,-34.64817386732121,227.32580247382646,-47.31878262568522L268.37710953315553,-59.989391384049235" style="mix-blend-mode: multiply;"/><path d="M8.637958746485266,274.8643041005762L5.7456810968807615,229.42655562483984C2.853403447276257,183.9888071491035,-2.9311518519327517,93.11331019763082,-25.178709547742866,6.464793822234593C-47.42626724355298,-80.18372255316163,-86.1368273359642,-162.6052583524814,-105.4921073821698,-203.81602625214126L-124.84738742837541,-245.02679415180114" style="mix-blend-mode: multiply;"/><path d="M8.637958746485266,274.8643041005762L7.19829895540439,235.92519435299457C5.758639164323512,196.9860846054129,2.879319582161759,119.10786511024969,1.4506914188435378e-14,119.10786511024969C-2.8793195821617292,119.10786511024969,-5.758639164323465,196.9860846054129,-7.19829895540433,235.92519435299457L-8.637958746485198,274.8643041005762" style="mix-blend-mode: multiply;"/><path d="M-8.637958746485198,274.8643041005762L-9.884780241590102,230.2161310146873C-11.131601736695004,185.56795792879845,-13.62524472690481,96.27161175702066,-46.56567562722,20.150767246257246C-79.5061065275352,-55.970077264506166,-142.89332533795576,-118.91542011425524,-174.58693474316604,-150.38809153912976L-206.28054414837635,-181.8607629640043" style="mix-blend-mode: multiply;"/><path d="M-8.637958746485198,274.8643041005762L-9.736953000064153,234.92007011206613C-10.835947253643111,194.97583612355606,-13.033935760801022,115.0873681465359,-44.00333677410358,101.68571160082331C-74.97273778740613,88.28405505511073,-134.71355130685336,141.36920994070564,-164.58395806657694,167.91178738350314L-194.45436482630055,194.4543648263006" style="mix-blend-mode: multiply;"/><path d="M-8.637958746485198,274.8643041005762L-4.875593879406639,230.0587109914086C-1.113229012328081,185.253117882241,6.411500721829036,95.64193166390585,40.26022131729333,17.422153509426384C74.10894191275762,-60.79762464505308,134.2816533695291,-127.62599473567683,164.3680090979148,-161.0401797809887L194.45436482630055,-194.45436482630058" style="mix-blend-mode: multiply;"/><path d="M-8.637958746485198,274.8643041005762L-8.86686578259009,229.42655562483984C-9.09577281869498,183.9888071491035,-9.553586890904763,93.11331019763082,-28.92182500455313,6.464793822234593C-48.29006311820151,-80.18372255316163,-86.56872527328846,-162.6052583524814,-105.70805635083194,-203.81602625214126L-124.84738742837541,-245.02679415180114" style="mix-blend-mode: multiply;"/><path d="M-8.637958746485198,274.8643041005762L-7.19829895540433,235.92519435299457C-5.758639164323465,196.9860846054129,-2.8793195821617292,119.10786511024969,1.4506914188435378e-14,119.10786511024969C2.879319582161759,119.10786511024969,5.758639164323512,196.9860846054129,7.19829895540439,235.92519435299457L8.637958746485266,274.8643041005762" style="mix-blend-mode: multiply;"/><path d="M-8.637958746485198,274.8643041005762L-3.951559570570952,231.73952315943674C0.7348396053432941,188.61474221829732,10.107637957171788,102.36518033601841,56.27681600377858,46.55623108858085C102.44599405038537,-9.252718158856728,185.41155179177045,-34.62105477145298,226.89433066246298,-47.3052230777511L268.37710953315553,-59.989391384049235" style="mix-blend-mode: multiply;"/><path d="M-8.637958746485198,274.8643041005762L-5.374111828368697,229.64630107766857C-2.1102649102521975,184.42829805476092,4.417428925980803,93.99229200894565,31.619243535284323,10.273715004598865C58.82105814458783,-73.44486199974791,106.69699352696188,-150.44600996262622,130.6349612181489,-188.9465839440654L154.5729289093359,-227.4471579255045" style="mix-blend-mode: multiply;"/><path d="M-8.637958746485198,274.8643041005762L-10.60728298424989,231.53035862472748C-12.57660722201458,188.19641314887883,-16.51525569754396,101.52852219718147,-59.08905649998965,42.9307124869541C-101.66285730243534,-15.667097223273268,-182.87181043179737,-46.194825692030655,-223.47628699647836,-61.45868992640934L-264.08076356115936,-76.72255416078804" style="mix-blend-mode: multiply;"/><path d="M-8.637958746485198,274.8643041005762L-10.728517693058485,232.16589322470497C-12.819076639631772,189.46748234883376,-17.000194532778345,104.0706605970913,-61.19045811933864,53.94664555323002C-105.38072170589895,3.8226305093687443,-189.58013098587298,-11.028577826611368,-231.67983562585997,-18.454181994601427L-273.779540265847,-25.879786162591483" style="mix-blend-mode: multiply;"/><path d="M-43.01947788606345,271.61429366366286L-37.752504252685725,226.58564186472617C-32.485530619308,181.55699006578945,-21.951583352552557,91.49968646791602,-32.98428202563608,4.166883846789726C-44.0169806987196,-83.16591877433656,-76.6163253116421,-167.77422041871571,-92.91599761810335,-210.0783712409053L-109.2156699245646,-252.38252206309488" style="mix-blend-mode: multiply;"/><path d="M-43.01947788606345,271.61429366366286L-33.032594509464225,228.9905559982142C-23.045711132864994,186.36681833276558,-3.0719443796665424,101.1193430018683,48.82748685686996,45.85206216058295C100.72691809340644,-9.415218680702399,184.55201381328098,-34.70230503237582,226.4645616732183,-47.34584820821252L268.37710953315553,-59.98939138404924" style="mix-blend-mode: multiply;"/><path d="M-43.01947788606345,271.61429366366286L-39.82311217988587,229.84839787484592C-36.62674647370829,188.08250208602894,-30.234015061353134,104.55071050839503,-68.87481943043859,60.72132135553209C-107.51562379952405,16.891932202669167,-191.18996395005013,12.764945474577223,-233.02713402531313,10.70145211053125L-274.8643041005762,8.637958746485278" style="mix-blend-mode: multiply;"/><path d="M-43.01947788606345,271.61429366366286L-39.23039785269747,227.80826177914813C-35.441317819331495,184.00222989463342,-27.86315775259955,96.39016612560397,-58.60110442583973,25.35896236343751C-89.3390510990799,-45.67224139872895,-158.3931045122922,-100.12258515403242,-192.92013121889838,-127.34775703168417L-227.4471579255045,-154.5729289093359" style="mix-blend-mode: multiply;"/><path d="M-43.01947788606345,271.61429366366286L-39.74202224779311,230.49029078281546C-36.46456660952277,189.36628790196804,-29.909655332982098,107.11828214027322,-67.46926060749745,71.84746509367099C-105.02886588201278,36.576648047068744,-186.70298770758413,48.28301971555907,-227.54004862036982,54.13620554980423L-268.3771095331555,59.98939138404939" style="mix-blend-mode: multiply;"/><path d="M-43.01947788606345,271.61429366366286L-33.23252685283998,228.37522751645778C-23.44557581961651,185.1361613692527,-3.871673753169579,98.65802907484253,45.36199290502347,35.18636847680461C94.5956595632165,-28.28529212123331,173.48909081315568,-68.750481022899,212.93580643812524,-88.98307547373183L252.38252206309483,-109.21566992456466" style="mix-blend-mode: multiply;"/><path d="M-43.01947788606345,271.61429366366286L-37.94790072148336,226.67758846361733C-32.87632355690327,181.74088326357176,-22.733169227743094,91.86747286348071,-36.37115415146176,5.760624894236703C-50.00913907518042,-80.3462230750073,-87.42826325177792,-162.68650861340421,-106.13782534007667,-203.85665138260268L-124.84738742837541,-245.02679415180114" style="mix-blend-mode: multiply;"/><path d="M-43.01947788606345,271.61429366366286L-33.153030735348516,228.57601178967164C-23.286583584633586,185.53772991568044,-3.553689283203719,99.46116616769801,46.73992560820886,38.66662921251167C97.03354049962144,-22.127907742674665,177.88787598101672,-57.64041790506491,218.31504372171435,-75.39667298626003L258.742211462412,-93.15292806745515" style="mix-blend-mode: multiply;"/><path d="M-43.01947788606345,271.61429366366286L-33.95662881829991,227.3097438301861C-24.89377975053637,183.0051939967093,-6.768081615009293,94.39609432975573,32.810892170384705,16.717984581428496C72.3898659557787,-60.96012516689874,133.42211539103963,-127.70724499659967,163.9382401086701,-161.08080491145012L194.45436482630055,-194.45436482630058" style="mix-blend-mode: multiply;"/><path d="M-194.45436482630055,194.4543648263006L-167.0544903841006,162.20272404519588C-139.65461594190063,129.95108326409115,-84.8548670575007,65.44780170188169,-86.82589694451333,2.728613736830866C-88.79692683152597,-59.99057422821995,-147.53873548995116,-120.92566859611212,-176.90963981916377,-151.3932157800582L-206.28054414837635,-181.8607629640043" style="mix-blend-mode: multiply;"/><path d="M-194.45436482630055,194.4543648263006L-164.58395806657694,167.91178738350314C-134.71355130685336,141.36920994070564,-74.97273778740613,88.28405505511073,-44.00333677410358,101.68571160082331C-13.033935760801022,115.0873681465359,-10.835947253643111,194.97583612355606,-9.736953000064153,234.92007011206613L-8.637958746485198,274.8643041005762" style="mix-blend-mode: multiply;"/><path d="M-252.38252206309485,109.21566992456458L-211.04287035137233,89.94757458419878C-169.70321863964975,70.67947924383299,-87.02391521620467,32.14328856310139,-12.551100734638766,-18.468383895376135C61.92171374692713,-69.08005635385366,128.18803928661384,-131.76721059007713,161.3212020564572,-163.11078770818884L194.45436482630055,-194.45436482630058" style="mix-blend-mode: multiply;"/><path d="M-268.3771095331555,59.98939138404939L-223.64759127762954,49.99115948670783C-178.91807302210364,39.99292758936627,-89.45903651105182,19.996463794683137,9.473903143468002e-15,3.315866100213801e-14C89.45903651105185,-19.996463794683073,178.9180730221037,-39.992927589366154,223.64759127762963,-49.991159486707694L268.37710953315553,-59.98939138404924" style="mix-blend-mode: multiply;"/><path d="M-268.3771095331555,59.98939138404939L-230.4381089480512,50.84900136333951C-192.49910836294694,41.70861134262963,-116.6211071927384,23.427831301209864,-117.70230628730853,14.86925919494918C-118.78350538187864,6.310687088688494,-196.82390474122744,7.474322917586888,-235.8441044209018,8.056140832036085L-274.8643041005762,8.637958746485282" style="mix-blend-mode: multiply;"/><path d="M-268.3771095331555,59.98939138404939L-229.84539462086278,48.80886526764175C-191.31367970857013,37.628339151234094,-114.25024988398484,15.267286918418804,-107.42859128270966,-20.49309979714541C-100.6069326814345,-56.25348651270963,-164.02704530346952,-105.41320771102276,-195.737101614487,-129.99306831017932L-227.4471579255045,-154.5729289093359" style="mix-blend-mode: multiply;"/><path d="M-268.3771095331555,59.98939138404939L-227.5400486203698,54.13620554980423C-186.70298770758413,48.28301971555907,-105.02886588201278,36.576648047068744,-67.46926060749743,71.84746509367099C-29.909655332982098,107.11828214027322,-36.46456660952277,189.36628790196804,-39.74202224779311,230.49029078281546L-43.01947788606345,271.61429366366286" style="mix-blend-mode: multiply;"/><path d="M-268.3771095331555,59.98939138404939L-224.57162558646522,48.310347318679696C-180.76614163977501,36.63130325330998,-93.15517374639457,13.273215122570571,-16.016594686485234,-29.13407757915442C61.121984373424105,-71.54137028087942,127.78817459986232,-132.99786755359,161.12126971308143,-163.7261161899453L194.45436482630055,-194.45436482630058" style="mix-blend-mode: multiply;"/><path d="M-268.3771095331555,59.98939138404939L-224.04350442896794,48.99119701236654C-179.70989932478042,37.99300264068369,-91.04268911640537,15.996613897317994,-6.862494623198718,-17.33268288858225C77.31769987000794,-50.661979674482495,157.0108786480462,-95.3241845029173,196.85746803706536,-117.65528691713469L236.7040574260845,-139.9863893313521" style="mix-blend-mode: multiply;"/><path d="M-268.3771095331555,59.98939138404939L-228.5628974896487,47.67819195211093C-188.74868544614193,35.36699252017247,-109.12026135912838,10.74459365629554,-85.1986410083317,-40.09143726634621C-61.27702065753502,-90.92746818898797,-93.06220404295522,-167.97713117039456,-108.95479573566531,-206.50196266109785L-124.84738742837541,-245.02679415180114" style="mix-blend-mode: multiply;"/><path d="M-274.8643041005762,8.637958746485282L-235.33248002580618,5.374111828368768C-195.80065595103613,2.1102649102522553,-116.73700780149609,-4.417428925980771,-108.8341501056508,-31.6192435352843C-100.93129240980555,-58.82105814458783,-164.18922516765502,-106.69699352696186,-195.81819154657978,-130.6349612181489L-227.4471579255045,-154.5729289093359" style="mix-blend-mode: multiply;"/><path d="M-274.8643041005762,8.637958746485282L-229.13467668257292,6.556406047434852C-183.40504926456967,4.474853348384422,-91.94579442856309,0.3117479502835622,-1.405558822941136,-11.126143738138857C89.13467678268081,-22.56403542656128,178.75589315791817,-41.27671340530526,223.56650134553686,-50.63305239467726L268.37710953315553,-59.98939138404924" style="mix-blend-mode: multiply;"/><path d="M-274.8643041005762,8.637958746485282L-233.02713402531313,10.701452110531255C-191.18996395005013,12.764945474577226,-107.51562379952405,16.89193220266917,-68.87481943043859,60.7213213555321C-30.234015061353134,104.55071050839503,-36.62674647370829,188.08250208602894,-39.82311217988587,229.84839787484592L-43.01947788606345,271.61429366366286" style="mix-blend-mode: multiply;"/><path d="M-274.8643041005762,8.637958746485282L-235.8441044209018,8.056140832036085C-196.82390474122744,7.474322917586888,-118.78350538187864,6.310687088688494,-117.70230628730853,14.86925919494918C-116.6211071927384,23.427831301209864,-192.49910836294694,41.70861134262963,-230.4381089480512,50.84900136333951L-268.3771095331555,59.98939138404939" style="mix-blend-mode: multiply;"/><path d="M-273.779540265847,-25.879786162591486L-231.67983562586002,-18.454181994601427C-189.58013098587298,-11.028577826611373,-105.38072170589895,3.8226305093687407,-61.19045811933864,53.94664555323002C-17.000194532778345,104.0706605970913,-12.819076639631772,189.46748234883376,-10.728517693058485,232.16589322470497L-8.637958746485198,274.8643041005762" style="mix-blend-mode: multiply;"/><path d="M-264.08076356115936,-76.72255416078804L-225.30047412351396,-67.73758320173535C-186.5201846858686,-58.752612242682666,-108.9596058105779,-40.78267032457731,-90.70830003527401,-65.90343761869671C-72.4569942599701,-91.02420491281612,-113.51496158465307,-159.23568141916027,-134.04394524699453,-193.34141967233236L-154.572928909336,-227.44715792550446" style="mix-blend-mode: multiply;"/><path d="M-264.08076356115936,-76.72255416078804L-220.93763295181853,-67.3251732879953C-177.7945023424777,-57.92779241520257,-91.50824112379605,-39.133030669617106,-15.085719725886074,-58.7549991138692C61.33680167202391,-78.3769675581213,127.89558324916221,-136.41566619221092,161.1749740377314,-165.43501550925575L194.45436482630055,-194.45436482630058" style="mix-blend-mode: multiply;"/><path d="M-264.08076356115936,-76.72255416078804L-220.01359864298283,-65.64436111996717C-175.94643372480633,-54.56616807914629,-87.81210388845331,-32.409781997504545,0.9308749605991693,-29.620921534714743C89.67385380965165,-26.832061071924944,179.02548167140358,-43.41072622798709,223.7012956022796,-51.70005880601817L268.37710953315553,-59.98939138404924" style="mix-blend-mode: multiply;"/><path d="M-264.08076356115936,-76.72255416078804L-223.47628699647836,-61.45868992640934C-182.87181043179737,-46.194825692030655,-101.66285730243534,-15.667097223273268,-59.08905649998965,42.9307124869541C-16.51525569754396,101.52852219718147,-12.57660722201458,188.19641314887883,-10.60728298424989,231.53035862472748L-8.637958746485198,274.8643041005762" style="mix-blend-mode: multiply;"/><path d="M-227.4471579255045,-154.5729289093359L-195.81819154657978,-130.6349612181489C-164.18922516765502,-106.69699352696186,-100.93129240980555,-58.82105814458783,-108.83415010565083,-31.6192435352843C-116.73700780149609,-4.417428925980771,-195.80065595103613,2.1102649102522553,-235.33248002580618,5.374111828368768L-274.8643041005762,8.637958746485282" style="mix-blend-mode: multiply;"/><path d="M-227.4471579255045,-154.5729289093359L-189.02767387615813,-131.49280309478056C-150.60818982681172,-108.41267728022524,-73.76922172811895,-62.25242565111456,8.868156181657724,-46.48850273023345C91.5055340914344,-30.72457980935234,179.94132181229497,-45.35698559670079,224.15921567272525,-52.673188490375004L268.37710953315553,-59.98939138404924" style="mix-blend-mode: multiply;"/><path d="M-227.4471579255045,-154.5729289093359L-192.92013121889838,-127.34775703168417C-158.3931045122922,-100.12258515403244,-89.3390510990799,-45.67224139872895,-58.60110442583973,25.35896236343751C-27.863157752599548,96.39016612560397,-35.441317819331495,184.00222989463342,-39.23039785269747,227.80826177914813L-43.01947788606345,271.61429366366286" style="mix-blend-mode: multiply;"/><path d="M-227.4471579255045,-154.5729289093359L-195.737101614487,-129.99306831017932C-164.02704530346952,-105.41320771102276,-100.6069326814345,-56.25348651270963,-107.42859128270966,-20.493099797145415C-114.25024988398484,15.267286918418804,-191.31367970857013,37.628339151234094,-229.84539462086278,48.80886526764175L-268.3771095331555,59.98939138404939" style="mix-blend-mode: multiply;"/><path d="M-227.4471579255045,-154.5729289093359L-189.9517081849938,-133.1736152628087C-152.4562584444831,-111.7743016162815,-77.4653589634617,-68.97567432322712,-7.148438504827529,-75.6225803093879C63.168481953806655,-82.26948629554869,128.8114233900536,-138.36192556092462,161.63289410817706,-166.4081451936126L194.45436482630055,-194.45436482630058" style="mix-blend-mode: multiply;"/><path d="M-227.4471579255045,-154.5729289093359L-189.80388094346787,-133.01619523953C-152.1606039614312,-111.45946156972411,-76.87404999735791,-68.34599423011231,-4.586099651711095,-72.89396657255703C67.70185069393573,-77.44193891500177,136.99119742115604,-129.65135093950303,171.6358707847662,-155.75605695175364L206.28054414837638,-181.86076296400427" style="mix-blend-mode: multiply;"/><path d="M-206.28054414837635,-181.8607629640043L-174.58693474316604,-150.38809153912976C-142.89332533795576,-118.91542011425524,-79.5061065275352,-55.970077264506166,-46.56567562722,20.150767246257242C-13.62524472690481,96.27161175702065,-11.131601736695004,185.56795792879845,-9.884780241590102,230.2161310146873L-8.637958746485198,274.8643041005762" style="mix-blend-mode: multiply;"/><path d="M-206.28054414837635,-181.8607629640043L-176.90963981916374,-151.3932157800582C-147.53873548995116,-120.92566859611212,-88.79692683152597,-59.99057422821995,-86.82589694451333,2.7286137368308707C-84.8548670575007,65.44780170188169,-139.65461594190063,129.95108326409115,-167.0544903841006,162.20272404519588L-194.45436482630055,194.4543648263006" style="mix-blend-mode: multiply;"/><path d="M-194.4543648263006,-194.45436482630052L-161.32120205645725,-165.8411794563029C-128.18803928661387,-137.2279940863053,-61.92171374692716,-80.0016233463101,12.551100734638746,-65.7951741960208C87.02391521620466,-51.58872504573148,169.70321863964975,-80.40219748514806,211.04287035137227,-94.80893370485636L252.38252206309483,-109.21566992456465" style="mix-blend-mode: multiply;"/><path d="M-154.572928909336,-227.44715792550446L-128.31225614215128,-194.8130673056513C-102.05158337496657,-162.1789766857981,-49.5302378405971,-96.91079544609174,8.640977782008983,-91.41199659622443C66.81219340461509,-85.91319774635711,130.6332791154578,-140.18378128632884,162.54382197087918,-167.3190730563147L194.45436482630055,-194.45436482630058" style="mix-blend-mode: multiply;"/><path d="M-154.572928909336,-227.44715792550446L-127.3882218333156,-193.13225513762313C-100.20351475729518,-158.8173523497418,-45.834100605254356,-90.18754677397918,24.657572468494227,-62.27791901706996C95.14924554224281,-34.36829126016077,181.7631775376992,-47.178841322105,225.07014353542738,-53.58411635307713L268.37710953315553,-59.98939138404924" style="mix-blend-mode: multiply;"/><path d="M-154.572928909336,-227.44715792550446L-134.04394524699453,-193.34141967233236C-113.51496158465307,-159.23568141916027,-72.4569942599701,-91.02420491281612,-90.70830003527401,-65.90343761869671C-108.9596058105779,-40.78267032457731,-186.5201846858686,-58.752612242682666,-225.30047412351396,-67.73758320173535L-264.08076356115936,-76.72255416078804" style="mix-blend-mode: multiply;"/><path d="M-139.9863893313521,-236.70405742608455L-115.97447474910655,-202.64286146655863C-91.96256016686101,-168.58166550703265,-43.938731002369934,-100.45927358798077,11.801394690572167,-93.41765815468345C67.54152038351428,-86.37604272138611,130.99794260490742,-140.41520377384333,162.72615371560397,-167.43478430007195L194.45436482630055,-194.45436482630058" style="mix-blend-mode: multiply;"/><path d="M-124.84738742837541,-245.02679415180114L-105.70805635083194,-203.81602625214126C-86.56872527328846,-162.6052583524814,-48.29006311820151,-80.18372255316163,-28.92182500455313,6.464793822234593C-9.553586890904763,93.11331019763082,-9.09577281869498,183.9888071491035,-8.86686578259009,229.42655562483984L-8.637958746485198,274.8643041005762" style="mix-blend-mode: multiply;"/><path d="M-124.84738742837541,-245.02679415180114L-106.96527774055794,-210.40661157918714C-89.08316805274045,-175.78642900657314,-53.318948677105475,-106.54606386134519,-50.713662426470336,-107.77201851322747C-48.1083761758352,-108.99797316510974,-78.66202305019989,-180.6902476141023,-93.93884648738225,-216.5363848385986L-109.2156699245646,-252.38252206309485" style="mix-blend-mode: multiply;"/><path d="M-124.84738742837541,-245.02679415180114L-105.4921073821698,-203.81602625214126C-86.1368273359642,-162.6052583524814,-47.42626724355298,-80.18372255316163,-25.17870954774287,6.464793822234593C-2.931151851932755,93.11331019763082,2.853403447276255,183.9888071491035,5.745681096880759,229.42655562483984L8.637958746485264,274.8643041005762" style="mix-blend-mode: multiply;"/><path d="M-124.84738742837541,-245.02679415180114L-102.64128114867482,-209.00165992004034C-80.43517486897422,-172.9765256882796,-36.02296230957302,-100.92625722475805,24.235611832836966,-83.41952308801653C84.49418597524695,-65.91278895127503,160.59912170066573,-102.94958914131355,198.6515895633751,-121.46798923633283L236.7040574260845,-139.9863893313521" style="mix-blend-mode: multiply;"/><path d="M-124.84738742837541,-245.02679415180114L-108.95479573566531,-206.50196266109785C-93.06220404295522,-167.97713117039456,-61.27702065753502,-90.92746818898797,-85.1986410083317,-40.09143726634622C-109.12026135912838,10.74459365629554,-188.74868544614193,35.36699252017247,-228.5628974896487,47.67819195211093L-268.3771095331555,59.98939138404939" style="mix-blend-mode: multiply;"/><path d="M-124.84738742837541,-245.02679415180114L-102.4453003407122,-208.61702592745553C-80.04321325304896,-172.20725770310992,-35.2390390777225,-99.38772125441868,27.63261250418921,-76.75253388321259C90.50426408610092,-54.11734651200651,171.44339307459788,-81.66650821828559,211.91295756884634,-95.44108907142511L252.38252206309483,-109.21566992456465" style="mix-blend-mode: multiply;"/><path d="M-124.84738742837541,-245.02679415180114L-102.36580422322072,-208.41624165424165C-79.88422101806603,-171.80568915668218,-34.92105460775664,-98.5845841615632,29.010545207374594,-73.27227314750553C92.94214502250583,-47.95996213344787,175.8421782424589,-70.55644510045151,217.29219485243547,-81.85468658395332L258.742211462412,-93.15292806745515" style="mix-blend-mode: multiply;"/><path d="M-124.84738742837541,-245.02679415180114L-106.13782534007667,-203.85665138260268C-87.42826325177792,-162.68650861340421,-50.00913907518042,-80.34622307500729,-36.37115415146175,5.760624894236709C-22.733169227743094,91.86747286348071,-32.87632355690327,181.74088326357176,-37.94790072148336,226.67758846361733L-43.01947788606345,271.61429366366286" style="mix-blend-mode: multiply;"/><path d="M-124.84738742837541,-245.02679415180114L-103.16940230617212,-209.68250961372723C-81.4914171839688,-174.3382250756533,-38.13544693956221,-103.64965599950547,15.081511769550447,-95.22091777858871C68.2984704786631,-86.79217955767194,131.37641765248182,-140.62327219198627,162.9153912393912,-167.5388185091434L194.45436482630055,-194.45436482630058" style="mix-blend-mode: multiply;"/><path d="M-109.2156699245646,-252.38252206309485L-93.93884648738225,-216.53638483859856C-78.66202305019989,-180.6902476141023,-48.1083761758352,-108.99797316510974,-50.713662426470336,-107.77201851322747C-53.318948677105475,-106.54606386134519,-89.08316805274045,-175.78642900657314,-106.96527774055794,-210.40661157918714L-124.84738742837541,-245.02679415180114" style="mix-blend-mode: multiply;"/><path d="M-109.2156699245646,-252.38252206309485L-89.02354027536312,-214.22341730400169C-68.83141062616163,-176.0643125449085,-28.44715132775865,-99.74610302672215,34.48497858186137,-67.68058124688122C97.41710849148139,-35.61505946704029,182.89710901231845,-47.80222542554477,225.637109272737,-53.895808404797L268.37710953315553,-59.98939138404924" style="mix-blend-mode: multiply;"/><path d="M-109.2156699245646,-252.38252206309485L-92.91599761810335,-210.07837124090528C-76.6163253116421,-167.77422041871571,-44.0169806987196,-83.16591877433655,-32.98428202563608,4.166883846789735C-21.95158335255255,91.49968646791602,-32.485530619308,181.55699006578945,-37.752504252685725,226.58564186472617L-43.01947788606345,271.61429366366286" style="mix-blend-mode: multiply;"/></g></svg>