<svg viewBox="-375,-375,750,750" xmlns="http://www.w3.org/2000/svg" xmlns:xlink="http://www.w3.org/1999/xlink"><g font-family="sans-serif" font-size="10"><g transform="rotate(-88.2) translate(275,0)"><text dy="0.31em" x="6" text-anchor="start">100luz<title>flare.100luz
0 outgoing
0 incoming</title></text></g><g transform="rotate(-84.6) translate(275,0)"><text dy="0.31em" x="6" text-anchor="start">Alex<title>flare.Alex
0 outgoing
0 incoming</title></text></g><g transform="rotate(-81) translate(275,0)"><text dy="0.31em" x="6" text-anchor="start">Alina<title>flare.Alina
0 outgoing
0 incoming</title></text></g><g transform="rotate(-77.4) translate(275,0)"><text dy="0.31em" x="6" text-anchor="start">Allen<title>flare.Allen
4 outgoing
4 incoming</title></text></g><g transform="rotate(-73.8) translate(275,0)"><text dy="0.31em" x="6" text-anchor="start">Ariel Malka<title>flare.Ariel Malka
0 outgoing
0 incoming</title></text></g><g transform="rotate(-70.2) translate(275,0)"><text dy="0.31em" x="6" text-anchor="start">Bertrand Saint-Guillain<title>flare.Bertrand Saint-Guillain
0 outgoing
0 incoming</title></text></g><g transform="rotate(-66.6) translate(275,0)"><text dy="0.31em" x="6" text-anchor="start">Brian<title>flare.Brian
0 outgoing
0 incoming</title></text></g><g transform="rotate(-63) translate(275,0)"><text dy="0.31em" x="6" text-anchor="start">Dan<title>flare.Dan
0 outgoing
0 incoming</title></text></g><g transform="rotate(-59.39999999999999) translate(275,0)"><text dy="0.31em" x="6" text-anchor="start">Dara<title>flare.Dara
8 outgoing
8 incoming</title></text></g><g transform="rotate(-55.800000000000004) translate(275,0)"><text dy="0.31em" x="6" text-anchor="start">Dimitre<title>flare.Dimitre
3 outgoing
3 incoming</title></text></g><g transform="rotate(-52.2) translate(275,0)"><text dy="0.31em" x="6" text-anchor="start">Elrick<title>flare.Elrick
3 outgoing
3 incoming</title></text></g><g transform="rotate(-48.6) translate(275,0)"><text dy="0.31em" x="6" text-anchor="start">Frederik De Bleser<title>flare.Frederik De Bleser
0 outgoing
0 incoming</title></text></g><g transform="rotate(-45) translate(275,0)"><text dy="0.31em" x="6" text-anchor="start">Glen Murphy<title>flare.Glen Murphy
5 outgoing
5 incoming</title></text></g><g transform="rotate(-41.4) translate(275,0)"><text dy="0.31em" x="6" text-anchor="start">Jeff Berg<title>flare.Jeff Berg
0 outgoing
0 incoming</title></text></g><g transform="rotate(-37.800000000000004) translate(275,0)"><text dy="0.31em" x="6" text-anchor="start">JimQode<title>flare.JimQode
0 outgoing
0 incoming</title></text></g><g transform="rotate(-34.2) translate(275,0)"><text dy="0.31em" x="6" text-anchor="start">Jordan J<title>flare.Jordan J
0 outgoing
0 incoming</title></text></g><g transform="rotate(-30.599999999999987) translate(275,0)"><text dy="0.31em" x="6" text-anchor="start">Josh Nimoy<title>flare.Josh Nimoy
0 outgoing
0 incoming</title></text></g><g transform="rotate(-27) translate(275,0)"><text dy="0.31em" x="6" text-anchor="start">Koenie<title>flare.Koenie
4 outgoing
4 incoming</title></text></g><g transform="rotate(-23.39999999999999) translate(275,0)"><text dy="0.31em" x="6" text-anchor="start">Martin<title>flare.Martin
13 outgoing
13 incoming</title></text></g><g transform="rotate(-19.799999999999997) translate(275,0)"><text dy="0.31em" x="6" text-anchor="start">Mike Davis<title>flare.Mike Davis
0 outgoing
0 incoming</title></text></g><g transform="rotate(-16.200000000000003) translate(275,0)"><text dy="0.31em" x="6" text-anchor="start">Processing<title>flare.Processing
0 outgoing
0 incoming</title></text></g><g transform="rotate(-12.600000000000009) translate(275,0)"><text dy="0.31em" x="6" text-anchor="start">REAS<title>flare.REAS
14 outgoing
14 incoming</title></text></g><g transform="rotate(-9) translate(275,0)"><text dy="0.31em" x="6" text-anchor="start">Takachin<title>flare.Takachin
0 outgoing
0 incoming</title></text></g><g transform="rotate(-5.400000000000006) translate(275,0)"><text dy="0.31em" x="6" text-anchor="start">WillisMorse<title>flare.WillisMorse
1 outgoing
1 incoming</title></text></g><g transform="rotate(-1.7999999999999972) translate(275,0)"><text dy="0.31em" x="6" text-anchor="start">Wim_Van_der_Vurst<title>flare.Wim_Van_der_Vurst
0 outgoing
0 incoming</title></text></g><g transform="rotate(1.7999999999999972) translate(275,0)"><text dy="0.31em" x="6" text-anchor="start">XemonerdX<title>flare.XemonerdX
0 outgoing
0 incoming</title></text></g><g transform="rotate(5.400000000000006) translate(275,0)"><text dy="0.31em" x="6" text-anchor="start">Xu1<title>flare.Xu1
0 outgoing
0 incoming</title></text></g><g transform="rotate(9.000000000000014) translate(275,0)"><text dy="0.31em" x="6" text-anchor="start">[rocha]<title>flare.[rocha]
6 outgoing
6 incoming</title></text></g><g transform="rotate(12.599999999999994) translate(275,0)"><text dy="0.31em" x="6" text-anchor="start">_cory<title>flare._cory
0 outgoing
0 incoming</title></text></g><g transform="rotate(16.19999999999999) translate(275,0)"><text dy="0.31em" x="6" text-anchor="start">_martin<title>flare._martin
0 outgoing
0 incoming</title></text></g><g transform="rotate(19.799999999999997) translate(275,0)"><text dy="0.31em" x="6" text-anchor="start">_warren<title>flare._warren
0 outgoing
0 incoming</title></text></g><g transform="rotate(23.400000000000006) translate(275,0)"><text dy="0.31em" x="6" text-anchor="start">adrien<title>flare.adrien
0 outgoing
0 incoming</title></text></g><g transform="rotate(27) translate(275,0)"><text dy="0.31em" x="6" text-anchor="start">anurag<title>flare.anurag
0 outgoing
0 incoming</title></text></g><g transform="rotate(30.60000000000001) translate(275,0)"><text dy="0.31em" x="6" text-anchor="start">arielm<title>flare.arielm
11 outgoing
11 incoming</title></text></g><g transform="rotate(34.19999999999999) translate(275,0)"><text dy="0.31em" x="6" text-anchor="start">artelse<title>flare.artelse
0 outgoing
0 incoming</title></text></g><g transform="rotate(37.79999999999998) translate(275,0)"><text dy="0.31em" x="6" text-anchor="start">barikan<title>flare.barikan
0 outgoing
0 incoming</title></text></g><g transform="rotate(41.400000000000006) translate(275,0)"><text dy="0.31em" x="6" text-anchor="start">benelek<title>flare.benelek
21 outgoing
21 incoming</title></text></g><g transform="rotate(45) translate(275,0)"><text dy="0.31em" x="6" text-anchor="start">bzor<title>flare.bzor
0 outgoing
0 incoming</title></text></g><g transform="rotate(48.599999999999994) translate(275,0)"><text dy="0.31em" x="6" text-anchor="start">damille<title>flare.damille
0 outgoing
0 incoming</title></text></g><g transform="rotate(52.20000000000002) translate(275,0)"><text dy="0.31em" x="6" text-anchor="start">depth<title>flare.depth
0 outgoing
0 incoming</title></text></g><g transform="rotate(55.80000000000001) translate(275,0)"><text dy="0.31em" x="6" text-anchor="start">dnm<title>flare.dnm
0 outgoing
0 incoming</title></text></g><g transform="rotate(59.400000000000006) translate(275,0)"><text dy="0.31em" x="6" text-anchor="start">ed<title>flare.ed
0 outgoing
0 incoming</title></text></g><g transform="rotate(63) translate(275,0)"><text dy="0.31em" x="6" text-anchor="start">edwardgeorge<title>flare.edwardgeorge
8 outgoing
8 incoming</title></text></g><g transform="rotate(66.6) translate(275,0)"><text dy="0.31em" x="6" text-anchor="start">eviltyler<title>flare.eviltyler
0 outgoing
0 incoming</title></text></g><g transform="rotate(70.20000000000002) translate(275,0)"><text dy="0.31em" x="6" text-anchor="start">ezdac<title>flare.ezdac
0 outgoing
0 incoming</title></text></g><g transform="rotate(73.80000000000004) translate(275,0)"><text dy="0.31em" x="6" text-anchor="start">fdb<title>flare.fdb
5 outgoing
5 incoming</title></text></g><g transform="rotate(77.40000000000003) translate(275,0)"><text dy="0.31em" x="6" text-anchor="start">fli<title>flare.fli
3 outgoing
3 incoming</title></text></g><g transform="rotate(81) translate(275,0)"><text dy="0.31em" x="6" text-anchor="start">flight404<title>flare.flight404
1 outgoing
1 incoming</title></text></g><g transform="rotate(84.6) translate(275,0)"><text dy="0.31em" x="6" text-anchor="start">forkinsocket<title>flare.forkinsocket
0 outgoing
0 incoming</title></text></g><g transform="rotate(88.20000000000002) translate(275,0)"><text dy="0.31em" x="6" text-anchor="start">franklin_mint<title>flare.franklin_mint
0 outgoing
0 incoming</title></text></g><g transform="rotate(91.80000000000001) translate(275,0)"><text dy="0.31em" x="-6" text-anchor="end" transform="rotate(180)">fry<title>flare.fry
18 outgoing
18 incoming</title></text></g><g transform="rotate(95.4) translate(275,0)"><text dy="0.31em" x="-6" text-anchor="end" transform="rotate(180)">fulk<title>flare.fulk
0 outgoing
0 incoming</title></text></g><g transform="rotate(99) translate(275,0)"><text dy="0.31em" x="-6" text-anchor="end" transform="rotate(180)">gaza<title>flare.gaza
0 outgoing
0 incoming</title></text></g><g transform="rotate(102.60000000000002) translate(275,0)"><text dy="0.31em" x="-6" text-anchor="end" transform="rotate(180)">gkoshra<title>flare.gkoshra
8 outgoing
8 incoming</title></text></g><g transform="rotate(106.20000000000002) translate(275,0)"><text dy="0.31em" x="-6" text-anchor="end" transform="rotate(180)">grumo<title>flare.grumo
0 outgoing
0 incoming</title></text></g><g transform="rotate(109.80000000000001) translate(275,0)"><text dy="0.31em" x="-6" text-anchor="end" transform="rotate(180)">gsm<title>flare.gsm
0 outgoing
0 incoming</title></text></g><g transform="rotate(113.39999999999998) translate(275,0)"><text dy="0.31em" x="-6" text-anchor="end" transform="rotate(180)">heidi<title>flare.heidi
0 outgoing
0 incoming</title></text></g><g transform="rotate(116.99999999999997) translate(275,0)"><text dy="0.31em" x="-6" text-anchor="end" transform="rotate(180)">heliodrop<title>flare.heliodrop
0 outgoing
0 incoming</title></text></g><g transform="rotate(120.6) translate(275,0)"><text dy="0.31em" x="-6" text-anchor="end" transform="rotate(180)">hurlbot<title>flare.hurlbot
0 outgoing
0 incoming</title></text></g><g transform="rotate(124.19999999999999) translate(275,0)"><text dy="0.31em" x="-6" text-anchor="end" transform="rotate(180)">ik0<title>flare.ik0
0 outgoing
0 incoming</title></text></g><g transform="rotate(127.79999999999998) translate(275,0)"><text dy="0.31em" x="-6" text-anchor="end" transform="rotate(180)">jand<title>flare.jand
0 outgoing
0 incoming</title></text></g><g transform="rotate(131.4) translate(275,0)"><text dy="0.31em" x="-6" text-anchor="end" transform="rotate(180)">jbk303<title>flare.jbk303
1 outgoing
1 incoming</title></text></g><g transform="rotate(135) translate(275,0)"><text dy="0.31em" x="-6" text-anchor="end" transform="rotate(180)">jes<title>flare.jes
0 outgoing
0 incoming</title></text></g><g transform="rotate(138.6) translate(275,0)"><text dy="0.31em" x="-6" text-anchor="end" transform="rotate(180)">jlee<title>flare.jlee
0 outgoing
0 incoming</title></text></g><g transform="rotate(142.2) translate(275,0)"><text dy="0.31em" x="-6" text-anchor="end" transform="rotate(180)">joey<title>flare.joey
0 outgoing
0 incoming</title></text></g><g transform="rotate(145.8) translate(275,0)"><text dy="0.31em" x="-6" text-anchor="end" transform="rotate(180)">kevin<title>flare.kevin
0 outgoing
0 incoming</title></text></g><g transform="rotate(149.4) translate(275,0)"><text dy="0.31em" x="-6" text-anchor="end" transform="rotate(180)">mKoser<title>flare.mKoser
9 outgoing
9 incoming</title></text></g><g transform="rotate(153) translate(275,0)"><text dy="0.31em" x="-6" text-anchor="end" transform="rotate(180)">mawend<title>flare.mawend
0 outgoing
0 incoming</title></text></g><g transform="rotate(156.60000000000005) translate(275,0)"><text dy="0.31em" x="-6" text-anchor="end" transform="rotate(180)">mccutchen<title>flare.mccutchen
0 outgoing
0 incoming</title></text></g><g transform="rotate(160.2) translate(275,0)"><text dy="0.31em" x="-6" text-anchor="end" transform="rotate(180)">meltphace<title>flare.meltphace
0 outgoing
0 incoming</title></text></g><g transform="rotate(163.79999999999998) translate(275,0)"><text dy="0.31em" x="-6" text-anchor="end" transform="rotate(180)">michaONE<title>flare.michaONE
0 outgoing
0 incoming</title></text></g><g transform="rotate(167.39999999999998) translate(275,0)"><text dy="0.31em" x="-6" text-anchor="end" transform="rotate(180)">michael<title>flare.michael
0 outgoing
0 incoming</title></text></g><g transform="rotate(171) translate(275,0)"><text dy="0.31em" x="-6" text-anchor="end" transform="rotate(180)">mmuday<title>flare.mmuday
0 outgoing
0 incoming</title></text></g><g transform="rotate(174.59999999999997) translate(275,0)"><text dy="0.31em" x="-6" text-anchor="end" transform="rotate(180)">mohn<title>flare.mohn
0 outgoing
0 incoming</title></text></g><g transform="rotate(178.20000000000005) translate(275,0)"><text dy="0.31em" x="-6" text-anchor="end" transform="rotate(180)">mr.prufrock<title>flare.mr.prufrock
0 outgoing
0 incoming</title></text></g><g transform="rotate(181.8) translate(275,0)"><text dy="0.31em" x="-6" text-anchor="end" transform="rotate(180)">mrb<title>flare.mrb
3 outgoing
3 incoming</title></text></g><g transform="rotate(185.40000000000003) translate(275,0)"><text dy="0.31em" x="-6" text-anchor="end" transform="rotate(180)">nurm<title>flare.nurm
0 outgoing
0 incoming</title></text></g><g transform="rotate(189) translate(275,0)"><text dy="0.31em" x="-6" text-anchor="end" transform="rotate(180)">oytun<title>flare.oytun
7 outgoing
7 incoming</title></text></g><g transform="rotate(192.60000000000002) translate(275,0)"><text dy="0.31em" x="-6" text-anchor="end" transform="rotate(180)">pinksalmon<title>flare.pinksalmon
0 outgoing
0 incoming</title></text></g><g transform="rotate(196.2) translate(275,0)"><text dy="0.31em" x="-6" text-anchor="end" transform="rotate(180)">pitaru<title>flare.pitaru
1 outgoing
1 incoming</title></text></g><g transform="rotate(199.8) translate(275,0)"><text dy="0.31em" x="-6" text-anchor="end" transform="rotate(180)">pokemon#1<title>flare.pokemon#1
0 outgoing
0 incoming</title></text></g><g transform="rotate(203.39999999999998) translate(275,0)"><text dy="0.31em" x="-6" text-anchor="end" transform="rotate(180)">pollux<title>flare.pollux
14 outgoing
14 incoming</title></text></g><g transform="rotate(207) translate(275,0)"><text dy="0.31em" x="-6" text-anchor="end" transform="rotate(180)">polyscope<title>flare.polyscope
0 outgoing
0 incoming</title></text></g><g transform="rotate(210.59999999999997) translate(275,0)"><text dy="0.31em" x="-6" text-anchor="end" transform="rotate(180)">primeclub<title>flare.primeclub
1 outgoing
1 incoming</title></text></g><g transform="rotate(214.2) translate(275,0)"><text dy="0.31em" x="-6" text-anchor="end" transform="rotate(180)">rlivings<title>flare.rlivings
0 outgoing
0 incoming</title></text></g><g transform="rotate(217.79999999999995) translate(275,0)"><text dy="0.31em" x="-6" text-anchor="end" transform="rotate(180)">scrap-pile<title>flare.scrap-pile
0 outgoing
0 incoming</title></text></g><g transform="rotate(221.40000000000003) translate(275,0)"><text dy="0.31em" x="-6" text-anchor="end" transform="rotate(180)">sdewitt<title>flare.sdewitt
0 outgoing
0 incoming</title></text></g><g transform="rotate(225) translate(275,0)"><text dy="0.31em" x="-6" text-anchor="end" transform="rotate(180)">seb<title>flare.seb
0 outgoing
0 incoming</title></text></g><g transform="rotate(228.59999999999997) translate(275,0)"><text dy="0.31em" x="-6" text-anchor="end" transform="rotate(180)">skloopy<title>flare.skloopy
3 outgoing
3 incoming</title></text></g><g transform="rotate(232.20000000000005) translate(275,0)"><text dy="0.31em" x="-6" text-anchor="end" transform="rotate(180)">solipsys<title>flare.solipsys
7 outgoing
7 incoming</title></text></g><g transform="rotate(235.8) translate(275,0)"><text dy="0.31em" x="-6" text-anchor="end" transform="rotate(180)">spacegirl<title>flare.spacegirl
0 outgoing
0 incoming</title></text></g><g transform="rotate(239.39999999999998) translate(275,0)"><text dy="0.31em" x="-6" text-anchor="end" transform="rotate(180)">sparky_monkey<title>flare.sparky_monkey
0 outgoing
0 incoming</title></text></g><g transform="rotate(243) translate(275,0)"><text dy="0.31em" x="-6" text-anchor="end" transform="rotate(180)">sportebois<title>flare.sportebois
0 outgoing
0 incoming</title></text></g><g transform="rotate(246.60000000000002) translate(275,0)"><text dy="0.31em" x="-6" text-anchor="end" transform="rotate(180)">svela<title>flare.svela
0 outgoing
0 incoming</title></text></g><g transform="rotate(250.19999999999993) translate(275,0)"><text dy="0.31em" x="-6" text-anchor="end" transform="rotate(180)">tomek<title>flare.tomek
2 outgoing
2 incoming</title></text></g><g transform="rotate(253.8) translate(275,0)"><text dy="0.31em" x="-6" text-anchor="end" transform="rotate(180)">toxi<title>flare.toxi
10 outgoing
10 incoming</title></text></g><g transform="rotate(257.4) translate(275,0)"><text dy="0.31em" x="-6" text-anchor="end" transform="rotate(180)">v3ga<title>flare.v3ga
0 outgoing
0 incoming</title></text></g><g transform="rotate(261) translate(275,0)"><text dy="0.31em" x="-6" text-anchor="end" transform="rotate(180)">vanwoods<title>flare.vanwoods
0 outgoing
0 incoming</title></text></g><g transform="rotate(264.6) translate(275,0)"><text dy="0.31em" x="-6" text-anchor="end" transform="rotate(180)">vent<title>flare.vent
4 outgoing
4 incoming</title></text></g><g transform="rotate(268.2) translate(275,0)"><text dy="0.31em" x="-6" text-anchor="end" transform="rotate(180)">xoff<title>flare.xoff
0 outgoing
0 incoming</title></text></g></g><g stroke="grey" fill="none"><path d="M59.989391384049206,-268.37710953315553L53.89580840479697,-228.36750102085114C47.80222542554474,-188.35789250854668,35.615059467040275,-108.33867548393785,67.6805812468812,-81.81176888250604C99.74610302672215,-55.28486228107423,176.0643125449085,-82.25026610281944,214.22341730400163,-95.73296801369206L252.38252206309483,-109.21566992456465" style="mix-blend-mode: multiply;"/><path d="M59.989391384049206,-268.37710953315553L53.31953368086298,-224.72904560974402C46.64967597767677,-181.08098168633248,33.30996057130435,-93.78485383950941,57.69181936535889,-18.745208423316125C82.07367815941342,56.294436992877166,144.1771111538949,119.07759997844069,175.22882765113567,150.46918147122244L206.2805441483764,181.8607629640042" style="mix-blend-mode: multiply;"/><path d="M59.989391384049206,-268.37710953315553L47.586245353219596,-228.36750102085114C35.18309932239,-188.35789250854668,10.376807260730784,-108.33867548393785,-41.68517831379323,-81.811768882506C-93.74716388831725,-55.28486228107417,-173.06484297570606,-82.25026610281934,-212.72368251940046,-95.7329680136919L-252.38252206309488,-109.2156699245645" style="mix-blend-mode: multiply;"/><path d="M59.989391384049206,-268.37710953315553L50.633052394677215,-223.56650134553686C41.27671340530524,-178.75589315791817,22.564035426561272,-89.1346767826808,11.12614373813887,1.4055588229411455C-0.3117479502835329,91.9457944285631,-4.474853348384367,183.40504926456967,-6.556406047434784,229.13467668257292L-8.6379587464852,274.8643041005762" style="mix-blend-mode: multiply;"/><path d="M139.98638933135211,-236.7040574260845L121.75986817859979,-200.96204929853045C103.53334702584743,-165.22004117097634,67.08030472034275,-93.73602491586819,88.47875808730998,-64.28358057552897C109.87721145427723,-34.831136235189774,189.1271604937164,-47.4102638096195,228.75213501343595,-53.69982759683438L268.37710953315553,-59.98939138404924" style="mix-blend-mode: multiply;"/><path d="M139.98638933135211,-236.7040574260845L120.33731592080204,-203.0552713802986C100.68824251025194,-169.40648533451272,61.39009568915177,-102.10891324294096,63.82118561881574,-100.56609665951095C66.2522755484797,-99.02328007608095,110.4126022289078,-163.23521900079274,132.49276556912187,-195.34118846314865L154.5729289093359,-227.4471579255045" style="mix-blend-mode: multiply;"/><path d="M139.98638933135211,-236.7040574260845L118.08165698240293,-203.63442615955287C96.17692463345377,-170.5647948930213,52.367459935555395,-104.42553235995808,24.72309735323144,-110.6047794999185C-2.9212652290925085,-116.7840266398789,-14.400525695842056,-195.28178345286298,-20.140155929216828,-234.53066185935495L-25.879786162591603,-273.779540265847" style="mix-blend-mode: multiply;"/><path d="M139.98638933135211,-236.7040574260845L120.98366111129003,-197.93892236917975C101.98093289122795,-159.17378731227498,63.975476451103795,-81.64351719846552,75.02450225394118,-11.882713800117395C86.07352805677857,57.87808959823072,146.1770361025775,119.86942628111747,176.22879012547696,150.86509462256083L206.2805441483764,181.8607629640042" style="mix-blend-mode: multiply;"/><path d="M139.98638933135211,-236.7040574260845L120.83583386976409,-202.64286146655857C101.68527840817607,-168.58166550703262,63.384167485000006,-100.45927358798076,72.46216340082475,-93.41765815468342C81.54015931664948,-86.37604272138611,137.99726207147503,-140.41520377384333,166.22581344888778,-167.43478430007195L194.45436482630055,-194.45436482630058" style="mix-blend-mode: multiply;"/><path d="M139.98638933135211,-236.7040574260845L121.55993583522401,-201.57737778028687C103.13348233909592,-166.45069813448922,66.28057534683973,-96.19733884289396,85.0132641354635,-74.94927425930733C103.74595292408729,-53.70120967572068,178.06423749359104,-81.45843980014267,215.22337977834295,-95.33705486235367L252.38252206309483,-109.21566992456465" style="mix-blend-mode: multiply;"/><path d="M139.98638933135211,-236.7040574260845L115.00997563863955,-200.7499253798056C90.03356194592698,-164.7957933335267,40.08073456050183,-92.88752924096889,-28.519379272000663,-60.606765984298725C-97.11949310450315,-28.326002727628545,-184.36689338408303,-35.67274030684599,-227.99059352387295,-39.34610909645471L-271.61429366366286,-43.019477886063434" style="mix-blend-mode: multiply;"/><path d="M139.98638933135211,-236.7040574260845L115.25037278364664,-201.57737778028687C90.51435623594118,-166.45069813448922,41.042323140530236,-96.19733884289394,-24.352495425210936,-74.94927425930729C-89.74731399095212,-53.70120967572061,-171.0649180270235,-81.45843980014256,-211.7237200450592,-95.33705486235353L-252.3825220630949,-109.2156699245645" style="mix-blend-mode: multiply;"/><path d="M154.5729289093359,-227.4471579255045L132.49276556912187,-195.3411884631486C110.4126022289078,-163.23521900079274,66.2522755484797,-99.02328007608095,63.82118561881574,-100.56609665951096C61.39009568915177,-102.10891324294096,100.68824251025194,-169.40648533451272,120.33731592080204,-203.0552713802986L139.98638933135211,-236.7040574260845" style="mix-blend-mode: multiply;"/><path d="M154.5729289093359,-227.4471579255045L130.41943837544756,-195.80463199864565C106.2659478415592,-164.16210607178678,57.958966773782514,-100.87705421806908,27.8835142617946,-108.5991179414595C-2.1919382501933193,-116.32118166484992,-14.03586220639246,-195.05036096534846,-19.957824184492033,-234.41495061559772L-25.879786162591603,-273.779540265847" style="mix-blend-mode: multiply;"/><path d="M154.5729289093359,-227.4471579255045L130.6349612181489,-188.94658394406534C106.69699352696188,-150.44600996262622,58.82105814458783,-73.44486199974791,31.619243535284323,10.273715004598861C4.417428925980803,93.99229200894564,-2.1102649102521975,184.42829805476092,-5.374111828368697,229.64630107766857L-8.637958746485198,274.8643041005762" style="mix-blend-mode: multiply;"/><path d="M168.5494397545685,-217.2926284033149L145.14324126092723,-181.52008865408712C121.73704276728597,-145.74754890485937,74.92464578000342,-74.20246940640384,81.2131631789714,-7.676904178517314C87.5016805779394,58.848661049369206,146.8911123631579,120.35471200668671,176.58582825576715,151.10773748534544L206.2805441483764,181.8607629640042" style="mix-blend-mode: multiply;"/><path d="M168.5494397545685,-217.2926284033149L145.919448328237,-184.5432155834378C123.28945690190544,-151.7938027635607,78.02947404924237,-86.2949771238065,94.6674190123402,-60.077770953928884C111.30536397543806,-33.860564784051284,189.8412367542968,-46.92497808405026,229.10917314372617,-53.45718473404975L268.37710953315553,-59.98939138404924" style="mix-blend-mode: multiply;"/><path d="M168.5494397545685,-217.2926284033149L145.5235351768986,-182.04351832449527C122.49763059922867,-146.79440824567567,76.44582144388882,-76.29618808803643,87.80492438914148,-16.749685132258602C99.16402733439413,42.796817823519234,167.93404238023933,91.39160357743567,202.31904990316193,115.68899645439389L236.7040574260845,139.98638933135211" style="mix-blend-mode: multiply;"/><path d="M194.45436482630055,-194.45436482630058L167.0544903841006,-162.20272404519585C139.65461594190063,-129.95108326409112,84.8548670575007,-65.44780170188167,86.82589694451333,-2.728613736830875C88.79692683152598,59.990574228219934,147.5387354899512,120.92566859611208,176.9096398191638,151.39321578005817L206.2805441483764,181.86076296400424" style="mix-blend-mode: multiply;"/><path d="M194.45436482630055,-194.45436482630058L167.63076510803458,-165.84117945630297C140.80716538976858,-137.22799408630536,87.15996595323662,-80.00162334631013,96.81465882603567,-65.79517419602081C106.46935169883471,-51.58872504573148,179.42593688096477,-80.40219748514806,215.90422947202978,-94.80893370485636L252.38252206309483,-109.21566992456465" style="mix-blend-mode: multiply;"/><path d="M194.45436482630055,-194.45436482630058L166.22581344888778,-167.43478430007195C137.99726207147503,-140.41520377384333,81.54015931664948,-86.37604272138611,72.46216340082475,-93.41765815468345C63.384167485000006,-100.45927358798076,101.68527840817607,-168.58166550703262,120.83583386976409,-202.64286146655854L139.98638933135211,-236.7040574260845" style="mix-blend-mode: multiply;"/><path d="M194.45436482630055,-194.45436482630058L161.0808049114501,-165.0137270558217C127.70724499659964,-135.57308928534283,60.960125166898735,-76.69181374438506,-16.7179845814285,-51.452665921012205C-94.39609432975574,-26.213518097639348,-183.0051939967093,-34.61649799185139,-227.3097438301861,-38.817987938957415L-271.61429366366286,-43.019477886063434" style="mix-blend-mode: multiply;"/><path d="M194.45436482630055,-194.45436482630058L161.3212020564572,-165.84117945630297C128.18803928661384,-137.22799408630536,61.92171374692713,-80.00162334631011,-12.55110073463878,-65.79517419602077C-87.02391521620468,-51.58872504573142,-169.7032186396498,-80.40219748514797,-211.04287035137236,-94.80893370485622L-252.3825220630949,-109.2156699245645" style="mix-blend-mode: multiply;"/><path d="M245.02679415180114,-124.84738742837537L209.8303368552532,-103.32682232945079C174.6338795587052,-81.80625723052619,104.24096496560925,-38.765127032677015,97.78325663170513,12.352898032719585C91.325548297801,63.47092309811618,148.80304622308873,122.66584303106019,177.54179518573255,152.26330299753218L206.2805441483764,181.8607629640042" style="mix-blend-mode: multiply;"/><path d="M245.02679415180114,-124.84738742837537L207.14385556906743,-102.16427806524364C169.26091698633365,-79.4811687021119,93.49503982086618,-34.11494997584841,51.21758100448512,32.50366527897685C8.940122188104068,99.12228053380211,0.15108172080943424,186.99329231718914,-4.243438512837883,230.92879820888265L-8.637958746485198,274.8643041005762" style="mix-blend-mode: multiply;"/><path d="M245.02679415180114,-124.84738742837537L208.81242239625317,-102.53724693960332C172.59805064070517,-80.22710645083127,100.16930712960921,-35.60682547328717,80.13940600903825,26.038871456742253C60.10950488846729,87.68456838677167,92.47844615842133,166.3556812692864,108.66291679339834,205.6912377105438L124.84738742837538,245.02679415180114" style="mix-blend-mode: multiply;"/><path d="M245.02679415180114,-124.84738742837537L204.0970485276098,-106.9652777405579C163.1673029034184,-89.0831680527404,81.30781165503569,-53.31894867710545,-1.5937410474469829,-50.71366242647031C-84.49529374992966,-48.10837617583516,-168.4389079065123,-78.66202305019983,-210.41071498480358,-93.93884648738215L-252.3825220630949,-109.2156699245645" style="mix-blend-mode: multiply;"/><path d="M252.38252206309483,-109.21566992456465L216.82826378086546,-93.1281215368282C181.27400549863614,-77.04057314909178,110.16548893417746,-44.86547637361891,112.8312535125209,-36.661096616866345C115.49701809086436,-28.456716860113776,191.93706381200994,-44.223054122081514,230.15708667258275,-52.106222753065374L268.37710953315553,-59.98939138404924" style="mix-blend-mode: multiply;"/><path d="M252.38252206309483,-109.21566992456465L216.05205671355574,-90.10499460747754C179.7215913640167,-70.99431929039044,107.0606606649385,-32.772968656216236,99.3769976791521,15.739770158545246C91.69333469336568,64.25250897330672,148.98693942087104,123.05663596865548,177.63374178462377,152.45869946632988L206.2805441483764,181.86076296400424" style="mix-blend-mode: multiply;"/><path d="M252.38252206309483,-109.21566992456465L212.7236825194004,-89.02354027536315C173.06484297570603,-68.83141062616166,93.74716388831723,-28.44715132775867,41.68517831379322,34.48497858186136C-10.376807260730782,97.41710849148139,-35.183099322389985,182.89710901231845,-47.58624535321959,225.637109272737L-59.98939138404919,268.37710953315553" style="mix-blend-mode: multiply;"/><path d="M252.38252206309483,-109.21566992456465L212.5145179846912,-95.67926368904209C172.64651390628754,-82.14285745351954,92.91050574948027,-55.07004498247442,38.05965971216645,-80.88089392190686C-16.791186325147386,-106.6917428613393,-46.75687024296778,-185.38625321124928,-61.73971220187797,-224.7335083862043L-76.72255416078816,-264.0807635611593" style="mix-blend-mode: multiply;"/><path d="M252.38252206309483,-109.21566992456465L215.03414225455572,-89.3154192176301C177.68576244601664,-69.41516851069552,102.98900282893845,-29.614667096826395,81.73314705648521,29.425743582567907C60.47729128403197,88.46615426196222,92.66233935620369,166.7464742068817,108.75486339228955,205.8866341793414L124.84738742837538,245.02679415180114" style="mix-blend-mode: multiply;"/><path d="M252.38252206309483,-109.21566992456465L216.43235062952706,-90.6284242778857C180.48217919595936,-72.04117863120675,108.58183632882391,-34.866687337848845,105.9687588893222,6.66698920480395C103.35568144982047,48.200665747456746,170.02986943795247,94.09352753940443,203.36696343201848,117.03995843537827L236.7040574260845,139.98638933135211" style="mix-blend-mode: multiply;"/><path d="M252.38252206309483,-109.21566992456465L213.36557542736998,-88.94245034327038C174.3486287916451,-68.66923076197615,96.31473552019543,-28.12279159938764,52.81132205193209,35.8905374048025C9.30790858366875,99.90386640899264,0.33497491859177586,187.38408525478442,-4.151491913946711,231.1241946776803L-8.637958746485198,274.8643041005762" style="mix-blend-mode: multiply;"/><path d="M252.38252206309483,-109.21566992456465L210.31876838591234,-93.74345001858465C168.25501470872987,-78.27123011260467,84.12750735436494,-47.32679030064467,-1.8947806286936004e-14,-47.32679030064465C-84.12750735436498,-47.326790300644625,-168.25501470872993,-78.27123011260456,-210.31876838591242,-93.74345001858451L-252.3825220630949,-109.2156699245645" style="mix-blend-mode: multiply;"/><path d="M252.38252206309483,-109.21566992456465L214.22341730400163,-89.02354027536315C176.0643125449085,-68.83141062616166,99.74610302672214,-28.44715132775867,67.6805812468812,34.48497858186136C35.61505946704025,97.41710849148139,47.802225425544684,182.89710901231845,53.8958084047969,225.637109272737L59.98939138404913,268.37710953315553" style="mix-blend-mode: multiply;"/><path d="M252.38252206309483,-109.21566992456465L215.90422947202978,-94.80893370485636C179.42593688096477,-80.40219748514806,106.46935169883471,-51.58872504573148,96.81465882603567,-65.79517419602081C87.15996595323662,-80.00162334631013,140.80716538976858,-137.22799408630536,167.63076510803458,-165.84117945630297L194.45436482630055,-194.45436482630058" style="mix-blend-mode: multiply;"/><path d="M252.38252206309483,-109.21566992456465L215.22337977834295,-95.33705486235364C178.06423749359104,-81.45843980014267,103.74595292408729,-53.70120967572068,85.0132641354635,-74.94927425930732C66.28057534683973,-96.19733884289396,103.13348233909592,-166.45069813448922,121.55993583522401,-201.57737778028684L139.98638933135211,-236.7040574260845" style="mix-blend-mode: multiply;"/><path d="M252.38252206309483,-109.21566992456465L210.07837124090523,-92.91599761810339C167.7742204187157,-76.61632531164214,83.16591877433655,-44.01698069871963,-4.16688384678974,-32.984282025636084C-91.49968646791602,-21.95158335255255,-181.55699006578945,-32.485530619307994,-226.58564186472617,-37.75250425268572L-271.61429366366286,-43.019477886063434" style="mix-blend-mode: multiply;"/><path d="M252.38252206309483,-109.21566992456465L214.22341730400163,-95.73296801369203C176.0643125449085,-82.25026610281944,99.74610302672215,-55.28486228107423,67.6805812468812,-81.81176888250604C35.615059467040275,-108.33867548393785,47.80222542554474,-188.35789250854668,53.89580840479697,-228.36750102085114L59.989391384049206,-268.37710953315553" style="mix-blend-mode: multiply;"/><path d="M268.37710953315553,-59.98939138404924L230.15708667258275,-52.10622275306537C191.93706381200994,-44.223054122081514,115.49701809086436,-28.456716860113776,112.8312535125209,-36.661096616866345C110.16548893417746,-44.86547637361891,181.27400549863614,-77.04057314909178,216.8282637808655,-93.1281215368282L252.38252206309483,-109.21566992456465" style="mix-blend-mode: multiply;"/><path d="M268.37710953315553,-59.98939138404924L228.75213501343595,-53.699827596834375C189.1271604937164,-47.4102638096195,109.87721145427723,-34.831136235189774,88.47875808730998,-64.28358057552897C67.08030472034275,-93.73602491586819,103.53334702584743,-165.22004117097634,121.75986817859979,-200.9620492985304L139.98638933135211,-236.7040574260845" style="mix-blend-mode: multiply;"/><path d="M268.37710953315553,-59.98939138404924L226.25243775449346,-47.38631300984387C184.12776597583135,-34.7832346356385,99.87842241850717,-9.577077887227762,45.150672265639706,45.150672265639706C-9.577077887227746,99.87842241850717,-34.78323463563847,184.12776597583135,-47.38631300984383,226.25243775449346L-59.98939138404919,268.37710953315553" style="mix-blend-mode: multiply;"/><path d="M268.37710953315553,-59.98939138404924L226.0432732197842,-54.0420364235228C183.70943690641286,-48.09468146299637,99.0417642796702,-36.19997154194351,41.52515366401294,-70.21520023812852C-15.991456951644352,-104.23042893431352,-46.35700555621626,-184.1555962477364,-61.53977985850221,-224.11817990444786L-76.72255416078816,-264.0807635611593" style="mix-blend-mode: multiply;"/><path d="M268.37710953315553,-59.98939138404924L228.56289748964878,-47.6781919521108C188.74868544614196,-35.36699252017237,109.12026135912839,-10.744593656295486,85.1986410083317,40.09143726634625C61.27702065753501,90.92746818898797,93.0622040429552,167.97713117039456,108.95479573566529,206.50196266109788L124.84738742837538,245.02679415180114" style="mix-blend-mode: multiply;"/><path d="M268.37710953315553,-59.98939138404924L229.58081194864874,-48.46776734195826C190.78451436414198,-36.94614329986729,113.19191919512843,-13.902895215685332,102.8424916309986,26.40546384232358C92.49306406686874,66.71382290033249,149.38680410762257,124.28729293216834,177.8336741279995,153.07402794808627L206.2805441483764,181.8607629640042" style="mix-blend-mode: multiply;"/><path d="M268.37710953315553,-59.98939138404924L229.96110586462012,-48.991197012366406C191.54510219608468,-37.99300264068359,114.71309485901385,-15.996613897317935,109.43425284116866,17.33268288858229C104.1554108233235,50.66197967448252,170.429734124704,95.32418450291732,203.56689577539422,117.65528691713472L236.7040574260845,139.98638933135211" style="mix-blend-mode: multiply;"/><path d="M268.37710953315553,-59.98939138404924L223.56650134553686,-50.849001363339376C178.75589315791817,-41.708611342629524,89.1346767826808,-23.427831301209803,-1.4055588229411455,-14.869259194949125C-91.9457944285631,-6.310687088688449,-183.40504926456967,-7.474322917586814,-229.13467668257292,-8.056140832035998L-274.8643041005762,-8.63795874648518" style="mix-blend-mode: multiply;"/><path d="M268.37710953315553,-59.98939138404924L230.39748381758986,-50.20328340543252C192.41785810202416,-40.4171754268158,116.45860667089278,-20.844959469582367,116.99813735931066,-3.676814591230238C117.53766804772856,13.49133028712189,194.5759808556957,28.25540408659271,233.0951372596793,35.637440986328116L271.61429366366286,43.01947788606353" style="mix-blend-mode: multiply;"/><path d="M268.37710953315553,-59.98939138404924L224.04350442896802,-48.991197012366406C179.70989932478048,-37.99300264068359,91.04268911640538,-15.996613897317937,6.862494623198718,17.33268288858228C-77.31769987000796,50.661979674482495,-157.01087864804626,95.32418450291728,-196.8574680370654,117.65528691713466L-236.70405742608455,139.98638933135206" style="mix-blend-mode: multiply;"/><path d="M268.37710953315553,-59.98939138404924L224.89543714986198,-53.45718473404975C181.4137647665684,-46.92497808405026,94.4504199999812,-33.860564784051284,21.62932845202718,-60.077770953928884C-51.19176309592683,-86.29497712380648,-109.87060142524768,-151.79380276356065,-139.2100205899081,-184.54321558343773L-168.54943975456854,-217.29262840331484" style="mix-blend-mode: multiply;"/><path d="M268.37710953315553,-59.98939138404924L224.72904560974402,-53.31953368086301C181.08098168633248,-46.6496759776768,93.78485383950941,-33.30996057130436,18.745208423316086,-57.69181936535887C-56.29443699287723,-82.07367815941336,-119.0775999784408,-144.1771111538948,-150.46918147122258,-175.22882765113556L-181.86076296400438,-206.28054414837626" style="mix-blend-mode: multiply;"/><path d="M268.37710953315553,-59.98939138404924L226.89433066246298,-47.305223077751116C185.41155179177045,-34.62105477145298,102.44599405038537,-9.252718158856732,56.27681600377858,46.55623108858084C10.107637957171788,102.36518033601841,0.7348396053432941,188.61474221829732,-3.9515595705709523,231.73952315943674L-8.637958746485198,274.8643041005762" style="mix-blend-mode: multiply;"/><path d="M268.37710953315553,-59.98939138404924L229.10917314372617,-53.45718473404975C189.8412367542968,-46.92497808405026,111.30536397543806,-33.860564784051284,94.6674190123402,-60.0777709539289C78.02947404924237,-86.2949771238065,123.28945690190544,-151.7938027635607,145.919448328237,-184.5432155834378L168.5494397545685,-217.2926284033149" style="mix-blend-mode: multiply;"/><path d="M273.779540265847,-25.87978616259149L231.4638866571979,-18.45418199460143C189.14823304854872,-11.028577826611375,104.51692583125043,3.8226305093687394,57.4473426625284,53.94664555323002C10.37775949380636,104.0706605970913,0.869900373660581,189.46748234883376,-3.884029186412308,232.16589322470497L-8.637958746485198,274.8643041005762" style="mix-blend-mode: multiply;"/><path d="M271.61429366366286,43.019477886063534L226.78162267268877,38.13713824527064C181.9489516817147,33.25479860447775,92.28360969976654,23.490119322891957,7.563884518141966,39.651271230440045C-77.1558406634826,55.812423137988134,-156.92994904478357,97.8994062346701,-196.81700323543404,118.94289778301106L-236.70405742608455,139.98638933135206" style="mix-blend-mode: multiply;"/><path d="M271.61429366366286,43.019477886063534L228.9905559982142,39.74202224779318C186.36681833276558,36.464566609522834,101.1193430018683,29.909655332982137,45.85206216058296,67.46926060749747C-9.41521868070238,105.0288658820128,-34.70230503237578,186.70298770758416,-47.34584820821249,227.54004862036984L-59.98939138404919,268.37710953315553" style="mix-blend-mode: multiply;"/><path d="M271.61429366366286,43.019477886063534L232.31893019236955,38.66056791567879C193.02356672107624,34.301657945294046,114.4328397784896,25.58383800452457,103.54388152594186,48.724052184181346C92.6549232733941,71.86426636383813,149.46773371088526,126.86251466392116,177.87413892963082,154.36163881396268L206.2805441483764,181.8607629640042" style="mix-blend-mode: multiply;"/><path d="M271.61429366366286,43.019477886063534L228.781391463505,33.086298834114245C185.9484892633471,23.15311978216496,100.28268486303136,3.2867616782663873,42.22654355895619,-47.89661189627075C-15.829597745118983,-99.0799854708079,-46.27607595295357,-181.5803745159836,-61.49931505687087,-222.83056903857144L-76.72255416078816,-264.0807635611593" style="mix-blend-mode: multiply;"/><path d="M271.61429366366286,43.019477886063534L233.0951372596793,35.63744098632812C194.5759808556957,28.255404086592716,117.53766804772856,13.491330287121892,116.99813735931066,-3.6768145912302366C116.45860667089278,-20.844959469582367,192.41785810202416,-40.4171754268158,230.39748381758986,-50.20328340543252L268.37710953315553,-59.98939138404924" style="mix-blend-mode: multiply;"/><path d="M271.61429366366286,43.019477886063534L227.63355539358272,33.6711505235873C183.6528171235026,24.322823161111074,95.69134058334232,5.62616843615861,22.33071834697044,-37.75918261207112C-51.02990388940146,-81.14453366030085,-109.789671821985,-149.21858103180784,-139.16955578827677,-183.25560471756134L-168.54943975456854,-217.29262840331484" style="mix-blend-mode: multiply;"/><path d="M236.7040574260845,139.98638933135211L200.96204929853045,121.75986817859979C165.22004117097632,103.53334702584743,93.73602491586819,67.08030472034275,64.28358057552896,88.47875808730998C34.831136235189724,109.87721145427723,47.41026380961943,189.1271604937164,53.69982759683427,228.75213501343595L59.98939138404913,268.37710953315553" style="mix-blend-mode: multiply;"/><path d="M236.7040574260845,139.98638933135211L202.7906887080845,120.67841384648538C168.87731999008452,101.37043836161865,101.05058255408454,62.75448739188519,95.97999700779985,69.73354966399387C90.90941146151518,76.71261193610256,148.59497780494578,129.2866874500534,177.4377609766611,155.5737252070288L206.2805441483764,181.8607629640042" style="mix-blend-mode: multiply;"/><path d="M236.7040574260845,139.98638933135211L203.56689577539427,117.65528691713472C170.429734124704,95.32418450291732,104.1554108233235,50.66197967448252,109.43425284116866,17.332682888582287C114.71309485901385,-15.996613897317935,191.54510219608468,-37.99300264068359,229.96110586462012,-48.99119701236642L268.37710953315553,-59.98939138404924" style="mix-blend-mode: multiply;"/><path d="M236.7040574260845,139.98638933135211L196.77637810497262,118.29717982510427C156.8486987838607,96.60797031885642,76.9933401416369,53.22955130636072,-8.268053446139868,28.458826626721173C-93.52944703391665,3.688101947081622,-184.1968755672464,-2.474928399701778,-229.5305898339113,-5.556443573093479L-274.8643041005762,-8.637958746485179" style="mix-blend-mode: multiply;"/><path d="M236.7040574260845,139.98638933135211L203.36696343201848,117.03995843537827C170.02986943795247,94.09352753940443,103.35568144982047,48.200665747456746,105.96875888932219,6.66698920480395C108.58183632882391,-34.866687337848845,180.48217919595936,-72.04117863120675,216.43235062952712,-90.6284242778857L252.38252206309483,-109.21566992456465" style="mix-blend-mode: multiply;"/><path d="M236.7040574260845,139.98638933135211L200.10420742189874,121.84095811069254C163.50435741771298,103.69552689003295,90.30465740934146,67.40466444871379,49.41432138057985,89.88431691025114C8.523985351818235,112.36396937178849,-0.05698669733348183,193.61413673618233,-4.34747272190934,234.2392204183793L-8.637958746485198,274.8643041005762" style="mix-blend-mode: multiply;"/><path d="M236.7040574260845,139.98638933135211L198.1053139092977,115.68899645439389C159.5065703925109,91.39160357743567,82.30908335893729,42.796817823519234,14.766833828828453,-16.749685132258588C-52.77541570128039,-76.29618808803642,-110.66242772792447,-146.7944082456756,-139.6059337412465,-182.04351832449524L-168.54943975456854,-217.29262840331484" style="mix-blend-mode: multiply;"/><path d="M236.7040574260845,139.98638933135211L197.25338118840375,120.15498417607724C157.80270495072298,100.32357902080236,78.90135247536149,60.66076871025259,-1.4210854715202004e-14,60.66076871025257C-78.90135247536152,60.66076871025257,-157.80270495072304,100.32357902080231,-197.25338118840378,120.15498417607718L-236.70405742608455,139.98638933135206" style="mix-blend-mode: multiply;"/><path d="M236.7040574260845,139.98638933135211L199.25314997921996,115.10414476492083C161.8022425323554,90.22190019848956,86.90042763862631,40.45741106562701,34.66265904081421,-26.88711441645823C-17.5751095569979,-94.23163989854346,-47.14883185889303,-179.1562017298514,-61.9356930098406,-221.61848264550534L-76.72255416078816,-264.0807635611593" style="mix-blend-mode: multiply;"/><path d="M236.7040574260845,139.98638933135211L202.31904990316193,115.68899645439389C167.93404238023933,91.39160357743567,99.16402733439413,42.796817823519234,87.80492438914149,-16.749685132258602C76.44582144388882,-76.29618808803643,122.49763059922867,-146.79440824567567,145.5235351768986,-182.0435183244953L168.5494397545685,-217.2926284033149" style="mix-blend-mode: multiply;"/><path d="M236.7040574260845,139.98638933135211L197.05740038044112,117.03995843537827C157.41074333479773,94.09352753940443,78.11742924351098,48.20066574745675,-3.39700067135225,6.666989204803985C-84.91143058621547,-34.86668733784878,-168.64697632465518,-72.04117863120663,-210.51474919387502,-90.62842427788557L-252.38252206309488,-109.2156699245645" style="mix-blend-mode: multiply;"/><path d="M206.2805441483764,181.8607629640042L177.63374178462377,152.45869946632982C148.98693942087104,123.05663596865547,91.69333469336568,64.25250897330672,99.3769976791521,15.739770158545234C107.0606606649385,-32.77296865621624,179.7215913640167,-70.99431929039045,216.05205671355574,-90.10499460747756L252.38252206309483,-109.21566992456466" style="mix-blend-mode: multiply;"/><path d="M206.2805441483764,181.8607629640042L174.370985774504,157.2596991416441C142.46142740063155,132.658635319284,78.64231065288669,83.45650767456375,42.82256017040976,98.95709786399243C7.002809687932829,114.45768805342108,-0.8175745292761848,194.66099607699866,-4.727766637880691,234.7626500887874L-8.637958746485198,274.8643041005762" style="mix-blend-mode: multiply;"/><path d="M206.2805441483764,181.8607629640042L175.4379921858449,157.12490488490138C144.59544022331337,132.38904680579856,82.91033629825036,82.91733064759292,61.31733796698563,96.62066408045212C39.724339635720895,110.32399751331131,58.22344689825445,187.2023805372353,67.47300052952123,225.64157204919732L76.72255416078801,264.08076356115936" style="mix-blend-mode: multiply;"/><path d="M206.2805441483764,181.8607629640042L171.32417873304635,152.45869946632982C136.36781331771633,123.05663596865547,66.4550824870562,64.25250897330672,-9.988761881522345,15.739770158545271C-86.43260625010089,-32.77296865621618,-169.40756415659789,-70.99431929039034,-210.8950431098464,-90.10499460747741L-252.3825220630949,-109.2156699245645" style="mix-blend-mode: multiply;"/><path d="M206.2805441483764,181.8607629640042L173.72909286653444,157.17860920955133C141.17764158469245,132.49645545509847,76.0747390210085,83.13214794619273,31.696416432270897,97.55153904105127C-12.681906156466704,111.97093013590984,-36.33564877025795,190.1740198345327,-48.16252007715357,229.27556468384412L-59.98939138404919,268.37710953315553" style="mix-blend-mode: multiply;"/><path d="M206.2805441483764,181.8607629640042L173.5199283318252,150.52288579587238C140.759312515274,119.1850086277406,75.23808088217156,56.509254291476985,28.070897830644117,-17.814333462716935C-19.096285220883306,-92.13792121691085,-47.90941969083573,-178.10934238903508,-62.31598692581195,-221.09505297509722L-76.72255416078816,-264.0807635611593" style="mix-blend-mode: multiply;"/><path d="M206.2805441483764,181.8607629640042L176.03955260168973,156.8867302672844C145.79856105500306,131.9126975705646,85.31657796162973,81.96463217712501,71.74438517496289,92.49230404175783C58.172192388296054,103.01997590639064,91.50978990833572,174.02338502909592,108.17858866835554,209.52508959044852L124.84738742837538,245.02679415180114" style="mix-blend-mode: multiply;"/><path d="M206.2805441483764,181.8607629640042L177.8336741279995,153.07402794808627C149.38680410762257,124.28729293216834,92.49306406686874,66.71382290033249,102.8424916309986,26.405463842323574C113.19191919512843,-13.902895215685332,190.78451436414198,-36.94614329986729,229.58081194864874,-48.46776734195826L268.37710953315553,-59.98939138404924" style="mix-blend-mode: multiply;"/><path d="M206.2805441483764,181.8607629640042L174.15546293180265,150.4016510870638C142.03038171522888,118.9425392101234,77.78021928208138,56.0243154562426,39.08683089692005,-19.91573508206594C0.3934425117587092,-95.85578562037448,-12.743171825416445,-184.81766294311072,-19.311478994004023,-229.29860160447888L-25.8797861625916,-273.779540265847" style="mix-blend-mode: multiply;"/><path d="M206.2805441483764,181.8607629640042L177.43776097666114,155.5737252070288C148.59497780494578,129.2866874500534,90.90941146151518,76.71261193610256,95.97999700779985,69.73354966399387C101.05058255408454,62.75448739188519,168.87731999008452,101.37043836161865,202.7906887080845,120.67841384648538L236.7040574260845,139.98638933135211" style="mix-blend-mode: multiply;"/><path d="M206.2805441483764,181.8607629640042L171.04315645757788,153.71592085605582C135.80576876677927,125.57107874810744,65.33099338518214,69.28139453221068,-14.859814656309956,37.531607580462456C-95.05062269780205,5.781820628714226,-184.95746339918912,-1.428069058885476,-229.91088374988263,-5.033013902685328L-274.8643041005762,-8.637958746485179" style="mix-blend-mode: multiply;"/><path d="M206.2805441483764,181.8607629640042L176.22879012547696,150.86509462256083C146.1770361025775,119.86942628111747,86.07352805677857,57.87808959823072,75.0245022539412,-11.882713800117395C63.975476451103795,-81.64351719846552,101.98093289122795,-159.17378731227498,120.98366111129003,-197.93892236917975L139.98638933135211,-236.7040574260845" style="mix-blend-mode: multiply;"/><path d="M206.2805441483764,181.8607629640042L177.87413892963085,154.36163881396268C149.46773371088526,126.86251466392116,92.6549232733941,71.86426636383813,103.54388152594186,48.724052184181346C114.4328397784896,25.583838004524562,193.02356672107624,34.301657945294046,232.31893019236955,38.66056791567879L271.61429366366286,43.01947788606353" style="mix-blend-mode: multiply;"/><path d="M206.2805441483764,181.8607629640042L171.520159541009,155.5737252070288C136.75977493364158,129.2866874500534,67.23900571890672,76.71261193610256,-6.5917612101700955,69.73354966399387C-80.42252813924692,62.75448739188517,-158.56329278266574,101.37043836161861,-197.63367510437516,120.67841384648533L-236.70405742608455,139.98638933135206" style="mix-blend-mode: multiply;"/><path d="M206.2805441483764,181.8607629640042L172.37209226190296,151.10773748534544C138.46364037542946,120.35471200668671,70.64673660248253,58.848661049369206,8.17507261865837,-7.6769041785173044C-54.29659136516579,-74.20246940640381,-111.42301555986717,-145.74754890485931,-139.98622765721785,-181.5200886540871L-168.54943975456854,-217.29262840331484" style="mix-blend-mode: multiply;"/><path d="M206.2805441483764,181.8607629640042L177.54179518573258,152.26330299753218C148.80304622308873,122.66584303106019,91.325548297801,63.470923098116174,97.78325663170513,12.352898032719581C104.24096496560925,-38.765127032677015,174.6338795587052,-81.80625723052619,209.8303368552532,-103.32682232945079L245.02679415180114,-124.84738742837537" style="mix-blend-mode: multiply;"/><path d="M206.2805441483764,181.8607629640042L175.01670373241086,157.21907401118267C143.75286331644529,132.57738505836116,81.22518248451414,83.2940071527181,54.01500477412865,98.25292893599453C26.804827063743176,113.21185071927097,34.91215247490335,192.4130721914669,38.96581518048344,232.0136829275649L43.01947788606353,271.61429366366286" style="mix-blend-mode: multiply;"/><path d="M206.2805441483764,181.8607629640042L176.58582825576718,151.10773748534544C146.8911123631579,120.35471200668671,87.5016805779394,58.848661049369206,81.2131631789714,-7.676904178517309C74.92464578000342,-74.20246940640382,121.73704276728597,-145.74754890485934,145.14324126092723,-181.5200886540871L168.5494397545685,-217.29262840331486" style="mix-blend-mode: multiply;"/><path d="M206.2805441483764,181.8607629640042L176.9096398191638,151.3932157800581C147.5387354899512,120.92566859611206,88.79692683152598,59.99057422821991,86.82589694451333,-2.72861373683088C84.8548670575007,-65.44780170188169,139.65461594190063,-129.95108326409112,167.0544903841006,-162.20272404519585L194.45436482630055,-194.45436482630058" style="mix-blend-mode: multiply;"/><path d="M206.2805441483764,181.8607629640042L171.08378158803927,153.28615186681108C135.8870190277021,124.711540769618,65.49349390702781,67.56231857523177,-14.155645728312066,30.082278433553835C-93.80478536365194,-7.397761708124105,-182.7095395136574,-25.20861979709377,-227.16191658866015,-34.1140488415786L-271.61429366366286,-43.019477886063434" style="mix-blend-mode: multiply;"/><path d="M206.2805441483764,181.8607629640042L175.22882765113567,150.46918147122244C144.1771111538949,119.07759997844069,82.07367815941342,56.294436992877166,57.69181936535889,-18.745208423316118C33.30996057130435,-93.78485383950941,46.64967597767677,-181.08098168633248,53.319533680862996,-224.72904560974402L59.989391384049206,-268.37710953315553" style="mix-blend-mode: multiply;"/><path d="M124.84738742837538,245.02679415180114L104.85021447420024,210.6065439225629C84.85304152002509,176.1862936933247,44.85869561167477,107.34579323484822,14.05256580960401,111.23751246507395C-16.753563992466752,115.12923169529968,-38.37147768825797,191.75317061422763,-49.18043453615358,230.0651400736916L-59.989391384049185,268.37710953315553" style="mix-blend-mode: multiply;"/><path d="M124.84738742837538,245.02679415180114L104.641049939491,203.950820508884C84.4347124506066,162.87484686596682,44.02203747283783,80.72289958013248,10.427047207977232,-4.128360038694268C-23.16794305688336,-88.97961965752101,-49.94524860883576,-176.53019160934016,-63.33390138481196,-220.30547758524972L-76.72255416078816,-264.0807635611593" style="mix-blend-mode: multiply;"/><path d="M124.84738742837538,245.02679415180114L108.9547957356653,206.50196266109785C93.0622040429552,167.97713117039456,61.27702065753501,90.92746818898797,85.1986410083317,40.09143726634624C109.12026135912839,-10.74459365629548,188.74868544614196,-35.36699252017235,228.56289748964875,-47.6781919521108L268.37710953315553,-59.989391384049235" style="mix-blend-mode: multiply;"/><path d="M124.84738742837538,245.02679415180114L108.75486339228955,205.8866341793414C92.66233935620369,166.7464742068817,60.47729128403197,88.46615426196222,81.73314705648521,29.425743582567915C102.98900282893845,-29.61466709682639,177.68576244601664,-69.41516851069552,215.03414225455572,-89.3154192176301L252.38252206309483,-109.21566992456465" style="mix-blend-mode: multiply;"/><path d="M124.84738742837538,245.02679415180114L108.17858866835557,209.52508959044852C91.50978990833572,174.02338502909592,58.172192388296054,103.01997590639064,71.74438517496289,92.49230404175783C85.31657796162973,81.96463217712501,145.79856105500306,131.9126975705646,176.03955260168973,156.8867302672844L206.2805441483764,181.8607629640042" style="mix-blend-mode: multiply;"/><path d="M124.84738742837538,245.02679415180114L108.66291679339837,205.69123771054376C92.47844615842133,166.3556812692864,60.10950488846729,87.68456838677167,80.13940600903824,26.038871456742253C100.16930712960921,-35.60682547328717,172.59805064070517,-80.22710645083127,208.81242239625317,-102.53724693960332L245.02679415180114,-124.84738742837537" style="mix-blend-mode: multiply;"/><path d="M124.84738742837538,245.02679415180114L105.49210738216978,210.68763385465567C86.13682733596418,176.34847355751018,47.42626724355298,107.67015296321925,25.178709547742873,112.6430712880151C2.931151851932778,117.61598961281094,-2.8534034472762104,196.24014685669354,-5.745681096880705,235.55222547863488L-8.637958746485198,274.8643041005762" style="mix-blend-mode: multiply;"/><path d="M124.84738742837538,245.02679415180114L102.44530034071217,205.8866341793414C80.04321325304893,166.7464742068817,35.23903907772249,88.46615426196222,-27.632612504189225,29.425743582567936C-90.50426408610093,-29.614667096826334,-171.4433930745979,-69.41516851069541,-211.9129575688464,-89.31541921762995L-252.38252206309488,-109.2156699245645" style="mix-blend-mode: multiply;"/><path d="M76.72255416078801,264.08076356115936L67.47300052952123,225.64157204919732C58.22344689825445,187.2023805372353,39.724339635720895,110.32399751331131,61.317337966985626,96.62066408045212C82.91033629825036,82.91733064759292,144.59544022331337,132.38904680579856,175.4379921858449,157.12490488490138L206.2805441483764,181.8607629640042" style="mix-blend-mode: multiply;"/><path d="M76.72255416078801,264.08076356115936L64.78651924333546,226.80411631340448C52.85048432588291,189.52746906564963,28.978414490977812,114.9741745701399,14.751662339765609,116.77143132670938C0.5249101885534083,118.56868808327884,-4.056524278965895,196.71649609192752,-6.347241512725547,235.79040009625183L-8.637958746485198,274.8643041005762" style="mix-blend-mode: multiply;"/><path d="M76.72255416078801,264.08076356115936L61.73971220187784,222.00311663809023C46.756870242967665,179.9254697150211,16.791186325147322,95.77017586888286,-38.0596597121665,33.554103621262215C-92.91050574948031,-28.66196862635842,-172.64651390628762,-68.93881927546146,-212.51451798469125,-89.07724460001297L-252.3825220630949,-109.2156699245645" style="mix-blend-mode: multiply;"/><path d="M76.72255416078801,264.08076356115936L61.49931505687075,222.8305690385715C46.27607595295347,181.58037451598364,15.829597745118926,99.07998547080791,-42.226543558956216,47.89661189627079C-100.28268486303136,-3.286761678266347,-185.9484892633471,-23.15311978216489,-228.781391463505,-33.08629883411417L-271.61429366366286,-43.019477886063434" style="mix-blend-mode: multiply;"/><path d="M76.72255416078801,264.08076356115936L63.73008212682333,220.13403486886713C50.73761009285865,176.18730617657494,24.7526660249293,88.2938487919905,-3.559914346444598,1.1566862880619528C-31.872494717818494,-85.98047621586659,-62.51271139263694,-172.3613438391392,-77.83281973004615,-215.55177765077556L-93.15292806745538,-258.7422114624119" style="mix-blend-mode: multiply;"/><path d="M59.98939138404913,268.37710953315553L53.69982759683427,228.75213501343595C47.41026380961943,189.1271604937164,34.831136235189724,109.87721145427723,64.28358057552896,88.47875808730998C93.73602491586819,67.08030472034275,165.22004117097632,103.53334702584743,200.9620492985304,121.75986817859979L236.7040574260845,139.98638933135211" style="mix-blend-mode: multiply;"/><path d="M59.98939138404913,268.37710953315553L50.63305239467715,230.43810894805128C41.27671340530518,192.499108362947,22.564035426561237,116.62110719273842,11.126143738138852,117.70230628730855C-0.31174795028353647,118.78350538187867,-4.474853348384368,196.82390474122744,-6.556406047434784,235.8441044209018L-8.6379587464852,274.8643041005762" style="mix-blend-mode: multiply;"/><path d="M59.98939138404913,268.37710953315553L53.8958084047969,225.637109272737C47.80222542554469,182.89710901231845,35.61505946704025,97.41710849148139,67.6805812468812,34.484978581861355C99.74610302672215,-28.44715132775868,176.0643125449085,-68.83141062616167,214.22341730400163,-89.02354027536317L252.38252206309483,-109.21566992456466" style="mix-blend-mode: multiply;"/><path d="M43.01947788606352,271.61429366366286L38.96581518048343,232.0136829275649C34.912152474903344,192.4130721914669,26.804827063743172,113.21185071927097,54.01500477412865,98.25292893599453C81.22518248451414,83.2940071527181,143.75286331644529,132.57738505836116,175.01670373241086,157.21907401118267L206.2805441483764,181.8607629640042" style="mix-blend-mode: multiply;"/><path d="M-8.637958746485198,274.8643041005762L-4.727766637880691,234.7626500887874C-0.8175745292761848,194.66099607699866,7.002809687932829,114.45768805342108,42.82256017040976,98.95709786399243C78.64231065288669,83.45650767456375,142.46142740063155,132.658635319284,174.37098577450396,157.2596991416441L206.2805441483764,181.8607629640042" style="mix-blend-mode: multiply;"/><path d="M-8.637958746485198,274.8643041005762L-6.347241512725546,235.79040009625183C-4.056524278965895,196.71649609192752,0.5249101885534083,118.56868808327884,14.751662339765609,116.77143132670938C28.978414490977812,114.9741745701399,52.85048432588291,189.52746906564963,64.78651924333546,226.80411631340448L76.72255416078801,264.08076356115936" style="mix-blend-mode: multiply;"/><path d="M-8.637958746485198,274.8643041005762L-10.461054965524085,231.1241946776803C-12.28415118456297,187.38408525478442,-15.930343622640741,99.90386640899266,-56.55443750874236,35.89053740480253C-97.17853139484397,-28.12279159938758,-174.78052672896945,-68.66923076197604,-213.58152439603217,-88.94245034327027L-252.3825220630949,-109.2156699245645" style="mix-blend-mode: multiply;"/><path d="M-8.637958746485198,274.8643041005762L-4.34747272190934,234.2392204183793C-0.05698669733348183,193.61413673618233,8.523985351818235,112.36396937178849,49.41432138057985,89.88431691025113C90.30465740934146,67.40466444871379,163.50435741771298,103.69552689003295,200.10420742189874,121.84095811069254L236.7040574260845,139.98638933135211" style="mix-blend-mode: multiply;"/><path d="M-8.637958746485198,274.8643041005762L-4.243438512837882,230.92879820888265C0.15108172080943424,186.99329231718914,8.940122188104068,99.1222805338021,51.21758100448512,32.50366527897685C93.49503982086618,-34.11494997584841,169.26091698633365,-79.4811687021119,207.14385556906737,-102.16427806524364L245.02679415180114,-124.84738742837537" style="mix-blend-mode: multiply;"/><path d="M-8.637958746485198,274.8643041005762L-5.745681096880705,235.55222547863488C-2.8534034472762104,196.24014685669354,2.931151851932778,117.61598961281094,25.178709547742873,112.6430712880151C47.42626724355298,107.67015296321925,86.13682733596418,176.34847355751018,105.49210738216978,210.68763385465567L124.84738742837538,245.02679415180114" style="mix-blend-mode: multiply;"/><path d="M-8.637958746485198,274.8643041005762L-9.57953297678545,235.0678973535921C-10.5211072070857,195.27149060660795,-12.404255667686206,115.6786771126397,-41.27472303727271,104.24805045393974C-70.14519040685921,92.81742379523978,-126.0029766854317,149.5489839718081,-153.93186982471795,177.91476406009224L-181.8607629640042,206.2805441483764" style="mix-blend-mode: multiply;"/><path d="M-8.637958746485198,274.8643041005762L-6.556406047434781,235.8441044209018C-4.474853348384367,196.82390474122744,-0.31174795028353525,118.78350538187867,11.126143738138852,117.70230628730855C22.564035426561244,116.62110719273842,41.27671340530519,192.499108362947,50.63305239467716,230.43810894805128L59.989391384049135,268.37710953315553" style="mix-blend-mode: multiply;"/><path d="M-8.637958746485198,274.8643041005762L-5.374111828368697,229.64630107766857C-2.1102649102521975,184.42829805476092,4.417428925980803,93.99229200894565,31.619243535284323,10.273715004598865C58.82105814458783,-73.44486199974791,106.69699352696188,-150.44600996262622,130.6349612181489,-188.9465839440654L154.5729289093359,-227.4471579255045" style="mix-blend-mode: multiply;"/><path d="M-8.637958746485198,274.8643041005762L-3.884029186412308,232.16589322470497C0.869900373660581,189.46748234883376,10.37775949380636,104.0706605970913,57.4473426625284,53.94664555323002C104.51692583125043,3.822630509368743,189.14823304854872,-11.028577826611373,231.46388665719783,-18.45418199460143L273.779540265847,-25.879786162591486" style="mix-blend-mode: multiply;"/><path d="M-8.637958746485198,274.8643041005762L-9.579532976785451,229.9108837498827C-10.521107207085706,184.95746339918912,-12.404255667686213,95.05062269780205,-41.27472303727274,14.859814656309979C-70.14519040685927,-65.3309933851821,-126.00297668543182,-135.80576876677918,-153.93186982471812,-171.04315645757774L-181.86076296400438,-206.28054414837626" style="mix-blend-mode: multiply;"/><path d="M-8.637958746485198,274.8643041005762L-4.151491913946711,231.1241946776803C0.33497491859177586,187.38408525478442,9.30790858366875,99.90386640899264,52.81132205193209,35.89053740480251C96.31473552019543,-28.122791599387636,174.3486287916451,-68.66923076197615,213.36557542737,-88.94245034327041L252.38252206309483,-109.21566992456465" style="mix-blend-mode: multiply;"/><path d="M-8.637958746485198,274.8643041005762L-10.60728298424989,231.53035862472748C-12.57660722201458,188.19641314887883,-16.51525569754396,101.52852219718147,-59.08905649998965,42.9307124869541C-101.66285730243534,-15.667097223273268,-182.87181043179737,-46.194825692030655,-223.47628699647836,-61.45868992640934L-264.08076356115936,-76.72255416078804" style="mix-blend-mode: multiply;"/><path d="M-8.637958746485198,274.8643041005762L-10.265074157561456,230.73956068509548C-11.892189568637711,186.61481726961472,-15.146420390790224,98.36533043865326,-53.15743683739012,29.223548199998575C-91.16845328399002,-39.918234038656124,-163.93625535503733,-89.95231168500406,-200.32015639056098,-114.96935050817804L-236.7040574260846,-139.986389331352" style="mix-blend-mode: multiply;"/><path d="M-8.637958746485198,274.8643041005762L-10.265074157561454,234.2392204183793C-11.89218956863771,193.61413673618233,-15.14642039079022,112.36396937178847,-53.157436837390115,89.88431691025113C-91.16845328399,67.40466444871377,-163.93625535503728,103.69552689003291,-200.3201563905609,121.84095811069248L-236.70405742608455,139.98638933135206" style="mix-blend-mode: multiply;"/><path d="M-8.637958746485198,274.8643041005762L-3.951559570570952,231.73952315943674C0.7348396053432941,188.61474221829732,10.107637957171788,102.36518033601841,56.27681600377858,46.55623108858085C102.44599405038537,-9.252718158856728,185.41155179177045,-34.62105477145298,226.89433066246298,-47.3052230777511L268.37710953315553,-59.989391384049235" style="mix-blend-mode: multiply;"/><path d="M-8.637958746485198,274.8643041005762L-8.265305366745249,229.1883810072229C-7.8926519870053005,183.51245791386955,-7.147345227525402,92.16061172716292,-18.494777796575896,2.336433783540324C-29.84221036562639,-87.48774416008224,-53.282382263207275,-175.78425386062077,-65.00246821199771,-219.93250871089003L-76.72255416078816,-264.0807635611593" style="mix-blend-mode: multiply;"/><path d="M-8.637958746485198,274.8643041005762L-6.556406047434781,229.13467668257292C-4.474853348384365,183.40504926456967,-0.3117479502835317,91.94579442856309,11.12614373813887,1.405558822941136C22.564035426561272,-89.13467678268081,41.27671340530524,-178.75589315791817,50.633052394677215,-223.56650134553686L59.989391384049206,-268.37710953315553" style="mix-blend-mode: multiply;"/><path d="M-59.98939138404919,268.37710953315553L-51.70005880601813,223.7012956022796C-43.41072622798706,179.02548167140358,-26.832061071924937,89.67385380965165,-29.620921534714757,0.9308749605991787C-32.40978199750459,-87.8121038884533,-54.56616807914637,-175.9464337248063,-65.64436111996727,-220.01359864298277L-76.72255416078816,-264.0807635611593" style="mix-blend-mode: multiply;"/><path d="M-59.98939138404919,268.37710953315553L-49.18043453615358,230.0651400736916C-38.371477688257976,191.75317061422763,-16.753563992466756,115.12923169529968,14.05256580960401,111.23751246507395C44.85869561167477,107.34579323484822,84.85304152002509,176.1862936933247,104.85021447420024,210.6065439225629L124.84738742837538,245.02679415180114" style="mix-blend-mode: multiply;"/><path d="M-59.98939138404919,268.37710953315553L-47.38631300984383,226.25243775449346C-34.78323463563847,184.12776597583135,-9.577077887227743,99.87842241850716,45.15067226563971,45.150672265639706C99.87842241850717,-9.577077887227766,184.12776597583135,-34.7832346356385,226.25243775449346,-47.38631300984387L268.37710953315553,-59.98939138404924" style="mix-blend-mode: multiply;"/><path d="M-59.98939138404919,268.37710953315553L-47.58624535321959,225.637109272737C-35.183099322389985,182.89710901231845,-10.376807260730779,97.41710849148139,41.68517831379322,34.484978581861355C93.74716388831723,-28.44715132775868,173.06484297570603,-68.83141062616167,212.72368251940043,-89.02354027536317L252.38252206309483,-109.21566992456466" style="mix-blend-mode: multiply;"/><path d="M-59.98939138404919,268.37710953315553L-48.162520077153566,229.27556468384412C-36.33564877025795,190.1740198345327,-12.6819061564667,111.97093013590984,31.696416432270897,97.55153904105127C76.0747390210085,83.13214794619273,141.17764158469245,132.49645545509847,173.72909286653444,157.17860920955135L206.2805441483764,181.8607629640042" style="mix-blend-mode: multiply;"/><path d="M-59.98939138404919,268.37710953315553L-47.34584820821249,227.54004862036984C-34.70230503237578,186.70298770758416,-9.415218680702377,105.0288658820128,45.85206216058297,67.46926060749746C101.1193430018683,29.90965533298213,186.36681833276558,36.46456660952283,228.99055599821426,39.74202224779318L271.61429366366286,43.01947788606353" style="mix-blend-mode: multiply;"/><path d="M-59.98939138404919,268.37710953315553L-53.69982759683433,228.75213501343595C-47.41026380961947,189.1271604937164,-34.83113623518975,109.87721145427723,-64.28358057552897,88.47875808730998C-93.7360249158682,67.08030472034274,-165.22004117097637,103.53334702584739,-200.96204929853047,121.75986817859973L-236.70405742608455,139.98638933135206" style="mix-blend-mode: multiply;"/><path d="M-59.98939138404919,268.37710953315553L-52.847894875940376,224.28614729175263C-45.706398367831575,180.1951850503497,-31.42340535161395,92.01326056754387,-49.516746746700505,11.068304244798819C-67.61008814178707,-69.87665207794625,-118.0797639481778,-143.58464024063053,-143.31460185137317,-180.4386343219727L-168.54943975456854,-217.29262840331484" style="mix-blend-mode: multiply;"/><path d="M-181.8607629640042,206.2805441483764L-153.93186982471795,177.91476406009227C-126.0029766854317,149.5489839718081,-70.14519040685921,92.81742379523978,-41.27472303727271,104.24805045393974C-12.404255667686206,115.6786771126397,-10.5211072070857,195.27149060660795,-9.57953297678545,235.0678973535921L-8.637958746485198,274.8643041005762" style="mix-blend-mode: multiply;"/><path d="M-236.70405742608455,139.98638933135206L-196.81700323543407,118.94289778301106C-156.92994904478357,97.8994062346701,-77.1558406634826,55.812423137988134,7.563884518141971,39.651271230440045C92.28360969976654,23.490119322891957,181.9489516817147,33.25479860447774,226.78162267268877,38.137138245270634L271.61429366366286,43.01947788606353" style="mix-blend-mode: multiply;"/><path d="M-236.70405742608455,139.98638933135206L-200.96204929853047,121.75986817859973C-165.22004117097637,103.53334702584739,-93.7360249158682,67.08030472034274,-64.28358057552897,88.47875808730998C-34.83113623518975,109.87721145427723,-47.410263809619465,189.1271604937164,-53.699827596834325,228.75213501343595L-59.989391384049185,268.37710953315553" style="mix-blend-mode: multiply;"/><path d="M-236.70405742608455,139.98638933135206L-197.63367510437513,120.67841384648533C-158.56329278266574,101.37043836161861,-80.42252813924692,62.75448739188517,-6.5917612101700955,69.73354966399386C67.23900571890672,76.71261193610256,136.75977493364158,129.2866874500534,171.52015954100898,155.5737252070288L206.2805441483764,181.8607629640042" style="mix-blend-mode: multiply;"/><path d="M-236.70405742608455,139.98638933135206L-201.1712138332397,115.10414476492078C-165.63837024039483,90.22190019848954,-94.57268305470514,40.45741106562699,-67.90909917715575,-26.887114416458235C-41.24551529960636,-94.23163989854346,-58.984034730197266,-179.1562017298514,-67.85329444549271,-221.61848264550534L-76.72255416078816,-264.0807635611593" style="mix-blend-mode: multiply;"/><path d="M-236.70405742608455,139.98638933135206L-196.8574680370654,117.65528691713466C-157.01087864804626,95.32418450291728,-77.31769987000796,50.661979674482495,6.862494623198714,17.33268288858228C91.04268911640538,-15.996613897317937,179.70989932478048,-37.99300264068359,224.04350442896802,-48.99119701236642L268.37710953315553,-59.98939138404924" style="mix-blend-mode: multiply;"/><path d="M-236.70405742608455,139.98638933135206L-202.31904990316195,115.68899645439383C-167.93404238023936,91.39160357743565,-99.16402733439418,42.79681782351921,-87.8049243891415,-16.749685132258605C-76.44582144388885,-76.29618808803642,-122.49763059922869,-146.7944082456756,-145.5235351768986,-182.04351832449524L-168.54943975456854,-217.29262840331484" style="mix-blend-mode: multiply;"/><path d="M-236.70405742608455,139.98638933135206L-203.36696343201854,117.03995843537821C-170.02986943795253,94.0935275394044,-103.3556814498205,48.20066574745673,-105.96875888932222,6.666989204803971C-108.58183632882395,-34.86668733784879,-180.48217919595945,-72.04117863120665,-216.43235062952718,-90.62842427788557L-252.3825220630949,-109.2156699245645" style="mix-blend-mode: multiply;"/><path d="M-236.70405742608455,139.98638933135206L-200.3201563905609,121.84095811069248C-163.93625535503728,103.69552689003291,-91.16845328399,67.40466444871377,-53.157436837390115,89.88431691025112C-15.14642039079022,112.36396937178847,-11.89218956863771,193.61413673618233,-10.265074157561454,234.2392204183793L-8.637958746485198,274.8643041005762" style="mix-blend-mode: multiply;"/><path d="M-236.70405742608455,139.98638933135206L-197.25338118840378,120.15498417607718C-157.80270495072304,100.32357902080231,-78.90135247536152,60.66076871025257,-1.4210854715202004e-14,60.66076871025257C78.90135247536149,60.66076871025259,157.80270495072298,100.32357902080236,197.25338118840375,120.15498417607724L236.7040574260845,139.98638933135211" style="mix-blend-mode: multiply;"/><path d="M-274.8643041005762,-8.63795874648518L-229.91088374988263,-5.0330139026853296C-184.95746339918912,-1.4280690588854779,-95.05062269780205,5.781820628714224,-14.859814656309956,37.531607580462456C65.33099338518214,69.28139453221068,135.80576876677927,125.57107874810744,171.04315645757785,153.71592085605585L206.2805441483764,181.8607629640042" style="mix-blend-mode: multiply;"/><path d="M-274.8643041005762,-8.63795874648518L-229.5305898339113,-5.556443573093481C-184.1968755672464,-2.47492839970178,-93.52944703391665,3.6881019470816203,-8.268053446139874,28.458826626721173C76.9933401416369,53.22955130636072,156.8486987838607,96.60797031885642,196.77637810497262,118.29717982510427L236.7040574260845,139.98638933135211" style="mix-blend-mode: multiply;"/><path d="M-274.8643041005762,-8.63795874648518L-229.13467668257292,-8.056140832035998C-183.40504926456967,-7.474322917586814,-91.94579442856309,-6.310687088688449,-1.405558822941136,-14.869259194949125C89.13467678268081,-23.427831301209803,178.75589315791817,-41.708611342629524,223.56650134553686,-50.84900136333939L268.37710953315553,-59.98939138404924" style="mix-blend-mode: multiply;"/><path d="M-271.61429366366286,-43.019477886063434L-228.781391463505,-33.08629883411417C-185.9484892633471,-23.15311978216489,-100.28268486303136,-3.286761678266347,-42.226543558956216,47.89661189627079C15.829597745118923,99.07998547080791,46.27607595295347,181.58037451598364,61.49931505687073,222.8305690385715L76.72255416078801,264.08076356115936" style="mix-blend-mode: multiply;"/><path d="M-271.61429366366286,-43.019477886063434L-230.90483499135803,-39.621586021908804C-190.19537631905322,-36.223694157754174,-108.77645897444353,-29.42791042944491,-79.03289804174229,-65.38169935883633C-49.28933710904104,-101.33548828822774,-71.22113258824821,-180.0388498753198,-82.18703032785179,-219.39053066886584L-93.15292806745538,-258.7422114624119" style="mix-blend-mode: multiply;"/><path d="M-271.61429366366286,-43.019477886063434L-227.3097438301861,-38.817987938957415C-183.0051939967093,-34.61649799185139,-94.39609432975574,-26.213518097639348,-16.7179845814285,-51.452665921012205C60.960125166898735,-76.69181374438506,127.70724499659964,-135.57308928534283,161.0808049114501,-165.0137270558217L194.45436482630055,-194.45436482630058" style="mix-blend-mode: multiply;"/><path d="M-271.61429366366286,-43.019477886063434L-227.16191658866015,-34.1140488415786C-182.7095395136574,-25.20861979709377,-93.80478536365194,-7.397761708124105,-14.155645728312066,30.082278433553835C65.49349390702781,67.56231857523177,135.8870190277021,124.711540769618,171.08378158803927,153.2861518668111L206.2805441483764,181.8607629640042" style="mix-blend-mode: multiply;"/><path d="M-271.61429366366286,-43.019477886063434L-226.58564186472617,-37.75250425268572C-181.55699006578945,-32.48553061930799,-91.49968646791604,-21.951583352552547,-4.166883846789744,-32.984282025636084C83.16591877433653,-44.016980698719614,167.7742204187157,-76.61632531164214,210.07837124090528,-92.91599761810339L252.38252206309483,-109.21566992456465" style="mix-blend-mode: multiply;"/><path d="M-271.61429366366286,-43.019477886063434L-227.99059352387295,-39.34610909645471C-184.36689338408303,-35.67274030684599,-97.11949310450315,-28.326002727628545,-28.519379272000666,-60.606765984298725C40.08073456050183,-92.88752924096889,90.03356194592698,-164.7957933335267,115.00997563863955,-200.7499253798056L139.98638933135211,-236.7040574260845" style="mix-blend-mode: multiply;"/><path d="M-271.61429366366286,-43.019477886063434L-232.89520491630353,-37.75250425268571C-194.1761161689442,-32.48553061930799,-116.73793867422552,-21.951583352552543,-113.53264340746419,-32.984282025636055C-110.32734814070285,-44.01698069871956,-181.35493510189886,-76.61632531164203,-216.8687285824969,-92.91599761810325L-252.3825220630949,-109.2156699245645" style="mix-blend-mode: multiply;"/><path d="M-264.08076356115936,-76.72255416078804L-223.47628699647836,-61.45868992640934C-182.87181043179737,-46.194825692030655,-101.66285730243534,-15.667097223273268,-59.08905649998965,42.9307124869541C-16.51525569754396,101.52852219718147,-12.57660722201458,188.19641314887883,-10.60728298424989,231.53035862472748L-8.637958746485198,274.8643041005762" style="mix-blend-mode: multiply;"/><path d="M-252.3825220630949,-109.2156699245645L-210.8950431098464,-90.10499460747741C-169.40756415659789,-70.99431929039034,-86.43260625010089,-32.77296865621618,-9.988761881522342,15.739770158545275C66.4550824870562,64.25250897330672,136.36781331771633,123.05663596865547,171.32417873304635,152.45869946632982L206.2805441483764,181.8607629640042" style="mix-blend-mode: multiply;"/><path d="M-252.3825220630949,-109.2156699245645L-213.58152439603217,-88.94245034327025C-174.78052672896945,-68.66923076197604,-97.17853139484397,-28.12279159938758,-56.55443750874236,35.89053740480254C-15.930343622640741,99.90386640899266,-12.28415118456297,187.38408525478442,-10.461054965524085,231.1241946776803L-8.637958746485198,274.8643041005762" style="mix-blend-mode: multiply;"/><path d="M-252.3825220630949,-109.2156699245645L-212.51451798469125,-89.07724460001297C-172.64651390628762,-68.93881927546146,-92.91050574948031,-28.66196862635842,-38.05965971216649,33.55410362126222C16.791186325147322,95.77017586888286,46.756870242967665,179.9254697150211,61.73971220187784,222.00311663809023L76.72255416078801,264.08076356115936" style="mix-blend-mode: multiply;"/><path d="M-252.3825220630949,-109.2156699245645L-213.7970472387335,-95.80049839785055C-175.21157241437209,-82.38532687113663,-98.0406227656493,-55.554983817708745,-60.290166782232085,-82.98229554125582C-22.539710798814863,-110.40960726480291,-24.20974848070323,-192.09457376532495,-25.044767321647416,-232.93705701558596L-25.879786162591603,-273.779540265847" style="mix-blend-mode: multiply;"/><path d="M-252.3825220630949,-109.2156699245645L-210.41071498480358,-93.93884648738215C-168.4389079065123,-78.66202305019983,-84.49529374992966,-48.10837617583516,-1.5937410474469829,-50.71366242647031C81.30781165503569,-53.31894867710545,163.1673029034184,-89.0831680527404,204.0970485276098,-106.96527774055788L245.02679415180114,-124.84738742837537" style="mix-blend-mode: multiply;"/><path d="M-252.3825220630949,-109.2156699245645L-211.91295756884642,-89.31541921762994C-171.44339307459794,-69.41516851069541,-90.50426408610095,-29.614667096826327,-27.63261250418923,29.425743582567943C35.23903907772248,88.46615426196222,80.04321325304893,166.7464742068817,102.44530034071215,205.8866341793414L124.84738742837538,245.02679415180114" style="mix-blend-mode: multiply;"/><path d="M-252.3825220630949,-109.2156699245645L-215.74680944875115,-94.95676094638218C-179.11109683440745,-80.69785196819986,-105.83967160571994,-52.180034011835204,-94.08604508920484,-68.35751304913715C-82.33241857268976,-84.53499208643912,-132.09659076834706,-145.4077681174077,-156.97867686617573,-175.84415613289198L-181.86076296400438,-206.28054414837626" style="mix-blend-mode: multiply;"/><path d="M-252.3825220630949,-109.2156699245645L-216.43235062952715,-90.62842427788557C-180.48217919595945,-72.04117863120665,-108.58183632882395,-34.86668733784879,-105.96875888932222,6.666989204803971C-103.3556814498205,48.20066574745673,-170.02986943795253,94.0935275394044,-203.36696343201854,117.03995843537821L-236.70405742608455,139.98638933135206" style="mix-blend-mode: multiply;"/><path d="M-252.3825220630949,-109.2156699245645L-210.31876838591242,-93.74345001858451C-168.25501470872993,-78.27123011260456,-84.12750735436497,-47.326790300644625,-1.8947806286936004e-14,-47.32679030064465C84.12750735436494,-47.32679030064467,168.25501470872987,-78.27123011260467,210.31876838591234,-93.74345001858465L252.38252206309483,-109.21566992456465" style="mix-blend-mode: multiply;"/><path d="M-252.3825220630949,-109.2156699245645L-211.04287035137236,-94.80893370485622C-169.7032186396498,-80.40219748514797,-87.02391521620468,-51.58872504573142,-12.551100734638775,-65.79517419602077C61.92171374692713,-80.00162334631011,128.18803928661384,-137.22799408630536,161.3212020564572,-165.84117945630297L194.45436482630055,-194.45436482630058" style="mix-blend-mode: multiply;"/><path d="M-252.3825220630949,-109.2156699245645L-211.7237200450592,-95.33705486235351C-171.0649180270235,-81.45843980014256,-89.74731399095212,-53.70120967572061,-24.352495425210943,-74.94927425930729C41.042323140530236,-96.19733884289394,90.51435623594118,-166.45069813448922,115.25037278364664,-201.57737778028684L139.98638933135211,-236.7040574260845" style="mix-blend-mode: multiply;"/><path d="M-252.3825220630949,-109.2156699245645L-216.86872858249686,-92.91599761810325C-181.35493510189886,-76.61632531164203,-110.32734814070285,-44.01698069871956,-113.53264340746419,-32.98428202563605C-116.73793867422552,-21.951583352552536,-194.1761161689442,-32.48553061930799,-232.89520491630353,-37.7525042526857L-271.61429366366286,-43.01947788606343" style="mix-blend-mode: multiply;"/><path d="M-252.3825220630949,-109.2156699245645L-212.72368251940046,-95.7329680136919C-173.06484297570606,-82.25026610281934,-93.74716388831725,-55.28486228107417,-41.68517831379324,-81.811768882506C10.376807260730779,-108.33867548393785,35.183099322389985,-188.35789250854668,47.586245353219596,-228.36750102085114L59.9893913840492,-268.37710953315553" style="mix-blend-mode: multiply;"/><path d="M-252.3825220630949,-109.2156699245645L-210.51474919387502,-90.62842427788557C-168.64697632465518,-72.04117863120665,-84.9114305862155,-34.86668733784878,-3.3970006713522594,6.666989204803983C78.11742924351097,48.20066574745675,157.41074333479773,94.09352753940443,197.0574003804411,117.03995843537827L236.7040574260845,139.98638933135211" style="mix-blend-mode: multiply;"/><path d="M-236.7040574260846,-139.986389331352L-200.32015639056092,-114.96935050817804C-163.93625535503733,-89.95231168500406,-91.16845328399002,-39.918234038656124,-53.15743683739012,29.22354819999858C-15.146420390790224,98.36533043865329,-11.892189568637711,186.61481726961472,-10.265074157561456,230.73956068509548L-8.637958746485198,274.8643041005762" style="mix-blend-mode: multiply;"/><path d="M-181.86076296400438,-206.28054414837626L-150.46918147122258,-175.2288276511355C-119.0775999784408,-144.1771111538948,-56.29443699287723,-82.07367815941336,18.745208423316086,-57.69181936535887C93.78485383950941,-33.30996057130436,181.08098168633248,-46.6496759776768,224.72904560974402,-53.319533680863024L268.37710953315553,-59.98939138404924" style="mix-blend-mode: multiply;"/><path d="M-181.86076296400438,-206.28054414837626L-156.97867686617573,-175.84415613289195C-132.09659076834706,-145.4077681174077,-82.33241857268976,-84.53499208643912,-94.08604508920484,-68.35751304913717C-105.83967160571994,-52.180034011835204,-179.11109683440745,-80.69785196819986,-215.74680944875118,-94.95676094638218L-252.3825220630949,-109.2156699245645" style="mix-blend-mode: multiply;"/><path d="M-181.86076296400438,-206.28054414837626L-153.93186982471812,-171.04315645757768C-126.00297668543182,-135.80576876677918,-70.14519040685927,-65.33099338518208,-41.27472303727274,14.859814656309984C-12.404255667686213,95.05062269780205,-10.521107207085706,184.95746339918912,-9.579532976785451,229.9108837498827L-8.637958746485198,274.8643041005762" style="mix-blend-mode: multiply;"/><path d="M-168.54943975456854,-217.29262840331484L-139.16955578827677,-183.25560471756134C-109.789671821985,-149.21858103180784,-51.02990388940146,-81.14453366030084,22.33071834697044,-37.759182612071115C95.69134058334232,5.626168436158612,183.6528171235026,24.322823161111074,227.63355539358272,33.6711505235873L271.61429366366286,43.019477886063534" style="mix-blend-mode: multiply;"/><path d="M-168.54943975456854,-217.29262840331484L-145.5235351768986,-182.04351832449524C-122.49763059922869,-146.7944082456756,-76.44582144388885,-76.29618808803642,-87.8049243891415,-16.749685132258602C-99.16402733439418,42.79681782351921,-167.93404238023936,91.39160357743565,-202.31904990316195,115.68899645439383L-236.70405742608455,139.98638933135206" style="mix-blend-mode: multiply;"/><path d="M-168.54943975456854,-217.29262840331484L-143.31460185137317,-180.4386343219727C-118.0797639481778,-143.58464024063053,-67.61008814178707,-69.87665207794625,-49.516746746700505,11.068304244798819C-31.42340535161395,92.01326056754387,-45.70639836783156,180.1951850503497,-52.84789487594037,224.28614729175263L-59.989391384049185,268.37710953315553" style="mix-blend-mode: multiply;"/><path d="M-168.54943975456854,-217.29262840331484L-139.98622765721785,-181.5200886540871C-111.42301555986717,-145.74754890485931,-54.29659136516579,-74.20246940640381,8.17507261865837,-7.6769041785173044C70.64673660248253,58.848661049369206,138.46364037542946,120.35471200668671,172.37209226190294,151.10773748534544L206.2805441483764,181.8607629640042" style="mix-blend-mode: multiply;"/><path d="M-168.54943975456854,-217.29262840331484L-143.5237663860824,-187.09435773565164C-118.49809301759628,-156.89608706798842,-68.44674628062403,-96.499545732662,-53.14226534832729,-104.2975682589694C-37.83778441603056,-112.0955907852768,-57.28016928840936,-188.08817717321804,-67.00136172459877,-226.0844703671887L-76.72255416078816,-264.0807635611593" style="mix-blend-mode: multiply;"/><path d="M-168.54943975456854,-217.29262840331484L-139.2100205899081,-184.54321558343779C-109.87060142524768,-151.79380276356065,-51.19176309592683,-86.29497712380648,21.62932845202718,-60.077770953928884C94.4504199999812,-33.860564784051284,181.4137647665684,-46.92497808405026,224.89543714986198,-53.45718473404975L268.37710953315553,-59.98939138404924" style="mix-blend-mode: multiply;"/><path d="M-168.54943975456854,-217.29262840331484L-139.6059337412465,-182.04351832449524C-110.66242772792447,-146.7944082456756,-52.77541570128039,-76.29618808803642,14.766833828828458,-16.74968513225859C82.30908335893729,42.796817823519234,159.5065703925109,91.39160357743567,198.1053139092977,115.68899645439389L236.7040574260845,139.98638933135211" style="mix-blend-mode: multiply;"/><path d="M-93.15292806745538,-258.7422114624119L-77.83281973004615,-215.55177765077556C-62.51271139263694,-172.36134383913927,-31.872494717818494,-85.98047621586659,-3.559914346444598,1.1566862880619528C24.7526660249293,88.2938487919905,50.73761009285865,176.1873061765749,63.73008212682333,220.13403486886713L76.72255416078801,264.08076356115936" style="mix-blend-mode: multiply;"/><path d="M-93.15292806745538,-258.7422114624119L-82.18703032785179,-219.39053066886584C-71.22113258824821,-180.0388498753198,-49.28933710904104,-101.33548828822774,-79.03289804174229,-65.38169935883633C-108.77645897444353,-29.42791042944491,-190.19537631905322,-36.223694157754174,-230.90483499135803,-39.621586021908804L-271.61429366366286,-43.019477886063434" style="mix-blend-mode: multiply;"/><path d="M-76.72255416078816,-264.0807635611593L-65.64436111996727,-220.01359864298277C-54.56616807914637,-175.9464337248063,-32.40978199750459,-87.8121038884533,-29.620921534714764,0.9308749605991883C-26.832061071924937,89.67385380965165,-43.41072622798706,179.02548167140358,-51.70005880601813,223.7012956022796L-59.98939138404919,268.37710953315553" style="mix-blend-mode: multiply;"/><path d="M-76.72255416078816,-264.0807635611593L-63.33390138481196,-220.30547758524972C-49.94524860883576,-176.53019160934016,-23.16794305688336,-88.97961965752101,10.42704720797723,-4.128360038694268C44.022037472837816,80.72289958013248,84.4347124506066,162.87484686596682,104.641049939491,203.950820508884L124.84738742837538,245.02679415180114" style="mix-blend-mode: multiply;"/><path d="M-76.72255416078816,-264.0807635611593L-61.53977985850221,-224.11817990444786C-46.35700555621626,-184.1555962477364,-15.991456951644352,-104.23042893431352,41.525153664012926,-70.21520023812853C99.0417642796702,-36.19997154194351,183.70943690641286,-48.09468146299637,226.0432732197842,-54.0420364235228L268.37710953315553,-59.98939138404924" style="mix-blend-mode: multiply;"/><path d="M-76.72255416078816,-264.0807635611593L-61.73971220187797,-224.7335083862043C-46.75687024296778,-185.38625321124928,-16.79118632514739,-106.6917428613393,38.05965971216644,-80.88089392190686C92.91050574948027,-55.07004498247442,172.64651390628754,-82.14285745351954,212.5145179846912,-95.67926368904209L252.38252206309483,-109.21566992456465" style="mix-blend-mode: multiply;"/><path d="M-76.72255416078816,-264.0807635611593L-62.31598692581195,-221.09505297509722C-47.90941969083573,-178.10934238903508,-19.096285220883306,-92.13792121691085,28.070897830644117,-17.814333462716935C75.23808088217154,56.509254291476985,140.759312515274,119.1850086277406,173.5199283318252,150.5228857958724L206.2805441483764,181.8607629640042" style="mix-blend-mode: multiply;"/><path d="M-76.72255416078816,-264.0807635611593L-61.49931505687087,-222.83056903857144C-46.27607595295357,-181.5803745159836,-15.829597745118987,-99.0799854708079,42.22654355895619,-47.89661189627075C100.28268486303136,3.2867616782663895,185.9484892633471,23.153119782164964,228.781391463505,33.086298834114245L271.61429366366286,43.019477886063534" style="mix-blend-mode: multiply;"/><path d="M-76.72255416078816,-264.0807635611593L-67.85329444549271,-221.61848264550534C-58.984034730197266,-179.1562017298514,-41.24551529960636,-94.23163989854346,-67.90909917715575,-26.887114416458243C-94.57268305470514,40.457411065626985,-165.63837024039483,90.22190019848954,-201.1712138332397,115.10414476492078L-236.70405742608455,139.98638933135206" style="mix-blend-mode: multiply;"/><path d="M-76.72255416078816,-264.0807635611593L-67.00136172459877,-226.0844703671887C-57.28016928840936,-188.08817717321804,-37.83778441603056,-112.0955907852768,-53.14226534832729,-104.2975682589694C-68.44674628062403,-96.499545732662,-118.49809301759628,-156.89608706798842,-143.5237663860824,-187.09435773565164L-168.54943975456854,-217.29262840331484" style="mix-blend-mode: multiply;"/><path d="M-76.72255416078816,-264.0807635611593L-61.9356930098406,-221.61848264550534C-47.14883185889303,-179.1562017298514,-17.575109556997905,-94.23163989854346,34.662659040814205,-26.88711441645822C86.90042763862631,40.457411065627014,161.8022425323554,90.22190019848956,199.25314997921996,115.10414476492083L236.7040574260845,139.98638933135211" style="mix-blend-mode: multiply;"/><path d="M-76.72255416078816,-264.0807635611593L-65.00246821199771,-219.93250871089003C-53.282382263207275,-175.78425386062077,-29.84221036562639,-87.48774416008224,-18.494777796575896,2.336433783540324C-7.147345227525402,92.16061172716292,-7.8926519870053005,183.51245791386955,-8.265305366745249,229.1883810072229L-8.637958746485198,274.8643041005762" style="mix-blend-mode: multiply;"/><path d="M-25.8797861625916,-273.779540265847L-19.957824184492026,-234.41495061559775C-14.035862206392459,-195.05036096534846,-2.191938250193317,-116.32118166484992,27.883514261794602,-108.5991179414595C57.958966773782514,-100.87705421806908,106.2659478415592,-164.16210607178678,130.41943837544756,-195.80463199864565L154.5729289093359,-227.4471579255045" style="mix-blend-mode: multiply;"/><path d="M-25.8797861625916,-273.779540265847L-20.140155929216824,-234.53066185935498C-14.400525695842054,-195.28178345286298,-2.9212652290925063,-116.7840266398789,24.72309735323145,-110.6047794999185C52.367459935555395,-104.42553235995808,96.17692463345377,-170.5647948930213,118.08165698240293,-203.63442615955287L139.98638933135211,-236.7040574260845" style="mix-blend-mode: multiply;"/><path d="M-25.8797861625916,-273.779540265847L-19.31147899400402,-229.2986016044789C-12.743171825416447,-184.81766294311072,0.393442511758708,-95.85578562037448,39.08683089692004,-19.915735082065936C77.78021928208138,56.0243154562426,142.03038171522888,118.9425392101234,174.15546293180265,150.4016510870638L206.2805441483764,181.8607629640042" style="mix-blend-mode: multiply;"/><path d="M-25.8797861625916,-273.779540265847L-25.044767321647413,-232.937057015586C-24.20974848070323,-192.09457376532495,-22.539710798814863,-110.40960726480291,-60.29016678223207,-82.98229554125582C-98.04062276564929,-55.554983817708745,-175.21157241437209,-82.38532687113663,-213.79704723873348,-95.80049839785056L-252.38252206309488,-109.2156699245645" style="mix-blend-mode: multiply;"/></g></svg>