<svg viewBox="-375,-375,750,750" xmlns="http://www.w3.org/2000/svg" xmlns:xlink="http://www.w3.org/1999/xlink"><g font-family="sans-serif" font-size="10"><g transform="rotate(-88.2) translate(275,0)"><text dy="0.31em" x="6" text-anchor="start">100luz<title>flare.100luz
0 outgoing
0 incoming</title></text></g><g transform="rotate(-84.6) translate(275,0)"><text dy="0.31em" x="6" text-anchor="start">Alex<title>flare.Alex
0 outgoing
0 incoming</title></text></g><g transform="rotate(-81) translate(275,0)"><text dy="0.31em" x="6" text-anchor="start">Alina<title>flare.Alina
0 outgoing
0 incoming</title></text></g><g transform="rotate(-77.4) translate(275,0)"><text dy="0.31em" x="6" text-anchor="start">Allen<title>flare.Allen
0 outgoing
0 incoming</title></text></g><g transform="rotate(-73.8) translate(275,0)"><text dy="0.31em" x="6" text-anchor="start">Ariel Malka<title>flare.Ariel Malka
0 outgoing
0 incoming</title></text></g><g transform="rotate(-70.2) translate(275,0)"><text dy="0.31em" x="6" text-anchor="start">Bertrand Saint-Guillain<title>flare.Bertrand Saint-Guillain
1 outgoing
1 incoming</title></text></g><g transform="rotate(-66.6) translate(275,0)"><text dy="0.31em" x="6" text-anchor="start">Brian<title>flare.Brian
0 outgoing
0 incoming</title></text></g><g transform="rotate(-63) translate(275,0)"><text dy="0.31em" x="6" text-anchor="start">Dan<title>flare.Dan
2 outgoing
2 incoming</title></text></g><g transform="rotate(-59.39999999999999) translate(275,0)"><text dy="0.31em" x="6" text-anchor="start">Dara<title>flare.Dara
6 outgoing
6 incoming</title></text></g><g transform="rotate(-55.800000000000004) translate(275,0)"><text dy="0.31em" x="6" text-anchor="start">Dimitre<title>flare.Dimitre
5 outgoing
5 incoming</title></text></g><g transform="rotate(-52.2) translate(275,0)"><text dy="0.31em" x="6" text-anchor="start">Elrick<title>flare.Elrick
0 outgoing
0 incoming</title></text></g><g transform="rotate(-48.6) translate(275,0)"><text dy="0.31em" x="6" text-anchor="start">Frederik De Bleser<title>flare.Frederik De Bleser
0 outgoing
0 incoming</title></text></g><g transform="rotate(-45) translate(275,0)"><text dy="0.31em" x="6" text-anchor="start">Glen Murphy<title>flare.Glen Murphy
11 outgoing
11 incoming</title></text></g><g transform="rotate(-41.4) translate(275,0)"><text dy="0.31em" x="6" text-anchor="start">Jeff Berg<title>flare.Jeff Berg
2 outgoing
2 incoming</title></text></g><g transform="rotate(-37.800000000000004) translate(275,0)"><text dy="0.31em" x="6" text-anchor="start">JimQode<title>flare.JimQode
5 outgoing
5 incoming</title></text></g><g transform="rotate(-34.2) translate(275,0)"><text dy="0.31em" x="6" text-anchor="start">Jordan J<title>flare.Jordan J
0 outgoing
0 incoming</title></text></g><g transform="rotate(-30.599999999999987) translate(275,0)"><text dy="0.31em" x="6" text-anchor="start">Josh Nimoy<title>flare.Josh Nimoy
2 outgoing
2 incoming</title></text></g><g transform="rotate(-27) translate(275,0)"><text dy="0.31em" x="6" text-anchor="start">Koenie<title>flare.Koenie
0 outgoing
0 incoming</title></text></g><g transform="rotate(-23.39999999999999) translate(275,0)"><text dy="0.31em" x="6" text-anchor="start">Martin<title>flare.Martin
17 outgoing
17 incoming</title></text></g><g transform="rotate(-19.799999999999997) translate(275,0)"><text dy="0.31em" x="6" text-anchor="start">Mike Davis<title>flare.Mike Davis
8 outgoing
8 incoming</title></text></g><g transform="rotate(-16.200000000000003) translate(275,0)"><text dy="0.31em" x="6" text-anchor="start">Processing<title>flare.Processing
0 outgoing
0 incoming</title></text></g><g transform="rotate(-12.600000000000009) translate(275,0)"><text dy="0.31em" x="6" text-anchor="start">REAS<title>flare.REAS
14 outgoing
14 incoming</title></text></g><g transform="rotate(-9) translate(275,0)"><text dy="0.31em" x="6" text-anchor="start">Takachin<title>flare.Takachin
0 outgoing
0 incoming</title></text></g><g transform="rotate(-5.400000000000006) translate(275,0)"><text dy="0.31em" x="6" text-anchor="start">WillisMorse<title>flare.WillisMorse
0 outgoing
0 incoming</title></text></g><g transform="rotate(-1.7999999999999972) translate(275,0)"><text dy="0.31em" x="6" text-anchor="start">Wim_Van_der_Vurst<title>flare.Wim_Van_der_Vurst
0 outgoing
0 incoming</title></text></g><g transform="rotate(1.7999999999999972) translate(275,0)"><text dy="0.31em" x="6" text-anchor="start">XemonerdX<title>flare.XemonerdX
3 outgoing
3 incoming</title></text></g><g transform="rotate(5.400000000000006) translate(275,0)"><text dy="0.31em" x="6" text-anchor="start">Xu1<title>flare.Xu1
0 outgoing
0 incoming</title></text></g><g transform="rotate(9.000000000000014) translate(275,0)"><text dy="0.31em" x="6" text-anchor="start">[rocha]<title>flare.[rocha]
0 outgoing
0 incoming</title></text></g><g transform="rotate(12.599999999999994) translate(275,0)"><text dy="0.31em" x="6" text-anchor="start">_cory<title>flare._cory
0 outgoing
0 incoming</title></text></g><g transform="rotate(16.19999999999999) translate(275,0)"><text dy="0.31em" x="6" text-anchor="start">_martin<title>flare._martin
0 outgoing
0 incoming</title></text></g><g transform="rotate(19.799999999999997) translate(275,0)"><text dy="0.31em" x="6" text-anchor="start">_warren<title>flare._warren
0 outgoing
0 incoming</title></text></g><g transform="rotate(23.400000000000006) translate(275,0)"><text dy="0.31em" x="6" text-anchor="start">adrien<title>flare.adrien
0 outgoing
0 incoming</title></text></g><g transform="rotate(27) translate(275,0)"><text dy="0.31em" x="6" text-anchor="start">anurag<title>flare.anurag
0 outgoing
0 incoming</title></text></g><g transform="rotate(30.60000000000001) translate(275,0)"><text dy="0.31em" x="6" text-anchor="start">arielm<title>flare.arielm
0 outgoing
0 incoming</title></text></g><g transform="rotate(34.19999999999999) translate(275,0)"><text dy="0.31em" x="6" text-anchor="start">artelse<title>flare.artelse
0 outgoing
0 incoming</title></text></g><g transform="rotate(37.79999999999998) translate(275,0)"><text dy="0.31em" x="6" text-anchor="start">barikan<title>flare.barikan
0 outgoing
0 incoming</title></text></g><g transform="rotate(41.400000000000006) translate(275,0)"><text dy="0.31em" x="6" text-anchor="start">benelek<title>flare.benelek
15 outgoing
15 incoming</title></text></g><g transform="rotate(45) translate(275,0)"><text dy="0.31em" x="6" text-anchor="start">bzor<title>flare.bzor
0 outgoing
0 incoming</title></text></g><g transform="rotate(48.599999999999994) translate(275,0)"><text dy="0.31em" x="6" text-anchor="start">damille<title>flare.damille
0 outgoing
0 incoming</title></text></g><g transform="rotate(52.20000000000002) translate(275,0)"><text dy="0.31em" x="6" text-anchor="start">depth<title>flare.depth
0 outgoing
0 incoming</title></text></g><g transform="rotate(55.80000000000001) translate(275,0)"><text dy="0.31em" x="6" text-anchor="start">dnm<title>flare.dnm
3 outgoing
3 incoming</title></text></g><g transform="rotate(59.400000000000006) translate(275,0)"><text dy="0.31em" x="6" text-anchor="start">ed<title>flare.ed
0 outgoing
0 incoming</title></text></g><g transform="rotate(63) translate(275,0)"><text dy="0.31em" x="6" text-anchor="start">edwardgeorge<title>flare.edwardgeorge
0 outgoing
0 incoming</title></text></g><g transform="rotate(66.6) translate(275,0)"><text dy="0.31em" x="6" text-anchor="start">eviltyler<title>flare.eviltyler
0 outgoing
0 incoming</title></text></g><g transform="rotate(70.20000000000002) translate(275,0)"><text dy="0.31em" x="6" text-anchor="start">ezdac<title>flare.ezdac
0 outgoing
0 incoming</title></text></g><g transform="rotate(73.80000000000004) translate(275,0)"><text dy="0.31em" x="6" text-anchor="start">fdb<title>flare.fdb
0 outgoing
0 incoming</title></text></g><g transform="rotate(77.40000000000003) translate(275,0)"><text dy="0.31em" x="6" text-anchor="start">fli<title>flare.fli
0 outgoing
0 incoming</title></text></g><g transform="rotate(81) translate(275,0)"><text dy="0.31em" x="6" text-anchor="start">flight404<title>flare.flight404
0 outgoing
0 incoming</title></text></g><g transform="rotate(84.6) translate(275,0)"><text dy="0.31em" x="6" text-anchor="start">forkinsocket<title>flare.forkinsocket
1 outgoing
1 incoming</title></text></g><g transform="rotate(88.20000000000002) translate(275,0)"><text dy="0.31em" x="6" text-anchor="start">franklin_mint<title>flare.franklin_mint
3 outgoing
3 incoming</title></text></g><g transform="rotate(91.80000000000001) translate(275,0)"><text dy="0.31em" x="-6" text-anchor="end" transform="rotate(180)">fry<title>flare.fry
23 outgoing
23 incoming</title></text></g><g transform="rotate(95.4) translate(275,0)"><text dy="0.31em" x="-6" text-anchor="end" transform="rotate(180)">fulk<title>flare.fulk
0 outgoing
0 incoming</title></text></g><g transform="rotate(99) translate(275,0)"><text dy="0.31em" x="-6" text-anchor="end" transform="rotate(180)">gaza<title>flare.gaza
6 outgoing
6 incoming</title></text></g><g transform="rotate(102.60000000000002) translate(275,0)"><text dy="0.31em" x="-6" text-anchor="end" transform="rotate(180)">gkoshra<title>flare.gkoshra
0 outgoing
0 incoming</title></text></g><g transform="rotate(106.20000000000002) translate(275,0)"><text dy="0.31em" x="-6" text-anchor="end" transform="rotate(180)">grumo<title>flare.grumo
3 outgoing
3 incoming</title></text></g><g transform="rotate(109.80000000000001) translate(275,0)"><text dy="0.31em" x="-6" text-anchor="end" transform="rotate(180)">gsm<title>flare.gsm
0 outgoing
0 incoming</title></text></g><g transform="rotate(113.39999999999998) translate(275,0)"><text dy="0.31em" x="-6" text-anchor="end" transform="rotate(180)">heidi<title>flare.heidi
0 outgoing
0 incoming</title></text></g><g transform="rotate(116.99999999999997) translate(275,0)"><text dy="0.31em" x="-6" text-anchor="end" transform="rotate(180)">heliodrop<title>flare.heliodrop
0 outgoing
0 incoming</title></text></g><g transform="rotate(120.6) translate(275,0)"><text dy="0.31em" x="-6" text-anchor="end" transform="rotate(180)">hurlbot<title>flare.hurlbot
2 outgoing
2 incoming</title></text></g><g transform="rotate(124.19999999999999) translate(275,0)"><text dy="0.31em" x="-6" text-anchor="end" transform="rotate(180)">ik0<title>flare.ik0
0 outgoing
0 incoming</title></text></g><g transform="rotate(127.79999999999998) translate(275,0)"><text dy="0.31em" x="-6" text-anchor="end" transform="rotate(180)">jand<title>flare.jand
0 outgoing
0 incoming</title></text></g><g transform="rotate(131.4) translate(275,0)"><text dy="0.31em" x="-6" text-anchor="end" transform="rotate(180)">jbk303<title>flare.jbk303
0 outgoing
0 incoming</title></text></g><g transform="rotate(135) translate(275,0)"><text dy="0.31em" x="-6" text-anchor="end" transform="rotate(180)">jes<title>flare.jes
0 outgoing
0 incoming</title></text></g><g transform="rotate(138.6) translate(275,0)"><text dy="0.31em" x="-6" text-anchor="end" transform="rotate(180)">jlee<title>flare.jlee
2 outgoing
2 incoming</title></text></g><g transform="rotate(142.2) translate(275,0)"><text dy="0.31em" x="-6" text-anchor="end" transform="rotate(180)">joey<title>flare.joey
0 outgoing
0 incoming</title></text></g><g transform="rotate(145.8) translate(275,0)"><text dy="0.31em" x="-6" text-anchor="end" transform="rotate(180)">kevin<title>flare.kevin
0 outgoing
0 incoming</title></text></g><g transform="rotate(149.4) translate(275,0)"><text dy="0.31em" x="-6" text-anchor="end" transform="rotate(180)">mKoser<title>flare.mKoser
0 outgoing
0 incoming</title></text></g><g transform="rotate(153) translate(275,0)"><text dy="0.31em" x="-6" text-anchor="end" transform="rotate(180)">mawend<title>flare.mawend
5 outgoing
5 incoming</title></text></g><g transform="rotate(156.60000000000005) translate(275,0)"><text dy="0.31em" x="-6" text-anchor="end" transform="rotate(180)">mccutchen<title>flare.mccutchen
3 outgoing
3 incoming</title></text></g><g transform="rotate(160.2) translate(275,0)"><text dy="0.31em" x="-6" text-anchor="end" transform="rotate(180)">meltphace<title>flare.meltphace
0 outgoing
0 incoming</title></text></g><g transform="rotate(163.79999999999998) translate(275,0)"><text dy="0.31em" x="-6" text-anchor="end" transform="rotate(180)">michaONE<title>flare.michaONE
0 outgoing
0 incoming</title></text></g><g transform="rotate(167.39999999999998) translate(275,0)"><text dy="0.31em" x="-6" text-anchor="end" transform="rotate(180)">michael<title>flare.michael
0 outgoing
0 incoming</title></text></g><g transform="rotate(171) translate(275,0)"><text dy="0.31em" x="-6" text-anchor="end" transform="rotate(180)">mmuday<title>flare.mmuday
4 outgoing
4 incoming</title></text></g><g transform="rotate(174.59999999999997) translate(275,0)"><text dy="0.31em" x="-6" text-anchor="end" transform="rotate(180)">mohn<title>flare.mohn
0 outgoing
0 incoming</title></text></g><g transform="rotate(178.20000000000005) translate(275,0)"><text dy="0.31em" x="-6" text-anchor="end" transform="rotate(180)">mr.prufrock<title>flare.mr.prufrock
0 outgoing
0 incoming</title></text></g><g transform="rotate(181.8) translate(275,0)"><text dy="0.31em" x="-6" text-anchor="end" transform="rotate(180)">mrb<title>flare.mrb
3 outgoing
3 incoming</title></text></g><g transform="rotate(185.40000000000003) translate(275,0)"><text dy="0.31em" x="-6" text-anchor="end" transform="rotate(180)">nurm<title>flare.nurm
0 outgoing
0 incoming</title></text></g><g transform="rotate(189) translate(275,0)"><text dy="0.31em" x="-6" text-anchor="end" transform="rotate(180)">oytun<title>flare.oytun
0 outgoing
0 incoming</title></text></g><g transform="rotate(192.60000000000002) translate(275,0)"><text dy="0.31em" x="-6" text-anchor="end" transform="rotate(180)">pinksalmon<title>flare.pinksalmon
2 outgoing
2 incoming</title></text></g><g transform="rotate(196.2) translate(275,0)"><text dy="0.31em" x="-6" text-anchor="end" transform="rotate(180)">pitaru<title>flare.pitaru
0 outgoing
0 incoming</title></text></g><g transform="rotate(199.8) translate(275,0)"><text dy="0.31em" x="-6" text-anchor="end" transform="rotate(180)">pokemon#1<title>flare.pokemon#1
0 outgoing
0 incoming</title></text></g><g transform="rotate(203.39999999999998) translate(275,0)"><text dy="0.31em" x="-6" text-anchor="end" transform="rotate(180)">pollux<title>flare.pollux
0 outgoing
0 incoming</title></text></g><g transform="rotate(207) translate(275,0)"><text dy="0.31em" x="-6" text-anchor="end" transform="rotate(180)">polyscope<title>flare.polyscope
0 outgoing
0 incoming</title></text></g><g transform="rotate(210.59999999999997) translate(275,0)"><text dy="0.31em" x="-6" text-anchor="end" transform="rotate(180)">primeclub<title>flare.primeclub
0 outgoing
0 incoming</title></text></g><g transform="rotate(214.2) translate(275,0)"><text dy="0.31em" x="-6" text-anchor="end" transform="rotate(180)">rlivings<title>flare.rlivings
0 outgoing
0 incoming</title></text></g><g transform="rotate(217.79999999999995) translate(275,0)"><text dy="0.31em" x="-6" text-anchor="end" transform="rotate(180)">scrap-pile<title>flare.scrap-pile
0 outgoing
0 incoming</title></text></g><g transform="rotate(221.40000000000003) translate(275,0)"><text dy="0.31em" x="-6" text-anchor="end" transform="rotate(180)">sdewitt<title>flare.sdewitt
0 outgoing
0 incoming</title></text></g><g transform="rotate(225) translate(275,0)"><text dy="0.31em" x="-6" text-anchor="end" transform="rotate(180)">seb<title>flare.seb
3 outgoing
3 incoming</title></text></g><g transform="rotate(228.59999999999997) translate(275,0)"><text dy="0.31em" x="-6" text-anchor="end" transform="rotate(180)">skloopy<title>flare.skloopy
4 outgoing
4 incoming</title></text></g><g transform="rotate(232.20000000000005) translate(275,0)"><text dy="0.31em" x="-6" text-anchor="end" transform="rotate(180)">solipsys<title>flare.solipsys
0 outgoing
0 incoming</title></text></g><g transform="rotate(235.8) translate(275,0)"><text dy="0.31em" x="-6" text-anchor="end" transform="rotate(180)">spacegirl<title>flare.spacegirl
0 outgoing
0 incoming</title></text></g><g transform="rotate(239.39999999999998) translate(275,0)"><text dy="0.31em" x="-6" text-anchor="end" transform="rotate(180)">sparky_monkey<title>flare.sparky_monkey
0 outgoing
0 incoming</title></text></g><g transform="rotate(243) translate(275,0)"><text dy="0.31em" x="-6" text-anchor="end" transform="rotate(180)">sportebois<title>flare.sportebois
0 outgoing
0 incoming</title></text></g><g transform="rotate(246.60000000000002) translate(275,0)"><text dy="0.31em" x="-6" text-anchor="end" transform="rotate(180)">svela<title>flare.svela
2 outgoing
2 incoming</title></text></g><g transform="rotate(250.19999999999993) translate(275,0)"><text dy="0.31em" x="-6" text-anchor="end" transform="rotate(180)">tomek<title>flare.tomek
0 outgoing
0 incoming</title></text></g><g transform="rotate(253.8) translate(275,0)"><text dy="0.31em" x="-6" text-anchor="end" transform="rotate(180)">toxi<title>flare.toxi
0 outgoing
0 incoming</title></text></g><g transform="rotate(257.4) translate(275,0)"><text dy="0.31em" x="-6" text-anchor="end" transform="rotate(180)">v3ga<title>flare.v3ga
0 outgoing
0 incoming</title></text></g><g transform="rotate(261) translate(275,0)"><text dy="0.31em" x="-6" text-anchor="end" transform="rotate(180)">vanwoods<title>flare.vanwoods
0 outgoing
0 incoming</title></text></g><g transform="rotate(264.6) translate(275,0)"><text dy="0.31em" x="-6" text-anchor="end" transform="rotate(180)">vent<title>flare.vent
0 outgoing
0 incoming</title></text></g><g transform="rotate(268.2) translate(275,0)"><text dy="0.31em" x="-6" text-anchor="end" transform="rotate(180)">xoff<title>flare.xoff
0 outgoing
0 incoming</title></text></g></g><g stroke="grey" fill="none"><path d="M93.15292806745512,-258.742211462412L78.68387717272473,-215.41698339403294C64.21482627799433,-172.0917553256539,35.27672448853354,-85.4412991888958,18.31157668621015,3.4931200716022395C1.3464288838867642,92.42753933210027,-3.645764931299217,183.64592171633822,-6.141861838892208,229.25511290845722L-8.637958746485198,274.8643041005762" style="mix-blend-mode: multiply;"/><path d="M124.84738742837536,-245.02679415180117L108.95479573566526,-208.00169744569914C93.06220404295517,-170.97660073959705,61.277020657535,-96.92640732739291,85.1986410083317,-66.08684019943426C109.12026135912839,-35.247273071475604,188.74868544614196,-47.618332227762416,228.56289748964875,-53.80386180590583L268.37710953315553,-59.98939138404924" style="mix-blend-mode: multiply;"/><path d="M124.84738742837536,-245.02679415180117L105.49210738216975,-203.8160262521413C86.13682733596416,-162.6052583524814,47.42626724355296,-80.18372255316164,25.17870954774287,6.464793822234587C2.9311518519327766,93.11331019763081,-2.853403447276211,183.9888071491035,-5.745681096880705,229.42655562483984L-8.637958746485198,274.8643041005762" style="mix-blend-mode: multiply;"/><path d="M139.98638933135211,-236.7040574260845L121.75986817859979,-200.96204929853045C103.53334702584743,-165.22004117097634,67.08030472034275,-93.73602491586819,88.47875808730998,-64.28358057552897C109.87721145427723,-34.831136235189774,189.1271604937164,-47.4102638096195,228.75213501343595,-53.69982759683438L268.37710953315553,-59.98939138404924" style="mix-blend-mode: multiply;"/><path d="M139.98638933135211,-236.7040574260845L121.55993583522401,-201.57737778028687C103.13348233909592,-166.45069813448922,66.28057534683973,-96.19733884289396,85.0132641354635,-74.94927425930733C103.74595292408729,-53.70120967572068,178.06423749359104,-81.45843980014267,215.22337977834295,-95.33705486235367L252.38252206309483,-109.21566992456465" style="mix-blend-mode: multiply;"/><path d="M139.98638933135211,-236.7040574260845L120.98366111129003,-197.93892236917975C101.98093289122795,-159.17378731227498,63.975476451103795,-81.64351719846552,75.02450225394118,-11.882713800117395C86.07352805677857,57.87808959823072,146.1770361025775,119.86942628111747,176.22879012547696,150.86509462256083L206.2805441483764,181.8607629640042" style="mix-blend-mode: multiply;"/><path d="M139.98638933135211,-236.7040574260845L118.29717982510427,-196.77637810497262C96.60797031885642,-156.8486987838607,53.22955130636072,-76.9933401416369,28.458826626721166,8.268053446139868C3.6881019470816145,93.52944703391665,-2.474928399701792,184.1968755672464,-5.556443573093495,229.5305898339113L-8.637958746485198,274.8643041005762" style="mix-blend-mode: multiply;"/><path d="M139.98638933135211,-236.7040574260845L121.12131216447676,-202.31904990316193C102.25623499760142,-167.93404238023933,64.52608066385072,-99.16402733439416,77.41045384251117,-87.80492438914149C90.29482702117163,-76.44582144388885,153.79372771224322,-122.49763059922871,185.54317805777904,-145.52353517689863L217.29262840331484,-168.54943975456857" style="mix-blend-mode: multiply;"/><path d="M139.98638933135211,-236.7040574260845L121.84095811069254,-200.10420742189874C103.69552689003295,-163.50435741771298,67.40466444871379,-90.30465740934146,89.88431691025114,-49.41432138057984C112.36396937178849,-8.523985351818204,193.61413673618233,0.056986697333536306,234.2392204183793,4.347472721909406L274.8643041005762,8.637958746485277" style="mix-blend-mode: multiply;"/><path d="M154.5729289093359,-227.4471579255045L133.1736152628087,-194.81306730565132C111.7743016162815,-162.17897668579812,68.97567432322712,-96.91079544609175,75.6225803093879,-91.41199659622443C82.26948629554867,-85.91319774635711,138.36192556092462,-140.18378128632884,166.40814519361257,-167.3190730563147L194.45436482630055,-194.45436482630058" style="mix-blend-mode: multiply;"/><path d="M154.5729289093359,-227.4471579255045L128.4696761654299,-194.96089454717728C102.36642342152389,-162.47463116885004,50.159917933711874,-97.50210441219554,-5.91236404517817,-93.97433544934084C-61.98464602406822,-90.44656648648613,-121.9227044940363,-148.3635553174312,-151.89173372902033,-177.3220497329037L-181.86076296400438,-206.28054414837626" style="mix-blend-mode: multiply;"/><path d="M154.5729289093359,-227.4471579255045L133.32144250433467,-190.10912820827252C112.06995609933341,-152.77109849104053,69.56698328933092,-78.09503905657651,78.18491916250434,-9.877052241658395C86.80285503567775,58.34093457325974,146.54169959202707,120.10084876863198,176.41112187020175,150.98080586631812L206.2805441483764,181.86076296400424" style="mix-blend-mode: multiply;"/><path d="M154.5729289093359,-227.4471579255045L130.6349612181489,-188.94658394406534C106.69699352696188,-150.44600996262622,58.82105814458783,-73.44486199974791,31.619243535284323,10.273715004598861C4.417428925980803,93.99229200894564,-2.1102649102521975,184.42829805476092,-5.374111828368697,229.64630107766857L-8.637958746485198,274.8643041005762" style="mix-blend-mode: multiply;"/><path d="M154.5729289093359,-227.4471579255045L133.89771722826865,-193.7475836193796C113.22250554720137,-160.04800931325474,71.87208218506684,-92.64886070100498,88.17368104402665,-72.94361270084833C104.47527990298647,-53.238364700691676,178.42890098304065,-81.22701731262816,215.4057115230677,-95.2213436185964L252.38252206309483,-109.21566992456465" style="mix-blend-mode: multiply;"/><path d="M194.45436482630055,-194.45436482630058L167.71026122552604,-165.64039518308908C140.9661576247515,-136.82642553987762,87.47795042320247,-79.19848625345465,98.19259152922105,-62.31491346031374C108.90723263523962,-45.43134066717283,183.82472204882583,-69.29213436731399,221.2834667556189,-81.22253121738457L258.742211462412,-93.15292806745515" style="mix-blend-mode: multiply;"/><path d="M194.45436482630055,-194.45436482630058L164.3680090979148,-161.0401797809887C134.2816533695291,-127.62599473567683,74.10894191275762,-60.79762464505308,40.26022131729333,17.42215350942638C6.411500721829036,95.64193166390584,-1.113229012328081,185.253117882241,-4.875593879406639,230.0587109914086L-8.637958746485198,274.8643041005762" style="mix-blend-mode: multiply;"/><path d="M194.45436482630055,-194.45436482630058L167.63076510803458,-165.84117945630297C140.80716538976858,-137.22799408630536,87.15996595323662,-80.00162334631013,96.81465882603567,-65.79517419602081C106.46935169883471,-51.58872504573148,179.42593688096477,-80.40219748514806,215.90422947202978,-94.80893370485636L252.38252206309483,-109.21566992456465" style="mix-blend-mode: multiply;"/><path d="M194.45436482630055,-194.45436482630058L167.0544903841006,-162.20272404519585C139.65461594190063,-129.95108326409112,84.8548670575007,-65.44780170188167,86.82589694451333,-2.728613736830875C88.79692683152598,59.990574228219934,147.5387354899512,120.92566859611208,176.9096398191638,151.39321578005817L206.2805441483764,181.86076296400424" style="mix-blend-mode: multiply;"/><path d="M194.45436482630055,-194.45436482630058L162.04530402191713,-166.90666314257467C129.6362432175337,-139.35896145884874,64.81812160876684,-84.26355809139692,-1.4210854715202004e-14,-84.26355809139692C-64.81812160876687,-84.26355809139689,-129.63624321753375,-139.3589614588487,-162.0453040219172,-166.90666314257462L-194.4543648263006,-194.45436482630052" style="mix-blend-mode: multiply;"/><path d="M194.45436482630055,-194.45436482630058L166.40814519361257,-167.3190730563147C138.36192556092462,-140.18378128632884,82.26948629554867,-85.91319774635711,75.6225803093879,-91.41199659622443C68.97567432322712,-96.91079544609175,111.7743016162815,-162.17897668579812,133.1736152628087,-194.81306730565132L154.5729289093359,-227.4471579255045" style="mix-blend-mode: multiply;"/><path d="M194.45436482630055,-194.45436482630058L167.83069745141032,-165.22585097454652C141.2070300765201,-135.99733712279246,87.95969532673966,-77.54030941928436,100.28015277788215,-55.12948051224246C112.60061022902465,-32.71865160520057,190.4888598810901,-46.35402149462491,229.4329847071228,-53.17170643933707L268.37710953315553,-59.98939138404924" style="mix-blend-mode: multiply;"/><path d="M194.45436482630055,-194.45436482630058L161.04017978098867,-164.58395806657697C127.6259947356768,-134.71355130685336,60.79762464505307,-74.97273778740615,-17.42215350942639,-44.00333677410358C-95.64193166390585,-13.033935760801015,-185.253117882241,-10.835947253643097,-230.0587109914086,-9.736953000064139L-274.8643041005762,-8.637958746485179" style="mix-blend-mode: multiply;"/><path d="M194.45436482630055,-194.45436482630058L163.11078770818884,-167.63076510803458C131.7672105900771,-140.80716538976858,69.08005635385365,-87.15996595323664,18.46838389537612,-96.81465882603567C-32.1432885631014,-106.46935169883473,-70.679479243833,-179.42593688096477,-89.94757458419879,-215.9042294720298L-109.2156699245646,-252.38252206309485" style="mix-blend-mode: multiply;"/><path d="M194.45436482630055,-194.45436482630058L167.0544903841006,-166.74924311929595C139.65461594190063,-139.04412141229133,84.8548670575007,-83.6338779982821,86.82589694451333,-81.53494435456605C88.79692683152598,-79.43601071085,147.53873548995116,-130.64838683742713,176.90963981916377,-156.2545749007157L206.28054414837638,-181.86076296400427" style="mix-blend-mode: multiply;"/><path d="M194.45436482630055,-194.45436482630058L163.9382401086701,-161.08080491145012C133.42211539103963,-127.70724499659967,72.3898659557787,-60.96012516689874,32.81089217038471,16.717984581428496C-6.768081615009293,94.39609432975574,-24.89377975053637,183.0051939967093,-33.95662881829991,227.3097438301861L-43.01947788606345,271.61429366366286" style="mix-blend-mode: multiply;"/><path d="M206.28054414837638,-181.86076296400427L176.90963981916377,-156.2545749007157C147.53873548995116,-130.64838683742713,88.79692683152598,-79.43601071085,86.82589694451333,-81.53494435456605C84.8548670575007,-83.6338779982821,139.65461594190063,-139.04412141229133,167.0544903841006,-166.74924311929595L194.45436482630055,-194.45436482630058" style="mix-blend-mode: multiply;"/><path d="M206.28054414837638,-181.86076296400427L174.37098577450396,-150.38809153912973C142.46142740063155,-118.91542011425521,78.64231065288668,-55.97007726450616,42.82256017040976,20.15076724625725C7.002809687932827,96.27161175702066,-0.8175745292761855,185.56795792879845,-4.727766637880691,230.2161310146873L-8.637958746485198,274.8643041005762" style="mix-blend-mode: multiply;"/><path d="M217.29262840331484,-168.54943975456857L187.0276258344173,-143.72914605991576C156.76262326551975,-118.90885236526297,96.23261812772462,-69.26826497595738,103.1408819709075,-56.70217969477181C110.04914581409035,-44.13609441358623,184.39567863825118,-68.64451124052069,221.56894505033156,-80.89871965398792L258.742211462412,-93.15292806745515" style="mix-blend-mode: multiply;"/><path d="M217.29262840331484,-168.54943975456857L186.37185499299184,-140.29147492202253C155.45108158266885,-112.03351008947648,93.60953476202285,-55.5175804243844,91.77418738619978,2.8841200287110618C89.9388400103767,61.28582048180653,148.10969207937657,121.57329172290538,177.19511811387648,151.71702734345482L206.2805441483764,181.86076296400424" style="mix-blend-mode: multiply;"/><path d="M217.29262840331484,-168.54943975456857L186.94812971692582,-143.92993033312965C156.6036310305368,-119.31042091169071,95.91463365775877,-70.07140206881284,101.76294926772209,-60.18244043047887C107.61126487768543,-50.293478792144874,179.99689347039012,-79.75457435835476,216.18970776674246,-94.48512214145971L252.38252206309483,-109.21566992456465" style="mix-blend-mode: multiply;"/><path d="M217.29262840331484,-168.54943975456857L183.68537370680608,-139.12893065781537C150.07811901029729,-109.7084215610622,82.86360961727976,-50.8674033675558,45.20851175897976,23.034887274968316C7.55341390067975,96.93717791749243,-0.5422724229027237,185.9007410090343,-4.590115584693961,230.38252255480526L-8.637958746485198,274.8643041005762" style="mix-blend-mode: multiply;"/><path d="M217.29262840331484,-168.54943975456857L185.54317805777904,-145.52353517689863C153.79372771224322,-122.49763059922871,90.29482702117163,-76.44582144388885,77.41045384251117,-87.8049243891415C64.52608066385072,-99.16402733439416,102.25623499760142,-167.93404238023933,121.12131216447676,-202.31904990316193L139.98638933135211,-236.7040574260845" style="mix-blend-mode: multiply;"/><path d="M236.7040574260845,-139.9863893313521L200.10420742189874,-114.9693505081781C163.50435741771298,-89.95231168500412,90.30465740934146,-39.91823403865616,49.41432138057985,29.223548199998557C8.523985351818235,98.36533043865326,-0.05698669733348183,186.61481726961472,-4.34747272190934,230.73956068509548L-8.637958746485198,274.8643041005762" style="mix-blend-mode: multiply;"/><path d="M236.7040574260845,-139.9863893313521L203.36696343201848,-119.77035018349237C170.02986943795247,-99.55431103563264,103.35568144982047,-59.122232739913194,105.96875888932219,-53.99377950544863C108.58183632882391,-48.86532627098406,180.48217919595936,-79.04049809777435,216.43235062952712,-94.1280840111695L252.38252206309483,-109.21566992456465" style="mix-blend-mode: multiply;"/><path d="M252.38252206309483,-109.21566992456465L216.82826378086546,-93.1281215368282C181.27400549863614,-77.04057314909178,110.16548893417746,-44.86547637361891,112.8312535125209,-36.661096616866345C115.49701809086436,-28.456716860113776,191.93706381200994,-44.223054122081514,230.15708667258275,-52.106222753065374L268.37710953315553,-59.98939138404924" style="mix-blend-mode: multiply;"/><path d="M252.38252206309483,-109.21566992456465L216.05205671355574,-90.10499460747754C179.7215913640167,-70.99431929039044,107.0606606649385,-32.772968656216236,99.3769976791521,15.739770158545246C91.69333469336568,64.25250897330672,148.98693942087104,123.05663596865548,177.63374178462377,152.45869946632988L206.2805441483764,181.86076296400424" style="mix-blend-mode: multiply;"/><path d="M252.38252206309483,-109.21566992456465L213.36557542736998,-88.94245034327038C174.3486287916451,-68.66923076197615,96.31473552019543,-28.12279159938764,52.81132205193209,35.8905374048025C9.30790858366875,99.90386640899264,0.33497491859177586,187.38408525478442,-4.151491913946711,231.1241946776803L-8.637958746485198,274.8643041005762" style="mix-blend-mode: multiply;"/><path d="M252.38252206309483,-109.21566992456465L216.43235062952706,-94.1280840111695C180.48217919595936,-79.04049809777435,108.58183632882391,-48.86532627098406,105.9687588893222,-53.99377950544863C103.35568144982047,-59.122232739913194,170.02986943795247,-99.55431103563264,203.36696343201848,-119.77035018349238L236.7040574260845,-139.9863893313521" style="mix-blend-mode: multiply;"/><path d="M252.38252206309483,-109.21566992456465L216.70782755498115,-93.5426657453708C181.03313304686756,-77.86966156617693,109.68374403064028,-46.52365320778921,110.74369226385981,-43.84652956493763C111.80364049707934,-41.16940592208604,185.27292597974568,-67.1611669947706,222.00756872107885,-80.15704753111287L258.742211462412,-93.15292806745515" style="mix-blend-mode: multiply;"/><path d="M252.38252206309483,-109.21566992456465L215.90422947202978,-94.80893370485636C179.42593688096477,-80.40219748514806,106.46935169883471,-51.58872504573148,96.81465882603567,-65.79517419602081C87.15996595323662,-80.00162334631013,140.80716538976858,-137.22799408630536,167.63076510803458,-165.84117945630297L194.45436482630055,-194.45436482630058" style="mix-blend-mode: multiply;"/><path d="M252.38252206309483,-109.21566992456465L210.07837124090523,-91.8405106709518C167.7742204187157,-74.46535141733897,83.16591877433655,-39.71503291011327,-4.16688384678974,-14.342508275008578C-91.49968646791602,11.030016360096118,-181.55699006578945,27.024747123079823,-226.58564186472617,35.02211250457167L-271.61429366366286,43.01947788606353" style="mix-blend-mode: multiply;"/><path d="M252.38252206309483,-109.21566992456465L216.18970776674246,-94.48512214145971C179.99689347039012,-79.75457435835476,107.61126487768543,-50.293478792144874,101.76294926772209,-60.18244043047887C95.91463365775877,-70.07140206881284,156.6036310305368,-119.31042091169071,186.94812971692582,-143.92993033312965L217.29262840331484,-168.54943975456857" style="mix-blend-mode: multiply;"/><path d="M252.38252206309483,-109.21566992456465L215.22337977834295,-95.33705486235364C178.06423749359104,-81.45843980014267,103.74595292408729,-53.70120967572068,85.0132641354635,-74.94927425930732C66.28057534683973,-96.19733884289396,103.13348233909592,-166.45069813448922,121.55993583522401,-201.57737778028684L139.98638933135211,-236.7040574260845" style="mix-blend-mode: multiply;"/><path d="M252.38252206309483,-109.21566992456465L213.5815243960321,-88.94245034327038C174.78052672896936,-68.66923076197615,97.17853139484396,-28.12279159938764,56.55443750874235,35.8905374048025C15.930343622640763,99.90386640899264,12.284151184563013,187.38408525478442,10.46105496552414,231.1241946776803L8.637958746485264,274.8643041005762" style="mix-blend-mode: multiply;"/><path d="M252.38252206309483,-109.21566992456465L210.4107149848035,-90.8176618016729C168.43890790651224,-72.41965367878116,84.49529374992963,-35.623637432997675,1.593741047446964,3.3868721258256635C-81.30781165503569,42.397381684649005,-163.1673029034184,83.6223845565122,-204.0970485276098,104.23488599244381L-245.02679415180114,124.8473874283754" style="mix-blend-mode: multiply;"/><path d="M252.38252206309483,-109.21566992456465L215.4057115230677,-89.5351646704588C178.42890098304065,-69.85465941635293,104.47527990298647,-30.49364890814122,88.17368104402665,25.616822400203645C71.87208218506683,81.72729370854852,113.22250554720135,154.5872258170265,133.8977172282686,191.0171918712655L154.57292890933587,227.44715792550454" style="mix-blend-mode: multiply;"/><path d="M252.38252206309483,-109.21566992456465L211.20029037465096,-94.9567609463823C170.01805868620713,-80.69785196819996,87.65359530931947,-52.18003401183527,15.279714471469598,-68.3575130491372C-57.09416636638027,-84.53499208643915,-119.47746466519233,-145.4077681174077,-150.66911381459835,-175.84415613289198L-181.86076296400438,-206.28054414837626" style="mix-blend-mode: multiply;"/><path d="M252.38252206309483,-109.21566992456465L215.4057115230677,-95.2213436185964C178.42890098304065,-81.22701731262816,104.47527990298647,-53.238364700691676,88.17368104402665,-72.94361270084833C71.87208218506684,-92.64886070100498,113.22250554720137,-160.04800931325474,133.89771722826865,-193.74758361937964L154.5729289093359,-227.4471579255045" style="mix-blend-mode: multiply;"/><path d="M252.38252206309483,-109.21566992456465L216.90935371295822,-92.27027966019654C181.43618536282167,-75.32488939582842,110.48984866254848,-41.434108867092185,114.23681233546206,-21.791837421917197C117.98377600837561,-2.14956597674221,196.4240400544759,3.244196384871533,235.64417207752604,5.9410775656784045L274.8643041005762,8.637958746485277" style="mix-blend-mode: multiply;"/><path d="M252.38252206309483,-109.21566992456465L210.31876838591234,-91.01305827047054C168.25501470872987,-72.81044661637644,84.12750735436494,-36.40522330818822,-4.736951571734001e-15,-1.4210854715202004e-14C-84.12750735436495,36.40522330818819,-168.2550147087299,72.81044661637638,-210.31876838591236,91.01305827047048L-252.38252206309485,109.21566992456458" style="mix-blend-mode: multiply;"/><path d="M252.38252206309483,-109.21566992456465L212.5145179846912,-89.0772446000131C172.64651390628754,-68.93881927546157,92.9105057494803,-28.661968626358476,38.05965971216647,33.55410362126219C-16.79118632514734,95.77017586888286,-46.75687024296769,179.9254697150211,-61.73971220187787,222.0031166380902L-76.72255416078805,264.08076356115936" style="mix-blend-mode: multiply;"/><path d="M258.742211462412,-93.15292806745515L218.74481271095908,-75.35604785579861C178.74741395950616,-57.55916764414207,98.75261645660034,-21.965407220828997,54.189254755117474,39.37079814050956C9.625893053634611,100.70700350184812,0.4939671535747057,187.78565380121213,-4.071995796455247,231.32497895089418L-8.637958746485198,274.8643041005762" style="mix-blend-mode: multiply;"/><path d="M258.742211462412,-93.15292806745515L221.2834667556189,-81.22253121738457C183.82472204882583,-69.29213436731399,108.90723263523962,-45.43134066717283,98.19259152922105,-62.31491346031374C87.47795042320247,-79.19848625345465,140.9661576247515,-136.82642553987762,167.71026122552604,-165.64039518308908L194.45436482630055,-194.45436482630058" style="mix-blend-mode: multiply;"/><path d="M258.742211462412,-93.15292806745515L222.0075687210788,-80.15704753111287C185.27292597974568,-67.1611669947706,111.80364049707934,-41.16940592208604,110.74369226385981,-43.84652956493763C109.68374403064028,-46.52365320778921,181.03313304686756,-77.86966156617693,216.7078275549812,-93.5426657453708L252.38252206309483,-109.21566992456465" style="mix-blend-mode: multiply;"/><path d="M258.742211462412,-93.15292806745515L221.56894505033156,-80.89871965398792C184.39567863825118,-68.64451124052069,110.04914581409035,-44.13609441358623,103.1408819709075,-56.70217969477181C96.23261812772462,-69.26826497595738,156.76262326551975,-118.90885236526297,187.0276258344173,-143.72914605991576L217.29262840331484,-168.54943975456857" style="mix-blend-mode: multiply;"/><path d="M258.742211462412,-93.15292806745515L221.43129399714485,-76.51859212000576C184.1203765318777,-59.88425617255638,109.49854160134343,-26.615584277657593,100.75493038233749,19.220030894252297C92.01131916333156,65.0556460661622,149.14593165585399,123.4582045150832,177.7132379021152,152.6594837395437L206.2805441483764,181.8607629640042" style="mix-blend-mode: multiply;"/><path d="M258.742211462412,-93.15292806745515L222.2075010644546,-79.54171904935643C185.6727906664972,-65.93051003125771,112.60336987058237,-38.70809199506027,114.20918621570631,-33.18083588115929C115.81500256083022,-27.653579767258304,192.09605604699289,-43.821485575653774,230.2365827900742,-51.90543847985151L268.37710953315553,-59.98939138404924" style="mix-blend-mode: multiply;"/><path d="M258.742211462412,-93.15292806745515L215.41698339403294,-78.89982614138688C172.0917553256539,-64.64672421531861,85.4412991888958,-36.14052036318207,-3.4931200716022395,-22.054692143020404C-92.42753933210027,-7.968863922858745,-183.64592171633822,-8.303411334671962,-229.25511290845722,-8.470685040578571L-274.8643041005762,-8.63795874648518" style="mix-blend-mode: multiply;"/><path d="M258.742211462412,-93.15292806745515L215.45760852449436,-78.25410818348003C172.17300558657675,-63.355288299504885,85.60379971074146,-33.557648531554634,-2.7889511436043506,-10.862247539301519C-91.18170199795016,11.833153452951594,-181.3979978308065,27.42631566950756,-226.50614574723468,35.22289677778554L-271.61429366366286,43.01947788606353" style="mix-blend-mode: multiply;"/><path d="M268.37710953315553,-59.98939138404924L228.75213501343595,-53.699827596834375C189.1271604937164,-47.4102638096195,109.87721145427723,-34.831136235189774,88.47875808730998,-64.28358057552897C67.08030472034275,-93.73602491586819,103.53334702584743,-165.22004117097634,121.75986817859979,-200.9620492985304L139.98638933135211,-236.7040574260845" style="mix-blend-mode: multiply;"/><path d="M268.37710953315553,-59.98939138404924L229.58081194864874,-48.46776734195826C190.78451436414198,-36.94614329986729,113.19191919512843,-13.902895215685332,102.8424916309986,26.40546384232358C92.49306406686874,66.71382290033249,149.38680410762257,124.28729293216834,177.8336741279995,153.07402794808627L206.2805441483764,181.8607629640042" style="mix-blend-mode: multiply;"/><path d="M268.37710953315553,-59.98939138404924L230.15708667258275,-52.10622275306537C191.93706381200994,-44.223054122081514,115.49701809086436,-28.456716860113776,112.8312535125209,-36.661096616866345C110.16548893417746,-44.86547637361891,181.27400549863614,-77.04057314909178,216.8282637808655,-93.1281215368282L252.38252206309483,-109.21566992456465" style="mix-blend-mode: multiply;"/><path d="M268.37710953315553,-59.98939138404924L229.43298470712284,-53.17170643933707C190.4888598810901,-46.35402149462491,112.60061022902465,-32.71865160520057,100.28015277788215,-55.12948051224246C87.95969532673966,-77.54030941928436,141.2070300765201,-135.99733712279246,167.83069745141032,-165.22585097454652L194.45436482630055,-194.45436482630058" style="mix-blend-mode: multiply;"/><path d="M268.37710953315553,-59.98939138404924L223.56650134553686,-50.849001363339376C178.75589315791817,-41.708611342629524,89.1346767826808,-23.427831301209803,-1.4055588229411455,-14.869259194949125C-91.9457944285631,-6.310687088688449,-183.40504926456967,-7.474322917586814,-229.13467668257292,-8.056140832035998L-274.8643041005762,-8.63795874648518" style="mix-blend-mode: multiply;"/><path d="M268.37710953315553,-59.98939138404924L230.2365827900742,-51.905438479851504C192.09605604699289,-43.821485575653774,115.81500256083022,-27.653579767258304,114.20918621570631,-33.18083588115929C112.60336987058237,-38.70809199506027,185.6727906664972,-65.93051003125771,222.20750106445462,-79.54171904935643L258.742211462412,-93.15292806745515" style="mix-blend-mode: multiply;"/><path d="M268.37710953315553,-59.98939138404924L223.93947021989655,-49.18043453615362C179.50183090663757,-38.371477688258004,90.62655228011955,-16.75356399246677,5.059234999293447,14.052565809604003C-80.50808228153267,44.85869561167477,-162.7674382166669,84.85304152002509,-203.89711618423402,104.85021447420024L-245.02679415180114,124.8473874283754" style="mix-blend-mode: multiply;"/><path d="M268.37710953315553,-59.98939138404924L224.42379834493934,-48.46776734195826C180.47048715672315,-36.94614329986728,92.56386478029081,-13.902895215685326,13.45425583336882,26.4054638423236C-65.65535311355316,66.71382290033252,-135.96794863096474,124.2872929321684,-171.12424638967056,153.07402794808635L-206.28054414837635,181.8607629640043" style="mix-blend-mode: multiply;"/><path d="M268.37710953315553,-59.98939138404924L226.4645616732183,-47.34584820821252C184.55201381328098,-34.70230503237582,100.72691809340644,-9.415218680702397,48.82748685686996,45.85206216058295C-3.0719443796665424,101.1193430018683,-23.045711132864994,186.36681833276558,-33.032594509464225,228.9905559982142L-43.01947788606345,271.61429366366286" style="mix-blend-mode: multiply;"/><path d="M268.37710953315553,-59.98939138404924L226.89433066246298,-47.305223077751116C185.41155179177045,-34.62105477145298,102.44599405038537,-9.252718158856732,56.27681600377858,46.55623108858084C10.107637957171788,102.36518033601841,0.7348396053432941,188.61474221829732,-3.9515595705709523,231.73952315943674L-8.637958746485198,274.8643041005762" style="mix-blend-mode: multiply;"/><path d="M268.37710953315553,-59.98939138404924L230.43810894805128,-50.63305239467724C192.499108362947,-41.27671340530526,116.62110719273842,-22.56403542656128,117.70230628730855,-11.126143738138857C118.78350538187867,0.31174795028356045,196.82390474122744,4.474853348384419,235.8441044209018,6.556406047434848L274.8643041005762,8.637958746485277" style="mix-blend-mode: multiply;"/><path d="M268.37710953315553,-59.98939138404924L228.56289748964878,-53.803861805905825C188.74868544614196,-47.618332227762416,109.12026135912839,-35.247273071475604,85.1986410083317,-66.08684019943426C61.277020657535,-96.92640732739291,93.06220404295517,-170.97660073959705,108.95479573566526,-208.00169744569914L124.84738742837536,-245.02679415180117" style="mix-blend-mode: multiply;"/><path d="M268.37710953315553,-59.98939138404924L223.64759127762963,-51.490894271308925C178.9180730221037,-42.99239715856862,89.45903651105185,-25.995402933088013,0,-25.99540293308802C-89.45903651105185,-25.99540293308803,-178.9180730221037,-42.99239715856866,-223.64759127762963,-51.49089427130898L-268.37710953315553,-59.9893913840493" style="mix-blend-mode: multiply;"/><path d="M268.37710953315553,-59.98939138404924L226.0432732197842,-47.440017334493824C183.70943690641286,-34.890643284938406,99.04176427967023,-9.791895185827572,41.525153664012954,44.21979730504052C-15.991456951644308,98.23148979590862,-46.35700555621617,181.15612667853398,-61.53977985850211,222.61844511984668L-76.72255416078805,264.08076356115936" style="mix-blend-mode: multiply;"/><path d="M274.8643041005762,8.637958746485277L235.8441044209018,6.556406047434847C196.82390474122744,4.474853348384419,118.78350538187867,0.31174795028355984,117.70230628730855,-11.12614373813886C116.62110719273842,-22.56403542656128,192.499108362947,-41.27671340530526,230.43810894805128,-50.63305239467726L268.37710953315553,-59.98939138404924" style="mix-blend-mode: multiply;"/><path d="M274.8643041005762,8.637958746485277L235.64417207752604,5.9410775656784045C196.4240400544759,3.2441963848715325,117.98377600837561,-2.149565976742211,114.23681233546206,-21.791837421917197C110.48984866254848,-41.434108867092185,181.43618536282167,-75.32488939582842,216.90935371295822,-92.27027966019654L252.38252206309483,-109.21566992456465" style="mix-blend-mode: multiply;"/><path d="M274.8643041005762,8.637958746485277L234.2392204183793,4.347472721909406C193.61413673618233,0.056986697333536306,112.36396937178849,-8.523985351818204,89.88431691025113,-49.41432138057983C67.40466444871379,-90.30465740934146,103.69552689003295,-163.50435741771298,121.84095811069254,-200.10420742189874L139.98638933135211,-236.7040574260845" style="mix-blend-mode: multiply;"/><path d="M206.2805441483764,181.8607629640042L177.8336741279995,153.07402794808627C149.38680410762257,124.28729293216834,92.49306406686874,66.71382290033249,102.8424916309986,26.405463842323574C113.19191919512843,-13.902895215685332,190.78451436414198,-36.94614329986729,229.58081194864874,-48.46776734195826L268.37710953315553,-59.98939138404924" style="mix-blend-mode: multiply;"/><path d="M206.2805441483764,181.8607629640042L174.370985774504,157.2596991416441C142.46142740063155,132.658635319284,78.64231065288669,83.45650767456375,42.82256017040976,98.95709786399243C7.002809687932829,114.45768805342108,-0.8175745292761848,194.66099607699866,-4.727766637880691,234.7626500887874L-8.637958746485198,274.8643041005762" style="mix-blend-mode: multiply;"/><path d="M206.2805441483764,181.8607629640042L177.63374178462377,152.45869946632982C148.98693942087104,123.05663596865547,91.69333469336568,64.25250897330672,99.3769976791521,15.739770158545234C107.0606606649385,-32.77296865621624,179.7215913640167,-70.99431929039045,216.05205671355574,-90.10499460747756L252.38252206309483,-109.21566992456466" style="mix-blend-mode: multiply;"/><path d="M206.2805441483764,181.8607629640042L177.19511811387648,151.71702734345476C148.10969207937657,121.57329172290537,89.9388400103767,61.28582048180652,91.77418738619978,2.8841200287110524C93.60953476202285,-55.51758042438441,155.45108158266885,-112.03351008947648,186.37185499299184,-140.29147492202253L217.29262840331484,-168.54943975456857" style="mix-blend-mode: multiply;"/><path d="M206.2805441483764,181.8607629640042L177.71323790211522,152.6594837395437C149.14593165585399,123.4582045150832,92.01131916333156,65.0556460661622,100.75493038233749,19.2200308942523C109.49854160134343,-26.615584277657593,184.1203765318777,-59.88425617255638,221.43129399714485,-76.51859212000576L258.742211462412,-93.15292806745515" style="mix-blend-mode: multiply;"/><path d="M206.2805441483764,181.8607629640042L176.9096398191638,151.3932157800581C147.5387354899512,120.92566859611206,88.79692683152598,59.99057422821991,86.82589694451333,-2.72861373683088C84.8548670575007,-65.44780170188169,139.65461594190063,-129.95108326409112,167.0544903841006,-162.20272404519585L194.45436482630055,-194.45436482630058" style="mix-blend-mode: multiply;"/><path d="M206.2805441483764,181.8607629640042L176.22879012547696,150.86509462256083C146.1770361025775,119.86942628111747,86.07352805677857,57.87808959823072,75.0245022539412,-11.882713800117395C63.975476451103795,-81.64351719846552,101.98093289122795,-159.17378731227498,120.98366111129003,-197.93892236917975L139.98638933135211,-236.7040574260845" style="mix-blend-mode: multiply;"/><path d="M206.2805441483764,181.8607629640042L172.205700721785,151.24538853853218C138.13085729519358,120.63001411306017,69.98117044201074,59.39926526211613,5.290952589947271,-5.290952589947277C-59.39926526211619,-69.9811704420107,-120.63001411306028,-138.13085729519347,-151.24538853853232,-172.20570072178486L-181.86076296400438,-206.28054414837626" style="mix-blend-mode: multiply;"/><path d="M206.2805441483764,181.8607629640042L176.41112187020175,150.9808058663181C146.54169959202707,120.10084876863196,86.80285503567775,58.340934573259716,78.18491916250434,-9.877052241658399C69.56698328933092,-78.09503905657652,112.06995609933341,-152.77109849104053,133.32144250433467,-190.10912820827252L154.5729289093359,-227.4471579255045" style="mix-blend-mode: multiply;"/><path d="M206.2805441483764,181.8607629640042L173.94121678525926,157.21907401118267C141.60188942214208,132.57738505836116,76.9232346959078,83.2940071527181,35.37323102350114,98.25292893599453C-6.176772648905501,113.21185071927097,-24.598125267484477,192.4130721914669,-33.80880157677396,232.0136829275649L-43.01947788606345,271.61429366366286" style="mix-blend-mode: multiply;"/><path d="M206.2805441483764,181.8607629640042L172.72913039219316,156.78269605821293C139.17771663600988,131.7046291524217,72.07488912364336,81.54849534083918,14.36373354368862,90.68904441785257C-43.34742203626612,99.82959349486596,-91.66690568380905,168.26682546047527,-115.82664750758055,202.4854414432799L-139.986389331352,236.70405742608457" style="mix-blend-mode: multiply;"/><path d="M206.2805441483764,181.8607629640042L171.32417873304635,155.18909121444395C136.36781331771633,128.5174194648837,66.45508248705622,75.17407596576318,-9.988761881522327,63.0665604591899C-86.43260625010087,50.95904495261664,-169.40756415659786,80.08735743859062,-210.89504310984637,94.65151368157758L-252.38252206309485,109.21566992456458" style="mix-blend-mode: multiply;"/><path d="M206.2805441483764,181.8607629640042L172.04828069850632,151.3932157800581C137.81601724863617,120.92566859611206,69.35149034889592,59.99057422821992,2.5623388531164246,-2.728613736830861C-64.22681264266308,-65.44780170188164,-129.34058873448183,-129.95108326409107,-161.89747678039123,-162.20272404519577L-194.4543648263006,-194.4543648263005" style="mix-blend-mode: multiply;"/><path d="M206.2805441483764,181.8607629640042L171.08378158803927,154.36163881396268C135.8870190277021,126.86251466392116,65.49349390702781,71.86426636383813,-14.155645728312066,48.724052184181346C-93.80478536365194,25.583838004524562,-182.7095395136574,34.301657945294046,-227.16191658866015,38.66056791567879L-271.61429366366286,43.01947788606353" style="mix-blend-mode: multiply;"/><path d="M206.2805441483764,181.8607629640042L173.5199283318252,157.12490488490138C140.759312515274,132.38904680579856,75.23808088217156,82.91733064759292,28.070897830644146,96.62066408045212C-19.096285220883264,110.32399751331131,-47.909419690835655,187.2023805372353,-62.31598692581185,225.64157204919732L-76.72255416078805,264.08076356115936" style="mix-blend-mode: multiply;"/><path d="M154.57292890933587,227.44715792550454L130.2051922289041,195.7775664161184C105.83745554847239,164.1079749067322,57.10198218760891,100.76879188795988,24.16991438837569,108.12998117765294C-8.762153410857527,115.49117046734598,-25.89081564846049,193.55273206550442,-34.455146767261965,232.58351286458367L-43.01947788606345,271.61429366366286" style="mix-blend-mode: multiply;"/><path d="M154.57292890933587,227.44715792550454L130.63496121814885,195.8181915465798C106.69699352696186,164.18922516765505,58.82105814458782,100.93129240980556,31.619243535284312,108.83415010565083C4.417428925980802,116.73700780149609,-2.110264910252198,195.80065595103613,-5.374111828368698,235.33248002580618L-8.637958746485198,274.8643041005762" style="mix-blend-mode: multiply;"/><path d="M154.57292890933587,227.44715792550454L133.8977172282686,191.01719187126557C113.22250554720135,154.5872258170265,71.87208218506683,81.72729370854852,88.17368104402665,25.61682240020364C104.47527990298647,-30.49364890814123,178.42890098304065,-69.85465941635294,215.4057115230677,-89.53516467045881L252.38252206309483,-109.21566992456466" style="mix-blend-mode: multiply;"/><path d="M25.879786162591447,273.779540265847L21.782011311527537,235.00766494278616C17.68423646046362,196.23578961972524,9.488686758335795,118.69203897360349,3.7357292734896874,118.87283294605835C-2.01722821135642,119.05362691851322,-5.32759347892081,196.9589655095447,-6.982776112703004,235.91163480506046L-8.637958746485198,274.8643041005762" style="mix-blend-mode: multiply;"/><path d="M8.637958746485266,274.8643041005762L7.19829895540439,235.92519435299457C5.758639164323512,196.9860846054129,2.879319582161759,119.10786511024969,1.4506914188435378e-14,119.10786511024969C-2.8793195821617292,119.10786511024969,-5.758639164323465,196.9860846054129,-7.19829895540433,235.92519435299457L-8.637958746485198,274.8643041005762" style="mix-blend-mode: multiply;"/><path d="M8.637958746485266,274.8643041005762L10.46105496552414,231.1241946776803C12.284151184563015,187.38408525478442,15.930343622640763,99.90386640899264,56.55443750874235,35.89053740480251C97.17853139484396,-28.122791599387636,174.78052672896936,-68.66923076197615,213.58152439603214,-88.94245034327041L252.38252206309483,-109.21566992456465" style="mix-blend-mode: multiply;"/><path d="M8.637958746485266,274.8643041005762L4.2434385128379395,234.04998289459206C-0.15108172080938687,193.23566168860793,-8.94012218810404,111.60701927663963,-51.21758100448511,86.60419983127285C-93.49503982086617,61.60138038590605,-169.26091698633365,93.22438390714073,-207.14385556906737,109.03588566775807L-245.02679415180114,124.8473874283754" style="mix-blend-mode: multiply;"/><path d="M-8.637958746485198,274.8643041005762L-4.727766637880691,234.7626500887874C-0.8175745292761848,194.66099607699866,7.002809687932829,114.45768805342108,42.82256017040976,98.95709786399243C78.64231065288669,83.45650767456375,142.46142740063155,132.658635319284,174.37098577450396,157.2596991416441L206.2805441483764,181.8607629640042" style="mix-blend-mode: multiply;"/><path d="M-8.637958746485198,274.8643041005762L-4.34747272190934,230.73956068509548C-0.05698669733348183,186.61481726961472,8.523985351818235,98.36533043865326,49.41432138057985,29.22354819999856C90.30465740934146,-39.91823403865616,163.50435741771298,-89.95231168500412,200.10420742189874,-114.96935050817812L236.7040574260845,-139.9863893313521" style="mix-blend-mode: multiply;"/><path d="M-8.637958746485198,274.8643041005762L-4.151491913946711,231.1241946776803C0.33497491859177586,187.38408525478442,9.30790858366875,99.90386640899264,52.81132205193209,35.89053740480251C96.31473552019543,-28.122791599387636,174.3486287916451,-68.66923076197615,213.36557542737,-88.94245034327041L252.38252206309483,-109.21566992456465" style="mix-blend-mode: multiply;"/><path d="M-8.637958746485198,274.8643041005762L-7.84401691331119,235.88456922253314C-7.050075080137183,196.90483434449013,-5.462191413789166,118.94536458840402,-11.192444603718874,118.40369618225179C-16.922697793648585,117.86202777609958,-29.971087839856015,194.73816071988122,-36.49528286295973,233.17622719177203L-43.01947788606345,271.61429366366286" style="mix-blend-mode: multiply;"/><path d="M-8.637958746485198,274.8643041005762L-5.374111828368697,235.33248002580618C-2.110264910252198,195.80065595103613,4.417428925980802,116.73700780149609,31.619243535284312,108.83415010565083C58.82105814458782,100.93129240980556,106.69699352696186,164.18922516765505,130.63496121814887,195.81819154657978L154.57292890933587,227.44715792550454" style="mix-blend-mode: multiply;"/><path d="M-8.637958746485198,274.8643041005762L-4.071995796455246,231.32497895089418C0.4939671535747057,187.78565380121213,9.625893053634611,100.70700350184812,54.189254755117474,39.37079814050956C98.75261645660034,-21.965407220828997,178.74741395950616,-57.55916764414207,218.7448127109591,-75.35604785579861L258.742211462412,-93.15292806745515" style="mix-blend-mode: multiply;"/><path d="M-8.637958746485198,274.8643041005762L-4.875593879406639,230.0587109914086C-1.113229012328081,185.253117882241,6.411500721829036,95.64193166390585,40.26022131729333,17.422153509426384C74.10894191275762,-60.79762464505308,134.2816533695291,-127.62599473567683,164.3680090979148,-161.0401797809887L194.45436482630055,-194.45436482630058" style="mix-blend-mode: multiply;"/><path d="M-8.637958746485198,274.8643041005762L-10.701452110531184,233.02713402531313C-12.764945474577168,191.18996395005013,-16.891932202669135,107.51562379952405,-60.721321355532076,68.8748194304386C-104.55071050839503,30.234015061353166,-188.08250208602894,36.626746473708344,-229.84839787484592,39.82311217988593L-271.61429366366286,43.01947788606353" style="mix-blend-mode: multiply;"/><path d="M-8.637958746485198,274.8643041005762L-4.590115584693961,230.38252255480526C-0.5422724229027237,185.9007410090343,7.55341390067975,96.93717791749243,45.20851175897976,23.034887274968323C82.86360961727976,-50.8674033675558,150.07811901029729,-109.7084215610622,183.68537370680608,-139.12893065781537L217.29262840331484,-168.54943975456857" style="mix-blend-mode: multiply;"/><path d="M-8.637958746485198,274.8643041005762L-10.369108366632911,234.04998289459206C-12.100257986780624,193.23566168860793,-15.56255722707605,111.60701927663963,-54.96069646129538,86.60419983127285C-94.3588356955147,61.60138038590605,-169.69281492365792,93.22438390714073,-207.3598045377295,109.03588566775807L-245.02679415180114,124.8473874283754" style="mix-blend-mode: multiply;"/><path d="M-8.637958746485198,274.8643041005762L-5.556443573093495,229.5305898339113C-2.474928399701792,184.1968755672464,3.6881019470816145,93.52944703391665,28.458826626721166,8.268053446139874C53.22955130636072,-76.9933401416369,96.60797031885642,-156.8486987838607,118.29717982510427,-196.77637810497262L139.98638933135211,-236.7040574260845" style="mix-blend-mode: multiply;"/><path d="M-8.637958746485198,274.8643041005762L-7.19829895540433,235.92519435299457C-5.758639164323465,196.9860846054129,-2.8793195821617292,119.10786511024969,1.4506914188435378e-14,119.10786511024969C2.879319582161759,119.10786511024969,5.758639164323512,196.9860846054129,7.19829895540439,235.92519435299457L8.637958746485266,274.8643041005762" style="mix-blend-mode: multiply;"/><path d="M-8.637958746485198,274.8643041005762L-6.141861838892208,229.25511290845722C-3.645764931299217,183.64592171633822,1.3464288838867642,92.42753933210027,18.31157668621015,3.4931200716022395C35.27672448853354,-85.4412991888958,64.21482627799433,-172.0917553256539,78.68387717272473,-215.41698339403297L93.15292806745512,-258.742211462412" style="mix-blend-mode: multiply;"/><path d="M-8.637958746485198,274.8643041005762L-9.579532976785451,229.9108837498827C-10.521107207085706,184.95746339918912,-12.404255667686213,95.05062269780205,-41.27472303727274,14.859814656309979C-70.14519040685927,-65.3309933851821,-126.00297668543182,-135.80576876677918,-153.93186982471812,-171.04315645757774L-181.86076296400438,-206.28054414837626" style="mix-blend-mode: multiply;"/><path d="M-8.637958746485198,274.8643041005762L-5.374111828368697,229.64630107766857C-2.1102649102521975,184.42829805476092,4.417428925980803,93.99229200894565,31.619243535284323,10.273715004598865C58.82105814458783,-73.44486199974791,106.69699352696188,-150.44600996262622,130.6349612181489,-188.9465839440654L154.5729289093359,-227.4471579255045" style="mix-blend-mode: multiply;"/><path d="M-8.637958746485198,274.8643041005762L-6.982776112703004,235.91163480506046C-5.327593478920809,196.9589655095447,-2.01722821135642,119.05362691851322,3.7357292734896874,118.87283294605835C9.488686758335795,118.69203897360349,17.68423646046362,196.23578961972524,21.782011311527537,235.00766494278614L25.879786162591447,273.779540265847" style="mix-blend-mode: multiply;"/><path d="M-8.637958746485198,274.8643041005762L-8.671469313792455,229.33460902594868C-8.70497988109971,183.80491395132117,-8.772001015714224,92.74552380206613,-25.534952878727456,4.871052774787628C-42.29790474174069,-83.00341825249087,-75.75678733315264,-167.69297015779287,-92.48622862885861,-210.03774611044386L-109.2156699245646,-252.38252206309485" style="mix-blend-mode: multiply;"/><path d="M-8.637958746485198,274.8643041005762L-10.461054965524083,233.85458642579442C-12.284151184562967,192.84486875101265,-15.93034362264074,110.8254334014491,-56.55443750874235,83.21732770544716C-97.17853139484396,55.609222009445226,-174.78052672896942,82.4124459670049,-213.58152439603214,95.81405794578473L-252.38252206309485,109.21566992456457" style="mix-blend-mode: multiply;"/><path d="M-8.637958746485198,274.8643041005762L-3.951559570570952,231.73952315943674C0.7348396053432941,188.61474221829732,10.107637957171788,102.36518033601841,56.27681600377858,46.55623108858085C102.44599405038537,-9.252718158856728,185.41155179177045,-34.62105477145298,226.89433066246298,-47.3052230777511L268.37710953315553,-59.989391384049235" style="mix-blend-mode: multiply;"/><path d="M-8.637958746485198,274.8643041005762L-9.056103306377297,235.4481912695634C-9.474247866269396,196.03207843855066,-10.310536986053593,117.1998527765251,-32.20194208353139,110.83981166410983C-54.09334718100919,104.47977055169457,-97.03986825618061,170.59191398888956,-118.51312879376631,203.6479857074871L-139.986389331352,236.70405742608457" style="mix-blend-mode: multiply;"/><path d="M-8.637958746485198,274.8643041005762L-5.745681096880705,229.42655562483984C-2.853403447276211,183.9888071491035,2.9311518519327766,93.11331019763082,25.17870954774287,6.464793822234593C47.42626724355296,-80.18372255316163,86.13682733596416,-162.6052583524814,105.49210738216976,-203.81602625214126L124.84738742837536,-245.02679415180114" style="mix-blend-mode: multiply;"/><path d="M-8.637958746485198,274.8643041005762L-4.727766637880691,230.2161310146873C-0.8175745292761855,185.56795792879845,7.002809687932827,96.27161175702066,42.82256017040976,20.15076724625725C78.64231065288668,-55.97007726450616,142.46142740063155,-118.91542011425521,174.37098577450396,-150.38809153912973L206.28054414837638,-181.86076296400427" style="mix-blend-mode: multiply;"/><path d="M-8.637958746485198,274.8643041005762L-10.660987308899841,231.73952315943674C-12.684015871314486,188.61474221829732,-16.73007299614377,102.36518033601841,-60.01993146058883,46.55623108858083C-103.30978992503388,-9.252718158856753,-185.84344972909471,-34.621054771453025,-227.1102796311251,-47.30522307775116L-268.37710953315553,-59.9893913840493" style="mix-blend-mode: multiply;"/><path d="M-43.01947788606345,271.61429366366286L-36.49528286295973,233.17622719177203C-29.971087839856015,194.73816071988122,-16.92269779364858,117.86202777609958,-11.192444603718874,118.40369618225179C-5.462191413789166,118.94536458840402,-7.050075080137181,196.90483434449013,-7.84401691331119,235.88456922253314L-8.637958746485198,274.8643041005762" style="mix-blend-mode: multiply;"/><path d="M-43.01947788606345,271.61429366366286L-34.455146767261965,232.58351286458367C-25.89081564846049,193.55273206550442,-8.762153410857527,115.49117046734598,24.16991438837569,108.12998117765294C57.10198218760891,100.76879188795988,105.83745554847239,164.1079749067322,130.20519222890414,195.77756641611836L154.57292890933587,227.44715792550454" style="mix-blend-mode: multiply;"/><path d="M-43.01947788606345,271.61429366366286L-33.80880157677396,232.0136829275649C-24.598125267484477,192.4130721914669,-6.176772648905501,113.21185071927097,35.37323102350114,98.25292893599453C76.9232346959078,83.2940071527181,141.60188942214208,132.57738505836116,173.94121678525926,157.21907401118267L206.2805441483764,181.8607629640042" style="mix-blend-mode: multiply;"/><path d="M-43.01947788606345,271.61429366366286L-33.032594509464225,228.9905559982142C-23.045711132864994,186.36681833276558,-3.0719443796665424,101.1193430018683,48.82748685686996,45.85206216058295C100.72691809340644,-9.415218680702399,184.55201381328098,-34.70230503237582,226.4645616732183,-47.34584820821252L268.37710953315553,-59.98939138404924" style="mix-blend-mode: multiply;"/><path d="M-43.01947788606345,271.61429366366286L-33.95662881829991,227.3097438301861C-24.89377975053637,183.0051939967093,-6.768081615009293,94.39609432975573,32.810892170384705,16.717984581428496C72.3898659557787,-60.96012516689874,133.42211539103963,-127.70724499659967,163.9382401086701,-161.08080491145012L194.45436482630055,-194.45436482630058" style="mix-blend-mode: multiply;"/><path d="M-43.01947788606345,271.61429366366286L-38.81798793895742,227.3097438301861C-34.616497991851396,183.0051939967093,-26.213518097639355,94.39609432975574,-51.452665921012205,16.71798458142851C-76.69181374438507,-60.96012516689871,-135.57308928534283,-127.70724499659961,-165.01372705582173,-161.08080491145006L-194.4543648263006,-194.4543648263005" style="mix-blend-mode: multiply;"/><path d="M-76.72255416078805,264.08076356115936L-61.73971220187787,222.0031166380902C-46.75687024296769,179.9254697150211,-16.791186325147347,95.77017586888286,38.05965971216647,33.55410362126218C92.9105057494803,-28.661968626358487,172.64651390628754,-68.93881927546157,212.5145179846912,-89.07724460001312L252.38252206309483,-109.21566992456466" style="mix-blend-mode: multiply;"/><path d="M-76.72255416078805,264.08076356115936L-62.31598692581185,225.64157204919732C-47.909419690835655,187.2023805372353,-19.096285220883264,110.32399751331131,28.070897830644146,96.62066408045212C75.23808088217156,82.91733064759292,140.759312515274,132.38904680579856,173.5199283318252,157.12490488490138L206.2805441483764,181.8607629640042" style="mix-blend-mode: multiply;"/><path d="M-76.72255416078805,264.08076356115936L-61.53977985850211,222.61844511984668C-46.35700555621617,181.15612667853398,-15.99145695164431,98.23148979590862,41.525153664012954,44.21979730504054C99.04176427967023,-9.791895185827576,183.70943690641286,-34.89064328493841,226.0432732197842,-47.440017334493824L268.37710953315553,-59.98939138404924" style="mix-blend-mode: multiply;"/><path d="M-139.986389331352,236.70405742608457L-115.82664750758055,202.48544144327994C-91.66690568380905,168.26682546047527,-43.34742203626612,99.82959349486596,14.363733543688625,90.68904441785257C72.07488912364336,81.54849534083918,139.17771663600988,131.7046291524217,172.72913039219316,156.78269605821296L206.2805441483764,181.8607629640042" style="mix-blend-mode: multiply;"/><path d="M-139.986389331352,236.70405742608457L-118.51312879376631,203.6479857074871C-97.03986825618061,170.59191398888956,-54.09334718100919,104.47977055169457,-32.20194208353139,110.83981166410983C-10.310536986053593,117.1998527765251,-9.474247866269396,196.03207843855066,-9.056103306377297,235.4481912695634L-8.637958746485198,274.8643041005762" style="mix-blend-mode: multiply;"/><path d="M-206.28054414837635,181.8607629640043L-177.54179518573252,155.38448768324164C-148.80304622308867,128.90821240247902,-91.32554829780099,75.95566184095375,-97.78325663170513,66.45343258501559C-104.24096496560925,56.95120332907745,-174.6338795587052,90.89929537872642,-209.8303368552532,107.87334140355092L-245.02679415180114,124.8473874283754" style="mix-blend-mode: multiply;"/><path d="M-206.28054414837635,181.8607629640043L-171.12424638967056,153.07402794808635C-135.96794863096474,124.2872929321684,-65.65535311355316,66.71382290033252,13.454255833368824,26.405463842323595C92.56386478029081,-13.902895215685326,180.47048715672315,-36.94614329986728,224.42379834493934,-48.46776734195826L268.37710953315553,-59.98939138404924" style="mix-blend-mode: multiply;"/><path d="M-245.02679415180114,124.8473874283754L-207.3598045377295,109.03588566775807C-169.69281492365792,93.22438390714073,-94.3588356955147,61.601380385906054,-54.96069646129538,86.60419983127285C-15.56255722707605,111.60701927663963,-12.100257986780624,193.23566168860793,-10.369108366632911,234.04998289459206L-8.637958746485198,274.8643041005762" style="mix-blend-mode: multiply;"/><path d="M-245.02679415180114,124.8473874283754L-203.89711618423402,104.85021447420024C-162.7674382166669,84.85304152002509,-80.50808228153265,44.85869561167477,5.059234999293456,14.052565809604C90.62655228011955,-16.753563992466773,179.50183090663757,-38.371477688258004,223.93947021989655,-49.180434536153626L268.37710953315553,-59.98939138404924" style="mix-blend-mode: multiply;"/><path d="M-245.02679415180114,124.8473874283754L-207.14385556906743,109.03588566775807C-169.26091698633365,93.22438390714073,-93.49503982086617,61.601380385906054,-51.21758100448511,86.60419983127285C-8.940122188104043,111.60701927663963,-0.15108172080938922,193.23566168860793,4.243438512837938,234.04998289459206L8.637958746485264,274.8643041005762" style="mix-blend-mode: multiply;"/><path d="M-245.02679415180114,124.8473874283754L-204.0970485276098,104.23488599244381C-163.1673029034184,83.6223845565122,-81.30781165503569,42.397381684649005,1.593741047446964,3.3868721258256613C84.49529374992963,-35.623637432997675,168.43890790651224,-72.41965367878116,210.41071498480355,-90.81766180167291L252.38252206309483,-109.21566992456465" style="mix-blend-mode: multiply;"/><path d="M-245.02679415180114,124.8473874283754L-209.8303368552532,107.87334140355091C-174.6338795587052,90.89929537872642,-104.24096496560925,56.95120332907745,-97.78325663170513,66.4534325850156C-91.32554829780099,75.95566184095375,-148.80304622308867,128.90821240247902,-177.54179518573252,155.38448768324164L-206.28054414837635,181.8607629640043" style="mix-blend-mode: multiply;"/><path d="M-252.38252206309485,109.21566992456458L-210.89504310984637,94.65151368157758C-169.40756415659786,80.08735743859062,-86.43260625010087,50.95904495261664,-9.988761881522331,63.06656045918991C66.4550824870562,75.17407596576318,136.36781331771633,128.5174194648837,171.32417873304635,155.18909121444395L206.2805441483764,181.8607629640042" style="mix-blend-mode: multiply;"/><path d="M-252.38252206309485,109.21566992456458L-213.58152439603214,95.81405794578474C-174.78052672896942,82.4124459670049,-97.17853139484396,55.60922200944524,-56.554437508742346,83.21732770544718C-15.930343622640734,110.82543340144912,-12.284151184562967,192.84486875101265,-10.461054965524083,233.85458642579442L-8.637958746485198,274.8643041005762" style="mix-blend-mode: multiply;"/><path d="M-252.38252206309485,109.21566992456458L-210.31876838591236,91.01305827047048C-168.2550147087299,72.81044661637638,-84.12750735436495,36.40522330818819,-9.473903143468002e-15,-1.6579330501069005e-14C84.12750735436494,-36.40522330818822,168.25501470872987,-72.81044661637644,210.31876838591234,-91.01305827047054L252.38252206309483,-109.21566992456465" style="mix-blend-mode: multiply;"/><path d="M-271.61429366366286,43.019477886063534L-226.58564186472617,35.02211250457168C-181.55699006578945,27.02474712307983,-91.49968646791604,11.030016360096122,-4.166883846789744,-14.342508275008575C83.16591877433653,-39.71503291011327,167.7742204187157,-74.46535141733897,210.07837124090528,-91.8405106709518L252.38252206309483,-109.21566992456465" style="mix-blend-mode: multiply;"/><path d="M-271.61429366366286,43.019477886063534L-229.84839787484592,39.82311217988594C-188.08250208602894,36.62674647370835,-104.55071050839503,30.234015061353166,-60.721321355532076,68.8748194304386C-16.891932202669135,107.51562379952405,-12.764945474577168,191.18996395005013,-10.701452110531184,233.02713402531313L-8.637958746485198,274.8643041005762" style="mix-blend-mode: multiply;"/><path d="M-271.61429366366286,43.019477886063534L-227.16191658866015,38.66056791567879C-182.7095395136574,34.301657945294046,-93.80478536365194,25.58383800452457,-14.155645728312066,48.724052184181346C65.49349390702781,71.86426636383813,135.8870190277021,126.86251466392116,171.08378158803927,154.36163881396268L206.2805441483764,181.8607629640042" style="mix-blend-mode: multiply;"/><path d="M-271.61429366366286,43.019477886063534L-226.50614574723468,35.22289677778555C-181.3979978308065,27.426315669507563,-91.18170199795016,11.833153452951597,-2.78895114360436,-10.862247539301515C85.60379971074146,-33.55764853155463,172.17300558657675,-63.355288299504885,215.4576085244944,-78.25410818348003L258.742211462412,-93.15292806745515" style="mix-blend-mode: multiply;"/><path d="M-274.8643041005762,-8.63795874648518L-230.0587109914086,-9.73695300006414C-185.253117882241,-10.835947253643099,-95.64193166390585,-13.033935760801016,-17.42215350942639,-44.00333677410358C60.79762464505307,-74.97273778740615,127.6259947356768,-134.71355130685336,161.04017978098867,-164.58395806657697L194.45436482630055,-194.45436482630058" style="mix-blend-mode: multiply;"/><path d="M-274.8643041005762,-8.63795874648518L-229.13467668257292,-8.056140832035998C-183.40504926456967,-7.474322917586814,-91.94579442856309,-6.310687088688449,-1.405558822941136,-14.869259194949125C89.13467678268081,-23.427831301209803,178.75589315791817,-41.708611342629524,223.56650134553686,-50.84900136333939L268.37710953315553,-59.98939138404924" style="mix-blend-mode: multiply;"/><path d="M-274.8643041005762,-8.63795874648518L-229.25511290845722,-8.470685040578571C-183.64592171633822,-8.303411334671962,-92.42753933210027,-7.968863922858745,-3.4931200716022395,-22.054692143020407C85.4412991888958,-36.14052036318207,172.0917553256539,-64.64672421531861,215.41698339403297,-78.89982614138688L258.742211462412,-93.15292806745515" style="mix-blend-mode: multiply;"/><path d="M-268.37710953315553,-59.9893913840493L-223.64759127762963,-51.49089427130898C-178.9180730221037,-42.99239715856866,-89.45903651105185,-25.99540293308803,0,-25.99540293308802C89.45903651105185,-25.995402933088013,178.9180730221037,-42.99239715856862,223.64759127762963,-51.490894271308925L268.37710953315553,-59.98939138404924" style="mix-blend-mode: multiply;"/><path d="M-268.37710953315553,-59.9893913840493L-227.1102796311251,-47.30522307775117C-185.84344972909471,-34.621054771453025,-103.30978992503388,-9.252718158856752,-60.01993146058883,46.55623108858083C-16.73007299614377,102.36518033601841,-12.684015871314486,188.61474221829732,-10.660987308899841,231.73952315943674L-8.637958746485198,274.8643041005762" style="mix-blend-mode: multiply;"/><path d="M-194.4543648263006,-194.45436482630052L-162.0453040219172,-166.90666314257462C-129.63624321753375,-139.3589614588487,-64.81812160876687,-84.26355809139689,-1.4210854715202004e-14,-84.26355809139692C64.81812160876684,-84.26355809139692,129.6362432175337,-139.35896145884874,162.04530402191713,-166.90666314257467L194.45436482630055,-194.45436482630058" style="mix-blend-mode: multiply;"/><path d="M-194.4543648263006,-194.45436482630052L-161.89747678039123,-162.20272404519582C-129.34058873448183,-129.9510832640911,-64.22681264266308,-65.44780170188166,2.5623388531164246,-2.7286137368308707C69.35149034889592,59.99057422821992,137.81601724863617,120.92566859611206,172.04828069850632,151.3932157800581L206.2805441483764,181.8607629640042" style="mix-blend-mode: multiply;"/><path d="M-194.4543648263006,-194.45436482630052L-165.01372705582173,-161.0808049114501C-135.57308928534283,-127.70724499659963,-76.69181374438507,-60.96012516689873,-51.452665921012205,16.717984581428507C-26.213518097639355,94.39609432975574,-34.616497991851396,183.0051939967093,-38.81798793895742,227.3097438301861L-43.01947788606345,271.61429366366286" style="mix-blend-mode: multiply;"/><path d="M-181.86076296400438,-206.28054414837626L-151.24538853853232,-172.20570072178486C-120.63001411306028,-138.13085729519347,-59.39926526211619,-69.9811704420107,5.290952589947271,-5.290952589947281C69.98117044201074,59.39926526211613,138.13085729519358,120.63001411306017,172.20570072178498,151.24538853853218L206.2805441483764,181.8607629640042" style="mix-blend-mode: multiply;"/><path d="M-181.86076296400438,-206.28054414837626L-153.93186982471812,-171.04315645757768C-126.00297668543182,-135.80576876677918,-70.14519040685927,-65.33099338518208,-41.27472303727274,14.859814656309984C-12.404255667686213,95.05062269780205,-10.521107207085706,184.95746339918912,-9.579532976785451,229.9108837498827L-8.637958746485198,274.8643041005762" style="mix-blend-mode: multiply;"/><path d="M-181.86076296400438,-206.28054414837626L-150.66911381459835,-175.84415613289195C-119.47746466519233,-145.4077681174077,-57.09416636638027,-84.53499208643915,15.279714471469598,-68.3575130491372C87.65359530931947,-52.18003401183527,170.01805868620713,-80.69785196819996,211.200290374651,-94.9567609463823L252.38252206309483,-109.21566992456465" style="mix-blend-mode: multiply;"/><path d="M-181.86076296400438,-206.28054414837626L-151.89173372902033,-177.3220497329037C-121.9227044940363,-148.3635553174312,-61.98464602406821,-90.44656648648613,-5.91236404517817,-93.97433544934084C50.15991793371188,-97.50210441219554,102.36642342152389,-162.47463116885004,128.4696761654299,-194.96089454717728L154.5729289093359,-227.4471579255045" style="mix-blend-mode: multiply;"/><path d="M-109.2156699245646,-252.38252206309485L-89.94757458419879,-215.9042294720298C-70.679479243833,-179.42593688096477,-32.1432885631014,-106.46935169883473,18.468383895376125,-96.81465882603567C69.08005635385365,-87.15996595323664,131.7672105900771,-140.80716538976858,163.11078770818884,-167.63076510803458L194.45436482630055,-194.45436482630058" style="mix-blend-mode: multiply;"/><path d="M-109.2156699245646,-252.38252206309485L-92.48622862885863,-210.03774611044386C-75.75678733315264,-167.69297015779287,-42.29790474174069,-83.00341825249089,-25.534952878727456,4.871052774787624C-8.772001015714224,92.74552380206613,-8.70497988109971,183.80491395132117,-8.671469313792455,229.33460902594868L-8.637958746485198,274.8643041005762" style="mix-blend-mode: multiply;"/></g></svg>