<svg class="plot-d6a7b5" fill="currentColor" font-family="system-ui, sans-serif" font-size="10" text-anchor="middle" width="1200" height="180" viewBox="0 0 1200 180" xmlns="http://www.w3.org/2000/svg" xmlns:xlink="http://www.w3.org/1999/xlink"><style>.plot-d6a7b5 {
  display: block;
  background: white;
  height: auto;
  height: intrinsic;
  max-width: 100%;
}
.plot-d6a7b5 text,
.plot-d6a7b5 tspan {
  white-space: pre;
}</style><g aria-label="y-grid" stroke="currentColor" stroke-opacity="0.1"><line x1="100" x2="1180" y1="33" y2="33"/><line x1="100" x2="1180" y1="54" y2="54"/><line x1="100" x2="1180" y1="75" y2="75"/><line x1="100" x2="1180" y1="96" y2="96"/><line x1="100" x2="1180" y1="117" y2="117"/><line x1="100" x2="1180" y1="138" y2="138"/></g><g aria-label="y-axis tick label" text-anchor="end" transform="translate(-9,0)"><text y="0.32em" transform="translate(100,33)">benfry</text><text y="0.32em" transform="translate(100,54)">Casey Reas</text><text y="0.32em" transform="translate(100,75)">dmose</text><text y="0.32em" transform="translate(100,96)">juniperoserra</text><text y="0.32em" transform="translate(100,117)">rocha</text><text y="0.32em" transform="translate(100,138)">postspectacular</text></g><g aria-label="x-grid" stroke="currentColor" stroke-opacity="0.1"><line x1="164.66319091889665" x2="164.66319091889665" y1="20" y2="150"/><line x1="264.95943312315063" x2="264.95943312315063" y1="20" y2="150"/><line x1="363.07532223600776" x2="363.07532223600776" y1="20" y2="150"/><line x1="462.2813878945634" x2="462.2813878945634" y1="20" y2="150"/><line x1="562.5776300988173" x2="562.5776300988173" y1="20" y2="150"/><line x1="662.8738723030713" x2="662.8738723030713" y1="20" y2="150"/><line x1="762.0799379616269" x2="762.0799379616269" y1="20" y2="150"/><line x1="861.2860036201824" x2="861.2860036201824" y1="20" y2="150"/><line x1="961.5822458244365" x2="961.5822458244365" y1="20" y2="150"/><line x1="1061.8784880286903" x2="1061.8784880286903" y1="20" y2="150"/><line x1="1159.9943771415476" x2="1159.9943771415476" y1="20" y2="150"/></g><g aria-label="x-axis tick" fill="none" stroke="currentColor"><path transform="translate(164.66319091889665,150)" d="M0,0L0,6"/><path transform="translate(264.95943312315063,150)" d="M0,0L0,6"/><path transform="translate(363.07532223600776,150)" d="M0,0L0,6"/><path transform="translate(462.2813878945634,150)" d="M0,0L0,6"/><path transform="translate(562.5776300988173,150)" d="M0,0L0,6"/><path transform="translate(662.8738723030713,150)" d="M0,0L0,6"/><path transform="translate(762.0799379616269,150)" d="M0,0L0,6"/><path transform="translate(861.2860036201824,150)" d="M0,0L0,6"/><path transform="translate(961.5822458244365,150)" d="M0,0L0,6"/><path transform="translate(1061.8784880286903,150)" d="M0,0L0,6"/><path transform="translate(1159.9943771415476,150)" d="M0,0L0,6"/></g><g aria-label="x-axis tick label" font-variant="tabular-nums" transform="translate(0,9)"><text transform="translate(164.66319091889665,150)"><tspan x="0" y="0.71em">Oct</tspan><tspan x="0" dy="1em">2002</tspan></text><text transform="translate(264.95943312315063,150)"><tspan x="0" y="0.71em">Jan</tspan><tspan x="0" dy="1em">2003</tspan></text><text y="0.71em" transform="translate(363.07532223600776,150)">Apr</text><text y="0.71em" transform="translate(462.2813878945634,150)">Jul</text><text y="0.71em" transform="translate(562.5776300988173,150)">Oct</text><text transform="translate(662.8738723030713,150)"><tspan x="0" y="0.71em">Jan</tspan><tspan x="0" dy="1em">2004</tspan></text><text y="0.71em" transform="translate(762.0799379616269,150)">Apr</text><text y="0.71em" transform="translate(861.2860036201824,150)">Jul</text><text y="0.71em" transform="translate(961.5822458244365,150)">Oct</text><text transform="translate(1061.8784880286903,150)"><tspan x="0" y="0.71em">Jan</tspan><tspan x="0" dy="1em">2005</tspan></text><text y="0.71em" transform="translate(1159.9943771415476,150)">Apr</text></g><g aria-label="dot" fill="none" stroke="currentColor" stroke-width="0.5"><circle cx="1180" cy="33" r="3"/><circle cx="1179.9890099100544" cy="54" r="3"/><circle cx="1179.9596609442524" cy="96" r="3"/><circle cx="1179.9539198524897" cy="33" r="3"/><circle cx="1179.940772121464" cy="96" r="3"/><circle cx="1179.9256181627673" cy="33" r="3"/><circle cx="1179.909934257139" cy="33" r="3"/><circle cx="1179.8675889737203" cy="33" r="3"/><circle cx="1179.863349398265" cy="33" r="3"/><circle cx="1179.8551352208199" cy="33" r="3"/><circle cx="1179.835766922236" cy="33" r="3"/><circle cx="1179.8243099742788" cy="33" r="3"/><circle cx="1179.8125754350717" cy="33" r="3"/><circle cx="1179.788538556373" cy="33" r="3"/><circle cx="1179.754975250684" cy="33" r="3"/><circle cx="1179.734786796134" cy="33" r="3"/><circle cx="1179.6702089771422" cy="33" r="3"/><circle cx="1179.6272706578711" cy="33" r="3"/><circle cx="1179.6140850734932" cy="33" r="3"/><circle cx="1179.5907421729198" cy="33" r="3"/><circle cx="1179.5088401363673" cy="96" r="3"/><circle cx="1179.4867590142032" cy="33" r="3"/><circle cx="1179.4156578008353" cy="96" r="3"/><circle cx="1179.3862205105445" cy="33" r="3"/><circle cx="1179.309807210073" cy="33" r="3"/><circle cx="1179.2793857326228" cy="33" r="3"/><circle cx="1179.1561352175952" cy="96" r="3"/><circle cx="1178.5377250013776" cy="33" r="3"/><circle cx="1178.5144578075085" cy="33" r="3"/><circle cx="1178.5115304815988" cy="33" r="3"/><circle cx="1178.3584893783259" cy="54" r="3"/><circle cx="1178.3580477558828" cy="54" r="3"/><circle cx="1178.2994633843355" cy="33" r="3"/><circle cx="1178.2806250326837" cy="33" r="3"/><circle cx="1178.2572064254055" cy="96" r="3"/><circle cx="1178.192767402039" cy="33" r="3"/><circle cx="1178.154964520894" cy="33" r="3"/><circle cx="1178.1391418196406" cy="33" r="3"/><circle cx="1178.1383721348107" cy="33" r="3"/><circle cx="1177.4784241733564" cy="33" r="3"/><circle cx="1177.4355741785741" cy="54" r="3"/><circle cx="1177.4341231334033" cy="54" r="3"/><circle cx="1177.4106919083413" cy="54" r="3"/><circle cx="1177.3996639650431" cy="33" r="3"/><circle cx="1177.359640353898" cy="33" r="3"/><circle cx="1177.3293198187207" cy="33" r="3"/><circle cx="1177.2842617117221" cy="33" r="3"/><circle cx="1177.2731328261514" cy="33" r="3"/><circle cx="1177.2705461804123" cy="33" r="3"/><circle cx="1177.2701802646734" cy="33" r="3"/><circle cx="1176.7626046639348" cy="33" r="3"/><circle cx="1176.7519426363756" cy="33" r="3"/><circle cx="1176.5274848751324" cy="33" r="3"/><circle cx="1176.5243682824612" cy="33" r="3"/><circle cx="1176.5148418554704" cy="33" r="3"/><circle cx="1176.4782628993826" cy="33" r="3"/><circle cx="1176.4734050525065" cy="33" r="3"/><circle cx="1176.456774813071" cy="33" r="3"/><circle cx="1176.4562827194914" cy="33" r="3"/><circle cx="1176.4183158071535" cy="33" r="3"/><circle cx="1175.0776888649787" cy="33" r="3"/><circle cx="1174.3287476723108" cy="33" r="3"/><circle cx="1174.2966858829288" cy="33" r="3"/><circle cx="1174.168287311991" cy="33" r="3"/><circle cx="1174.1635304073875" cy="33" r="3"/><circle cx="1174.1598838677846" cy="33" r="3"/><circle cx="1172.9095624063684" cy="33" r="3"/><circle cx="1170.0987617327282" cy="33" r="3"/><circle cx="1168.8367688210255" cy="33" r="3"/><circle cx="1168.82981642199" cy="33" r="3"/><circle cx="1168.7785377474331" cy="33" r="3"/><circle cx="1168.021432848457" cy="54" r="3"/><circle cx="1167.8879366927451" cy="33" r="3"/><circle cx="1167.4235012958231" cy="54" r="3"/><circle cx="1166.8331277958616" cy="33" r="3"/><circle cx="1166.576583009668" cy="33" r="3"/><circle cx="1166.505002320504" cy="33" r="3"/><circle cx="1166.4214725898034" cy="96" r="3"/><circle cx="1166.3404537981378" cy="33" r="3"/><circle cx="1166.3069661991528" cy="33" r="3"/><circle cx="1166.3060072475616" cy="33" r="3"/><circle cx="1166.3007582493788" cy="33" r="3"/><circle cx="1166.2424009979452" cy="33" r="3"/><circle cx="1166.2350195942504" cy="33" r="3"/><circle cx="1165.857773085416" cy="54" r="3"/><circle cx="1165.8309350586487" cy="54" r="3"/><circle cx="1165.7330336718653" cy="33" r="3"/><circle cx="1165.6628157033838" cy="33" r="3"/><circle cx="1165.4513037886204" cy="33" r="3"/><circle cx="1164.4219828156063" cy="33" r="3"/><circle cx="1164.3829560094043" cy="33" r="3"/><circle cx="1164.3795870610513" cy="33" r="3"/><circle cx="1164.3049276325687" cy="33" r="3"/><circle cx="1164.0573414730814" cy="33" r="3"/><circle cx="1164.0490389711476" cy="33" r="3"/><circle cx="1164.0378469966568" cy="33" r="3"/><circle cx="1161.2611900467741" cy="33" r="3"/><circle cx="1161.239525311485" cy="33" r="3"/><circle cx="1161.237039608019" cy="54" r="3"/><circle cx="1161.228181923585" cy="33" r="3"/><circle cx="1161.2080944113077" cy="33" r="3"/><circle cx="1161.1739633053342" cy="33" r="3"/><circle cx="1161.1644621139114" cy="33" r="3"/><circle cx="1161.1598440049333" cy="54" r="3"/><circle cx="1161.1507213470336" cy="33" r="3"/><circle cx="1161.1251577164596" cy="54" r="3"/><circle cx="1161.1206657853222" cy="33" r="3"/><circle cx="1160.177637837725" cy="33" r="3"/><circle cx="1159.3024430974156" cy="33" r="3"/><circle cx="1159.2794408770126" cy="33" r="3"/><circle cx="1159.2666716795097" cy="33" r="3"/><circle cx="1159.254041277632" cy="33" r="3"/><circle cx="1159.225121316489" cy="33" r="3"/><circle cx="1158.252630843033" cy="33" r="3"/><circle cx="1158.2137933035924" cy="33" r="3"/><circle cx="1155.8874650680154" cy="33" r="3"/><circle cx="1155.6914099387668" cy="33" r="3"/><circle cx="1155.5520338956674" cy="33" r="3"/><circle cx="1153.1534562283694" cy="33" r="3"/><circle cx="1148.817935142627" cy="33" r="3"/><circle cx="1148.7071888516364" cy="33" r="3"/><circle cx="1148.6867732769726" cy="33" r="3"/><circle cx="1128.3018724464469" cy="33" r="3"/><circle cx="1128.2959799412752" cy="33" r="3"/><circle cx="1127.1198258147617" cy="33" r="3"/><circle cx="1127.0893664839596" cy="33" r="3"/><circle cx="1127.0253438474679" cy="33" r="3"/><circle cx="1126.8380076070284" cy="33" r="3"/><circle cx="1126.8225508215137" cy="33" r="3"/><circle cx="1126.100094357659" cy="33" r="3"/><circle cx="1126.0802970544157" cy="33" r="3"/><circle cx="1126.0186087079815" cy="33" r="3"/><circle cx="1126.0022434420118" cy="33" r="3"/><circle cx="1125.3987095932405" cy="33" r="3"/><circle cx="1125.386117044715" cy="33" r="3"/><circle cx="1125.254627116674" cy="33" r="3"/><circle cx="1125.2228807718943" cy="33" r="3"/><circle cx="1125.1819991514305" cy="33" r="3"/><circle cx="1125.1334333004538" cy="33" r="3"/><circle cx="1125.0726155811221" cy="33" r="3"/><circle cx="1125.0318601384995" cy="33" r="3"/><circle cx="1124.994511497582" cy="33" r="3"/><circle cx="1124.9420846046726" cy="33" r="3"/><circle cx="1124.913480088132" cy="33" r="3"/><circle cx="1123.9908046262778" cy="33" r="3"/><circle cx="1111.77415250667" cy="33" r="3"/><circle cx="1111.7232145122837" cy="33" r="3"/><circle cx="1111.714407298986" cy="33" r="3"/><circle cx="1111.2002199793826" cy="33" r="3"/><circle cx="1111.1789716309688" cy="33" r="3"/><circle cx="1111.1596664213052" cy="33" r="3"/><circle cx="1110.7444656179168" cy="33" r="3"/><circle cx="1110.7377277212108" cy="33" r="3"/><circle cx="1110.6852125038129" cy="33" r="3"/><circle cx="1110.6741214715944" cy="33" r="3"/><circle cx="1110.648898521191" cy="33" r="3"/><circle cx="1110.6191205507298" cy="33" r="3"/><circle cx="1110.5975062865773" cy="33" r="3"/><circle cx="1110.0903849260662" cy="33" r="3"/><circle cx="1110.0661587806062" cy="33" r="3"/><circle cx="1109.8600977485712" cy="33" r="3"/><circle cx="1109.784403661793" cy="33" r="3"/><circle cx="1108.567733830555" cy="33" r="3"/><circle cx="1106.797534428909" cy="33" r="3"/><circle cx="1106.7721348295283" cy="33" r="3"/><circle cx="1106.705083924854" cy="33" r="3"/><circle cx="1106.6999737222961" cy="33" r="3"/><circle cx="1103.0051963306175" cy="33" r="3"/><circle cx="1102.8680283997344" cy="33" r="3"/><circle cx="1102.0752908784777" cy="33" r="3"/><circle cx="1101.9874963367533" cy="33" r="3"/><circle cx="1101.4088321404308" cy="33" r="3"/><circle cx="1101.0742463596175" cy="33" r="3"/><circle cx="1101.0354466735291" cy="33" r="3"/><circle cx="1101.0303869421077" cy="33" r="3"/><circle cx="1100.8386597128035" cy="33" r="3"/><circle cx="1100.8123011618316" cy="33" r="3"/><circle cx="1100.1988749703307" cy="33" r="3"/><circle cx="1100.1981809922056" cy="33" r="3"/><circle cx="1100.112228646959" cy="33" r="3"/><circle cx="1100.084772348771" cy="33" r="3"/><circle cx="1100.0827787388841" cy="33" r="3"/><circle cx="1100.0720788579729" cy="33" r="3"/><circle cx="1099.7549939436974" cy="33" r="3"/><circle cx="1099.7441047960244" cy="33" r="3"/><circle cx="1099.1852379029447" cy="33" r="3"/><circle cx="1099.1191964209984" cy="33" r="3"/><circle cx="1099.1080927709957" cy="33" r="3"/><circle cx="1099.0620378590538" cy="33" r="3"/><circle cx="1099.0486377723462" cy="33" r="3"/><circle cx="1096.717603103302" cy="33" r="3"/><circle cx="1096.3427792090135" cy="33" r="3"/><circle cx="1095.8785330788528" cy="33" r="3"/><circle cx="1095.8635052979973" cy="33" r="3"/><circle cx="1094.5036740884316" cy="33" r="3"/><circle cx="1094.4025173133523" cy="33" r="3"/><circle cx="1094.3857230427236" cy="33" r="3"/><circle cx="1094.3818998541428" cy="33" r="3"/><circle cx="1094.37205798255" cy="33" r="3"/><circle cx="1094.3570554372627" cy="33" r="3"/><circle cx="1094.3446521554986" cy="33" r="3"/><circle cx="1094.2582708055927" cy="33" r="3"/><circle cx="1093.6669005006877" cy="33" r="3"/><circle cx="1093.6616010313683" cy="33" r="3"/><circle cx="1093.6596452748338" cy="33" r="3"/><circle cx="1093.262450049347" cy="33" r="3"/><circle cx="1050.1591153980007" cy="33" r="3"/><circle cx="1050.1291860141303" cy="33" r="3"/><circle cx="1048.9835164539875" cy="33" r="3"/><circle cx="1048.9014882395943" cy="33" r="3"/><circle cx="1048.870511579644" cy="33" r="3"/><circle cx="1048.8152078319613" cy="33" r="3"/><circle cx="1048.7354129653527" cy="33" r="3"/><circle cx="1048.5958855088443" cy="33" r="3"/><circle cx="1047.721801133535" cy="33" r="3"/><circle cx="1043.096954258523" cy="33" r="3"/><circle cx="1041.484363597992" cy="33" r="3"/><circle cx="1041.3175060211363" cy="33" r="3"/><circle cx="1041.0852757048913" cy="33" r="3"/><circle cx="1040.9700627183313" cy="33" r="3"/><circle cx="1040.9683340819106" cy="33" r="3"/><circle cx="1040.0572669814228" cy="33" r="3"/><circle cx="1038.8616057607007" cy="33" r="3"/><circle cx="1038.1299635500256" cy="33" r="3"/><circle cx="1037.8574698847376" cy="33" r="3"/><circle cx="1037.7476446919857" cy="33" r="3"/><circle cx="1037.6665880469675" cy="33" r="3"/><circle cx="1037.0366830294402" cy="33" r="3"/><circle cx="1013.5934836902757" cy="33" r="3"/><circle cx="1012.5197481172514" cy="33" r="3"/><circle cx="1011.7690025814585" cy="33" r="3"/><circle cx="1011.6074697094905" cy="33" r="3"/><circle cx="1011.6027001871031" cy="33" r="3"/><circle cx="1011.5732376612442" cy="33" r="3"/><circle cx="1009.857130700008" cy="33" r="3"/><circle cx="1009.6999888169048" cy="33" r="3"/><circle cx="1006.032692958982" cy="33" r="3"/><circle cx="1006.0149271189781" cy="33" r="3"/><circle cx="1005.1029389202513" cy="33" r="3"/><circle cx="1005.089829042578" cy="33" r="3"/><circle cx="1004.2730041714861" cy="33" r="3"/><circle cx="1004.2683986802919" cy="33" r="3"/><circle cx="1004.2305705635789" cy="33" r="3"/><circle cx="1004.2215109945996" cy="33" r="3"/><circle cx="1003.932816094535" cy="33" r="3"/><circle cx="1003.9325511210692" cy="33" r="3"/><circle cx="999.5675675094676" cy="33" r="3"/><circle cx="999.5663183488424" cy="33" r="3"/><circle cx="993.0908967875075" cy="33" r="3"/><circle cx="983.297237747419" cy="33" r="3"/><circle cx="983.28364839395" cy="33" r="3"/><circle cx="983.283105829234" cy="33" r="3"/><circle cx="976.9152634950823" cy="33" r="3"/><circle cx="973.3357747966678" cy="33" r="3"/><circle cx="972.2784549607495" cy="33" r="3"/><circle cx="972.2339268006829" cy="33" r="3"/><circle cx="972.1861432523198" cy="33" r="3"/><circle cx="971.4625007167602" cy="33" r="3"/><circle cx="971.4504507329508" cy="33" r="3"/><circle cx="971.4404448301643" cy="33" r="3"/><circle cx="971.3759427178773" cy="33" r="3"/><circle cx="971.3468839611094" cy="33" r="3"/><circle cx="971.3104564184308" cy="33" r="3"/><circle cx="971.3062294607594" cy="33" r="3"/><circle cx="971.2250718734684" cy="33" r="3"/><circle cx="971.2045553565321" cy="33" r="3"/><circle cx="971.1818433451633" cy="33" r="3"/><circle cx="971.0573689050788" cy="33" r="3"/><circle cx="971.003566673703" cy="33" r="3"/><circle cx="969.1914509932976" cy="33" r="3"/><circle cx="969.189343823354" cy="33" r="3"/><circle cx="966.154956015573" cy="33" r="3"/><circle cx="966.1507669112539" cy="33" r="3"/><circle cx="966.1040180211866" cy="33" r="3"/><circle cx="966.0826939660681" cy="33" r="3"/><circle cx="963.7038378953089" cy="54" r="3"/><circle cx="963.5528030197069" cy="54" r="3"/><circle cx="963.5007672781043" cy="33" r="3"/><circle cx="962.294305234198" cy="33" r="3"/><circle cx="961.0639703427864" cy="33" r="3"/><circle cx="961.0632637468772" cy="33" r="3"/><circle cx="960.6676457444022" cy="33" r="3"/><circle cx="960.6374135337137" cy="33" r="3"/><circle cx="960.6199000493916" cy="33" r="3"/><circle cx="960.5908791459759" cy="54" r="3"/><circle cx="960.5356889583501" cy="33" r="3"/><circle cx="959.6796227787268" cy="33" r="3"/><circle cx="959.559021998359" cy="33" r="3"/><circle cx="959.5396536997749" cy="33" r="3"/><circle cx="959.48946015465" cy="33" r="3"/><circle cx="958.7237120735698" cy="54" r="3"/><circle cx="958.643109668779" cy="33" r="3"/><circle cx="958.6336210951406" cy="54" r="3"/><circle cx="958.5983670063825" cy="33" r="3"/><circle cx="958.587528329846" cy="54" r="3"/><circle cx="958.5800459838786" cy="33" r="3"/><circle cx="958.5460915268822" cy="33" r="3"/><circle cx="958.4888698760172" cy="33" r="3"/><circle cx="958.483179255391" cy="33" r="3"/><circle cx="958.3413427443932" cy="33" r="3"/><circle cx="958.2529173134644" cy="33" r="3"/><circle cx="958.2149630189105" cy="33" r="3"/><circle cx="958.1815637444142" cy="33" r="3"/><circle cx="958.1779172048114" cy="33" r="3"/><circle cx="958.171822815094" cy="33" r="3"/><circle cx="958.1623847125918" cy="33" r="3"/><circle cx="958.1572997456021" cy="33" r="3"/><circle cx="958.1539938861696" cy="33" r="3"/><circle cx="958.1010370463281" cy="33" r="3"/><circle cx="958.0839020955289" cy="33" r="3"/><circle cx="958.0136967448313" cy="33" r="3"/><circle cx="957.4512464010692" cy="33" r="3"/><circle cx="957.4324332849853" cy="33" r="3"/><circle cx="957.4322566360081" cy="33" r="3"/><circle cx="957.4178723621412" cy="33" r="3"/><circle cx="957.389835645885" cy="33" r="3"/><circle cx="957.2410593536357" cy="33" r="3"/><circle cx="957.1833203736229" cy="33" r="3"/><circle cx="957.1064402151399" cy="33" r="3"/><circle cx="957.0631612156983" cy="33" r="3"/><circle cx="957.0475403989902" cy="33" r="3"/><circle cx="957.0338501032485" cy="33" r="3"/><circle cx="955.9029559682797" cy="33" r="3"/><circle cx="955.8264417255352" cy="33" r="3"/><circle cx="954.2723344942784" cy="33" r="3"/><circle cx="954.195681455909" cy="33" r="3"/><circle cx="952.7269587696146" cy="33" r="3"/><circle cx="952.7068586395534" cy="33" r="3"/><circle cx="952.0599700846359" cy="33" r="3"/><circle cx="951.7052841737611" cy="33" r="3"/><circle cx="951.5573911263984" cy="33" r="3"/><circle cx="951.5560410235005" cy="33" r="3"/><circle cx="951.3279493404381" cy="33" r="3"/><circle cx="950.8312124162361" cy="33" r="3"/><circle cx="950.825143262087" cy="33" r="3"/><circle cx="950.7817507025886" cy="33" r="3"/><circle cx="950.762432875141" cy="33" r="3"/><circle cx="950.7612215678681" cy="33" r="3"/><circle cx="950.7472536808764" cy="33" r="3"/><circle cx="950.6471315640925" cy="33" r="3"/><circle cx="950.6447972740352" cy="33" r="3"/><circle cx="950.6398511026705" cy="33" r="3"/><circle cx="950.6354474960218" cy="33" r="3"/><circle cx="949.305469963622" cy="33" r="3"/><circle cx="944.1860816588404" cy="33" r="3"/><circle cx="943.4143653658838" cy="54" r="3"/><circle cx="943.3503932005285" cy="54" r="3"/><circle cx="943.3326273605246" cy="54" r="3"/><circle cx="943.3231514046702" cy="54" r="3"/><circle cx="942.921300216853" cy="33" r="3"/><circle cx="942.8877747645158" cy="33" r="3"/><circle cx="942.7067600339072" cy="33" r="3"/><circle cx="942.1536468503745" cy="33" r="3"/><circle cx="941.9117134581612" cy="33" r="3"/><circle cx="941.8431862727482" cy="33" r="3"/><circle cx="939.7446847467673" cy="33" r="3"/><circle cx="934.2567309686078" cy="33" r="3"/><circle cx="934.167624177338" cy="33" r="3"/><circle cx="932.0744978273812" cy="33" r="3"/><circle cx="932.0638610353901" cy="33" r="3"/><circle cx="931.9550831187181" cy="33" r="3"/><circle cx="931.86595109188" cy="33" r="3"/><circle cx="931.8652571137548" cy="33" r="3"/><circle cx="931.8153790132324" cy="33" r="3"/><circle cx="930.9404618641729" cy="33" r="3"/><circle cx="930.9302288412729" cy="33" r="3"/><circle cx="930.9218632504187" cy="33" r="3"/><circle cx="930.9208790632595" cy="33" r="3"/><circle cx="890.296938986331" cy="33" r="3"/><circle cx="889.5543571568468" cy="33" r="3"/><circle cx="888.3352268577106" cy="33" r="3"/><circle cx="879.6332206440593" cy="33" r="3"/><circle cx="879.5989002713244" cy="33" r="3"/><circle cx="878.9980918639174" cy="33" r="3"/><circle cx="878.9568569454989" cy="33" r="3"/><circle cx="878.9027897406572" cy="33" r="3"/><circle cx="878.823196758594" cy="33" r="3"/><circle cx="878.7851541395514" cy="33" r="3"/><circle cx="878.7365756707907" cy="33" r="3"/><circle cx="877.9354220875432" cy="33" r="3"/><circle cx="877.9027798800927" cy="33" r="3"/><circle cx="877.8936319866249" cy="33" r="3"/><circle cx="877.8206128700742" cy="33" r="3"/><circle cx="877.820158629847" cy="33" r="3"/><circle cx="877.3944724478768" cy="33" r="3"/><circle cx="877.3368596457047" cy="33" r="3"/><circle cx="877.2310090549424" cy="33" r="3"/><circle cx="877.218694097667" cy="33" r="3"/><circle cx="877.1725887145884" cy="33" r="3"/><circle cx="877.1696235353265" cy="33" r="3"/><circle cx="875.1628785352754" cy="33" r="3"/><circle cx="874.5976775145808" cy="33" r="3"/><circle cx="874.5197374622337" cy="33" r="3"/><circle cx="874.5119144360956" cy="33" r="3"/><circle cx="874.2886805999093" cy="33" r="3"/><circle cx="874.2827376236012" cy="33" r="3"/><circle cx="874.2822581478057" cy="33" r="3"/><circle cx="874.2711671155872" cy="33" r="3"/><circle cx="874.2699431905301" cy="33" r="3"/><circle cx="874.1909810976715" cy="33" r="3"/><circle cx="874.1900852350009" cy="33" r="3"/><circle cx="874.1889117810802" cy="33" r="3"/><circle cx="874.0500656849127" cy="33" r="3"/><circle cx="873.5044979362679" cy="54" r="3"/><circle cx="872.1175511086849" cy="33" r="3"/><circle cx="872.1172608996508" cy="33" r="3"/><circle cx="872.0680010705488" cy="54" r="3"/><circle cx="871.9786040702447" cy="33" r="3"/><circle cx="871.3772657159058" cy="33" r="3"/><circle cx="871.3191860557223" cy="33" r="3"/><circle cx="871.2824556862254" cy="33" r="3"/><circle cx="871.2371830768973" cy="33" r="3"/><circle cx="871.2369181034311" cy="33" r="3"/><circle cx="871.2365269521243" cy="33" r="3"/><circle cx="871.1136675884037" cy="33" r="3"/><circle cx="871.0905518079438" cy="33" r="3"/><circle cx="871.0891764694777" cy="33" r="3"/><circle cx="871.0411405654328" cy="33" r="3"/><circle cx="870.2099692738266" cy="33" r="3"/><circle cx="870.0579249754969" cy="33" r="3"/><circle cx="870.0562720457807" cy="33" r="3"/><circle cx="869.9642505463851" cy="33" r="3"/><circle cx="869.9002405276776" cy="33" r="3"/><circle cx="869.8837238482988" cy="33" r="3"/><circle cx="869.8734908253988" cy="33" r="3"/><circle cx="869.6746219302976" cy="33" r="3"/><circle cx="869.6701804702966" cy="33" r="3"/><circle cx="869.2024770672942" cy="33" r="3"/><circle cx="869.150340383419" cy="33" r="3"/><circle cx="869.0816744023808" cy="33" r="3"/><circle cx="868.9922395487245" cy="33" r="3"/><circle cx="868.9423993015542" cy="33" r="3"/><circle cx="868.8254702963577" cy="33" r="3"/><circle cx="868.7683495877653" cy="33" r="3"/><circle cx="868.6948636132033" cy="33" r="3"/><circle cx="868.6019841044895" cy="33" r="3"/><circle cx="867.8323749814764" cy="33" r="3"/><circle cx="867.8069501465275" cy="33" r="3"/><circle cx="853.5185083498652" cy="33" r="3"/><circle cx="852.3151124274939" cy="33" r="3"/><circle cx="852.2458534106033" cy="33" r="3"/><circle cx="852.2132995276415" cy="33" r="3"/><circle cx="851.6960460865032" cy="33" r="3"/><circle cx="851.6212100090432" cy="33" r="3"/><circle cx="851.6073304465401" cy="33" r="3"/><circle cx="851.5857035646035" cy="33" r="3"/><circle cx="851.5497807332886" cy="33" r="3"/><circle cx="851.5124699457235" cy="33" r="3"/><circle cx="851.4880797690703" cy="33" r="3"/><circle cx="851.4765849677608" cy="33" r="3"/><circle cx="851.4506554214482" cy="33" r="3"/><circle cx="851.3842984948993" cy="33" r="3"/><circle cx="851.3712517061465" cy="33" r="3"/><circle cx="851.2801008338533" cy="33" r="3"/><circle cx="851.1782374628646" cy="33" r="3"/><circle cx="851.1666417192824" cy="33" r="3"/><circle cx="851.1482197545056" cy="33" r="3"/><circle cx="851.1425669872316" cy="33" r="3"/><circle cx="850.4907322609494" cy="33" r="3"/><circle cx="850.3788882227426" cy="33" r="3"/><circle cx="850.3605419646703" cy="33" r="3"/><circle cx="850.2453289781105" cy="33" r="3"/><circle cx="850.0767806181864" cy="33" r="3"/><circle cx="840.2702388205381" cy="33" r="3"/><circle cx="812.0876483623589" cy="33" r="3"/><circle cx="812.0399152851323" cy="33" r="3"/><circle cx="812.0359406831427" cy="33" r="3"/><circle cx="811.9865168228475" cy="33" r="3"/><circle cx="811.9453702289179" cy="33" r="3"/><circle cx="804.8016224974904" cy="33" r="3"/><circle cx="804.7773837342463" cy="33" r="3"/><circle cx="804.4560213911631" cy="33" r="3"/><circle cx="804.4440092607058" cy="33" r="3"/><circle cx="804.4058656993905" cy="33" r="3"/><circle cx="777.0271668836068" cy="33" r="3"/><circle cx="722.6288840051313" cy="33" r="3"/><circle cx="715.8791896709511" cy="33" r="3"/><circle cx="715.8515567237858" cy="33" r="3"/><circle cx="715.8479985086713" cy="33" r="3"/><circle cx="694.4805129774144" cy="33" r="3"/><circle cx="692.4749288134998" cy="33" r="3"/><circle cx="692.3898344775716" cy="33" r="3"/><circle cx="691.7695820648761" cy="138" r="3"/><circle cx="684.5647390228667" cy="33" r="3"/><circle cx="684.4139691207307" cy="33" r="3"/><circle cx="684.3935156927147" cy="33" r="3"/><circle cx="684.389515855157" cy="33" r="3"/><circle cx="684.3522681565123" cy="33" r="3"/><circle cx="684.3125221366171" cy="33" r="3"/><circle cx="684.2894694450778" cy="33" r="3"/><circle cx="684.2876903375205" cy="33" r="3"/><circle cx="684.2569155621159" cy="33" r="3"/><circle cx="683.7903603774661" cy="33" r="3"/><circle cx="683.7862091264994" cy="33" r="3"/><circle cx="683.7009507593781" cy="33" r="3"/><circle cx="683.4786506392145" cy="33" r="3"/><circle cx="683.3981617944806" cy="33" r="3"/><circle cx="683.3820867375453" cy="33" r="3"/><circle cx="683.3708442919178" cy="33" r="3"/><circle cx="683.3698096336221" cy="33" r="3"/><circle cx="682.243861670018" cy="33" r="3"/><circle cx="682.0630109706025" cy="33" r="3"/><circle cx="681.2100992370026" cy="33" r="3"/><circle cx="681.1593631271617" cy="33" r="3"/><circle cx="680.3417054823196" cy="33" r="3"/><circle cx="680.1201119580656" cy="33" r="3"/><circle cx="680.1024470603344" cy="33" r="3"/><circle cx="680.0993178498791" cy="33" r="3"/><circle cx="680.0913812636841" cy="33" r="3"/><circle cx="680.0206459660546" cy="33" r="3"/><circle cx="679.302378606519" cy="33" r="3"/><circle cx="679.3008013835073" cy="33" r="3"/><circle cx="672.6939529830521" cy="33" r="3"/><circle cx="672.3759343527537" cy="33" r="3"/><circle cx="671.5619232475148" cy="33" r="3"/><circle cx="671.3735271132113" cy="33" r="3"/><circle cx="671.3712811476425" cy="33" r="3"/><circle cx="671.3702338715628" cy="33" r="3"/><circle cx="670.8739511875882" cy="33" r="3"/><circle cx="670.8384195075803" cy="33" r="3"/><circle cx="670.8236440824064" cy="33" r="3"/><circle cx="670.6917630030588" cy="33" r="3"/><circle cx="670.6790568944765" cy="33" r="3"/><circle cx="638.8947073489574" cy="33" r="3"/><circle cx="638.8938871929912" cy="33" r="3"/><circle cx="632.5654628163483" cy="33" r="3"/><circle cx="632.5190419886675" cy="33" r="3"/><circle cx="632.402554605914" cy="33" r="3"/><circle cx="608.4576090822623" cy="33" r="3"/><circle cx="608.4515273103291" cy="33" r="3"/><circle cx="608.3142205838212" cy="33" r="3"/><circle cx="608.2822597367118" cy="33" r="3"/><circle cx="608.2479519817608" cy="33" r="3"/><circle cx="608.0949613496244" cy="33" r="3"/><circle cx="607.1599456949266" cy="33" r="3"/><circle cx="607.1364639987281" cy="33" r="3"/><circle cx="606.2184571169886" cy="33" r="3"/><circle cx="606.2180154945454" cy="33" r="3"/><circle cx="606.1475451703819" cy="33" r="3"/><circle cx="606.0082574517712" cy="33" r="3"/><circle cx="605.0891023516792" cy="33" r="3"/><circle cx="605.0292814372908" cy="33" r="3"/><circle cx="604.9596691224457" cy="33" r="3"/><circle cx="603.0120258230896" cy="33" r="3"/><circle cx="602.9471577950637" cy="33" r="3"/><circle cx="602.9243196058541" cy="33" r="3"/><circle cx="602.783366339743" cy="33" r="3"/><circle cx="602.0756726832778" cy="33" r="3"/><circle cx="602.0138329234346" cy="33" r="3"/><circle cx="602.0024516821819" cy="33" r="3"/><circle cx="601.683549806997" cy="33" r="3"/><circle cx="599.4488140661562" cy="33" r="3"/><circle cx="599.4482336480878" cy="33" r="3"/><circle cx="592.9062406578745" cy="33" r="3"/><circle cx="592.7835705609152" cy="33" r="3"/><circle cx="592.7108921245353" cy="33" r="3"/><circle cx="592.2701024550049" cy="33" r="3"/><circle cx="592.1687059420276" cy="33" r="3"/><circle cx="591.1110454259388" cy="33" r="3"/><circle cx="591.0680818710997" cy="33" r="3"/><circle cx="591.0651545451899" cy="33" r="3"/><circle cx="591.0367140598427" cy="33" r="3"/><circle cx="591.00055149063" cy="33" r="3"/><circle cx="589.9847063110277" cy="33" r="3"/><circle cx="589.9770725516511" cy="33" r="3"/><circle cx="589.9763785735258" cy="33" r="3"/><circle cx="589.9759495688667" cy="33" r="3"/><circle cx="589.975583653128" cy="33" r="3"/><circle cx="589.9747634971619" cy="33" r="3"/><circle cx="589.9701201526154" cy="33" r="3"/><circle cx="583.1162533929572" cy="33" r="3"/><circle cx="583.115950566139" cy="33" r="3"/><circle cx="583.113792925059" cy="33" r="3"/><circle cx="583.0686969647079" cy="33" r="3"/><circle cx="583.0413416087928" cy="33" r="3"/><circle cx="583.0298215719151" cy="33" r="3"/><circle cx="582.348259346308" cy="33" r="3"/><circle cx="582.1954832165012" cy="33" r="3"/><circle cx="582.0894812123298" cy="33" r="3"/><circle cx="581.9409825113307" cy="33" r="3"/><circle cx="581.8801521742147" cy="33" r="3"/><circle cx="581.097370084608" cy="33" r="3"/><circle cx="581.0529681023819" cy="33" r="3"/><circle cx="565.388228887912" cy="33" r="3"/><circle cx="564.8040885732927" cy="33" r="3"/><circle cx="564.0206251233446" cy="54" r="3"/><circle cx="562.5009770604479" cy="33" r="3"/><circle cx="562.4303048517389" cy="33" r="3"/><circle cx="561.3191575488768" cy="33" r="3"/><circle cx="559.0411554263785" cy="33" r="3"/><circle cx="559.0391870520599" cy="33" r="3"/><circle cx="558.9262326488528" cy="33" r="3"/><circle cx="558.0120111023415" cy="33" r="3"/><circle cx="557.9946237958603" cy="33" r="3"/><circle cx="557.9195353627185" cy="33" r="3"/><circle cx="557.8949433015199" cy="33" r="3"/><circle cx="556.164881071076" cy="33" r="3"/><circle cx="556.016950170361" cy="33" r="3"/><circle cx="555.9838915760355" cy="33" r="3"/><circle cx="555.825651945716" cy="33" r="3"/><circle cx="555.6895817620493" cy="33" r="3"/><circle cx="555.6755634039212" cy="33" r="3"/><circle cx="555.6750965459097" cy="33" r="3"/><circle cx="555.600298321802" cy="33" r="3"/><circle cx="555.5764002387285" cy="33" r="3"/><circle cx="555.5675677898629" cy="33" r="3"/><circle cx="555.2720214330353" cy="33" r="3"/><circle cx="555.2560473183727" cy="33" r="3"/><circle cx="555.2133361192155" cy="33" r="3"/><circle cx="554.9116449015343" cy="33" r="3"/><circle cx="554.8893492770407" cy="33" r="3"/><circle cx="554.8599750756705" cy="33" r="3"/><circle cx="554.733103256608" cy="33" r="3"/><circle cx="554.630798263176" cy="33" r="3"/><circle cx="554.6298897827213" cy="33" r="3"/><circle cx="554.59175883919" cy="33" r="3"/><circle cx="554.5874687925982" cy="33" r="3"/><circle cx="553.8244713884502" cy="54" r="3"/><circle cx="553.7588715289469" cy="33" r="3"/><circle cx="553.7182674997333" cy="33" r="3"/><circle cx="553.6494501052861" cy="33" r="3"/><circle cx="553.6140193675508" cy="33" r="3"/><circle cx="553.0447049492417" cy="33" r="3"/><circle cx="553.0245291124759" cy="33" r="3"/><circle cx="553.0165672907127" cy="33" r="3"/><circle cx="552.8702136130095" cy="33" r="3"/><circle cx="552.778356144807" cy="33" r="3"/><circle cx="552.7017157242218" cy="33" r="3"/><circle cx="552.6943090849588" cy="33" r="3"/><circle cx="552.6516357391538" cy="33" r="3"/><circle cx="552.6181229046008" cy="33" r="3"/><circle cx="552.5891272367534" cy="33" r="3"/><circle cx="552.5792601295922" cy="33" r="3"/><circle cx="552.536296574753" cy="33" r="3"/><circle cx="552.4133615043278" cy="33" r="3"/><circle cx="552.3878861982425" cy="33" r="3"/><circle cx="551.6103657246026" cy="33" r="3"/><circle cx="551.5209939598668" cy="33" r="3"/><circle cx="551.3855925187569" cy="33" r="3"/><circle cx="551.3845957138135" cy="33" r="3"/><circle cx="550.6054223104574" cy="33" r="3"/><circle cx="550.5938139490911" cy="33" r="3"/><circle cx="550.5765149670987" cy="33" r="3"/><circle cx="550.5168833194717" cy="33" r="3"/><circle cx="550.5117731169138" cy="33" r="3"/><circle cx="549.8117763087457" cy="33" r="3"/><circle cx="549.6676812143953" cy="33" r="3"/><circle cx="549.6503569968346" cy="33" r="3"/><circle cx="549.6199607549529" cy="33" r="3"/><circle cx="549.5996208869938" cy="33" r="3"/><circle cx="549.5749531190905" cy="33" r="3"/><circle cx="549.5163435119752" cy="33" r="3"/><circle cx="549.3419531180157" cy="33" r="3"/><circle cx="549.2731861947049" cy="33" r="3"/><circle cx="549.271457558284" cy="33" r="3"/><circle cx="548.3796073429709" cy="33" r="3"/><circle cx="547.5180271916986" cy="75" r="3"/><circle cx="547.5128160468679" cy="75" r="3"/><circle cx="547.5114659439699" cy="75" r="3"/><circle cx="547.3754209958713" cy="75" r="3"/><circle cx="547.3011401009114" cy="33" r="3"/><circle cx="547.2910837269887" cy="33" r="3"/><circle cx="545.3221037547302" cy="75" r="3"/><circle cx="535.1201206035844" cy="33" r="3"/><circle cx="534.6432440715458" cy="75" r="3"/><circle cx="533.193851830483" cy="33" r="3"/><circle cx="533.1703575165004" cy="33" r="3"/><circle cx="532.2312284641881" cy="33" r="3"/><circle cx="532.1997597106583" cy="33" r="3"/><circle cx="532.1841136583821" cy="33" r="3"/><circle cx="532.181691043836" cy="33" r="3"/><circle cx="531.256870558686" cy="33" r="3"/><circle cx="531.256063020504" cy="33" r="3"/><circle cx="531.1098859917781" cy="33" r="3"/><circle cx="531.1095831649599" cy="33" r="3"/><circle cx="531.1089018046189" cy="33" r="3"/><circle cx="531.048614032219" cy="33" r="3"/><circle cx="531.0449674926159" cy="33" r="3"/><circle cx="530.0806154899002" cy="33" r="3"/><circle cx="530.0685150349543" cy="33" r="3"/><circle cx="530.0288951929" cy="33" r="3"/><circle cx="529.954727857997" cy="33" r="3"/><circle cx="529.9517248253827" cy="33" r="3"/><circle cx="529.9402047885052" cy="33" r="3"/><circle cx="529.935876888561" cy="33" r="3"/><circle cx="529.9355740617427" cy="33" r="3"/><circle cx="529.918376022023" cy="33" r="3"/><circle cx="529.9177577506024" cy="33" r="3"/><circle cx="529.9171899503182" cy="33" r="3"/><circle cx="529.916773563443" cy="33" r="3"/><circle cx="529.915701051795" cy="33" r="3"/><circle cx="529.8234398145017" cy="33" r="3"/><circle cx="529.8226070407516" cy="33" r="3"/><circle cx="529.7379669450507" cy="33" r="3"/><circle cx="529.6572635979873" cy="33" r="3"/><circle cx="529.6007737785997" cy="33" r="3"/><circle cx="529.4856364987444" cy="54" r="3"/><circle cx="523.4638621289314" cy="75" r="3"/><circle cx="523.1319387005617" cy="75" r="3"/><circle cx="522.4562311267741" cy="75" r="3"/><circle cx="522.4449129744421" cy="75" r="3"/><circle cx="522.0336993908275" cy="75" r="3"/><circle cx="520.01910612907" cy="75" r="3"/><circle cx="518.0553877727784" cy="33" r="3"/><circle cx="517.9927530925371" cy="33" r="3"/><circle cx="517.9372979314451" cy="33" r="3"/><circle cx="517.9369572512746" cy="33" r="3"/><circle cx="517.920983136612" cy="75" r="3"/><circle cx="517.914926600247" cy="75" r="3"/><circle cx="517.8912934906394" cy="75" r="3"/><circle cx="517.8831550198989" cy="33" r="3"/><circle cx="517.0070139457825" cy="75" r="3"/><circle cx="514.5310387908537" cy="75" r="3"/><circle cx="512.3884759628176" cy="75" r="3"/><circle cx="512.3860912016238" cy="75" r="3"/><circle cx="512.165343068904" cy="33" r="3"/><circle cx="512.1381012730455" cy="33" r="3"/><circle cx="510.0659456802525" cy="33" r="3"/><circle cx="503.90861845592065" cy="75" r="3"/><circle cx="501.6509688191656" cy="33" r="3"/><circle cx="501.6502622232564" cy="33" r="3"/><circle cx="501.64418045132317" cy="33" r="3"/><circle cx="501.1681240752508" cy="33" r="3"/><circle cx="501.03070378868597" cy="33" r="3"/><circle cx="501.02704463129874" cy="33" r="3"/><circle cx="500.9504420640657" cy="54" r="3"/><circle cx="500.58649469966616" cy="33" r="3"/><circle cx="500.5491586765328" cy="33" r="3"/><circle cx="500.5248442065842" cy="33" r="3"/><circle cx="500.50962715896713" cy="33" r="3"/><circle cx="499.6429115695687" cy="33" r="3"/><circle cx="499.5676464874495" cy="33" r="3"/><circle cx="499.56310408517584" cy="33" r="3"/><circle cx="499.30855290886893" cy="33" r="3"/><circle cx="499.23856206050095" cy="33" r="3"/><circle cx="499.22073313157654" cy="33" r="3"/><circle cx="499.21340219901805" cy="33" r="3"/><circle cx="499.21216565617686" cy="33" r="3"/><circle cx="499.1879899818533" cy="33" r="3"/><circle cx="499.18746003492134" cy="33" r="3"/><circle cx="499.1213933174066" cy="33" r="3"/><circle cx="499.11247254405237" cy="33" r="3"/><circle cx="499.1034760639935" cy="33" r="3"/><circle cx="499.10176004535674" cy="33" r="3"/><circle cx="499.10144460075435" cy="33" r="3"/><circle cx="499.09774759001493" cy="33" r="3"/><circle cx="499.09741952762846" cy="33" r="3"/><circle cx="499.0959558646736" cy="33" r="3"/><circle cx="498.0287436860258" cy="33" r="3"/><circle cx="495.9080474778241" cy="33" r="3"/><circle cx="495.7684064612588" cy="33" r="3"/><circle cx="495.75686118881305" cy="75" r="3"/><circle cx="495.0066960710884" cy="33" r="3"/><circle cx="494.8698562025919" cy="33" r="3"/><circle cx="494.635771072085" cy="33" r="3"/><circle cx="494.10309869878404" cy="33" r="3"/><circle cx="493.9173396813561" cy="33" r="3"/><circle cx="493.917049472322" cy="33" r="3"/><circle cx="493.9154217781738" cy="33" r="3"/><circle cx="493.9150684802192" cy="33" r="3"/><circle cx="493.83435251537156" cy="33" r="3"/><circle cx="493.79402607740803" cy="33" r="3"/><circle cx="493.6595709701053" cy="33" r="3"/><circle cx="493.6187776741302" cy="33" r="3"/><circle cx="492.9515366334696" cy="33" r="3"/><circle cx="492.7005436722771" cy="33" r="3"/><circle cx="491.7561782395658" cy="33" r="3"/><circle cx="491.5156958925234" cy="33" r="3"/><circle cx="490.45698810035475" cy="117" r="3"/><circle cx="489.4660630443376" cy="33" r="3"/><circle cx="488.3963651622234" cy="33" r="3"/><circle cx="488.39594877534824" cy="33" r="3"/><circle cx="488.39247888472255" cy="33" r="3"/><circle cx="488.38889543403985" cy="33" r="3"/><circle cx="488.38757056671" cy="33" r="3"/><circle cx="488.0786115053909" cy="75" r="3"/><circle cx="488.07411957425353" cy="75" r="3"/><circle cx="487.4148908264924" cy="33" r="3"/><circle cx="487.4119130294463" cy="33" r="3"/><circle cx="487.40642429336555" cy="33" r="3"/><circle cx="487.39231761074876" cy="33" r="3"/><circle cx="487.2964603049886" cy="33" r="3"/><circle cx="487.25449355509295" cy="33" r="3"/><circle cx="487.2438189097496" cy="33" r="3"/><circle cx="486.96139504837964" cy="75" r="3"/><circle cx="486.91204689478906" cy="33" r="3"/><circle cx="486.71734186843867" cy="75" r="3"/><circle cx="486.44863353837854" cy="33" r="3"/><circle cx="484.94189346860963" cy="33" r="3"/><circle cx="484.88786411712033" cy="75" r="3"/><circle cx="484.88662757427915" cy="75" r="3"/><circle cx="484.8852017646765" cy="75" r="3"/><circle cx="484.4707958816862" cy="75" r="3"/><circle cx="481.7212545498211" cy="33" r="3"/><circle cx="478.62916561537935" cy="33" r="3"/><circle cx="478.00573352109217" cy="117" r="3"/><circle cx="476.3702794357832" cy="75" r="3"/><circle cx="476.3683362970328" cy="75" r="3"/><circle cx="476.36732687430526" cy="75" r="3"/><circle cx="476.1878641311401" cy="33" r="3"/><circle cx="476.0591248800318" cy="33" r="3"/><circle cx="469.54697294920004" cy="33" r="3"/><circle cx="469.51493639538603" cy="33" r="3"/><circle cx="469.51363676362433" cy="33" r="3"/><circle cx="466.40269685974664" cy="75" r="3"/><circle cx="465.5404479659174" cy="33" r="3"/><circle cx="464.5294101620549" cy="33" r="3"/><circle cx="464.34055978752394" cy="33" r="3"/><circle cx="463.9409293297073" cy="54" r="3"/><circle cx="461.1497240747648" cy="75" r="3"/><circle cx="461.1470995756733" cy="75" r="3"/><circle cx="458.69528747728396" cy="33" r="3"/><circle cx="458.6891930875666" cy="33" r="3"/><circle cx="457.91823386165555" cy="33" r="3"/><circle cx="456.72283761439945" cy="33" r="3"/><circle cx="456.5277666723104" cy="33" r="3"/><circle cx="455.66659029012914" cy="33" r="3"/><circle cx="455.4109161310379" cy="33" r="3"/><circle cx="454.6309856606361" cy="33" r="3"/><circle cx="454.5681490958493" cy="33" r="3"/><circle cx="452.16837273906253" cy="54" r="3"/><circle cx="448.90541377242346" cy="33" r="3"/><circle cx="446.9934535664844" cy="33" r="3"/><circle cx="439.1992464472409" cy="54" r="3"/><circle cx="439.0200360597577" cy="33" r="3"/><circle cx="439.01861025015506" cy="33" r="3"/><circle cx="438.9428783100244" cy="33" r="3"/><circle cx="438.8858837792731" cy="33" r="3"/><circle cx="436.90095492792" cy="33" r="3"/><circle cx="432.6662877904386" cy="33" r="3"/><circle cx="427.50420090428383" cy="33" r="3"/><circle cx="427.44791296944175" cy="33" r="3"/><circle cx="425.26781223372683" cy="33" r="3"/><circle cx="425.2569104682698" cy="33" r="3"/><circle cx="425.2205081611594" cy="33" r="3"/><circle cx="418.4701703199903" cy="33" r="3"/><circle cx="401.93910666742875" cy="33" r="3"/><circle cx="401.21740727061956" cy="33" r="3"/><circle cx="399.9602469702247" cy="33" r="3"/><circle cx="394.988511974908" cy="117" r="3"/><circle cx="394.3213718765202" cy="33" r="3"/><circle cx="384.78066155415866" cy="33" r="3"/><circle cx="381.38680569533125" cy="33" r="3"/><circle cx="374.9088479593936" cy="33" r="3"/><circle cx="374.7966632410162" cy="33" r="3"/><circle cx="370.62489575724203" cy="33" r="3"/><circle cx="367.0886482049169" cy="33" r="3"/><circle cx="365.0746605967959" cy="33" r="3"/><circle cx="364.9672075474537" cy="33" r="3"/><circle cx="348.01193399366093" cy="33" r="3"/><circle cx="346.9887831170684" cy="33" r="3"/><circle cx="346.6337312904549" cy="33" r="3"/><circle cx="346.4765894073515" cy="33" r="3"/><circle cx="336.578732706217" cy="33" r="3"/><circle cx="334.64713922822807" cy="33" r="3"/><circle cx="334.5376925689991" cy="33" r="3"/><circle cx="334.4458603363649" cy="33" r="3"/><circle cx="334.28064307144155" cy="33" r="3"/><circle cx="333.8136967354848" cy="33" r="3"/><circle cx="333.7880447804223" cy="33" r="3"/><circle cx="333.5725582636695" cy="33" r="3"/><circle cx="332.3476742549865" cy="33" r="3"/><circle cx="324.09508827518584" cy="33" r="3"/><circle cx="322.43370464356417" cy="33" r="3"/><circle cx="319.01861305410705" cy="33" r="3"/><circle cx="318.17863454920325" cy="33" r="3"/><circle cx="318.14982814811725" cy="54" r="3"/><circle cx="318.1414373216949" cy="33" r="3"/><circle cx="317.7987887768455" cy="54" r="3"/><circle cx="312.99719198224875" cy="33" r="3"/><circle cx="312.95121277701116" cy="33" r="3"/><circle cx="312.94472723598705" cy="33" r="3"/><circle cx="312.80166679993226" cy="33" r="3"/><circle cx="312.54421353328377" cy="33" r="3"/><circle cx="298.6170567485774" cy="33" r="3"/><circle cx="298.61522716988384" cy="33" r="3"/><circle cx="298.47973740428534" cy="33" r="3"/><circle cx="293.99474604816845" cy="33" r="3"/><circle cx="293.21745269464225" cy="33" r="3"/><circle cx="293.14426954689867" cy="33" r="3"/><circle cx="293.12231460257556" cy="33" r="3"/><circle cx="293.0265582390882" cy="33" r="3"/><circle cx="293.02392112221264" cy="33" r="3"/><circle cx="293.0087419279479" cy="33" r="3"/><circle cx="292.99221263078505" cy="33" r="3"/><circle cx="292.9547251942426" cy="33" r="3"/><circle cx="289.8604029120163" cy="33" r="3"/><circle cx="286.1842872230122" cy="54" r="3"/><circle cx="283.14345172755924" cy="33" r="3"/><circle cx="272.53607179126595" cy="33" r="3"/><circle cx="272.5081864884188" cy="33" r="3"/><circle cx="272.2755271675145" cy="33" r="3"/><circle cx="271.49699727114717" cy="33" r="3"/><circle cx="271.4869030438722" cy="33" r="3"/><circle cx="271.41732858237935" cy="33" r="3"/><circle cx="270.51031179058555" cy="33" r="3"/><circle cx="270.50154243064037" cy="33" r="3"/><circle cx="270.49485500507075" cy="33" r="3"/><circle cx="270.3917677090249" cy="33" r="3"/><circle cx="270.26326819581436" cy="33" r="3"/><circle cx="270.04770597235705" cy="33" r="3"/><circle cx="269.6852601242646" cy="33" r="3"/><circle cx="269.67835819636537" cy="33" r="3"/><circle cx="269.67492615909185" cy="33" r="3"/><circle cx="261.2310419546462" cy="33" r="3"/><circle cx="257.1682038009533" cy="33" r="3"/><circle cx="237.6825345894353" cy="33" r="3"/><circle cx="237.6684405246026" cy="33" r="3"/><circle cx="233.5839628711889" cy="33" r="3"/><circle cx="220.02460187503075" cy="33" r="3"/><circle cx="220.02376910128055" cy="33" r="3"/><circle cx="219.97196047979173" cy="33" r="3"/><circle cx="219.94261151398968" cy="33" r="3"/><circle cx="219.88092316755544" cy="33" r="3"/><circle cx="219.40316339063037" cy="33" r="3"/><circle cx="219.38759304505868" cy="33" r="3"/><circle cx="219.38580131971742" cy="33" r="3"/><circle cx="219.36766956397474" cy="33" r="3"/><circle cx="219.36337951738284" cy="33" r="3"/><circle cx="219.13084637431947" cy="33" r="3"/><circle cx="219.12193821874928" cy="33" r="3"/><circle cx="219.0953273120956" cy="33" r="3"/><circle cx="219.09459548061818" cy="33" r="3"/><circle cx="219.00507230247317" cy="33" r="3"/><circle cx="219.0027380124158" cy="33" r="3"/><circle cx="218.49477126037033" cy="33" r="3"/><circle cx="218.47901164803727" cy="33" r="3"/><circle cx="218.44798451695078" cy="33" r="3"/><circle cx="218.4334993008112" cy="33" r="3"/><circle cx="218.4037087125659" cy="33" r="3"/><circle cx="218.3795708915946" cy="33" r="3"/><circle cx="218.34164183260884" cy="33" r="3"/><circle cx="218.29204132333638" cy="33" r="3"/><circle cx="218.2535066107141" cy="33" r="3"/><circle cx="218.23127407514096" cy="33" r="3"/><circle cx="218.14797146455413" cy="33" r="3"/><circle cx="217.98208545707382" cy="33" r="3"/><circle cx="216.98734983026043" cy="33" r="3"/><circle cx="188.72710952876827" cy="33" r="3"/><circle cx="188.43445264449826" cy="33" r="3"/><circle cx="187.8551449411869" cy="33" r="3"/><circle cx="187.68446417575097" cy="33" r="3"/><circle cx="187.59940769317512" cy="33" r="3"/><circle cx="186.7708861362284" cy="33" r="3"/><circle cx="186.7310644096286" cy="33" r="3"/><circle cx="186.6316236531859" cy="33" r="3"/><circle cx="186.47757312718554" cy="33" r="3"/><circle cx="186.4750621881509" cy="33" r="3"/><circle cx="176.75393017103312" cy="33" r="3"/><circle cx="137.32345582039454" cy="33" r="3"/><circle cx="137.24761032020712" cy="33" r="3"/><circle cx="136.9966047412305" cy="33" r="3"/><circle cx="136.28845684453802" cy="33" r="3"/><circle cx="133.87174742149742" cy="33" r="3"/><circle cx="133.80325808943664" cy="33" r="3"/><circle cx="133.80166824864082" cy="33" r="3"/><circle cx="133.80063359034514" cy="33" r="3"/><circle cx="133.78203497659098" cy="33" r="3"/><circle cx="133.76116516169995" cy="33" r="3"/><circle cx="133.7453046070941" cy="33" r="3"/><circle cx="133.28462930983198" cy="33" r="3"/><circle cx="133.21905468589685" cy="33" r="3"/><circle cx="133.2175405518056" cy="33" r="3"/><circle cx="133.17851374560368" cy="33" r="3"/><circle cx="133.06873902398823" cy="33" r="3"/><circle cx="132.98392227931015" cy="33" r="3"/><circle cx="120.84965167205033" cy="33" r="3"/><circle cx="111.93218417721462" cy="33" r="3"/><circle cx="107.04636367379214" cy="33" r="3"/><circle cx="105.44274425775161" cy="33" r="3"/><circle cx="104.58932781278799" cy="33" r="3"/><circle cx="103.26923000533358" cy="54" r="3"/><circle cx="101.61775133422552" cy="33" r="3"/><circle cx="101.61671667592984" cy="33" r="3"/><circle cx="100.14395629872539" cy="33" r="3"/><circle cx="100.09941552087452" cy="33" r="3"/><circle cx="100.03753790767885" cy="33" r="3"/><circle cx="100.01141909460483" cy="33" r="3"/><circle cx="100" cy="33" r="3"/></g><g aria-label="tip" fill="white" stroke="currentColor" pointer-events="none" text-anchor="start"/></svg>